%TF.GenerationSoftware,KiCad,Pcbnew,7.0.7*%
%TF.CreationDate,2023-11-05T11:25:07-06:00*%
%TF.ProjectId,LEDBreakout_Hardware,4c454442-7265-4616-9b6f-75745f486172,rev?*%
%TF.SameCoordinates,Original*%
%TF.FileFunction,Soldermask,Top*%
%TF.FilePolarity,Negative*%
%FSLAX46Y46*%
G04 Gerber Fmt 4.6, Leading zero omitted, Abs format (unit mm)*
G04 Created by KiCad (PCBNEW 7.0.7) date 2023-11-05 11:25:07*
%MOMM*%
%LPD*%
G01*
G04 APERTURE LIST*
G04 Aperture macros list*
%AMRoundRect*
0 Rectangle with rounded corners*
0 $1 Rounding radius*
0 $2 $3 $4 $5 $6 $7 $8 $9 X,Y pos of 4 corners*
0 Add a 4 corners polygon primitive as box body*
4,1,4,$2,$3,$4,$5,$6,$7,$8,$9,$2,$3,0*
0 Add four circle primitives for the rounded corners*
1,1,$1+$1,$2,$3*
1,1,$1+$1,$4,$5*
1,1,$1+$1,$6,$7*
1,1,$1+$1,$8,$9*
0 Add four rect primitives between the rounded corners*
20,1,$1+$1,$2,$3,$4,$5,0*
20,1,$1+$1,$4,$5,$6,$7,0*
20,1,$1+$1,$6,$7,$8,$9,0*
20,1,$1+$1,$8,$9,$2,$3,0*%
G04 Aperture macros list end*
%ADD10RoundRect,0.237500X-0.237500X0.250000X-0.237500X-0.250000X0.237500X-0.250000X0.237500X0.250000X0*%
%ADD11C,2.946400*%
%ADD12RoundRect,0.237500X0.250000X0.237500X-0.250000X0.237500X-0.250000X-0.237500X0.250000X-0.237500X0*%
%ADD13RoundRect,0.150000X0.587500X0.150000X-0.587500X0.150000X-0.587500X-0.150000X0.587500X-0.150000X0*%
%ADD14RoundRect,0.249999X-1.075001X0.450001X-1.075001X-0.450001X1.075001X-0.450001X1.075001X0.450001X0*%
%ADD15RoundRect,0.237500X0.237500X-0.250000X0.237500X0.250000X-0.237500X0.250000X-0.237500X-0.250000X0*%
%ADD16RoundRect,0.150000X-0.587500X-0.150000X0.587500X-0.150000X0.587500X0.150000X-0.587500X0.150000X0*%
%ADD17RoundRect,0.150000X-0.150000X0.587500X-0.150000X-0.587500X0.150000X-0.587500X0.150000X0.587500X0*%
%ADD18C,1.524000*%
%ADD19RoundRect,0.249999X0.450001X1.075001X-0.450001X1.075001X-0.450001X-1.075001X0.450001X-1.075001X0*%
%ADD20R,2.240000X2.240000*%
%ADD21O,2.240000X2.240000*%
G04 APERTURE END LIST*
D10*
%TO.C,R9*%
X66040000Y-71731500D03*
X66040000Y-73556500D03*
%TD*%
D11*
%TO.C,REF\u002A\u002A*%
X68580000Y-63500000D03*
%TD*%
D10*
%TO.C,R11*%
X66040000Y-81891500D03*
X66040000Y-83716500D03*
%TD*%
%TO.C,R12*%
X66040000Y-87075000D03*
X66040000Y-88900000D03*
%TD*%
D12*
%TO.C,R1*%
X89722000Y-68707000D03*
X87897000Y-68707000D03*
%TD*%
D13*
%TO.C,Q1*%
X95009000Y-76703000D03*
X95009000Y-74803000D03*
X93134000Y-75753000D03*
%TD*%
D11*
%TO.C,REF\u002A\u002A*%
X100330000Y-63500000D03*
%TD*%
D14*
%TO.C,R8*%
X97803000Y-74689000D03*
X97803000Y-79489000D03*
%TD*%
D15*
%TO.C,R2*%
X93231000Y-72667500D03*
X93231000Y-70842500D03*
%TD*%
D11*
%TO.C,REF\u002A\u002A*%
X100330000Y-95250000D03*
%TD*%
D10*
%TO.C,R5*%
X76467000Y-85574500D03*
X76467000Y-87399500D03*
%TD*%
%TO.C,R4*%
X72403000Y-79478500D03*
X72403000Y-81303500D03*
%TD*%
D13*
%TO.C,Q4*%
X97216500Y-83627000D03*
X97216500Y-81727000D03*
X95341500Y-82677000D03*
%TD*%
D16*
%TO.C,Q3*%
X79593500Y-89855000D03*
X79593500Y-91755000D03*
X81468500Y-90805000D03*
%TD*%
D11*
%TO.C,REF\u002A\u002A*%
X68580000Y-95250000D03*
%TD*%
D17*
%TO.C,Q2*%
X74181000Y-74373500D03*
X72281000Y-74373500D03*
X73231000Y-76248500D03*
%TD*%
D10*
%TO.C,R6*%
X88151000Y-87249000D03*
X88151000Y-89074000D03*
%TD*%
D18*
%TO.C,Conn1*%
X76835000Y-64135000D03*
X79375000Y-64135000D03*
X81915000Y-64135000D03*
X84455000Y-64135000D03*
X86995000Y-64135000D03*
X89535000Y-64135000D03*
X92075000Y-64135000D03*
%TD*%
D12*
%TO.C,R3*%
X78141500Y-72009000D03*
X76316500Y-72009000D03*
%TD*%
D19*
%TO.C,R7*%
X95377000Y-87503000D03*
X90577000Y-87503000D03*
%TD*%
D10*
%TO.C,R10*%
X66040000Y-76811500D03*
X66040000Y-78636500D03*
%TD*%
D20*
%TO.C,D1*%
X84595000Y-72771000D03*
D21*
X84595000Y-70231000D03*
%TD*%
D20*
%TO.C,D5*%
X79769000Y-84709000D03*
D21*
X79769000Y-87249000D03*
%TD*%
D20*
%TO.C,D2*%
X89675000Y-74041000D03*
D21*
X89675000Y-71501000D03*
%TD*%
D20*
%TO.C,D3*%
X79515000Y-75057000D03*
D21*
X76975000Y-75057000D03*
%TD*%
D20*
%TO.C,D6*%
X84849000Y-86065000D03*
D21*
X84849000Y-88605000D03*
%TD*%
D20*
%TO.C,D4*%
X77483000Y-79883000D03*
D21*
X74943000Y-79883000D03*
%TD*%
M02*
