M48
; DRILL file {KiCad 7.0.7} date 2023 November 04, Saturday 22:35:46
; FORMAT={-:-/ absolute / inch / decimal}
; #@! TF.CreationDate,2023-11-04T22:35:46-05:00
; #@! TF.GenerationSoftware,Kicad,Pcbnew,7.0.7
; #@! TF.FileFunction,Plated,1,2,PTH
FMAT,2
INCH
; #@! TA.AperFunction,Plated,PTH,ViaDrill
T1C0.0157
; #@! TA.AperFunction,Plated,PTH,ComponentDrill
T2C0.0354
; #@! TA.AperFunction,Plated,PTH,ComponentDrill
T3C0.0472
%
G90
G05
T1
X2.58Y-2.74
X2.58Y-2.84
X2.58Y-2.93
X2.58Y-3.02
X2.785Y-3.11
X2.87Y-2.935
X3.04Y-3.785
X3.235Y-2.98
X3.305Y-3.245
X3.52Y-3.57
X3.685Y-3.455
X3.7Y-3.37
X3.77Y-3.27
X3.78Y-3.035
X3.8994Y-3.3644
X3.935Y-2.975
T2
X3.025Y-2.525
X3.125Y-2.525
X3.225Y-2.525
X3.325Y-2.525
X3.425Y-2.525
X3.525Y-2.525
X3.625Y-2.525
T3
X2.96Y-3.32
X3.04Y-3.13
X3.06Y-3.32
X3.14Y-3.13
X3.15Y-3.51
X3.15Y-3.61
X3.34Y-2.94
X3.34Y-3.04
X3.35Y-3.5634
X3.35Y-3.6634
X3.54Y-2.99
X3.54Y-3.09
T0
M30
