%TF.GenerationSoftware,KiCad,Pcbnew,7.0.7*%
%TF.CreationDate,2023-11-04T22:35:43-05:00*%
%TF.ProjectId,LEDBreakout_Hardware,4c454442-7265-4616-9b6f-75745f486172,rev?*%
%TF.SameCoordinates,Original*%
%TF.FileFunction,Legend,Top*%
%TF.FilePolarity,Positive*%
%FSLAX46Y46*%
G04 Gerber Fmt 4.6, Leading zero omitted, Abs format (unit mm)*
G04 Created by KiCad (PCBNEW 7.0.7) date 2023-11-04 22:35:43*
%MOMM*%
%LPD*%
G01*
G04 APERTURE LIST*
%ADD10C,0.837000*%
%ADD11C,0.150000*%
%ADD12C,0.127000*%
%ADD13C,0.120000*%
G04 APERTURE END LIST*
D10*
X92620500Y-67818000D02*
G75*
G03*
X92620500Y-67818000I-418500J0D01*
G01*
D11*
X74838112Y-67672009D02*
X74504779Y-67672009D01*
X74504779Y-68195819D02*
X74504779Y-67195819D01*
X74504779Y-67195819D02*
X74980969Y-67195819D01*
X75504779Y-68195819D02*
X75409541Y-68148200D01*
X75409541Y-68148200D02*
X75361922Y-68052961D01*
X75361922Y-68052961D02*
X75361922Y-67195819D01*
X76314303Y-67529152D02*
X76314303Y-68195819D01*
X75885732Y-67529152D02*
X75885732Y-68052961D01*
X75885732Y-68052961D02*
X75933351Y-68148200D01*
X75933351Y-68148200D02*
X76028589Y-68195819D01*
X76028589Y-68195819D02*
X76171446Y-68195819D01*
X76171446Y-68195819D02*
X76266684Y-68148200D01*
X76266684Y-68148200D02*
X76314303Y-68100580D01*
X76933351Y-68195819D02*
X76838113Y-68148200D01*
X76838113Y-68148200D02*
X76790494Y-68100580D01*
X76790494Y-68100580D02*
X76742875Y-68005342D01*
X76742875Y-68005342D02*
X76742875Y-67719628D01*
X76742875Y-67719628D02*
X76790494Y-67624390D01*
X76790494Y-67624390D02*
X76838113Y-67576771D01*
X76838113Y-67576771D02*
X76933351Y-67529152D01*
X76933351Y-67529152D02*
X77076208Y-67529152D01*
X77076208Y-67529152D02*
X77171446Y-67576771D01*
X77171446Y-67576771D02*
X77219065Y-67624390D01*
X77219065Y-67624390D02*
X77266684Y-67719628D01*
X77266684Y-67719628D02*
X77266684Y-68005342D01*
X77266684Y-68005342D02*
X77219065Y-68100580D01*
X77219065Y-68100580D02*
X77171446Y-68148200D01*
X77171446Y-68148200D02*
X77076208Y-68195819D01*
X77076208Y-68195819D02*
X76933351Y-68195819D01*
X77695256Y-68195819D02*
X77695256Y-67529152D01*
X77695256Y-67719628D02*
X77742875Y-67624390D01*
X77742875Y-67624390D02*
X77790494Y-67576771D01*
X77790494Y-67576771D02*
X77885732Y-67529152D01*
X77885732Y-67529152D02*
X77980970Y-67529152D01*
X78457161Y-68195819D02*
X78361923Y-68148200D01*
X78361923Y-68148200D02*
X78314304Y-68100580D01*
X78314304Y-68100580D02*
X78266685Y-68005342D01*
X78266685Y-68005342D02*
X78266685Y-67719628D01*
X78266685Y-67719628D02*
X78314304Y-67624390D01*
X78314304Y-67624390D02*
X78361923Y-67576771D01*
X78361923Y-67576771D02*
X78457161Y-67529152D01*
X78457161Y-67529152D02*
X78600018Y-67529152D01*
X78600018Y-67529152D02*
X78695256Y-67576771D01*
X78695256Y-67576771D02*
X78742875Y-67624390D01*
X78742875Y-67624390D02*
X78790494Y-67719628D01*
X78790494Y-67719628D02*
X78790494Y-68005342D01*
X78790494Y-68005342D02*
X78742875Y-68100580D01*
X78742875Y-68100580D02*
X78695256Y-68148200D01*
X78695256Y-68148200D02*
X78600018Y-68195819D01*
X78600018Y-68195819D02*
X78457161Y-68195819D01*
X79219066Y-68195819D02*
X79219066Y-67529152D01*
X79219066Y-67624390D02*
X79266685Y-67576771D01*
X79266685Y-67576771D02*
X79361923Y-67529152D01*
X79361923Y-67529152D02*
X79504780Y-67529152D01*
X79504780Y-67529152D02*
X79600018Y-67576771D01*
X79600018Y-67576771D02*
X79647637Y-67672009D01*
X79647637Y-67672009D02*
X79647637Y-68195819D01*
X79647637Y-67672009D02*
X79695256Y-67576771D01*
X79695256Y-67576771D02*
X79790494Y-67529152D01*
X79790494Y-67529152D02*
X79933351Y-67529152D01*
X79933351Y-67529152D02*
X80028590Y-67576771D01*
X80028590Y-67576771D02*
X80076209Y-67672009D01*
X80076209Y-67672009D02*
X80076209Y-68195819D01*
X80933351Y-68148200D02*
X80838113Y-68195819D01*
X80838113Y-68195819D02*
X80647637Y-68195819D01*
X80647637Y-68195819D02*
X80552399Y-68148200D01*
X80552399Y-68148200D02*
X80504780Y-68052961D01*
X80504780Y-68052961D02*
X80504780Y-67672009D01*
X80504780Y-67672009D02*
X80552399Y-67576771D01*
X80552399Y-67576771D02*
X80647637Y-67529152D01*
X80647637Y-67529152D02*
X80838113Y-67529152D01*
X80838113Y-67529152D02*
X80933351Y-67576771D01*
X80933351Y-67576771D02*
X80980970Y-67672009D01*
X80980970Y-67672009D02*
X80980970Y-67767247D01*
X80980970Y-67767247D02*
X80504780Y-67862485D01*
X81266685Y-67529152D02*
X81647637Y-67529152D01*
X81409542Y-67195819D02*
X81409542Y-68052961D01*
X81409542Y-68052961D02*
X81457161Y-68148200D01*
X81457161Y-68148200D02*
X81552399Y-68195819D01*
X81552399Y-68195819D02*
X81647637Y-68195819D01*
X82361923Y-68148200D02*
X82266685Y-68195819D01*
X82266685Y-68195819D02*
X82076209Y-68195819D01*
X82076209Y-68195819D02*
X81980971Y-68148200D01*
X81980971Y-68148200D02*
X81933352Y-68052961D01*
X81933352Y-68052961D02*
X81933352Y-67672009D01*
X81933352Y-67672009D02*
X81980971Y-67576771D01*
X81980971Y-67576771D02*
X82076209Y-67529152D01*
X82076209Y-67529152D02*
X82266685Y-67529152D01*
X82266685Y-67529152D02*
X82361923Y-67576771D01*
X82361923Y-67576771D02*
X82409542Y-67672009D01*
X82409542Y-67672009D02*
X82409542Y-67767247D01*
X82409542Y-67767247D02*
X81933352Y-67862485D01*
X82838114Y-68195819D02*
X82838114Y-67529152D01*
X82838114Y-67719628D02*
X82885733Y-67624390D01*
X82885733Y-67624390D02*
X82933352Y-67576771D01*
X82933352Y-67576771D02*
X83028590Y-67529152D01*
X83028590Y-67529152D02*
X83123828Y-67529152D01*
D12*
X94190552Y-69233796D02*
X93936552Y-69233796D01*
X93936552Y-69233796D02*
X93936552Y-68700396D01*
X94368352Y-68954396D02*
X94546152Y-68954396D01*
X94622352Y-69233796D02*
X94368352Y-69233796D01*
X94368352Y-69233796D02*
X94368352Y-68700396D01*
X94368352Y-68700396D02*
X94622352Y-68700396D01*
X94850952Y-69233796D02*
X94850952Y-68700396D01*
X94850952Y-68700396D02*
X94977952Y-68700396D01*
X94977952Y-68700396D02*
X95054152Y-68725796D01*
X95054152Y-68725796D02*
X95104952Y-68776596D01*
X95104952Y-68776596D02*
X95130352Y-68827396D01*
X95130352Y-68827396D02*
X95155752Y-68928996D01*
X95155752Y-68928996D02*
X95155752Y-69005196D01*
X95155752Y-69005196D02*
X95130352Y-69106796D01*
X95130352Y-69106796D02*
X95104952Y-69157596D01*
X95104952Y-69157596D02*
X95054152Y-69208396D01*
X95054152Y-69208396D02*
X94977952Y-69233796D01*
X94977952Y-69233796D02*
X94850952Y-69233796D01*
X95968552Y-68954396D02*
X96044752Y-68979796D01*
X96044752Y-68979796D02*
X96070152Y-69005196D01*
X96070152Y-69005196D02*
X96095552Y-69055996D01*
X96095552Y-69055996D02*
X96095552Y-69132196D01*
X96095552Y-69132196D02*
X96070152Y-69182996D01*
X96070152Y-69182996D02*
X96044752Y-69208396D01*
X96044752Y-69208396D02*
X95993952Y-69233796D01*
X95993952Y-69233796D02*
X95790752Y-69233796D01*
X95790752Y-69233796D02*
X95790752Y-68700396D01*
X95790752Y-68700396D02*
X95968552Y-68700396D01*
X95968552Y-68700396D02*
X96019352Y-68725796D01*
X96019352Y-68725796D02*
X96044752Y-68751196D01*
X96044752Y-68751196D02*
X96070152Y-68801996D01*
X96070152Y-68801996D02*
X96070152Y-68852796D01*
X96070152Y-68852796D02*
X96044752Y-68903596D01*
X96044752Y-68903596D02*
X96019352Y-68928996D01*
X96019352Y-68928996D02*
X95968552Y-68954396D01*
X95968552Y-68954396D02*
X95790752Y-68954396D01*
X96324152Y-69233796D02*
X96324152Y-68878196D01*
X96324152Y-68979796D02*
X96349552Y-68928996D01*
X96349552Y-68928996D02*
X96374952Y-68903596D01*
X96374952Y-68903596D02*
X96425752Y-68878196D01*
X96425752Y-68878196D02*
X96476552Y-68878196D01*
X96857552Y-69208396D02*
X96806752Y-69233796D01*
X96806752Y-69233796D02*
X96705152Y-69233796D01*
X96705152Y-69233796D02*
X96654352Y-69208396D01*
X96654352Y-69208396D02*
X96628952Y-69157596D01*
X96628952Y-69157596D02*
X96628952Y-68954396D01*
X96628952Y-68954396D02*
X96654352Y-68903596D01*
X96654352Y-68903596D02*
X96705152Y-68878196D01*
X96705152Y-68878196D02*
X96806752Y-68878196D01*
X96806752Y-68878196D02*
X96857552Y-68903596D01*
X96857552Y-68903596D02*
X96882952Y-68954396D01*
X96882952Y-68954396D02*
X96882952Y-69005196D01*
X96882952Y-69005196D02*
X96628952Y-69055996D01*
X97340152Y-69233796D02*
X97340152Y-68954396D01*
X97340152Y-68954396D02*
X97314752Y-68903596D01*
X97314752Y-68903596D02*
X97263952Y-68878196D01*
X97263952Y-68878196D02*
X97162352Y-68878196D01*
X97162352Y-68878196D02*
X97111552Y-68903596D01*
X97340152Y-69208396D02*
X97289352Y-69233796D01*
X97289352Y-69233796D02*
X97162352Y-69233796D01*
X97162352Y-69233796D02*
X97111552Y-69208396D01*
X97111552Y-69208396D02*
X97086152Y-69157596D01*
X97086152Y-69157596D02*
X97086152Y-69106796D01*
X97086152Y-69106796D02*
X97111552Y-69055996D01*
X97111552Y-69055996D02*
X97162352Y-69030596D01*
X97162352Y-69030596D02*
X97289352Y-69030596D01*
X97289352Y-69030596D02*
X97340152Y-69005196D01*
X97594152Y-69233796D02*
X97594152Y-68700396D01*
X97644952Y-69030596D02*
X97797352Y-69233796D01*
X97797352Y-68878196D02*
X97594152Y-69081396D01*
X98102152Y-69233796D02*
X98051352Y-69208396D01*
X98051352Y-69208396D02*
X98025952Y-69182996D01*
X98025952Y-69182996D02*
X98000552Y-69132196D01*
X98000552Y-69132196D02*
X98000552Y-68979796D01*
X98000552Y-68979796D02*
X98025952Y-68928996D01*
X98025952Y-68928996D02*
X98051352Y-68903596D01*
X98051352Y-68903596D02*
X98102152Y-68878196D01*
X98102152Y-68878196D02*
X98178352Y-68878196D01*
X98178352Y-68878196D02*
X98229152Y-68903596D01*
X98229152Y-68903596D02*
X98254552Y-68928996D01*
X98254552Y-68928996D02*
X98279952Y-68979796D01*
X98279952Y-68979796D02*
X98279952Y-69132196D01*
X98279952Y-69132196D02*
X98254552Y-69182996D01*
X98254552Y-69182996D02*
X98229152Y-69208396D01*
X98229152Y-69208396D02*
X98178352Y-69233796D01*
X98178352Y-69233796D02*
X98102152Y-69233796D01*
X98737152Y-68878196D02*
X98737152Y-69233796D01*
X98508552Y-68878196D02*
X98508552Y-69157596D01*
X98508552Y-69157596D02*
X98533952Y-69208396D01*
X98533952Y-69208396D02*
X98584752Y-69233796D01*
X98584752Y-69233796D02*
X98660952Y-69233796D01*
X98660952Y-69233796D02*
X98711752Y-69208396D01*
X98711752Y-69208396D02*
X98737152Y-69182996D01*
X98914952Y-68878196D02*
X99118152Y-68878196D01*
X98991152Y-68700396D02*
X98991152Y-69157596D01*
X98991152Y-69157596D02*
X99016552Y-69208396D01*
X99016552Y-69208396D02*
X99067352Y-69233796D01*
X99067352Y-69233796D02*
X99118152Y-69233796D01*
X99321352Y-69208396D02*
X99321352Y-69233796D01*
X99321352Y-69233796D02*
X99295952Y-69284596D01*
X99295952Y-69284596D02*
X99270552Y-69309996D01*
X100261152Y-69233796D02*
X100083352Y-68979796D01*
X99956352Y-69233796D02*
X99956352Y-68700396D01*
X99956352Y-68700396D02*
X100159552Y-68700396D01*
X100159552Y-68700396D02*
X100210352Y-68725796D01*
X100210352Y-68725796D02*
X100235752Y-68751196D01*
X100235752Y-68751196D02*
X100261152Y-68801996D01*
X100261152Y-68801996D02*
X100261152Y-68878196D01*
X100261152Y-68878196D02*
X100235752Y-68928996D01*
X100235752Y-68928996D02*
X100210352Y-68954396D01*
X100210352Y-68954396D02*
X100159552Y-68979796D01*
X100159552Y-68979796D02*
X99956352Y-68979796D01*
X100692952Y-69208396D02*
X100642152Y-69233796D01*
X100642152Y-69233796D02*
X100540552Y-69233796D01*
X100540552Y-69233796D02*
X100489752Y-69208396D01*
X100489752Y-69208396D02*
X100464352Y-69157596D01*
X100464352Y-69157596D02*
X100464352Y-68954396D01*
X100464352Y-68954396D02*
X100489752Y-68903596D01*
X100489752Y-68903596D02*
X100540552Y-68878196D01*
X100540552Y-68878196D02*
X100642152Y-68878196D01*
X100642152Y-68878196D02*
X100692952Y-68903596D01*
X100692952Y-68903596D02*
X100718352Y-68954396D01*
X100718352Y-68954396D02*
X100718352Y-69005196D01*
X100718352Y-69005196D02*
X100464352Y-69055996D01*
X100896152Y-68878196D02*
X101023152Y-69233796D01*
X101023152Y-69233796D02*
X101150152Y-68878196D01*
X101632752Y-69233796D02*
X101327952Y-69233796D01*
X101480352Y-69233796D02*
X101480352Y-68700396D01*
X101480352Y-68700396D02*
X101429552Y-68776596D01*
X101429552Y-68776596D02*
X101378752Y-68827396D01*
X101378752Y-68827396D02*
X101327952Y-68852796D01*
X93936552Y-70092570D02*
X93936552Y-69559170D01*
X93936552Y-69559170D02*
X94114352Y-69940170D01*
X94114352Y-69940170D02*
X94292152Y-69559170D01*
X94292152Y-69559170D02*
X94292152Y-70092570D01*
X94774752Y-70092570D02*
X94774752Y-69813170D01*
X94774752Y-69813170D02*
X94749352Y-69762370D01*
X94749352Y-69762370D02*
X94698552Y-69736970D01*
X94698552Y-69736970D02*
X94596952Y-69736970D01*
X94596952Y-69736970D02*
X94546152Y-69762370D01*
X94774752Y-70067170D02*
X94723952Y-70092570D01*
X94723952Y-70092570D02*
X94596952Y-70092570D01*
X94596952Y-70092570D02*
X94546152Y-70067170D01*
X94546152Y-70067170D02*
X94520752Y-70016370D01*
X94520752Y-70016370D02*
X94520752Y-69965570D01*
X94520752Y-69965570D02*
X94546152Y-69914770D01*
X94546152Y-69914770D02*
X94596952Y-69889370D01*
X94596952Y-69889370D02*
X94723952Y-69889370D01*
X94723952Y-69889370D02*
X94774752Y-69863970D01*
X95028752Y-70092570D02*
X95028752Y-69736970D01*
X95028752Y-69838570D02*
X95054152Y-69787770D01*
X95054152Y-69787770D02*
X95079552Y-69762370D01*
X95079552Y-69762370D02*
X95130352Y-69736970D01*
X95130352Y-69736970D02*
X95181152Y-69736970D01*
X95333552Y-70067170D02*
X95384352Y-70092570D01*
X95384352Y-70092570D02*
X95485952Y-70092570D01*
X95485952Y-70092570D02*
X95536752Y-70067170D01*
X95536752Y-70067170D02*
X95562152Y-70016370D01*
X95562152Y-70016370D02*
X95562152Y-69990970D01*
X95562152Y-69990970D02*
X95536752Y-69940170D01*
X95536752Y-69940170D02*
X95485952Y-69914770D01*
X95485952Y-69914770D02*
X95409752Y-69914770D01*
X95409752Y-69914770D02*
X95358952Y-69889370D01*
X95358952Y-69889370D02*
X95333552Y-69838570D01*
X95333552Y-69838570D02*
X95333552Y-69813170D01*
X95333552Y-69813170D02*
X95358952Y-69762370D01*
X95358952Y-69762370D02*
X95409752Y-69736970D01*
X95409752Y-69736970D02*
X95485952Y-69736970D01*
X95485952Y-69736970D02*
X95536752Y-69762370D01*
X96501952Y-70092570D02*
X96324152Y-69838570D01*
X96197152Y-70092570D02*
X96197152Y-69559170D01*
X96197152Y-69559170D02*
X96400352Y-69559170D01*
X96400352Y-69559170D02*
X96451152Y-69584570D01*
X96451152Y-69584570D02*
X96476552Y-69609970D01*
X96476552Y-69609970D02*
X96501952Y-69660770D01*
X96501952Y-69660770D02*
X96501952Y-69736970D01*
X96501952Y-69736970D02*
X96476552Y-69787770D01*
X96476552Y-69787770D02*
X96451152Y-69813170D01*
X96451152Y-69813170D02*
X96400352Y-69838570D01*
X96400352Y-69838570D02*
X96197152Y-69838570D01*
X96806752Y-70092570D02*
X96755952Y-70067170D01*
X96755952Y-70067170D02*
X96730552Y-70041770D01*
X96730552Y-70041770D02*
X96705152Y-69990970D01*
X96705152Y-69990970D02*
X96705152Y-69838570D01*
X96705152Y-69838570D02*
X96730552Y-69787770D01*
X96730552Y-69787770D02*
X96755952Y-69762370D01*
X96755952Y-69762370D02*
X96806752Y-69736970D01*
X96806752Y-69736970D02*
X96882952Y-69736970D01*
X96882952Y-69736970D02*
X96933752Y-69762370D01*
X96933752Y-69762370D02*
X96959152Y-69787770D01*
X96959152Y-69787770D02*
X96984552Y-69838570D01*
X96984552Y-69838570D02*
X96984552Y-69990970D01*
X96984552Y-69990970D02*
X96959152Y-70041770D01*
X96959152Y-70041770D02*
X96933752Y-70067170D01*
X96933752Y-70067170D02*
X96882952Y-70092570D01*
X96882952Y-70092570D02*
X96806752Y-70092570D01*
X97162352Y-69736970D02*
X97289352Y-70092570D01*
X97289352Y-70092570D02*
X97416352Y-69736970D01*
X97822752Y-70067170D02*
X97771952Y-70092570D01*
X97771952Y-70092570D02*
X97670352Y-70092570D01*
X97670352Y-70092570D02*
X97619552Y-70067170D01*
X97619552Y-70067170D02*
X97594152Y-70016370D01*
X97594152Y-70016370D02*
X97594152Y-69813170D01*
X97594152Y-69813170D02*
X97619552Y-69762370D01*
X97619552Y-69762370D02*
X97670352Y-69736970D01*
X97670352Y-69736970D02*
X97771952Y-69736970D01*
X97771952Y-69736970D02*
X97822752Y-69762370D01*
X97822752Y-69762370D02*
X97848152Y-69813170D01*
X97848152Y-69813170D02*
X97848152Y-69863970D01*
X97848152Y-69863970D02*
X97594152Y-69914770D01*
X98076752Y-70092570D02*
X98076752Y-69736970D01*
X98076752Y-69838570D02*
X98102152Y-69787770D01*
X98102152Y-69787770D02*
X98127552Y-69762370D01*
X98127552Y-69762370D02*
X98178352Y-69736970D01*
X98178352Y-69736970D02*
X98229152Y-69736970D01*
X98813352Y-70092570D02*
X98813352Y-69559170D01*
X98813352Y-69559170D02*
X98940352Y-69559170D01*
X98940352Y-69559170D02*
X99016552Y-69584570D01*
X99016552Y-69584570D02*
X99067352Y-69635370D01*
X99067352Y-69635370D02*
X99092752Y-69686170D01*
X99092752Y-69686170D02*
X99118152Y-69787770D01*
X99118152Y-69787770D02*
X99118152Y-69863970D01*
X99118152Y-69863970D02*
X99092752Y-69965570D01*
X99092752Y-69965570D02*
X99067352Y-70016370D01*
X99067352Y-70016370D02*
X99016552Y-70067170D01*
X99016552Y-70067170D02*
X98940352Y-70092570D01*
X98940352Y-70092570D02*
X98813352Y-70092570D01*
X99549952Y-70067170D02*
X99499152Y-70092570D01*
X99499152Y-70092570D02*
X99397552Y-70092570D01*
X99397552Y-70092570D02*
X99346752Y-70067170D01*
X99346752Y-70067170D02*
X99321352Y-70016370D01*
X99321352Y-70016370D02*
X99321352Y-69813170D01*
X99321352Y-69813170D02*
X99346752Y-69762370D01*
X99346752Y-69762370D02*
X99397552Y-69736970D01*
X99397552Y-69736970D02*
X99499152Y-69736970D01*
X99499152Y-69736970D02*
X99549952Y-69762370D01*
X99549952Y-69762370D02*
X99575352Y-69813170D01*
X99575352Y-69813170D02*
X99575352Y-69863970D01*
X99575352Y-69863970D02*
X99321352Y-69914770D01*
X99778552Y-70067170D02*
X99829352Y-70092570D01*
X99829352Y-70092570D02*
X99930952Y-70092570D01*
X99930952Y-70092570D02*
X99981752Y-70067170D01*
X99981752Y-70067170D02*
X100007152Y-70016370D01*
X100007152Y-70016370D02*
X100007152Y-69990970D01*
X100007152Y-69990970D02*
X99981752Y-69940170D01*
X99981752Y-69940170D02*
X99930952Y-69914770D01*
X99930952Y-69914770D02*
X99854752Y-69914770D01*
X99854752Y-69914770D02*
X99803952Y-69889370D01*
X99803952Y-69889370D02*
X99778552Y-69838570D01*
X99778552Y-69838570D02*
X99778552Y-69813170D01*
X99778552Y-69813170D02*
X99803952Y-69762370D01*
X99803952Y-69762370D02*
X99854752Y-69736970D01*
X99854752Y-69736970D02*
X99930952Y-69736970D01*
X99930952Y-69736970D02*
X99981752Y-69762370D01*
X100235752Y-70092570D02*
X100235752Y-69736970D01*
X100235752Y-69559170D02*
X100210352Y-69584570D01*
X100210352Y-69584570D02*
X100235752Y-69609970D01*
X100235752Y-69609970D02*
X100261152Y-69584570D01*
X100261152Y-69584570D02*
X100235752Y-69559170D01*
X100235752Y-69559170D02*
X100235752Y-69609970D01*
X100718352Y-69736970D02*
X100718352Y-70168770D01*
X100718352Y-70168770D02*
X100692952Y-70219570D01*
X100692952Y-70219570D02*
X100667552Y-70244970D01*
X100667552Y-70244970D02*
X100616752Y-70270370D01*
X100616752Y-70270370D02*
X100540552Y-70270370D01*
X100540552Y-70270370D02*
X100489752Y-70244970D01*
X100718352Y-70067170D02*
X100667552Y-70092570D01*
X100667552Y-70092570D02*
X100565952Y-70092570D01*
X100565952Y-70092570D02*
X100515152Y-70067170D01*
X100515152Y-70067170D02*
X100489752Y-70041770D01*
X100489752Y-70041770D02*
X100464352Y-69990970D01*
X100464352Y-69990970D02*
X100464352Y-69838570D01*
X100464352Y-69838570D02*
X100489752Y-69787770D01*
X100489752Y-69787770D02*
X100515152Y-69762370D01*
X100515152Y-69762370D02*
X100565952Y-69736970D01*
X100565952Y-69736970D02*
X100667552Y-69736970D01*
X100667552Y-69736970D02*
X100718352Y-69762370D01*
X100972352Y-69736970D02*
X100972352Y-70092570D01*
X100972352Y-69787770D02*
X100997752Y-69762370D01*
X100997752Y-69762370D02*
X101048552Y-69736970D01*
X101048552Y-69736970D02*
X101124752Y-69736970D01*
X101124752Y-69736970D02*
X101175552Y-69762370D01*
X101175552Y-69762370D02*
X101200952Y-69813170D01*
X101200952Y-69813170D02*
X101200952Y-70092570D01*
X101785152Y-69559170D02*
X102089952Y-69559170D01*
X101937552Y-70092570D02*
X101937552Y-69559170D01*
X102470952Y-70067170D02*
X102420152Y-70092570D01*
X102420152Y-70092570D02*
X102318552Y-70092570D01*
X102318552Y-70092570D02*
X102267752Y-70067170D01*
X102267752Y-70067170D02*
X102242352Y-70016370D01*
X102242352Y-70016370D02*
X102242352Y-69813170D01*
X102242352Y-69813170D02*
X102267752Y-69762370D01*
X102267752Y-69762370D02*
X102318552Y-69736970D01*
X102318552Y-69736970D02*
X102420152Y-69736970D01*
X102420152Y-69736970D02*
X102470952Y-69762370D01*
X102470952Y-69762370D02*
X102496352Y-69813170D01*
X102496352Y-69813170D02*
X102496352Y-69863970D01*
X102496352Y-69863970D02*
X102242352Y-69914770D01*
X102953552Y-70092570D02*
X102953552Y-69813170D01*
X102953552Y-69813170D02*
X102928152Y-69762370D01*
X102928152Y-69762370D02*
X102877352Y-69736970D01*
X102877352Y-69736970D02*
X102775752Y-69736970D01*
X102775752Y-69736970D02*
X102724952Y-69762370D01*
X102953552Y-70067170D02*
X102902752Y-70092570D01*
X102902752Y-70092570D02*
X102775752Y-70092570D01*
X102775752Y-70092570D02*
X102724952Y-70067170D01*
X102724952Y-70067170D02*
X102699552Y-70016370D01*
X102699552Y-70016370D02*
X102699552Y-69965570D01*
X102699552Y-69965570D02*
X102724952Y-69914770D01*
X102724952Y-69914770D02*
X102775752Y-69889370D01*
X102775752Y-69889370D02*
X102902752Y-69889370D01*
X102902752Y-69889370D02*
X102953552Y-69863970D01*
X103207552Y-70092570D02*
X103207552Y-69736970D01*
X103207552Y-69787770D02*
X103232952Y-69762370D01*
X103232952Y-69762370D02*
X103283752Y-69736970D01*
X103283752Y-69736970D02*
X103359952Y-69736970D01*
X103359952Y-69736970D02*
X103410752Y-69762370D01*
X103410752Y-69762370D02*
X103436152Y-69813170D01*
X103436152Y-69813170D02*
X103436152Y-70092570D01*
X103436152Y-69813170D02*
X103461552Y-69762370D01*
X103461552Y-69762370D02*
X103512352Y-69736970D01*
X103512352Y-69736970D02*
X103588552Y-69736970D01*
X103588552Y-69736970D02*
X103639352Y-69762370D01*
X103639352Y-69762370D02*
X103664752Y-69813170D01*
X103664752Y-69813170D02*
X103664752Y-70092570D01*
X93936552Y-70951344D02*
X93936552Y-70417944D01*
X93936552Y-70417944D02*
X94114352Y-70798944D01*
X94114352Y-70798944D02*
X94292152Y-70417944D01*
X94292152Y-70417944D02*
X94292152Y-70951344D01*
X94546152Y-70951344D02*
X94546152Y-70595744D01*
X94546152Y-70417944D02*
X94520752Y-70443344D01*
X94520752Y-70443344D02*
X94546152Y-70468744D01*
X94546152Y-70468744D02*
X94571552Y-70443344D01*
X94571552Y-70443344D02*
X94546152Y-70417944D01*
X94546152Y-70417944D02*
X94546152Y-70468744D01*
X94774752Y-70925944D02*
X94825552Y-70951344D01*
X94825552Y-70951344D02*
X94927152Y-70951344D01*
X94927152Y-70951344D02*
X94977952Y-70925944D01*
X94977952Y-70925944D02*
X95003352Y-70875144D01*
X95003352Y-70875144D02*
X95003352Y-70849744D01*
X95003352Y-70849744D02*
X94977952Y-70798944D01*
X94977952Y-70798944D02*
X94927152Y-70773544D01*
X94927152Y-70773544D02*
X94850952Y-70773544D01*
X94850952Y-70773544D02*
X94800152Y-70748144D01*
X94800152Y-70748144D02*
X94774752Y-70697344D01*
X94774752Y-70697344D02*
X94774752Y-70671944D01*
X94774752Y-70671944D02*
X94800152Y-70621144D01*
X94800152Y-70621144D02*
X94850952Y-70595744D01*
X94850952Y-70595744D02*
X94927152Y-70595744D01*
X94927152Y-70595744D02*
X94977952Y-70621144D01*
X95206552Y-70925944D02*
X95257352Y-70951344D01*
X95257352Y-70951344D02*
X95358952Y-70951344D01*
X95358952Y-70951344D02*
X95409752Y-70925944D01*
X95409752Y-70925944D02*
X95435152Y-70875144D01*
X95435152Y-70875144D02*
X95435152Y-70849744D01*
X95435152Y-70849744D02*
X95409752Y-70798944D01*
X95409752Y-70798944D02*
X95358952Y-70773544D01*
X95358952Y-70773544D02*
X95282752Y-70773544D01*
X95282752Y-70773544D02*
X95231952Y-70748144D01*
X95231952Y-70748144D02*
X95206552Y-70697344D01*
X95206552Y-70697344D02*
X95206552Y-70671944D01*
X95206552Y-70671944D02*
X95231952Y-70621144D01*
X95231952Y-70621144D02*
X95282752Y-70595744D01*
X95282752Y-70595744D02*
X95358952Y-70595744D01*
X95358952Y-70595744D02*
X95409752Y-70621144D01*
X95739952Y-70951344D02*
X95689152Y-70925944D01*
X95689152Y-70925944D02*
X95663752Y-70900544D01*
X95663752Y-70900544D02*
X95638352Y-70849744D01*
X95638352Y-70849744D02*
X95638352Y-70697344D01*
X95638352Y-70697344D02*
X95663752Y-70646544D01*
X95663752Y-70646544D02*
X95689152Y-70621144D01*
X95689152Y-70621144D02*
X95739952Y-70595744D01*
X95739952Y-70595744D02*
X95816152Y-70595744D01*
X95816152Y-70595744D02*
X95866952Y-70621144D01*
X95866952Y-70621144D02*
X95892352Y-70646544D01*
X95892352Y-70646544D02*
X95917752Y-70697344D01*
X95917752Y-70697344D02*
X95917752Y-70849744D01*
X95917752Y-70849744D02*
X95892352Y-70900544D01*
X95892352Y-70900544D02*
X95866952Y-70925944D01*
X95866952Y-70925944D02*
X95816152Y-70951344D01*
X95816152Y-70951344D02*
X95739952Y-70951344D01*
X96374952Y-70595744D02*
X96374952Y-70951344D01*
X96146352Y-70595744D02*
X96146352Y-70875144D01*
X96146352Y-70875144D02*
X96171752Y-70925944D01*
X96171752Y-70925944D02*
X96222552Y-70951344D01*
X96222552Y-70951344D02*
X96298752Y-70951344D01*
X96298752Y-70951344D02*
X96349552Y-70925944D01*
X96349552Y-70925944D02*
X96374952Y-70900544D01*
X96628952Y-70951344D02*
X96628952Y-70595744D01*
X96628952Y-70697344D02*
X96654352Y-70646544D01*
X96654352Y-70646544D02*
X96679752Y-70621144D01*
X96679752Y-70621144D02*
X96730552Y-70595744D01*
X96730552Y-70595744D02*
X96781352Y-70595744D01*
X96959152Y-70951344D02*
X96959152Y-70595744D01*
X96959152Y-70417944D02*
X96933752Y-70443344D01*
X96933752Y-70443344D02*
X96959152Y-70468744D01*
X96959152Y-70468744D02*
X96984552Y-70443344D01*
X96984552Y-70443344D02*
X96959152Y-70417944D01*
X96959152Y-70417944D02*
X96959152Y-70468744D01*
X97594152Y-70925944D02*
X97670352Y-70951344D01*
X97670352Y-70951344D02*
X97797352Y-70951344D01*
X97797352Y-70951344D02*
X97848152Y-70925944D01*
X97848152Y-70925944D02*
X97873552Y-70900544D01*
X97873552Y-70900544D02*
X97898952Y-70849744D01*
X97898952Y-70849744D02*
X97898952Y-70798944D01*
X97898952Y-70798944D02*
X97873552Y-70748144D01*
X97873552Y-70748144D02*
X97848152Y-70722744D01*
X97848152Y-70722744D02*
X97797352Y-70697344D01*
X97797352Y-70697344D02*
X97695752Y-70671944D01*
X97695752Y-70671944D02*
X97644952Y-70646544D01*
X97644952Y-70646544D02*
X97619552Y-70621144D01*
X97619552Y-70621144D02*
X97594152Y-70570344D01*
X97594152Y-70570344D02*
X97594152Y-70519544D01*
X97594152Y-70519544D02*
X97619552Y-70468744D01*
X97619552Y-70468744D02*
X97644952Y-70443344D01*
X97644952Y-70443344D02*
X97695752Y-70417944D01*
X97695752Y-70417944D02*
X97822752Y-70417944D01*
X97822752Y-70417944D02*
X97898952Y-70443344D01*
X98559352Y-70951344D02*
X98533952Y-70951344D01*
X98533952Y-70951344D02*
X98483152Y-70925944D01*
X98483152Y-70925944D02*
X98406952Y-70849744D01*
X98406952Y-70849744D02*
X98279952Y-70697344D01*
X98279952Y-70697344D02*
X98229152Y-70621144D01*
X98229152Y-70621144D02*
X98203752Y-70544944D01*
X98203752Y-70544944D02*
X98203752Y-70494144D01*
X98203752Y-70494144D02*
X98229152Y-70443344D01*
X98229152Y-70443344D02*
X98279952Y-70417944D01*
X98279952Y-70417944D02*
X98305352Y-70417944D01*
X98305352Y-70417944D02*
X98356152Y-70443344D01*
X98356152Y-70443344D02*
X98381552Y-70494144D01*
X98381552Y-70494144D02*
X98381552Y-70519544D01*
X98381552Y-70519544D02*
X98356152Y-70570344D01*
X98356152Y-70570344D02*
X98330752Y-70595744D01*
X98330752Y-70595744D02*
X98178352Y-70697344D01*
X98178352Y-70697344D02*
X98152952Y-70722744D01*
X98152952Y-70722744D02*
X98127552Y-70773544D01*
X98127552Y-70773544D02*
X98127552Y-70849744D01*
X98127552Y-70849744D02*
X98152952Y-70900544D01*
X98152952Y-70900544D02*
X98178352Y-70925944D01*
X98178352Y-70925944D02*
X98229152Y-70951344D01*
X98229152Y-70951344D02*
X98305352Y-70951344D01*
X98305352Y-70951344D02*
X98356152Y-70925944D01*
X98356152Y-70925944D02*
X98381552Y-70900544D01*
X98381552Y-70900544D02*
X98457752Y-70798944D01*
X98457752Y-70798944D02*
X98483152Y-70722744D01*
X98483152Y-70722744D02*
X98483152Y-70671944D01*
X98711752Y-70417944D02*
X99016552Y-70417944D01*
X98864152Y-70951344D02*
X98864152Y-70417944D01*
X99219752Y-70925944D02*
X99219752Y-70951344D01*
X99219752Y-70951344D02*
X99194352Y-71002144D01*
X99194352Y-71002144D02*
X99168952Y-71027544D01*
X99829352Y-70468744D02*
X99854752Y-70443344D01*
X99854752Y-70443344D02*
X99905552Y-70417944D01*
X99905552Y-70417944D02*
X100032552Y-70417944D01*
X100032552Y-70417944D02*
X100083352Y-70443344D01*
X100083352Y-70443344D02*
X100108752Y-70468744D01*
X100108752Y-70468744D02*
X100134152Y-70519544D01*
X100134152Y-70519544D02*
X100134152Y-70570344D01*
X100134152Y-70570344D02*
X100108752Y-70646544D01*
X100108752Y-70646544D02*
X99803952Y-70951344D01*
X99803952Y-70951344D02*
X100134152Y-70951344D01*
X100464352Y-70417944D02*
X100515152Y-70417944D01*
X100515152Y-70417944D02*
X100565952Y-70443344D01*
X100565952Y-70443344D02*
X100591352Y-70468744D01*
X100591352Y-70468744D02*
X100616752Y-70519544D01*
X100616752Y-70519544D02*
X100642152Y-70621144D01*
X100642152Y-70621144D02*
X100642152Y-70748144D01*
X100642152Y-70748144D02*
X100616752Y-70849744D01*
X100616752Y-70849744D02*
X100591352Y-70900544D01*
X100591352Y-70900544D02*
X100565952Y-70925944D01*
X100565952Y-70925944D02*
X100515152Y-70951344D01*
X100515152Y-70951344D02*
X100464352Y-70951344D01*
X100464352Y-70951344D02*
X100413552Y-70925944D01*
X100413552Y-70925944D02*
X100388152Y-70900544D01*
X100388152Y-70900544D02*
X100362752Y-70849744D01*
X100362752Y-70849744D02*
X100337352Y-70748144D01*
X100337352Y-70748144D02*
X100337352Y-70621144D01*
X100337352Y-70621144D02*
X100362752Y-70519544D01*
X100362752Y-70519544D02*
X100388152Y-70468744D01*
X100388152Y-70468744D02*
X100413552Y-70443344D01*
X100413552Y-70443344D02*
X100464352Y-70417944D01*
X100845352Y-70468744D02*
X100870752Y-70443344D01*
X100870752Y-70443344D02*
X100921552Y-70417944D01*
X100921552Y-70417944D02*
X101048552Y-70417944D01*
X101048552Y-70417944D02*
X101099352Y-70443344D01*
X101099352Y-70443344D02*
X101124752Y-70468744D01*
X101124752Y-70468744D02*
X101150152Y-70519544D01*
X101150152Y-70519544D02*
X101150152Y-70570344D01*
X101150152Y-70570344D02*
X101124752Y-70646544D01*
X101124752Y-70646544D02*
X100819952Y-70951344D01*
X100819952Y-70951344D02*
X101150152Y-70951344D01*
X101607352Y-70595744D02*
X101607352Y-70951344D01*
X101480352Y-70392544D02*
X101353352Y-70773544D01*
X101353352Y-70773544D02*
X101683552Y-70773544D01*
X93936552Y-71530718D02*
X94114352Y-71530718D01*
X94190552Y-71810118D02*
X93936552Y-71810118D01*
X93936552Y-71810118D02*
X93936552Y-71276718D01*
X93936552Y-71276718D02*
X94190552Y-71276718D01*
X94342952Y-71454518D02*
X94546152Y-71454518D01*
X94419152Y-71276718D02*
X94419152Y-71733918D01*
X94419152Y-71733918D02*
X94444552Y-71784718D01*
X94444552Y-71784718D02*
X94495352Y-71810118D01*
X94495352Y-71810118D02*
X94546152Y-71810118D01*
X94723952Y-71810118D02*
X94723952Y-71276718D01*
X94952552Y-71810118D02*
X94952552Y-71530718D01*
X94952552Y-71530718D02*
X94927152Y-71479918D01*
X94927152Y-71479918D02*
X94876352Y-71454518D01*
X94876352Y-71454518D02*
X94800152Y-71454518D01*
X94800152Y-71454518D02*
X94749352Y-71479918D01*
X94749352Y-71479918D02*
X94723952Y-71505318D01*
X95435152Y-71810118D02*
X95435152Y-71530718D01*
X95435152Y-71530718D02*
X95409752Y-71479918D01*
X95409752Y-71479918D02*
X95358952Y-71454518D01*
X95358952Y-71454518D02*
X95257352Y-71454518D01*
X95257352Y-71454518D02*
X95206552Y-71479918D01*
X95435152Y-71784718D02*
X95384352Y-71810118D01*
X95384352Y-71810118D02*
X95257352Y-71810118D01*
X95257352Y-71810118D02*
X95206552Y-71784718D01*
X95206552Y-71784718D02*
X95181152Y-71733918D01*
X95181152Y-71733918D02*
X95181152Y-71683118D01*
X95181152Y-71683118D02*
X95206552Y-71632318D01*
X95206552Y-71632318D02*
X95257352Y-71606918D01*
X95257352Y-71606918D02*
X95384352Y-71606918D01*
X95384352Y-71606918D02*
X95435152Y-71581518D01*
X95689152Y-71454518D02*
X95689152Y-71810118D01*
X95689152Y-71505318D02*
X95714552Y-71479918D01*
X95714552Y-71479918D02*
X95765352Y-71454518D01*
X95765352Y-71454518D02*
X95841552Y-71454518D01*
X95841552Y-71454518D02*
X95892352Y-71479918D01*
X95892352Y-71479918D02*
X95917752Y-71530718D01*
X95917752Y-71530718D02*
X95917752Y-71810118D01*
X96527352Y-71276718D02*
X96654352Y-71810118D01*
X96654352Y-71810118D02*
X96755952Y-71429118D01*
X96755952Y-71429118D02*
X96857552Y-71810118D01*
X96857552Y-71810118D02*
X96984552Y-71276718D01*
X97187752Y-71810118D02*
X97187752Y-71454518D01*
X97187752Y-71276718D02*
X97162352Y-71302118D01*
X97162352Y-71302118D02*
X97187752Y-71327518D01*
X97187752Y-71327518D02*
X97213152Y-71302118D01*
X97213152Y-71302118D02*
X97187752Y-71276718D01*
X97187752Y-71276718D02*
X97187752Y-71327518D01*
X97517952Y-71810118D02*
X97467152Y-71784718D01*
X97467152Y-71784718D02*
X97441752Y-71733918D01*
X97441752Y-71733918D02*
X97441752Y-71276718D01*
X97797352Y-71810118D02*
X97746552Y-71784718D01*
X97746552Y-71784718D02*
X97721152Y-71733918D01*
X97721152Y-71733918D02*
X97721152Y-71276718D01*
X98000552Y-71810118D02*
X98000552Y-71454518D01*
X98000552Y-71276718D02*
X97975152Y-71302118D01*
X97975152Y-71302118D02*
X98000552Y-71327518D01*
X98000552Y-71327518D02*
X98025952Y-71302118D01*
X98025952Y-71302118D02*
X98000552Y-71276718D01*
X98000552Y-71276718D02*
X98000552Y-71327518D01*
X98483152Y-71810118D02*
X98483152Y-71530718D01*
X98483152Y-71530718D02*
X98457752Y-71479918D01*
X98457752Y-71479918D02*
X98406952Y-71454518D01*
X98406952Y-71454518D02*
X98305352Y-71454518D01*
X98305352Y-71454518D02*
X98254552Y-71479918D01*
X98483152Y-71784718D02*
X98432352Y-71810118D01*
X98432352Y-71810118D02*
X98305352Y-71810118D01*
X98305352Y-71810118D02*
X98254552Y-71784718D01*
X98254552Y-71784718D02*
X98229152Y-71733918D01*
X98229152Y-71733918D02*
X98229152Y-71683118D01*
X98229152Y-71683118D02*
X98254552Y-71632318D01*
X98254552Y-71632318D02*
X98305352Y-71606918D01*
X98305352Y-71606918D02*
X98432352Y-71606918D01*
X98432352Y-71606918D02*
X98483152Y-71581518D01*
X98737152Y-71810118D02*
X98737152Y-71454518D01*
X98737152Y-71505318D02*
X98762552Y-71479918D01*
X98762552Y-71479918D02*
X98813352Y-71454518D01*
X98813352Y-71454518D02*
X98889552Y-71454518D01*
X98889552Y-71454518D02*
X98940352Y-71479918D01*
X98940352Y-71479918D02*
X98965752Y-71530718D01*
X98965752Y-71530718D02*
X98965752Y-71810118D01*
X98965752Y-71530718D02*
X98991152Y-71479918D01*
X98991152Y-71479918D02*
X99041952Y-71454518D01*
X99041952Y-71454518D02*
X99118152Y-71454518D01*
X99118152Y-71454518D02*
X99168952Y-71479918D01*
X99168952Y-71479918D02*
X99194352Y-71530718D01*
X99194352Y-71530718D02*
X99194352Y-71810118D01*
X99422952Y-71784718D02*
X99473752Y-71810118D01*
X99473752Y-71810118D02*
X99575352Y-71810118D01*
X99575352Y-71810118D02*
X99626152Y-71784718D01*
X99626152Y-71784718D02*
X99651552Y-71733918D01*
X99651552Y-71733918D02*
X99651552Y-71708518D01*
X99651552Y-71708518D02*
X99626152Y-71657718D01*
X99626152Y-71657718D02*
X99575352Y-71632318D01*
X99575352Y-71632318D02*
X99499152Y-71632318D01*
X99499152Y-71632318D02*
X99448352Y-71606918D01*
X99448352Y-71606918D02*
X99422952Y-71556118D01*
X99422952Y-71556118D02*
X99422952Y-71530718D01*
X99422952Y-71530718D02*
X99448352Y-71479918D01*
X99448352Y-71479918D02*
X99499152Y-71454518D01*
X99499152Y-71454518D02*
X99575352Y-71454518D01*
X99575352Y-71454518D02*
X99626152Y-71479918D01*
X99905552Y-71784718D02*
X99905552Y-71810118D01*
X99905552Y-71810118D02*
X99880152Y-71860918D01*
X99880152Y-71860918D02*
X99854752Y-71886318D01*
X100464352Y-71276718D02*
X100769152Y-71276718D01*
X100616752Y-71810118D02*
X100616752Y-71276718D01*
X100946952Y-71810118D02*
X100946952Y-71454518D01*
X100946952Y-71556118D02*
X100972352Y-71505318D01*
X100972352Y-71505318D02*
X100997752Y-71479918D01*
X100997752Y-71479918D02*
X101048552Y-71454518D01*
X101048552Y-71454518D02*
X101099352Y-71454518D01*
X101277152Y-71810118D02*
X101277152Y-71454518D01*
X101277152Y-71276718D02*
X101251752Y-71302118D01*
X101251752Y-71302118D02*
X101277152Y-71327518D01*
X101277152Y-71327518D02*
X101302552Y-71302118D01*
X101302552Y-71302118D02*
X101277152Y-71276718D01*
X101277152Y-71276718D02*
X101277152Y-71327518D01*
X102191552Y-71810118D02*
X101937552Y-71810118D01*
X101937552Y-71810118D02*
X101937552Y-71276718D01*
X102572552Y-71784718D02*
X102521752Y-71810118D01*
X102521752Y-71810118D02*
X102420152Y-71810118D01*
X102420152Y-71810118D02*
X102369352Y-71784718D01*
X102369352Y-71784718D02*
X102343952Y-71733918D01*
X102343952Y-71733918D02*
X102343952Y-71530718D01*
X102343952Y-71530718D02*
X102369352Y-71479918D01*
X102369352Y-71479918D02*
X102420152Y-71454518D01*
X102420152Y-71454518D02*
X102521752Y-71454518D01*
X102521752Y-71454518D02*
X102572552Y-71479918D01*
X102572552Y-71479918D02*
X102597952Y-71530718D01*
X102597952Y-71530718D02*
X102597952Y-71581518D01*
X102597952Y-71581518D02*
X102343952Y-71632318D01*
D11*
X70318333Y-70050819D02*
X69985000Y-69574628D01*
X69746905Y-70050819D02*
X69746905Y-69050819D01*
X69746905Y-69050819D02*
X70127857Y-69050819D01*
X70127857Y-69050819D02*
X70223095Y-69098438D01*
X70223095Y-69098438D02*
X70270714Y-69146057D01*
X70270714Y-69146057D02*
X70318333Y-69241295D01*
X70318333Y-69241295D02*
X70318333Y-69384152D01*
X70318333Y-69384152D02*
X70270714Y-69479390D01*
X70270714Y-69479390D02*
X70223095Y-69527009D01*
X70223095Y-69527009D02*
X70127857Y-69574628D01*
X70127857Y-69574628D02*
X69746905Y-69574628D01*
X70794524Y-70050819D02*
X70985000Y-70050819D01*
X70985000Y-70050819D02*
X71080238Y-70003200D01*
X71080238Y-70003200D02*
X71127857Y-69955580D01*
X71127857Y-69955580D02*
X71223095Y-69812723D01*
X71223095Y-69812723D02*
X71270714Y-69622247D01*
X71270714Y-69622247D02*
X71270714Y-69241295D01*
X71270714Y-69241295D02*
X71223095Y-69146057D01*
X71223095Y-69146057D02*
X71175476Y-69098438D01*
X71175476Y-69098438D02*
X71080238Y-69050819D01*
X71080238Y-69050819D02*
X70889762Y-69050819D01*
X70889762Y-69050819D02*
X70794524Y-69098438D01*
X70794524Y-69098438D02*
X70746905Y-69146057D01*
X70746905Y-69146057D02*
X70699286Y-69241295D01*
X70699286Y-69241295D02*
X70699286Y-69479390D01*
X70699286Y-69479390D02*
X70746905Y-69574628D01*
X70746905Y-69574628D02*
X70794524Y-69622247D01*
X70794524Y-69622247D02*
X70889762Y-69669866D01*
X70889762Y-69669866D02*
X71080238Y-69669866D01*
X71080238Y-69669866D02*
X71175476Y-69622247D01*
X71175476Y-69622247D02*
X71223095Y-69574628D01*
X71223095Y-69574628D02*
X71270714Y-69479390D01*
X70350142Y-75003819D02*
X70016809Y-74527628D01*
X69778714Y-75003819D02*
X69778714Y-74003819D01*
X69778714Y-74003819D02*
X70159666Y-74003819D01*
X70159666Y-74003819D02*
X70254904Y-74051438D01*
X70254904Y-74051438D02*
X70302523Y-74099057D01*
X70302523Y-74099057D02*
X70350142Y-74194295D01*
X70350142Y-74194295D02*
X70350142Y-74337152D01*
X70350142Y-74337152D02*
X70302523Y-74432390D01*
X70302523Y-74432390D02*
X70254904Y-74480009D01*
X70254904Y-74480009D02*
X70159666Y-74527628D01*
X70159666Y-74527628D02*
X69778714Y-74527628D01*
X71302523Y-75003819D02*
X70731095Y-75003819D01*
X71016809Y-75003819D02*
X71016809Y-74003819D01*
X71016809Y-74003819D02*
X70921571Y-74146676D01*
X70921571Y-74146676D02*
X70826333Y-74241914D01*
X70826333Y-74241914D02*
X70731095Y-74289533D01*
X72254904Y-75003819D02*
X71683476Y-75003819D01*
X71969190Y-75003819D02*
X71969190Y-74003819D01*
X71969190Y-74003819D02*
X71873952Y-74146676D01*
X71873952Y-74146676D02*
X71778714Y-74241914D01*
X71778714Y-74241914D02*
X71683476Y-74289533D01*
X70223142Y-77162819D02*
X69889809Y-76686628D01*
X69651714Y-77162819D02*
X69651714Y-76162819D01*
X69651714Y-76162819D02*
X70032666Y-76162819D01*
X70032666Y-76162819D02*
X70127904Y-76210438D01*
X70127904Y-76210438D02*
X70175523Y-76258057D01*
X70175523Y-76258057D02*
X70223142Y-76353295D01*
X70223142Y-76353295D02*
X70223142Y-76496152D01*
X70223142Y-76496152D02*
X70175523Y-76591390D01*
X70175523Y-76591390D02*
X70127904Y-76639009D01*
X70127904Y-76639009D02*
X70032666Y-76686628D01*
X70032666Y-76686628D02*
X69651714Y-76686628D01*
X71175523Y-77162819D02*
X70604095Y-77162819D01*
X70889809Y-77162819D02*
X70889809Y-76162819D01*
X70889809Y-76162819D02*
X70794571Y-76305676D01*
X70794571Y-76305676D02*
X70699333Y-76400914D01*
X70699333Y-76400914D02*
X70604095Y-76448533D01*
X71556476Y-76258057D02*
X71604095Y-76210438D01*
X71604095Y-76210438D02*
X71699333Y-76162819D01*
X71699333Y-76162819D02*
X71937428Y-76162819D01*
X71937428Y-76162819D02*
X72032666Y-76210438D01*
X72032666Y-76210438D02*
X72080285Y-76258057D01*
X72080285Y-76258057D02*
X72127904Y-76353295D01*
X72127904Y-76353295D02*
X72127904Y-76448533D01*
X72127904Y-76448533D02*
X72080285Y-76591390D01*
X72080285Y-76591390D02*
X71508857Y-77162819D01*
X71508857Y-77162819D02*
X72127904Y-77162819D01*
X91423833Y-73606819D02*
X91090500Y-73130628D01*
X90852405Y-73606819D02*
X90852405Y-72606819D01*
X90852405Y-72606819D02*
X91233357Y-72606819D01*
X91233357Y-72606819D02*
X91328595Y-72654438D01*
X91328595Y-72654438D02*
X91376214Y-72702057D01*
X91376214Y-72702057D02*
X91423833Y-72797295D01*
X91423833Y-72797295D02*
X91423833Y-72940152D01*
X91423833Y-72940152D02*
X91376214Y-73035390D01*
X91376214Y-73035390D02*
X91328595Y-73083009D01*
X91328595Y-73083009D02*
X91233357Y-73130628D01*
X91233357Y-73130628D02*
X90852405Y-73130628D01*
X92376214Y-73606819D02*
X91804786Y-73606819D01*
X92090500Y-73606819D02*
X92090500Y-72606819D01*
X92090500Y-72606819D02*
X91995262Y-72749676D01*
X91995262Y-72749676D02*
X91900024Y-72844914D01*
X91900024Y-72844914D02*
X91804786Y-72892533D01*
X91344761Y-81957057D02*
X91249523Y-81909438D01*
X91249523Y-81909438D02*
X91154285Y-81814200D01*
X91154285Y-81814200D02*
X91011428Y-81671342D01*
X91011428Y-81671342D02*
X90916190Y-81623723D01*
X90916190Y-81623723D02*
X90820952Y-81623723D01*
X90868571Y-81861819D02*
X90773333Y-81814200D01*
X90773333Y-81814200D02*
X90678095Y-81718961D01*
X90678095Y-81718961D02*
X90630476Y-81528485D01*
X90630476Y-81528485D02*
X90630476Y-81195152D01*
X90630476Y-81195152D02*
X90678095Y-81004676D01*
X90678095Y-81004676D02*
X90773333Y-80909438D01*
X90773333Y-80909438D02*
X90868571Y-80861819D01*
X90868571Y-80861819D02*
X91059047Y-80861819D01*
X91059047Y-80861819D02*
X91154285Y-80909438D01*
X91154285Y-80909438D02*
X91249523Y-81004676D01*
X91249523Y-81004676D02*
X91297142Y-81195152D01*
X91297142Y-81195152D02*
X91297142Y-81528485D01*
X91297142Y-81528485D02*
X91249523Y-81718961D01*
X91249523Y-81718961D02*
X91154285Y-81814200D01*
X91154285Y-81814200D02*
X91059047Y-81861819D01*
X91059047Y-81861819D02*
X90868571Y-81861819D01*
X92249523Y-81861819D02*
X91678095Y-81861819D01*
X91963809Y-81861819D02*
X91963809Y-80861819D01*
X91963809Y-80861819D02*
X91868571Y-81004676D01*
X91868571Y-81004676D02*
X91773333Y-81099914D01*
X91773333Y-81099914D02*
X91678095Y-81147533D01*
X100778819Y-78144666D02*
X100302628Y-78477999D01*
X100778819Y-78716094D02*
X99778819Y-78716094D01*
X99778819Y-78716094D02*
X99778819Y-78335142D01*
X99778819Y-78335142D02*
X99826438Y-78239904D01*
X99826438Y-78239904D02*
X99874057Y-78192285D01*
X99874057Y-78192285D02*
X99969295Y-78144666D01*
X99969295Y-78144666D02*
X100112152Y-78144666D01*
X100112152Y-78144666D02*
X100207390Y-78192285D01*
X100207390Y-78192285D02*
X100255009Y-78239904D01*
X100255009Y-78239904D02*
X100302628Y-78335142D01*
X100302628Y-78335142D02*
X100302628Y-78716094D01*
X100207390Y-77573237D02*
X100159771Y-77668475D01*
X100159771Y-77668475D02*
X100112152Y-77716094D01*
X100112152Y-77716094D02*
X100016914Y-77763713D01*
X100016914Y-77763713D02*
X99969295Y-77763713D01*
X99969295Y-77763713D02*
X99874057Y-77716094D01*
X99874057Y-77716094D02*
X99826438Y-77668475D01*
X99826438Y-77668475D02*
X99778819Y-77573237D01*
X99778819Y-77573237D02*
X99778819Y-77382761D01*
X99778819Y-77382761D02*
X99826438Y-77287523D01*
X99826438Y-77287523D02*
X99874057Y-77239904D01*
X99874057Y-77239904D02*
X99969295Y-77192285D01*
X99969295Y-77192285D02*
X100016914Y-77192285D01*
X100016914Y-77192285D02*
X100112152Y-77239904D01*
X100112152Y-77239904D02*
X100159771Y-77287523D01*
X100159771Y-77287523D02*
X100207390Y-77382761D01*
X100207390Y-77382761D02*
X100207390Y-77573237D01*
X100207390Y-77573237D02*
X100255009Y-77668475D01*
X100255009Y-77668475D02*
X100302628Y-77716094D01*
X100302628Y-77716094D02*
X100397866Y-77763713D01*
X100397866Y-77763713D02*
X100588342Y-77763713D01*
X100588342Y-77763713D02*
X100683580Y-77716094D01*
X100683580Y-77716094D02*
X100731200Y-77668475D01*
X100731200Y-77668475D02*
X100778819Y-77573237D01*
X100778819Y-77573237D02*
X100778819Y-77382761D01*
X100778819Y-77382761D02*
X100731200Y-77287523D01*
X100731200Y-77287523D02*
X100683580Y-77239904D01*
X100683580Y-77239904D02*
X100588342Y-77192285D01*
X100588342Y-77192285D02*
X100397866Y-77192285D01*
X100397866Y-77192285D02*
X100302628Y-77239904D01*
X100302628Y-77239904D02*
X100255009Y-77287523D01*
X100255009Y-77287523D02*
X100207390Y-77382761D01*
X93926819Y-73699666D02*
X93450628Y-74032999D01*
X93926819Y-74271094D02*
X92926819Y-74271094D01*
X92926819Y-74271094D02*
X92926819Y-73890142D01*
X92926819Y-73890142D02*
X92974438Y-73794904D01*
X92974438Y-73794904D02*
X93022057Y-73747285D01*
X93022057Y-73747285D02*
X93117295Y-73699666D01*
X93117295Y-73699666D02*
X93260152Y-73699666D01*
X93260152Y-73699666D02*
X93355390Y-73747285D01*
X93355390Y-73747285D02*
X93403009Y-73794904D01*
X93403009Y-73794904D02*
X93450628Y-73890142D01*
X93450628Y-73890142D02*
X93450628Y-74271094D01*
X93022057Y-73318713D02*
X92974438Y-73271094D01*
X92974438Y-73271094D02*
X92926819Y-73175856D01*
X92926819Y-73175856D02*
X92926819Y-72937761D01*
X92926819Y-72937761D02*
X92974438Y-72842523D01*
X92974438Y-72842523D02*
X93022057Y-72794904D01*
X93022057Y-72794904D02*
X93117295Y-72747285D01*
X93117295Y-72747285D02*
X93212533Y-72747285D01*
X93212533Y-72747285D02*
X93355390Y-72794904D01*
X93355390Y-72794904D02*
X93926819Y-73366332D01*
X93926819Y-73366332D02*
X93926819Y-72747285D01*
X77035819Y-93638666D02*
X76559628Y-93971999D01*
X77035819Y-94210094D02*
X76035819Y-94210094D01*
X76035819Y-94210094D02*
X76035819Y-93829142D01*
X76035819Y-93829142D02*
X76083438Y-93733904D01*
X76083438Y-93733904D02*
X76131057Y-93686285D01*
X76131057Y-93686285D02*
X76226295Y-93638666D01*
X76226295Y-93638666D02*
X76369152Y-93638666D01*
X76369152Y-93638666D02*
X76464390Y-93686285D01*
X76464390Y-93686285D02*
X76512009Y-93733904D01*
X76512009Y-93733904D02*
X76559628Y-93829142D01*
X76559628Y-93829142D02*
X76559628Y-94210094D01*
X76035819Y-92733904D02*
X76035819Y-93210094D01*
X76035819Y-93210094D02*
X76512009Y-93257713D01*
X76512009Y-93257713D02*
X76464390Y-93210094D01*
X76464390Y-93210094D02*
X76416771Y-93114856D01*
X76416771Y-93114856D02*
X76416771Y-92876761D01*
X76416771Y-92876761D02*
X76464390Y-92781523D01*
X76464390Y-92781523D02*
X76512009Y-92733904D01*
X76512009Y-92733904D02*
X76607247Y-92686285D01*
X76607247Y-92686285D02*
X76845342Y-92686285D01*
X76845342Y-92686285D02*
X76940580Y-92733904D01*
X76940580Y-92733904D02*
X76988200Y-92781523D01*
X76988200Y-92781523D02*
X77035819Y-92876761D01*
X77035819Y-92876761D02*
X77035819Y-93114856D01*
X77035819Y-93114856D02*
X76988200Y-93210094D01*
X76988200Y-93210094D02*
X76940580Y-93257713D01*
X72844819Y-87542666D02*
X72368628Y-87875999D01*
X72844819Y-88114094D02*
X71844819Y-88114094D01*
X71844819Y-88114094D02*
X71844819Y-87733142D01*
X71844819Y-87733142D02*
X71892438Y-87637904D01*
X71892438Y-87637904D02*
X71940057Y-87590285D01*
X71940057Y-87590285D02*
X72035295Y-87542666D01*
X72035295Y-87542666D02*
X72178152Y-87542666D01*
X72178152Y-87542666D02*
X72273390Y-87590285D01*
X72273390Y-87590285D02*
X72321009Y-87637904D01*
X72321009Y-87637904D02*
X72368628Y-87733142D01*
X72368628Y-87733142D02*
X72368628Y-88114094D01*
X72178152Y-86685523D02*
X72844819Y-86685523D01*
X71797200Y-86923618D02*
X72511485Y-87161713D01*
X72511485Y-87161713D02*
X72511485Y-86542666D01*
X96424761Y-90072057D02*
X96329523Y-90024438D01*
X96329523Y-90024438D02*
X96234285Y-89929200D01*
X96234285Y-89929200D02*
X96091428Y-89786342D01*
X96091428Y-89786342D02*
X95996190Y-89738723D01*
X95996190Y-89738723D02*
X95900952Y-89738723D01*
X95948571Y-89976819D02*
X95853333Y-89929200D01*
X95853333Y-89929200D02*
X95758095Y-89833961D01*
X95758095Y-89833961D02*
X95710476Y-89643485D01*
X95710476Y-89643485D02*
X95710476Y-89310152D01*
X95710476Y-89310152D02*
X95758095Y-89119676D01*
X95758095Y-89119676D02*
X95853333Y-89024438D01*
X95853333Y-89024438D02*
X95948571Y-88976819D01*
X95948571Y-88976819D02*
X96139047Y-88976819D01*
X96139047Y-88976819D02*
X96234285Y-89024438D01*
X96234285Y-89024438D02*
X96329523Y-89119676D01*
X96329523Y-89119676D02*
X96377142Y-89310152D01*
X96377142Y-89310152D02*
X96377142Y-89643485D01*
X96377142Y-89643485D02*
X96329523Y-89833961D01*
X96329523Y-89833961D02*
X96234285Y-89929200D01*
X96234285Y-89929200D02*
X96139047Y-89976819D01*
X96139047Y-89976819D02*
X95948571Y-89976819D01*
X97234285Y-89310152D02*
X97234285Y-89976819D01*
X96996190Y-88929200D02*
X96758095Y-89643485D01*
X96758095Y-89643485D02*
X97377142Y-89643485D01*
X80549761Y-98213057D02*
X80454523Y-98165438D01*
X80454523Y-98165438D02*
X80359285Y-98070200D01*
X80359285Y-98070200D02*
X80216428Y-97927342D01*
X80216428Y-97927342D02*
X80121190Y-97879723D01*
X80121190Y-97879723D02*
X80025952Y-97879723D01*
X80073571Y-98117819D02*
X79978333Y-98070200D01*
X79978333Y-98070200D02*
X79883095Y-97974961D01*
X79883095Y-97974961D02*
X79835476Y-97784485D01*
X79835476Y-97784485D02*
X79835476Y-97451152D01*
X79835476Y-97451152D02*
X79883095Y-97260676D01*
X79883095Y-97260676D02*
X79978333Y-97165438D01*
X79978333Y-97165438D02*
X80073571Y-97117819D01*
X80073571Y-97117819D02*
X80264047Y-97117819D01*
X80264047Y-97117819D02*
X80359285Y-97165438D01*
X80359285Y-97165438D02*
X80454523Y-97260676D01*
X80454523Y-97260676D02*
X80502142Y-97451152D01*
X80502142Y-97451152D02*
X80502142Y-97784485D01*
X80502142Y-97784485D02*
X80454523Y-97974961D01*
X80454523Y-97974961D02*
X80359285Y-98070200D01*
X80359285Y-98070200D02*
X80264047Y-98117819D01*
X80264047Y-98117819D02*
X80073571Y-98117819D01*
X80835476Y-97117819D02*
X81454523Y-97117819D01*
X81454523Y-97117819D02*
X81121190Y-97498771D01*
X81121190Y-97498771D02*
X81264047Y-97498771D01*
X81264047Y-97498771D02*
X81359285Y-97546390D01*
X81359285Y-97546390D02*
X81406904Y-97594009D01*
X81406904Y-97594009D02*
X81454523Y-97689247D01*
X81454523Y-97689247D02*
X81454523Y-97927342D01*
X81454523Y-97927342D02*
X81406904Y-98022580D01*
X81406904Y-98022580D02*
X81359285Y-98070200D01*
X81359285Y-98070200D02*
X81264047Y-98117819D01*
X81264047Y-98117819D02*
X80978333Y-98117819D01*
X80978333Y-98117819D02*
X80883095Y-98070200D01*
X80883095Y-98070200D02*
X80835476Y-98022580D01*
X71670057Y-80867238D02*
X71622438Y-80962476D01*
X71622438Y-80962476D02*
X71527200Y-81057714D01*
X71527200Y-81057714D02*
X71384342Y-81200571D01*
X71384342Y-81200571D02*
X71336723Y-81295809D01*
X71336723Y-81295809D02*
X71336723Y-81391047D01*
X71574819Y-81343428D02*
X71527200Y-81438666D01*
X71527200Y-81438666D02*
X71431961Y-81533904D01*
X71431961Y-81533904D02*
X71241485Y-81581523D01*
X71241485Y-81581523D02*
X70908152Y-81581523D01*
X70908152Y-81581523D02*
X70717676Y-81533904D01*
X70717676Y-81533904D02*
X70622438Y-81438666D01*
X70622438Y-81438666D02*
X70574819Y-81343428D01*
X70574819Y-81343428D02*
X70574819Y-81152952D01*
X70574819Y-81152952D02*
X70622438Y-81057714D01*
X70622438Y-81057714D02*
X70717676Y-80962476D01*
X70717676Y-80962476D02*
X70908152Y-80914857D01*
X70908152Y-80914857D02*
X71241485Y-80914857D01*
X71241485Y-80914857D02*
X71431961Y-80962476D01*
X71431961Y-80962476D02*
X71527200Y-81057714D01*
X71527200Y-81057714D02*
X71574819Y-81152952D01*
X71574819Y-81152952D02*
X71574819Y-81343428D01*
X70670057Y-80533904D02*
X70622438Y-80486285D01*
X70622438Y-80486285D02*
X70574819Y-80391047D01*
X70574819Y-80391047D02*
X70574819Y-80152952D01*
X70574819Y-80152952D02*
X70622438Y-80057714D01*
X70622438Y-80057714D02*
X70670057Y-80010095D01*
X70670057Y-80010095D02*
X70765295Y-79962476D01*
X70765295Y-79962476D02*
X70860533Y-79962476D01*
X70860533Y-79962476D02*
X71003390Y-80010095D01*
X71003390Y-80010095D02*
X71574819Y-80581523D01*
X71574819Y-80581523D02*
X71574819Y-79962476D01*
X88592819Y-90233166D02*
X88116628Y-90566499D01*
X88592819Y-90804594D02*
X87592819Y-90804594D01*
X87592819Y-90804594D02*
X87592819Y-90423642D01*
X87592819Y-90423642D02*
X87640438Y-90328404D01*
X87640438Y-90328404D02*
X87688057Y-90280785D01*
X87688057Y-90280785D02*
X87783295Y-90233166D01*
X87783295Y-90233166D02*
X87926152Y-90233166D01*
X87926152Y-90233166D02*
X88021390Y-90280785D01*
X88021390Y-90280785D02*
X88069009Y-90328404D01*
X88069009Y-90328404D02*
X88116628Y-90423642D01*
X88116628Y-90423642D02*
X88116628Y-90804594D01*
X87592819Y-89376023D02*
X87592819Y-89566499D01*
X87592819Y-89566499D02*
X87640438Y-89661737D01*
X87640438Y-89661737D02*
X87688057Y-89709356D01*
X87688057Y-89709356D02*
X87830914Y-89804594D01*
X87830914Y-89804594D02*
X88021390Y-89852213D01*
X88021390Y-89852213D02*
X88402342Y-89852213D01*
X88402342Y-89852213D02*
X88497580Y-89804594D01*
X88497580Y-89804594D02*
X88545200Y-89756975D01*
X88545200Y-89756975D02*
X88592819Y-89661737D01*
X88592819Y-89661737D02*
X88592819Y-89471261D01*
X88592819Y-89471261D02*
X88545200Y-89376023D01*
X88545200Y-89376023D02*
X88497580Y-89328404D01*
X88497580Y-89328404D02*
X88402342Y-89280785D01*
X88402342Y-89280785D02*
X88164247Y-89280785D01*
X88164247Y-89280785D02*
X88069009Y-89328404D01*
X88069009Y-89328404D02*
X88021390Y-89376023D01*
X88021390Y-89376023D02*
X87973771Y-89471261D01*
X87973771Y-89471261D02*
X87973771Y-89661737D01*
X87973771Y-89661737D02*
X88021390Y-89756975D01*
X88021390Y-89756975D02*
X88069009Y-89804594D01*
X88069009Y-89804594D02*
X88164247Y-89852213D01*
X79716333Y-76908819D02*
X79383000Y-76432628D01*
X79144905Y-76908819D02*
X79144905Y-75908819D01*
X79144905Y-75908819D02*
X79525857Y-75908819D01*
X79525857Y-75908819D02*
X79621095Y-75956438D01*
X79621095Y-75956438D02*
X79668714Y-76004057D01*
X79668714Y-76004057D02*
X79716333Y-76099295D01*
X79716333Y-76099295D02*
X79716333Y-76242152D01*
X79716333Y-76242152D02*
X79668714Y-76337390D01*
X79668714Y-76337390D02*
X79621095Y-76385009D01*
X79621095Y-76385009D02*
X79525857Y-76432628D01*
X79525857Y-76432628D02*
X79144905Y-76432628D01*
X80049667Y-75908819D02*
X80668714Y-75908819D01*
X80668714Y-75908819D02*
X80335381Y-76289771D01*
X80335381Y-76289771D02*
X80478238Y-76289771D01*
X80478238Y-76289771D02*
X80573476Y-76337390D01*
X80573476Y-76337390D02*
X80621095Y-76385009D01*
X80621095Y-76385009D02*
X80668714Y-76480247D01*
X80668714Y-76480247D02*
X80668714Y-76718342D01*
X80668714Y-76718342D02*
X80621095Y-76813580D01*
X80621095Y-76813580D02*
X80573476Y-76861200D01*
X80573476Y-76861200D02*
X80478238Y-76908819D01*
X80478238Y-76908819D02*
X80192524Y-76908819D01*
X80192524Y-76908819D02*
X80097286Y-76861200D01*
X80097286Y-76861200D02*
X80049667Y-76813580D01*
X93051333Y-94682819D02*
X92718000Y-94206628D01*
X92479905Y-94682819D02*
X92479905Y-93682819D01*
X92479905Y-93682819D02*
X92860857Y-93682819D01*
X92860857Y-93682819D02*
X92956095Y-93730438D01*
X92956095Y-93730438D02*
X93003714Y-93778057D01*
X93003714Y-93778057D02*
X93051333Y-93873295D01*
X93051333Y-93873295D02*
X93051333Y-94016152D01*
X93051333Y-94016152D02*
X93003714Y-94111390D01*
X93003714Y-94111390D02*
X92956095Y-94159009D01*
X92956095Y-94159009D02*
X92860857Y-94206628D01*
X92860857Y-94206628D02*
X92479905Y-94206628D01*
X93384667Y-93682819D02*
X94051333Y-93682819D01*
X94051333Y-93682819D02*
X93622762Y-94682819D01*
X70350142Y-72717819D02*
X70016809Y-72241628D01*
X69778714Y-72717819D02*
X69778714Y-71717819D01*
X69778714Y-71717819D02*
X70159666Y-71717819D01*
X70159666Y-71717819D02*
X70254904Y-71765438D01*
X70254904Y-71765438D02*
X70302523Y-71813057D01*
X70302523Y-71813057D02*
X70350142Y-71908295D01*
X70350142Y-71908295D02*
X70350142Y-72051152D01*
X70350142Y-72051152D02*
X70302523Y-72146390D01*
X70302523Y-72146390D02*
X70254904Y-72194009D01*
X70254904Y-72194009D02*
X70159666Y-72241628D01*
X70159666Y-72241628D02*
X69778714Y-72241628D01*
X71302523Y-72717819D02*
X70731095Y-72717819D01*
X71016809Y-72717819D02*
X71016809Y-71717819D01*
X71016809Y-71717819D02*
X70921571Y-71860676D01*
X70921571Y-71860676D02*
X70826333Y-71955914D01*
X70826333Y-71955914D02*
X70731095Y-72003533D01*
X71921571Y-71717819D02*
X72016809Y-71717819D01*
X72016809Y-71717819D02*
X72112047Y-71765438D01*
X72112047Y-71765438D02*
X72159666Y-71813057D01*
X72159666Y-71813057D02*
X72207285Y-71908295D01*
X72207285Y-71908295D02*
X72254904Y-72098771D01*
X72254904Y-72098771D02*
X72254904Y-72336866D01*
X72254904Y-72336866D02*
X72207285Y-72527342D01*
X72207285Y-72527342D02*
X72159666Y-72622580D01*
X72159666Y-72622580D02*
X72112047Y-72670200D01*
X72112047Y-72670200D02*
X72016809Y-72717819D01*
X72016809Y-72717819D02*
X71921571Y-72717819D01*
X71921571Y-72717819D02*
X71826333Y-72670200D01*
X71826333Y-72670200D02*
X71778714Y-72622580D01*
X71778714Y-72622580D02*
X71731095Y-72527342D01*
X71731095Y-72527342D02*
X71683476Y-72336866D01*
X71683476Y-72336866D02*
X71683476Y-72098771D01*
X71683476Y-72098771D02*
X71731095Y-71908295D01*
X71731095Y-71908295D02*
X71778714Y-71813057D01*
X71778714Y-71813057D02*
X71826333Y-71765438D01*
X71826333Y-71765438D02*
X71921571Y-71717819D01*
D13*
%TO.C,R9*%
X68072724Y-70118500D02*
X67563276Y-70118500D01*
X68072724Y-69073500D02*
X67563276Y-69073500D01*
D11*
%TO.C,REF\u002A\u002A*%
X72598283Y-63500000D02*
G75*
G03*
X72598283Y-63500000I-4018283J0D01*
G01*
D13*
%TO.C,R11*%
X68072724Y-74944500D02*
X67563276Y-74944500D01*
X68072724Y-73899500D02*
X67563276Y-73899500D01*
%TO.C,R12*%
X68072724Y-77230500D02*
X67563276Y-77230500D01*
X68072724Y-76185500D02*
X67563276Y-76185500D01*
%TO.C,R1*%
X89305224Y-73674500D02*
X88795776Y-73674500D01*
X89305224Y-72629500D02*
X88795776Y-72629500D01*
%TO.C,Q1*%
X94312500Y-81758000D02*
X95987500Y-81758000D01*
X94312500Y-81758000D02*
X93662500Y-81758000D01*
X94312500Y-78638000D02*
X94962500Y-78638000D01*
X94312500Y-78638000D02*
X93662500Y-78638000D01*
D11*
%TO.C,REF\u002A\u002A*%
X104348283Y-63500000D02*
G75*
G03*
X104348283Y-63500000I-4018283J0D01*
G01*
D13*
%TO.C,R8*%
X99404000Y-80006936D02*
X99404000Y-83061064D01*
X96684000Y-80006936D02*
X96684000Y-83061064D01*
%TO.C,R2*%
X92949500Y-76454724D02*
X92949500Y-75945276D01*
X93994500Y-76454724D02*
X93994500Y-75945276D01*
D11*
%TO.C,REF\u002A\u002A*%
X104348283Y-95250000D02*
G75*
G03*
X104348283Y-95250000I-4018283J0D01*
G01*
D13*
%TO.C,R5*%
X77230500Y-90677276D02*
X77230500Y-91186724D01*
X76185500Y-90677276D02*
X76185500Y-91186724D01*
%TO.C,R4*%
X73166500Y-84581276D02*
X73166500Y-85090724D01*
X72121500Y-84581276D02*
X72121500Y-85090724D01*
%TO.C,Q4*%
X96520000Y-88682000D02*
X98195000Y-88682000D01*
X96520000Y-88682000D02*
X95870000Y-88682000D01*
X96520000Y-85562000D02*
X97170000Y-85562000D01*
X96520000Y-85562000D02*
X95870000Y-85562000D01*
%TO.C,Q3*%
X80772000Y-93690000D02*
X79097000Y-93690000D01*
X80772000Y-93690000D02*
X81422000Y-93690000D01*
X80772000Y-96810000D02*
X80122000Y-96810000D01*
X80772000Y-96810000D02*
X81422000Y-96810000D01*
D11*
%TO.C,REF\u002A\u002A*%
X72598283Y-95250000D02*
G75*
G03*
X72598283Y-95250000I-4018283J0D01*
G01*
D13*
%TO.C,Q2*%
X75032000Y-79756000D02*
X75032000Y-78081000D01*
X75032000Y-79756000D02*
X75032000Y-80406000D01*
X71912000Y-79756000D02*
X71912000Y-79106000D01*
X71912000Y-79756000D02*
X71912000Y-80406000D01*
%TO.C,R6*%
X88914500Y-92351776D02*
X88914500Y-92861224D01*
X87869500Y-92351776D02*
X87869500Y-92861224D01*
D11*
%TO.C,Conn1*%
X74295000Y-60071000D02*
X74295000Y-61595000D01*
X74295000Y-61595000D02*
X94615000Y-61595000D01*
X74295000Y-66675000D02*
X74295000Y-61595000D01*
X94615000Y-60071000D02*
X74295000Y-60071000D01*
X94615000Y-61595000D02*
X94615000Y-60071000D01*
X94615000Y-66675000D02*
X74295000Y-66675000D01*
X94615000Y-66675000D02*
X94615000Y-61595000D01*
D13*
%TO.C,R3*%
X77724724Y-76976500D02*
X77215276Y-76976500D01*
X77724724Y-75931500D02*
X77215276Y-75931500D01*
%TO.C,R7*%
X94745064Y-93308000D02*
X91690936Y-93308000D01*
X94745064Y-90588000D02*
X91690936Y-90588000D01*
%TO.C,R10*%
X68072724Y-72658500D02*
X67563276Y-72658500D01*
X68072724Y-71613500D02*
X67563276Y-71613500D01*
%TD*%
M02*
