%TF.GenerationSoftware,KiCad,Pcbnew,7.0.7*%
%TF.CreationDate,2023-11-04T22:35:43-05:00*%
%TF.ProjectId,LEDBreakout_Hardware,4c454442-7265-4616-9b6f-75745f486172,rev?*%
%TF.SameCoordinates,Original*%
%TF.FileFunction,Copper,L2,Bot*%
%TF.FilePolarity,Positive*%
%FSLAX46Y46*%
G04 Gerber Fmt 4.6, Leading zero omitted, Abs format (unit mm)*
G04 Created by KiCad (PCBNEW 7.0.7) date 2023-11-04 22:35:43*
%MOMM*%
%LPD*%
G01*
G04 APERTURE LIST*
G04 Aperture macros list*
%AMRoundRect*
0 Rectangle with rounded corners*
0 $1 Rounding radius*
0 $2 $3 $4 $5 $6 $7 $8 $9 X,Y pos of 4 corners*
0 Add a 4 corners polygon primitive as box body*
4,1,4,$2,$3,$4,$5,$6,$7,$8,$9,$2,$3,0*
0 Add four circle primitives for the rounded corners*
1,1,$1+$1,$2,$3*
1,1,$1+$1,$4,$5*
1,1,$1+$1,$6,$7*
1,1,$1+$1,$8,$9*
0 Add four rect primitives between the rounded corners*
20,1,$1+$1,$2,$3,$4,$5,0*
20,1,$1+$1,$4,$5,$6,$7,0*
20,1,$1+$1,$6,$7,$8,$9,0*
20,1,$1+$1,$8,$9,$2,$3,0*%
G04 Aperture macros list end*
%TA.AperFunction,ComponentPad*%
%ADD10C,1.524000*%
%TD*%
%TA.AperFunction,ComponentPad*%
%ADD11R,2.240000X2.240000*%
%TD*%
%TA.AperFunction,ComponentPad*%
%ADD12O,2.240000X2.240000*%
%TD*%
%TA.AperFunction,SMDPad,CuDef*%
%ADD13RoundRect,0.305000X0.305000X0.780000X-0.305000X0.780000X-0.305000X-0.780000X0.305000X-0.780000X0*%
%TD*%
%TA.AperFunction,SMDPad,CuDef*%
%ADD14RoundRect,0.542500X0.601500X0.542500X-0.601500X0.542500X-0.601500X-0.542500X0.601500X-0.542500X0*%
%TD*%
%TA.AperFunction,ViaPad*%
%ADD15C,0.800000*%
%TD*%
%TA.AperFunction,Conductor*%
%ADD16C,0.254000*%
%TD*%
%TA.AperFunction,Conductor*%
%ADD17C,0.250000*%
%TD*%
G04 APERTURE END LIST*
D10*
%TO.P,Conn1,1*%
%TO.N,530nm*%
X76835000Y-64135000D03*
%TO.P,Conn1,2*%
%TO.N,522nm*%
X79375000Y-64135000D03*
%TO.P,Conn1,3*%
%TO.N,465nm*%
X81915000Y-64135000D03*
%TO.P,Conn1,4*%
%TO.N,400nm*%
X84455000Y-64135000D03*
%TO.P,Conn1,5*%
%TO.N,+5V*%
X86995000Y-64135000D03*
%TO.P,Conn1,6*%
%TO.N,GND*%
X89535000Y-64135000D03*
%TO.P,Conn1,7*%
X92075000Y-64135000D03*
%TD*%
D11*
%TO.P,D1,1,K*%
%TO.N,Net-(D1-K)*%
X84836000Y-77216000D03*
D12*
%TO.P,D1,2,A*%
%TO.N,Net-(D1-A)*%
X84836000Y-74676000D03*
%TD*%
D13*
%TO.P,D8,1,K*%
%TO.N,Net-(D7-K)*%
X94008000Y-83616800D03*
D14*
%TO.P,D8,2,A*%
%TO.N,Net-(D8-A)*%
X91908000Y-83616800D03*
%TD*%
D11*
%TO.P,D5,1,K*%
%TO.N,Net-(D5-K)*%
X80010000Y-89154000D03*
D12*
%TO.P,D5,2,A*%
%TO.N,Net-(D5-A)*%
X80010000Y-91694000D03*
%TD*%
D11*
%TO.P,D2,1,K*%
%TO.N,Net-(D1-K)*%
X89916000Y-78486000D03*
D12*
%TO.P,D2,2,A*%
%TO.N,Net-(D2-A)*%
X89916000Y-75946000D03*
%TD*%
D11*
%TO.P,D3,1,K*%
%TO.N,Net-(D3-K)*%
X79756000Y-79502000D03*
D12*
%TO.P,D3,2,A*%
%TO.N,Net-(D3-A)*%
X77216000Y-79502000D03*
%TD*%
D13*
%TO.P,D7,1,K*%
%TO.N,Net-(D7-K)*%
X91730200Y-88696800D03*
D14*
%TO.P,D7,2,A*%
%TO.N,Net-(D7-A)*%
X89630200Y-88696800D03*
%TD*%
D11*
%TO.P,D6,1,K*%
%TO.N,Net-(D5-K)*%
X85090000Y-90510000D03*
D12*
%TO.P,D6,2,A*%
%TO.N,Net-(D6-A)*%
X85090000Y-93050000D03*
%TD*%
D11*
%TO.P,D4,1,K*%
%TO.N,Net-(D3-K)*%
X77724000Y-84328000D03*
D12*
%TO.P,D4,2,A*%
%TO.N,Net-(D4-A)*%
X75184000Y-84328000D03*
%TD*%
D15*
%TO.N,GND*%
X65532000Y-69596000D03*
X99045536Y-85456536D03*
X65532000Y-76708000D03*
X65532000Y-74422000D03*
X77216000Y-96139000D03*
X96012000Y-77089000D03*
X65532000Y-72136000D03*
X70739000Y-78994000D03*
%TO.N,530nm*%
X82169000Y-75692000D03*
%TO.N,Net-(D7-K)*%
X93980000Y-85598000D03*
X93599000Y-87757000D03*
%TO.N,522nm*%
X72898000Y-74549000D03*
%TO.N,465nm*%
X83947000Y-82423000D03*
%TO.N,400nm*%
X99949000Y-75565000D03*
%TO.N,Net-(D7-A)*%
X89408000Y-90678000D03*
%TO.N,Net-(D8-A)*%
X95758000Y-83058000D03*
%TD*%
D16*
%TO.N,530nm*%
X80464000Y-63065000D02*
X79756000Y-62357000D01*
X82169000Y-75692000D02*
X80464000Y-73987000D01*
X79756000Y-62357000D02*
X78613000Y-62357000D01*
X78613000Y-62357000D02*
X76835000Y-64135000D01*
X80464000Y-73987000D02*
X80464000Y-63065000D01*
D17*
%TO.N,Net-(D7-K)*%
X91730200Y-88696800D02*
X92659200Y-88696800D01*
D16*
X93980000Y-83644800D02*
X94008000Y-83616800D01*
X93980000Y-85598000D02*
X93980000Y-83644800D01*
D17*
X92659200Y-88696800D02*
X93599000Y-87757000D01*
D16*
%TO.N,522nm*%
X79375000Y-68072000D02*
X79375000Y-64135000D01*
X72898000Y-74549000D02*
X79375000Y-68072000D01*
%TO.N,465nm*%
X82896000Y-65116000D02*
X82896000Y-81372000D01*
X82896000Y-81372000D02*
X83947000Y-82423000D01*
X81915000Y-64135000D02*
X82896000Y-65116000D01*
%TO.N,400nm*%
X87630000Y-67310000D02*
X84455000Y-64135000D01*
X99949000Y-75565000D02*
X91694000Y-67310000D01*
X91694000Y-67310000D02*
X87630000Y-67310000D01*
D17*
%TO.N,Net-(D7-A)*%
X89408000Y-90678000D02*
X89408000Y-88919000D01*
X89408000Y-88919000D02*
X89630200Y-88696800D01*
%TO.N,Net-(D8-A)*%
X95758000Y-83058000D02*
X95425155Y-83058000D01*
X93318000Y-82206800D02*
X91908000Y-83616800D01*
X95425155Y-83058000D02*
X94573955Y-82206800D01*
X94573955Y-82206800D02*
X93318000Y-82206800D01*
%TD*%
%TA.AperFunction,Conductor*%
%TO.N,GND*%
G36*
X99262238Y-59456185D02*
G01*
X99307993Y-59508989D01*
X99317937Y-59578147D01*
X99288912Y-59641703D01*
X99230134Y-59679477D01*
X99225797Y-59680666D01*
X99157272Y-59698114D01*
X98784549Y-59833774D01*
X98427191Y-60005869D01*
X98088753Y-60212684D01*
X98088742Y-60212692D01*
X97772575Y-60452180D01*
X97772572Y-60452182D01*
X97481813Y-60721968D01*
X97219365Y-61019359D01*
X96987839Y-61341393D01*
X96987826Y-61341413D01*
X96789516Y-61684896D01*
X96626382Y-62046437D01*
X96500059Y-62422419D01*
X96411799Y-62809111D01*
X96362478Y-63202681D01*
X96352590Y-63599173D01*
X96352590Y-63599187D01*
X96382230Y-63994711D01*
X96382231Y-63994724D01*
X96451108Y-64385339D01*
X96558530Y-64767137D01*
X96558534Y-64767151D01*
X96703435Y-65136353D01*
X96703440Y-65136365D01*
X96840640Y-65403984D01*
X96884391Y-65489323D01*
X97099586Y-65822509D01*
X97225691Y-65980640D01*
X97346895Y-66132625D01*
X97623823Y-66416544D01*
X97623833Y-66416554D01*
X97927676Y-66671508D01*
X98255394Y-66894942D01*
X98603730Y-67084636D01*
X98969223Y-67238704D01*
X98969232Y-67238706D01*
X98969238Y-67238709D01*
X99348235Y-67355614D01*
X99348248Y-67355617D01*
X99736999Y-67434205D01*
X99737014Y-67434208D01*
X100075300Y-67468058D01*
X100131680Y-67473700D01*
X100131681Y-67473700D01*
X100429103Y-67473700D01*
X100627130Y-67463816D01*
X100726145Y-67458875D01*
X101118353Y-67399759D01*
X101502726Y-67301886D01*
X101875445Y-67166228D01*
X102232803Y-66994133D01*
X102571251Y-66787312D01*
X102887424Y-66547820D01*
X103178181Y-66278037D01*
X103440631Y-65980645D01*
X103672166Y-65658600D01*
X103870485Y-65315101D01*
X104033617Y-64953563D01*
X104151957Y-64601340D01*
X104191968Y-64544061D01*
X104256594Y-64517506D01*
X104325318Y-64530107D01*
X104376321Y-64577862D01*
X104393500Y-64640833D01*
X104393500Y-94122243D01*
X104373815Y-94189282D01*
X104321011Y-94235037D01*
X104251853Y-94244981D01*
X104188297Y-94215956D01*
X104150523Y-94157178D01*
X104150135Y-94155827D01*
X104101469Y-93982862D01*
X104101465Y-93982848D01*
X103956564Y-93613646D01*
X103956559Y-93613634D01*
X103805771Y-93319510D01*
X103775609Y-93260677D01*
X103560414Y-92927491D01*
X103313114Y-92617386D01*
X103313111Y-92617383D01*
X103313104Y-92617374D01*
X103036176Y-92333455D01*
X103036173Y-92333452D01*
X103036172Y-92333451D01*
X103036167Y-92333446D01*
X102732324Y-92078492D01*
X102598928Y-91987544D01*
X102404605Y-91855057D01*
X102288494Y-91791826D01*
X102056270Y-91665364D01*
X102056262Y-91665360D01*
X102056259Y-91665359D01*
X101690777Y-91511296D01*
X101690761Y-91511290D01*
X101311764Y-91394385D01*
X101311751Y-91394382D01*
X100923000Y-91315794D01*
X100922979Y-91315791D01*
X100528320Y-91276300D01*
X100528319Y-91276300D01*
X100230899Y-91276300D01*
X100230897Y-91276300D01*
X99933855Y-91291124D01*
X99541647Y-91350241D01*
X99157272Y-91448114D01*
X98784549Y-91583774D01*
X98427191Y-91755869D01*
X98088753Y-91962684D01*
X98088742Y-91962692D01*
X97772575Y-92202180D01*
X97772572Y-92202182D01*
X97481813Y-92471968D01*
X97219365Y-92769359D01*
X96987839Y-93091393D01*
X96987826Y-93091413D01*
X96789516Y-93434896D01*
X96626382Y-93796437D01*
X96500059Y-94172419D01*
X96411799Y-94559111D01*
X96362478Y-94952681D01*
X96352590Y-95349173D01*
X96352590Y-95349187D01*
X96382230Y-95744711D01*
X96382231Y-95744724D01*
X96451108Y-96135339D01*
X96558530Y-96517137D01*
X96558534Y-96517151D01*
X96703435Y-96886353D01*
X96703440Y-96886365D01*
X96884386Y-97239314D01*
X96884391Y-97239323D01*
X97099586Y-97572509D01*
X97346886Y-97882614D01*
X97346895Y-97882625D01*
X97623823Y-98166544D01*
X97623833Y-98166554D01*
X97927676Y-98421508D01*
X98255394Y-98644942D01*
X98603730Y-98834636D01*
X98969223Y-98988704D01*
X98969232Y-98988706D01*
X98969238Y-98988709D01*
X99236048Y-99071009D01*
X99294307Y-99109579D01*
X99322464Y-99173524D01*
X99311581Y-99242541D01*
X99265113Y-99294717D01*
X99199498Y-99313500D01*
X69714801Y-99313500D01*
X69647762Y-99293815D01*
X69602007Y-99241011D01*
X69592063Y-99171853D01*
X69621088Y-99108297D01*
X69679866Y-99070523D01*
X69684203Y-99069334D01*
X69752726Y-99051886D01*
X70125445Y-98916228D01*
X70482803Y-98744133D01*
X70821251Y-98537312D01*
X71137424Y-98297820D01*
X71428181Y-98028037D01*
X71690631Y-97730645D01*
X71922166Y-97408600D01*
X72120485Y-97065101D01*
X72283617Y-96703563D01*
X72409941Y-96327578D01*
X72498201Y-95940885D01*
X72547521Y-95547325D01*
X72552462Y-95349173D01*
X72557409Y-95150826D01*
X72557409Y-95150810D01*
X72557409Y-95150809D01*
X72527769Y-94755280D01*
X72458893Y-94364668D01*
X72422420Y-94235037D01*
X72387006Y-94109166D01*
X72351467Y-93982854D01*
X72274979Y-93787966D01*
X72206564Y-93613646D01*
X72206559Y-93613634D01*
X72055771Y-93319510D01*
X72025609Y-93260677D01*
X71810414Y-92927491D01*
X71563114Y-92617386D01*
X71563111Y-92617383D01*
X71563104Y-92617374D01*
X71286176Y-92333455D01*
X71286173Y-92333452D01*
X71286172Y-92333451D01*
X71286167Y-92333446D01*
X70982324Y-92078492D01*
X70848928Y-91987544D01*
X70654605Y-91855057D01*
X70538494Y-91791826D01*
X70358855Y-91694000D01*
X78384489Y-91694000D01*
X78404502Y-91948289D01*
X78464044Y-92196301D01*
X78464049Y-92196318D01*
X78561656Y-92431963D01*
X78561658Y-92431966D01*
X78694930Y-92649445D01*
X78694936Y-92649454D01*
X78860587Y-92843407D01*
X78860592Y-92843412D01*
X78959036Y-92927491D01*
X79054549Y-93009066D01*
X79054555Y-93009069D01*
X79054554Y-93009069D01*
X79272033Y-93142341D01*
X79272036Y-93142343D01*
X79507681Y-93239950D01*
X79507683Y-93239950D01*
X79507689Y-93239953D01*
X79755714Y-93299498D01*
X80010000Y-93319511D01*
X80264286Y-93299498D01*
X80512311Y-93239953D01*
X80565700Y-93217838D01*
X80747963Y-93142343D01*
X80747964Y-93142342D01*
X80747967Y-93142341D01*
X80898653Y-93050000D01*
X83464489Y-93050000D01*
X83484502Y-93304289D01*
X83544044Y-93552301D01*
X83544049Y-93552318D01*
X83641656Y-93787963D01*
X83641658Y-93787966D01*
X83774930Y-94005445D01*
X83774936Y-94005454D01*
X83940587Y-94199407D01*
X83940592Y-94199412D01*
X84134073Y-94364660D01*
X84134549Y-94365066D01*
X84134555Y-94365069D01*
X84134554Y-94365069D01*
X84352033Y-94498341D01*
X84352036Y-94498343D01*
X84587681Y-94595950D01*
X84587683Y-94595950D01*
X84587689Y-94595953D01*
X84835714Y-94655498D01*
X85090000Y-94675511D01*
X85344286Y-94655498D01*
X85592311Y-94595953D01*
X85681246Y-94559115D01*
X85827963Y-94498343D01*
X85827964Y-94498342D01*
X85827967Y-94498341D01*
X86045451Y-94365066D01*
X86239410Y-94199410D01*
X86405066Y-94005451D01*
X86538341Y-93787967D01*
X86635953Y-93552311D01*
X86695498Y-93304286D01*
X86715511Y-93050000D01*
X86695498Y-92795714D01*
X86635953Y-92547689D01*
X86635950Y-92547681D01*
X86538343Y-92312036D01*
X86538341Y-92312033D01*
X86470250Y-92200919D01*
X86452005Y-92133474D01*
X86473121Y-92066871D01*
X86501663Y-92036865D01*
X86567546Y-91987546D01*
X86653796Y-91872331D01*
X86704091Y-91737483D01*
X86710500Y-91677873D01*
X86710499Y-89342128D01*
X86704953Y-89290538D01*
X87985700Y-89290538D01*
X88000790Y-89443760D01*
X88060433Y-89640376D01*
X88157277Y-89821558D01*
X88157281Y-89821565D01*
X88287618Y-89980381D01*
X88446434Y-90110718D01*
X88446437Y-90110720D01*
X88460746Y-90118368D01*
X88524798Y-90152604D01*
X88574643Y-90201566D01*
X88590104Y-90269704D01*
X88581880Y-90303226D01*
X88582829Y-90303535D01*
X88557502Y-90381483D01*
X88522326Y-90489744D01*
X88502540Y-90678000D01*
X88522326Y-90866256D01*
X88522327Y-90866259D01*
X88580818Y-91046277D01*
X88580821Y-91046284D01*
X88675467Y-91210216D01*
X88770530Y-91315794D01*
X88802129Y-91350888D01*
X88955265Y-91462148D01*
X88955270Y-91462151D01*
X89128192Y-91539142D01*
X89128197Y-91539144D01*
X89313354Y-91578500D01*
X89313355Y-91578500D01*
X89502644Y-91578500D01*
X89502646Y-91578500D01*
X89687803Y-91539144D01*
X89860730Y-91462151D01*
X90013871Y-91350888D01*
X90140533Y-91210216D01*
X90235179Y-91046284D01*
X90293674Y-90866256D01*
X90313460Y-90678000D01*
X90293674Y-90489744D01*
X90275664Y-90434318D01*
X90273670Y-90364478D01*
X90309750Y-90304645D01*
X90372451Y-90273817D01*
X90381438Y-90272598D01*
X90436164Y-90267209D01*
X90632770Y-90207569D01*
X90807818Y-90114003D01*
X90876220Y-90099762D01*
X90932243Y-90118368D01*
X91073495Y-90207123D01*
X91244825Y-90267074D01*
X91244830Y-90267075D01*
X91335889Y-90277334D01*
X91379956Y-90282299D01*
X91379959Y-90282300D01*
X91379962Y-90282300D01*
X92080441Y-90282300D01*
X92080442Y-90282299D01*
X92155728Y-90273817D01*
X92215569Y-90267075D01*
X92215572Y-90267074D01*
X92215575Y-90267074D01*
X92386905Y-90207123D01*
X92540599Y-90110550D01*
X92668950Y-89982199D01*
X92765523Y-89828505D01*
X92825474Y-89657175D01*
X92827368Y-89640370D01*
X92840699Y-89522044D01*
X92840700Y-89522040D01*
X92840700Y-89386682D01*
X92860385Y-89319643D01*
X92904214Y-89281664D01*
X92902871Y-89279392D01*
X92909590Y-89275418D01*
X92926829Y-89265222D01*
X92944303Y-89256662D01*
X92962927Y-89249288D01*
X92962927Y-89249287D01*
X92962932Y-89249286D01*
X93000649Y-89221882D01*
X93005505Y-89218692D01*
X93045620Y-89194970D01*
X93059789Y-89180799D01*
X93074579Y-89168168D01*
X93090787Y-89156394D01*
X93120499Y-89120476D01*
X93124412Y-89116176D01*
X93546773Y-88693816D01*
X93608095Y-88660334D01*
X93634453Y-88657500D01*
X93693644Y-88657500D01*
X93693646Y-88657500D01*
X93878803Y-88618144D01*
X94051730Y-88541151D01*
X94204871Y-88429888D01*
X94331533Y-88289216D01*
X94426179Y-88125284D01*
X94484674Y-87945256D01*
X94504460Y-87757000D01*
X94484674Y-87568744D01*
X94426179Y-87388716D01*
X94331533Y-87224784D01*
X94204871Y-87084112D01*
X94204870Y-87084111D01*
X94051734Y-86972851D01*
X94051729Y-86972848D01*
X93878807Y-86895857D01*
X93878802Y-86895855D01*
X93733001Y-86864865D01*
X93693646Y-86856500D01*
X93504354Y-86856500D01*
X93471897Y-86863398D01*
X93319197Y-86895855D01*
X93319192Y-86895857D01*
X93146270Y-86972848D01*
X93146265Y-86972851D01*
X92993129Y-87084111D01*
X92866466Y-87224785D01*
X92806664Y-87328366D01*
X92756097Y-87376581D01*
X92687490Y-87389805D01*
X92622626Y-87363837D01*
X92611596Y-87354047D01*
X92540598Y-87283049D01*
X92386906Y-87186477D01*
X92215574Y-87126525D01*
X92215569Y-87126524D01*
X92080444Y-87111300D01*
X92080438Y-87111300D01*
X91379962Y-87111300D01*
X91379955Y-87111300D01*
X91244830Y-87126524D01*
X91244825Y-87126525D01*
X91073493Y-87186477D01*
X90932243Y-87275231D01*
X90865006Y-87294231D01*
X90807818Y-87279595D01*
X90632776Y-87186033D01*
X90632770Y-87186031D01*
X90436164Y-87126391D01*
X90436162Y-87126390D01*
X90436160Y-87126390D01*
X90343302Y-87117244D01*
X90282943Y-87111300D01*
X90282939Y-87111300D01*
X88977461Y-87111300D01*
X88824239Y-87126390D01*
X88627623Y-87186033D01*
X88446441Y-87282877D01*
X88446434Y-87282881D01*
X88287618Y-87413218D01*
X88157281Y-87572034D01*
X88157277Y-87572041D01*
X88060433Y-87753223D01*
X88000790Y-87949839D01*
X87985700Y-88103060D01*
X87985700Y-89290538D01*
X86704953Y-89290538D01*
X86704091Y-89282517D01*
X86702925Y-89279392D01*
X86653797Y-89147671D01*
X86653793Y-89147664D01*
X86567547Y-89032455D01*
X86567544Y-89032452D01*
X86452335Y-88946206D01*
X86452328Y-88946202D01*
X86317482Y-88895908D01*
X86317483Y-88895908D01*
X86257883Y-88889501D01*
X86257881Y-88889500D01*
X86257873Y-88889500D01*
X86257864Y-88889500D01*
X83922129Y-88889500D01*
X83922123Y-88889501D01*
X83862516Y-88895908D01*
X83727671Y-88946202D01*
X83727664Y-88946206D01*
X83612455Y-89032452D01*
X83612452Y-89032455D01*
X83526206Y-89147664D01*
X83526202Y-89147671D01*
X83475908Y-89282517D01*
X83471917Y-89319643D01*
X83469501Y-89342123D01*
X83469500Y-89342135D01*
X83469500Y-91677870D01*
X83469501Y-91677876D01*
X83475908Y-91737483D01*
X83526202Y-91872328D01*
X83526206Y-91872335D01*
X83612452Y-91987544D01*
X83612453Y-91987544D01*
X83612454Y-91987546D01*
X83659395Y-92022686D01*
X83678334Y-92036864D01*
X83720204Y-92092798D01*
X83725188Y-92162490D01*
X83709749Y-92200920D01*
X83641658Y-92312033D01*
X83641656Y-92312036D01*
X83544049Y-92547681D01*
X83544044Y-92547698D01*
X83484502Y-92795710D01*
X83464489Y-93050000D01*
X80898653Y-93050000D01*
X80965451Y-93009066D01*
X81159410Y-92843410D01*
X81325066Y-92649451D01*
X81458341Y-92431967D01*
X81555953Y-92196311D01*
X81615498Y-91948286D01*
X81635511Y-91694000D01*
X81615498Y-91439714D01*
X81555953Y-91191689D01*
X81555950Y-91191681D01*
X81458343Y-90956036D01*
X81458341Y-90956033D01*
X81390250Y-90844919D01*
X81372005Y-90777474D01*
X81393121Y-90710871D01*
X81421663Y-90680865D01*
X81487546Y-90631546D01*
X81573796Y-90516331D01*
X81624091Y-90381483D01*
X81630500Y-90321873D01*
X81630499Y-87986128D01*
X81624091Y-87926517D01*
X81573796Y-87791669D01*
X81573795Y-87791668D01*
X81573793Y-87791664D01*
X81487547Y-87676455D01*
X81487544Y-87676452D01*
X81372335Y-87590206D01*
X81372328Y-87590202D01*
X81237482Y-87539908D01*
X81237483Y-87539908D01*
X81177883Y-87533501D01*
X81177881Y-87533500D01*
X81177873Y-87533500D01*
X81177864Y-87533500D01*
X78842129Y-87533500D01*
X78842123Y-87533501D01*
X78782516Y-87539908D01*
X78647671Y-87590202D01*
X78647664Y-87590206D01*
X78532455Y-87676452D01*
X78532452Y-87676455D01*
X78446206Y-87791664D01*
X78446202Y-87791671D01*
X78395908Y-87926517D01*
X78389501Y-87986116D01*
X78389501Y-87986123D01*
X78389500Y-87986135D01*
X78389501Y-90321865D01*
X78389501Y-90321876D01*
X78395908Y-90381483D01*
X78446202Y-90516328D01*
X78446206Y-90516335D01*
X78532452Y-90631544D01*
X78532453Y-90631544D01*
X78532454Y-90631546D01*
X78579395Y-90666686D01*
X78598334Y-90680864D01*
X78640204Y-90736798D01*
X78645188Y-90806490D01*
X78629749Y-90844920D01*
X78561658Y-90956033D01*
X78561656Y-90956036D01*
X78464049Y-91191681D01*
X78464044Y-91191698D01*
X78404502Y-91439710D01*
X78384489Y-91694000D01*
X70358855Y-91694000D01*
X70306270Y-91665364D01*
X70306262Y-91665360D01*
X70306259Y-91665359D01*
X69940777Y-91511296D01*
X69940761Y-91511290D01*
X69561764Y-91394385D01*
X69561751Y-91394382D01*
X69173000Y-91315794D01*
X69172979Y-91315791D01*
X68778320Y-91276300D01*
X68778319Y-91276300D01*
X68480899Y-91276300D01*
X68480897Y-91276300D01*
X68183855Y-91291124D01*
X67791647Y-91350241D01*
X67407272Y-91448114D01*
X67034549Y-91583774D01*
X66677191Y-91755869D01*
X66338753Y-91962684D01*
X66338742Y-91962692D01*
X66022575Y-92202180D01*
X66022572Y-92202182D01*
X65731813Y-92471968D01*
X65469365Y-92769359D01*
X65237839Y-93091393D01*
X65237826Y-93091413D01*
X65039516Y-93434896D01*
X64876382Y-93796437D01*
X64758043Y-94148658D01*
X64718032Y-94205938D01*
X64653406Y-94232493D01*
X64584682Y-94219892D01*
X64533679Y-94172137D01*
X64516500Y-94109166D01*
X64516500Y-84328000D01*
X73558489Y-84328000D01*
X73578502Y-84582289D01*
X73638044Y-84830301D01*
X73638049Y-84830318D01*
X73735656Y-85065963D01*
X73735658Y-85065966D01*
X73868930Y-85283445D01*
X73868936Y-85283454D01*
X73976798Y-85409744D01*
X74034590Y-85477410D01*
X74228549Y-85643066D01*
X74228555Y-85643069D01*
X74228554Y-85643069D01*
X74446033Y-85776341D01*
X74446036Y-85776343D01*
X74681681Y-85873950D01*
X74681683Y-85873950D01*
X74681689Y-85873953D01*
X74929714Y-85933498D01*
X75184000Y-85953511D01*
X75438286Y-85933498D01*
X75686311Y-85873953D01*
X75921967Y-85776341D01*
X76033082Y-85708249D01*
X76100525Y-85690005D01*
X76167128Y-85711121D01*
X76197134Y-85739663D01*
X76246454Y-85805546D01*
X76292643Y-85840123D01*
X76361664Y-85891793D01*
X76361671Y-85891797D01*
X76496517Y-85942091D01*
X76496516Y-85942091D01*
X76503444Y-85942835D01*
X76556127Y-85948500D01*
X78891872Y-85948499D01*
X78951483Y-85942091D01*
X79086331Y-85891796D01*
X79201546Y-85805546D01*
X79287796Y-85690331D01*
X79338091Y-85555483D01*
X79344500Y-85495873D01*
X79344499Y-84210538D01*
X90263500Y-84210538D01*
X90278590Y-84363760D01*
X90338233Y-84560376D01*
X90435077Y-84741558D01*
X90435081Y-84741565D01*
X90565418Y-84900381D01*
X90724234Y-85030718D01*
X90724241Y-85030722D01*
X90905423Y-85127566D01*
X90905426Y-85127566D01*
X90905430Y-85127569D01*
X91102036Y-85187209D01*
X91255257Y-85202300D01*
X92560742Y-85202299D01*
X92713964Y-85187209D01*
X92910570Y-85127569D01*
X92936343Y-85113792D01*
X92972377Y-85094533D01*
X93040779Y-85080291D01*
X93106023Y-85105291D01*
X93147394Y-85161596D01*
X93151756Y-85231329D01*
X93148761Y-85242209D01*
X93135363Y-85283445D01*
X93094326Y-85409744D01*
X93074540Y-85598000D01*
X93094326Y-85786256D01*
X93094327Y-85786259D01*
X93152818Y-85966277D01*
X93152821Y-85966284D01*
X93247467Y-86130216D01*
X93374128Y-86270888D01*
X93374129Y-86270888D01*
X93527265Y-86382148D01*
X93527270Y-86382151D01*
X93700192Y-86459142D01*
X93700197Y-86459144D01*
X93885354Y-86498500D01*
X93885355Y-86498500D01*
X94074644Y-86498500D01*
X94074646Y-86498500D01*
X94259803Y-86459144D01*
X94432730Y-86382151D01*
X94585871Y-86270888D01*
X94712533Y-86130216D01*
X94807179Y-85966284D01*
X94865674Y-85786256D01*
X94885460Y-85598000D01*
X94865674Y-85409744D01*
X94807179Y-85229716D01*
X94785334Y-85191880D01*
X94768861Y-85123982D01*
X94791713Y-85057955D01*
X94815413Y-85032930D01*
X94818388Y-85030556D01*
X94818399Y-85030550D01*
X94946750Y-84902199D01*
X95043323Y-84748505D01*
X95103274Y-84577175D01*
X95105168Y-84560370D01*
X95118499Y-84442044D01*
X95118500Y-84442040D01*
X95118500Y-83949093D01*
X95138185Y-83882054D01*
X95190989Y-83836299D01*
X95260147Y-83826355D01*
X95299175Y-83839863D01*
X95299334Y-83839508D01*
X95303476Y-83841352D01*
X95304501Y-83841707D01*
X95305267Y-83842148D01*
X95305270Y-83842151D01*
X95394893Y-83882054D01*
X95478192Y-83919142D01*
X95478197Y-83919144D01*
X95663354Y-83958500D01*
X95663355Y-83958500D01*
X95852644Y-83958500D01*
X95852646Y-83958500D01*
X96037803Y-83919144D01*
X96210730Y-83842151D01*
X96363871Y-83730888D01*
X96490533Y-83590216D01*
X96585179Y-83426284D01*
X96643674Y-83246256D01*
X96663460Y-83058000D01*
X96643674Y-82869744D01*
X96585179Y-82689716D01*
X96490533Y-82525784D01*
X96363871Y-82385112D01*
X96345535Y-82371790D01*
X96210734Y-82273851D01*
X96210729Y-82273848D01*
X96037807Y-82196857D01*
X96037802Y-82196855D01*
X95892001Y-82165865D01*
X95852646Y-82157500D01*
X95663354Y-82157500D01*
X95519645Y-82188046D01*
X95449978Y-82182730D01*
X95406183Y-82154437D01*
X95074758Y-81823012D01*
X95064935Y-81810750D01*
X95064714Y-81810934D01*
X95059741Y-81804923D01*
X95059740Y-81804923D01*
X95009319Y-81757573D01*
X94998874Y-81747128D01*
X94988430Y-81736683D01*
X94982941Y-81732425D01*
X94978516Y-81728647D01*
X94944537Y-81696738D01*
X94944535Y-81696736D01*
X94944532Y-81696735D01*
X94926984Y-81687088D01*
X94910718Y-81676404D01*
X94894888Y-81664125D01*
X94852123Y-81645618D01*
X94846877Y-81643048D01*
X94806048Y-81620603D01*
X94806047Y-81620602D01*
X94786648Y-81615622D01*
X94768236Y-81609318D01*
X94749853Y-81601362D01*
X94749847Y-81601360D01*
X94703829Y-81594072D01*
X94698107Y-81592887D01*
X94652976Y-81581300D01*
X94652974Y-81581300D01*
X94632939Y-81581300D01*
X94613541Y-81579773D01*
X94604196Y-81578293D01*
X94593760Y-81576640D01*
X94593759Y-81576640D01*
X94547371Y-81581025D01*
X94541533Y-81581300D01*
X93400738Y-81581300D01*
X93385121Y-81579576D01*
X93385094Y-81579862D01*
X93377332Y-81579127D01*
X93308204Y-81581300D01*
X93278650Y-81581300D01*
X93277929Y-81581390D01*
X93271757Y-81582169D01*
X93265945Y-81582626D01*
X93219373Y-81584090D01*
X93219372Y-81584090D01*
X93200129Y-81589681D01*
X93181079Y-81593625D01*
X93161211Y-81596134D01*
X93161209Y-81596135D01*
X93117884Y-81613288D01*
X93112357Y-81615180D01*
X93067610Y-81628181D01*
X93067609Y-81628182D01*
X93050367Y-81638379D01*
X93032899Y-81646937D01*
X93014269Y-81654313D01*
X93014267Y-81654314D01*
X92976576Y-81681698D01*
X92971694Y-81684905D01*
X92931579Y-81708630D01*
X92917408Y-81722800D01*
X92902623Y-81735428D01*
X92886412Y-81747207D01*
X92856709Y-81783110D01*
X92852777Y-81787431D01*
X92645226Y-81994981D01*
X92583903Y-82028466D01*
X92557545Y-82031300D01*
X91255261Y-82031300D01*
X91102039Y-82046390D01*
X90905423Y-82106033D01*
X90724241Y-82202877D01*
X90724234Y-82202881D01*
X90565418Y-82333218D01*
X90435081Y-82492034D01*
X90435077Y-82492041D01*
X90338233Y-82673223D01*
X90278590Y-82869839D01*
X90274011Y-82916334D01*
X90264498Y-83012930D01*
X90263500Y-83023060D01*
X90263500Y-84210538D01*
X79344499Y-84210538D01*
X79344499Y-83160128D01*
X79338091Y-83100517D01*
X79336364Y-83095888D01*
X79287797Y-82965671D01*
X79287793Y-82965664D01*
X79201547Y-82850455D01*
X79201544Y-82850452D01*
X79086335Y-82764206D01*
X79086328Y-82764202D01*
X78951482Y-82713908D01*
X78951483Y-82713908D01*
X78891883Y-82707501D01*
X78891881Y-82707500D01*
X78891873Y-82707500D01*
X78891864Y-82707500D01*
X76556129Y-82707500D01*
X76556123Y-82707501D01*
X76496516Y-82713908D01*
X76361671Y-82764202D01*
X76361664Y-82764206D01*
X76246455Y-82850452D01*
X76197136Y-82916334D01*
X76141202Y-82958204D01*
X76071510Y-82963188D01*
X76033080Y-82947749D01*
X75921966Y-82879658D01*
X75921963Y-82879656D01*
X75686318Y-82782049D01*
X75686301Y-82782044D01*
X75438289Y-82722502D01*
X75184000Y-82702489D01*
X74929710Y-82722502D01*
X74681698Y-82782044D01*
X74681681Y-82782049D01*
X74446036Y-82879656D01*
X74446033Y-82879658D01*
X74228554Y-83012930D01*
X74228545Y-83012936D01*
X74034592Y-83178587D01*
X74034587Y-83178592D01*
X73868936Y-83372545D01*
X73868930Y-83372554D01*
X73735658Y-83590033D01*
X73735656Y-83590036D01*
X73638049Y-83825681D01*
X73638044Y-83825698D01*
X73578502Y-84073710D01*
X73558489Y-84328000D01*
X64516500Y-84328000D01*
X64516500Y-79502000D01*
X75590489Y-79502000D01*
X75610502Y-79756289D01*
X75670044Y-80004301D01*
X75670049Y-80004318D01*
X75767656Y-80239963D01*
X75767658Y-80239966D01*
X75900930Y-80457445D01*
X75900936Y-80457454D01*
X76066587Y-80651407D01*
X76066590Y-80651410D01*
X76260549Y-80817066D01*
X76260555Y-80817069D01*
X76260554Y-80817069D01*
X76478033Y-80950341D01*
X76478036Y-80950343D01*
X76713681Y-81047950D01*
X76713683Y-81047950D01*
X76713689Y-81047953D01*
X76961714Y-81107498D01*
X77216000Y-81127511D01*
X77470286Y-81107498D01*
X77718311Y-81047953D01*
X77953967Y-80950341D01*
X78065082Y-80882249D01*
X78132525Y-80864005D01*
X78199128Y-80885121D01*
X78229134Y-80913663D01*
X78278454Y-80979546D01*
X78324643Y-81014123D01*
X78393664Y-81065793D01*
X78393671Y-81065797D01*
X78528517Y-81116091D01*
X78528516Y-81116091D01*
X78535444Y-81116835D01*
X78588127Y-81122500D01*
X80923872Y-81122499D01*
X80983483Y-81116091D01*
X81118331Y-81065796D01*
X81233546Y-80979546D01*
X81319796Y-80864331D01*
X81370091Y-80729483D01*
X81376500Y-80669873D01*
X81376499Y-78334128D01*
X81370091Y-78274517D01*
X81338179Y-78188957D01*
X81319797Y-78139671D01*
X81319793Y-78139664D01*
X81233547Y-78024455D01*
X81233544Y-78024452D01*
X81118335Y-77938206D01*
X81118328Y-77938202D01*
X80983482Y-77887908D01*
X80983483Y-77887908D01*
X80923883Y-77881501D01*
X80923881Y-77881500D01*
X80923873Y-77881500D01*
X80923864Y-77881500D01*
X78588129Y-77881500D01*
X78588123Y-77881501D01*
X78528516Y-77887908D01*
X78393671Y-77938202D01*
X78393664Y-77938206D01*
X78278455Y-78024452D01*
X78229136Y-78090334D01*
X78173202Y-78132204D01*
X78103510Y-78137188D01*
X78065080Y-78121749D01*
X77953966Y-78053658D01*
X77953963Y-78053656D01*
X77718318Y-77956049D01*
X77718301Y-77956044D01*
X77470289Y-77896502D01*
X77216000Y-77876489D01*
X76961710Y-77896502D01*
X76713698Y-77956044D01*
X76713681Y-77956049D01*
X76478036Y-78053656D01*
X76478033Y-78053658D01*
X76260554Y-78186930D01*
X76260545Y-78186936D01*
X76066592Y-78352587D01*
X76066587Y-78352592D01*
X75900936Y-78546545D01*
X75900930Y-78546554D01*
X75767658Y-78764033D01*
X75767656Y-78764036D01*
X75670049Y-78999681D01*
X75670044Y-78999698D01*
X75610502Y-79247710D01*
X75590489Y-79502000D01*
X64516500Y-79502000D01*
X64516500Y-74549000D01*
X71992540Y-74549000D01*
X72012326Y-74737256D01*
X72012327Y-74737259D01*
X72070818Y-74917277D01*
X72070821Y-74917284D01*
X72165467Y-75081216D01*
X72279654Y-75208033D01*
X72292129Y-75221888D01*
X72445265Y-75333148D01*
X72445270Y-75333151D01*
X72618192Y-75410142D01*
X72618197Y-75410144D01*
X72803354Y-75449500D01*
X72803355Y-75449500D01*
X72992644Y-75449500D01*
X72992646Y-75449500D01*
X73177803Y-75410144D01*
X73350730Y-75333151D01*
X73503871Y-75221888D01*
X73630533Y-75081216D01*
X73725179Y-74917284D01*
X73783674Y-74737256D01*
X73800989Y-74572505D01*
X73827572Y-74507894D01*
X73836619Y-74497798D01*
X79624819Y-68709599D01*
X79686142Y-68676114D01*
X79755834Y-68681098D01*
X79811767Y-68722970D01*
X79836184Y-68788434D01*
X79836500Y-68797280D01*
X79836500Y-73904032D01*
X79834772Y-73919681D01*
X79835054Y-73919708D01*
X79834319Y-73927475D01*
X79836500Y-73996859D01*
X79836500Y-74026477D01*
X79837371Y-74033380D01*
X79837829Y-74039199D01*
X79839298Y-74085942D01*
X79844916Y-74105275D01*
X79848862Y-74124329D01*
X79851383Y-74144287D01*
X79851386Y-74144299D01*
X79868595Y-74187765D01*
X79870487Y-74193293D01*
X79883530Y-74238187D01*
X79883530Y-74238188D01*
X79893777Y-74255515D01*
X79902335Y-74272985D01*
X79909745Y-74291701D01*
X79937229Y-74329529D01*
X79940437Y-74334413D01*
X79964234Y-74374652D01*
X79964240Y-74374660D01*
X79978469Y-74388888D01*
X79991109Y-74403687D01*
X80002934Y-74419964D01*
X80002936Y-74419965D01*
X80002937Y-74419967D01*
X80005049Y-74421714D01*
X80038957Y-74449765D01*
X80043268Y-74453687D01*
X80670795Y-75081214D01*
X81230371Y-75640790D01*
X81263856Y-75702113D01*
X81266010Y-75715505D01*
X81283326Y-75880256D01*
X81283327Y-75880259D01*
X81341818Y-76060277D01*
X81341821Y-76060284D01*
X81436467Y-76224216D01*
X81548957Y-76349148D01*
X81563129Y-76364888D01*
X81716265Y-76476148D01*
X81716270Y-76476151D01*
X81889192Y-76553142D01*
X81889197Y-76553144D01*
X82074354Y-76592500D01*
X82074355Y-76592500D01*
X82144500Y-76592500D01*
X82211539Y-76612185D01*
X82257294Y-76664989D01*
X82268500Y-76716500D01*
X82268500Y-81289032D01*
X82266772Y-81304681D01*
X82267054Y-81304708D01*
X82266319Y-81312475D01*
X82268500Y-81381859D01*
X82268500Y-81411477D01*
X82269371Y-81418380D01*
X82269829Y-81424199D01*
X82271298Y-81470942D01*
X82276916Y-81490275D01*
X82280862Y-81509329D01*
X82283383Y-81529287D01*
X82283386Y-81529299D01*
X82300595Y-81572765D01*
X82302487Y-81578293D01*
X82315530Y-81623187D01*
X82315530Y-81623188D01*
X82325777Y-81640515D01*
X82334335Y-81657985D01*
X82341745Y-81676701D01*
X82369229Y-81714529D01*
X82372437Y-81719413D01*
X82396234Y-81759652D01*
X82396240Y-81759660D01*
X82410469Y-81773888D01*
X82423109Y-81788687D01*
X82434934Y-81804964D01*
X82434936Y-81804965D01*
X82434937Y-81804967D01*
X82456750Y-81823012D01*
X82470957Y-81834765D01*
X82475268Y-81838687D01*
X82742612Y-82106031D01*
X83008371Y-82371790D01*
X83041856Y-82433113D01*
X83044010Y-82446505D01*
X83061326Y-82611256D01*
X83061327Y-82611259D01*
X83119818Y-82791277D01*
X83119821Y-82791284D01*
X83214467Y-82955216D01*
X83341128Y-83095888D01*
X83341129Y-83095888D01*
X83494265Y-83207148D01*
X83494270Y-83207151D01*
X83667192Y-83284142D01*
X83667197Y-83284144D01*
X83852354Y-83323500D01*
X83852355Y-83323500D01*
X84041644Y-83323500D01*
X84041646Y-83323500D01*
X84226803Y-83284144D01*
X84399730Y-83207151D01*
X84552871Y-83095888D01*
X84679533Y-82955216D01*
X84774179Y-82791284D01*
X84832674Y-82611256D01*
X84852460Y-82423000D01*
X84832674Y-82234744D01*
X84774179Y-82054716D01*
X84679533Y-81890784D01*
X84552871Y-81750112D01*
X84548873Y-81747207D01*
X84399734Y-81638851D01*
X84399729Y-81638848D01*
X84226807Y-81561857D01*
X84226802Y-81561855D01*
X84073605Y-81529293D01*
X84041646Y-81522500D01*
X84041645Y-81522500D01*
X83985281Y-81522500D01*
X83918242Y-81502815D01*
X83897600Y-81486181D01*
X83559819Y-81148400D01*
X83526334Y-81087077D01*
X83523500Y-81060719D01*
X83523500Y-78958996D01*
X83543185Y-78891957D01*
X83595989Y-78846202D01*
X83660757Y-78835707D01*
X83668127Y-78836500D01*
X86003872Y-78836499D01*
X86063483Y-78830091D01*
X86198331Y-78779796D01*
X86313546Y-78693546D01*
X86399796Y-78578331D01*
X86450091Y-78443483D01*
X86456500Y-78383873D01*
X86456499Y-76048128D01*
X86450091Y-75988517D01*
X86434233Y-75946000D01*
X88290489Y-75946000D01*
X88310502Y-76200289D01*
X88370044Y-76448301D01*
X88370049Y-76448318D01*
X88467656Y-76683963D01*
X88467658Y-76683966D01*
X88535749Y-76795080D01*
X88553994Y-76862526D01*
X88532878Y-76929128D01*
X88504334Y-76959136D01*
X88438452Y-77008455D01*
X88352206Y-77123664D01*
X88352202Y-77123671D01*
X88301908Y-77258517D01*
X88295501Y-77318116D01*
X88295501Y-77318123D01*
X88295500Y-77318135D01*
X88295500Y-79653870D01*
X88295501Y-79653876D01*
X88301908Y-79713483D01*
X88352202Y-79848328D01*
X88352206Y-79848335D01*
X88438452Y-79963544D01*
X88438455Y-79963547D01*
X88553664Y-80049793D01*
X88553671Y-80049797D01*
X88688517Y-80100091D01*
X88688516Y-80100091D01*
X88695444Y-80100835D01*
X88748127Y-80106500D01*
X91083872Y-80106499D01*
X91143483Y-80100091D01*
X91278331Y-80049796D01*
X91393546Y-79963546D01*
X91479796Y-79848331D01*
X91530091Y-79713483D01*
X91536500Y-79653873D01*
X91536499Y-77318128D01*
X91530091Y-77258517D01*
X91479796Y-77123669D01*
X91479795Y-77123668D01*
X91479793Y-77123664D01*
X91393547Y-77008456D01*
X91393548Y-77008456D01*
X91393546Y-77008454D01*
X91327664Y-76959135D01*
X91285795Y-76903203D01*
X91280811Y-76833511D01*
X91296247Y-76795084D01*
X91364341Y-76683967D01*
X91461953Y-76448311D01*
X91521498Y-76200286D01*
X91541511Y-75946000D01*
X91521498Y-75691714D01*
X91461953Y-75443689D01*
X91449642Y-75413967D01*
X91364343Y-75208036D01*
X91364341Y-75208033D01*
X91231069Y-74990554D01*
X91231063Y-74990545D01*
X91065412Y-74796592D01*
X91065407Y-74796587D01*
X90871454Y-74630936D01*
X90871445Y-74630930D01*
X90653966Y-74497658D01*
X90653963Y-74497656D01*
X90418318Y-74400049D01*
X90418301Y-74400044D01*
X90170289Y-74340502D01*
X89916000Y-74320489D01*
X89661710Y-74340502D01*
X89413698Y-74400044D01*
X89413681Y-74400049D01*
X89178036Y-74497656D01*
X89178033Y-74497658D01*
X88960554Y-74630930D01*
X88960545Y-74630936D01*
X88766592Y-74796587D01*
X88766587Y-74796592D01*
X88600936Y-74990545D01*
X88600930Y-74990554D01*
X88467658Y-75208033D01*
X88467656Y-75208036D01*
X88370049Y-75443681D01*
X88370044Y-75443698D01*
X88310502Y-75691710D01*
X88290489Y-75946000D01*
X86434233Y-75946000D01*
X86399797Y-75853671D01*
X86399793Y-75853664D01*
X86324629Y-75753259D01*
X86313546Y-75738454D01*
X86247664Y-75689135D01*
X86205795Y-75633203D01*
X86200811Y-75563511D01*
X86216247Y-75525084D01*
X86284341Y-75413967D01*
X86381953Y-75178311D01*
X86441498Y-74930286D01*
X86461511Y-74676000D01*
X86441498Y-74421714D01*
X86381953Y-74173689D01*
X86381950Y-74173681D01*
X86284343Y-73938036D01*
X86284341Y-73938033D01*
X86151069Y-73720554D01*
X86151063Y-73720545D01*
X85985412Y-73526592D01*
X85985407Y-73526587D01*
X85791454Y-73360936D01*
X85791445Y-73360930D01*
X85573966Y-73227658D01*
X85573963Y-73227656D01*
X85338318Y-73130049D01*
X85338301Y-73130044D01*
X85090289Y-73070502D01*
X84836000Y-73050489D01*
X84581710Y-73070502D01*
X84333698Y-73130044D01*
X84333681Y-73130049D01*
X84098036Y-73227656D01*
X84098033Y-73227658D01*
X83880554Y-73360930D01*
X83880552Y-73360931D01*
X83728031Y-73491196D01*
X83664270Y-73519766D01*
X83595184Y-73509328D01*
X83542708Y-73463197D01*
X83523500Y-73396905D01*
X83523500Y-65262187D01*
X83543185Y-65195148D01*
X83595989Y-65149393D01*
X83665147Y-65139449D01*
X83718620Y-65160610D01*
X83821338Y-65232534D01*
X84021550Y-65325894D01*
X84234932Y-65383070D01*
X84392123Y-65396822D01*
X84454998Y-65402323D01*
X84455000Y-65402323D01*
X84455002Y-65402323D01*
X84516335Y-65396957D01*
X84675068Y-65383070D01*
X84716791Y-65371890D01*
X84786640Y-65373553D01*
X84836565Y-65403984D01*
X87127624Y-67695043D01*
X87137471Y-67707333D01*
X87137689Y-67707154D01*
X87142657Y-67713160D01*
X87193257Y-67760677D01*
X87214201Y-67781620D01*
X87214207Y-67781626D01*
X87219697Y-67785883D01*
X87224148Y-67789684D01*
X87258235Y-67821695D01*
X87258237Y-67821696D01*
X87275868Y-67831388D01*
X87292137Y-67842074D01*
X87308037Y-67854407D01*
X87308037Y-67854408D01*
X87350944Y-67872975D01*
X87356193Y-67875547D01*
X87397161Y-67898070D01*
X87397164Y-67898071D01*
X87397166Y-67898072D01*
X87416659Y-67903076D01*
X87435067Y-67909379D01*
X87453541Y-67917374D01*
X87485890Y-67922497D01*
X87499723Y-67924688D01*
X87505438Y-67925871D01*
X87550728Y-67937500D01*
X87570858Y-67937500D01*
X87590255Y-67939026D01*
X87610133Y-67942175D01*
X87652779Y-67938143D01*
X87656679Y-67937775D01*
X87662517Y-67937500D01*
X91382719Y-67937500D01*
X91449758Y-67957185D01*
X91470400Y-67973819D01*
X99010371Y-75513790D01*
X99043856Y-75575113D01*
X99046010Y-75588505D01*
X99063326Y-75753256D01*
X99063327Y-75753259D01*
X99121818Y-75933277D01*
X99121821Y-75933284D01*
X99216467Y-76097216D01*
X99309272Y-76200286D01*
X99343129Y-76237888D01*
X99496265Y-76349148D01*
X99496270Y-76349151D01*
X99669192Y-76426142D01*
X99669197Y-76426144D01*
X99854354Y-76465500D01*
X99854355Y-76465500D01*
X100043644Y-76465500D01*
X100043646Y-76465500D01*
X100228803Y-76426144D01*
X100401730Y-76349151D01*
X100554871Y-76237888D01*
X100681533Y-76097216D01*
X100776179Y-75933284D01*
X100834674Y-75753256D01*
X100854460Y-75565000D01*
X100834674Y-75376744D01*
X100776179Y-75196716D01*
X100681533Y-75032784D01*
X100554871Y-74892112D01*
X100554870Y-74892111D01*
X100401734Y-74780851D01*
X100401729Y-74780848D01*
X100228807Y-74703857D01*
X100228802Y-74703855D01*
X100077792Y-74671758D01*
X100043646Y-74664500D01*
X100043645Y-74664500D01*
X99987281Y-74664500D01*
X99920242Y-74644815D01*
X99899600Y-74628181D01*
X92196376Y-66924957D01*
X92186531Y-66912668D01*
X92186313Y-66912849D01*
X92181340Y-66906838D01*
X92168672Y-66894942D01*
X92130741Y-66859322D01*
X92120268Y-66848849D01*
X92109797Y-66838377D01*
X92104296Y-66834111D01*
X92099848Y-66830312D01*
X92065768Y-66798308D01*
X92065763Y-66798304D01*
X92048122Y-66788606D01*
X92031857Y-66777922D01*
X92015963Y-66765593D01*
X92015962Y-66765592D01*
X92000804Y-66759032D01*
X91973054Y-66747023D01*
X91967807Y-66744453D01*
X91926837Y-66721929D01*
X91926828Y-66721926D01*
X91907334Y-66716920D01*
X91888933Y-66710620D01*
X91870459Y-66702626D01*
X91870452Y-66702624D01*
X91824287Y-66695313D01*
X91818563Y-66694128D01*
X91773279Y-66682500D01*
X91773272Y-66682500D01*
X91753142Y-66682500D01*
X91733743Y-66680973D01*
X91713868Y-66677825D01*
X91713867Y-66677825D01*
X91667321Y-66682225D01*
X91661483Y-66682500D01*
X87941281Y-66682500D01*
X87874242Y-66662815D01*
X87853600Y-66646181D01*
X86813706Y-65606287D01*
X86780221Y-65544964D01*
X86785205Y-65475272D01*
X86827077Y-65419339D01*
X86892541Y-65394922D01*
X86912186Y-65395077D01*
X86985466Y-65401488D01*
X86994999Y-65402323D01*
X86995000Y-65402323D01*
X86995002Y-65402323D01*
X87056335Y-65396957D01*
X87215068Y-65383070D01*
X87428450Y-65325894D01*
X87628662Y-65232534D01*
X87809620Y-65105826D01*
X87965826Y-64949620D01*
X88092534Y-64768662D01*
X88185894Y-64568450D01*
X88243070Y-64355068D01*
X88262323Y-64135000D01*
X88243070Y-63914932D01*
X88185894Y-63701550D01*
X88092534Y-63501339D01*
X87965826Y-63320380D01*
X87809620Y-63164174D01*
X87809616Y-63164171D01*
X87809615Y-63164170D01*
X87628666Y-63037468D01*
X87628662Y-63037466D01*
X87582010Y-63015712D01*
X87428450Y-62944106D01*
X87428447Y-62944105D01*
X87428445Y-62944104D01*
X87215070Y-62886930D01*
X87215062Y-62886929D01*
X86995002Y-62867677D01*
X86994998Y-62867677D01*
X86774937Y-62886929D01*
X86774929Y-62886930D01*
X86561554Y-62944104D01*
X86561548Y-62944107D01*
X86361340Y-63037465D01*
X86361338Y-63037466D01*
X86180377Y-63164175D01*
X86024175Y-63320377D01*
X85897466Y-63501338D01*
X85897465Y-63501340D01*
X85837382Y-63630189D01*
X85791209Y-63682628D01*
X85724016Y-63701780D01*
X85657135Y-63681564D01*
X85612618Y-63630189D01*
X85552534Y-63501340D01*
X85552533Y-63501338D01*
X85551946Y-63500500D01*
X85425826Y-63320380D01*
X85269620Y-63164174D01*
X85269616Y-63164171D01*
X85269615Y-63164170D01*
X85088666Y-63037468D01*
X85088662Y-63037466D01*
X85042010Y-63015712D01*
X84888450Y-62944106D01*
X84888447Y-62944105D01*
X84888445Y-62944104D01*
X84675070Y-62886930D01*
X84675062Y-62886929D01*
X84455002Y-62867677D01*
X84454998Y-62867677D01*
X84234937Y-62886929D01*
X84234929Y-62886930D01*
X84021554Y-62944104D01*
X84021548Y-62944107D01*
X83821340Y-63037465D01*
X83821338Y-63037466D01*
X83640377Y-63164175D01*
X83484175Y-63320377D01*
X83357466Y-63501338D01*
X83357465Y-63501340D01*
X83297382Y-63630189D01*
X83251209Y-63682628D01*
X83184016Y-63701780D01*
X83117135Y-63681564D01*
X83072618Y-63630189D01*
X83012534Y-63501340D01*
X83012533Y-63501338D01*
X83011946Y-63500500D01*
X82885826Y-63320380D01*
X82729620Y-63164174D01*
X82729616Y-63164171D01*
X82729615Y-63164170D01*
X82548666Y-63037468D01*
X82548662Y-63037466D01*
X82502010Y-63015712D01*
X82348450Y-62944106D01*
X82348447Y-62944105D01*
X82348445Y-62944104D01*
X82135070Y-62886930D01*
X82135062Y-62886929D01*
X81915002Y-62867677D01*
X81914998Y-62867677D01*
X81694937Y-62886929D01*
X81694929Y-62886930D01*
X81481554Y-62944104D01*
X81481548Y-62944107D01*
X81281340Y-63037465D01*
X81281334Y-63037468D01*
X81280366Y-63038147D01*
X81279871Y-63038313D01*
X81276653Y-63040172D01*
X81276279Y-63039524D01*
X81214157Y-63060464D01*
X81146392Y-63043443D01*
X81098587Y-62992488D01*
X81090183Y-62971161D01*
X81088700Y-62966057D01*
X81083082Y-62946720D01*
X81079138Y-62927674D01*
X81076616Y-62907707D01*
X81059402Y-62864231D01*
X81057513Y-62858710D01*
X81044468Y-62813808D01*
X81034225Y-62796489D01*
X81025662Y-62779011D01*
X81018253Y-62760297D01*
X81018253Y-62760296D01*
X80990771Y-62722472D01*
X80987567Y-62717596D01*
X80963763Y-62677344D01*
X80963761Y-62677342D01*
X80963759Y-62677339D01*
X80949531Y-62663112D01*
X80936896Y-62648320D01*
X80925063Y-62632033D01*
X80925060Y-62632031D01*
X80925060Y-62632030D01*
X80925059Y-62632029D01*
X80889035Y-62602228D01*
X80884713Y-62598294D01*
X80258376Y-61971957D01*
X80248531Y-61959668D01*
X80248313Y-61959849D01*
X80243340Y-61953838D01*
X80222438Y-61934210D01*
X80192741Y-61906322D01*
X80182268Y-61895849D01*
X80171797Y-61885377D01*
X80166296Y-61881111D01*
X80161848Y-61877312D01*
X80127768Y-61845308D01*
X80127763Y-61845304D01*
X80110122Y-61835606D01*
X80093857Y-61824922D01*
X80077963Y-61812593D01*
X80077962Y-61812592D01*
X80055212Y-61802747D01*
X80035054Y-61794023D01*
X80029807Y-61791453D01*
X79988837Y-61768929D01*
X79988828Y-61768926D01*
X79969334Y-61763920D01*
X79950933Y-61757620D01*
X79932459Y-61749626D01*
X79932452Y-61749624D01*
X79886287Y-61742313D01*
X79880563Y-61741128D01*
X79835279Y-61729500D01*
X79835272Y-61729500D01*
X79815142Y-61729500D01*
X79795743Y-61727973D01*
X79775868Y-61724825D01*
X79775867Y-61724825D01*
X79729321Y-61729225D01*
X79723483Y-61729500D01*
X78695967Y-61729500D01*
X78680318Y-61727772D01*
X78680292Y-61728054D01*
X78672524Y-61727319D01*
X78603141Y-61729500D01*
X78573522Y-61729500D01*
X78566618Y-61730371D01*
X78560800Y-61730829D01*
X78514060Y-61732298D01*
X78514054Y-61732299D01*
X78494719Y-61737916D01*
X78475680Y-61741859D01*
X78455715Y-61744382D01*
X78455701Y-61744385D01*
X78412235Y-61761594D01*
X78406710Y-61763485D01*
X78361809Y-61776531D01*
X78361806Y-61776533D01*
X78344480Y-61786779D01*
X78327010Y-61795337D01*
X78308298Y-61802745D01*
X78270463Y-61830233D01*
X78265580Y-61833440D01*
X78225346Y-61857234D01*
X78211106Y-61871474D01*
X78196320Y-61884102D01*
X78180033Y-61895936D01*
X78180032Y-61895936D01*
X78150227Y-61931963D01*
X78146295Y-61936285D01*
X77216564Y-62866015D01*
X77155241Y-62899500D01*
X77096791Y-62898109D01*
X77055073Y-62886931D01*
X77055070Y-62886930D01*
X77055068Y-62886930D01*
X76945033Y-62877303D01*
X76835002Y-62867677D01*
X76834998Y-62867677D01*
X76614937Y-62886929D01*
X76614929Y-62886930D01*
X76401554Y-62944104D01*
X76401548Y-62944107D01*
X76201340Y-63037465D01*
X76201338Y-63037466D01*
X76020377Y-63164175D01*
X75864175Y-63320377D01*
X75737466Y-63501338D01*
X75737465Y-63501340D01*
X75644107Y-63701548D01*
X75644104Y-63701554D01*
X75586930Y-63914929D01*
X75586929Y-63914937D01*
X75567677Y-64134997D01*
X75567677Y-64135002D01*
X75586929Y-64355062D01*
X75586930Y-64355070D01*
X75644104Y-64568445D01*
X75644105Y-64568447D01*
X75644106Y-64568450D01*
X75671761Y-64627756D01*
X75737466Y-64768662D01*
X75737468Y-64768666D01*
X75864170Y-64949615D01*
X75864175Y-64949621D01*
X76020378Y-65105824D01*
X76020384Y-65105829D01*
X76201333Y-65232531D01*
X76201335Y-65232532D01*
X76201338Y-65232534D01*
X76401550Y-65325894D01*
X76614932Y-65383070D01*
X76772123Y-65396822D01*
X76834998Y-65402323D01*
X76835000Y-65402323D01*
X76835002Y-65402323D01*
X76896335Y-65396957D01*
X77055068Y-65383070D01*
X77268450Y-65325894D01*
X77468662Y-65232534D01*
X77649620Y-65105826D01*
X77805826Y-64949620D01*
X77932534Y-64768662D01*
X77992617Y-64639811D01*
X78038790Y-64587371D01*
X78105983Y-64568219D01*
X78172865Y-64588435D01*
X78217382Y-64639811D01*
X78277464Y-64768658D01*
X78277468Y-64768666D01*
X78404170Y-64949615D01*
X78404174Y-64949620D01*
X78560380Y-65105826D01*
X78694624Y-65199824D01*
X78738248Y-65254399D01*
X78747500Y-65301398D01*
X78747499Y-67760719D01*
X78727814Y-67827759D01*
X78711180Y-67848400D01*
X72947400Y-73612181D01*
X72886077Y-73645666D01*
X72859719Y-73648500D01*
X72803354Y-73648500D01*
X72770897Y-73655398D01*
X72618197Y-73687855D01*
X72618192Y-73687857D01*
X72445270Y-73764848D01*
X72445265Y-73764851D01*
X72292129Y-73876111D01*
X72165466Y-74016785D01*
X72070821Y-74180715D01*
X72070818Y-74180722D01*
X72018903Y-74340502D01*
X72012326Y-74360744D01*
X71992540Y-74549000D01*
X64516500Y-74549000D01*
X64516499Y-64627752D01*
X64536184Y-64560717D01*
X64588988Y-64514962D01*
X64658146Y-64505018D01*
X64721702Y-64534043D01*
X64759476Y-64592821D01*
X64759864Y-64594171D01*
X64808531Y-64767142D01*
X64808534Y-64767151D01*
X64953435Y-65136353D01*
X64953440Y-65136365D01*
X65090640Y-65403984D01*
X65134391Y-65489323D01*
X65349586Y-65822509D01*
X65475691Y-65980640D01*
X65596895Y-66132625D01*
X65873823Y-66416544D01*
X65873833Y-66416554D01*
X66177676Y-66671508D01*
X66505394Y-66894942D01*
X66853730Y-67084636D01*
X67219223Y-67238704D01*
X67219232Y-67238706D01*
X67219238Y-67238709D01*
X67598235Y-67355614D01*
X67598248Y-67355617D01*
X67986999Y-67434205D01*
X67987014Y-67434208D01*
X68325299Y-67468058D01*
X68381680Y-67473700D01*
X68381681Y-67473700D01*
X68679103Y-67473700D01*
X68877130Y-67463816D01*
X68976145Y-67458875D01*
X69368353Y-67399759D01*
X69752726Y-67301886D01*
X70125445Y-67166228D01*
X70482803Y-66994133D01*
X70821251Y-66787312D01*
X71137424Y-66547820D01*
X71428181Y-66278037D01*
X71690631Y-65980645D01*
X71922166Y-65658600D01*
X72120485Y-65315101D01*
X72283617Y-64953563D01*
X72409941Y-64577578D01*
X72498201Y-64190885D01*
X72547521Y-63797325D01*
X72554923Y-63500500D01*
X72557409Y-63400826D01*
X72557409Y-63400810D01*
X72551382Y-63320380D01*
X72527769Y-63005280D01*
X72458893Y-62614668D01*
X72351467Y-62232854D01*
X72341303Y-62206957D01*
X72206564Y-61863646D01*
X72206559Y-61863634D01*
X72145422Y-61744382D01*
X72025609Y-61510677D01*
X71810414Y-61177491D01*
X71563114Y-60867386D01*
X71563111Y-60867383D01*
X71563104Y-60867374D01*
X71286176Y-60583455D01*
X71286173Y-60583452D01*
X71286172Y-60583451D01*
X71286167Y-60583446D01*
X70982324Y-60328492D01*
X70877841Y-60257257D01*
X70654605Y-60105057D01*
X70538494Y-60041826D01*
X70306270Y-59915364D01*
X70306262Y-59915360D01*
X70306259Y-59915359D01*
X69940777Y-59761296D01*
X69940761Y-59761290D01*
X69673952Y-59678991D01*
X69615693Y-59640421D01*
X69587536Y-59576476D01*
X69598419Y-59507459D01*
X69644887Y-59455283D01*
X69710502Y-59436500D01*
X99195199Y-59436500D01*
X99262238Y-59456185D01*
G37*
%TD.AperFunction*%
%TD*%
M02*
