%TF.GenerationSoftware,KiCad,Pcbnew,7.0.7*%
%TF.CreationDate,2023-11-05T11:25:06-06:00*%
%TF.ProjectId,LEDBreakout_Hardware,4c454442-7265-4616-9b6f-75745f486172,rev?*%
%TF.SameCoordinates,Original*%
%TF.FileFunction,Copper,L1,Top*%
%TF.FilePolarity,Positive*%
%FSLAX46Y46*%
G04 Gerber Fmt 4.6, Leading zero omitted, Abs format (unit mm)*
G04 Created by KiCad (PCBNEW 7.0.7) date 2023-11-05 11:25:06*
%MOMM*%
%LPD*%
G01*
G04 APERTURE LIST*
G04 Aperture macros list*
%AMRoundRect*
0 Rectangle with rounded corners*
0 $1 Rounding radius*
0 $2 $3 $4 $5 $6 $7 $8 $9 X,Y pos of 4 corners*
0 Add a 4 corners polygon primitive as box body*
4,1,4,$2,$3,$4,$5,$6,$7,$8,$9,$2,$3,0*
0 Add four circle primitives for the rounded corners*
1,1,$1+$1,$2,$3*
1,1,$1+$1,$4,$5*
1,1,$1+$1,$6,$7*
1,1,$1+$1,$8,$9*
0 Add four rect primitives between the rounded corners*
20,1,$1+$1,$2,$3,$4,$5,0*
20,1,$1+$1,$4,$5,$6,$7,0*
20,1,$1+$1,$6,$7,$8,$9,0*
20,1,$1+$1,$8,$9,$2,$3,0*%
G04 Aperture macros list end*
%TA.AperFunction,SMDPad,CuDef*%
%ADD10RoundRect,0.237500X-0.237500X0.250000X-0.237500X-0.250000X0.237500X-0.250000X0.237500X0.250000X0*%
%TD*%
%TA.AperFunction,SMDPad,CuDef*%
%ADD11RoundRect,0.237500X0.250000X0.237500X-0.250000X0.237500X-0.250000X-0.237500X0.250000X-0.237500X0*%
%TD*%
%TA.AperFunction,SMDPad,CuDef*%
%ADD12RoundRect,0.150000X0.587500X0.150000X-0.587500X0.150000X-0.587500X-0.150000X0.587500X-0.150000X0*%
%TD*%
%TA.AperFunction,SMDPad,CuDef*%
%ADD13RoundRect,0.249999X-1.075001X0.450001X-1.075001X-0.450001X1.075001X-0.450001X1.075001X0.450001X0*%
%TD*%
%TA.AperFunction,SMDPad,CuDef*%
%ADD14RoundRect,0.237500X0.237500X-0.250000X0.237500X0.250000X-0.237500X0.250000X-0.237500X-0.250000X0*%
%TD*%
%TA.AperFunction,SMDPad,CuDef*%
%ADD15RoundRect,0.150000X-0.587500X-0.150000X0.587500X-0.150000X0.587500X0.150000X-0.587500X0.150000X0*%
%TD*%
%TA.AperFunction,SMDPad,CuDef*%
%ADD16RoundRect,0.150000X-0.150000X0.587500X-0.150000X-0.587500X0.150000X-0.587500X0.150000X0.587500X0*%
%TD*%
%TA.AperFunction,ComponentPad*%
%ADD17C,1.524000*%
%TD*%
%TA.AperFunction,SMDPad,CuDef*%
%ADD18RoundRect,0.249999X0.450001X1.075001X-0.450001X1.075001X-0.450001X-1.075001X0.450001X-1.075001X0*%
%TD*%
%TA.AperFunction,ComponentPad*%
%ADD19R,2.240000X2.240000*%
%TD*%
%TA.AperFunction,ComponentPad*%
%ADD20O,2.240000X2.240000*%
%TD*%
%TA.AperFunction,ViaPad*%
%ADD21C,0.800000*%
%TD*%
%TA.AperFunction,Conductor*%
%ADD22C,0.254000*%
%TD*%
%TA.AperFunction,Conductor*%
%ADD23C,0.250000*%
%TD*%
G04 APERTURE END LIST*
D10*
%TO.P,R9,1*%
%TO.N,530nm*%
X66040000Y-71731500D03*
%TO.P,R9,2*%
%TO.N,GND*%
X66040000Y-73556500D03*
%TD*%
%TO.P,R11,1*%
%TO.N,465nm*%
X66040000Y-81891500D03*
%TO.P,R11,2*%
%TO.N,GND*%
X66040000Y-83716500D03*
%TD*%
%TO.P,R12,1*%
%TO.N,400nm*%
X66040000Y-87075000D03*
%TO.P,R12,2*%
%TO.N,GND*%
X66040000Y-88900000D03*
%TD*%
D11*
%TO.P,R1,1*%
%TO.N,+5V*%
X89722000Y-68707000D03*
%TO.P,R1,2*%
%TO.N,Net-(D1-A)*%
X87897000Y-68707000D03*
%TD*%
D12*
%TO.P,Q1,1,G*%
%TO.N,530nm*%
X95009000Y-76703000D03*
%TO.P,Q1,2,S*%
%TO.N,GND*%
X95009000Y-74803000D03*
%TO.P,Q1,3,D*%
%TO.N,Net-(D1-K)*%
X93134000Y-75753000D03*
%TD*%
D13*
%TO.P,R8,1*%
%TO.N,+5V*%
X97803000Y-74689000D03*
%TO.P,R8,2*%
%TO.N,Net-(D8-A)*%
X97803000Y-79489000D03*
%TD*%
D14*
%TO.P,R2,1*%
%TO.N,+5V*%
X93231000Y-72667500D03*
%TO.P,R2,2*%
%TO.N,Net-(D2-A)*%
X93231000Y-70842500D03*
%TD*%
D10*
%TO.P,R5,1*%
%TO.N,+5V*%
X76467000Y-85574500D03*
%TO.P,R5,2*%
%TO.N,Net-(D5-A)*%
X76467000Y-87399500D03*
%TD*%
%TO.P,R4,1*%
%TO.N,+5V*%
X72403000Y-79478500D03*
%TO.P,R4,2*%
%TO.N,Net-(D4-A)*%
X72403000Y-81303500D03*
%TD*%
D12*
%TO.P,Q4,1,G*%
%TO.N,400nm*%
X97216500Y-83627000D03*
%TO.P,Q4,2,S*%
%TO.N,GND*%
X97216500Y-81727000D03*
%TO.P,Q4,3,D*%
%TO.N,Net-(D7-K)*%
X95341500Y-82677000D03*
%TD*%
D15*
%TO.P,Q3,1,G*%
%TO.N,465nm*%
X79593500Y-89855000D03*
%TO.P,Q3,2,S*%
%TO.N,GND*%
X79593500Y-91755000D03*
%TO.P,Q3,3,D*%
%TO.N,Net-(D5-K)*%
X81468500Y-90805000D03*
%TD*%
D16*
%TO.P,Q2,1,G*%
%TO.N,522nm*%
X74181000Y-74373500D03*
%TO.P,Q2,2,S*%
%TO.N,GND*%
X72281000Y-74373500D03*
%TO.P,Q2,3,D*%
%TO.N,Net-(D3-K)*%
X73231000Y-76248500D03*
%TD*%
D10*
%TO.P,R6,1*%
%TO.N,+5V*%
X88151000Y-87249000D03*
%TO.P,R6,2*%
%TO.N,Net-(D6-A)*%
X88151000Y-89074000D03*
%TD*%
D17*
%TO.P,Conn1,1*%
%TO.N,530nm*%
X76835000Y-64135000D03*
%TO.P,Conn1,2*%
%TO.N,522nm*%
X79375000Y-64135000D03*
%TO.P,Conn1,3*%
%TO.N,465nm*%
X81915000Y-64135000D03*
%TO.P,Conn1,4*%
%TO.N,400nm*%
X84455000Y-64135000D03*
%TO.P,Conn1,5*%
%TO.N,+5V*%
X86995000Y-64135000D03*
%TO.P,Conn1,6*%
%TO.N,GND*%
X89535000Y-64135000D03*
%TO.P,Conn1,7*%
X92075000Y-64135000D03*
%TD*%
D11*
%TO.P,R3,1*%
%TO.N,+5V*%
X78141500Y-72009000D03*
%TO.P,R3,2*%
%TO.N,Net-(D3-A)*%
X76316500Y-72009000D03*
%TD*%
D18*
%TO.P,R7,1*%
%TO.N,+5V*%
X95377000Y-87503000D03*
%TO.P,R7,2*%
%TO.N,Net-(D7-A)*%
X90577000Y-87503000D03*
%TD*%
D10*
%TO.P,R10,1*%
%TO.N,522nm*%
X66040000Y-76811500D03*
%TO.P,R10,2*%
%TO.N,GND*%
X66040000Y-78636500D03*
%TD*%
D19*
%TO.P,D1,1,K*%
%TO.N,Net-(D1-K)*%
X84595000Y-72771000D03*
D20*
%TO.P,D1,2,A*%
%TO.N,Net-(D1-A)*%
X84595000Y-70231000D03*
%TD*%
D19*
%TO.P,D5,1,K*%
%TO.N,Net-(D5-K)*%
X79769000Y-84709000D03*
D20*
%TO.P,D5,2,A*%
%TO.N,Net-(D5-A)*%
X79769000Y-87249000D03*
%TD*%
D19*
%TO.P,D2,1,K*%
%TO.N,Net-(D1-K)*%
X89675000Y-74041000D03*
D20*
%TO.P,D2,2,A*%
%TO.N,Net-(D2-A)*%
X89675000Y-71501000D03*
%TD*%
D19*
%TO.P,D3,1,K*%
%TO.N,Net-(D3-K)*%
X79515000Y-75057000D03*
D20*
%TO.P,D3,2,A*%
%TO.N,Net-(D3-A)*%
X76975000Y-75057000D03*
%TD*%
D19*
%TO.P,D6,1,K*%
%TO.N,Net-(D5-K)*%
X84849000Y-86065000D03*
D20*
%TO.P,D6,2,A*%
%TO.N,Net-(D6-A)*%
X84849000Y-88605000D03*
%TD*%
D19*
%TO.P,D4,1,K*%
%TO.N,Net-(D3-K)*%
X77483000Y-79883000D03*
D20*
%TO.P,D4,2,A*%
%TO.N,Net-(D4-A)*%
X74943000Y-79883000D03*
%TD*%
D21*
%TO.N,400nm*%
X82133500Y-75438000D03*
%TO.N,530nm*%
X80454500Y-72834500D03*
%TO.N,465nm*%
X81407000Y-76454000D03*
%TO.N,GND*%
X66040000Y-74930000D03*
X98806000Y-81727000D03*
X66040000Y-90273500D03*
X66040000Y-85090000D03*
X77991000Y-91755000D03*
X95009000Y-73533000D03*
X66040000Y-80010000D03*
X72263000Y-72898000D03*
%TO.N,Net-(D7-K)*%
X93739000Y-81153000D03*
X93739000Y-82677000D03*
%TO.N,522nm*%
X77851000Y-69088000D03*
%TO.N,Net-(D7-A)*%
X89167000Y-86233000D03*
%TO.N,Net-(D8-A)*%
X95517000Y-78613000D03*
%TD*%
D22*
%TO.N,522nm*%
X66842000Y-76009500D02*
X66040000Y-76811500D01*
X66842000Y-72350000D02*
X66842000Y-76009500D01*
X69545000Y-69647000D02*
X66842000Y-72350000D01*
%TO.N,400nm*%
X85209948Y-75438000D02*
X82133500Y-75438000D01*
X87622948Y-77851000D02*
X85209948Y-75438000D01*
X87630000Y-77851000D02*
X87622948Y-77851000D01*
%TO.N,465nm*%
X75517000Y-89855000D02*
X79593500Y-89855000D01*
X74689000Y-89027000D02*
X75517000Y-89855000D01*
X74689000Y-83185000D02*
X74689000Y-89027000D01*
X76213000Y-81661000D02*
X74689000Y-83185000D01*
X78599000Y-81661000D02*
X76213000Y-81661000D01*
X79261000Y-80999000D02*
X78599000Y-81661000D01*
X79261000Y-78600000D02*
X79261000Y-80999000D01*
X81407000Y-76454000D02*
X79261000Y-78600000D01*
%TO.N,530nm*%
X82296000Y-74676000D02*
X85090000Y-74676000D01*
X87117000Y-76703000D02*
X95009000Y-76703000D01*
X80454500Y-72834500D02*
X82296000Y-74676000D01*
X85090000Y-74676000D02*
X87117000Y-76703000D01*
%TO.N,522nm*%
X74181000Y-72758000D02*
X74181000Y-74373500D01*
X77851000Y-69088000D02*
X74181000Y-72758000D01*
%TO.N,400nm*%
X93406000Y-83627000D02*
X87630000Y-77851000D01*
X97216500Y-83627000D02*
X93406000Y-83627000D01*
D23*
%TO.N,GND*%
X98806000Y-81727000D02*
X97216500Y-81727000D01*
X72263000Y-72898000D02*
X72281000Y-72916000D01*
X72281000Y-72916000D02*
X72281000Y-74373500D01*
D22*
%TO.N,400nm*%
X67750000Y-85365000D02*
X66040000Y-87075000D01*
X67750000Y-72726104D02*
X67750000Y-85365000D01*
X82042000Y-66548000D02*
X73928104Y-66548000D01*
X84455000Y-64135000D02*
X82042000Y-66548000D01*
X73928104Y-66548000D02*
X67750000Y-72726104D01*
%TO.N,465nm*%
X67296000Y-80635500D02*
X66040000Y-81891500D01*
X67296000Y-72538052D02*
X67296000Y-80635500D01*
X80010000Y-66040000D02*
X73794052Y-66040000D01*
X73794052Y-66040000D02*
X67296000Y-72538052D01*
X81915000Y-64135000D02*
X80010000Y-66040000D01*
%TO.N,522nm*%
X69596000Y-69596000D02*
X73660000Y-65532000D01*
X69545000Y-69647000D02*
X69596000Y-69596000D01*
%TO.N,530nm*%
X66698500Y-71731500D02*
X66040000Y-71731500D01*
X73406000Y-65024000D02*
X66698500Y-71731500D01*
X75946000Y-65024000D02*
X73406000Y-65024000D01*
X76835000Y-64135000D02*
X75946000Y-65024000D01*
%TO.N,522nm*%
X73660000Y-65532000D02*
X77978000Y-65532000D01*
X77978000Y-65532000D02*
X79375000Y-64135000D01*
%TO.N,Net-(D3-K)*%
X77483000Y-78359000D02*
X77483000Y-79883000D01*
X75959000Y-76835000D02*
X77229000Y-76835000D01*
X73817500Y-76835000D02*
X75959000Y-76835000D01*
X75959000Y-76835000D02*
X77483000Y-78359000D01*
X77737000Y-76835000D02*
X77229000Y-76835000D01*
X79515000Y-75057000D02*
X77737000Y-76835000D01*
X73231000Y-76248500D02*
X73817500Y-76835000D01*
%TO.N,Net-(D7-K)*%
X93739000Y-82677000D02*
X95341500Y-82677000D01*
D23*
%TO.N,GND*%
X77991000Y-91755000D02*
X79593500Y-91755000D01*
X95009000Y-73533000D02*
X95009000Y-74803000D01*
D22*
%TO.N,Net-(D1-A)*%
X84595000Y-70231000D02*
X86119000Y-68707000D01*
X86119000Y-68707000D02*
X87897000Y-68707000D01*
D23*
%TO.N,GND*%
X66040000Y-78636500D02*
X66040000Y-80010000D01*
X66040000Y-88900000D02*
X66040000Y-90273500D01*
X66040000Y-83716500D02*
X66040000Y-85090000D01*
X66040000Y-73556500D02*
X66040000Y-74930000D01*
D22*
%TO.N,Net-(D1-K)*%
X93134000Y-75753000D02*
X87196000Y-75753000D01*
X91422000Y-74041000D02*
X89675000Y-74041000D01*
X84595000Y-73152000D02*
X84595000Y-72771000D01*
X87196000Y-75753000D02*
X84595000Y-73152000D01*
X93134000Y-75753000D02*
X91422000Y-74041000D01*
%TO.N,Net-(D3-A)*%
X76975000Y-72667500D02*
X76316500Y-72009000D01*
X76975000Y-75057000D02*
X76975000Y-72667500D01*
%TO.N,Net-(D5-K)*%
X81468500Y-89445500D02*
X81468500Y-90805000D01*
X81468500Y-90805000D02*
X81468500Y-86408500D01*
X81468500Y-86408500D02*
X79769000Y-84709000D01*
X84849000Y-86065000D02*
X81468500Y-89445500D01*
%TO.N,Net-(D4-A)*%
X72403000Y-81303500D02*
X73522500Y-81303500D01*
X73522500Y-81303500D02*
X74943000Y-79883000D01*
%TO.N,Net-(D7-K)*%
X95341500Y-82677000D02*
X95263000Y-82677000D01*
X93739000Y-81153000D02*
X93767000Y-81181000D01*
X95263000Y-82677000D02*
X93739000Y-81153000D01*
%TO.N,Net-(D5-A)*%
X76467000Y-87399500D02*
X76617500Y-87249000D01*
X76617500Y-87249000D02*
X79769000Y-87249000D01*
%TO.N,Net-(D2-A)*%
X93231000Y-70842500D02*
X92572500Y-71501000D01*
X92572500Y-71501000D02*
X89675000Y-71501000D01*
%TO.N,Net-(D6-A)*%
X84849000Y-88605000D02*
X87682000Y-88605000D01*
X87682000Y-88605000D02*
X88151000Y-89074000D01*
D23*
%TO.N,Net-(D7-A)*%
X90437000Y-87503000D02*
X89167000Y-86233000D01*
X90577000Y-87503000D02*
X90437000Y-87503000D01*
%TO.N,Net-(D8-A)*%
X97803000Y-79489000D02*
X96393000Y-79489000D01*
X96393000Y-79489000D02*
X95517000Y-78613000D01*
%TD*%
%TA.AperFunction,Conductor*%
%TO.N,+5V*%
G36*
X99262238Y-59456185D02*
G01*
X99307993Y-59508989D01*
X99317937Y-59578147D01*
X99288912Y-59641703D01*
X99230134Y-59679477D01*
X99225797Y-59680666D01*
X99157272Y-59698114D01*
X98784549Y-59833774D01*
X98427191Y-60005869D01*
X98088753Y-60212684D01*
X98088742Y-60212692D01*
X97772575Y-60452180D01*
X97772572Y-60452182D01*
X97481813Y-60721968D01*
X97219365Y-61019359D01*
X96987839Y-61341393D01*
X96987826Y-61341413D01*
X96789516Y-61684896D01*
X96626382Y-62046437D01*
X96500059Y-62422419D01*
X96411799Y-62809111D01*
X96362478Y-63202681D01*
X96352590Y-63599173D01*
X96352590Y-63599187D01*
X96382230Y-63994711D01*
X96382231Y-63994724D01*
X96451108Y-64385339D01*
X96558530Y-64767137D01*
X96558534Y-64767151D01*
X96703435Y-65136353D01*
X96703440Y-65136365D01*
X96884386Y-65489314D01*
X96884397Y-65489333D01*
X96942870Y-65579867D01*
X97099586Y-65822509D01*
X97225691Y-65980640D01*
X97346895Y-66132625D01*
X97623823Y-66416544D01*
X97623833Y-66416554D01*
X97927676Y-66671508D01*
X98255394Y-66894942D01*
X98603730Y-67084636D01*
X98969223Y-67238704D01*
X98969232Y-67238706D01*
X98969238Y-67238709D01*
X99348235Y-67355614D01*
X99348248Y-67355617D01*
X99657575Y-67418149D01*
X99737014Y-67434208D01*
X100075300Y-67468058D01*
X100131680Y-67473700D01*
X100131681Y-67473700D01*
X100429103Y-67473700D01*
X100627130Y-67463816D01*
X100726145Y-67458875D01*
X101118353Y-67399759D01*
X101502726Y-67301886D01*
X101875445Y-67166228D01*
X102232803Y-66994133D01*
X102274395Y-66968717D01*
X102571246Y-66787315D01*
X102571245Y-66787315D01*
X102571251Y-66787312D01*
X102887424Y-66547820D01*
X103178181Y-66278037D01*
X103440631Y-65980645D01*
X103672166Y-65658600D01*
X103870485Y-65315101D01*
X104033617Y-64953563D01*
X104151957Y-64601340D01*
X104191968Y-64544061D01*
X104256594Y-64517506D01*
X104325318Y-64530107D01*
X104376321Y-64577862D01*
X104393500Y-64640833D01*
X104393500Y-94122243D01*
X104373815Y-94189282D01*
X104321011Y-94235037D01*
X104251853Y-94244981D01*
X104188297Y-94215956D01*
X104150523Y-94157178D01*
X104150135Y-94155827D01*
X104101469Y-93982862D01*
X104101465Y-93982848D01*
X103956564Y-93613646D01*
X103956559Y-93613634D01*
X103775613Y-93260685D01*
X103775609Y-93260677D01*
X103560414Y-92927491D01*
X103313114Y-92617386D01*
X103313111Y-92617383D01*
X103313104Y-92617374D01*
X103036176Y-92333455D01*
X103036173Y-92333452D01*
X103036172Y-92333451D01*
X103036167Y-92333446D01*
X102732324Y-92078492D01*
X102574213Y-91970694D01*
X102404605Y-91855057D01*
X102288494Y-91791826D01*
X102056270Y-91665364D01*
X102056262Y-91665360D01*
X102056259Y-91665359D01*
X101690777Y-91511296D01*
X101690761Y-91511290D01*
X101311764Y-91394385D01*
X101311751Y-91394382D01*
X100923000Y-91315794D01*
X100922979Y-91315791D01*
X100528320Y-91276300D01*
X100528319Y-91276300D01*
X100230899Y-91276300D01*
X100230897Y-91276300D01*
X99933855Y-91291124D01*
X99541647Y-91350241D01*
X99157272Y-91448114D01*
X98784549Y-91583774D01*
X98427191Y-91755869D01*
X98088753Y-91962684D01*
X98088742Y-91962692D01*
X97772575Y-92202180D01*
X97772572Y-92202182D01*
X97481813Y-92471968D01*
X97219365Y-92769359D01*
X96987839Y-93091393D01*
X96987826Y-93091413D01*
X96789516Y-93434896D01*
X96626382Y-93796437D01*
X96500059Y-94172419D01*
X96411799Y-94559111D01*
X96362478Y-94952681D01*
X96352590Y-95349173D01*
X96352590Y-95349187D01*
X96382230Y-95744711D01*
X96382231Y-95744724D01*
X96451108Y-96135339D01*
X96558530Y-96517137D01*
X96558534Y-96517151D01*
X96703435Y-96886353D01*
X96703440Y-96886365D01*
X96884386Y-97239314D01*
X96884391Y-97239323D01*
X97099586Y-97572509D01*
X97346886Y-97882614D01*
X97346895Y-97882625D01*
X97623823Y-98166544D01*
X97623833Y-98166554D01*
X97927676Y-98421508D01*
X98255394Y-98644942D01*
X98603730Y-98834636D01*
X98969223Y-98988704D01*
X98969232Y-98988706D01*
X98969238Y-98988709D01*
X99236048Y-99071009D01*
X99294307Y-99109579D01*
X99322464Y-99173524D01*
X99311581Y-99242541D01*
X99265113Y-99294717D01*
X99199498Y-99313500D01*
X69714801Y-99313500D01*
X69647762Y-99293815D01*
X69602007Y-99241011D01*
X69592063Y-99171853D01*
X69621088Y-99108297D01*
X69679866Y-99070523D01*
X69684203Y-99069334D01*
X69752726Y-99051886D01*
X70125445Y-98916228D01*
X70482803Y-98744133D01*
X70821251Y-98537312D01*
X71137424Y-98297820D01*
X71428181Y-98028037D01*
X71690631Y-97730645D01*
X71922166Y-97408600D01*
X72120485Y-97065101D01*
X72283617Y-96703563D01*
X72409941Y-96327578D01*
X72498201Y-95940885D01*
X72547521Y-95547325D01*
X72552462Y-95349173D01*
X72557409Y-95150826D01*
X72557409Y-95150810D01*
X72557409Y-95150809D01*
X72527769Y-94755280D01*
X72458893Y-94364668D01*
X72422420Y-94235037D01*
X72351469Y-93982862D01*
X72351465Y-93982848D01*
X72206564Y-93613646D01*
X72206559Y-93613634D01*
X72025613Y-93260685D01*
X72025609Y-93260677D01*
X71810414Y-92927491D01*
X71563114Y-92617386D01*
X71563111Y-92617383D01*
X71563104Y-92617374D01*
X71286176Y-92333455D01*
X71286173Y-92333452D01*
X71286172Y-92333451D01*
X71286167Y-92333446D01*
X70982324Y-92078492D01*
X70824213Y-91970694D01*
X70654605Y-91855057D01*
X70538494Y-91791826D01*
X70306270Y-91665364D01*
X70306262Y-91665360D01*
X70306259Y-91665359D01*
X69940777Y-91511296D01*
X69940761Y-91511290D01*
X69561764Y-91394385D01*
X69561751Y-91394382D01*
X69173000Y-91315794D01*
X69172979Y-91315791D01*
X68778320Y-91276300D01*
X68778319Y-91276300D01*
X68480899Y-91276300D01*
X68480897Y-91276300D01*
X68183855Y-91291124D01*
X67791647Y-91350241D01*
X67407272Y-91448114D01*
X67034549Y-91583774D01*
X66677191Y-91755869D01*
X66338753Y-91962684D01*
X66338742Y-91962692D01*
X66022575Y-92202180D01*
X66022572Y-92202182D01*
X65731813Y-92471968D01*
X65469365Y-92769359D01*
X65237839Y-93091393D01*
X65237826Y-93091413D01*
X65039516Y-93434896D01*
X64876382Y-93796437D01*
X64758043Y-94148658D01*
X64718032Y-94205938D01*
X64653406Y-94232493D01*
X64584682Y-94219892D01*
X64533679Y-94172137D01*
X64516500Y-94109166D01*
X64516500Y-79380681D01*
X64516499Y-64627752D01*
X64536184Y-64560717D01*
X64588988Y-64514962D01*
X64658146Y-64505018D01*
X64721702Y-64534043D01*
X64759476Y-64592821D01*
X64759864Y-64594171D01*
X64808531Y-64767142D01*
X64808534Y-64767151D01*
X64953435Y-65136353D01*
X64953440Y-65136365D01*
X65134386Y-65489314D01*
X65134397Y-65489333D01*
X65192870Y-65579867D01*
X65349586Y-65822509D01*
X65475691Y-65980640D01*
X65596895Y-66132625D01*
X65873823Y-66416544D01*
X65873833Y-66416554D01*
X66177676Y-66671508D01*
X66505394Y-66894942D01*
X66853730Y-67084636D01*
X67219223Y-67238704D01*
X67219232Y-67238706D01*
X67219238Y-67238709D01*
X67598235Y-67355614D01*
X67598248Y-67355617D01*
X67907575Y-67418149D01*
X67987014Y-67434208D01*
X68325299Y-67468058D01*
X68381680Y-67473700D01*
X68381681Y-67473700D01*
X68679103Y-67473700D01*
X68877130Y-67463816D01*
X68976145Y-67458875D01*
X69368353Y-67399759D01*
X69752726Y-67301886D01*
X69994340Y-67213945D01*
X70064067Y-67209515D01*
X70125123Y-67243485D01*
X70158120Y-67305072D01*
X70152583Y-67374722D01*
X70124430Y-67418149D01*
X66749273Y-70793306D01*
X66687950Y-70826791D01*
X66618258Y-70821807D01*
X66596498Y-70811165D01*
X66591516Y-70808092D01*
X66427753Y-70753826D01*
X66427751Y-70753825D01*
X66326678Y-70743500D01*
X65753330Y-70743500D01*
X65753312Y-70743501D01*
X65652247Y-70753825D01*
X65488484Y-70808092D01*
X65488481Y-70808093D01*
X65341648Y-70898661D01*
X65219661Y-71020648D01*
X65129093Y-71167481D01*
X65129091Y-71167486D01*
X65104151Y-71242751D01*
X65074826Y-71331247D01*
X65074826Y-71331248D01*
X65074825Y-71331248D01*
X65064500Y-71432315D01*
X65064500Y-72030669D01*
X65064501Y-72030687D01*
X65074825Y-72131752D01*
X65099114Y-72205049D01*
X65120855Y-72270660D01*
X65129092Y-72295515D01*
X65129093Y-72295518D01*
X65133267Y-72302285D01*
X65215769Y-72436042D01*
X65219661Y-72442351D01*
X65333629Y-72556319D01*
X65367114Y-72617642D01*
X65362130Y-72687334D01*
X65333629Y-72731681D01*
X65219661Y-72845648D01*
X65129093Y-72992481D01*
X65129091Y-72992486D01*
X65119061Y-73022756D01*
X65074826Y-73156247D01*
X65074826Y-73156248D01*
X65074825Y-73156248D01*
X65064500Y-73257315D01*
X65064500Y-73855669D01*
X65064501Y-73855687D01*
X65074825Y-73956752D01*
X65129092Y-74120515D01*
X65129093Y-74120518D01*
X65219661Y-74267351D01*
X65255789Y-74303479D01*
X65289274Y-74364802D01*
X65284290Y-74434494D01*
X65275496Y-74453159D01*
X65212820Y-74561718D01*
X65212818Y-74561722D01*
X65154327Y-74741740D01*
X65154326Y-74741744D01*
X65134540Y-74930000D01*
X65154326Y-75118256D01*
X65154327Y-75118259D01*
X65212818Y-75298277D01*
X65212821Y-75298284D01*
X65307467Y-75462216D01*
X65423507Y-75591091D01*
X65434129Y-75602888D01*
X65525269Y-75669105D01*
X65567935Y-75724435D01*
X65573914Y-75794048D01*
X65541308Y-75855843D01*
X65494958Y-75884895D01*
X65495027Y-75885042D01*
X65493844Y-75885593D01*
X65491401Y-75887125D01*
X65488490Y-75888089D01*
X65488481Y-75888093D01*
X65341648Y-75978661D01*
X65219661Y-76100648D01*
X65129093Y-76247481D01*
X65129091Y-76247484D01*
X65129092Y-76247484D01*
X65074826Y-76411247D01*
X65074826Y-76411248D01*
X65074825Y-76411248D01*
X65064500Y-76512315D01*
X65064500Y-77110669D01*
X65064501Y-77110687D01*
X65074825Y-77211752D01*
X65089394Y-77255717D01*
X65127622Y-77371081D01*
X65129092Y-77375515D01*
X65129093Y-77375518D01*
X65144392Y-77400322D01*
X65208033Y-77503500D01*
X65219661Y-77522351D01*
X65333629Y-77636319D01*
X65367114Y-77697642D01*
X65362130Y-77767334D01*
X65333629Y-77811681D01*
X65219661Y-77925648D01*
X65129093Y-78072481D01*
X65129091Y-78072486D01*
X65117553Y-78107305D01*
X65074826Y-78236247D01*
X65074826Y-78236248D01*
X65074825Y-78236248D01*
X65064500Y-78337315D01*
X65064500Y-78935669D01*
X65064501Y-78935687D01*
X65074825Y-79036752D01*
X65129092Y-79200515D01*
X65129093Y-79200518D01*
X65219661Y-79347351D01*
X65255789Y-79383479D01*
X65289274Y-79444802D01*
X65284290Y-79514494D01*
X65275496Y-79533159D01*
X65212820Y-79641718D01*
X65212818Y-79641722D01*
X65154327Y-79821740D01*
X65154326Y-79821744D01*
X65134540Y-80010000D01*
X65154326Y-80198256D01*
X65154327Y-80198259D01*
X65212818Y-80378277D01*
X65212821Y-80378284D01*
X65307467Y-80542216D01*
X65402309Y-80647548D01*
X65434129Y-80682888D01*
X65525269Y-80749105D01*
X65567935Y-80804435D01*
X65573914Y-80874048D01*
X65541308Y-80935843D01*
X65494958Y-80964895D01*
X65495027Y-80965042D01*
X65493844Y-80965593D01*
X65491401Y-80967125D01*
X65488490Y-80968089D01*
X65488481Y-80968093D01*
X65341648Y-81058661D01*
X65219661Y-81180648D01*
X65129093Y-81327481D01*
X65129091Y-81327486D01*
X65114750Y-81370766D01*
X65074826Y-81491247D01*
X65074826Y-81491248D01*
X65074825Y-81491248D01*
X65064500Y-81592315D01*
X65064500Y-82190669D01*
X65064501Y-82190687D01*
X65074825Y-82291752D01*
X65085783Y-82324819D01*
X65129092Y-82455516D01*
X65210896Y-82588142D01*
X65219661Y-82602351D01*
X65333629Y-82716319D01*
X65367114Y-82777642D01*
X65362130Y-82847334D01*
X65333629Y-82891681D01*
X65219661Y-83005648D01*
X65129093Y-83152481D01*
X65129091Y-83152486D01*
X65109477Y-83211677D01*
X65074826Y-83316247D01*
X65074826Y-83316248D01*
X65074825Y-83316248D01*
X65064500Y-83417315D01*
X65064500Y-84015669D01*
X65064501Y-84015687D01*
X65074825Y-84116752D01*
X65129092Y-84280515D01*
X65129093Y-84280518D01*
X65219661Y-84427351D01*
X65255789Y-84463479D01*
X65289274Y-84524802D01*
X65284290Y-84594494D01*
X65275496Y-84613159D01*
X65212820Y-84721718D01*
X65212818Y-84721722D01*
X65154327Y-84901740D01*
X65154326Y-84901744D01*
X65134540Y-85090000D01*
X65154326Y-85278256D01*
X65154327Y-85278259D01*
X65212818Y-85458277D01*
X65212821Y-85458284D01*
X65307467Y-85622216D01*
X65416388Y-85743185D01*
X65434129Y-85762888D01*
X65587265Y-85874148D01*
X65587267Y-85874149D01*
X65587270Y-85874151D01*
X65609816Y-85884189D01*
X65663052Y-85929439D01*
X65683374Y-85996288D01*
X65664329Y-86063511D01*
X65611963Y-86109767D01*
X65598385Y-86115174D01*
X65488484Y-86151592D01*
X65488481Y-86151593D01*
X65341648Y-86242161D01*
X65219661Y-86364148D01*
X65129093Y-86510981D01*
X65129091Y-86510986D01*
X65117836Y-86544951D01*
X65074826Y-86674747D01*
X65074826Y-86674748D01*
X65074825Y-86674748D01*
X65064500Y-86775815D01*
X65064500Y-87374169D01*
X65064501Y-87374187D01*
X65074825Y-87475252D01*
X65097124Y-87542544D01*
X65129092Y-87639016D01*
X65219660Y-87785850D01*
X65333631Y-87899821D01*
X65367114Y-87961140D01*
X65362130Y-88030832D01*
X65333630Y-88075180D01*
X65219659Y-88189151D01*
X65129093Y-88335981D01*
X65129091Y-88335986D01*
X65112021Y-88387500D01*
X65074826Y-88499747D01*
X65074826Y-88499748D01*
X65074825Y-88499748D01*
X65064500Y-88600815D01*
X65064500Y-89199169D01*
X65064501Y-89199187D01*
X65074825Y-89300252D01*
X65097782Y-89369529D01*
X65127750Y-89459967D01*
X65129092Y-89464015D01*
X65129093Y-89464018D01*
X65135406Y-89474253D01*
X65188575Y-89560454D01*
X65219661Y-89610851D01*
X65255789Y-89646979D01*
X65289274Y-89708302D01*
X65284290Y-89777994D01*
X65275496Y-89796659D01*
X65234569Y-89867547D01*
X65218072Y-89896122D01*
X65212820Y-89905218D01*
X65212818Y-89905222D01*
X65161878Y-90062000D01*
X65154326Y-90085244D01*
X65134540Y-90273500D01*
X65154326Y-90461756D01*
X65154327Y-90461759D01*
X65212818Y-90641777D01*
X65212821Y-90641784D01*
X65307467Y-90805716D01*
X65386828Y-90893855D01*
X65434129Y-90946388D01*
X65587265Y-91057648D01*
X65587270Y-91057651D01*
X65760192Y-91134642D01*
X65760197Y-91134644D01*
X65945354Y-91174000D01*
X65945355Y-91174000D01*
X66134644Y-91174000D01*
X66134646Y-91174000D01*
X66319803Y-91134644D01*
X66492730Y-91057651D01*
X66645871Y-90946388D01*
X66772533Y-90805716D01*
X66867179Y-90641784D01*
X66925674Y-90461756D01*
X66945460Y-90273500D01*
X66925674Y-90085244D01*
X66867179Y-89905216D01*
X66804503Y-89796659D01*
X66788031Y-89728760D01*
X66810884Y-89662733D01*
X66824208Y-89646981D01*
X66860340Y-89610850D01*
X66950908Y-89464016D01*
X67005174Y-89300253D01*
X67015500Y-89199177D01*
X67015499Y-88600824D01*
X67011744Y-88564069D01*
X67005174Y-88499747D01*
X66993502Y-88464524D01*
X66950908Y-88335984D01*
X66860340Y-88189150D01*
X66746370Y-88075180D01*
X66712886Y-88013858D01*
X66717870Y-87944166D01*
X66746371Y-87899819D01*
X66779159Y-87867031D01*
X66860340Y-87785850D01*
X66950908Y-87639016D01*
X67005174Y-87475253D01*
X67015500Y-87374177D01*
X67015499Y-87038279D01*
X67035183Y-86971241D01*
X67051813Y-86950604D01*
X68135043Y-85867374D01*
X68147325Y-85857537D01*
X68147144Y-85857318D01*
X68153152Y-85852346D01*
X68153162Y-85852340D01*
X68200677Y-85801741D01*
X68221623Y-85780796D01*
X68225892Y-85775290D01*
X68229676Y-85770859D01*
X68261693Y-85736767D01*
X68271389Y-85719128D01*
X68282073Y-85702861D01*
X68294408Y-85686962D01*
X68312978Y-85644046D01*
X68315534Y-85638827D01*
X68338072Y-85597834D01*
X68343081Y-85578322D01*
X68349378Y-85559932D01*
X68357373Y-85541459D01*
X68364689Y-85495257D01*
X68365864Y-85489583D01*
X68377500Y-85444272D01*
X68377500Y-85424140D01*
X68379027Y-85404741D01*
X68381248Y-85390717D01*
X68382175Y-85384867D01*
X68377775Y-85338321D01*
X68377500Y-85332483D01*
X68377500Y-73037385D01*
X68397185Y-72970346D01*
X68413819Y-72949704D01*
X68465523Y-72898000D01*
X71357540Y-72898000D01*
X71377326Y-73086256D01*
X71377327Y-73086259D01*
X71435818Y-73266277D01*
X71435821Y-73266284D01*
X71522185Y-73415871D01*
X71538658Y-73483771D01*
X71530738Y-73517909D01*
X71531432Y-73518111D01*
X71483402Y-73683426D01*
X71483401Y-73683432D01*
X71480500Y-73720304D01*
X71480500Y-75026696D01*
X71483401Y-75063567D01*
X71483402Y-75063573D01*
X71529254Y-75221393D01*
X71529255Y-75221396D01*
X71612917Y-75362862D01*
X71612923Y-75362870D01*
X71729129Y-75479076D01*
X71729133Y-75479079D01*
X71729135Y-75479081D01*
X71870602Y-75562744D01*
X71912224Y-75574836D01*
X72028426Y-75608597D01*
X72028429Y-75608597D01*
X72028431Y-75608598D01*
X72040722Y-75609565D01*
X72065304Y-75611500D01*
X72065306Y-75611500D01*
X72306500Y-75611500D01*
X72373539Y-75631185D01*
X72419294Y-75683989D01*
X72430500Y-75735500D01*
X72430500Y-76901696D01*
X72433401Y-76938567D01*
X72433402Y-76938573D01*
X72479254Y-77096393D01*
X72479255Y-77096396D01*
X72479256Y-77096398D01*
X72489307Y-77113393D01*
X72562917Y-77237862D01*
X72562923Y-77237870D01*
X72679129Y-77354076D01*
X72679133Y-77354079D01*
X72679135Y-77354081D01*
X72820602Y-77437744D01*
X72857655Y-77448509D01*
X72978426Y-77483597D01*
X72978429Y-77483597D01*
X72978431Y-77483598D01*
X72990722Y-77484565D01*
X73015304Y-77486500D01*
X73015306Y-77486500D01*
X73446696Y-77486500D01*
X73465131Y-77485049D01*
X73483569Y-77483598D01*
X73604343Y-77448508D01*
X73658329Y-77445111D01*
X73687236Y-77449689D01*
X73692914Y-77450865D01*
X73738228Y-77462500D01*
X73758364Y-77462500D01*
X73777763Y-77464027D01*
X73797633Y-77467174D01*
X73844171Y-77462774D01*
X73850008Y-77462500D01*
X75647719Y-77462500D01*
X75714758Y-77482185D01*
X75735400Y-77498819D01*
X76301148Y-78064567D01*
X76334633Y-78125890D01*
X76329649Y-78195582D01*
X76287777Y-78251515D01*
X76256800Y-78268430D01*
X76120671Y-78319202D01*
X76120664Y-78319206D01*
X76005455Y-78405452D01*
X75956136Y-78471334D01*
X75900202Y-78513204D01*
X75830510Y-78518188D01*
X75792080Y-78502749D01*
X75680966Y-78434658D01*
X75680963Y-78434656D01*
X75445318Y-78337049D01*
X75445301Y-78337044D01*
X75197289Y-78277502D01*
X74943000Y-78257489D01*
X74688710Y-78277502D01*
X74440698Y-78337044D01*
X74440681Y-78337049D01*
X74205036Y-78434656D01*
X74205033Y-78434658D01*
X73987554Y-78567930D01*
X73987545Y-78567936D01*
X73793592Y-78733587D01*
X73793587Y-78733592D01*
X73627936Y-78927545D01*
X73627930Y-78927554D01*
X73494658Y-79145033D01*
X73494656Y-79145036D01*
X73397049Y-79380681D01*
X73397044Y-79380698D01*
X73337502Y-79628710D01*
X73317489Y-79883000D01*
X73337502Y-80137289D01*
X73397046Y-80385310D01*
X73411096Y-80419229D01*
X73418565Y-80488699D01*
X73387290Y-80551178D01*
X73384216Y-80554363D01*
X73372316Y-80566263D01*
X73310993Y-80599748D01*
X73241301Y-80594764D01*
X73196954Y-80566264D01*
X73162400Y-80531710D01*
X73101350Y-80470660D01*
X72999204Y-80407656D01*
X72954518Y-80380093D01*
X72954513Y-80380091D01*
X72920584Y-80368848D01*
X72790753Y-80325826D01*
X72790751Y-80325825D01*
X72689678Y-80315500D01*
X72116330Y-80315500D01*
X72116312Y-80315501D01*
X72015247Y-80325825D01*
X71851484Y-80380092D01*
X71851481Y-80380093D01*
X71704648Y-80470661D01*
X71582661Y-80592648D01*
X71492093Y-80739481D01*
X71492091Y-80739486D01*
X71473977Y-80794151D01*
X71437826Y-80903247D01*
X71437826Y-80903248D01*
X71437825Y-80903248D01*
X71427500Y-81004315D01*
X71427500Y-81602669D01*
X71427501Y-81602687D01*
X71437825Y-81703752D01*
X71470852Y-81803419D01*
X71491310Y-81865157D01*
X71492092Y-81867515D01*
X71492093Y-81867518D01*
X71495922Y-81873725D01*
X71582660Y-82014350D01*
X71704650Y-82136340D01*
X71851484Y-82226908D01*
X72015247Y-82281174D01*
X72116323Y-82291500D01*
X72689676Y-82291499D01*
X72689684Y-82291498D01*
X72689687Y-82291498D01*
X72746455Y-82285699D01*
X72790753Y-82281174D01*
X72954516Y-82226908D01*
X73101350Y-82136340D01*
X73223340Y-82014350D01*
X73238417Y-81989905D01*
X73290365Y-81943179D01*
X73343957Y-81931000D01*
X73439533Y-81931000D01*
X73455181Y-81932727D01*
X73455208Y-81932446D01*
X73462975Y-81933180D01*
X73462976Y-81933179D01*
X73462977Y-81933180D01*
X73532360Y-81931000D01*
X73561976Y-81931000D01*
X73568878Y-81930127D01*
X73574690Y-81929669D01*
X73621443Y-81928201D01*
X73640772Y-81922584D01*
X73659828Y-81918637D01*
X73679793Y-81916116D01*
X73723270Y-81898901D01*
X73728776Y-81897016D01*
X73773691Y-81883968D01*
X73791015Y-81873721D01*
X73808483Y-81865163D01*
X73827203Y-81857753D01*
X73865042Y-81830259D01*
X73869891Y-81827074D01*
X73910156Y-81803263D01*
X73924397Y-81789020D01*
X73939178Y-81776397D01*
X73955467Y-81764563D01*
X73955469Y-81764559D01*
X73955471Y-81764559D01*
X73967345Y-81750203D01*
X73985276Y-81728528D01*
X73989189Y-81724228D01*
X74271637Y-81441780D01*
X74332958Y-81408297D01*
X74402650Y-81413281D01*
X74406708Y-81414877D01*
X74440689Y-81428953D01*
X74688714Y-81488498D01*
X74943000Y-81508511D01*
X75188700Y-81489173D01*
X75257074Y-81503537D01*
X75306831Y-81552588D01*
X75322170Y-81620753D01*
X75298221Y-81686390D01*
X75286107Y-81700472D01*
X74303953Y-82682626D01*
X74291669Y-82692469D01*
X74291849Y-82692687D01*
X74285838Y-82697659D01*
X74238322Y-82748258D01*
X74217375Y-82769205D01*
X74213106Y-82774709D01*
X74209315Y-82779147D01*
X74177308Y-82813230D01*
X74177305Y-82813234D01*
X74167606Y-82830877D01*
X74156928Y-82847133D01*
X74144594Y-82863034D01*
X74144589Y-82863042D01*
X74126025Y-82905943D01*
X74123454Y-82911191D01*
X74100927Y-82952167D01*
X74095920Y-82971668D01*
X74089621Y-82990064D01*
X74088161Y-82993440D01*
X74081625Y-83008544D01*
X74081624Y-83008546D01*
X74074312Y-83054716D01*
X74073127Y-83060438D01*
X74061500Y-83105723D01*
X74061500Y-83125858D01*
X74059973Y-83145257D01*
X74056825Y-83165131D01*
X74061225Y-83211677D01*
X74061500Y-83217515D01*
X74061500Y-88944032D01*
X74059772Y-88959681D01*
X74060054Y-88959708D01*
X74059319Y-88967475D01*
X74061500Y-89036859D01*
X74061500Y-89066477D01*
X74062371Y-89073380D01*
X74062829Y-89079199D01*
X74064298Y-89125942D01*
X74069916Y-89145275D01*
X74073862Y-89164329D01*
X74076383Y-89184287D01*
X74076386Y-89184299D01*
X74093595Y-89227765D01*
X74095487Y-89233293D01*
X74108530Y-89278187D01*
X74108530Y-89278188D01*
X74118777Y-89295515D01*
X74127335Y-89312985D01*
X74134745Y-89331701D01*
X74162229Y-89369529D01*
X74165437Y-89374413D01*
X74189234Y-89414652D01*
X74189240Y-89414660D01*
X74203469Y-89428888D01*
X74216106Y-89443684D01*
X74219778Y-89448738D01*
X74227934Y-89459964D01*
X74227936Y-89459965D01*
X74227937Y-89459967D01*
X74245205Y-89474252D01*
X74263957Y-89489765D01*
X74268268Y-89493687D01*
X74670703Y-89896122D01*
X75014624Y-90240043D01*
X75024471Y-90252333D01*
X75024689Y-90252154D01*
X75029657Y-90258160D01*
X75080257Y-90305677D01*
X75101201Y-90326620D01*
X75101207Y-90326626D01*
X75106697Y-90330883D01*
X75111148Y-90334684D01*
X75145235Y-90366695D01*
X75145237Y-90366696D01*
X75162867Y-90376387D01*
X75179135Y-90387072D01*
X75195038Y-90399408D01*
X75237945Y-90417975D01*
X75243181Y-90420539D01*
X75268089Y-90434233D01*
X75284158Y-90443068D01*
X75284160Y-90443069D01*
X75284166Y-90443072D01*
X75303240Y-90447969D01*
X75303660Y-90448077D01*
X75322064Y-90454377D01*
X75340542Y-90462374D01*
X75384038Y-90469262D01*
X75386724Y-90469688D01*
X75392429Y-90470869D01*
X75437728Y-90482500D01*
X75457858Y-90482500D01*
X75477257Y-90484027D01*
X75497133Y-90487175D01*
X75539779Y-90483143D01*
X75543679Y-90482775D01*
X75549517Y-90482500D01*
X78512191Y-90482500D01*
X78579230Y-90502185D01*
X78599872Y-90518819D01*
X78604129Y-90523076D01*
X78604133Y-90523079D01*
X78604135Y-90523081D01*
X78745602Y-90606744D01*
X78787224Y-90618836D01*
X78903426Y-90652597D01*
X78903429Y-90652597D01*
X78903431Y-90652598D01*
X78915722Y-90653565D01*
X78940304Y-90655500D01*
X78940306Y-90655500D01*
X80106500Y-90655500D01*
X80173539Y-90675185D01*
X80219294Y-90727989D01*
X80230500Y-90779500D01*
X80230500Y-90830500D01*
X80210815Y-90897539D01*
X80158011Y-90943294D01*
X80106500Y-90954500D01*
X78940304Y-90954500D01*
X78903432Y-90957401D01*
X78903426Y-90957402D01*
X78745606Y-91003254D01*
X78745605Y-91003254D01*
X78673886Y-91045668D01*
X78606162Y-91062849D01*
X78539899Y-91040689D01*
X78537881Y-91039253D01*
X78443734Y-90970851D01*
X78443729Y-90970848D01*
X78270807Y-90893857D01*
X78270802Y-90893855D01*
X78125000Y-90862865D01*
X78085646Y-90854500D01*
X77896354Y-90854500D01*
X77863897Y-90861398D01*
X77711197Y-90893855D01*
X77711192Y-90893857D01*
X77538270Y-90970848D01*
X77538265Y-90970851D01*
X77385129Y-91082111D01*
X77258466Y-91222785D01*
X77163821Y-91386715D01*
X77163818Y-91386722D01*
X77123344Y-91511290D01*
X77105326Y-91566744D01*
X77085540Y-91755000D01*
X77105326Y-91943256D01*
X77105327Y-91943259D01*
X77163818Y-92123277D01*
X77163821Y-92123284D01*
X77258467Y-92287216D01*
X77300101Y-92333455D01*
X77385129Y-92427888D01*
X77538265Y-92539148D01*
X77538270Y-92539151D01*
X77711192Y-92616142D01*
X77711197Y-92616144D01*
X77896354Y-92655500D01*
X77896355Y-92655500D01*
X78085644Y-92655500D01*
X78085646Y-92655500D01*
X78270803Y-92616144D01*
X78443730Y-92539151D01*
X78537883Y-92470744D01*
X78603686Y-92447266D01*
X78671740Y-92463091D01*
X78673883Y-92464330D01*
X78745602Y-92506744D01*
X78787224Y-92518836D01*
X78903426Y-92552597D01*
X78903429Y-92552597D01*
X78903431Y-92552598D01*
X78915722Y-92553565D01*
X78940304Y-92555500D01*
X78940306Y-92555500D01*
X80246696Y-92555500D01*
X80265131Y-92554049D01*
X80283569Y-92552598D01*
X80283571Y-92552597D01*
X80283573Y-92552597D01*
X80329864Y-92539148D01*
X80441398Y-92506744D01*
X80582865Y-92423081D01*
X80699081Y-92306865D01*
X80782744Y-92165398D01*
X80828598Y-92007569D01*
X80831500Y-91970694D01*
X80831500Y-91729500D01*
X80851185Y-91662461D01*
X80903989Y-91616706D01*
X80955500Y-91605500D01*
X82121696Y-91605500D01*
X82140131Y-91604049D01*
X82158569Y-91602598D01*
X82158571Y-91602597D01*
X82158573Y-91602597D01*
X82223368Y-91583772D01*
X82316398Y-91556744D01*
X82457865Y-91473081D01*
X82574081Y-91356865D01*
X82657744Y-91215398D01*
X82703598Y-91057569D01*
X82706500Y-91020694D01*
X82706500Y-90589306D01*
X82703598Y-90552431D01*
X82695071Y-90523082D01*
X82664534Y-90417973D01*
X82657744Y-90394602D01*
X82574081Y-90253135D01*
X82574079Y-90253133D01*
X82574076Y-90253129D01*
X82457870Y-90136923D01*
X82457862Y-90136917D01*
X82331183Y-90062000D01*
X82316398Y-90053256D01*
X82316397Y-90053255D01*
X82316396Y-90053255D01*
X82316393Y-90053253D01*
X82185405Y-90015198D01*
X82126519Y-89977592D01*
X82097313Y-89914119D01*
X82096000Y-89896122D01*
X82096000Y-89756780D01*
X82115685Y-89689741D01*
X82132314Y-89669103D01*
X83031321Y-88770096D01*
X83092642Y-88736613D01*
X83162333Y-88741597D01*
X83218267Y-88783469D01*
X83242617Y-88848047D01*
X83243501Y-88859279D01*
X83243502Y-88859287D01*
X83303044Y-89107301D01*
X83303049Y-89107318D01*
X83400656Y-89342963D01*
X83400658Y-89342966D01*
X83533930Y-89560445D01*
X83533936Y-89560454D01*
X83699587Y-89754407D01*
X83699592Y-89754412D01*
X83886585Y-89914119D01*
X83893549Y-89920066D01*
X84019756Y-89997406D01*
X84111033Y-90053341D01*
X84111036Y-90053343D01*
X84346681Y-90150950D01*
X84346683Y-90150950D01*
X84346689Y-90150953D01*
X84594714Y-90210498D01*
X84849000Y-90230511D01*
X85103286Y-90210498D01*
X85351311Y-90150953D01*
X85404700Y-90128838D01*
X85586963Y-90053343D01*
X85586964Y-90053342D01*
X85586967Y-90053341D01*
X85804451Y-89920066D01*
X85998410Y-89754410D01*
X86164066Y-89560451D01*
X86297341Y-89342967D01*
X86311390Y-89309048D01*
X86355231Y-89254645D01*
X86421525Y-89232579D01*
X86425952Y-89232500D01*
X87051501Y-89232500D01*
X87118540Y-89252185D01*
X87164295Y-89304989D01*
X87175501Y-89356500D01*
X87175501Y-89373186D01*
X87185825Y-89474252D01*
X87192269Y-89493698D01*
X87231090Y-89610851D01*
X87240092Y-89638015D01*
X87240093Y-89638018D01*
X87259264Y-89669099D01*
X87330660Y-89784850D01*
X87452650Y-89906840D01*
X87599484Y-89997408D01*
X87763247Y-90051674D01*
X87864323Y-90062000D01*
X88437676Y-90061999D01*
X88437684Y-90061998D01*
X88437687Y-90061998D01*
X88522414Y-90053343D01*
X88538753Y-90051674D01*
X88702516Y-89997408D01*
X88849350Y-89906840D01*
X88971340Y-89784850D01*
X89061908Y-89638016D01*
X89116174Y-89474253D01*
X89126500Y-89373177D01*
X89126499Y-88774824D01*
X89116174Y-88673747D01*
X89061908Y-88509984D01*
X88971340Y-88363150D01*
X88849350Y-88241160D01*
X88702516Y-88150592D01*
X88538753Y-88096326D01*
X88538751Y-88096325D01*
X88437684Y-88086000D01*
X88437677Y-88086000D01*
X88079172Y-88086000D01*
X88012133Y-88066315D01*
X88004428Y-88060867D01*
X88003964Y-88060593D01*
X87961054Y-88042023D01*
X87955807Y-88039453D01*
X87914837Y-88016929D01*
X87914828Y-88016926D01*
X87895334Y-88011920D01*
X87876933Y-88005620D01*
X87858459Y-87997626D01*
X87858452Y-87997624D01*
X87812287Y-87990313D01*
X87806563Y-87989128D01*
X87761279Y-87977500D01*
X87761272Y-87977500D01*
X87741142Y-87977500D01*
X87721743Y-87975973D01*
X87701868Y-87972825D01*
X87701867Y-87972825D01*
X87655321Y-87977225D01*
X87649483Y-87977500D01*
X86425952Y-87977500D01*
X86358913Y-87957815D01*
X86313158Y-87905011D01*
X86311390Y-87900951D01*
X86310920Y-87899817D01*
X86297341Y-87867033D01*
X86229250Y-87755919D01*
X86211005Y-87688474D01*
X86232121Y-87621871D01*
X86260663Y-87591865D01*
X86326546Y-87542546D01*
X86412796Y-87427331D01*
X86463091Y-87292483D01*
X86469500Y-87232873D01*
X86469500Y-86233000D01*
X88261540Y-86233000D01*
X88281326Y-86421256D01*
X88281327Y-86421259D01*
X88339818Y-86601277D01*
X88339821Y-86601284D01*
X88434467Y-86765216D01*
X88543753Y-86886590D01*
X88561129Y-86905888D01*
X88714265Y-87017148D01*
X88714270Y-87017151D01*
X88887192Y-87094142D01*
X88887197Y-87094144D01*
X89072354Y-87133500D01*
X89131548Y-87133500D01*
X89198587Y-87153185D01*
X89219229Y-87169819D01*
X89340181Y-87290771D01*
X89373666Y-87352094D01*
X89376500Y-87378452D01*
X89376500Y-88628017D01*
X89387000Y-88730796D01*
X89442185Y-88897332D01*
X89442187Y-88897337D01*
X89470989Y-88944032D01*
X89534288Y-89046656D01*
X89658344Y-89170712D01*
X89807665Y-89262814D01*
X89974202Y-89317999D01*
X90076990Y-89328500D01*
X90076995Y-89328500D01*
X91077005Y-89328500D01*
X91077010Y-89328500D01*
X91179798Y-89317999D01*
X91346335Y-89262814D01*
X91495656Y-89170712D01*
X91619712Y-89046656D01*
X91711814Y-88897335D01*
X91766999Y-88730798D01*
X91777500Y-88628010D01*
X91777500Y-86377990D01*
X91766999Y-86275202D01*
X91711814Y-86108665D01*
X91619712Y-85959344D01*
X91495656Y-85835288D01*
X91346335Y-85743186D01*
X91179798Y-85688001D01*
X91179796Y-85688000D01*
X91077017Y-85677500D01*
X91077010Y-85677500D01*
X90076990Y-85677500D01*
X90076982Y-85677500D01*
X89974193Y-85688001D01*
X89972057Y-85688459D01*
X89970708Y-85688357D01*
X89967468Y-85688689D01*
X89967408Y-85688110D01*
X89902383Y-85683235D01*
X89853966Y-85650176D01*
X89772871Y-85560112D01*
X89772870Y-85560111D01*
X89619734Y-85448851D01*
X89619729Y-85448848D01*
X89446807Y-85371857D01*
X89446802Y-85371855D01*
X89289032Y-85338321D01*
X89261646Y-85332500D01*
X89072354Y-85332500D01*
X89044968Y-85338321D01*
X88887197Y-85371855D01*
X88887192Y-85371857D01*
X88714270Y-85448848D01*
X88714265Y-85448851D01*
X88561129Y-85560111D01*
X88434466Y-85700785D01*
X88339821Y-85864715D01*
X88339818Y-85864722D01*
X88289091Y-86020846D01*
X88281326Y-86044744D01*
X88261540Y-86233000D01*
X86469500Y-86233000D01*
X86469499Y-84897128D01*
X86463091Y-84837517D01*
X86445982Y-84791646D01*
X86412797Y-84702671D01*
X86412793Y-84702664D01*
X86326547Y-84587455D01*
X86326544Y-84587452D01*
X86211335Y-84501206D01*
X86211328Y-84501202D01*
X86076482Y-84450908D01*
X86076483Y-84450908D01*
X86016883Y-84444501D01*
X86016881Y-84444500D01*
X86016873Y-84444500D01*
X86016864Y-84444500D01*
X83681129Y-84444500D01*
X83681123Y-84444501D01*
X83621516Y-84450908D01*
X83486671Y-84501202D01*
X83486664Y-84501206D01*
X83371455Y-84587452D01*
X83371452Y-84587455D01*
X83285206Y-84702664D01*
X83285202Y-84702671D01*
X83234908Y-84837517D01*
X83228501Y-84897116D01*
X83228501Y-84897123D01*
X83228500Y-84897135D01*
X83228500Y-86746717D01*
X83208815Y-86813756D01*
X83192181Y-86834398D01*
X82307681Y-87718899D01*
X82246358Y-87752384D01*
X82176667Y-87747400D01*
X82120733Y-87705528D01*
X82096316Y-87640064D01*
X82096000Y-87631218D01*
X82096000Y-86491464D01*
X82097728Y-86475813D01*
X82097446Y-86475787D01*
X82098180Y-86468024D01*
X82096000Y-86398640D01*
X82096000Y-86369030D01*
X82096000Y-86369024D01*
X82095126Y-86362107D01*
X82094669Y-86356292D01*
X82093201Y-86309557D01*
X82087584Y-86290227D01*
X82083638Y-86271168D01*
X82081117Y-86251211D01*
X82081116Y-86251209D01*
X82081116Y-86251207D01*
X82063903Y-86207734D01*
X82062014Y-86202213D01*
X82048967Y-86157307D01*
X82038725Y-86139989D01*
X82030162Y-86122511D01*
X82022753Y-86103797D01*
X82022753Y-86103796D01*
X81995271Y-86065972D01*
X81992067Y-86061096D01*
X81968263Y-86020844D01*
X81968261Y-86020842D01*
X81968259Y-86020839D01*
X81954031Y-86006612D01*
X81941396Y-85991820D01*
X81929563Y-85975533D01*
X81929560Y-85975531D01*
X81929560Y-85975530D01*
X81929559Y-85975529D01*
X81893535Y-85945728D01*
X81889213Y-85941794D01*
X81425818Y-85478398D01*
X81392333Y-85417075D01*
X81389499Y-85390717D01*
X81389499Y-83541129D01*
X81389498Y-83541123D01*
X81389497Y-83541116D01*
X81383091Y-83481517D01*
X81363593Y-83429241D01*
X81332797Y-83346671D01*
X81332793Y-83346664D01*
X81246547Y-83231455D01*
X81246544Y-83231452D01*
X81131335Y-83145206D01*
X81131328Y-83145202D01*
X80996482Y-83094908D01*
X80996483Y-83094908D01*
X80936883Y-83088501D01*
X80936881Y-83088500D01*
X80936873Y-83088500D01*
X80936864Y-83088500D01*
X78601129Y-83088500D01*
X78601123Y-83088501D01*
X78541516Y-83094908D01*
X78406671Y-83145202D01*
X78406664Y-83145206D01*
X78291455Y-83231452D01*
X78291452Y-83231455D01*
X78205206Y-83346664D01*
X78205202Y-83346671D01*
X78154908Y-83481517D01*
X78148501Y-83541116D01*
X78148501Y-83541123D01*
X78148500Y-83541135D01*
X78148500Y-85876870D01*
X78148501Y-85876876D01*
X78154908Y-85936483D01*
X78205202Y-86071328D01*
X78205206Y-86071335D01*
X78291452Y-86186544D01*
X78291453Y-86186544D01*
X78291454Y-86186546D01*
X78316132Y-86205020D01*
X78357334Y-86235864D01*
X78399204Y-86291798D01*
X78404188Y-86361490D01*
X78388749Y-86399920D01*
X78320659Y-86511031D01*
X78306610Y-86544951D01*
X78262769Y-86599355D01*
X78196475Y-86621421D01*
X78192048Y-86621500D01*
X77271552Y-86621500D01*
X77204513Y-86601815D01*
X77183871Y-86585181D01*
X77165351Y-86566661D01*
X77165351Y-86566660D01*
X77165350Y-86566660D01*
X77018516Y-86476092D01*
X76854753Y-86421826D01*
X76854751Y-86421825D01*
X76753678Y-86411500D01*
X76180330Y-86411500D01*
X76180312Y-86411501D01*
X76079247Y-86421825D01*
X75915484Y-86476092D01*
X75915481Y-86476093D01*
X75768648Y-86566661D01*
X75646661Y-86688648D01*
X75556093Y-86835481D01*
X75553042Y-86842027D01*
X75550192Y-86840698D01*
X75518384Y-86886590D01*
X75453855Y-86913380D01*
X75385085Y-86901030D01*
X75333910Y-86853461D01*
X75316500Y-86790101D01*
X75316500Y-83496280D01*
X75336185Y-83429241D01*
X75352814Y-83408604D01*
X76436600Y-82324819D01*
X76497923Y-82291334D01*
X76524281Y-82288500D01*
X78516033Y-82288500D01*
X78531681Y-82290227D01*
X78531708Y-82289946D01*
X78539475Y-82290680D01*
X78539476Y-82290679D01*
X78539477Y-82290680D01*
X78608860Y-82288500D01*
X78638476Y-82288500D01*
X78645378Y-82287627D01*
X78651190Y-82287169D01*
X78697943Y-82285701D01*
X78717272Y-82280084D01*
X78736328Y-82276137D01*
X78756293Y-82273616D01*
X78799770Y-82256401D01*
X78805276Y-82254516D01*
X78850191Y-82241468D01*
X78867515Y-82231221D01*
X78884983Y-82222663D01*
X78903703Y-82215253D01*
X78941542Y-82187759D01*
X78946391Y-82184574D01*
X78986656Y-82160763D01*
X79000897Y-82146520D01*
X79015678Y-82133897D01*
X79031967Y-82122063D01*
X79031969Y-82122059D01*
X79031971Y-82122059D01*
X79043845Y-82107703D01*
X79061776Y-82086028D01*
X79065689Y-82081728D01*
X79646043Y-81501374D01*
X79658325Y-81491537D01*
X79658144Y-81491318D01*
X79664152Y-81486346D01*
X79664162Y-81486340D01*
X79711677Y-81435741D01*
X79732623Y-81414796D01*
X79736892Y-81409290D01*
X79740676Y-81404859D01*
X79772693Y-81370767D01*
X79782389Y-81353128D01*
X79793073Y-81336861D01*
X79805408Y-81320962D01*
X79823978Y-81278046D01*
X79826534Y-81272827D01*
X79849072Y-81231834D01*
X79854078Y-81212334D01*
X79860382Y-81193924D01*
X79868373Y-81175459D01*
X79873532Y-81142886D01*
X79875687Y-81129280D01*
X79876868Y-81123570D01*
X79888500Y-81078272D01*
X79888500Y-81058135D01*
X79890027Y-81038735D01*
X79891332Y-81030495D01*
X79893174Y-81018867D01*
X79888775Y-80972329D01*
X79888500Y-80966491D01*
X79888500Y-78911281D01*
X79908185Y-78844242D01*
X79924819Y-78823600D01*
X81357600Y-77390819D01*
X81418923Y-77357334D01*
X81445281Y-77354500D01*
X81501644Y-77354500D01*
X81501646Y-77354500D01*
X81686803Y-77315144D01*
X81859730Y-77238151D01*
X82012871Y-77126888D01*
X82139533Y-76986216D01*
X82234179Y-76822284D01*
X82292674Y-76642256D01*
X82312460Y-76454000D01*
X82312084Y-76450426D01*
X82310414Y-76434536D01*
X82322981Y-76365805D01*
X82370712Y-76314781D01*
X82407950Y-76300281D01*
X82413303Y-76299144D01*
X82413307Y-76299142D01*
X82413308Y-76299142D01*
X82529327Y-76247486D01*
X82586230Y-76222151D01*
X82739371Y-76110888D01*
X82743299Y-76106525D01*
X82802786Y-76069879D01*
X82835447Y-76065500D01*
X84898667Y-76065500D01*
X84965706Y-76085185D01*
X84986348Y-76101819D01*
X87120572Y-78236043D01*
X87130419Y-78248333D01*
X87130637Y-78248154D01*
X87135605Y-78254160D01*
X87186205Y-78301677D01*
X87207149Y-78322620D01*
X87207155Y-78322626D01*
X87212645Y-78326883D01*
X87217095Y-78330683D01*
X87251181Y-78362693D01*
X87251186Y-78362696D01*
X87254599Y-78365176D01*
X87269393Y-78377812D01*
X92903624Y-84012043D01*
X92913471Y-84024333D01*
X92913689Y-84024154D01*
X92918657Y-84030160D01*
X92969257Y-84077677D01*
X92990205Y-84098624D01*
X92995706Y-84102891D01*
X93000145Y-84106682D01*
X93034233Y-84138693D01*
X93051884Y-84148396D01*
X93068134Y-84159071D01*
X93084038Y-84171408D01*
X93084041Y-84171410D01*
X93126942Y-84189974D01*
X93132190Y-84192544D01*
X93173166Y-84215072D01*
X93192240Y-84219969D01*
X93192660Y-84220077D01*
X93211064Y-84226377D01*
X93229542Y-84234374D01*
X93273038Y-84241262D01*
X93275724Y-84241688D01*
X93281429Y-84242869D01*
X93326728Y-84254500D01*
X93346858Y-84254500D01*
X93366257Y-84256027D01*
X93386133Y-84259175D01*
X93428779Y-84255143D01*
X93432679Y-84254775D01*
X93438517Y-84254500D01*
X96135191Y-84254500D01*
X96202230Y-84274185D01*
X96222872Y-84290819D01*
X96227129Y-84295076D01*
X96227133Y-84295079D01*
X96227135Y-84295081D01*
X96368602Y-84378744D01*
X96410224Y-84390836D01*
X96526426Y-84424597D01*
X96526429Y-84424597D01*
X96526431Y-84424598D01*
X96538722Y-84425565D01*
X96563304Y-84427500D01*
X96563306Y-84427500D01*
X97869696Y-84427500D01*
X97888131Y-84426049D01*
X97906569Y-84424598D01*
X97906571Y-84424597D01*
X97906573Y-84424597D01*
X97948191Y-84412505D01*
X98064398Y-84378744D01*
X98205865Y-84295081D01*
X98322081Y-84178865D01*
X98405744Y-84037398D01*
X98451598Y-83879569D01*
X98454500Y-83842694D01*
X98454500Y-83411306D01*
X98451598Y-83374431D01*
X98443532Y-83346669D01*
X98405745Y-83216606D01*
X98405744Y-83216603D01*
X98405744Y-83216602D01*
X98322081Y-83075135D01*
X98322079Y-83075133D01*
X98322076Y-83075129D01*
X98205870Y-82958923D01*
X98205862Y-82958917D01*
X98064396Y-82875255D01*
X98064393Y-82875254D01*
X97906573Y-82829402D01*
X97906567Y-82829401D01*
X97869696Y-82826500D01*
X97869694Y-82826500D01*
X96703500Y-82826500D01*
X96636461Y-82806815D01*
X96590706Y-82754011D01*
X96579500Y-82702500D01*
X96579500Y-82651500D01*
X96599185Y-82584461D01*
X96651989Y-82538706D01*
X96703500Y-82527500D01*
X97869696Y-82527500D01*
X97888131Y-82526049D01*
X97906569Y-82524598D01*
X97906571Y-82524597D01*
X97906573Y-82524597D01*
X97952864Y-82511148D01*
X98064398Y-82478744D01*
X98128945Y-82440570D01*
X98196667Y-82423387D01*
X98262930Y-82445546D01*
X98264951Y-82446984D01*
X98353265Y-82511148D01*
X98353270Y-82511151D01*
X98526192Y-82588142D01*
X98526197Y-82588144D01*
X98711354Y-82627500D01*
X98711355Y-82627500D01*
X98900644Y-82627500D01*
X98900646Y-82627500D01*
X99085803Y-82588144D01*
X99258730Y-82511151D01*
X99411871Y-82399888D01*
X99538533Y-82259216D01*
X99633179Y-82095284D01*
X99691674Y-81915256D01*
X99711460Y-81727000D01*
X99691674Y-81538744D01*
X99633179Y-81358716D01*
X99538533Y-81194784D01*
X99411871Y-81054112D01*
X99403979Y-81048378D01*
X99258734Y-80942851D01*
X99258729Y-80942848D01*
X99114277Y-80878533D01*
X99061040Y-80833283D01*
X99040719Y-80766433D01*
X99059765Y-80699210D01*
X99112131Y-80652955D01*
X99125700Y-80647551D01*
X99197335Y-80623814D01*
X99346656Y-80531712D01*
X99470712Y-80407656D01*
X99562814Y-80258335D01*
X99617999Y-80091798D01*
X99628500Y-79989010D01*
X99628500Y-78988990D01*
X99617999Y-78886202D01*
X99562814Y-78719665D01*
X99470712Y-78570344D01*
X99346656Y-78446288D01*
X99211127Y-78362693D01*
X99197337Y-78354187D01*
X99197332Y-78354185D01*
X99195863Y-78353698D01*
X99030798Y-78299001D01*
X99030796Y-78299000D01*
X98928017Y-78288500D01*
X98928010Y-78288500D01*
X96677990Y-78288500D01*
X96677982Y-78288500D01*
X96575203Y-78299000D01*
X96575199Y-78299001D01*
X96500950Y-78323605D01*
X96431122Y-78326006D01*
X96371080Y-78290274D01*
X96347595Y-78250302D01*
X96346820Y-78250648D01*
X96344177Y-78244712D01*
X96249534Y-78080785D01*
X96131962Y-77950209D01*
X96122871Y-77940112D01*
X96103489Y-77926030D01*
X95969734Y-77828851D01*
X95969729Y-77828848D01*
X95796807Y-77751857D01*
X95796802Y-77751855D01*
X95723802Y-77736339D01*
X95662320Y-77703147D01*
X95628544Y-77641984D01*
X95633196Y-77572269D01*
X95674801Y-77516137D01*
X95714988Y-77495973D01*
X95747594Y-77486500D01*
X95856898Y-77454744D01*
X95998365Y-77371081D01*
X96114581Y-77254865D01*
X96198244Y-77113398D01*
X96244098Y-76955569D01*
X96247000Y-76918694D01*
X96247000Y-76487306D01*
X96244098Y-76450431D01*
X96198244Y-76292602D01*
X96114581Y-76151135D01*
X96114579Y-76151133D01*
X96114576Y-76151129D01*
X95998370Y-76034923D01*
X95998362Y-76034917D01*
X95920181Y-75988681D01*
X95856898Y-75951256D01*
X95856897Y-75951255D01*
X95856896Y-75951255D01*
X95856893Y-75951254D01*
X95699073Y-75905402D01*
X95699067Y-75905401D01*
X95662196Y-75902500D01*
X95662194Y-75902500D01*
X94496000Y-75902500D01*
X94428961Y-75882815D01*
X94383206Y-75830011D01*
X94372000Y-75778500D01*
X94372000Y-75727500D01*
X94391685Y-75660461D01*
X94444489Y-75614706D01*
X94496000Y-75603500D01*
X95662196Y-75603500D01*
X95680631Y-75602049D01*
X95699069Y-75600598D01*
X95699071Y-75600597D01*
X95699073Y-75600597D01*
X95740691Y-75588505D01*
X95856898Y-75554744D01*
X95998365Y-75471081D01*
X96114581Y-75354865D01*
X96198244Y-75213398D01*
X96244098Y-75055569D01*
X96246370Y-75026696D01*
X96247000Y-75018696D01*
X96247000Y-74587304D01*
X96244098Y-74550432D01*
X96244097Y-74550426D01*
X96201241Y-74402918D01*
X96198244Y-74392602D01*
X96114581Y-74251135D01*
X96114579Y-74251133D01*
X96114576Y-74251129D01*
X95998370Y-74134923D01*
X95998362Y-74134917D01*
X95941932Y-74101545D01*
X95882524Y-74066411D01*
X95834842Y-74015343D01*
X95822338Y-73946602D01*
X95834954Y-73907844D01*
X95833538Y-73907214D01*
X95836174Y-73901292D01*
X95836179Y-73901284D01*
X95894674Y-73721256D01*
X95914460Y-73533000D01*
X95894674Y-73344744D01*
X95836179Y-73164716D01*
X95741533Y-73000784D01*
X95614871Y-72860112D01*
X95614870Y-72860111D01*
X95461734Y-72748851D01*
X95461729Y-72748848D01*
X95288807Y-72671857D01*
X95288802Y-72671855D01*
X95143001Y-72640865D01*
X95103646Y-72632500D01*
X94914354Y-72632500D01*
X94881897Y-72639398D01*
X94729197Y-72671855D01*
X94729192Y-72671857D01*
X94556270Y-72748848D01*
X94556265Y-72748851D01*
X94403129Y-72860111D01*
X94276466Y-73000785D01*
X94181821Y-73164715D01*
X94181818Y-73164722D01*
X94123327Y-73344740D01*
X94123326Y-73344744D01*
X94103540Y-73533000D01*
X94123326Y-73721256D01*
X94123327Y-73721259D01*
X94181818Y-73901277D01*
X94184462Y-73907214D01*
X94182292Y-73908180D01*
X94196211Y-73965606D01*
X94173346Y-74031628D01*
X94135474Y-74066412D01*
X94019638Y-74134916D01*
X94019629Y-74134923D01*
X93903423Y-74251129D01*
X93903417Y-74251137D01*
X93819755Y-74392603D01*
X93819754Y-74392606D01*
X93773902Y-74550426D01*
X93773901Y-74550432D01*
X93771000Y-74587304D01*
X93771000Y-74828500D01*
X93751315Y-74895539D01*
X93698511Y-74941294D01*
X93647000Y-74952500D01*
X93272281Y-74952500D01*
X93205242Y-74932815D01*
X93184600Y-74916181D01*
X91924376Y-73655957D01*
X91914531Y-73643668D01*
X91914313Y-73643849D01*
X91909340Y-73637838D01*
X91858741Y-73590322D01*
X91847871Y-73579452D01*
X91837797Y-73569377D01*
X91832296Y-73565111D01*
X91827848Y-73561312D01*
X91806273Y-73541051D01*
X91793767Y-73529307D01*
X91793766Y-73529306D01*
X91793763Y-73529304D01*
X91776122Y-73519606D01*
X91759857Y-73508922D01*
X91743963Y-73496593D01*
X91743962Y-73496592D01*
X91728804Y-73490032D01*
X91701054Y-73478023D01*
X91695807Y-73475453D01*
X91654837Y-73452929D01*
X91654828Y-73452926D01*
X91635334Y-73447920D01*
X91616933Y-73441620D01*
X91598459Y-73433626D01*
X91598452Y-73433624D01*
X91552287Y-73426313D01*
X91546563Y-73425128D01*
X91501279Y-73413500D01*
X91501272Y-73413500D01*
X91481142Y-73413500D01*
X91461743Y-73411973D01*
X91441868Y-73408825D01*
X91441864Y-73408824D01*
X91431165Y-73409836D01*
X91362571Y-73396546D01*
X91312051Y-73348281D01*
X91295499Y-73286386D01*
X91295499Y-72873129D01*
X91295498Y-72873123D01*
X91295497Y-72873116D01*
X91289091Y-72813517D01*
X91279419Y-72787586D01*
X91238797Y-72678671D01*
X91238793Y-72678664D01*
X91174469Y-72592739D01*
X91152546Y-72563454D01*
X91086664Y-72514135D01*
X91044795Y-72458203D01*
X91039811Y-72388511D01*
X91055247Y-72350084D01*
X91123341Y-72238967D01*
X91137390Y-72205048D01*
X91181231Y-72150645D01*
X91247525Y-72128579D01*
X91251952Y-72128500D01*
X92489533Y-72128500D01*
X92505181Y-72130227D01*
X92505208Y-72129946D01*
X92512975Y-72130680D01*
X92512976Y-72130679D01*
X92512977Y-72130680D01*
X92582360Y-72128500D01*
X92611976Y-72128500D01*
X92618878Y-72127627D01*
X92624690Y-72127169D01*
X92671443Y-72125701D01*
X92690772Y-72120084D01*
X92709828Y-72116137D01*
X92729793Y-72113616D01*
X92773270Y-72096401D01*
X92778776Y-72094516D01*
X92823691Y-72081468D01*
X92841015Y-72071221D01*
X92858483Y-72062663D01*
X92877203Y-72055253D01*
X92915042Y-72027759D01*
X92919891Y-72024574D01*
X92960156Y-72000763D01*
X92974397Y-71986520D01*
X92989178Y-71973897D01*
X93005467Y-71962063D01*
X93005469Y-71962059D01*
X93005471Y-71962059D01*
X93017345Y-71947703D01*
X93035276Y-71926028D01*
X93039179Y-71921738D01*
X93094100Y-71866817D01*
X93155424Y-71833333D01*
X93181781Y-71830499D01*
X93517670Y-71830499D01*
X93517676Y-71830499D01*
X93618753Y-71820174D01*
X93782516Y-71765908D01*
X93929350Y-71675340D01*
X94051340Y-71553350D01*
X94141908Y-71406516D01*
X94196174Y-71242753D01*
X94206500Y-71141677D01*
X94206499Y-70543324D01*
X94200570Y-70485286D01*
X94196174Y-70442247D01*
X94196173Y-70442247D01*
X94141908Y-70278484D01*
X94051340Y-70131650D01*
X93929350Y-70009660D01*
X93782516Y-69919092D01*
X93618753Y-69864826D01*
X93618751Y-69864825D01*
X93517678Y-69854500D01*
X92944330Y-69854500D01*
X92944312Y-69854501D01*
X92843247Y-69864825D01*
X92679484Y-69919092D01*
X92679481Y-69919093D01*
X92532648Y-70009661D01*
X92410661Y-70131648D01*
X92320093Y-70278481D01*
X92320091Y-70278484D01*
X92320092Y-70278484D01*
X92265826Y-70442247D01*
X92265826Y-70442248D01*
X92265825Y-70442248D01*
X92255500Y-70543316D01*
X92255500Y-70543327D01*
X92255501Y-70749499D01*
X92235817Y-70816539D01*
X92183013Y-70862294D01*
X92131501Y-70873500D01*
X91251952Y-70873500D01*
X91184913Y-70853815D01*
X91139158Y-70801011D01*
X91137390Y-70796951D01*
X91135880Y-70793306D01*
X91123341Y-70763033D01*
X91117698Y-70753825D01*
X90990069Y-70545554D01*
X90990063Y-70545545D01*
X90824412Y-70351592D01*
X90824407Y-70351587D01*
X90630454Y-70185936D01*
X90630445Y-70185930D01*
X90412966Y-70052658D01*
X90412963Y-70052656D01*
X90177318Y-69955049D01*
X90177301Y-69955044D01*
X89929289Y-69895502D01*
X89675000Y-69875489D01*
X89420710Y-69895502D01*
X89172698Y-69955044D01*
X89172681Y-69955049D01*
X88937036Y-70052656D01*
X88937033Y-70052658D01*
X88719554Y-70185930D01*
X88719545Y-70185936D01*
X88525592Y-70351587D01*
X88525587Y-70351592D01*
X88359936Y-70545545D01*
X88359930Y-70545554D01*
X88226658Y-70763033D01*
X88226656Y-70763036D01*
X88129049Y-70998681D01*
X88129044Y-70998698D01*
X88069502Y-71246710D01*
X88049489Y-71501000D01*
X88069502Y-71755289D01*
X88129044Y-72003301D01*
X88129049Y-72003318D01*
X88226656Y-72238963D01*
X88226658Y-72238966D01*
X88294749Y-72350080D01*
X88312994Y-72417526D01*
X88291878Y-72484128D01*
X88263334Y-72514136D01*
X88197452Y-72563455D01*
X88111206Y-72678664D01*
X88111202Y-72678671D01*
X88060908Y-72813517D01*
X88055899Y-72860111D01*
X88054500Y-72873127D01*
X88054500Y-73998483D01*
X88054501Y-75001500D01*
X88034816Y-75068539D01*
X87982013Y-75114294D01*
X87930501Y-75125500D01*
X87507281Y-75125500D01*
X87440242Y-75105815D01*
X87419600Y-75089181D01*
X86251818Y-73921399D01*
X86218333Y-73860076D01*
X86215499Y-73833718D01*
X86215499Y-71603129D01*
X86215498Y-71603123D01*
X86215497Y-71603116D01*
X86209091Y-71543517D01*
X86193233Y-71501000D01*
X86158797Y-71408671D01*
X86158793Y-71408664D01*
X86072547Y-71293456D01*
X86072548Y-71293456D01*
X86072546Y-71293454D01*
X86006664Y-71244135D01*
X85964795Y-71188203D01*
X85959811Y-71118511D01*
X85975247Y-71080084D01*
X86043341Y-70968967D01*
X86140953Y-70733311D01*
X86200498Y-70485286D01*
X86220511Y-70231000D01*
X86200498Y-69976714D01*
X86140953Y-69728689D01*
X86126901Y-69694765D01*
X86119433Y-69625301D01*
X86150707Y-69562821D01*
X86153721Y-69559696D01*
X86342601Y-69370816D01*
X86403924Y-69337334D01*
X86430281Y-69334500D01*
X86951253Y-69334500D01*
X87018292Y-69354185D01*
X87056790Y-69393402D01*
X87064160Y-69405350D01*
X87186150Y-69527340D01*
X87332984Y-69617908D01*
X87496747Y-69672174D01*
X87597823Y-69682500D01*
X88196176Y-69682499D01*
X88196184Y-69682498D01*
X88196187Y-69682498D01*
X88251530Y-69676844D01*
X88297253Y-69672174D01*
X88461016Y-69617908D01*
X88607850Y-69527340D01*
X88729840Y-69405350D01*
X88820408Y-69258516D01*
X88874674Y-69094753D01*
X88885000Y-68993677D01*
X88884999Y-68420324D01*
X88884466Y-68415111D01*
X88874674Y-68319247D01*
X88869572Y-68303851D01*
X88820408Y-68155484D01*
X88729840Y-68008650D01*
X88607850Y-67886660D01*
X88461016Y-67796092D01*
X88297253Y-67741826D01*
X88297251Y-67741825D01*
X88196178Y-67731500D01*
X87597830Y-67731500D01*
X87597812Y-67731501D01*
X87496747Y-67741825D01*
X87332984Y-67796092D01*
X87332981Y-67796093D01*
X87186148Y-67886661D01*
X87064161Y-68008648D01*
X87064159Y-68008650D01*
X87064160Y-68008650D01*
X87056791Y-68020596D01*
X87004846Y-68067320D01*
X86951253Y-68079500D01*
X86201965Y-68079500D01*
X86186314Y-68077772D01*
X86186288Y-68078054D01*
X86178525Y-68077319D01*
X86109154Y-68079500D01*
X86079521Y-68079500D01*
X86072607Y-68080373D01*
X86066790Y-68080830D01*
X86020058Y-68082299D01*
X86020054Y-68082300D01*
X86000722Y-68087916D01*
X85981682Y-68091859D01*
X85961708Y-68094383D01*
X85961701Y-68094385D01*
X85918239Y-68111592D01*
X85912712Y-68113485D01*
X85867809Y-68126531D01*
X85867808Y-68126531D01*
X85850474Y-68136782D01*
X85833012Y-68145336D01*
X85814300Y-68152745D01*
X85814295Y-68152748D01*
X85776473Y-68180226D01*
X85771591Y-68183433D01*
X85731341Y-68207238D01*
X85717107Y-68221472D01*
X85702318Y-68234104D01*
X85686032Y-68245937D01*
X85656227Y-68281963D01*
X85652295Y-68286285D01*
X85266363Y-68672216D01*
X85205040Y-68705701D01*
X85135348Y-68700717D01*
X85131229Y-68699096D01*
X85097310Y-68685046D01*
X84849289Y-68625502D01*
X84595000Y-68605489D01*
X84340710Y-68625502D01*
X84092698Y-68685044D01*
X84092681Y-68685049D01*
X83857036Y-68782656D01*
X83857033Y-68782658D01*
X83639554Y-68915930D01*
X83639545Y-68915936D01*
X83445592Y-69081587D01*
X83445587Y-69081592D01*
X83279936Y-69275545D01*
X83279930Y-69275554D01*
X83146658Y-69493033D01*
X83146656Y-69493036D01*
X83049049Y-69728681D01*
X83049044Y-69728698D01*
X82989502Y-69976710D01*
X82969489Y-70231000D01*
X82989502Y-70485289D01*
X83049044Y-70733301D01*
X83049049Y-70733318D01*
X83146656Y-70968963D01*
X83146658Y-70968966D01*
X83214749Y-71080080D01*
X83232994Y-71147526D01*
X83211878Y-71214128D01*
X83183334Y-71244136D01*
X83117452Y-71293455D01*
X83031206Y-71408664D01*
X83031202Y-71408671D01*
X82980908Y-71543517D01*
X82974501Y-71603116D01*
X82974501Y-71603123D01*
X82974500Y-71603135D01*
X82974501Y-73924500D01*
X82954816Y-73991539D01*
X82902013Y-74037294D01*
X82850501Y-74048500D01*
X82607281Y-74048500D01*
X82540242Y-74028815D01*
X82519600Y-74012181D01*
X81393128Y-72885709D01*
X81359643Y-72824386D01*
X81357490Y-72811006D01*
X81340174Y-72646244D01*
X81281679Y-72466216D01*
X81187033Y-72302284D01*
X81060371Y-72161612D01*
X81060370Y-72161611D01*
X80907234Y-72050351D01*
X80907229Y-72050348D01*
X80734307Y-71973357D01*
X80734302Y-71973355D01*
X80588501Y-71942365D01*
X80549146Y-71934000D01*
X80359854Y-71934000D01*
X80327397Y-71940898D01*
X80174697Y-71973355D01*
X80174692Y-71973357D01*
X80001770Y-72050348D01*
X80001765Y-72050351D01*
X79848629Y-72161611D01*
X79721966Y-72302285D01*
X79627321Y-72466215D01*
X79627318Y-72466222D01*
X79572987Y-72633438D01*
X79568826Y-72646244D01*
X79553971Y-72787586D01*
X79549583Y-72829338D01*
X79549040Y-72834500D01*
X79568826Y-73022756D01*
X79568827Y-73022759D01*
X79627318Y-73202777D01*
X79627321Y-73202784D01*
X79654870Y-73250500D01*
X79671343Y-73318400D01*
X79648490Y-73384427D01*
X79593569Y-73427618D01*
X79547483Y-73436500D01*
X78347129Y-73436500D01*
X78347123Y-73436501D01*
X78287516Y-73442908D01*
X78152671Y-73493202D01*
X78152664Y-73493206D01*
X78037455Y-73579452D01*
X77988136Y-73645334D01*
X77932202Y-73687204D01*
X77862510Y-73692188D01*
X77824080Y-73676749D01*
X77712968Y-73608659D01*
X77679046Y-73594608D01*
X77624643Y-73550766D01*
X77602579Y-73484471D01*
X77602500Y-73480047D01*
X77602500Y-72750464D01*
X77604228Y-72734813D01*
X77603946Y-72734787D01*
X77604680Y-72727024D01*
X77602500Y-72657640D01*
X77602500Y-72628030D01*
X77602500Y-72628024D01*
X77601626Y-72621107D01*
X77601169Y-72615292D01*
X77599701Y-72568558D01*
X77594082Y-72549218D01*
X77590139Y-72530185D01*
X77587616Y-72510207D01*
X77570403Y-72466734D01*
X77568514Y-72461214D01*
X77561200Y-72436038D01*
X77555468Y-72416309D01*
X77545219Y-72398980D01*
X77536664Y-72381516D01*
X77529253Y-72362797D01*
X77529250Y-72362792D01*
X77501771Y-72324972D01*
X77498562Y-72320086D01*
X77474768Y-72279851D01*
X77474766Y-72279848D01*
X77474764Y-72279845D01*
X77460530Y-72265611D01*
X77447894Y-72250817D01*
X77436063Y-72234533D01*
X77436062Y-72234532D01*
X77436059Y-72234529D01*
X77400035Y-72204728D01*
X77395713Y-72200794D01*
X77340818Y-72145899D01*
X77307333Y-72084576D01*
X77304499Y-72058218D01*
X77304499Y-71722330D01*
X77304498Y-71722313D01*
X77294174Y-71621247D01*
X77288170Y-71603128D01*
X77239908Y-71457484D01*
X77149340Y-71310650D01*
X77027350Y-71188660D01*
X77027346Y-71188657D01*
X76919861Y-71122359D01*
X76873136Y-71070411D01*
X76861915Y-71001449D01*
X76889758Y-70937367D01*
X76897265Y-70929153D01*
X77801599Y-70024819D01*
X77862923Y-69991334D01*
X77889281Y-69988500D01*
X77945644Y-69988500D01*
X77945646Y-69988500D01*
X78130803Y-69949144D01*
X78303730Y-69872151D01*
X78456871Y-69760888D01*
X78583533Y-69620216D01*
X78678179Y-69456284D01*
X78736674Y-69276256D01*
X78756460Y-69088000D01*
X78736674Y-68899744D01*
X78678179Y-68719716D01*
X78583533Y-68555784D01*
X78456871Y-68415112D01*
X78456870Y-68415111D01*
X78303734Y-68303851D01*
X78303729Y-68303848D01*
X78130807Y-68226857D01*
X78130802Y-68226855D01*
X77985000Y-68195865D01*
X77945646Y-68187500D01*
X77756354Y-68187500D01*
X77723897Y-68194398D01*
X77571197Y-68226855D01*
X77571192Y-68226857D01*
X77398270Y-68303848D01*
X77398265Y-68303851D01*
X77245129Y-68415111D01*
X77118466Y-68555785D01*
X77023821Y-68719715D01*
X77023818Y-68719722D01*
X77003369Y-68782659D01*
X76965326Y-68899744D01*
X76955453Y-68993684D01*
X76948011Y-69064489D01*
X76921426Y-69129103D01*
X76912371Y-69139208D01*
X73795953Y-72255626D01*
X73783669Y-72265469D01*
X73783849Y-72265687D01*
X73777838Y-72270659D01*
X73730322Y-72321258D01*
X73709375Y-72342205D01*
X73705106Y-72347709D01*
X73701315Y-72352147D01*
X73669308Y-72386230D01*
X73669305Y-72386234D01*
X73659606Y-72403877D01*
X73648928Y-72420133D01*
X73636594Y-72436034D01*
X73636589Y-72436042D01*
X73618025Y-72478943D01*
X73615454Y-72484191D01*
X73592927Y-72525167D01*
X73587920Y-72544668D01*
X73581621Y-72563064D01*
X73574893Y-72578612D01*
X73573625Y-72581544D01*
X73573624Y-72581546D01*
X73566312Y-72627716D01*
X73565127Y-72633438D01*
X73553500Y-72678723D01*
X73553500Y-72698858D01*
X73551973Y-72718257D01*
X73548825Y-72738131D01*
X73553225Y-72784677D01*
X73553500Y-72790515D01*
X73553500Y-73292191D01*
X73533815Y-73359230D01*
X73517181Y-73379872D01*
X73512923Y-73384129D01*
X73512917Y-73384137D01*
X73429255Y-73525603D01*
X73429254Y-73525606D01*
X73383402Y-73683426D01*
X73383401Y-73683432D01*
X73380500Y-73720304D01*
X73380500Y-74886500D01*
X73360815Y-74953539D01*
X73308011Y-74999294D01*
X73256500Y-75010500D01*
X73205500Y-75010500D01*
X73138461Y-74990815D01*
X73092706Y-74938011D01*
X73081500Y-74886500D01*
X73081500Y-73720304D01*
X73078598Y-73683432D01*
X73078597Y-73683426D01*
X73033820Y-73529307D01*
X73032744Y-73525602D01*
X73026419Y-73514907D01*
X73022932Y-73509010D01*
X73005751Y-73441286D01*
X73022277Y-73383893D01*
X73090179Y-73266284D01*
X73148674Y-73086256D01*
X73168460Y-72898000D01*
X73148674Y-72709744D01*
X73090179Y-72529716D01*
X72995533Y-72365784D01*
X72868871Y-72225112D01*
X72840815Y-72204728D01*
X72715734Y-72113851D01*
X72715729Y-72113848D01*
X72542807Y-72036857D01*
X72542802Y-72036855D01*
X72397001Y-72005865D01*
X72357646Y-71997500D01*
X72168354Y-71997500D01*
X72153003Y-72000763D01*
X71983197Y-72036855D01*
X71983192Y-72036857D01*
X71810270Y-72113848D01*
X71810265Y-72113851D01*
X71657129Y-72225111D01*
X71530466Y-72365785D01*
X71435821Y-72529715D01*
X71435818Y-72529722D01*
X71377693Y-72708615D01*
X71377326Y-72709744D01*
X71357540Y-72898000D01*
X68465523Y-72898000D01*
X74151704Y-67211819D01*
X74213027Y-67178334D01*
X74239385Y-67175500D01*
X81959033Y-67175500D01*
X81974681Y-67177227D01*
X81974708Y-67176946D01*
X81982475Y-67177680D01*
X81982476Y-67177679D01*
X81982477Y-67177680D01*
X82051860Y-67175500D01*
X82081476Y-67175500D01*
X82088378Y-67174627D01*
X82094190Y-67174169D01*
X82140943Y-67172701D01*
X82160272Y-67167084D01*
X82179328Y-67163137D01*
X82199293Y-67160616D01*
X82242770Y-67143401D01*
X82248276Y-67141516D01*
X82293191Y-67128468D01*
X82310515Y-67118221D01*
X82327983Y-67109663D01*
X82346703Y-67102253D01*
X82384542Y-67074759D01*
X82389391Y-67071574D01*
X82429656Y-67047763D01*
X82443897Y-67033520D01*
X82458678Y-67020897D01*
X82474967Y-67009063D01*
X82474969Y-67009059D01*
X82474971Y-67009059D01*
X82487320Y-66994130D01*
X82504776Y-66973028D01*
X82508689Y-66968728D01*
X84073435Y-65403982D01*
X84134756Y-65370499D01*
X84193207Y-65371890D01*
X84208635Y-65376023D01*
X84234932Y-65383070D01*
X84392123Y-65396822D01*
X84454998Y-65402323D01*
X84455000Y-65402323D01*
X84455002Y-65402323D01*
X84510017Y-65397509D01*
X84675068Y-65383070D01*
X84888450Y-65325894D01*
X85088662Y-65232534D01*
X85269620Y-65105826D01*
X85425826Y-64949620D01*
X85552534Y-64768662D01*
X85645894Y-64568450D01*
X85703070Y-64355068D01*
X85722323Y-64135002D01*
X88267677Y-64135002D01*
X88286929Y-64355062D01*
X88286930Y-64355070D01*
X88344104Y-64568445D01*
X88344105Y-64568447D01*
X88344106Y-64568450D01*
X88371761Y-64627756D01*
X88437466Y-64768662D01*
X88437468Y-64768666D01*
X88564170Y-64949615D01*
X88564175Y-64949621D01*
X88720378Y-65105824D01*
X88720384Y-65105829D01*
X88901333Y-65232531D01*
X88901335Y-65232532D01*
X88901338Y-65232534D01*
X89101550Y-65325894D01*
X89314932Y-65383070D01*
X89472123Y-65396822D01*
X89534998Y-65402323D01*
X89535000Y-65402323D01*
X89535002Y-65402323D01*
X89590017Y-65397509D01*
X89755068Y-65383070D01*
X89968450Y-65325894D01*
X90168662Y-65232534D01*
X90349620Y-65105826D01*
X90505826Y-64949620D01*
X90632534Y-64768662D01*
X90692617Y-64639811D01*
X90738790Y-64587371D01*
X90805983Y-64568219D01*
X90872865Y-64588435D01*
X90917382Y-64639811D01*
X90977464Y-64768658D01*
X90977468Y-64768666D01*
X91104170Y-64949615D01*
X91104175Y-64949621D01*
X91260378Y-65105824D01*
X91260384Y-65105829D01*
X91441333Y-65232531D01*
X91441335Y-65232532D01*
X91441338Y-65232534D01*
X91641550Y-65325894D01*
X91854932Y-65383070D01*
X92012123Y-65396822D01*
X92074998Y-65402323D01*
X92075000Y-65402323D01*
X92075002Y-65402323D01*
X92130017Y-65397509D01*
X92295068Y-65383070D01*
X92508450Y-65325894D01*
X92708662Y-65232534D01*
X92889620Y-65105826D01*
X93045826Y-64949620D01*
X93172534Y-64768662D01*
X93265894Y-64568450D01*
X93323070Y-64355068D01*
X93342323Y-64135000D01*
X93323070Y-63914932D01*
X93265894Y-63701550D01*
X93172534Y-63501339D01*
X93045826Y-63320380D01*
X92889620Y-63164174D01*
X92889616Y-63164171D01*
X92889615Y-63164170D01*
X92708666Y-63037468D01*
X92708662Y-63037466D01*
X92708660Y-63037465D01*
X92508450Y-62944106D01*
X92508447Y-62944105D01*
X92508445Y-62944104D01*
X92295070Y-62886930D01*
X92295062Y-62886929D01*
X92075002Y-62867677D01*
X92074998Y-62867677D01*
X91854937Y-62886929D01*
X91854929Y-62886930D01*
X91641554Y-62944104D01*
X91641548Y-62944107D01*
X91441340Y-63037465D01*
X91441338Y-63037466D01*
X91260377Y-63164175D01*
X91104175Y-63320377D01*
X90977466Y-63501338D01*
X90977465Y-63501340D01*
X90917382Y-63630189D01*
X90871209Y-63682628D01*
X90804016Y-63701780D01*
X90737135Y-63681564D01*
X90692618Y-63630189D01*
X90632534Y-63501340D01*
X90632533Y-63501338D01*
X90631946Y-63500500D01*
X90505826Y-63320380D01*
X90349620Y-63164174D01*
X90349616Y-63164171D01*
X90349615Y-63164170D01*
X90168666Y-63037468D01*
X90168662Y-63037466D01*
X90168660Y-63037465D01*
X89968450Y-62944106D01*
X89968447Y-62944105D01*
X89968445Y-62944104D01*
X89755070Y-62886930D01*
X89755062Y-62886929D01*
X89535002Y-62867677D01*
X89534998Y-62867677D01*
X89314937Y-62886929D01*
X89314929Y-62886930D01*
X89101554Y-62944104D01*
X89101548Y-62944107D01*
X88901340Y-63037465D01*
X88901338Y-63037466D01*
X88720377Y-63164175D01*
X88564175Y-63320377D01*
X88437466Y-63501338D01*
X88437465Y-63501340D01*
X88344107Y-63701548D01*
X88344104Y-63701554D01*
X88286930Y-63914929D01*
X88286929Y-63914937D01*
X88267677Y-64134997D01*
X88267677Y-64135002D01*
X85722323Y-64135002D01*
X85722323Y-64135000D01*
X85703070Y-63914932D01*
X85645894Y-63701550D01*
X85552534Y-63501339D01*
X85425826Y-63320380D01*
X85269620Y-63164174D01*
X85269616Y-63164171D01*
X85269615Y-63164170D01*
X85088666Y-63037468D01*
X85088662Y-63037466D01*
X85088660Y-63037465D01*
X84888450Y-62944106D01*
X84888447Y-62944105D01*
X84888445Y-62944104D01*
X84675070Y-62886930D01*
X84675062Y-62886929D01*
X84455002Y-62867677D01*
X84454998Y-62867677D01*
X84234937Y-62886929D01*
X84234929Y-62886930D01*
X84021554Y-62944104D01*
X84021548Y-62944107D01*
X83821340Y-63037465D01*
X83821338Y-63037466D01*
X83640377Y-63164175D01*
X83484175Y-63320377D01*
X83357466Y-63501338D01*
X83357465Y-63501340D01*
X83297382Y-63630189D01*
X83251209Y-63682628D01*
X83184016Y-63701780D01*
X83117135Y-63681564D01*
X83072618Y-63630189D01*
X83012534Y-63501340D01*
X83012533Y-63501338D01*
X83011946Y-63500500D01*
X82885826Y-63320380D01*
X82729620Y-63164174D01*
X82729616Y-63164171D01*
X82729615Y-63164170D01*
X82548666Y-63037468D01*
X82548662Y-63037466D01*
X82548660Y-63037465D01*
X82348450Y-62944106D01*
X82348447Y-62944105D01*
X82348445Y-62944104D01*
X82135070Y-62886930D01*
X82135062Y-62886929D01*
X81915002Y-62867677D01*
X81914998Y-62867677D01*
X81694937Y-62886929D01*
X81694929Y-62886930D01*
X81481554Y-62944104D01*
X81481548Y-62944107D01*
X81281340Y-63037465D01*
X81281338Y-63037466D01*
X81100377Y-63164175D01*
X80944175Y-63320377D01*
X80817466Y-63501338D01*
X80817465Y-63501340D01*
X80757382Y-63630189D01*
X80711209Y-63682628D01*
X80644016Y-63701780D01*
X80577135Y-63681564D01*
X80532618Y-63630189D01*
X80472534Y-63501340D01*
X80472533Y-63501338D01*
X80471946Y-63500500D01*
X80345826Y-63320380D01*
X80189620Y-63164174D01*
X80189616Y-63164171D01*
X80189615Y-63164170D01*
X80008666Y-63037468D01*
X80008662Y-63037466D01*
X80008660Y-63037465D01*
X79808450Y-62944106D01*
X79808447Y-62944105D01*
X79808445Y-62944104D01*
X79595070Y-62886930D01*
X79595062Y-62886929D01*
X79375002Y-62867677D01*
X79374998Y-62867677D01*
X79154937Y-62886929D01*
X79154929Y-62886930D01*
X78941554Y-62944104D01*
X78941548Y-62944107D01*
X78741340Y-63037465D01*
X78741338Y-63037466D01*
X78560377Y-63164175D01*
X78404175Y-63320377D01*
X78277466Y-63501338D01*
X78277465Y-63501340D01*
X78217382Y-63630189D01*
X78171209Y-63682628D01*
X78104016Y-63701780D01*
X78037135Y-63681564D01*
X77992618Y-63630189D01*
X77932534Y-63501340D01*
X77932533Y-63501338D01*
X77931946Y-63500500D01*
X77805826Y-63320380D01*
X77649620Y-63164174D01*
X77649616Y-63164171D01*
X77649615Y-63164170D01*
X77468666Y-63037468D01*
X77468662Y-63037466D01*
X77468660Y-63037465D01*
X77268450Y-62944106D01*
X77268447Y-62944105D01*
X77268445Y-62944104D01*
X77055070Y-62886930D01*
X77055062Y-62886929D01*
X76835002Y-62867677D01*
X76834998Y-62867677D01*
X76614937Y-62886929D01*
X76614929Y-62886930D01*
X76401554Y-62944104D01*
X76401548Y-62944107D01*
X76201340Y-63037465D01*
X76201338Y-63037466D01*
X76020377Y-63164175D01*
X75864175Y-63320377D01*
X75737466Y-63501338D01*
X75737465Y-63501340D01*
X75644107Y-63701548D01*
X75644104Y-63701554D01*
X75586930Y-63914929D01*
X75586929Y-63914937D01*
X75567677Y-64134997D01*
X75567677Y-64135001D01*
X75578761Y-64261693D01*
X75564994Y-64330193D01*
X75516379Y-64380376D01*
X75455233Y-64396500D01*
X73488965Y-64396500D01*
X73473314Y-64394772D01*
X73473288Y-64395054D01*
X73465525Y-64394319D01*
X73396154Y-64396500D01*
X73366521Y-64396500D01*
X73359607Y-64397373D01*
X73353790Y-64397830D01*
X73307058Y-64399299D01*
X73307054Y-64399300D01*
X73287722Y-64404916D01*
X73268682Y-64408859D01*
X73248708Y-64411383D01*
X73248701Y-64411385D01*
X73205239Y-64428592D01*
X73199712Y-64430485D01*
X73154809Y-64443531D01*
X73154808Y-64443531D01*
X73137474Y-64453782D01*
X73120012Y-64462336D01*
X73101300Y-64469745D01*
X73101295Y-64469748D01*
X73063473Y-64497226D01*
X73058591Y-64500433D01*
X73018341Y-64524238D01*
X73004107Y-64538472D01*
X72989318Y-64551104D01*
X72973032Y-64562937D01*
X72943227Y-64598963D01*
X72939295Y-64603285D01*
X72502501Y-65040078D01*
X72441178Y-65073563D01*
X72371486Y-65068579D01*
X72315553Y-65026707D01*
X72291136Y-64961243D01*
X72297277Y-64912905D01*
X72345742Y-64768658D01*
X72409941Y-64577578D01*
X72498201Y-64190885D01*
X72547521Y-63797325D01*
X72554923Y-63500500D01*
X72557409Y-63400826D01*
X72557409Y-63400810D01*
X72551382Y-63320380D01*
X72527769Y-63005280D01*
X72458893Y-62614668D01*
X72351467Y-62232854D01*
X72341303Y-62206957D01*
X72206564Y-61863646D01*
X72206559Y-61863634D01*
X72025613Y-61510685D01*
X72025609Y-61510677D01*
X71810414Y-61177491D01*
X71563114Y-60867386D01*
X71563111Y-60867383D01*
X71563104Y-60867374D01*
X71286176Y-60583455D01*
X71286173Y-60583452D01*
X71286172Y-60583451D01*
X71286167Y-60583446D01*
X70982324Y-60328492D01*
X70877841Y-60257257D01*
X70654605Y-60105057D01*
X70538494Y-60041826D01*
X70306270Y-59915364D01*
X70306262Y-59915360D01*
X70306259Y-59915359D01*
X69940777Y-59761296D01*
X69940761Y-59761290D01*
X69673952Y-59678991D01*
X69615693Y-59640421D01*
X69587536Y-59576476D01*
X69598419Y-59507459D01*
X69644887Y-59455283D01*
X69710502Y-59436500D01*
X99195199Y-59436500D01*
X99262238Y-59456185D01*
G37*
%TD.AperFunction*%
%TD*%
M02*
