%TF.GenerationSoftware,KiCad,Pcbnew,7.0.7*%
%TF.CreationDate,2023-11-04T22:35:43-05:00*%
%TF.ProjectId,LEDBreakout_Hardware,4c454442-7265-4616-9b6f-75745f486172,rev?*%
%TF.SameCoordinates,Original*%
%TF.FileFunction,Soldermask,Top*%
%TF.FilePolarity,Negative*%
%FSLAX46Y46*%
G04 Gerber Fmt 4.6, Leading zero omitted, Abs format (unit mm)*
G04 Created by KiCad (PCBNEW 7.0.7) date 2023-11-04 22:35:43*
%MOMM*%
%LPD*%
G01*
G04 APERTURE LIST*
G04 Aperture macros list*
%AMRoundRect*
0 Rectangle with rounded corners*
0 $1 Rounding radius*
0 $2 $3 $4 $5 $6 $7 $8 $9 X,Y pos of 4 corners*
0 Add a 4 corners polygon primitive as box body*
4,1,4,$2,$3,$4,$5,$6,$7,$8,$9,$2,$3,0*
0 Add four circle primitives for the rounded corners*
1,1,$1+$1,$2,$3*
1,1,$1+$1,$4,$5*
1,1,$1+$1,$6,$7*
1,1,$1+$1,$8,$9*
0 Add four rect primitives between the rounded corners*
20,1,$1+$1,$2,$3,$4,$5,0*
20,1,$1+$1,$4,$5,$6,$7,0*
20,1,$1+$1,$6,$7,$8,$9,0*
20,1,$1+$1,$8,$9,$2,$3,0*%
G04 Aperture macros list end*
%ADD10RoundRect,0.237500X0.250000X0.237500X-0.250000X0.237500X-0.250000X-0.237500X0.250000X-0.237500X0*%
%ADD11C,2.946400*%
%ADD12RoundRect,0.150000X0.587500X0.150000X-0.587500X0.150000X-0.587500X-0.150000X0.587500X-0.150000X0*%
%ADD13RoundRect,0.249999X-1.075001X0.450001X-1.075001X-0.450001X1.075001X-0.450001X1.075001X0.450001X0*%
%ADD14RoundRect,0.237500X0.237500X-0.250000X0.237500X0.250000X-0.237500X0.250000X-0.237500X-0.250000X0*%
%ADD15RoundRect,0.237500X-0.237500X0.250000X-0.237500X-0.250000X0.237500X-0.250000X0.237500X0.250000X0*%
%ADD16RoundRect,0.150000X-0.587500X-0.150000X0.587500X-0.150000X0.587500X0.150000X-0.587500X0.150000X0*%
%ADD17RoundRect,0.150000X-0.150000X0.587500X-0.150000X-0.587500X0.150000X-0.587500X0.150000X0.587500X0*%
%ADD18C,1.524000*%
%ADD19RoundRect,0.249999X0.450001X1.075001X-0.450001X1.075001X-0.450001X-1.075001X0.450001X-1.075001X0*%
%ADD20R,2.240000X2.240000*%
%ADD21O,2.240000X2.240000*%
G04 APERTURE END LIST*
D10*
%TO.C,R9*%
X68730500Y-69596000D03*
X66905500Y-69596000D03*
%TD*%
D11*
%TO.C,REF\u002A\u002A*%
X68580000Y-63500000D03*
%TD*%
D10*
%TO.C,R11*%
X68730500Y-74422000D03*
X66905500Y-74422000D03*
%TD*%
%TO.C,R12*%
X68730500Y-76708000D03*
X66905500Y-76708000D03*
%TD*%
%TO.C,R1*%
X89963000Y-73152000D03*
X88138000Y-73152000D03*
%TD*%
D12*
%TO.C,Q1*%
X95250000Y-81148000D03*
X95250000Y-79248000D03*
X93375000Y-80198000D03*
%TD*%
D11*
%TO.C,REF\u002A\u002A*%
X100330000Y-63500000D03*
%TD*%
D13*
%TO.C,R8*%
X98044000Y-79134000D03*
X98044000Y-83934000D03*
%TD*%
D14*
%TO.C,R2*%
X93472000Y-77112500D03*
X93472000Y-75287500D03*
%TD*%
D11*
%TO.C,REF\u002A\u002A*%
X100330000Y-95250000D03*
%TD*%
D15*
%TO.C,R5*%
X76708000Y-90019500D03*
X76708000Y-91844500D03*
%TD*%
%TO.C,R4*%
X72644000Y-83923500D03*
X72644000Y-85748500D03*
%TD*%
D12*
%TO.C,Q4*%
X97457500Y-88072000D03*
X97457500Y-86172000D03*
X95582500Y-87122000D03*
%TD*%
D16*
%TO.C,Q3*%
X79834500Y-94300000D03*
X79834500Y-96200000D03*
X81709500Y-95250000D03*
%TD*%
D11*
%TO.C,REF\u002A\u002A*%
X68580000Y-95250000D03*
%TD*%
D17*
%TO.C,Q2*%
X74422000Y-78818500D03*
X72522000Y-78818500D03*
X73472000Y-80693500D03*
%TD*%
D15*
%TO.C,R6*%
X88392000Y-91694000D03*
X88392000Y-93519000D03*
%TD*%
D18*
%TO.C,Conn1*%
X76835000Y-64135000D03*
X79375000Y-64135000D03*
X81915000Y-64135000D03*
X84455000Y-64135000D03*
X86995000Y-64135000D03*
X89535000Y-64135000D03*
X92075000Y-64135000D03*
%TD*%
D10*
%TO.C,R3*%
X78382500Y-76454000D03*
X76557500Y-76454000D03*
%TD*%
D19*
%TO.C,R7*%
X95618000Y-91948000D03*
X90818000Y-91948000D03*
%TD*%
D10*
%TO.C,R10*%
X68730500Y-72136000D03*
X66905500Y-72136000D03*
%TD*%
D20*
%TO.C,D1*%
X84836000Y-77216000D03*
D21*
X84836000Y-74676000D03*
%TD*%
D20*
%TO.C,D5*%
X80010000Y-89154000D03*
D21*
X80010000Y-91694000D03*
%TD*%
D20*
%TO.C,D2*%
X89916000Y-78486000D03*
D21*
X89916000Y-75946000D03*
%TD*%
D20*
%TO.C,D3*%
X79756000Y-79502000D03*
D21*
X77216000Y-79502000D03*
%TD*%
D20*
%TO.C,D6*%
X85090000Y-90510000D03*
D21*
X85090000Y-93050000D03*
%TD*%
D20*
%TO.C,D4*%
X77724000Y-84328000D03*
D21*
X75184000Y-84328000D03*
%TD*%
M02*
