%TF.GenerationSoftware,KiCad,Pcbnew,7.0.7*%
%TF.CreationDate,2023-11-05T11:25:06-06:00*%
%TF.ProjectId,LEDBreakout_Hardware,4c454442-7265-4616-9b6f-75745f486172,rev?*%
%TF.SameCoordinates,Original*%
%TF.FileFunction,Copper,L2,Bot*%
%TF.FilePolarity,Positive*%
%FSLAX46Y46*%
G04 Gerber Fmt 4.6, Leading zero omitted, Abs format (unit mm)*
G04 Created by KiCad (PCBNEW 7.0.7) date 2023-11-05 11:25:06*
%MOMM*%
%LPD*%
G01*
G04 APERTURE LIST*
G04 Aperture macros list*
%AMRoundRect*
0 Rectangle with rounded corners*
0 $1 Rounding radius*
0 $2 $3 $4 $5 $6 $7 $8 $9 X,Y pos of 4 corners*
0 Add a 4 corners polygon primitive as box body*
4,1,4,$2,$3,$4,$5,$6,$7,$8,$9,$2,$3,0*
0 Add four circle primitives for the rounded corners*
1,1,$1+$1,$2,$3*
1,1,$1+$1,$4,$5*
1,1,$1+$1,$6,$7*
1,1,$1+$1,$8,$9*
0 Add four rect primitives between the rounded corners*
20,1,$1+$1,$2,$3,$4,$5,0*
20,1,$1+$1,$4,$5,$6,$7,0*
20,1,$1+$1,$6,$7,$8,$9,0*
20,1,$1+$1,$8,$9,$2,$3,0*%
G04 Aperture macros list end*
%TA.AperFunction,ComponentPad*%
%ADD10C,1.524000*%
%TD*%
%TA.AperFunction,ComponentPad*%
%ADD11R,2.240000X2.240000*%
%TD*%
%TA.AperFunction,ComponentPad*%
%ADD12O,2.240000X2.240000*%
%TD*%
%TA.AperFunction,SMDPad,CuDef*%
%ADD13RoundRect,0.305000X0.305000X0.780000X-0.305000X0.780000X-0.305000X-0.780000X0.305000X-0.780000X0*%
%TD*%
%TA.AperFunction,SMDPad,CuDef*%
%ADD14RoundRect,0.542500X0.601500X0.542500X-0.601500X0.542500X-0.601500X-0.542500X0.601500X-0.542500X0*%
%TD*%
%TA.AperFunction,ViaPad*%
%ADD15C,0.800000*%
%TD*%
%TA.AperFunction,Conductor*%
%ADD16C,0.254000*%
%TD*%
%TA.AperFunction,Conductor*%
%ADD17C,0.250000*%
%TD*%
G04 APERTURE END LIST*
D10*
%TO.P,Conn1,1*%
%TO.N,530nm*%
X76835000Y-64135000D03*
%TO.P,Conn1,2*%
%TO.N,522nm*%
X79375000Y-64135000D03*
%TO.P,Conn1,3*%
%TO.N,465nm*%
X81915000Y-64135000D03*
%TO.P,Conn1,4*%
%TO.N,400nm*%
X84455000Y-64135000D03*
%TO.P,Conn1,5*%
%TO.N,+5V*%
X86995000Y-64135000D03*
%TO.P,Conn1,6*%
%TO.N,GND*%
X89535000Y-64135000D03*
%TO.P,Conn1,7*%
X92075000Y-64135000D03*
%TD*%
D11*
%TO.P,D1,1,K*%
%TO.N,Net-(D1-K)*%
X84595000Y-72771000D03*
D12*
%TO.P,D1,2,A*%
%TO.N,Net-(D1-A)*%
X84595000Y-70231000D03*
%TD*%
D13*
%TO.P,D8,1,K*%
%TO.N,Net-(D7-K)*%
X93767000Y-79171800D03*
D14*
%TO.P,D8,2,A*%
%TO.N,Net-(D8-A)*%
X91667000Y-79171800D03*
%TD*%
D11*
%TO.P,D5,1,K*%
%TO.N,Net-(D5-K)*%
X79769000Y-84709000D03*
D12*
%TO.P,D5,2,A*%
%TO.N,Net-(D5-A)*%
X79769000Y-87249000D03*
%TD*%
D11*
%TO.P,D2,1,K*%
%TO.N,Net-(D1-K)*%
X89675000Y-74041000D03*
D12*
%TO.P,D2,2,A*%
%TO.N,Net-(D2-A)*%
X89675000Y-71501000D03*
%TD*%
D11*
%TO.P,D3,1,K*%
%TO.N,Net-(D3-K)*%
X79515000Y-75057000D03*
D12*
%TO.P,D3,2,A*%
%TO.N,Net-(D3-A)*%
X76975000Y-75057000D03*
%TD*%
D13*
%TO.P,D7,1,K*%
%TO.N,Net-(D7-K)*%
X91489200Y-84251800D03*
D14*
%TO.P,D7,2,A*%
%TO.N,Net-(D7-A)*%
X89389200Y-84251800D03*
%TD*%
D11*
%TO.P,D6,1,K*%
%TO.N,Net-(D5-K)*%
X84849000Y-86065000D03*
D12*
%TO.P,D6,2,A*%
%TO.N,Net-(D6-A)*%
X84849000Y-88605000D03*
%TD*%
D11*
%TO.P,D4,1,K*%
%TO.N,Net-(D3-K)*%
X77483000Y-79883000D03*
D12*
%TO.P,D4,2,A*%
%TO.N,Net-(D4-A)*%
X74943000Y-79883000D03*
%TD*%
D15*
%TO.N,400nm*%
X82133500Y-75438000D03*
%TO.N,530nm*%
X80454500Y-72834500D03*
%TO.N,465nm*%
X81407000Y-76454000D03*
%TO.N,GND*%
X66040000Y-74930000D03*
X98806000Y-81727000D03*
X66040000Y-90273500D03*
X66040000Y-85090000D03*
X77991000Y-91755000D03*
X95009000Y-73533000D03*
X66040000Y-80010000D03*
X72263000Y-72898000D03*
%TO.N,Net-(D7-K)*%
X93739000Y-81153000D03*
X93739000Y-82677000D03*
%TO.N,522nm*%
X77851000Y-69088000D03*
%TO.N,Net-(D7-A)*%
X89167000Y-86233000D03*
%TO.N,Net-(D8-A)*%
X95517000Y-78613000D03*
%TD*%
D16*
%TO.N,400nm*%
X82133500Y-66456500D02*
X84455000Y-64135000D01*
X82133500Y-75438000D02*
X82133500Y-66456500D01*
%TO.N,465nm*%
X81407000Y-64643000D02*
X81915000Y-64135000D01*
X81407000Y-76454000D02*
X81407000Y-64643000D01*
%TO.N,530nm*%
X76835000Y-69215000D02*
X76835000Y-64135000D01*
X80454500Y-72834500D02*
X76835000Y-69215000D01*
%TO.N,522nm*%
X77851000Y-65659000D02*
X79375000Y-64135000D01*
X77851000Y-69088000D02*
X77851000Y-65659000D01*
D17*
%TO.N,Net-(D7-K)*%
X93739000Y-82677000D02*
X92164200Y-84251800D01*
X92164200Y-84251800D02*
X91489200Y-84251800D01*
%TO.N,Net-(D8-A)*%
X93077000Y-77761800D02*
X91667000Y-79171800D01*
X95517000Y-78613000D02*
X94665800Y-77761800D01*
X94665800Y-77761800D02*
X93077000Y-77761800D01*
D16*
%TO.N,Net-(D7-K)*%
X93739000Y-79199800D02*
X93767000Y-79171800D01*
X93739000Y-81153000D02*
X93739000Y-79199800D01*
D17*
%TO.N,Net-(D7-A)*%
X89167000Y-86233000D02*
X89167000Y-84474000D01*
X89167000Y-84474000D02*
X89389200Y-84251800D01*
%TD*%
%TA.AperFunction,Conductor*%
%TO.N,GND*%
G36*
X99262238Y-59456185D02*
G01*
X99307993Y-59508989D01*
X99317937Y-59578147D01*
X99288912Y-59641703D01*
X99230134Y-59679477D01*
X99225797Y-59680666D01*
X99157272Y-59698114D01*
X98784549Y-59833774D01*
X98427191Y-60005869D01*
X98088753Y-60212684D01*
X98088742Y-60212692D01*
X97772575Y-60452180D01*
X97772572Y-60452182D01*
X97481813Y-60721968D01*
X97219365Y-61019359D01*
X96987839Y-61341393D01*
X96987826Y-61341413D01*
X96789516Y-61684896D01*
X96626382Y-62046437D01*
X96500059Y-62422419D01*
X96411799Y-62809111D01*
X96362478Y-63202681D01*
X96352590Y-63599173D01*
X96352590Y-63599187D01*
X96382230Y-63994711D01*
X96382231Y-63994724D01*
X96451108Y-64385339D01*
X96558530Y-64767137D01*
X96558534Y-64767151D01*
X96703435Y-65136353D01*
X96703440Y-65136365D01*
X96840640Y-65403984D01*
X96884391Y-65489323D01*
X97099586Y-65822509D01*
X97225691Y-65980640D01*
X97346895Y-66132625D01*
X97623823Y-66416544D01*
X97623833Y-66416554D01*
X97927676Y-66671508D01*
X98255394Y-66894942D01*
X98603730Y-67084636D01*
X98969223Y-67238704D01*
X98969232Y-67238706D01*
X98969238Y-67238709D01*
X99348235Y-67355614D01*
X99348248Y-67355617D01*
X99736999Y-67434205D01*
X99737014Y-67434208D01*
X100075300Y-67468058D01*
X100131680Y-67473700D01*
X100131681Y-67473700D01*
X100429103Y-67473700D01*
X100627130Y-67463816D01*
X100726145Y-67458875D01*
X101118353Y-67399759D01*
X101502726Y-67301886D01*
X101875445Y-67166228D01*
X102232803Y-66994133D01*
X102571251Y-66787312D01*
X102887424Y-66547820D01*
X103178181Y-66278037D01*
X103440631Y-65980645D01*
X103672166Y-65658600D01*
X103870485Y-65315101D01*
X104033617Y-64953563D01*
X104151957Y-64601340D01*
X104191968Y-64544061D01*
X104256594Y-64517506D01*
X104325318Y-64530107D01*
X104376321Y-64577862D01*
X104393500Y-64640833D01*
X104393500Y-94122243D01*
X104373815Y-94189282D01*
X104321011Y-94235037D01*
X104251853Y-94244981D01*
X104188297Y-94215956D01*
X104150523Y-94157178D01*
X104150135Y-94155827D01*
X104101469Y-93982862D01*
X104101465Y-93982848D01*
X103956564Y-93613646D01*
X103956559Y-93613634D01*
X103775613Y-93260685D01*
X103775609Y-93260677D01*
X103560414Y-92927491D01*
X103313114Y-92617386D01*
X103313111Y-92617383D01*
X103313104Y-92617374D01*
X103036176Y-92333455D01*
X103036173Y-92333452D01*
X103036172Y-92333451D01*
X103036167Y-92333446D01*
X102732324Y-92078492D01*
X102659613Y-92028918D01*
X102404605Y-91855057D01*
X102288494Y-91791826D01*
X102056270Y-91665364D01*
X102056262Y-91665360D01*
X102056259Y-91665359D01*
X101690777Y-91511296D01*
X101690761Y-91511290D01*
X101311764Y-91394385D01*
X101311751Y-91394382D01*
X100923000Y-91315794D01*
X100922979Y-91315791D01*
X100528320Y-91276300D01*
X100528319Y-91276300D01*
X100230899Y-91276300D01*
X100230897Y-91276300D01*
X99933855Y-91291124D01*
X99541647Y-91350241D01*
X99157272Y-91448114D01*
X98784549Y-91583774D01*
X98427191Y-91755869D01*
X98088753Y-91962684D01*
X98088742Y-91962692D01*
X97772575Y-92202180D01*
X97772572Y-92202182D01*
X97481813Y-92471968D01*
X97219365Y-92769359D01*
X96987839Y-93091393D01*
X96987826Y-93091413D01*
X96789516Y-93434896D01*
X96626382Y-93796437D01*
X96500059Y-94172419D01*
X96411799Y-94559111D01*
X96362478Y-94952681D01*
X96352590Y-95349173D01*
X96352590Y-95349187D01*
X96382230Y-95744711D01*
X96382231Y-95744724D01*
X96451108Y-96135339D01*
X96558530Y-96517137D01*
X96558534Y-96517151D01*
X96703435Y-96886353D01*
X96703440Y-96886365D01*
X96884386Y-97239314D01*
X96884391Y-97239323D01*
X97099586Y-97572509D01*
X97346886Y-97882614D01*
X97346895Y-97882625D01*
X97623823Y-98166544D01*
X97623833Y-98166554D01*
X97927676Y-98421508D01*
X98255394Y-98644942D01*
X98603730Y-98834636D01*
X98969223Y-98988704D01*
X98969232Y-98988706D01*
X98969238Y-98988709D01*
X99236048Y-99071009D01*
X99294307Y-99109579D01*
X99322464Y-99173524D01*
X99311581Y-99242541D01*
X99265113Y-99294717D01*
X99199498Y-99313500D01*
X69714801Y-99313500D01*
X69647762Y-99293815D01*
X69602007Y-99241011D01*
X69592063Y-99171853D01*
X69621088Y-99108297D01*
X69679866Y-99070523D01*
X69684203Y-99069334D01*
X69752726Y-99051886D01*
X70125445Y-98916228D01*
X70482803Y-98744133D01*
X70821251Y-98537312D01*
X71137424Y-98297820D01*
X71428181Y-98028037D01*
X71690631Y-97730645D01*
X71922166Y-97408600D01*
X72120485Y-97065101D01*
X72283617Y-96703563D01*
X72409941Y-96327578D01*
X72498201Y-95940885D01*
X72547521Y-95547325D01*
X72552462Y-95349173D01*
X72557409Y-95150826D01*
X72557409Y-95150810D01*
X72557409Y-95150809D01*
X72527769Y-94755280D01*
X72458893Y-94364668D01*
X72422420Y-94235037D01*
X72351469Y-93982862D01*
X72351465Y-93982848D01*
X72206564Y-93613646D01*
X72206559Y-93613634D01*
X72025613Y-93260685D01*
X72025609Y-93260677D01*
X71810414Y-92927491D01*
X71563114Y-92617386D01*
X71563111Y-92617383D01*
X71563104Y-92617374D01*
X71286176Y-92333455D01*
X71286173Y-92333452D01*
X71286172Y-92333451D01*
X71286167Y-92333446D01*
X70982324Y-92078492D01*
X70909613Y-92028918D01*
X70654605Y-91855057D01*
X70538494Y-91791826D01*
X70306270Y-91665364D01*
X70306262Y-91665360D01*
X70306259Y-91665359D01*
X69940777Y-91511296D01*
X69940761Y-91511290D01*
X69561764Y-91394385D01*
X69561751Y-91394382D01*
X69173000Y-91315794D01*
X69172979Y-91315791D01*
X68778320Y-91276300D01*
X68778319Y-91276300D01*
X68480899Y-91276300D01*
X68480897Y-91276300D01*
X68183855Y-91291124D01*
X67791647Y-91350241D01*
X67407272Y-91448114D01*
X67034549Y-91583774D01*
X66677191Y-91755869D01*
X66338753Y-91962684D01*
X66338742Y-91962692D01*
X66022575Y-92202180D01*
X66022572Y-92202182D01*
X65731813Y-92471968D01*
X65469365Y-92769359D01*
X65237839Y-93091393D01*
X65237826Y-93091413D01*
X65039516Y-93434896D01*
X64876382Y-93796437D01*
X64758043Y-94148658D01*
X64718032Y-94205938D01*
X64653406Y-94232493D01*
X64584682Y-94219892D01*
X64533679Y-94172137D01*
X64516500Y-94109166D01*
X64516500Y-87249000D01*
X78143489Y-87249000D01*
X78163502Y-87503289D01*
X78223044Y-87751301D01*
X78223049Y-87751318D01*
X78320656Y-87986963D01*
X78320658Y-87986966D01*
X78453930Y-88204445D01*
X78453936Y-88204454D01*
X78619587Y-88398407D01*
X78619590Y-88398410D01*
X78813549Y-88564066D01*
X78813555Y-88564069D01*
X78813554Y-88564069D01*
X79031033Y-88697341D01*
X79031036Y-88697343D01*
X79266681Y-88794950D01*
X79266683Y-88794950D01*
X79266689Y-88794953D01*
X79514714Y-88854498D01*
X79769000Y-88874511D01*
X80023286Y-88854498D01*
X80271311Y-88794953D01*
X80324700Y-88772838D01*
X80506963Y-88697343D01*
X80506964Y-88697342D01*
X80506967Y-88697341D01*
X80657653Y-88605000D01*
X83223489Y-88605000D01*
X83243502Y-88859289D01*
X83303044Y-89107301D01*
X83303049Y-89107318D01*
X83400656Y-89342963D01*
X83400658Y-89342966D01*
X83533930Y-89560445D01*
X83533936Y-89560454D01*
X83699587Y-89754407D01*
X83699590Y-89754410D01*
X83893549Y-89920066D01*
X83893555Y-89920069D01*
X83893554Y-89920069D01*
X84111033Y-90053341D01*
X84111036Y-90053343D01*
X84346681Y-90150950D01*
X84346683Y-90150950D01*
X84346689Y-90150953D01*
X84594714Y-90210498D01*
X84849000Y-90230511D01*
X85103286Y-90210498D01*
X85351311Y-90150953D01*
X85404700Y-90128838D01*
X85586963Y-90053343D01*
X85586964Y-90053342D01*
X85586967Y-90053341D01*
X85804451Y-89920066D01*
X85998410Y-89754410D01*
X86164066Y-89560451D01*
X86297341Y-89342967D01*
X86394953Y-89107311D01*
X86454498Y-88859286D01*
X86474511Y-88605000D01*
X86454498Y-88350714D01*
X86394953Y-88102689D01*
X86394950Y-88102681D01*
X86297343Y-87867036D01*
X86297341Y-87867033D01*
X86229250Y-87755919D01*
X86211005Y-87688474D01*
X86232121Y-87621871D01*
X86260663Y-87591865D01*
X86326546Y-87542546D01*
X86412796Y-87427331D01*
X86463091Y-87292483D01*
X86469500Y-87232873D01*
X86469499Y-84897128D01*
X86463953Y-84845538D01*
X87744700Y-84845538D01*
X87759790Y-84998760D01*
X87819433Y-85195376D01*
X87916277Y-85376558D01*
X87916281Y-85376565D01*
X88046618Y-85535381D01*
X88205434Y-85665718D01*
X88205437Y-85665720D01*
X88219746Y-85673368D01*
X88283798Y-85707604D01*
X88333643Y-85756566D01*
X88349104Y-85824704D01*
X88340880Y-85858226D01*
X88341829Y-85858535D01*
X88316502Y-85936483D01*
X88281326Y-86044744D01*
X88261540Y-86233000D01*
X88281326Y-86421256D01*
X88281327Y-86421259D01*
X88339818Y-86601277D01*
X88339821Y-86601284D01*
X88434467Y-86765216D01*
X88561128Y-86905888D01*
X88561129Y-86905888D01*
X88714265Y-87017148D01*
X88714270Y-87017151D01*
X88887192Y-87094142D01*
X88887197Y-87094144D01*
X89072354Y-87133500D01*
X89072355Y-87133500D01*
X89261644Y-87133500D01*
X89261646Y-87133500D01*
X89446803Y-87094144D01*
X89619730Y-87017151D01*
X89772871Y-86905888D01*
X89899533Y-86765216D01*
X89994179Y-86601284D01*
X90052674Y-86421256D01*
X90072460Y-86233000D01*
X90052674Y-86044744D01*
X90034664Y-85989318D01*
X90032670Y-85919478D01*
X90068750Y-85859645D01*
X90131451Y-85828817D01*
X90140438Y-85827598D01*
X90195164Y-85822209D01*
X90391770Y-85762569D01*
X90566818Y-85669003D01*
X90635220Y-85654762D01*
X90691243Y-85673368D01*
X90832495Y-85762123D01*
X91003824Y-85822073D01*
X91003825Y-85822074D01*
X91003830Y-85822075D01*
X91094889Y-85832334D01*
X91138956Y-85837299D01*
X91138959Y-85837300D01*
X91138962Y-85837300D01*
X91839441Y-85837300D01*
X91839442Y-85837299D01*
X91914728Y-85828817D01*
X91974569Y-85822075D01*
X91974572Y-85822074D01*
X91974575Y-85822074D01*
X92145905Y-85762123D01*
X92299599Y-85665550D01*
X92427950Y-85537199D01*
X92524523Y-85383505D01*
X92584474Y-85212175D01*
X92586368Y-85195370D01*
X92599699Y-85077044D01*
X92599700Y-85077040D01*
X92599700Y-84752251D01*
X92619385Y-84685212D01*
X92636019Y-84664570D01*
X93686771Y-83613819D01*
X93748094Y-83580334D01*
X93774452Y-83577500D01*
X93833644Y-83577500D01*
X93833646Y-83577500D01*
X94018803Y-83538144D01*
X94191730Y-83461151D01*
X94344871Y-83349888D01*
X94471533Y-83209216D01*
X94566179Y-83045284D01*
X94624674Y-82865256D01*
X94644460Y-82677000D01*
X94624674Y-82488744D01*
X94566179Y-82308716D01*
X94471533Y-82144784D01*
X94344871Y-82004112D01*
X94344870Y-82004111D01*
X94340522Y-81999282D01*
X94342372Y-81997616D01*
X94311597Y-81947667D01*
X94312925Y-81877810D01*
X94342211Y-81832239D01*
X94340522Y-81830718D01*
X94344871Y-81825888D01*
X94471533Y-81685216D01*
X94566179Y-81521284D01*
X94624674Y-81341256D01*
X94644460Y-81153000D01*
X94624674Y-80964744D01*
X94566179Y-80784716D01*
X94544334Y-80746880D01*
X94527861Y-80678982D01*
X94550713Y-80612955D01*
X94574413Y-80587930D01*
X94577388Y-80585556D01*
X94577399Y-80585550D01*
X94705750Y-80457199D01*
X94802323Y-80303505D01*
X94862274Y-80132175D01*
X94864168Y-80115370D01*
X94877499Y-79997044D01*
X94877500Y-79997038D01*
X94877500Y-79504089D01*
X94897183Y-79437054D01*
X94949987Y-79391299D01*
X95019146Y-79381355D01*
X95058176Y-79394862D01*
X95058334Y-79394508D01*
X95062454Y-79396342D01*
X95063493Y-79396702D01*
X95064272Y-79397152D01*
X95237192Y-79474142D01*
X95237197Y-79474144D01*
X95422354Y-79513500D01*
X95422355Y-79513500D01*
X95611644Y-79513500D01*
X95611646Y-79513500D01*
X95796803Y-79474144D01*
X95969730Y-79397151D01*
X96122871Y-79285888D01*
X96249533Y-79145216D01*
X96344179Y-78981284D01*
X96402674Y-78801256D01*
X96422460Y-78613000D01*
X96402674Y-78424744D01*
X96344179Y-78244716D01*
X96249533Y-78080784D01*
X96122871Y-77940112D01*
X96122870Y-77940111D01*
X95969734Y-77828851D01*
X95969729Y-77828848D01*
X95796807Y-77751857D01*
X95796802Y-77751855D01*
X95651001Y-77720865D01*
X95611646Y-77712500D01*
X95611645Y-77712500D01*
X95552453Y-77712500D01*
X95485414Y-77692815D01*
X95464772Y-77676181D01*
X95166603Y-77378012D01*
X95156780Y-77365750D01*
X95156559Y-77365934D01*
X95151586Y-77359923D01*
X95132959Y-77342431D01*
X95101164Y-77312573D01*
X95090719Y-77302128D01*
X95080275Y-77291683D01*
X95074786Y-77287425D01*
X95070361Y-77283647D01*
X95036382Y-77251738D01*
X95036380Y-77251736D01*
X95036377Y-77251735D01*
X95018829Y-77242088D01*
X95002563Y-77231404D01*
X94986733Y-77219125D01*
X94943968Y-77200618D01*
X94938722Y-77198048D01*
X94897893Y-77175603D01*
X94897892Y-77175602D01*
X94878493Y-77170622D01*
X94860081Y-77164318D01*
X94841698Y-77156362D01*
X94841692Y-77156360D01*
X94795674Y-77149072D01*
X94789952Y-77147887D01*
X94744821Y-77136300D01*
X94744819Y-77136300D01*
X94724784Y-77136300D01*
X94705386Y-77134773D01*
X94697962Y-77133597D01*
X94685605Y-77131640D01*
X94685604Y-77131640D01*
X94639216Y-77136025D01*
X94633378Y-77136300D01*
X93159738Y-77136300D01*
X93144121Y-77134576D01*
X93144094Y-77134862D01*
X93136332Y-77134127D01*
X93067204Y-77136300D01*
X93037650Y-77136300D01*
X93036929Y-77136390D01*
X93030757Y-77137169D01*
X93024945Y-77137626D01*
X92978373Y-77139090D01*
X92978372Y-77139090D01*
X92959129Y-77144681D01*
X92940079Y-77148625D01*
X92920211Y-77151134D01*
X92920209Y-77151135D01*
X92876884Y-77168288D01*
X92871357Y-77170180D01*
X92826610Y-77183181D01*
X92826609Y-77183182D01*
X92809367Y-77193379D01*
X92791899Y-77201937D01*
X92773269Y-77209313D01*
X92773267Y-77209314D01*
X92735576Y-77236698D01*
X92730694Y-77239905D01*
X92690579Y-77263630D01*
X92676408Y-77277800D01*
X92661623Y-77290428D01*
X92645412Y-77302207D01*
X92615709Y-77338110D01*
X92611777Y-77342431D01*
X92404226Y-77549981D01*
X92342903Y-77583466D01*
X92316545Y-77586300D01*
X91014261Y-77586300D01*
X90861039Y-77601390D01*
X90664423Y-77661033D01*
X90483241Y-77757877D01*
X90483234Y-77757881D01*
X90324418Y-77888218D01*
X90194081Y-78047034D01*
X90194077Y-78047041D01*
X90097233Y-78228223D01*
X90037590Y-78424839D01*
X90033011Y-78471334D01*
X90023498Y-78567930D01*
X90022500Y-78578060D01*
X90022500Y-79765538D01*
X90037590Y-79918760D01*
X90097233Y-80115376D01*
X90194077Y-80296558D01*
X90194081Y-80296565D01*
X90324418Y-80455381D01*
X90483234Y-80585718D01*
X90483241Y-80585722D01*
X90664423Y-80682566D01*
X90664426Y-80682566D01*
X90664430Y-80682569D01*
X90861036Y-80742209D01*
X91014257Y-80757300D01*
X92319742Y-80757299D01*
X92472964Y-80742209D01*
X92669570Y-80682569D01*
X92695343Y-80668792D01*
X92731377Y-80649533D01*
X92799779Y-80635291D01*
X92865023Y-80660291D01*
X92906394Y-80716596D01*
X92910756Y-80786329D01*
X92907761Y-80797209D01*
X92894363Y-80838445D01*
X92853326Y-80964744D01*
X92833540Y-81153000D01*
X92853326Y-81341256D01*
X92853327Y-81341259D01*
X92911818Y-81521277D01*
X92911821Y-81521284D01*
X93006467Y-81685216D01*
X93133129Y-81825888D01*
X93137478Y-81830718D01*
X93135633Y-81832378D01*
X93166413Y-81882374D01*
X93165061Y-81952230D01*
X93135796Y-81997767D01*
X93137478Y-81999282D01*
X93006466Y-82144785D01*
X92911821Y-82308715D01*
X92911818Y-82308722D01*
X92853327Y-82488740D01*
X92853326Y-82488744D01*
X92835679Y-82656649D01*
X92809094Y-82721263D01*
X92800039Y-82731368D01*
X92584159Y-82947248D01*
X92522836Y-82980733D01*
X92453144Y-82975749D01*
X92408797Y-82947248D01*
X92299598Y-82838049D01*
X92145906Y-82741477D01*
X91974574Y-82681525D01*
X91974569Y-82681524D01*
X91839444Y-82666300D01*
X91839438Y-82666300D01*
X91138962Y-82666300D01*
X91138955Y-82666300D01*
X91003830Y-82681524D01*
X91003825Y-82681525D01*
X90832493Y-82741477D01*
X90691243Y-82830231D01*
X90624006Y-82849231D01*
X90566818Y-82834595D01*
X90391776Y-82741033D01*
X90391770Y-82741031D01*
X90195164Y-82681391D01*
X90195162Y-82681390D01*
X90195160Y-82681390D01*
X90102303Y-82672244D01*
X90041943Y-82666300D01*
X90041939Y-82666300D01*
X88736461Y-82666300D01*
X88583239Y-82681390D01*
X88386623Y-82741033D01*
X88205441Y-82837877D01*
X88205434Y-82837881D01*
X88046618Y-82968218D01*
X87916281Y-83127034D01*
X87916277Y-83127041D01*
X87819433Y-83308223D01*
X87759790Y-83504839D01*
X87744700Y-83658060D01*
X87744700Y-84845538D01*
X86463953Y-84845538D01*
X86463091Y-84837517D01*
X86412796Y-84702669D01*
X86412795Y-84702668D01*
X86412793Y-84702664D01*
X86326547Y-84587455D01*
X86326544Y-84587452D01*
X86211335Y-84501206D01*
X86211328Y-84501202D01*
X86076482Y-84450908D01*
X86076483Y-84450908D01*
X86016883Y-84444501D01*
X86016881Y-84444500D01*
X86016873Y-84444500D01*
X86016864Y-84444500D01*
X83681129Y-84444500D01*
X83681123Y-84444501D01*
X83621516Y-84450908D01*
X83486671Y-84501202D01*
X83486664Y-84501206D01*
X83371455Y-84587452D01*
X83371452Y-84587455D01*
X83285206Y-84702664D01*
X83285202Y-84702671D01*
X83234908Y-84837517D01*
X83228501Y-84897116D01*
X83228501Y-84897123D01*
X83228500Y-84897135D01*
X83228500Y-87232870D01*
X83228501Y-87232876D01*
X83234908Y-87292483D01*
X83285202Y-87427328D01*
X83285206Y-87427335D01*
X83371452Y-87542544D01*
X83371453Y-87542544D01*
X83371454Y-87542546D01*
X83418395Y-87577686D01*
X83437334Y-87591864D01*
X83479204Y-87647798D01*
X83484188Y-87717490D01*
X83468749Y-87755920D01*
X83400658Y-87867033D01*
X83400656Y-87867036D01*
X83303049Y-88102681D01*
X83303044Y-88102698D01*
X83243502Y-88350710D01*
X83223489Y-88605000D01*
X80657653Y-88605000D01*
X80724451Y-88564066D01*
X80918410Y-88398410D01*
X81084066Y-88204451D01*
X81217341Y-87986967D01*
X81314953Y-87751311D01*
X81374498Y-87503286D01*
X81394511Y-87249000D01*
X81374498Y-86994714D01*
X81314953Y-86746689D01*
X81314950Y-86746681D01*
X81217343Y-86511036D01*
X81217341Y-86511033D01*
X81149250Y-86399919D01*
X81131005Y-86332474D01*
X81152121Y-86265871D01*
X81180663Y-86235865D01*
X81246546Y-86186546D01*
X81332796Y-86071331D01*
X81383091Y-85936483D01*
X81389500Y-85876873D01*
X81389499Y-83541128D01*
X81383091Y-83481517D01*
X81332796Y-83346669D01*
X81332795Y-83346668D01*
X81332793Y-83346664D01*
X81246547Y-83231455D01*
X81246544Y-83231452D01*
X81131335Y-83145206D01*
X81131328Y-83145202D01*
X80996482Y-83094908D01*
X80996483Y-83094908D01*
X80936883Y-83088501D01*
X80936881Y-83088500D01*
X80936873Y-83088500D01*
X80936864Y-83088500D01*
X78601129Y-83088500D01*
X78601123Y-83088501D01*
X78541516Y-83094908D01*
X78406671Y-83145202D01*
X78406664Y-83145206D01*
X78291455Y-83231452D01*
X78291452Y-83231455D01*
X78205206Y-83346664D01*
X78205202Y-83346671D01*
X78154908Y-83481517D01*
X78148501Y-83541116D01*
X78148501Y-83541123D01*
X78148500Y-83541135D01*
X78148501Y-85876865D01*
X78148501Y-85876876D01*
X78154908Y-85936483D01*
X78205202Y-86071328D01*
X78205206Y-86071335D01*
X78291452Y-86186544D01*
X78291453Y-86186544D01*
X78291454Y-86186546D01*
X78338395Y-86221686D01*
X78357334Y-86235864D01*
X78399204Y-86291798D01*
X78404188Y-86361490D01*
X78388749Y-86399920D01*
X78320658Y-86511033D01*
X78320656Y-86511036D01*
X78223049Y-86746681D01*
X78223044Y-86746698D01*
X78163502Y-86994710D01*
X78143489Y-87249000D01*
X64516500Y-87249000D01*
X64516500Y-79883000D01*
X73317489Y-79883000D01*
X73337502Y-80137289D01*
X73397044Y-80385301D01*
X73397049Y-80385318D01*
X73494656Y-80620963D01*
X73494658Y-80620966D01*
X73627930Y-80838445D01*
X73627936Y-80838454D01*
X73735798Y-80964744D01*
X73793590Y-81032410D01*
X73987549Y-81198066D01*
X73987555Y-81198069D01*
X73987554Y-81198069D01*
X74205033Y-81331341D01*
X74205036Y-81331343D01*
X74440681Y-81428950D01*
X74440683Y-81428950D01*
X74440689Y-81428953D01*
X74688714Y-81488498D01*
X74943000Y-81508511D01*
X75197286Y-81488498D01*
X75445311Y-81428953D01*
X75680967Y-81331341D01*
X75792082Y-81263249D01*
X75859525Y-81245005D01*
X75926128Y-81266121D01*
X75956134Y-81294663D01*
X76005454Y-81360546D01*
X76051643Y-81395123D01*
X76120664Y-81446793D01*
X76120671Y-81446797D01*
X76255517Y-81497091D01*
X76255516Y-81497091D01*
X76262444Y-81497835D01*
X76315127Y-81503500D01*
X78650872Y-81503499D01*
X78710483Y-81497091D01*
X78845331Y-81446796D01*
X78960546Y-81360546D01*
X79046796Y-81245331D01*
X79097091Y-81110483D01*
X79103500Y-81050873D01*
X79103499Y-78715128D01*
X79097091Y-78655517D01*
X79081233Y-78613000D01*
X79046797Y-78520671D01*
X79046793Y-78520664D01*
X78960547Y-78405455D01*
X78960544Y-78405452D01*
X78845335Y-78319206D01*
X78845328Y-78319202D01*
X78710482Y-78268908D01*
X78710483Y-78268908D01*
X78650883Y-78262501D01*
X78650881Y-78262500D01*
X78650873Y-78262500D01*
X78650864Y-78262500D01*
X76315129Y-78262500D01*
X76315123Y-78262501D01*
X76255516Y-78268908D01*
X76120671Y-78319202D01*
X76120664Y-78319206D01*
X76005455Y-78405452D01*
X75956136Y-78471334D01*
X75900202Y-78513204D01*
X75830510Y-78518188D01*
X75792080Y-78502749D01*
X75680966Y-78434658D01*
X75680963Y-78434656D01*
X75445318Y-78337049D01*
X75445301Y-78337044D01*
X75197289Y-78277502D01*
X74943000Y-78257489D01*
X74688710Y-78277502D01*
X74440698Y-78337044D01*
X74440681Y-78337049D01*
X74205036Y-78434656D01*
X74205033Y-78434658D01*
X73987554Y-78567930D01*
X73987545Y-78567936D01*
X73793592Y-78733587D01*
X73793587Y-78733592D01*
X73627936Y-78927545D01*
X73627930Y-78927554D01*
X73494658Y-79145033D01*
X73494656Y-79145036D01*
X73397049Y-79380681D01*
X73397044Y-79380698D01*
X73337502Y-79628710D01*
X73317489Y-79883000D01*
X64516500Y-79883000D01*
X64516500Y-79380681D01*
X64516500Y-75057000D01*
X75349489Y-75057000D01*
X75369502Y-75311289D01*
X75429044Y-75559301D01*
X75429049Y-75559318D01*
X75526656Y-75794963D01*
X75526658Y-75794966D01*
X75659930Y-76012445D01*
X75659936Y-76012454D01*
X75825587Y-76206407D01*
X75825592Y-76206412D01*
X75952476Y-76314781D01*
X76019549Y-76372066D01*
X76019555Y-76372069D01*
X76019554Y-76372069D01*
X76237033Y-76505341D01*
X76237036Y-76505343D01*
X76472681Y-76602950D01*
X76472683Y-76602950D01*
X76472689Y-76602953D01*
X76720714Y-76662498D01*
X76975000Y-76682511D01*
X77229286Y-76662498D01*
X77477311Y-76602953D01*
X77712967Y-76505341D01*
X77824082Y-76437249D01*
X77891525Y-76419005D01*
X77958128Y-76440121D01*
X77988134Y-76468663D01*
X78037454Y-76534546D01*
X78083643Y-76569123D01*
X78152664Y-76620793D01*
X78152671Y-76620797D01*
X78287517Y-76671091D01*
X78287516Y-76671091D01*
X78294444Y-76671835D01*
X78347127Y-76677500D01*
X80442685Y-76677499D01*
X80509724Y-76697184D01*
X80555479Y-76749987D01*
X80560616Y-76763179D01*
X80579820Y-76822282D01*
X80579821Y-76822284D01*
X80674467Y-76986216D01*
X80801128Y-77126888D01*
X80801129Y-77126888D01*
X80954265Y-77238148D01*
X80954270Y-77238151D01*
X81127192Y-77315142D01*
X81127197Y-77315144D01*
X81312354Y-77354500D01*
X81312355Y-77354500D01*
X81501644Y-77354500D01*
X81501646Y-77354500D01*
X81686803Y-77315144D01*
X81859730Y-77238151D01*
X82012871Y-77126888D01*
X82139533Y-76986216D01*
X82234179Y-76822284D01*
X82292674Y-76642256D01*
X82312460Y-76454000D01*
X82310414Y-76434535D01*
X82322981Y-76365805D01*
X82370712Y-76314781D01*
X82407950Y-76300281D01*
X82413303Y-76299144D01*
X82413307Y-76299142D01*
X82413308Y-76299142D01*
X82471558Y-76273206D01*
X82586230Y-76222151D01*
X82739371Y-76110888D01*
X82866033Y-75970216D01*
X82960679Y-75806284D01*
X83019174Y-75626256D01*
X83038960Y-75438000D01*
X83019174Y-75249744D01*
X82960679Y-75069716D01*
X82866033Y-74905784D01*
X82792850Y-74824506D01*
X82762620Y-74761515D01*
X82761000Y-74741534D01*
X82761000Y-74096171D01*
X82780685Y-74029132D01*
X82833489Y-73983377D01*
X82902647Y-73973433D01*
X82966203Y-74002458D01*
X83001182Y-74052838D01*
X83031202Y-74133328D01*
X83031206Y-74133335D01*
X83117452Y-74248544D01*
X83117455Y-74248547D01*
X83232664Y-74334793D01*
X83232671Y-74334797D01*
X83367517Y-74385091D01*
X83367516Y-74385091D01*
X83374444Y-74385835D01*
X83427127Y-74391500D01*
X85762872Y-74391499D01*
X85822483Y-74385091D01*
X85957331Y-74334796D01*
X86072546Y-74248546D01*
X86158796Y-74133331D01*
X86209091Y-73998483D01*
X86215500Y-73938873D01*
X86215499Y-71603128D01*
X86209091Y-71543517D01*
X86194820Y-71505255D01*
X86193233Y-71501000D01*
X88049489Y-71501000D01*
X88069502Y-71755289D01*
X88129044Y-72003301D01*
X88129049Y-72003318D01*
X88226656Y-72238963D01*
X88226658Y-72238966D01*
X88294749Y-72350080D01*
X88312994Y-72417526D01*
X88291878Y-72484128D01*
X88263334Y-72514136D01*
X88197452Y-72563455D01*
X88111206Y-72678664D01*
X88111202Y-72678671D01*
X88060908Y-72813517D01*
X88056125Y-72858009D01*
X88054501Y-72873123D01*
X88054500Y-72873135D01*
X88054500Y-75208870D01*
X88054501Y-75208876D01*
X88060908Y-75268483D01*
X88111202Y-75403328D01*
X88111206Y-75403335D01*
X88197452Y-75518544D01*
X88197455Y-75518547D01*
X88312664Y-75604793D01*
X88312671Y-75604797D01*
X88447517Y-75655091D01*
X88447516Y-75655091D01*
X88454444Y-75655835D01*
X88507127Y-75661500D01*
X90842872Y-75661499D01*
X90902483Y-75655091D01*
X91037331Y-75604796D01*
X91152546Y-75518546D01*
X91238796Y-75403331D01*
X91289091Y-75268483D01*
X91295500Y-75208873D01*
X91295499Y-72873128D01*
X91289091Y-72813517D01*
X91238796Y-72678669D01*
X91238795Y-72678668D01*
X91238793Y-72678664D01*
X91152547Y-72563456D01*
X91152548Y-72563456D01*
X91152546Y-72563454D01*
X91086664Y-72514135D01*
X91044795Y-72458203D01*
X91039811Y-72388511D01*
X91055247Y-72350084D01*
X91123341Y-72238967D01*
X91220953Y-72003311D01*
X91280498Y-71755286D01*
X91300511Y-71501000D01*
X91280498Y-71246714D01*
X91220953Y-70998689D01*
X91208642Y-70968967D01*
X91123343Y-70763036D01*
X91123341Y-70763033D01*
X90990069Y-70545554D01*
X90990063Y-70545545D01*
X90824412Y-70351592D01*
X90824407Y-70351587D01*
X90630454Y-70185936D01*
X90630445Y-70185930D01*
X90412966Y-70052658D01*
X90412963Y-70052656D01*
X90177318Y-69955049D01*
X90177301Y-69955044D01*
X89929289Y-69895502D01*
X89675000Y-69875489D01*
X89420710Y-69895502D01*
X89172698Y-69955044D01*
X89172681Y-69955049D01*
X88937036Y-70052656D01*
X88937033Y-70052658D01*
X88719554Y-70185930D01*
X88719545Y-70185936D01*
X88525592Y-70351587D01*
X88525587Y-70351592D01*
X88359936Y-70545545D01*
X88359930Y-70545554D01*
X88226658Y-70763033D01*
X88226656Y-70763036D01*
X88129049Y-70998681D01*
X88129044Y-70998698D01*
X88069502Y-71246710D01*
X88049489Y-71501000D01*
X86193233Y-71501000D01*
X86158797Y-71408671D01*
X86158793Y-71408664D01*
X86072547Y-71293456D01*
X86072548Y-71293456D01*
X86072546Y-71293454D01*
X86006664Y-71244135D01*
X85964795Y-71188203D01*
X85959811Y-71118511D01*
X85975247Y-71080084D01*
X86043341Y-70968967D01*
X86140953Y-70733311D01*
X86200498Y-70485286D01*
X86220511Y-70231000D01*
X86200498Y-69976714D01*
X86140953Y-69728689D01*
X86107516Y-69647964D01*
X86043343Y-69493036D01*
X86043341Y-69493033D01*
X85910069Y-69275554D01*
X85910063Y-69275545D01*
X85744412Y-69081592D01*
X85744407Y-69081587D01*
X85550454Y-68915936D01*
X85550445Y-68915930D01*
X85332966Y-68782658D01*
X85332963Y-68782656D01*
X85097318Y-68685049D01*
X85097301Y-68685044D01*
X84849289Y-68625502D01*
X84595000Y-68605489D01*
X84340710Y-68625502D01*
X84092698Y-68685044D01*
X84092681Y-68685049D01*
X83857036Y-68782656D01*
X83857033Y-68782658D01*
X83639554Y-68915930D01*
X83639545Y-68915936D01*
X83445592Y-69081587D01*
X83445587Y-69081592D01*
X83279936Y-69275545D01*
X83279930Y-69275554D01*
X83146658Y-69493033D01*
X83146656Y-69493036D01*
X83049049Y-69728681D01*
X83049044Y-69728698D01*
X83005574Y-69909769D01*
X82970783Y-69970361D01*
X82908757Y-70002525D01*
X82839188Y-69996049D01*
X82784164Y-69952990D01*
X82761155Y-69887017D01*
X82761000Y-69880822D01*
X82761000Y-66767780D01*
X82780685Y-66700741D01*
X82797319Y-66680099D01*
X83344804Y-66132614D01*
X84073435Y-65403982D01*
X84134756Y-65370499D01*
X84193207Y-65371890D01*
X84208635Y-65376023D01*
X84234932Y-65383070D01*
X84392123Y-65396822D01*
X84454998Y-65402323D01*
X84455000Y-65402323D01*
X84455002Y-65402323D01*
X84510017Y-65397509D01*
X84675068Y-65383070D01*
X84888450Y-65325894D01*
X85088662Y-65232534D01*
X85269620Y-65105826D01*
X85425826Y-64949620D01*
X85552534Y-64768662D01*
X85612617Y-64639811D01*
X85658790Y-64587371D01*
X85725983Y-64568219D01*
X85792865Y-64588435D01*
X85837382Y-64639811D01*
X85897464Y-64768658D01*
X85897468Y-64768666D01*
X86024170Y-64949615D01*
X86024175Y-64949621D01*
X86180378Y-65105824D01*
X86180384Y-65105829D01*
X86361333Y-65232531D01*
X86361335Y-65232532D01*
X86361338Y-65232534D01*
X86561550Y-65325894D01*
X86774932Y-65383070D01*
X86932123Y-65396822D01*
X86994998Y-65402323D01*
X86995000Y-65402323D01*
X86995002Y-65402323D01*
X87050016Y-65397509D01*
X87215068Y-65383070D01*
X87428450Y-65325894D01*
X87628662Y-65232534D01*
X87809620Y-65105826D01*
X87965826Y-64949620D01*
X88092534Y-64768662D01*
X88185894Y-64568450D01*
X88243070Y-64355068D01*
X88262323Y-64135000D01*
X88243070Y-63914932D01*
X88185894Y-63701550D01*
X88092534Y-63501339D01*
X87965826Y-63320380D01*
X87809620Y-63164174D01*
X87809616Y-63164171D01*
X87809615Y-63164170D01*
X87628666Y-63037468D01*
X87628662Y-63037466D01*
X87628660Y-63037465D01*
X87428450Y-62944106D01*
X87428447Y-62944105D01*
X87428445Y-62944104D01*
X87215070Y-62886930D01*
X87215062Y-62886929D01*
X86995002Y-62867677D01*
X86994998Y-62867677D01*
X86774937Y-62886929D01*
X86774929Y-62886930D01*
X86561554Y-62944104D01*
X86561548Y-62944107D01*
X86361340Y-63037465D01*
X86361338Y-63037466D01*
X86180377Y-63164175D01*
X86024175Y-63320377D01*
X85897466Y-63501338D01*
X85897465Y-63501340D01*
X85837382Y-63630189D01*
X85791209Y-63682628D01*
X85724016Y-63701780D01*
X85657135Y-63681564D01*
X85612618Y-63630189D01*
X85552534Y-63501340D01*
X85552533Y-63501338D01*
X85551946Y-63500500D01*
X85425826Y-63320380D01*
X85269620Y-63164174D01*
X85269616Y-63164171D01*
X85269615Y-63164170D01*
X85088666Y-63037468D01*
X85088662Y-63037466D01*
X85088660Y-63037465D01*
X84888450Y-62944106D01*
X84888447Y-62944105D01*
X84888445Y-62944104D01*
X84675070Y-62886930D01*
X84675062Y-62886929D01*
X84455002Y-62867677D01*
X84454998Y-62867677D01*
X84234937Y-62886929D01*
X84234929Y-62886930D01*
X84021554Y-62944104D01*
X84021548Y-62944107D01*
X83821340Y-63037465D01*
X83821338Y-63037466D01*
X83640377Y-63164175D01*
X83484175Y-63320377D01*
X83357466Y-63501338D01*
X83357465Y-63501340D01*
X83297382Y-63630189D01*
X83251209Y-63682628D01*
X83184016Y-63701780D01*
X83117135Y-63681564D01*
X83072618Y-63630189D01*
X83012534Y-63501340D01*
X83012533Y-63501338D01*
X83011946Y-63500500D01*
X82885826Y-63320380D01*
X82729620Y-63164174D01*
X82729616Y-63164171D01*
X82729615Y-63164170D01*
X82548666Y-63037468D01*
X82548662Y-63037466D01*
X82548660Y-63037465D01*
X82348450Y-62944106D01*
X82348447Y-62944105D01*
X82348445Y-62944104D01*
X82135070Y-62886930D01*
X82135062Y-62886929D01*
X81915002Y-62867677D01*
X81914998Y-62867677D01*
X81694937Y-62886929D01*
X81694929Y-62886930D01*
X81481554Y-62944104D01*
X81481548Y-62944107D01*
X81281340Y-63037465D01*
X81281338Y-63037466D01*
X81100377Y-63164175D01*
X80944175Y-63320377D01*
X80817466Y-63501338D01*
X80817465Y-63501340D01*
X80757382Y-63630189D01*
X80711209Y-63682628D01*
X80644016Y-63701780D01*
X80577135Y-63681564D01*
X80532618Y-63630189D01*
X80472534Y-63501340D01*
X80472533Y-63501338D01*
X80471946Y-63500500D01*
X80345826Y-63320380D01*
X80189620Y-63164174D01*
X80189616Y-63164171D01*
X80189615Y-63164170D01*
X80008666Y-63037468D01*
X80008662Y-63037466D01*
X80008660Y-63037465D01*
X79808450Y-62944106D01*
X79808447Y-62944105D01*
X79808445Y-62944104D01*
X79595070Y-62886930D01*
X79595062Y-62886929D01*
X79375002Y-62867677D01*
X79374998Y-62867677D01*
X79154937Y-62886929D01*
X79154929Y-62886930D01*
X78941554Y-62944104D01*
X78941548Y-62944107D01*
X78741340Y-63037465D01*
X78741338Y-63037466D01*
X78560377Y-63164175D01*
X78404175Y-63320377D01*
X78277466Y-63501338D01*
X78277465Y-63501340D01*
X78217382Y-63630189D01*
X78171209Y-63682628D01*
X78104016Y-63701780D01*
X78037135Y-63681564D01*
X77992618Y-63630189D01*
X77932534Y-63501340D01*
X77932533Y-63501338D01*
X77931946Y-63500500D01*
X77805826Y-63320380D01*
X77649620Y-63164174D01*
X77649616Y-63164171D01*
X77649615Y-63164170D01*
X77468666Y-63037468D01*
X77468662Y-63037466D01*
X77468660Y-63037465D01*
X77268450Y-62944106D01*
X77268447Y-62944105D01*
X77268445Y-62944104D01*
X77055070Y-62886930D01*
X77055062Y-62886929D01*
X76835002Y-62867677D01*
X76834998Y-62867677D01*
X76614937Y-62886929D01*
X76614929Y-62886930D01*
X76401554Y-62944104D01*
X76401548Y-62944107D01*
X76201340Y-63037465D01*
X76201338Y-63037466D01*
X76020377Y-63164175D01*
X75864175Y-63320377D01*
X75737466Y-63501338D01*
X75737465Y-63501340D01*
X75644107Y-63701548D01*
X75644104Y-63701554D01*
X75586930Y-63914929D01*
X75586929Y-63914937D01*
X75567677Y-64134997D01*
X75567677Y-64135002D01*
X75586929Y-64355062D01*
X75586930Y-64355070D01*
X75644104Y-64568445D01*
X75644105Y-64568447D01*
X75644106Y-64568450D01*
X75699500Y-64687243D01*
X75737466Y-64768662D01*
X75737468Y-64768666D01*
X75864170Y-64949615D01*
X75864174Y-64949620D01*
X76020380Y-65105826D01*
X76154624Y-65199824D01*
X76198248Y-65254399D01*
X76207500Y-65301398D01*
X76207500Y-69132032D01*
X76205772Y-69147681D01*
X76206054Y-69147708D01*
X76205319Y-69155475D01*
X76207500Y-69224859D01*
X76207500Y-69254477D01*
X76208371Y-69261380D01*
X76208829Y-69267199D01*
X76210298Y-69313942D01*
X76215916Y-69333275D01*
X76219862Y-69352329D01*
X76222383Y-69372287D01*
X76222386Y-69372299D01*
X76239595Y-69415765D01*
X76241487Y-69421293D01*
X76254530Y-69466187D01*
X76254530Y-69466188D01*
X76264777Y-69483515D01*
X76273335Y-69500985D01*
X76280745Y-69519701D01*
X76308229Y-69557529D01*
X76311437Y-69562413D01*
X76335234Y-69602652D01*
X76335240Y-69602660D01*
X76349469Y-69616888D01*
X76362109Y-69631687D01*
X76373934Y-69647964D01*
X76373936Y-69647965D01*
X76373937Y-69647967D01*
X76409957Y-69677765D01*
X76414268Y-69681687D01*
X77976717Y-71244136D01*
X79515871Y-72783290D01*
X79549356Y-72844613D01*
X79551510Y-72858005D01*
X79568826Y-73022756D01*
X79568827Y-73022759D01*
X79627318Y-73202777D01*
X79627321Y-73202784D01*
X79654870Y-73250500D01*
X79671343Y-73318400D01*
X79648490Y-73384427D01*
X79593569Y-73427618D01*
X79547483Y-73436500D01*
X78347129Y-73436500D01*
X78347123Y-73436501D01*
X78287516Y-73442908D01*
X78152671Y-73493202D01*
X78152664Y-73493206D01*
X78037455Y-73579452D01*
X77988136Y-73645334D01*
X77932202Y-73687204D01*
X77862510Y-73692188D01*
X77824080Y-73676749D01*
X77712966Y-73608658D01*
X77712963Y-73608656D01*
X77477318Y-73511049D01*
X77477301Y-73511044D01*
X77229289Y-73451502D01*
X76975000Y-73431489D01*
X76720710Y-73451502D01*
X76472698Y-73511044D01*
X76472681Y-73511049D01*
X76237036Y-73608656D01*
X76237033Y-73608658D01*
X76019554Y-73741930D01*
X76019545Y-73741936D01*
X75825592Y-73907587D01*
X75825587Y-73907592D01*
X75659936Y-74101545D01*
X75659930Y-74101554D01*
X75526658Y-74319033D01*
X75526656Y-74319036D01*
X75429049Y-74554681D01*
X75429044Y-74554698D01*
X75369502Y-74802710D01*
X75349489Y-75057000D01*
X64516500Y-75057000D01*
X64516499Y-64627752D01*
X64536184Y-64560717D01*
X64588988Y-64514962D01*
X64658146Y-64505018D01*
X64721702Y-64534043D01*
X64759476Y-64592821D01*
X64759864Y-64594171D01*
X64808531Y-64767142D01*
X64808534Y-64767151D01*
X64953435Y-65136353D01*
X64953440Y-65136365D01*
X65090640Y-65403984D01*
X65134391Y-65489323D01*
X65349586Y-65822509D01*
X65475691Y-65980640D01*
X65596895Y-66132625D01*
X65873823Y-66416544D01*
X65873833Y-66416554D01*
X66177676Y-66671508D01*
X66505394Y-66894942D01*
X66853730Y-67084636D01*
X67219223Y-67238704D01*
X67219232Y-67238706D01*
X67219238Y-67238709D01*
X67598235Y-67355614D01*
X67598248Y-67355617D01*
X67986999Y-67434205D01*
X67987014Y-67434208D01*
X68325299Y-67468058D01*
X68381680Y-67473700D01*
X68381681Y-67473700D01*
X68679103Y-67473700D01*
X68877130Y-67463816D01*
X68976145Y-67458875D01*
X69368353Y-67399759D01*
X69752726Y-67301886D01*
X70125445Y-67166228D01*
X70482803Y-66994133D01*
X70821251Y-66787312D01*
X71137424Y-66547820D01*
X71428181Y-66278037D01*
X71690631Y-65980645D01*
X71922166Y-65658600D01*
X72120485Y-65315101D01*
X72283617Y-64953563D01*
X72409941Y-64577578D01*
X72498201Y-64190885D01*
X72547521Y-63797325D01*
X72554923Y-63500500D01*
X72557409Y-63400826D01*
X72557409Y-63400810D01*
X72551382Y-63320380D01*
X72527769Y-63005280D01*
X72458893Y-62614668D01*
X72351467Y-62232854D01*
X72341303Y-62206957D01*
X72206564Y-61863646D01*
X72206559Y-61863634D01*
X72025613Y-61510685D01*
X72025609Y-61510677D01*
X71810414Y-61177491D01*
X71563114Y-60867386D01*
X71563111Y-60867383D01*
X71563104Y-60867374D01*
X71286176Y-60583455D01*
X71286173Y-60583452D01*
X71286172Y-60583451D01*
X71286167Y-60583446D01*
X70982324Y-60328492D01*
X70877841Y-60257257D01*
X70654605Y-60105057D01*
X70538494Y-60041826D01*
X70306270Y-59915364D01*
X70306262Y-59915360D01*
X70306259Y-59915359D01*
X69940777Y-59761296D01*
X69940761Y-59761290D01*
X69673952Y-59678991D01*
X69615693Y-59640421D01*
X69587536Y-59576476D01*
X69598419Y-59507459D01*
X69644887Y-59455283D01*
X69710502Y-59436500D01*
X99195199Y-59436500D01*
X99262238Y-59456185D01*
G37*
%TD.AperFunction*%
%TD*%
M02*
