M48
; DRILL file {KiCad 7.0.7} date Sun Nov  5 11:25:15 2023
; FORMAT={-:-/ absolute / inch / decimal}
; #@! TF.CreationDate,2023-11-05T11:25:15-06:00
; #@! TF.GenerationSoftware,Kicad,Pcbnew,7.0.7
; #@! TF.FileFunction,Plated,1,2,PTH
FMAT,2
INCH
; #@! TA.AperFunction,Plated,PTH,ViaDrill
T1C0.0157
; #@! TA.AperFunction,Plated,PTH,ComponentDrill
T2C0.0354
; #@! TA.AperFunction,Plated,PTH,ComponentDrill
T3C0.0472
%
G90
G05
T1
X2.6Y-2.95
X2.6Y-3.15
X2.6Y-3.35
X2.6Y-3.5541
X2.845Y-2.87
X3.065Y-2.72
X3.0705Y-3.6124
X3.1675Y-2.8675
X3.205Y-3.01
X3.2336Y-2.97
X3.5105Y-3.395
X3.6905Y-3.195
X3.6905Y-3.255
X3.7405Y-2.895
X3.7605Y-3.095
X3.89Y-3.2176
T2
X3.025Y-2.525
X3.125Y-2.525
X3.225Y-2.525
X3.325Y-2.525
X3.425Y-2.525
X3.525Y-2.525
X3.625Y-2.525
T3
X2.9505Y-3.145
X3.0305Y-2.955
X3.0505Y-3.145
X3.1305Y-2.955
X3.1405Y-3.335
X3.1405Y-3.435
X3.3305Y-2.765
X3.3305Y-2.865
X3.3405Y-3.3884
X3.3405Y-3.4884
X3.5305Y-2.815
X3.5305Y-2.915
T0
M30
