%TF.GenerationSoftware,KiCad,Pcbnew,7.0.7*%
%TF.CreationDate,2023-11-04T22:27:46-05:00*%
%TF.ProjectId,FlourometerBoard_Hardware,466c6f75-726f-46d6-9574-6572426f6172,rev?*%
%TF.SameCoordinates,Original*%
%TF.FileFunction,Legend,Top*%
%TF.FilePolarity,Positive*%
%FSLAX46Y46*%
G04 Gerber Fmt 4.6, Leading zero omitted, Abs format (unit mm)*
G04 Created by KiCad (PCBNEW 7.0.7) date 2023-11-04 22:27:46*
%MOMM*%
%LPD*%
G01*
G04 APERTURE LIST*
%ADD10C,0.583000*%
%ADD11C,0.203200*%
%ADD12C,0.150000*%
%ADD13C,0.300000*%
%ADD14C,0.120000*%
%ADD15C,0.127000*%
%ADD16C,0.200000*%
%ADD17C,0.010000*%
G04 APERTURE END LIST*
D10*
X94271500Y-89662000D02*
G75*
G03*
X94271500Y-89662000I-291500J0D01*
G01*
X131101500Y-89916000D02*
G75*
G03*
X131101500Y-89916000I-291500J0D01*
G01*
D11*
X71580255Y-92723623D02*
X71241588Y-92723623D01*
X71241588Y-93255813D02*
X71241588Y-92239813D01*
X71241588Y-92239813D02*
X71725398Y-92239813D01*
X72257588Y-93255813D02*
X72160826Y-93207433D01*
X72160826Y-93207433D02*
X72112445Y-93110671D01*
X72112445Y-93110671D02*
X72112445Y-92239813D01*
X72789778Y-93255813D02*
X72693016Y-93207433D01*
X72693016Y-93207433D02*
X72644635Y-93159052D01*
X72644635Y-93159052D02*
X72596254Y-93062290D01*
X72596254Y-93062290D02*
X72596254Y-92772004D01*
X72596254Y-92772004D02*
X72644635Y-92675242D01*
X72644635Y-92675242D02*
X72693016Y-92626861D01*
X72693016Y-92626861D02*
X72789778Y-92578480D01*
X72789778Y-92578480D02*
X72934921Y-92578480D01*
X72934921Y-92578480D02*
X73031683Y-92626861D01*
X73031683Y-92626861D02*
X73080064Y-92675242D01*
X73080064Y-92675242D02*
X73128445Y-92772004D01*
X73128445Y-92772004D02*
X73128445Y-93062290D01*
X73128445Y-93062290D02*
X73080064Y-93159052D01*
X73080064Y-93159052D02*
X73031683Y-93207433D01*
X73031683Y-93207433D02*
X72934921Y-93255813D01*
X72934921Y-93255813D02*
X72789778Y-93255813D01*
X73999302Y-92578480D02*
X73999302Y-93255813D01*
X73563873Y-92578480D02*
X73563873Y-93110671D01*
X73563873Y-93110671D02*
X73612254Y-93207433D01*
X73612254Y-93207433D02*
X73709016Y-93255813D01*
X73709016Y-93255813D02*
X73854159Y-93255813D01*
X73854159Y-93255813D02*
X73950921Y-93207433D01*
X73950921Y-93207433D02*
X73999302Y-93159052D01*
X74483111Y-93255813D02*
X74483111Y-92578480D01*
X74483111Y-92772004D02*
X74531492Y-92675242D01*
X74531492Y-92675242D02*
X74579873Y-92626861D01*
X74579873Y-92626861D02*
X74676635Y-92578480D01*
X74676635Y-92578480D02*
X74773397Y-92578480D01*
X75257206Y-93255813D02*
X75160444Y-93207433D01*
X75160444Y-93207433D02*
X75112063Y-93159052D01*
X75112063Y-93159052D02*
X75063682Y-93062290D01*
X75063682Y-93062290D02*
X75063682Y-92772004D01*
X75063682Y-92772004D02*
X75112063Y-92675242D01*
X75112063Y-92675242D02*
X75160444Y-92626861D01*
X75160444Y-92626861D02*
X75257206Y-92578480D01*
X75257206Y-92578480D02*
X75402349Y-92578480D01*
X75402349Y-92578480D02*
X75499111Y-92626861D01*
X75499111Y-92626861D02*
X75547492Y-92675242D01*
X75547492Y-92675242D02*
X75595873Y-92772004D01*
X75595873Y-92772004D02*
X75595873Y-93062290D01*
X75595873Y-93062290D02*
X75547492Y-93159052D01*
X75547492Y-93159052D02*
X75499111Y-93207433D01*
X75499111Y-93207433D02*
X75402349Y-93255813D01*
X75402349Y-93255813D02*
X75257206Y-93255813D01*
X76031301Y-93255813D02*
X76031301Y-92578480D01*
X76031301Y-92675242D02*
X76079682Y-92626861D01*
X76079682Y-92626861D02*
X76176444Y-92578480D01*
X76176444Y-92578480D02*
X76321587Y-92578480D01*
X76321587Y-92578480D02*
X76418349Y-92626861D01*
X76418349Y-92626861D02*
X76466730Y-92723623D01*
X76466730Y-92723623D02*
X76466730Y-93255813D01*
X76466730Y-92723623D02*
X76515111Y-92626861D01*
X76515111Y-92626861D02*
X76611873Y-92578480D01*
X76611873Y-92578480D02*
X76757016Y-92578480D01*
X76757016Y-92578480D02*
X76853777Y-92626861D01*
X76853777Y-92626861D02*
X76902158Y-92723623D01*
X76902158Y-92723623D02*
X76902158Y-93255813D01*
X77773016Y-93207433D02*
X77676254Y-93255813D01*
X77676254Y-93255813D02*
X77482730Y-93255813D01*
X77482730Y-93255813D02*
X77385968Y-93207433D01*
X77385968Y-93207433D02*
X77337587Y-93110671D01*
X77337587Y-93110671D02*
X77337587Y-92723623D01*
X77337587Y-92723623D02*
X77385968Y-92626861D01*
X77385968Y-92626861D02*
X77482730Y-92578480D01*
X77482730Y-92578480D02*
X77676254Y-92578480D01*
X77676254Y-92578480D02*
X77773016Y-92626861D01*
X77773016Y-92626861D02*
X77821397Y-92723623D01*
X77821397Y-92723623D02*
X77821397Y-92820385D01*
X77821397Y-92820385D02*
X77337587Y-92917147D01*
X78111682Y-92578480D02*
X78498730Y-92578480D01*
X78256825Y-92239813D02*
X78256825Y-93110671D01*
X78256825Y-93110671D02*
X78305206Y-93207433D01*
X78305206Y-93207433D02*
X78401968Y-93255813D01*
X78401968Y-93255813D02*
X78498730Y-93255813D01*
X79224444Y-93207433D02*
X79127682Y-93255813D01*
X79127682Y-93255813D02*
X78934158Y-93255813D01*
X78934158Y-93255813D02*
X78837396Y-93207433D01*
X78837396Y-93207433D02*
X78789015Y-93110671D01*
X78789015Y-93110671D02*
X78789015Y-92723623D01*
X78789015Y-92723623D02*
X78837396Y-92626861D01*
X78837396Y-92626861D02*
X78934158Y-92578480D01*
X78934158Y-92578480D02*
X79127682Y-92578480D01*
X79127682Y-92578480D02*
X79224444Y-92626861D01*
X79224444Y-92626861D02*
X79272825Y-92723623D01*
X79272825Y-92723623D02*
X79272825Y-92820385D01*
X79272825Y-92820385D02*
X78789015Y-92917147D01*
X79708253Y-93255813D02*
X79708253Y-92578480D01*
X79708253Y-92772004D02*
X79756634Y-92675242D01*
X79756634Y-92675242D02*
X79805015Y-92626861D01*
X79805015Y-92626861D02*
X79901777Y-92578480D01*
X79901777Y-92578480D02*
X79998539Y-92578480D01*
X81449967Y-92723623D02*
X81595110Y-92772004D01*
X81595110Y-92772004D02*
X81643491Y-92820385D01*
X81643491Y-92820385D02*
X81691872Y-92917147D01*
X81691872Y-92917147D02*
X81691872Y-93062290D01*
X81691872Y-93062290D02*
X81643491Y-93159052D01*
X81643491Y-93159052D02*
X81595110Y-93207433D01*
X81595110Y-93207433D02*
X81498348Y-93255813D01*
X81498348Y-93255813D02*
X81111300Y-93255813D01*
X81111300Y-93255813D02*
X81111300Y-92239813D01*
X81111300Y-92239813D02*
X81449967Y-92239813D01*
X81449967Y-92239813D02*
X81546729Y-92288194D01*
X81546729Y-92288194D02*
X81595110Y-92336575D01*
X81595110Y-92336575D02*
X81643491Y-92433337D01*
X81643491Y-92433337D02*
X81643491Y-92530099D01*
X81643491Y-92530099D02*
X81595110Y-92626861D01*
X81595110Y-92626861D02*
X81546729Y-92675242D01*
X81546729Y-92675242D02*
X81449967Y-92723623D01*
X81449967Y-92723623D02*
X81111300Y-92723623D01*
X82272443Y-93255813D02*
X82175681Y-93207433D01*
X82175681Y-93207433D02*
X82127300Y-93159052D01*
X82127300Y-93159052D02*
X82078919Y-93062290D01*
X82078919Y-93062290D02*
X82078919Y-92772004D01*
X82078919Y-92772004D02*
X82127300Y-92675242D01*
X82127300Y-92675242D02*
X82175681Y-92626861D01*
X82175681Y-92626861D02*
X82272443Y-92578480D01*
X82272443Y-92578480D02*
X82417586Y-92578480D01*
X82417586Y-92578480D02*
X82514348Y-92626861D01*
X82514348Y-92626861D02*
X82562729Y-92675242D01*
X82562729Y-92675242D02*
X82611110Y-92772004D01*
X82611110Y-92772004D02*
X82611110Y-93062290D01*
X82611110Y-93062290D02*
X82562729Y-93159052D01*
X82562729Y-93159052D02*
X82514348Y-93207433D01*
X82514348Y-93207433D02*
X82417586Y-93255813D01*
X82417586Y-93255813D02*
X82272443Y-93255813D01*
X83481967Y-93255813D02*
X83481967Y-92723623D01*
X83481967Y-92723623D02*
X83433586Y-92626861D01*
X83433586Y-92626861D02*
X83336824Y-92578480D01*
X83336824Y-92578480D02*
X83143300Y-92578480D01*
X83143300Y-92578480D02*
X83046538Y-92626861D01*
X83481967Y-93207433D02*
X83385205Y-93255813D01*
X83385205Y-93255813D02*
X83143300Y-93255813D01*
X83143300Y-93255813D02*
X83046538Y-93207433D01*
X83046538Y-93207433D02*
X82998157Y-93110671D01*
X82998157Y-93110671D02*
X82998157Y-93013909D01*
X82998157Y-93013909D02*
X83046538Y-92917147D01*
X83046538Y-92917147D02*
X83143300Y-92868766D01*
X83143300Y-92868766D02*
X83385205Y-92868766D01*
X83385205Y-92868766D02*
X83481967Y-92820385D01*
X83965776Y-93255813D02*
X83965776Y-92578480D01*
X83965776Y-92772004D02*
X84014157Y-92675242D01*
X84014157Y-92675242D02*
X84062538Y-92626861D01*
X84062538Y-92626861D02*
X84159300Y-92578480D01*
X84159300Y-92578480D02*
X84256062Y-92578480D01*
X85030157Y-93255813D02*
X85030157Y-92239813D01*
X85030157Y-93207433D02*
X84933395Y-93255813D01*
X84933395Y-93255813D02*
X84739871Y-93255813D01*
X84739871Y-93255813D02*
X84643109Y-93207433D01*
X84643109Y-93207433D02*
X84594728Y-93159052D01*
X84594728Y-93159052D02*
X84546347Y-93062290D01*
X84546347Y-93062290D02*
X84546347Y-92772004D01*
X84546347Y-92772004D02*
X84594728Y-92675242D01*
X84594728Y-92675242D02*
X84643109Y-92626861D01*
X84643109Y-92626861D02*
X84739871Y-92578480D01*
X84739871Y-92578480D02*
X84933395Y-92578480D01*
X84933395Y-92578480D02*
X85030157Y-92626861D01*
X85562347Y-93207433D02*
X85562347Y-93255813D01*
X85562347Y-93255813D02*
X85513966Y-93352575D01*
X85513966Y-93352575D02*
X85465585Y-93400956D01*
X87352443Y-93255813D02*
X87013776Y-92772004D01*
X86771871Y-93255813D02*
X86771871Y-92239813D01*
X86771871Y-92239813D02*
X87158919Y-92239813D01*
X87158919Y-92239813D02*
X87255681Y-92288194D01*
X87255681Y-92288194D02*
X87304062Y-92336575D01*
X87304062Y-92336575D02*
X87352443Y-92433337D01*
X87352443Y-92433337D02*
X87352443Y-92578480D01*
X87352443Y-92578480D02*
X87304062Y-92675242D01*
X87304062Y-92675242D02*
X87255681Y-92723623D01*
X87255681Y-92723623D02*
X87158919Y-92772004D01*
X87158919Y-92772004D02*
X86771871Y-92772004D01*
X88174919Y-93207433D02*
X88078157Y-93255813D01*
X88078157Y-93255813D02*
X87884633Y-93255813D01*
X87884633Y-93255813D02*
X87787871Y-93207433D01*
X87787871Y-93207433D02*
X87739490Y-93110671D01*
X87739490Y-93110671D02*
X87739490Y-92723623D01*
X87739490Y-92723623D02*
X87787871Y-92626861D01*
X87787871Y-92626861D02*
X87884633Y-92578480D01*
X87884633Y-92578480D02*
X88078157Y-92578480D01*
X88078157Y-92578480D02*
X88174919Y-92626861D01*
X88174919Y-92626861D02*
X88223300Y-92723623D01*
X88223300Y-92723623D02*
X88223300Y-92820385D01*
X88223300Y-92820385D02*
X87739490Y-92917147D01*
X88561966Y-92578480D02*
X88803871Y-93255813D01*
X88803871Y-93255813D02*
X89045776Y-92578480D01*
X89965014Y-93255813D02*
X89384442Y-93255813D01*
X89674728Y-93255813D02*
X89674728Y-92239813D01*
X89674728Y-92239813D02*
X89577966Y-92384956D01*
X89577966Y-92384956D02*
X89481204Y-92481718D01*
X89481204Y-92481718D02*
X89384442Y-92530099D01*
X71241588Y-94891573D02*
X71241588Y-93875573D01*
X71241588Y-93875573D02*
X71580255Y-94601288D01*
X71580255Y-94601288D02*
X71918922Y-93875573D01*
X71918922Y-93875573D02*
X71918922Y-94891573D01*
X72838160Y-94891573D02*
X72838160Y-94359383D01*
X72838160Y-94359383D02*
X72789779Y-94262621D01*
X72789779Y-94262621D02*
X72693017Y-94214240D01*
X72693017Y-94214240D02*
X72499493Y-94214240D01*
X72499493Y-94214240D02*
X72402731Y-94262621D01*
X72838160Y-94843193D02*
X72741398Y-94891573D01*
X72741398Y-94891573D02*
X72499493Y-94891573D01*
X72499493Y-94891573D02*
X72402731Y-94843193D01*
X72402731Y-94843193D02*
X72354350Y-94746431D01*
X72354350Y-94746431D02*
X72354350Y-94649669D01*
X72354350Y-94649669D02*
X72402731Y-94552907D01*
X72402731Y-94552907D02*
X72499493Y-94504526D01*
X72499493Y-94504526D02*
X72741398Y-94504526D01*
X72741398Y-94504526D02*
X72838160Y-94456145D01*
X73321969Y-94891573D02*
X73321969Y-94214240D01*
X73321969Y-94407764D02*
X73370350Y-94311002D01*
X73370350Y-94311002D02*
X73418731Y-94262621D01*
X73418731Y-94262621D02*
X73515493Y-94214240D01*
X73515493Y-94214240D02*
X73612255Y-94214240D01*
X73902540Y-94843193D02*
X73999302Y-94891573D01*
X73999302Y-94891573D02*
X74192826Y-94891573D01*
X74192826Y-94891573D02*
X74289588Y-94843193D01*
X74289588Y-94843193D02*
X74337969Y-94746431D01*
X74337969Y-94746431D02*
X74337969Y-94698050D01*
X74337969Y-94698050D02*
X74289588Y-94601288D01*
X74289588Y-94601288D02*
X74192826Y-94552907D01*
X74192826Y-94552907D02*
X74047683Y-94552907D01*
X74047683Y-94552907D02*
X73950921Y-94504526D01*
X73950921Y-94504526D02*
X73902540Y-94407764D01*
X73902540Y-94407764D02*
X73902540Y-94359383D01*
X73902540Y-94359383D02*
X73950921Y-94262621D01*
X73950921Y-94262621D02*
X74047683Y-94214240D01*
X74047683Y-94214240D02*
X74192826Y-94214240D01*
X74192826Y-94214240D02*
X74289588Y-94262621D01*
X76128064Y-94891573D02*
X75789397Y-94407764D01*
X75547492Y-94891573D02*
X75547492Y-93875573D01*
X75547492Y-93875573D02*
X75934540Y-93875573D01*
X75934540Y-93875573D02*
X76031302Y-93923954D01*
X76031302Y-93923954D02*
X76079683Y-93972335D01*
X76079683Y-93972335D02*
X76128064Y-94069097D01*
X76128064Y-94069097D02*
X76128064Y-94214240D01*
X76128064Y-94214240D02*
X76079683Y-94311002D01*
X76079683Y-94311002D02*
X76031302Y-94359383D01*
X76031302Y-94359383D02*
X75934540Y-94407764D01*
X75934540Y-94407764D02*
X75547492Y-94407764D01*
X76708635Y-94891573D02*
X76611873Y-94843193D01*
X76611873Y-94843193D02*
X76563492Y-94794812D01*
X76563492Y-94794812D02*
X76515111Y-94698050D01*
X76515111Y-94698050D02*
X76515111Y-94407764D01*
X76515111Y-94407764D02*
X76563492Y-94311002D01*
X76563492Y-94311002D02*
X76611873Y-94262621D01*
X76611873Y-94262621D02*
X76708635Y-94214240D01*
X76708635Y-94214240D02*
X76853778Y-94214240D01*
X76853778Y-94214240D02*
X76950540Y-94262621D01*
X76950540Y-94262621D02*
X76998921Y-94311002D01*
X76998921Y-94311002D02*
X77047302Y-94407764D01*
X77047302Y-94407764D02*
X77047302Y-94698050D01*
X77047302Y-94698050D02*
X76998921Y-94794812D01*
X76998921Y-94794812D02*
X76950540Y-94843193D01*
X76950540Y-94843193D02*
X76853778Y-94891573D01*
X76853778Y-94891573D02*
X76708635Y-94891573D01*
X77385968Y-94214240D02*
X77627873Y-94891573D01*
X77627873Y-94891573D02*
X77869778Y-94214240D01*
X78643873Y-94843193D02*
X78547111Y-94891573D01*
X78547111Y-94891573D02*
X78353587Y-94891573D01*
X78353587Y-94891573D02*
X78256825Y-94843193D01*
X78256825Y-94843193D02*
X78208444Y-94746431D01*
X78208444Y-94746431D02*
X78208444Y-94359383D01*
X78208444Y-94359383D02*
X78256825Y-94262621D01*
X78256825Y-94262621D02*
X78353587Y-94214240D01*
X78353587Y-94214240D02*
X78547111Y-94214240D01*
X78547111Y-94214240D02*
X78643873Y-94262621D01*
X78643873Y-94262621D02*
X78692254Y-94359383D01*
X78692254Y-94359383D02*
X78692254Y-94456145D01*
X78692254Y-94456145D02*
X78208444Y-94552907D01*
X79127682Y-94891573D02*
X79127682Y-94214240D01*
X79127682Y-94407764D02*
X79176063Y-94311002D01*
X79176063Y-94311002D02*
X79224444Y-94262621D01*
X79224444Y-94262621D02*
X79321206Y-94214240D01*
X79321206Y-94214240D02*
X79417968Y-94214240D01*
X80530729Y-94891573D02*
X80530729Y-93875573D01*
X80530729Y-93875573D02*
X80772634Y-93875573D01*
X80772634Y-93875573D02*
X80917777Y-93923954D01*
X80917777Y-93923954D02*
X81014539Y-94020716D01*
X81014539Y-94020716D02*
X81062920Y-94117478D01*
X81062920Y-94117478D02*
X81111301Y-94311002D01*
X81111301Y-94311002D02*
X81111301Y-94456145D01*
X81111301Y-94456145D02*
X81062920Y-94649669D01*
X81062920Y-94649669D02*
X81014539Y-94746431D01*
X81014539Y-94746431D02*
X80917777Y-94843193D01*
X80917777Y-94843193D02*
X80772634Y-94891573D01*
X80772634Y-94891573D02*
X80530729Y-94891573D01*
X81933777Y-94843193D02*
X81837015Y-94891573D01*
X81837015Y-94891573D02*
X81643491Y-94891573D01*
X81643491Y-94891573D02*
X81546729Y-94843193D01*
X81546729Y-94843193D02*
X81498348Y-94746431D01*
X81498348Y-94746431D02*
X81498348Y-94359383D01*
X81498348Y-94359383D02*
X81546729Y-94262621D01*
X81546729Y-94262621D02*
X81643491Y-94214240D01*
X81643491Y-94214240D02*
X81837015Y-94214240D01*
X81837015Y-94214240D02*
X81933777Y-94262621D01*
X81933777Y-94262621D02*
X81982158Y-94359383D01*
X81982158Y-94359383D02*
X81982158Y-94456145D01*
X81982158Y-94456145D02*
X81498348Y-94552907D01*
X82369205Y-94843193D02*
X82465967Y-94891573D01*
X82465967Y-94891573D02*
X82659491Y-94891573D01*
X82659491Y-94891573D02*
X82756253Y-94843193D01*
X82756253Y-94843193D02*
X82804634Y-94746431D01*
X82804634Y-94746431D02*
X82804634Y-94698050D01*
X82804634Y-94698050D02*
X82756253Y-94601288D01*
X82756253Y-94601288D02*
X82659491Y-94552907D01*
X82659491Y-94552907D02*
X82514348Y-94552907D01*
X82514348Y-94552907D02*
X82417586Y-94504526D01*
X82417586Y-94504526D02*
X82369205Y-94407764D01*
X82369205Y-94407764D02*
X82369205Y-94359383D01*
X82369205Y-94359383D02*
X82417586Y-94262621D01*
X82417586Y-94262621D02*
X82514348Y-94214240D01*
X82514348Y-94214240D02*
X82659491Y-94214240D01*
X82659491Y-94214240D02*
X82756253Y-94262621D01*
X83240062Y-94891573D02*
X83240062Y-94214240D01*
X83240062Y-93875573D02*
X83191681Y-93923954D01*
X83191681Y-93923954D02*
X83240062Y-93972335D01*
X83240062Y-93972335D02*
X83288443Y-93923954D01*
X83288443Y-93923954D02*
X83240062Y-93875573D01*
X83240062Y-93875573D02*
X83240062Y-93972335D01*
X84159301Y-94214240D02*
X84159301Y-95036716D01*
X84159301Y-95036716D02*
X84110920Y-95133478D01*
X84110920Y-95133478D02*
X84062539Y-95181859D01*
X84062539Y-95181859D02*
X83965777Y-95230240D01*
X83965777Y-95230240D02*
X83820634Y-95230240D01*
X83820634Y-95230240D02*
X83723872Y-95181859D01*
X84159301Y-94843193D02*
X84062539Y-94891573D01*
X84062539Y-94891573D02*
X83869015Y-94891573D01*
X83869015Y-94891573D02*
X83772253Y-94843193D01*
X83772253Y-94843193D02*
X83723872Y-94794812D01*
X83723872Y-94794812D02*
X83675491Y-94698050D01*
X83675491Y-94698050D02*
X83675491Y-94407764D01*
X83675491Y-94407764D02*
X83723872Y-94311002D01*
X83723872Y-94311002D02*
X83772253Y-94262621D01*
X83772253Y-94262621D02*
X83869015Y-94214240D01*
X83869015Y-94214240D02*
X84062539Y-94214240D01*
X84062539Y-94214240D02*
X84159301Y-94262621D01*
X84643110Y-94214240D02*
X84643110Y-94891573D01*
X84643110Y-94311002D02*
X84691491Y-94262621D01*
X84691491Y-94262621D02*
X84788253Y-94214240D01*
X84788253Y-94214240D02*
X84933396Y-94214240D01*
X84933396Y-94214240D02*
X85030158Y-94262621D01*
X85030158Y-94262621D02*
X85078539Y-94359383D01*
X85078539Y-94359383D02*
X85078539Y-94891573D01*
X86191300Y-93875573D02*
X86771872Y-93875573D01*
X86481586Y-94891573D02*
X86481586Y-93875573D01*
X87497586Y-94843193D02*
X87400824Y-94891573D01*
X87400824Y-94891573D02*
X87207300Y-94891573D01*
X87207300Y-94891573D02*
X87110538Y-94843193D01*
X87110538Y-94843193D02*
X87062157Y-94746431D01*
X87062157Y-94746431D02*
X87062157Y-94359383D01*
X87062157Y-94359383D02*
X87110538Y-94262621D01*
X87110538Y-94262621D02*
X87207300Y-94214240D01*
X87207300Y-94214240D02*
X87400824Y-94214240D01*
X87400824Y-94214240D02*
X87497586Y-94262621D01*
X87497586Y-94262621D02*
X87545967Y-94359383D01*
X87545967Y-94359383D02*
X87545967Y-94456145D01*
X87545967Y-94456145D02*
X87062157Y-94552907D01*
X88416824Y-94891573D02*
X88416824Y-94359383D01*
X88416824Y-94359383D02*
X88368443Y-94262621D01*
X88368443Y-94262621D02*
X88271681Y-94214240D01*
X88271681Y-94214240D02*
X88078157Y-94214240D01*
X88078157Y-94214240D02*
X87981395Y-94262621D01*
X88416824Y-94843193D02*
X88320062Y-94891573D01*
X88320062Y-94891573D02*
X88078157Y-94891573D01*
X88078157Y-94891573D02*
X87981395Y-94843193D01*
X87981395Y-94843193D02*
X87933014Y-94746431D01*
X87933014Y-94746431D02*
X87933014Y-94649669D01*
X87933014Y-94649669D02*
X87981395Y-94552907D01*
X87981395Y-94552907D02*
X88078157Y-94504526D01*
X88078157Y-94504526D02*
X88320062Y-94504526D01*
X88320062Y-94504526D02*
X88416824Y-94456145D01*
X88900633Y-94891573D02*
X88900633Y-94214240D01*
X88900633Y-94311002D02*
X88949014Y-94262621D01*
X88949014Y-94262621D02*
X89045776Y-94214240D01*
X89045776Y-94214240D02*
X89190919Y-94214240D01*
X89190919Y-94214240D02*
X89287681Y-94262621D01*
X89287681Y-94262621D02*
X89336062Y-94359383D01*
X89336062Y-94359383D02*
X89336062Y-94891573D01*
X89336062Y-94359383D02*
X89384443Y-94262621D01*
X89384443Y-94262621D02*
X89481205Y-94214240D01*
X89481205Y-94214240D02*
X89626348Y-94214240D01*
X89626348Y-94214240D02*
X89723109Y-94262621D01*
X89723109Y-94262621D02*
X89771490Y-94359383D01*
X89771490Y-94359383D02*
X89771490Y-94891573D01*
X71241588Y-96527333D02*
X71241588Y-95511333D01*
X71241588Y-95511333D02*
X71580255Y-96237048D01*
X71580255Y-96237048D02*
X71918922Y-95511333D01*
X71918922Y-95511333D02*
X71918922Y-96527333D01*
X72402731Y-96527333D02*
X72402731Y-95850000D01*
X72402731Y-95511333D02*
X72354350Y-95559714D01*
X72354350Y-95559714D02*
X72402731Y-95608095D01*
X72402731Y-95608095D02*
X72451112Y-95559714D01*
X72451112Y-95559714D02*
X72402731Y-95511333D01*
X72402731Y-95511333D02*
X72402731Y-95608095D01*
X72838160Y-96478953D02*
X72934922Y-96527333D01*
X72934922Y-96527333D02*
X73128446Y-96527333D01*
X73128446Y-96527333D02*
X73225208Y-96478953D01*
X73225208Y-96478953D02*
X73273589Y-96382191D01*
X73273589Y-96382191D02*
X73273589Y-96333810D01*
X73273589Y-96333810D02*
X73225208Y-96237048D01*
X73225208Y-96237048D02*
X73128446Y-96188667D01*
X73128446Y-96188667D02*
X72983303Y-96188667D01*
X72983303Y-96188667D02*
X72886541Y-96140286D01*
X72886541Y-96140286D02*
X72838160Y-96043524D01*
X72838160Y-96043524D02*
X72838160Y-95995143D01*
X72838160Y-95995143D02*
X72886541Y-95898381D01*
X72886541Y-95898381D02*
X72983303Y-95850000D01*
X72983303Y-95850000D02*
X73128446Y-95850000D01*
X73128446Y-95850000D02*
X73225208Y-95898381D01*
X73660636Y-96478953D02*
X73757398Y-96527333D01*
X73757398Y-96527333D02*
X73950922Y-96527333D01*
X73950922Y-96527333D02*
X74047684Y-96478953D01*
X74047684Y-96478953D02*
X74096065Y-96382191D01*
X74096065Y-96382191D02*
X74096065Y-96333810D01*
X74096065Y-96333810D02*
X74047684Y-96237048D01*
X74047684Y-96237048D02*
X73950922Y-96188667D01*
X73950922Y-96188667D02*
X73805779Y-96188667D01*
X73805779Y-96188667D02*
X73709017Y-96140286D01*
X73709017Y-96140286D02*
X73660636Y-96043524D01*
X73660636Y-96043524D02*
X73660636Y-95995143D01*
X73660636Y-95995143D02*
X73709017Y-95898381D01*
X73709017Y-95898381D02*
X73805779Y-95850000D01*
X73805779Y-95850000D02*
X73950922Y-95850000D01*
X73950922Y-95850000D02*
X74047684Y-95898381D01*
X74676636Y-96527333D02*
X74579874Y-96478953D01*
X74579874Y-96478953D02*
X74531493Y-96430572D01*
X74531493Y-96430572D02*
X74483112Y-96333810D01*
X74483112Y-96333810D02*
X74483112Y-96043524D01*
X74483112Y-96043524D02*
X74531493Y-95946762D01*
X74531493Y-95946762D02*
X74579874Y-95898381D01*
X74579874Y-95898381D02*
X74676636Y-95850000D01*
X74676636Y-95850000D02*
X74821779Y-95850000D01*
X74821779Y-95850000D02*
X74918541Y-95898381D01*
X74918541Y-95898381D02*
X74966922Y-95946762D01*
X74966922Y-95946762D02*
X75015303Y-96043524D01*
X75015303Y-96043524D02*
X75015303Y-96333810D01*
X75015303Y-96333810D02*
X74966922Y-96430572D01*
X74966922Y-96430572D02*
X74918541Y-96478953D01*
X74918541Y-96478953D02*
X74821779Y-96527333D01*
X74821779Y-96527333D02*
X74676636Y-96527333D01*
X75886160Y-95850000D02*
X75886160Y-96527333D01*
X75450731Y-95850000D02*
X75450731Y-96382191D01*
X75450731Y-96382191D02*
X75499112Y-96478953D01*
X75499112Y-96478953D02*
X75595874Y-96527333D01*
X75595874Y-96527333D02*
X75741017Y-96527333D01*
X75741017Y-96527333D02*
X75837779Y-96478953D01*
X75837779Y-96478953D02*
X75886160Y-96430572D01*
X76369969Y-96527333D02*
X76369969Y-95850000D01*
X76369969Y-96043524D02*
X76418350Y-95946762D01*
X76418350Y-95946762D02*
X76466731Y-95898381D01*
X76466731Y-95898381D02*
X76563493Y-95850000D01*
X76563493Y-95850000D02*
X76660255Y-95850000D01*
X76998921Y-96527333D02*
X76998921Y-95850000D01*
X76998921Y-95511333D02*
X76950540Y-95559714D01*
X76950540Y-95559714D02*
X76998921Y-95608095D01*
X76998921Y-95608095D02*
X77047302Y-95559714D01*
X77047302Y-95559714D02*
X76998921Y-95511333D01*
X76998921Y-95511333D02*
X76998921Y-95608095D01*
X78208445Y-96478953D02*
X78353588Y-96527333D01*
X78353588Y-96527333D02*
X78595493Y-96527333D01*
X78595493Y-96527333D02*
X78692255Y-96478953D01*
X78692255Y-96478953D02*
X78740636Y-96430572D01*
X78740636Y-96430572D02*
X78789017Y-96333810D01*
X78789017Y-96333810D02*
X78789017Y-96237048D01*
X78789017Y-96237048D02*
X78740636Y-96140286D01*
X78740636Y-96140286D02*
X78692255Y-96091905D01*
X78692255Y-96091905D02*
X78595493Y-96043524D01*
X78595493Y-96043524D02*
X78401969Y-95995143D01*
X78401969Y-95995143D02*
X78305207Y-95946762D01*
X78305207Y-95946762D02*
X78256826Y-95898381D01*
X78256826Y-95898381D02*
X78208445Y-95801619D01*
X78208445Y-95801619D02*
X78208445Y-95704857D01*
X78208445Y-95704857D02*
X78256826Y-95608095D01*
X78256826Y-95608095D02*
X78305207Y-95559714D01*
X78305207Y-95559714D02*
X78401969Y-95511333D01*
X78401969Y-95511333D02*
X78643874Y-95511333D01*
X78643874Y-95511333D02*
X78789017Y-95559714D01*
X80046921Y-96527333D02*
X79998541Y-96527333D01*
X79998541Y-96527333D02*
X79901779Y-96478953D01*
X79901779Y-96478953D02*
X79756636Y-96333810D01*
X79756636Y-96333810D02*
X79514731Y-96043524D01*
X79514731Y-96043524D02*
X79417969Y-95898381D01*
X79417969Y-95898381D02*
X79369588Y-95753238D01*
X79369588Y-95753238D02*
X79369588Y-95656476D01*
X79369588Y-95656476D02*
X79417969Y-95559714D01*
X79417969Y-95559714D02*
X79514731Y-95511333D01*
X79514731Y-95511333D02*
X79563112Y-95511333D01*
X79563112Y-95511333D02*
X79659874Y-95559714D01*
X79659874Y-95559714D02*
X79708255Y-95656476D01*
X79708255Y-95656476D02*
X79708255Y-95704857D01*
X79708255Y-95704857D02*
X79659874Y-95801619D01*
X79659874Y-95801619D02*
X79611493Y-95850000D01*
X79611493Y-95850000D02*
X79321207Y-96043524D01*
X79321207Y-96043524D02*
X79272826Y-96091905D01*
X79272826Y-96091905D02*
X79224445Y-96188667D01*
X79224445Y-96188667D02*
X79224445Y-96333810D01*
X79224445Y-96333810D02*
X79272826Y-96430572D01*
X79272826Y-96430572D02*
X79321207Y-96478953D01*
X79321207Y-96478953D02*
X79417969Y-96527333D01*
X79417969Y-96527333D02*
X79563112Y-96527333D01*
X79563112Y-96527333D02*
X79659874Y-96478953D01*
X79659874Y-96478953D02*
X79708255Y-96430572D01*
X79708255Y-96430572D02*
X79853398Y-96237048D01*
X79853398Y-96237048D02*
X79901779Y-96091905D01*
X79901779Y-96091905D02*
X79901779Y-95995143D01*
X80337207Y-95511333D02*
X80917779Y-95511333D01*
X80627493Y-96527333D02*
X80627493Y-95511333D01*
X81304826Y-96478953D02*
X81304826Y-96527333D01*
X81304826Y-96527333D02*
X81256445Y-96624095D01*
X81256445Y-96624095D02*
X81208064Y-96672476D01*
X82465969Y-95608095D02*
X82514350Y-95559714D01*
X82514350Y-95559714D02*
X82611112Y-95511333D01*
X82611112Y-95511333D02*
X82853017Y-95511333D01*
X82853017Y-95511333D02*
X82949779Y-95559714D01*
X82949779Y-95559714D02*
X82998160Y-95608095D01*
X82998160Y-95608095D02*
X83046541Y-95704857D01*
X83046541Y-95704857D02*
X83046541Y-95801619D01*
X83046541Y-95801619D02*
X82998160Y-95946762D01*
X82998160Y-95946762D02*
X82417588Y-96527333D01*
X82417588Y-96527333D02*
X83046541Y-96527333D01*
X83675493Y-95511333D02*
X83772255Y-95511333D01*
X83772255Y-95511333D02*
X83869017Y-95559714D01*
X83869017Y-95559714D02*
X83917398Y-95608095D01*
X83917398Y-95608095D02*
X83965779Y-95704857D01*
X83965779Y-95704857D02*
X84014160Y-95898381D01*
X84014160Y-95898381D02*
X84014160Y-96140286D01*
X84014160Y-96140286D02*
X83965779Y-96333810D01*
X83965779Y-96333810D02*
X83917398Y-96430572D01*
X83917398Y-96430572D02*
X83869017Y-96478953D01*
X83869017Y-96478953D02*
X83772255Y-96527333D01*
X83772255Y-96527333D02*
X83675493Y-96527333D01*
X83675493Y-96527333D02*
X83578731Y-96478953D01*
X83578731Y-96478953D02*
X83530350Y-96430572D01*
X83530350Y-96430572D02*
X83481969Y-96333810D01*
X83481969Y-96333810D02*
X83433588Y-96140286D01*
X83433588Y-96140286D02*
X83433588Y-95898381D01*
X83433588Y-95898381D02*
X83481969Y-95704857D01*
X83481969Y-95704857D02*
X83530350Y-95608095D01*
X83530350Y-95608095D02*
X83578731Y-95559714D01*
X83578731Y-95559714D02*
X83675493Y-95511333D01*
X84401207Y-95608095D02*
X84449588Y-95559714D01*
X84449588Y-95559714D02*
X84546350Y-95511333D01*
X84546350Y-95511333D02*
X84788255Y-95511333D01*
X84788255Y-95511333D02*
X84885017Y-95559714D01*
X84885017Y-95559714D02*
X84933398Y-95608095D01*
X84933398Y-95608095D02*
X84981779Y-95704857D01*
X84981779Y-95704857D02*
X84981779Y-95801619D01*
X84981779Y-95801619D02*
X84933398Y-95946762D01*
X84933398Y-95946762D02*
X84352826Y-96527333D01*
X84352826Y-96527333D02*
X84981779Y-96527333D01*
X85852636Y-95850000D02*
X85852636Y-96527333D01*
X85610731Y-95462953D02*
X85368826Y-96188667D01*
X85368826Y-96188667D02*
X85997779Y-96188667D01*
X71241588Y-97630903D02*
X71580255Y-97630903D01*
X71725398Y-98163093D02*
X71241588Y-98163093D01*
X71241588Y-98163093D02*
X71241588Y-97147093D01*
X71241588Y-97147093D02*
X71725398Y-97147093D01*
X72015683Y-97485760D02*
X72402731Y-97485760D01*
X72160826Y-97147093D02*
X72160826Y-98017951D01*
X72160826Y-98017951D02*
X72209207Y-98114713D01*
X72209207Y-98114713D02*
X72305969Y-98163093D01*
X72305969Y-98163093D02*
X72402731Y-98163093D01*
X72741397Y-98163093D02*
X72741397Y-97147093D01*
X73176826Y-98163093D02*
X73176826Y-97630903D01*
X73176826Y-97630903D02*
X73128445Y-97534141D01*
X73128445Y-97534141D02*
X73031683Y-97485760D01*
X73031683Y-97485760D02*
X72886540Y-97485760D01*
X72886540Y-97485760D02*
X72789778Y-97534141D01*
X72789778Y-97534141D02*
X72741397Y-97582522D01*
X74096064Y-98163093D02*
X74096064Y-97630903D01*
X74096064Y-97630903D02*
X74047683Y-97534141D01*
X74047683Y-97534141D02*
X73950921Y-97485760D01*
X73950921Y-97485760D02*
X73757397Y-97485760D01*
X73757397Y-97485760D02*
X73660635Y-97534141D01*
X74096064Y-98114713D02*
X73999302Y-98163093D01*
X73999302Y-98163093D02*
X73757397Y-98163093D01*
X73757397Y-98163093D02*
X73660635Y-98114713D01*
X73660635Y-98114713D02*
X73612254Y-98017951D01*
X73612254Y-98017951D02*
X73612254Y-97921189D01*
X73612254Y-97921189D02*
X73660635Y-97824427D01*
X73660635Y-97824427D02*
X73757397Y-97776046D01*
X73757397Y-97776046D02*
X73999302Y-97776046D01*
X73999302Y-97776046D02*
X74096064Y-97727665D01*
X74579873Y-97485760D02*
X74579873Y-98163093D01*
X74579873Y-97582522D02*
X74628254Y-97534141D01*
X74628254Y-97534141D02*
X74725016Y-97485760D01*
X74725016Y-97485760D02*
X74870159Y-97485760D01*
X74870159Y-97485760D02*
X74966921Y-97534141D01*
X74966921Y-97534141D02*
X75015302Y-97630903D01*
X75015302Y-97630903D02*
X75015302Y-98163093D01*
X76176444Y-97147093D02*
X76418349Y-98163093D01*
X76418349Y-98163093D02*
X76611873Y-97437379D01*
X76611873Y-97437379D02*
X76805397Y-98163093D01*
X76805397Y-98163093D02*
X77047302Y-97147093D01*
X77434349Y-98163093D02*
X77434349Y-97485760D01*
X77434349Y-97147093D02*
X77385968Y-97195474D01*
X77385968Y-97195474D02*
X77434349Y-97243855D01*
X77434349Y-97243855D02*
X77482730Y-97195474D01*
X77482730Y-97195474D02*
X77434349Y-97147093D01*
X77434349Y-97147093D02*
X77434349Y-97243855D01*
X78063302Y-98163093D02*
X77966540Y-98114713D01*
X77966540Y-98114713D02*
X77918159Y-98017951D01*
X77918159Y-98017951D02*
X77918159Y-97147093D01*
X78595492Y-98163093D02*
X78498730Y-98114713D01*
X78498730Y-98114713D02*
X78450349Y-98017951D01*
X78450349Y-98017951D02*
X78450349Y-97147093D01*
X78982539Y-98163093D02*
X78982539Y-97485760D01*
X78982539Y-97147093D02*
X78934158Y-97195474D01*
X78934158Y-97195474D02*
X78982539Y-97243855D01*
X78982539Y-97243855D02*
X79030920Y-97195474D01*
X79030920Y-97195474D02*
X78982539Y-97147093D01*
X78982539Y-97147093D02*
X78982539Y-97243855D01*
X79901778Y-98163093D02*
X79901778Y-97630903D01*
X79901778Y-97630903D02*
X79853397Y-97534141D01*
X79853397Y-97534141D02*
X79756635Y-97485760D01*
X79756635Y-97485760D02*
X79563111Y-97485760D01*
X79563111Y-97485760D02*
X79466349Y-97534141D01*
X79901778Y-98114713D02*
X79805016Y-98163093D01*
X79805016Y-98163093D02*
X79563111Y-98163093D01*
X79563111Y-98163093D02*
X79466349Y-98114713D01*
X79466349Y-98114713D02*
X79417968Y-98017951D01*
X79417968Y-98017951D02*
X79417968Y-97921189D01*
X79417968Y-97921189D02*
X79466349Y-97824427D01*
X79466349Y-97824427D02*
X79563111Y-97776046D01*
X79563111Y-97776046D02*
X79805016Y-97776046D01*
X79805016Y-97776046D02*
X79901778Y-97727665D01*
X80385587Y-98163093D02*
X80385587Y-97485760D01*
X80385587Y-97582522D02*
X80433968Y-97534141D01*
X80433968Y-97534141D02*
X80530730Y-97485760D01*
X80530730Y-97485760D02*
X80675873Y-97485760D01*
X80675873Y-97485760D02*
X80772635Y-97534141D01*
X80772635Y-97534141D02*
X80821016Y-97630903D01*
X80821016Y-97630903D02*
X80821016Y-98163093D01*
X80821016Y-97630903D02*
X80869397Y-97534141D01*
X80869397Y-97534141D02*
X80966159Y-97485760D01*
X80966159Y-97485760D02*
X81111302Y-97485760D01*
X81111302Y-97485760D02*
X81208063Y-97534141D01*
X81208063Y-97534141D02*
X81256444Y-97630903D01*
X81256444Y-97630903D02*
X81256444Y-98163093D01*
X81691873Y-98114713D02*
X81788635Y-98163093D01*
X81788635Y-98163093D02*
X81982159Y-98163093D01*
X81982159Y-98163093D02*
X82078921Y-98114713D01*
X82078921Y-98114713D02*
X82127302Y-98017951D01*
X82127302Y-98017951D02*
X82127302Y-97969570D01*
X82127302Y-97969570D02*
X82078921Y-97872808D01*
X82078921Y-97872808D02*
X81982159Y-97824427D01*
X81982159Y-97824427D02*
X81837016Y-97824427D01*
X81837016Y-97824427D02*
X81740254Y-97776046D01*
X81740254Y-97776046D02*
X81691873Y-97679284D01*
X81691873Y-97679284D02*
X81691873Y-97630903D01*
X81691873Y-97630903D02*
X81740254Y-97534141D01*
X81740254Y-97534141D02*
X81837016Y-97485760D01*
X81837016Y-97485760D02*
X81982159Y-97485760D01*
X81982159Y-97485760D02*
X82078921Y-97534141D01*
X82611111Y-98114713D02*
X82611111Y-98163093D01*
X82611111Y-98163093D02*
X82562730Y-98259855D01*
X82562730Y-98259855D02*
X82514349Y-98308236D01*
X83675492Y-97147093D02*
X84256064Y-97147093D01*
X83965778Y-98163093D02*
X83965778Y-97147093D01*
X84594730Y-98163093D02*
X84594730Y-97485760D01*
X84594730Y-97679284D02*
X84643111Y-97582522D01*
X84643111Y-97582522D02*
X84691492Y-97534141D01*
X84691492Y-97534141D02*
X84788254Y-97485760D01*
X84788254Y-97485760D02*
X84885016Y-97485760D01*
X85223682Y-98163093D02*
X85223682Y-97485760D01*
X85223682Y-97147093D02*
X85175301Y-97195474D01*
X85175301Y-97195474D02*
X85223682Y-97243855D01*
X85223682Y-97243855D02*
X85272063Y-97195474D01*
X85272063Y-97195474D02*
X85223682Y-97147093D01*
X85223682Y-97147093D02*
X85223682Y-97243855D01*
X86965397Y-98163093D02*
X86481587Y-98163093D01*
X86481587Y-98163093D02*
X86481587Y-97147093D01*
X87691111Y-98114713D02*
X87594349Y-98163093D01*
X87594349Y-98163093D02*
X87400825Y-98163093D01*
X87400825Y-98163093D02*
X87304063Y-98114713D01*
X87304063Y-98114713D02*
X87255682Y-98017951D01*
X87255682Y-98017951D02*
X87255682Y-97630903D01*
X87255682Y-97630903D02*
X87304063Y-97534141D01*
X87304063Y-97534141D02*
X87400825Y-97485760D01*
X87400825Y-97485760D02*
X87594349Y-97485760D01*
X87594349Y-97485760D02*
X87691111Y-97534141D01*
X87691111Y-97534141D02*
X87739492Y-97630903D01*
X87739492Y-97630903D02*
X87739492Y-97727665D01*
X87739492Y-97727665D02*
X87255682Y-97824427D01*
D12*
X71267064Y-90514776D02*
X71267064Y-89244776D01*
X71267064Y-89849538D02*
X71992779Y-89849538D01*
X71992779Y-90514776D02*
X71992779Y-89244776D01*
X73141826Y-90514776D02*
X73141826Y-89849538D01*
X73141826Y-89849538D02*
X73081350Y-89728585D01*
X73081350Y-89728585D02*
X72960398Y-89668109D01*
X72960398Y-89668109D02*
X72718493Y-89668109D01*
X72718493Y-89668109D02*
X72597540Y-89728585D01*
X73141826Y-90454300D02*
X73020874Y-90514776D01*
X73020874Y-90514776D02*
X72718493Y-90514776D01*
X72718493Y-90514776D02*
X72597540Y-90454300D01*
X72597540Y-90454300D02*
X72537064Y-90333347D01*
X72537064Y-90333347D02*
X72537064Y-90212395D01*
X72537064Y-90212395D02*
X72597540Y-90091442D01*
X72597540Y-90091442D02*
X72718493Y-90030966D01*
X72718493Y-90030966D02*
X73020874Y-90030966D01*
X73020874Y-90030966D02*
X73141826Y-89970490D01*
X73746588Y-90514776D02*
X73746588Y-89668109D01*
X73746588Y-89789061D02*
X73807065Y-89728585D01*
X73807065Y-89728585D02*
X73928017Y-89668109D01*
X73928017Y-89668109D02*
X74109446Y-89668109D01*
X74109446Y-89668109D02*
X74230398Y-89728585D01*
X74230398Y-89728585D02*
X74290874Y-89849538D01*
X74290874Y-89849538D02*
X74290874Y-90514776D01*
X74290874Y-89849538D02*
X74351350Y-89728585D01*
X74351350Y-89728585D02*
X74472303Y-89668109D01*
X74472303Y-89668109D02*
X74653731Y-89668109D01*
X74653731Y-89668109D02*
X74774684Y-89728585D01*
X74774684Y-89728585D02*
X74835160Y-89849538D01*
X74835160Y-89849538D02*
X74835160Y-90514776D01*
X75984207Y-90514776D02*
X75984207Y-89849538D01*
X75984207Y-89849538D02*
X75923731Y-89728585D01*
X75923731Y-89728585D02*
X75802779Y-89668109D01*
X75802779Y-89668109D02*
X75560874Y-89668109D01*
X75560874Y-89668109D02*
X75439921Y-89728585D01*
X75984207Y-90454300D02*
X75863255Y-90514776D01*
X75863255Y-90514776D02*
X75560874Y-90514776D01*
X75560874Y-90514776D02*
X75439921Y-90454300D01*
X75439921Y-90454300D02*
X75379445Y-90333347D01*
X75379445Y-90333347D02*
X75379445Y-90212395D01*
X75379445Y-90212395D02*
X75439921Y-90091442D01*
X75439921Y-90091442D02*
X75560874Y-90030966D01*
X75560874Y-90030966D02*
X75863255Y-90030966D01*
X75863255Y-90030966D02*
X75984207Y-89970490D01*
X76588969Y-90514776D02*
X76588969Y-89668109D01*
X76588969Y-89789061D02*
X76649446Y-89728585D01*
X76649446Y-89728585D02*
X76770398Y-89668109D01*
X76770398Y-89668109D02*
X76951827Y-89668109D01*
X76951827Y-89668109D02*
X77072779Y-89728585D01*
X77072779Y-89728585D02*
X77133255Y-89849538D01*
X77133255Y-89849538D02*
X77133255Y-90514776D01*
X77133255Y-89849538D02*
X77193731Y-89728585D01*
X77193731Y-89728585D02*
X77314684Y-89668109D01*
X77314684Y-89668109D02*
X77496112Y-89668109D01*
X77496112Y-89668109D02*
X77617065Y-89728585D01*
X77617065Y-89728585D02*
X77677541Y-89849538D01*
X77677541Y-89849538D02*
X77677541Y-90514776D01*
X78826588Y-90514776D02*
X78826588Y-89849538D01*
X78826588Y-89849538D02*
X78766112Y-89728585D01*
X78766112Y-89728585D02*
X78645160Y-89668109D01*
X78645160Y-89668109D02*
X78403255Y-89668109D01*
X78403255Y-89668109D02*
X78282302Y-89728585D01*
X78826588Y-90454300D02*
X78705636Y-90514776D01*
X78705636Y-90514776D02*
X78403255Y-90514776D01*
X78403255Y-90514776D02*
X78282302Y-90454300D01*
X78282302Y-90454300D02*
X78221826Y-90333347D01*
X78221826Y-90333347D02*
X78221826Y-90212395D01*
X78221826Y-90212395D02*
X78282302Y-90091442D01*
X78282302Y-90091442D02*
X78403255Y-90030966D01*
X78403255Y-90030966D02*
X78705636Y-90030966D01*
X78705636Y-90030966D02*
X78826588Y-89970490D01*
X79249922Y-89668109D02*
X79733731Y-89668109D01*
X79431350Y-89244776D02*
X79431350Y-90333347D01*
X79431350Y-90333347D02*
X79491827Y-90454300D01*
X79491827Y-90454300D02*
X79612779Y-90514776D01*
X79612779Y-90514776D02*
X79733731Y-90514776D01*
X80096588Y-90454300D02*
X80217541Y-90514776D01*
X80217541Y-90514776D02*
X80459445Y-90514776D01*
X80459445Y-90514776D02*
X80580398Y-90454300D01*
X80580398Y-90454300D02*
X80640874Y-90333347D01*
X80640874Y-90333347D02*
X80640874Y-90272871D01*
X80640874Y-90272871D02*
X80580398Y-90151919D01*
X80580398Y-90151919D02*
X80459445Y-90091442D01*
X80459445Y-90091442D02*
X80278017Y-90091442D01*
X80278017Y-90091442D02*
X80157064Y-90030966D01*
X80157064Y-90030966D02*
X80096588Y-89910014D01*
X80096588Y-89910014D02*
X80096588Y-89849538D01*
X80096588Y-89849538D02*
X80157064Y-89728585D01*
X80157064Y-89728585D02*
X80278017Y-89668109D01*
X80278017Y-89668109D02*
X80459445Y-89668109D01*
X80459445Y-89668109D02*
X80580398Y-89728585D01*
X81729445Y-89668109D02*
X81729445Y-90514776D01*
X81185159Y-89668109D02*
X81185159Y-90333347D01*
X81185159Y-90333347D02*
X81245636Y-90454300D01*
X81245636Y-90454300D02*
X81366588Y-90514776D01*
X81366588Y-90514776D02*
X81548017Y-90514776D01*
X81548017Y-90514776D02*
X81668969Y-90454300D01*
X81668969Y-90454300D02*
X81729445Y-90393823D01*
X113781826Y-90768776D02*
X113177064Y-90768776D01*
X113177064Y-90768776D02*
X113177064Y-89498776D01*
X114205159Y-90103538D02*
X114628493Y-90103538D01*
X114809921Y-90768776D02*
X114205159Y-90768776D01*
X114205159Y-90768776D02*
X114205159Y-89498776D01*
X114205159Y-89498776D02*
X114809921Y-89498776D01*
X115354207Y-90768776D02*
X115354207Y-89498776D01*
X115354207Y-89498776D02*
X115656588Y-89498776D01*
X115656588Y-89498776D02*
X115838017Y-89559252D01*
X115838017Y-89559252D02*
X115958969Y-89680204D01*
X115958969Y-89680204D02*
X116019446Y-89801157D01*
X116019446Y-89801157D02*
X116079922Y-90043061D01*
X116079922Y-90043061D02*
X116079922Y-90224490D01*
X116079922Y-90224490D02*
X116019446Y-90466395D01*
X116019446Y-90466395D02*
X115958969Y-90587347D01*
X115958969Y-90587347D02*
X115838017Y-90708300D01*
X115838017Y-90708300D02*
X115656588Y-90768776D01*
X115656588Y-90768776D02*
X115354207Y-90768776D01*
X118015160Y-90103538D02*
X118196588Y-90164014D01*
X118196588Y-90164014D02*
X118257065Y-90224490D01*
X118257065Y-90224490D02*
X118317541Y-90345442D01*
X118317541Y-90345442D02*
X118317541Y-90526871D01*
X118317541Y-90526871D02*
X118257065Y-90647823D01*
X118257065Y-90647823D02*
X118196588Y-90708300D01*
X118196588Y-90708300D02*
X118075636Y-90768776D01*
X118075636Y-90768776D02*
X117591826Y-90768776D01*
X117591826Y-90768776D02*
X117591826Y-89498776D01*
X117591826Y-89498776D02*
X118015160Y-89498776D01*
X118015160Y-89498776D02*
X118136112Y-89559252D01*
X118136112Y-89559252D02*
X118196588Y-89619728D01*
X118196588Y-89619728D02*
X118257065Y-89740680D01*
X118257065Y-89740680D02*
X118257065Y-89861633D01*
X118257065Y-89861633D02*
X118196588Y-89982585D01*
X118196588Y-89982585D02*
X118136112Y-90043061D01*
X118136112Y-90043061D02*
X118015160Y-90103538D01*
X118015160Y-90103538D02*
X117591826Y-90103538D01*
X118861826Y-90768776D02*
X118861826Y-89922109D01*
X118861826Y-90164014D02*
X118922303Y-90043061D01*
X118922303Y-90043061D02*
X118982779Y-89982585D01*
X118982779Y-89982585D02*
X119103731Y-89922109D01*
X119103731Y-89922109D02*
X119224684Y-89922109D01*
X120131826Y-90708300D02*
X120010874Y-90768776D01*
X120010874Y-90768776D02*
X119768969Y-90768776D01*
X119768969Y-90768776D02*
X119648016Y-90708300D01*
X119648016Y-90708300D02*
X119587540Y-90587347D01*
X119587540Y-90587347D02*
X119587540Y-90103538D01*
X119587540Y-90103538D02*
X119648016Y-89982585D01*
X119648016Y-89982585D02*
X119768969Y-89922109D01*
X119768969Y-89922109D02*
X120010874Y-89922109D01*
X120010874Y-89922109D02*
X120131826Y-89982585D01*
X120131826Y-89982585D02*
X120192302Y-90103538D01*
X120192302Y-90103538D02*
X120192302Y-90224490D01*
X120192302Y-90224490D02*
X119587540Y-90345442D01*
X121280873Y-90768776D02*
X121280873Y-90103538D01*
X121280873Y-90103538D02*
X121220397Y-89982585D01*
X121220397Y-89982585D02*
X121099445Y-89922109D01*
X121099445Y-89922109D02*
X120857540Y-89922109D01*
X120857540Y-89922109D02*
X120736587Y-89982585D01*
X121280873Y-90708300D02*
X121159921Y-90768776D01*
X121159921Y-90768776D02*
X120857540Y-90768776D01*
X120857540Y-90768776D02*
X120736587Y-90708300D01*
X120736587Y-90708300D02*
X120676111Y-90587347D01*
X120676111Y-90587347D02*
X120676111Y-90466395D01*
X120676111Y-90466395D02*
X120736587Y-90345442D01*
X120736587Y-90345442D02*
X120857540Y-90284966D01*
X120857540Y-90284966D02*
X121159921Y-90284966D01*
X121159921Y-90284966D02*
X121280873Y-90224490D01*
X121885635Y-90768776D02*
X121885635Y-89498776D01*
X122006588Y-90284966D02*
X122369445Y-90768776D01*
X122369445Y-89922109D02*
X121885635Y-90405919D01*
X123095159Y-90768776D02*
X122974207Y-90708300D01*
X122974207Y-90708300D02*
X122913730Y-90647823D01*
X122913730Y-90647823D02*
X122853254Y-90526871D01*
X122853254Y-90526871D02*
X122853254Y-90164014D01*
X122853254Y-90164014D02*
X122913730Y-90043061D01*
X122913730Y-90043061D02*
X122974207Y-89982585D01*
X122974207Y-89982585D02*
X123095159Y-89922109D01*
X123095159Y-89922109D02*
X123276588Y-89922109D01*
X123276588Y-89922109D02*
X123397540Y-89982585D01*
X123397540Y-89982585D02*
X123458016Y-90043061D01*
X123458016Y-90043061D02*
X123518492Y-90164014D01*
X123518492Y-90164014D02*
X123518492Y-90526871D01*
X123518492Y-90526871D02*
X123458016Y-90647823D01*
X123458016Y-90647823D02*
X123397540Y-90708300D01*
X123397540Y-90708300D02*
X123276588Y-90768776D01*
X123276588Y-90768776D02*
X123095159Y-90768776D01*
X124607064Y-89922109D02*
X124607064Y-90768776D01*
X124062778Y-89922109D02*
X124062778Y-90587347D01*
X124062778Y-90587347D02*
X124123255Y-90708300D01*
X124123255Y-90708300D02*
X124244207Y-90768776D01*
X124244207Y-90768776D02*
X124425636Y-90768776D01*
X124425636Y-90768776D02*
X124546588Y-90708300D01*
X124546588Y-90708300D02*
X124607064Y-90647823D01*
X125030398Y-89922109D02*
X125514207Y-89922109D01*
X125211826Y-89498776D02*
X125211826Y-90587347D01*
X125211826Y-90587347D02*
X125272303Y-90708300D01*
X125272303Y-90708300D02*
X125393255Y-90768776D01*
X125393255Y-90768776D02*
X125514207Y-90768776D01*
D13*
X133936828Y-91695203D02*
X133936828Y-92409489D01*
X133936828Y-92409489D02*
X134651114Y-92480917D01*
X134651114Y-92480917D02*
X134579685Y-92409489D01*
X134579685Y-92409489D02*
X134508257Y-92266632D01*
X134508257Y-92266632D02*
X134508257Y-91909489D01*
X134508257Y-91909489D02*
X134579685Y-91766632D01*
X134579685Y-91766632D02*
X134651114Y-91695203D01*
X134651114Y-91695203D02*
X134793971Y-91623774D01*
X134793971Y-91623774D02*
X135151114Y-91623774D01*
X135151114Y-91623774D02*
X135293971Y-91695203D01*
X135293971Y-91695203D02*
X135365400Y-91766632D01*
X135365400Y-91766632D02*
X135436828Y-91909489D01*
X135436828Y-91909489D02*
X135436828Y-92266632D01*
X135436828Y-92266632D02*
X135365400Y-92409489D01*
X135365400Y-92409489D02*
X135293971Y-92480917D01*
X133936828Y-91195203D02*
X135436828Y-90695203D01*
X135436828Y-90695203D02*
X133936828Y-90195203D01*
X135483828Y-97465774D02*
X135483828Y-98322917D01*
X135483828Y-97894346D02*
X133983828Y-97894346D01*
X133983828Y-97894346D02*
X134198114Y-98037203D01*
X134198114Y-98037203D02*
X134340971Y-98180060D01*
X134340971Y-98180060D02*
X134412400Y-98322917D01*
X134126685Y-96894346D02*
X134055257Y-96822918D01*
X134055257Y-96822918D02*
X133983828Y-96680061D01*
X133983828Y-96680061D02*
X133983828Y-96322918D01*
X133983828Y-96322918D02*
X134055257Y-96180061D01*
X134055257Y-96180061D02*
X134126685Y-96108632D01*
X134126685Y-96108632D02*
X134269542Y-96037203D01*
X134269542Y-96037203D02*
X134412400Y-96037203D01*
X134412400Y-96037203D02*
X134626685Y-96108632D01*
X134626685Y-96108632D02*
X135483828Y-96965775D01*
X135483828Y-96965775D02*
X135483828Y-96037203D01*
X133983828Y-95608632D02*
X135483828Y-95108632D01*
X135483828Y-95108632D02*
X133983828Y-94608632D01*
D12*
X140739905Y-91132819D02*
X140739905Y-90132819D01*
X140739905Y-90132819D02*
X140978000Y-90132819D01*
X140978000Y-90132819D02*
X141120857Y-90180438D01*
X141120857Y-90180438D02*
X141216095Y-90275676D01*
X141216095Y-90275676D02*
X141263714Y-90370914D01*
X141263714Y-90370914D02*
X141311333Y-90561390D01*
X141311333Y-90561390D02*
X141311333Y-90704247D01*
X141311333Y-90704247D02*
X141263714Y-90894723D01*
X141263714Y-90894723D02*
X141216095Y-90989961D01*
X141216095Y-90989961D02*
X141120857Y-91085200D01*
X141120857Y-91085200D02*
X140978000Y-91132819D01*
X140978000Y-91132819D02*
X140739905Y-91132819D01*
X141692286Y-90228057D02*
X141739905Y-90180438D01*
X141739905Y-90180438D02*
X141835143Y-90132819D01*
X141835143Y-90132819D02*
X142073238Y-90132819D01*
X142073238Y-90132819D02*
X142168476Y-90180438D01*
X142168476Y-90180438D02*
X142216095Y-90228057D01*
X142216095Y-90228057D02*
X142263714Y-90323295D01*
X142263714Y-90323295D02*
X142263714Y-90418533D01*
X142263714Y-90418533D02*
X142216095Y-90561390D01*
X142216095Y-90561390D02*
X141644667Y-91132819D01*
X141644667Y-91132819D02*
X142263714Y-91132819D01*
X98768819Y-83891332D02*
X98768819Y-83700856D01*
X98768819Y-83700856D02*
X98816438Y-83605618D01*
X98816438Y-83605618D02*
X98911676Y-83510380D01*
X98911676Y-83510380D02*
X99102152Y-83462761D01*
X99102152Y-83462761D02*
X99435485Y-83462761D01*
X99435485Y-83462761D02*
X99625961Y-83510380D01*
X99625961Y-83510380D02*
X99721200Y-83605618D01*
X99721200Y-83605618D02*
X99768819Y-83700856D01*
X99768819Y-83700856D02*
X99768819Y-83891332D01*
X99768819Y-83891332D02*
X99721200Y-83986570D01*
X99721200Y-83986570D02*
X99625961Y-84081808D01*
X99625961Y-84081808D02*
X99435485Y-84129427D01*
X99435485Y-84129427D02*
X99102152Y-84129427D01*
X99102152Y-84129427D02*
X98911676Y-84081808D01*
X98911676Y-84081808D02*
X98816438Y-83986570D01*
X98816438Y-83986570D02*
X98768819Y-83891332D01*
X99768819Y-83034189D02*
X98768819Y-83034189D01*
X99768819Y-82462761D02*
X99197390Y-82891332D01*
X98768819Y-82462761D02*
X99340247Y-83034189D01*
X99768819Y-82034189D02*
X98768819Y-82034189D01*
X137397833Y-97736819D02*
X137064500Y-97260628D01*
X136826405Y-97736819D02*
X136826405Y-96736819D01*
X136826405Y-96736819D02*
X137207357Y-96736819D01*
X137207357Y-96736819D02*
X137302595Y-96784438D01*
X137302595Y-96784438D02*
X137350214Y-96832057D01*
X137350214Y-96832057D02*
X137397833Y-96927295D01*
X137397833Y-96927295D02*
X137397833Y-97070152D01*
X137397833Y-97070152D02*
X137350214Y-97165390D01*
X137350214Y-97165390D02*
X137302595Y-97213009D01*
X137302595Y-97213009D02*
X137207357Y-97260628D01*
X137207357Y-97260628D02*
X136826405Y-97260628D01*
X138350214Y-97736819D02*
X137778786Y-97736819D01*
X138064500Y-97736819D02*
X138064500Y-96736819D01*
X138064500Y-96736819D02*
X137969262Y-96879676D01*
X137969262Y-96879676D02*
X137874024Y-96974914D01*
X137874024Y-96974914D02*
X137778786Y-97022533D01*
X140786905Y-97736819D02*
X140786905Y-96736819D01*
X140786905Y-96736819D02*
X141025000Y-96736819D01*
X141025000Y-96736819D02*
X141167857Y-96784438D01*
X141167857Y-96784438D02*
X141263095Y-96879676D01*
X141263095Y-96879676D02*
X141310714Y-96974914D01*
X141310714Y-96974914D02*
X141358333Y-97165390D01*
X141358333Y-97165390D02*
X141358333Y-97308247D01*
X141358333Y-97308247D02*
X141310714Y-97498723D01*
X141310714Y-97498723D02*
X141263095Y-97593961D01*
X141263095Y-97593961D02*
X141167857Y-97689200D01*
X141167857Y-97689200D02*
X141025000Y-97736819D01*
X141025000Y-97736819D02*
X140786905Y-97736819D01*
X142310714Y-97736819D02*
X141739286Y-97736819D01*
X142025000Y-97736819D02*
X142025000Y-96736819D01*
X142025000Y-96736819D02*
X141929762Y-96879676D01*
X141929762Y-96879676D02*
X141834524Y-96974914D01*
X141834524Y-96974914D02*
X141739286Y-97022533D01*
X67056095Y-98514819D02*
X67056095Y-99324342D01*
X67056095Y-99324342D02*
X67103714Y-99419580D01*
X67103714Y-99419580D02*
X67151333Y-99467200D01*
X67151333Y-99467200D02*
X67246571Y-99514819D01*
X67246571Y-99514819D02*
X67437047Y-99514819D01*
X67437047Y-99514819D02*
X67532285Y-99467200D01*
X67532285Y-99467200D02*
X67579904Y-99419580D01*
X67579904Y-99419580D02*
X67627523Y-99324342D01*
X67627523Y-99324342D02*
X67627523Y-98514819D01*
X68627523Y-99514819D02*
X68056095Y-99514819D01*
X68341809Y-99514819D02*
X68341809Y-98514819D01*
X68341809Y-98514819D02*
X68246571Y-98657676D01*
X68246571Y-98657676D02*
X68151333Y-98752914D01*
X68151333Y-98752914D02*
X68056095Y-98800533D01*
X112355333Y-98276580D02*
X112307714Y-98324200D01*
X112307714Y-98324200D02*
X112164857Y-98371819D01*
X112164857Y-98371819D02*
X112069619Y-98371819D01*
X112069619Y-98371819D02*
X111926762Y-98324200D01*
X111926762Y-98324200D02*
X111831524Y-98228961D01*
X111831524Y-98228961D02*
X111783905Y-98133723D01*
X111783905Y-98133723D02*
X111736286Y-97943247D01*
X111736286Y-97943247D02*
X111736286Y-97800390D01*
X111736286Y-97800390D02*
X111783905Y-97609914D01*
X111783905Y-97609914D02*
X111831524Y-97514676D01*
X111831524Y-97514676D02*
X111926762Y-97419438D01*
X111926762Y-97419438D02*
X112069619Y-97371819D01*
X112069619Y-97371819D02*
X112164857Y-97371819D01*
X112164857Y-97371819D02*
X112307714Y-97419438D01*
X112307714Y-97419438D02*
X112355333Y-97467057D01*
X113212476Y-97705152D02*
X113212476Y-98371819D01*
X112974381Y-97324200D02*
X112736286Y-98038485D01*
X112736286Y-98038485D02*
X113355333Y-98038485D01*
X129796390Y-99142580D02*
X129748771Y-99190200D01*
X129748771Y-99190200D02*
X129605914Y-99237819D01*
X129605914Y-99237819D02*
X129510676Y-99237819D01*
X129510676Y-99237819D02*
X129367819Y-99190200D01*
X129367819Y-99190200D02*
X129272581Y-99094961D01*
X129272581Y-99094961D02*
X129224962Y-98999723D01*
X129224962Y-98999723D02*
X129177343Y-98809247D01*
X129177343Y-98809247D02*
X129177343Y-98666390D01*
X129177343Y-98666390D02*
X129224962Y-98475914D01*
X129224962Y-98475914D02*
X129272581Y-98380676D01*
X129272581Y-98380676D02*
X129367819Y-98285438D01*
X129367819Y-98285438D02*
X129510676Y-98237819D01*
X129510676Y-98237819D02*
X129605914Y-98237819D01*
X129605914Y-98237819D02*
X129748771Y-98285438D01*
X129748771Y-98285438D02*
X129796390Y-98333057D01*
X130367819Y-99237819D02*
X130272581Y-99190200D01*
X130272581Y-99190200D02*
X130224962Y-99142580D01*
X130224962Y-99142580D02*
X130177343Y-99047342D01*
X130177343Y-99047342D02*
X130177343Y-98761628D01*
X130177343Y-98761628D02*
X130224962Y-98666390D01*
X130224962Y-98666390D02*
X130272581Y-98618771D01*
X130272581Y-98618771D02*
X130367819Y-98571152D01*
X130367819Y-98571152D02*
X130510676Y-98571152D01*
X130510676Y-98571152D02*
X130605914Y-98618771D01*
X130605914Y-98618771D02*
X130653533Y-98666390D01*
X130653533Y-98666390D02*
X130701152Y-98761628D01*
X130701152Y-98761628D02*
X130701152Y-99047342D01*
X130701152Y-99047342D02*
X130653533Y-99142580D01*
X130653533Y-99142580D02*
X130605914Y-99190200D01*
X130605914Y-99190200D02*
X130510676Y-99237819D01*
X130510676Y-99237819D02*
X130367819Y-99237819D01*
X131129724Y-98571152D02*
X131129724Y-99237819D01*
X131129724Y-98666390D02*
X131177343Y-98618771D01*
X131177343Y-98618771D02*
X131272581Y-98571152D01*
X131272581Y-98571152D02*
X131415438Y-98571152D01*
X131415438Y-98571152D02*
X131510676Y-98618771D01*
X131510676Y-98618771D02*
X131558295Y-98714009D01*
X131558295Y-98714009D02*
X131558295Y-99237819D01*
X132034486Y-98571152D02*
X132034486Y-99237819D01*
X132034486Y-98666390D02*
X132082105Y-98618771D01*
X132082105Y-98618771D02*
X132177343Y-98571152D01*
X132177343Y-98571152D02*
X132320200Y-98571152D01*
X132320200Y-98571152D02*
X132415438Y-98618771D01*
X132415438Y-98618771D02*
X132463057Y-98714009D01*
X132463057Y-98714009D02*
X132463057Y-99237819D01*
X133463057Y-99237819D02*
X132891629Y-99237819D01*
X133177343Y-99237819D02*
X133177343Y-98237819D01*
X133177343Y-98237819D02*
X133082105Y-98380676D01*
X133082105Y-98380676D02*
X132986867Y-98475914D01*
X132986867Y-98475914D02*
X132891629Y-98523533D01*
X63460333Y-94212580D02*
X63412714Y-94260200D01*
X63412714Y-94260200D02*
X63269857Y-94307819D01*
X63269857Y-94307819D02*
X63174619Y-94307819D01*
X63174619Y-94307819D02*
X63031762Y-94260200D01*
X63031762Y-94260200D02*
X62936524Y-94164961D01*
X62936524Y-94164961D02*
X62888905Y-94069723D01*
X62888905Y-94069723D02*
X62841286Y-93879247D01*
X62841286Y-93879247D02*
X62841286Y-93736390D01*
X62841286Y-93736390D02*
X62888905Y-93545914D01*
X62888905Y-93545914D02*
X62936524Y-93450676D01*
X62936524Y-93450676D02*
X63031762Y-93355438D01*
X63031762Y-93355438D02*
X63174619Y-93307819D01*
X63174619Y-93307819D02*
X63269857Y-93307819D01*
X63269857Y-93307819D02*
X63412714Y-93355438D01*
X63412714Y-93355438D02*
X63460333Y-93403057D01*
X64412714Y-94307819D02*
X63841286Y-94307819D01*
X64127000Y-94307819D02*
X64127000Y-93307819D01*
X64127000Y-93307819D02*
X64031762Y-93450676D01*
X64031762Y-93450676D02*
X63936524Y-93545914D01*
X63936524Y-93545914D02*
X63841286Y-93593533D01*
X98131333Y-98784580D02*
X98083714Y-98832200D01*
X98083714Y-98832200D02*
X97940857Y-98879819D01*
X97940857Y-98879819D02*
X97845619Y-98879819D01*
X97845619Y-98879819D02*
X97702762Y-98832200D01*
X97702762Y-98832200D02*
X97607524Y-98736961D01*
X97607524Y-98736961D02*
X97559905Y-98641723D01*
X97559905Y-98641723D02*
X97512286Y-98451247D01*
X97512286Y-98451247D02*
X97512286Y-98308390D01*
X97512286Y-98308390D02*
X97559905Y-98117914D01*
X97559905Y-98117914D02*
X97607524Y-98022676D01*
X97607524Y-98022676D02*
X97702762Y-97927438D01*
X97702762Y-97927438D02*
X97845619Y-97879819D01*
X97845619Y-97879819D02*
X97940857Y-97879819D01*
X97940857Y-97879819D02*
X98083714Y-97927438D01*
X98083714Y-97927438D02*
X98131333Y-97975057D01*
X99036095Y-97879819D02*
X98559905Y-97879819D01*
X98559905Y-97879819D02*
X98512286Y-98356009D01*
X98512286Y-98356009D02*
X98559905Y-98308390D01*
X98559905Y-98308390D02*
X98655143Y-98260771D01*
X98655143Y-98260771D02*
X98893238Y-98260771D01*
X98893238Y-98260771D02*
X98988476Y-98308390D01*
X98988476Y-98308390D02*
X99036095Y-98356009D01*
X99036095Y-98356009D02*
X99083714Y-98451247D01*
X99083714Y-98451247D02*
X99083714Y-98689342D01*
X99083714Y-98689342D02*
X99036095Y-98784580D01*
X99036095Y-98784580D02*
X98988476Y-98832200D01*
X98988476Y-98832200D02*
X98893238Y-98879819D01*
X98893238Y-98879819D02*
X98655143Y-98879819D01*
X98655143Y-98879819D02*
X98559905Y-98832200D01*
X98559905Y-98832200D02*
X98512286Y-98784580D01*
X35230819Y-93651333D02*
X35945104Y-93651333D01*
X35945104Y-93651333D02*
X36087961Y-93698952D01*
X36087961Y-93698952D02*
X36183200Y-93794190D01*
X36183200Y-93794190D02*
X36230819Y-93937047D01*
X36230819Y-93937047D02*
X36230819Y-94032285D01*
X36230819Y-92651333D02*
X36230819Y-93222761D01*
X36230819Y-92937047D02*
X35230819Y-92937047D01*
X35230819Y-92937047D02*
X35373676Y-93032285D01*
X35373676Y-93032285D02*
X35468914Y-93127523D01*
X35468914Y-93127523D02*
X35516533Y-93222761D01*
X137350833Y-91226819D02*
X137017500Y-90750628D01*
X136779405Y-91226819D02*
X136779405Y-90226819D01*
X136779405Y-90226819D02*
X137160357Y-90226819D01*
X137160357Y-90226819D02*
X137255595Y-90274438D01*
X137255595Y-90274438D02*
X137303214Y-90322057D01*
X137303214Y-90322057D02*
X137350833Y-90417295D01*
X137350833Y-90417295D02*
X137350833Y-90560152D01*
X137350833Y-90560152D02*
X137303214Y-90655390D01*
X137303214Y-90655390D02*
X137255595Y-90703009D01*
X137255595Y-90703009D02*
X137160357Y-90750628D01*
X137160357Y-90750628D02*
X136779405Y-90750628D01*
X137731786Y-90322057D02*
X137779405Y-90274438D01*
X137779405Y-90274438D02*
X137874643Y-90226819D01*
X137874643Y-90226819D02*
X138112738Y-90226819D01*
X138112738Y-90226819D02*
X138207976Y-90274438D01*
X138207976Y-90274438D02*
X138255595Y-90322057D01*
X138255595Y-90322057D02*
X138303214Y-90417295D01*
X138303214Y-90417295D02*
X138303214Y-90512533D01*
X138303214Y-90512533D02*
X138255595Y-90655390D01*
X138255595Y-90655390D02*
X137684167Y-91226819D01*
X137684167Y-91226819D02*
X138303214Y-91226819D01*
D14*
%TO.C,D2*%
X143138000Y-92937000D02*
X143138000Y-91467000D01*
X143138000Y-91467000D02*
X140678000Y-91467000D01*
X140678000Y-92937000D02*
X143138000Y-92937000D01*
D12*
%TO.C,Conn2*%
X71120000Y-82296000D02*
X71120000Y-83820000D01*
X71120000Y-83820000D02*
X96520000Y-83820000D01*
X71120000Y-88900000D02*
X71120000Y-83820000D01*
X96520000Y-82296000D02*
X71120000Y-82296000D01*
X96520000Y-83820000D02*
X96520000Y-82296000D01*
X96520000Y-88900000D02*
X71120000Y-88900000D01*
X96520000Y-88900000D02*
X96520000Y-83820000D01*
%TO.C,U3*%
X110490000Y-98425000D02*
X100330000Y-98425000D01*
X110490000Y-92075000D02*
X107950000Y-94615000D01*
X110490000Y-86995000D02*
X110490000Y-92075000D01*
X110490000Y-81915000D02*
X110490000Y-98425000D01*
X110490000Y-81915000D02*
X100330000Y-81915000D01*
X107950000Y-94615000D02*
X102870000Y-94615000D01*
X107950000Y-84455000D02*
X110490000Y-86995000D01*
X102870000Y-94615000D02*
X100330000Y-92075000D01*
X102870000Y-84455000D02*
X107950000Y-84455000D01*
X100330000Y-98425000D02*
X100330000Y-81915000D01*
X100330000Y-92075000D02*
X100330000Y-86995000D01*
X100330000Y-86995000D02*
X102870000Y-84455000D01*
D14*
%TO.C,R1*%
X137309776Y-95489500D02*
X137819224Y-95489500D01*
X137309776Y-96534500D02*
X137819224Y-96534500D01*
%TO.C,D1*%
X143185000Y-96747000D02*
X143185000Y-95277000D01*
X143185000Y-95277000D02*
X140725000Y-95277000D01*
X140725000Y-96747000D02*
X143185000Y-96747000D01*
D15*
%TO.C,U1*%
X60768000Y-112996000D02*
X60768000Y-104936000D01*
X61468000Y-100076000D02*
X61468000Y-104936000D01*
X61468000Y-100076000D02*
X122428000Y-100076000D01*
X61468000Y-104936000D02*
X60768000Y-104936000D01*
X61468000Y-112996000D02*
X60768000Y-112996000D01*
X61468000Y-117856000D02*
X61468000Y-112996000D01*
X122428000Y-100076000D02*
X122428000Y-117856000D01*
X122428000Y-117856000D02*
X61468000Y-117856000D01*
D16*
X67918000Y-118466000D02*
G75*
G03*
X67918000Y-118466000I-100000J0D01*
G01*
D14*
%TO.C,C4*%
X112012000Y-95650267D02*
X112012000Y-95357733D01*
X113032000Y-95650267D02*
X113032000Y-95357733D01*
D12*
%TO.C,REF\u002A\u002A*%
X143210283Y-85598000D02*
G75*
G03*
X143210283Y-85598000I-4018283J0D01*
G01*
%TO.C,Conn1*%
X154014200Y-115570000D02*
X154014200Y-99822000D01*
X153988800Y-115570000D02*
X146241800Y-115570000D01*
X153988800Y-107721400D02*
X145098800Y-107721400D01*
X146267200Y-99822000D02*
X145098800Y-99822000D01*
X146241800Y-99822000D02*
X153988800Y-99822000D01*
X145098800Y-115570000D02*
X146318000Y-115570000D01*
X143955800Y-114427000D02*
X143955800Y-113258600D01*
X143955800Y-109982000D02*
X143955800Y-113258600D01*
X143955800Y-109982000D02*
X143955800Y-108839000D01*
X143955800Y-105410000D02*
X143955800Y-106553000D01*
X143955800Y-105410000D02*
X143955800Y-102108000D01*
X143955800Y-102133400D02*
X143955800Y-100965000D01*
X141695200Y-115570000D02*
X142787400Y-115570000D01*
X141669800Y-115570000D02*
X129376200Y-115570000D01*
X141669800Y-107696000D02*
X142812800Y-107696000D01*
X141669800Y-107696000D02*
X129376200Y-107696000D01*
X141669800Y-99822000D02*
X129376200Y-99822000D01*
X141644400Y-99822000D02*
X142838200Y-99822000D01*
X129376200Y-115570000D02*
X129376200Y-99822000D01*
X143955800Y-100939600D02*
G75*
G03*
X145073400Y-99822000I2J1117598D01*
G01*
X145098800Y-115570000D02*
G75*
G03*
X143955800Y-114427000I-1143000J0D01*
G01*
X142838200Y-99822000D02*
G75*
G03*
X143955800Y-100939600I1117598J-2D01*
G01*
X143955800Y-114427000D02*
G75*
G03*
X142812800Y-115570000I0J-1143000D01*
G01*
X145098800Y-107696000D02*
G75*
G03*
X145098800Y-107696000I-1143000J0D01*
G01*
D14*
%TO.C,C1*%
X62990000Y-91586267D02*
X62990000Y-91293733D01*
X64010000Y-91586267D02*
X64010000Y-91293733D01*
%TO.C,C5*%
X97788000Y-95904267D02*
X97788000Y-95611733D01*
X98808000Y-95904267D02*
X98808000Y-95611733D01*
%TO.C,G\u002A\u002A\u002A*%
D17*
X96348176Y-94304970D02*
X96344441Y-94308706D01*
X96340706Y-94304970D01*
X96344441Y-94301235D01*
X96348176Y-94304970D01*
G36*
X96348176Y-94304970D02*
G01*
X96344441Y-94308706D01*
X96340706Y-94304970D01*
X96344441Y-94301235D01*
X96348176Y-94304970D01*
G37*
X99497401Y-90884566D02*
X99546300Y-90891618D01*
X99586114Y-90903193D01*
X99592187Y-90905822D01*
X99616558Y-90917116D01*
X99594147Y-90913325D01*
X99516145Y-90904577D01*
X99443085Y-90905160D01*
X99378284Y-90915037D01*
X99375608Y-90915701D01*
X99300095Y-90940534D01*
X99221405Y-90977745D01*
X99139270Y-91027553D01*
X99053422Y-91090177D01*
X98963592Y-91165834D01*
X98869511Y-91254743D01*
X98770912Y-91357124D01*
X98667526Y-91473193D01*
X98616008Y-91533968D01*
X98568280Y-91591612D01*
X98522682Y-91647823D01*
X98478501Y-91703634D01*
X98435022Y-91760079D01*
X98391530Y-91818191D01*
X98347311Y-91879001D01*
X98301650Y-91943543D01*
X98253832Y-92012851D01*
X98203144Y-92087956D01*
X98148870Y-92169893D01*
X98090296Y-92259693D01*
X98026708Y-92358389D01*
X97957391Y-92467016D01*
X97881629Y-92586605D01*
X97817962Y-92687588D01*
X97672775Y-92921712D01*
X97533132Y-93153812D01*
X97401277Y-93380142D01*
X97368092Y-93438382D01*
X97338103Y-93491001D01*
X97303358Y-93551520D01*
X97266720Y-93614985D01*
X97231048Y-93676440D01*
X97199748Y-93730001D01*
X97168574Y-93783441D01*
X97134377Y-93842623D01*
X97099797Y-93902942D01*
X97067473Y-93959794D01*
X97040045Y-94008574D01*
X97039168Y-94010148D01*
X97015513Y-94052515D01*
X96993072Y-94092574D01*
X96973339Y-94127668D01*
X96957806Y-94155143D01*
X96947966Y-94172345D01*
X96947657Y-94172878D01*
X96928864Y-94205138D01*
X96899862Y-94128054D01*
X96884650Y-94089931D01*
X96865739Y-94046147D01*
X96844075Y-93998564D01*
X96820609Y-93949042D01*
X96796289Y-93899443D01*
X96772064Y-93851628D01*
X96748882Y-93807459D01*
X96727693Y-93768797D01*
X96709444Y-93737503D01*
X96695086Y-93715439D01*
X96685566Y-93704465D01*
X96683498Y-93703588D01*
X96678478Y-93709834D01*
X96667703Y-93727153D01*
X96652415Y-93753420D01*
X96633857Y-93786506D01*
X96616920Y-93817514D01*
X96589572Y-93867961D01*
X96560246Y-93921710D01*
X96529836Y-93977157D01*
X96499235Y-94032696D01*
X96469335Y-94086722D01*
X96441031Y-94137629D01*
X96415214Y-94183812D01*
X96392779Y-94223666D01*
X96374618Y-94255585D01*
X96361625Y-94277964D01*
X96354692Y-94289197D01*
X96354054Y-94290029D01*
X96353536Y-94286750D01*
X96357507Y-94272021D01*
X96365212Y-94248383D01*
X96372918Y-94226529D01*
X96391633Y-94175106D01*
X96412437Y-94118379D01*
X96434734Y-94057932D01*
X96457930Y-93995348D01*
X96481431Y-93932212D01*
X96504641Y-93870106D01*
X96526967Y-93810616D01*
X96547814Y-93755324D01*
X96566586Y-93705814D01*
X96582690Y-93663671D01*
X96595531Y-93630477D01*
X96604513Y-93607817D01*
X96609044Y-93597275D01*
X96609364Y-93596759D01*
X96615665Y-93599680D01*
X96627484Y-93612757D01*
X96642556Y-93633391D01*
X96646756Y-93639714D01*
X96662339Y-93662745D01*
X96675039Y-93679888D01*
X96682585Y-93688119D01*
X96683362Y-93688433D01*
X96688092Y-93682073D01*
X96698726Y-93664377D01*
X96714200Y-93637224D01*
X96733451Y-93602494D01*
X96755416Y-93562070D01*
X96766529Y-93541348D01*
X96792700Y-93492619D01*
X96824035Y-93434720D01*
X96858418Y-93371528D01*
X96893736Y-93306923D01*
X96927876Y-93244783D01*
X96948599Y-93207253D01*
X96978680Y-93152813D01*
X97014015Y-93088712D01*
X97052706Y-93018403D01*
X97092853Y-92945341D01*
X97132556Y-92872982D01*
X97169916Y-92804780D01*
X97182941Y-92780970D01*
X97243475Y-92671141D01*
X97302934Y-92564971D01*
X97360673Y-92463544D01*
X97416048Y-92367937D01*
X97468416Y-92279234D01*
X97517132Y-92198512D01*
X97561552Y-92126854D01*
X97601032Y-92065340D01*
X97634928Y-92015051D01*
X97660531Y-91979752D01*
X97696393Y-91936509D01*
X97728378Y-91905418D01*
X97755954Y-91886775D01*
X97778593Y-91880875D01*
X97795763Y-91888015D01*
X97803742Y-91899792D01*
X97811137Y-91919748D01*
X97812410Y-91931480D01*
X97808201Y-91933047D01*
X97799152Y-91922506D01*
X97797242Y-91919476D01*
X97782827Y-91901966D01*
X97769433Y-91897072D01*
X97769256Y-91897104D01*
X97755216Y-91906065D01*
X97735771Y-91928443D01*
X97711158Y-91963817D01*
X97681612Y-92011769D01*
X97647370Y-92071880D01*
X97608669Y-92143729D01*
X97565743Y-92226898D01*
X97518830Y-92320968D01*
X97468167Y-92425520D01*
X97450086Y-92463470D01*
X97432279Y-92501413D01*
X97410545Y-92548413D01*
X97385431Y-92603239D01*
X97357484Y-92664662D01*
X97327249Y-92731453D01*
X97295275Y-92802383D01*
X97262108Y-92876221D01*
X97228295Y-92951739D01*
X97194383Y-93027707D01*
X97160918Y-93102895D01*
X97128448Y-93176074D01*
X97097519Y-93246014D01*
X97068679Y-93311487D01*
X97042473Y-93371261D01*
X97019450Y-93424109D01*
X97000155Y-93468800D01*
X96985136Y-93504106D01*
X96974939Y-93528795D01*
X96970112Y-93541640D01*
X96969829Y-93543221D01*
X96974402Y-93537876D01*
X96986115Y-93521767D01*
X97003807Y-93496559D01*
X97026320Y-93463914D01*
X97052497Y-93425494D01*
X97072823Y-93395395D01*
X97106708Y-93345354D01*
X97146824Y-93286636D01*
X97192148Y-93220705D01*
X97241656Y-93149024D01*
X97294323Y-93073057D01*
X97349127Y-92994265D01*
X97405042Y-92914111D01*
X97461045Y-92834060D01*
X97516112Y-92755573D01*
X97569219Y-92680114D01*
X97619341Y-92609145D01*
X97665456Y-92544130D01*
X97706539Y-92486531D01*
X97741566Y-92437812D01*
X97769513Y-92399435D01*
X97777397Y-92388764D01*
X97913769Y-92207429D01*
X98043821Y-92039203D01*
X98167835Y-91883792D01*
X98286093Y-91740903D01*
X98398877Y-91610241D01*
X98506469Y-91491513D01*
X98609151Y-91384424D01*
X98707204Y-91288680D01*
X98800912Y-91203987D01*
X98890555Y-91130052D01*
X98976416Y-91066580D01*
X99058777Y-91013277D01*
X99137920Y-90969849D01*
X99138441Y-90969590D01*
X99197435Y-90941435D01*
X99247646Y-90920299D01*
X99292750Y-90904959D01*
X99336427Y-90894190D01*
X99382354Y-90886769D01*
X99390245Y-90885801D01*
X99443891Y-90882478D01*
X99497401Y-90884566D01*
G36*
X99497401Y-90884566D02*
G01*
X99546300Y-90891618D01*
X99586114Y-90903193D01*
X99592187Y-90905822D01*
X99616558Y-90917116D01*
X99594147Y-90913325D01*
X99516145Y-90904577D01*
X99443085Y-90905160D01*
X99378284Y-90915037D01*
X99375608Y-90915701D01*
X99300095Y-90940534D01*
X99221405Y-90977745D01*
X99139270Y-91027553D01*
X99053422Y-91090177D01*
X98963592Y-91165834D01*
X98869511Y-91254743D01*
X98770912Y-91357124D01*
X98667526Y-91473193D01*
X98616008Y-91533968D01*
X98568280Y-91591612D01*
X98522682Y-91647823D01*
X98478501Y-91703634D01*
X98435022Y-91760079D01*
X98391530Y-91818191D01*
X98347311Y-91879001D01*
X98301650Y-91943543D01*
X98253832Y-92012851D01*
X98203144Y-92087956D01*
X98148870Y-92169893D01*
X98090296Y-92259693D01*
X98026708Y-92358389D01*
X97957391Y-92467016D01*
X97881629Y-92586605D01*
X97817962Y-92687588D01*
X97672775Y-92921712D01*
X97533132Y-93153812D01*
X97401277Y-93380142D01*
X97368092Y-93438382D01*
X97338103Y-93491001D01*
X97303358Y-93551520D01*
X97266720Y-93614985D01*
X97231048Y-93676440D01*
X97199748Y-93730001D01*
X97168574Y-93783441D01*
X97134377Y-93842623D01*
X97099797Y-93902942D01*
X97067473Y-93959794D01*
X97040045Y-94008574D01*
X97039168Y-94010148D01*
X97015513Y-94052515D01*
X96993072Y-94092574D01*
X96973339Y-94127668D01*
X96957806Y-94155143D01*
X96947966Y-94172345D01*
X96947657Y-94172878D01*
X96928864Y-94205138D01*
X96899862Y-94128054D01*
X96884650Y-94089931D01*
X96865739Y-94046147D01*
X96844075Y-93998564D01*
X96820609Y-93949042D01*
X96796289Y-93899443D01*
X96772064Y-93851628D01*
X96748882Y-93807459D01*
X96727693Y-93768797D01*
X96709444Y-93737503D01*
X96695086Y-93715439D01*
X96685566Y-93704465D01*
X96683498Y-93703588D01*
X96678478Y-93709834D01*
X96667703Y-93727153D01*
X96652415Y-93753420D01*
X96633857Y-93786506D01*
X96616920Y-93817514D01*
X96589572Y-93867961D01*
X96560246Y-93921710D01*
X96529836Y-93977157D01*
X96499235Y-94032696D01*
X96469335Y-94086722D01*
X96441031Y-94137629D01*
X96415214Y-94183812D01*
X96392779Y-94223666D01*
X96374618Y-94255585D01*
X96361625Y-94277964D01*
X96354692Y-94289197D01*
X96354054Y-94290029D01*
X96353536Y-94286750D01*
X96357507Y-94272021D01*
X96365212Y-94248383D01*
X96372918Y-94226529D01*
X96391633Y-94175106D01*
X96412437Y-94118379D01*
X96434734Y-94057932D01*
X96457930Y-93995348D01*
X96481431Y-93932212D01*
X96504641Y-93870106D01*
X96526967Y-93810616D01*
X96547814Y-93755324D01*
X96566586Y-93705814D01*
X96582690Y-93663671D01*
X96595531Y-93630477D01*
X96604513Y-93607817D01*
X96609044Y-93597275D01*
X96609364Y-93596759D01*
X96615665Y-93599680D01*
X96627484Y-93612757D01*
X96642556Y-93633391D01*
X96646756Y-93639714D01*
X96662339Y-93662745D01*
X96675039Y-93679888D01*
X96682585Y-93688119D01*
X96683362Y-93688433D01*
X96688092Y-93682073D01*
X96698726Y-93664377D01*
X96714200Y-93637224D01*
X96733451Y-93602494D01*
X96755416Y-93562070D01*
X96766529Y-93541348D01*
X96792700Y-93492619D01*
X96824035Y-93434720D01*
X96858418Y-93371528D01*
X96893736Y-93306923D01*
X96927876Y-93244783D01*
X96948599Y-93207253D01*
X96978680Y-93152813D01*
X97014015Y-93088712D01*
X97052706Y-93018403D01*
X97092853Y-92945341D01*
X97132556Y-92872982D01*
X97169916Y-92804780D01*
X97182941Y-92780970D01*
X97243475Y-92671141D01*
X97302934Y-92564971D01*
X97360673Y-92463544D01*
X97416048Y-92367937D01*
X97468416Y-92279234D01*
X97517132Y-92198512D01*
X97561552Y-92126854D01*
X97601032Y-92065340D01*
X97634928Y-92015051D01*
X97660531Y-91979752D01*
X97696393Y-91936509D01*
X97728378Y-91905418D01*
X97755954Y-91886775D01*
X97778593Y-91880875D01*
X97795763Y-91888015D01*
X97803742Y-91899792D01*
X97811137Y-91919748D01*
X97812410Y-91931480D01*
X97808201Y-91933047D01*
X97799152Y-91922506D01*
X97797242Y-91919476D01*
X97782827Y-91901966D01*
X97769433Y-91897072D01*
X97769256Y-91897104D01*
X97755216Y-91906065D01*
X97735771Y-91928443D01*
X97711158Y-91963817D01*
X97681612Y-92011769D01*
X97647370Y-92071880D01*
X97608669Y-92143729D01*
X97565743Y-92226898D01*
X97518830Y-92320968D01*
X97468167Y-92425520D01*
X97450086Y-92463470D01*
X97432279Y-92501413D01*
X97410545Y-92548413D01*
X97385431Y-92603239D01*
X97357484Y-92664662D01*
X97327249Y-92731453D01*
X97295275Y-92802383D01*
X97262108Y-92876221D01*
X97228295Y-92951739D01*
X97194383Y-93027707D01*
X97160918Y-93102895D01*
X97128448Y-93176074D01*
X97097519Y-93246014D01*
X97068679Y-93311487D01*
X97042473Y-93371261D01*
X97019450Y-93424109D01*
X97000155Y-93468800D01*
X96985136Y-93504106D01*
X96974939Y-93528795D01*
X96970112Y-93541640D01*
X96969829Y-93543221D01*
X96974402Y-93537876D01*
X96986115Y-93521767D01*
X97003807Y-93496559D01*
X97026320Y-93463914D01*
X97052497Y-93425494D01*
X97072823Y-93395395D01*
X97106708Y-93345354D01*
X97146824Y-93286636D01*
X97192148Y-93220705D01*
X97241656Y-93149024D01*
X97294323Y-93073057D01*
X97349127Y-92994265D01*
X97405042Y-92914111D01*
X97461045Y-92834060D01*
X97516112Y-92755573D01*
X97569219Y-92680114D01*
X97619341Y-92609145D01*
X97665456Y-92544130D01*
X97706539Y-92486531D01*
X97741566Y-92437812D01*
X97769513Y-92399435D01*
X97777397Y-92388764D01*
X97913769Y-92207429D01*
X98043821Y-92039203D01*
X98167835Y-91883792D01*
X98286093Y-91740903D01*
X98398877Y-91610241D01*
X98506469Y-91491513D01*
X98609151Y-91384424D01*
X98707204Y-91288680D01*
X98800912Y-91203987D01*
X98890555Y-91130052D01*
X98976416Y-91066580D01*
X99058777Y-91013277D01*
X99137920Y-90969849D01*
X99138441Y-90969590D01*
X99197435Y-90941435D01*
X99247646Y-90920299D01*
X99292750Y-90904959D01*
X99336427Y-90894190D01*
X99382354Y-90886769D01*
X99390245Y-90885801D01*
X99443891Y-90882478D01*
X99497401Y-90884566D01*
G37*
X97049063Y-92550092D02*
X97045151Y-92559096D01*
X97032428Y-92578250D01*
X97025129Y-92588585D01*
X97011475Y-92608741D01*
X96998096Y-92630864D01*
X96984154Y-92656724D01*
X96968809Y-92688090D01*
X96951222Y-92726731D01*
X96930552Y-92774416D01*
X96905961Y-92832915D01*
X96884068Y-92885852D01*
X96865449Y-92931560D01*
X96842485Y-92988689D01*
X96816172Y-93054704D01*
X96787506Y-93127073D01*
X96757482Y-93203260D01*
X96727095Y-93280733D01*
X96697342Y-93356958D01*
X96669218Y-93429401D01*
X96643719Y-93495528D01*
X96621839Y-93552805D01*
X96617486Y-93564296D01*
X96609422Y-93585623D01*
X96567519Y-93528244D01*
X96548992Y-93504255D01*
X96533348Y-93486545D01*
X96522751Y-93477433D01*
X96519736Y-93477036D01*
X96515556Y-93484663D01*
X96505451Y-93504618D01*
X96489977Y-93535768D01*
X96469689Y-93576976D01*
X96445142Y-93627110D01*
X96416892Y-93685033D01*
X96385492Y-93749612D01*
X96351499Y-93819711D01*
X96315468Y-93894197D01*
X96301089Y-93923970D01*
X96218305Y-94095363D01*
X96141487Y-94254191D01*
X96070181Y-94401382D01*
X96003932Y-94537862D01*
X95942289Y-94664560D01*
X95884796Y-94782402D01*
X95831002Y-94892316D01*
X95780451Y-94995229D01*
X95732690Y-95092068D01*
X95687267Y-95183761D01*
X95643727Y-95271236D01*
X95601617Y-95355418D01*
X95577647Y-95403147D01*
X95545160Y-95468124D01*
X95517419Y-95523983D01*
X95493437Y-95572004D01*
X95472228Y-95613471D01*
X95452805Y-95649667D01*
X95434181Y-95681873D01*
X95415371Y-95711373D01*
X95395387Y-95739449D01*
X95373242Y-95767384D01*
X95347950Y-95796460D01*
X95318525Y-95827960D01*
X95283979Y-95863166D01*
X95243327Y-95903362D01*
X95195582Y-95949829D01*
X95139756Y-96003850D01*
X95074863Y-96066708D01*
X95044558Y-96096159D01*
X94989897Y-96149645D01*
X94936419Y-96202532D01*
X94885520Y-96253402D01*
X94838596Y-96300837D01*
X94797042Y-96343419D01*
X94762253Y-96379728D01*
X94735625Y-96408346D01*
X94720125Y-96425953D01*
X94677971Y-96475518D01*
X94626854Y-96534126D01*
X94568270Y-96600148D01*
X94503713Y-96671958D01*
X94434678Y-96747925D01*
X94362662Y-96826423D01*
X94289157Y-96905822D01*
X94215661Y-96984495D01*
X94143666Y-97060813D01*
X94074670Y-97133149D01*
X94010166Y-97199873D01*
X93999611Y-97210687D01*
X93963913Y-97247312D01*
X93932039Y-97280212D01*
X93905367Y-97307949D01*
X93885273Y-97329087D01*
X93873137Y-97342185D01*
X93870089Y-97345919D01*
X93879272Y-97349190D01*
X93900076Y-97355175D01*
X93929590Y-97363132D01*
X93964899Y-97372318D01*
X94003089Y-97381989D01*
X94041249Y-97391404D01*
X94076463Y-97399820D01*
X94105819Y-97406493D01*
X94117160Y-97408898D01*
X94165139Y-97417945D01*
X94200007Y-97422709D01*
X94222942Y-97423279D01*
X94235122Y-97419742D01*
X94236925Y-97417780D01*
X94244063Y-97410738D01*
X94260213Y-97396743D01*
X94282665Y-97378105D01*
X94298999Y-97364879D01*
X94357264Y-97318139D01*
X94298308Y-97373745D01*
X94239351Y-97429351D01*
X94264690Y-97433886D01*
X94309603Y-97440382D01*
X94363433Y-97445644D01*
X94424143Y-97449687D01*
X94489691Y-97452526D01*
X94558039Y-97454176D01*
X94627146Y-97454651D01*
X94694974Y-97453967D01*
X94759481Y-97452139D01*
X94818630Y-97449181D01*
X94870379Y-97445109D01*
X94912690Y-97439937D01*
X94943522Y-97433680D01*
X94956882Y-97428819D01*
X94965424Y-97420005D01*
X94980543Y-97399521D01*
X95001434Y-97368686D01*
X95027290Y-97328822D01*
X95057306Y-97281246D01*
X95090677Y-97227280D01*
X95126597Y-97168243D01*
X95164259Y-97105455D01*
X95202859Y-97040235D01*
X95241591Y-96973904D01*
X95279649Y-96907781D01*
X95316228Y-96843186D01*
X95336073Y-96807617D01*
X95367565Y-96751798D01*
X95401387Y-96693521D01*
X95435568Y-96636069D01*
X95468136Y-96582725D01*
X95497119Y-96536771D01*
X95515547Y-96508794D01*
X95543117Y-96466696D01*
X95575136Y-96415549D01*
X95609082Y-96359521D01*
X95642435Y-96302778D01*
X95672675Y-96249488D01*
X95675701Y-96244021D01*
X95712827Y-96178430D01*
X95749336Y-96117808D01*
X95787853Y-96058080D01*
X95831005Y-95995172D01*
X95880312Y-95926521D01*
X95985900Y-95778995D01*
X96085677Y-95633240D01*
X96181963Y-95485662D01*
X96277078Y-95332665D01*
X96373341Y-95170656D01*
X96418072Y-95093117D01*
X96444914Y-95046994D01*
X96469339Y-95007181D01*
X96493550Y-94970558D01*
X96519748Y-94934007D01*
X96550134Y-94894407D01*
X96586911Y-94848639D01*
X96613136Y-94816706D01*
X96649330Y-94772801D01*
X96685332Y-94729009D01*
X96719101Y-94687819D01*
X96748594Y-94651725D01*
X96771771Y-94623219D01*
X96781418Y-94611264D01*
X96804636Y-94582663D01*
X96834033Y-94546898D01*
X96866115Y-94508199D01*
X96897392Y-94470790D01*
X96902563Y-94464643D01*
X96928029Y-94433808D01*
X96949637Y-94406509D01*
X96965700Y-94384970D01*
X96974530Y-94371414D01*
X96975706Y-94368330D01*
X96973712Y-94357112D01*
X96968584Y-94336724D01*
X96961596Y-94311558D01*
X96954025Y-94286004D01*
X96947147Y-94264453D01*
X96942237Y-94251298D01*
X96941147Y-94249407D01*
X96934624Y-94252432D01*
X96920607Y-94263533D01*
X96903223Y-94279289D01*
X96885982Y-94294825D01*
X96877912Y-94299973D01*
X96879476Y-94294444D01*
X96879888Y-94293764D01*
X96890333Y-94275603D01*
X96903182Y-94251751D01*
X96908251Y-94241948D01*
X96918446Y-94222785D01*
X96924699Y-94215344D01*
X96929622Y-94217920D01*
X96933910Y-94225208D01*
X96937931Y-94231321D01*
X96943009Y-94233415D01*
X96951065Y-94230291D01*
X96964018Y-94220748D01*
X96983790Y-94203585D01*
X97012300Y-94177601D01*
X97017094Y-94173195D01*
X97101648Y-94096106D01*
X97176976Y-94028874D01*
X97244189Y-93970571D01*
X97304401Y-93920269D01*
X97358725Y-93877039D01*
X97408273Y-93839954D01*
X97454158Y-93808085D01*
X97457558Y-93805829D01*
X97518376Y-93768171D01*
X97570417Y-93741364D01*
X97613424Y-93725501D01*
X97647137Y-93720672D01*
X97671297Y-93726970D01*
X97674206Y-93728975D01*
X97682181Y-93735961D01*
X97680696Y-93739372D01*
X97667588Y-93740539D01*
X97655124Y-93740703D01*
X97621819Y-93745643D01*
X97588773Y-93761450D01*
X97587302Y-93762376D01*
X97561136Y-93780864D01*
X97527246Y-93807597D01*
X97488386Y-93840168D01*
X97447310Y-93876170D01*
X97406770Y-93913196D01*
X97369521Y-93948839D01*
X97341764Y-93977027D01*
X97318713Y-94001599D01*
X97289511Y-94033102D01*
X97255692Y-94069847D01*
X97218788Y-94110146D01*
X97180334Y-94152309D01*
X97141860Y-94194648D01*
X97104901Y-94235474D01*
X97070990Y-94273098D01*
X97041658Y-94305832D01*
X97018439Y-94331986D01*
X97002866Y-94349872D01*
X96997758Y-94356024D01*
X96981292Y-94376957D01*
X97001498Y-94467964D01*
X97018096Y-94547010D01*
X97031002Y-94619352D01*
X97040704Y-94689214D01*
X97047691Y-94760818D01*
X97052451Y-94838389D01*
X97055472Y-94926149D01*
X97055727Y-94936961D01*
X97056663Y-95058410D01*
X97053408Y-95169275D01*
X97045573Y-95273417D01*
X97032772Y-95374700D01*
X97014618Y-95476988D01*
X96990969Y-95583127D01*
X96939257Y-95765228D01*
X96873882Y-95941930D01*
X96795370Y-96112514D01*
X96704249Y-96276262D01*
X96601043Y-96432457D01*
X96486280Y-96580380D01*
X96360485Y-96719315D01*
X96224184Y-96848544D01*
X96077904Y-96967348D01*
X95922170Y-97075010D01*
X95876743Y-97103181D01*
X95721707Y-97189247D01*
X95559529Y-97264535D01*
X95392694Y-97328107D01*
X95223687Y-97379028D01*
X95054992Y-97416361D01*
X95037088Y-97419508D01*
X94997817Y-97427502D01*
X94972478Y-97435746D01*
X94960256Y-97444291D01*
X94953479Y-97453955D01*
X94939518Y-97474084D01*
X94919650Y-97502829D01*
X94895153Y-97538341D01*
X94867302Y-97578771D01*
X94845328Y-97610706D01*
X94763344Y-97727097D01*
X94686221Y-97830614D01*
X94613117Y-97922191D01*
X94543191Y-98002763D01*
X94475601Y-98073267D01*
X94409507Y-98134637D01*
X94344067Y-98187809D01*
X94294680Y-98223025D01*
X94251153Y-98249601D01*
X94201045Y-98275941D01*
X94149108Y-98299844D01*
X94100095Y-98319110D01*
X94061795Y-98330818D01*
X94000530Y-98341696D01*
X93934236Y-98346533D01*
X93869425Y-98345106D01*
X93821674Y-98339053D01*
X93733144Y-98314685D01*
X93648297Y-98275865D01*
X93567247Y-98222648D01*
X93539191Y-98200120D01*
X93517535Y-98183256D01*
X93499907Y-98174502D01*
X93479866Y-98171309D01*
X93465621Y-98171000D01*
X93365507Y-98165132D01*
X93263922Y-98148187D01*
X93239763Y-98141630D01*
X93791859Y-98141630D01*
X93802201Y-98148117D01*
X93811911Y-98151150D01*
X93826081Y-98152780D01*
X93850589Y-98153579D01*
X93880850Y-98153428D01*
X93890353Y-98153180D01*
X93933931Y-98150033D01*
X93969890Y-98142795D01*
X94000759Y-98131998D01*
X94051257Y-98108941D01*
X94096449Y-98082537D01*
X94140364Y-98050018D01*
X94187032Y-98008617D01*
X94203576Y-97992677D01*
X94227991Y-97968355D01*
X94246139Y-97949429D01*
X94256673Y-97937375D01*
X94258251Y-97933670D01*
X94256411Y-97934637D01*
X94179196Y-97982594D01*
X94112478Y-98020837D01*
X94055688Y-98049692D01*
X94052970Y-98050954D01*
X94012879Y-98068138D01*
X93966963Y-98085698D01*
X93919376Y-98102239D01*
X93874271Y-98116362D01*
X93835801Y-98126673D01*
X93815554Y-98130793D01*
X93796337Y-98135702D01*
X93791859Y-98141630D01*
X93239763Y-98141630D01*
X93164309Y-98121152D01*
X93070110Y-98085012D01*
X92984766Y-98040755D01*
X92962524Y-98026780D01*
X92936799Y-98011812D01*
X92911513Y-98000178D01*
X92896764Y-97995522D01*
X92877312Y-97989744D01*
X92849973Y-97979305D01*
X92820183Y-97966306D01*
X92815838Y-97964265D01*
X92756076Y-97927747D01*
X92755980Y-97927656D01*
X93483486Y-97927656D01*
X93485964Y-97933579D01*
X93492947Y-97941587D01*
X93494595Y-97943342D01*
X93503941Y-97952558D01*
X93513229Y-97958256D01*
X93525348Y-97960522D01*
X93543187Y-97959445D01*
X93569635Y-97955111D01*
X93607581Y-97947608D01*
X93611251Y-97946863D01*
X93641779Y-97940056D01*
X93676754Y-97931299D01*
X93713472Y-97921392D01*
X93749228Y-97911135D01*
X93781318Y-97901328D01*
X93807040Y-97892770D01*
X93823688Y-97886260D01*
X93828560Y-97882600D01*
X93828555Y-97882594D01*
X93820474Y-97882563D01*
X93801269Y-97884831D01*
X93774501Y-97888946D01*
X93763099Y-97890897D01*
X93730508Y-97895856D01*
X93688493Y-97901143D01*
X93642539Y-97906119D01*
X93599258Y-97910051D01*
X93553245Y-97913806D01*
X93520392Y-97916894D01*
X93498969Y-97919864D01*
X93487244Y-97923268D01*
X93483486Y-97927656D01*
X92755980Y-97927656D01*
X92704258Y-97879122D01*
X92660884Y-97819235D01*
X92626454Y-97748936D01*
X92601468Y-97669069D01*
X92586426Y-97580484D01*
X92585818Y-97574584D01*
X92580561Y-97542459D01*
X92571330Y-97504367D01*
X92560029Y-97468073D01*
X92558927Y-97465029D01*
X92529685Y-97375027D01*
X92525923Y-97360441D01*
X92671501Y-97360441D01*
X92674759Y-97413876D01*
X92678061Y-97446415D01*
X92684785Y-97473094D01*
X92697081Y-97501007D01*
X92706446Y-97518464D01*
X92770015Y-97621287D01*
X92839035Y-97710608D01*
X92913979Y-97787014D01*
X92945323Y-97813769D01*
X92990147Y-97850081D01*
X93038706Y-97845450D01*
X93064000Y-97842655D01*
X93082662Y-97839874D01*
X93090377Y-97837822D01*
X93091978Y-97835810D01*
X93090552Y-97833158D01*
X93083751Y-97828202D01*
X93069227Y-97819278D01*
X93044630Y-97804725D01*
X93038706Y-97801234D01*
X92957057Y-97746218D01*
X92883743Y-97681886D01*
X92817570Y-97606907D01*
X92757345Y-97519950D01*
X92708634Y-97433079D01*
X92671501Y-97360441D01*
X92525923Y-97360441D01*
X92503110Y-97271998D01*
X92479559Y-97157678D01*
X92459393Y-97033800D01*
X92443657Y-96908470D01*
X92440224Y-96869355D01*
X92437344Y-96821763D01*
X92435033Y-96767962D01*
X92433306Y-96710217D01*
X92432178Y-96650795D01*
X92431667Y-96591962D01*
X92431787Y-96535985D01*
X92432555Y-96485130D01*
X92433987Y-96441663D01*
X92436098Y-96407852D01*
X92438905Y-96385962D01*
X92439969Y-96381794D01*
X92444086Y-96370493D01*
X92446374Y-96369920D01*
X92447475Y-96381586D01*
X92447929Y-96400470D01*
X92450355Y-96459824D01*
X92455582Y-96530308D01*
X92463170Y-96608466D01*
X92472677Y-96690846D01*
X92483660Y-96773991D01*
X92495678Y-96854446D01*
X92508289Y-96928758D01*
X92521052Y-96993471D01*
X92527232Y-97020647D01*
X92538646Y-97066145D01*
X92550744Y-97111018D01*
X92562835Y-97153045D01*
X92574228Y-97190006D01*
X92584231Y-97219679D01*
X92592154Y-97239844D01*
X92597306Y-97248279D01*
X92598066Y-97248304D01*
X92604928Y-97236211D01*
X92608358Y-97212455D01*
X92608362Y-97179914D01*
X92604944Y-97141465D01*
X92598111Y-97099985D01*
X92597779Y-97098363D01*
X92586958Y-97042683D01*
X92578164Y-96989389D01*
X92571191Y-96935946D01*
X92565829Y-96879816D01*
X92561872Y-96818464D01*
X92559110Y-96749352D01*
X92557337Y-96669946D01*
X92556468Y-96594706D01*
X92555304Y-96449217D01*
X92598306Y-96449217D01*
X92599024Y-96478245D01*
X92600506Y-96514390D01*
X92602622Y-96555056D01*
X92605243Y-96597652D01*
X92608239Y-96639583D01*
X92611479Y-96678256D01*
X92613536Y-96699294D01*
X92617686Y-96734359D01*
X92623200Y-96774568D01*
X92629588Y-96816987D01*
X92636358Y-96858684D01*
X92643021Y-96896724D01*
X92649086Y-96928175D01*
X92654062Y-96950104D01*
X92656938Y-96958836D01*
X92660972Y-96955802D01*
X92668370Y-96940838D01*
X92678123Y-96916302D01*
X92689219Y-96884551D01*
X92690584Y-96880395D01*
X92707391Y-96830275D01*
X92722421Y-96788187D01*
X92735105Y-96755562D01*
X92744875Y-96733832D01*
X92751162Y-96724428D01*
X92752551Y-96724414D01*
X92752300Y-96732503D01*
X92749324Y-96752289D01*
X92744117Y-96780881D01*
X92737171Y-96815386D01*
X92736471Y-96818714D01*
X92726933Y-96865814D01*
X92716773Y-96919110D01*
X92707471Y-96970716D01*
X92702685Y-96998997D01*
X92688142Y-97088142D01*
X92710843Y-97153321D01*
X92729838Y-97203302D01*
X92753328Y-97258110D01*
X92779332Y-97313628D01*
X92805874Y-97365741D01*
X92830975Y-97410331D01*
X92844987Y-97432455D01*
X92880612Y-97479636D01*
X92923843Y-97528240D01*
X92970152Y-97573564D01*
X93015008Y-97610904D01*
X93021222Y-97615448D01*
X93043833Y-97630316D01*
X93071676Y-97646697D01*
X93101769Y-97663082D01*
X93131127Y-97677962D01*
X93156768Y-97689830D01*
X93175708Y-97697175D01*
X93184963Y-97698490D01*
X93185145Y-97698344D01*
X93183770Y-97690578D01*
X93177310Y-97672846D01*
X93167080Y-97648685D01*
X93164807Y-97643635D01*
X93142751Y-97592878D01*
X93117940Y-97532121D01*
X93091998Y-97465652D01*
X93066549Y-97397755D01*
X93043218Y-97332716D01*
X93023629Y-97274822D01*
X93016429Y-97252117D01*
X93003979Y-97210503D01*
X92990547Y-97163470D01*
X92976736Y-97113366D01*
X92963151Y-97062540D01*
X92950398Y-97013339D01*
X92939079Y-96968112D01*
X92929800Y-96929207D01*
X92923165Y-96898972D01*
X92919779Y-96879754D01*
X92919471Y-96875496D01*
X92922195Y-96878358D01*
X92929793Y-96893628D01*
X92941623Y-96919828D01*
X92957042Y-96955481D01*
X92975409Y-96999108D01*
X92996081Y-97049232D01*
X93011729Y-97087764D01*
X93044536Y-97168392D01*
X93073381Y-97237615D01*
X93099481Y-97298043D01*
X93124057Y-97352286D01*
X93148326Y-97402955D01*
X93173506Y-97452658D01*
X93200816Y-97504005D01*
X93231475Y-97559607D01*
X93234787Y-97565530D01*
X93264584Y-97618359D01*
X93288351Y-97659408D01*
X93307076Y-97690091D01*
X93321747Y-97711817D01*
X93333351Y-97725998D01*
X93342878Y-97734046D01*
X93351314Y-97737372D01*
X93355295Y-97737706D01*
X93368835Y-97733726D01*
X93391145Y-97722986D01*
X93418747Y-97707281D01*
X93439494Y-97694205D01*
X93469946Y-97673253D01*
X93507660Y-97645865D01*
X93548421Y-97615176D01*
X93588018Y-97584321D01*
X93599062Y-97575483D01*
X93606223Y-97569617D01*
X94039764Y-97569617D01*
X94043500Y-97573353D01*
X94047235Y-97569617D01*
X94043500Y-97565882D01*
X94039764Y-97569617D01*
X93606223Y-97569617D01*
X93613933Y-97563301D01*
X94054706Y-97563301D01*
X94060416Y-97561886D01*
X94077486Y-97550941D01*
X94105822Y-97530531D01*
X94145332Y-97500722D01*
X94165368Y-97485312D01*
X94190527Y-97465328D01*
X94210100Y-97448723D01*
X94221791Y-97437517D01*
X94223975Y-97433838D01*
X94217395Y-97437003D01*
X94201749Y-97447562D01*
X94179613Y-97463543D01*
X94153565Y-97482975D01*
X94126180Y-97503888D01*
X94100037Y-97524311D01*
X94077711Y-97542273D01*
X94061779Y-97555803D01*
X94054818Y-97562931D01*
X94054706Y-97563301D01*
X93613933Y-97563301D01*
X93631217Y-97549144D01*
X93666520Y-97519515D01*
X93703263Y-97488111D01*
X93739733Y-97456447D01*
X93774220Y-97426038D01*
X93805014Y-97398399D01*
X93830404Y-97375044D01*
X93848680Y-97357488D01*
X93858131Y-97347246D01*
X93858985Y-97345309D01*
X93851512Y-97342035D01*
X93832784Y-97334716D01*
X93805585Y-97324420D01*
X93772700Y-97312214D01*
X93771020Y-97311596D01*
X93597021Y-97239993D01*
X93429056Y-97155587D01*
X93268133Y-97059125D01*
X93115261Y-96951353D01*
X92971450Y-96833017D01*
X92837707Y-96704861D01*
X92715042Y-96567631D01*
X92646830Y-96480779D01*
X92627966Y-96456021D01*
X92612407Y-96436547D01*
X92602276Y-96424962D01*
X92599684Y-96422882D01*
X92598483Y-96429898D01*
X92598306Y-96449217D01*
X92555304Y-96449217D01*
X92554525Y-96351911D01*
X92504575Y-96269735D01*
X92413403Y-96105482D01*
X92335562Y-95934618D01*
X92271024Y-95757060D01*
X92219761Y-95572726D01*
X92181745Y-95381533D01*
X92163722Y-95250000D01*
X92160239Y-95208396D01*
X92157657Y-95155292D01*
X92155974Y-95094102D01*
X92155192Y-95028240D01*
X92155311Y-94961120D01*
X92156330Y-94896155D01*
X92158249Y-94836761D01*
X92161068Y-94786350D01*
X92163722Y-94756941D01*
X92193037Y-94560749D01*
X92235795Y-94371073D01*
X92292010Y-94187878D01*
X92361696Y-94011130D01*
X92444867Y-93840796D01*
X92541537Y-93676841D01*
X92651720Y-93519232D01*
X92694305Y-93464529D01*
X92732338Y-93419220D01*
X92778665Y-93367540D01*
X92830145Y-93312736D01*
X92883636Y-93258050D01*
X92935998Y-93206729D01*
X92984087Y-93162017D01*
X93005088Y-93143548D01*
X93155337Y-93024282D01*
X93313313Y-92917691D01*
X93478451Y-92824020D01*
X93650183Y-92743518D01*
X93827942Y-92676431D01*
X94011162Y-92623007D01*
X94199277Y-92583491D01*
X94334853Y-92564089D01*
X94390448Y-92559058D01*
X94456718Y-92555343D01*
X94529783Y-92552972D01*
X94605767Y-92551976D01*
X94680791Y-92552385D01*
X94750978Y-92554228D01*
X94812449Y-92557537D01*
X94842853Y-92560166D01*
X95036319Y-92587256D01*
X95223772Y-92628005D01*
X95405370Y-92682479D01*
X95581273Y-92750743D01*
X95751640Y-92832865D01*
X95916630Y-92928909D01*
X96076403Y-93038941D01*
X96161411Y-93104879D01*
X96194020Y-93132495D01*
X96232915Y-93167493D01*
X96275829Y-93207635D01*
X96320495Y-93250686D01*
X96364646Y-93294410D01*
X96406015Y-93336569D01*
X96442335Y-93374927D01*
X96471340Y-93407249D01*
X96486382Y-93425476D01*
X96502187Y-93445165D01*
X96514341Y-93459107D01*
X96520000Y-93464147D01*
X96524132Y-93457778D01*
X96534129Y-93439608D01*
X96549176Y-93411199D01*
X96568460Y-93374113D01*
X96591164Y-93329913D01*
X96616475Y-93280162D01*
X96633766Y-93245931D01*
X96687377Y-93140600D01*
X96738936Y-93041457D01*
X96787996Y-92949277D01*
X96834112Y-92864832D01*
X96876835Y-92788896D01*
X96915719Y-92722241D01*
X96950318Y-92665640D01*
X96980185Y-92619868D01*
X97004873Y-92585696D01*
X97023935Y-92563897D01*
X97031438Y-92557734D01*
X97044410Y-92550038D01*
X97049063Y-92550092D01*
G36*
X97049063Y-92550092D02*
G01*
X97045151Y-92559096D01*
X97032428Y-92578250D01*
X97025129Y-92588585D01*
X97011475Y-92608741D01*
X96998096Y-92630864D01*
X96984154Y-92656724D01*
X96968809Y-92688090D01*
X96951222Y-92726731D01*
X96930552Y-92774416D01*
X96905961Y-92832915D01*
X96884068Y-92885852D01*
X96865449Y-92931560D01*
X96842485Y-92988689D01*
X96816172Y-93054704D01*
X96787506Y-93127073D01*
X96757482Y-93203260D01*
X96727095Y-93280733D01*
X96697342Y-93356958D01*
X96669218Y-93429401D01*
X96643719Y-93495528D01*
X96621839Y-93552805D01*
X96617486Y-93564296D01*
X96609422Y-93585623D01*
X96567519Y-93528244D01*
X96548992Y-93504255D01*
X96533348Y-93486545D01*
X96522751Y-93477433D01*
X96519736Y-93477036D01*
X96515556Y-93484663D01*
X96505451Y-93504618D01*
X96489977Y-93535768D01*
X96469689Y-93576976D01*
X96445142Y-93627110D01*
X96416892Y-93685033D01*
X96385492Y-93749612D01*
X96351499Y-93819711D01*
X96315468Y-93894197D01*
X96301089Y-93923970D01*
X96218305Y-94095363D01*
X96141487Y-94254191D01*
X96070181Y-94401382D01*
X96003932Y-94537862D01*
X95942289Y-94664560D01*
X95884796Y-94782402D01*
X95831002Y-94892316D01*
X95780451Y-94995229D01*
X95732690Y-95092068D01*
X95687267Y-95183761D01*
X95643727Y-95271236D01*
X95601617Y-95355418D01*
X95577647Y-95403147D01*
X95545160Y-95468124D01*
X95517419Y-95523983D01*
X95493437Y-95572004D01*
X95472228Y-95613471D01*
X95452805Y-95649667D01*
X95434181Y-95681873D01*
X95415371Y-95711373D01*
X95395387Y-95739449D01*
X95373242Y-95767384D01*
X95347950Y-95796460D01*
X95318525Y-95827960D01*
X95283979Y-95863166D01*
X95243327Y-95903362D01*
X95195582Y-95949829D01*
X95139756Y-96003850D01*
X95074863Y-96066708D01*
X95044558Y-96096159D01*
X94989897Y-96149645D01*
X94936419Y-96202532D01*
X94885520Y-96253402D01*
X94838596Y-96300837D01*
X94797042Y-96343419D01*
X94762253Y-96379728D01*
X94735625Y-96408346D01*
X94720125Y-96425953D01*
X94677971Y-96475518D01*
X94626854Y-96534126D01*
X94568270Y-96600148D01*
X94503713Y-96671958D01*
X94434678Y-96747925D01*
X94362662Y-96826423D01*
X94289157Y-96905822D01*
X94215661Y-96984495D01*
X94143666Y-97060813D01*
X94074670Y-97133149D01*
X94010166Y-97199873D01*
X93999611Y-97210687D01*
X93963913Y-97247312D01*
X93932039Y-97280212D01*
X93905367Y-97307949D01*
X93885273Y-97329087D01*
X93873137Y-97342185D01*
X93870089Y-97345919D01*
X93879272Y-97349190D01*
X93900076Y-97355175D01*
X93929590Y-97363132D01*
X93964899Y-97372318D01*
X94003089Y-97381989D01*
X94041249Y-97391404D01*
X94076463Y-97399820D01*
X94105819Y-97406493D01*
X94117160Y-97408898D01*
X94165139Y-97417945D01*
X94200007Y-97422709D01*
X94222942Y-97423279D01*
X94235122Y-97419742D01*
X94236925Y-97417780D01*
X94244063Y-97410738D01*
X94260213Y-97396743D01*
X94282665Y-97378105D01*
X94298999Y-97364879D01*
X94357264Y-97318139D01*
X94298308Y-97373745D01*
X94239351Y-97429351D01*
X94264690Y-97433886D01*
X94309603Y-97440382D01*
X94363433Y-97445644D01*
X94424143Y-97449687D01*
X94489691Y-97452526D01*
X94558039Y-97454176D01*
X94627146Y-97454651D01*
X94694974Y-97453967D01*
X94759481Y-97452139D01*
X94818630Y-97449181D01*
X94870379Y-97445109D01*
X94912690Y-97439937D01*
X94943522Y-97433680D01*
X94956882Y-97428819D01*
X94965424Y-97420005D01*
X94980543Y-97399521D01*
X95001434Y-97368686D01*
X95027290Y-97328822D01*
X95057306Y-97281246D01*
X95090677Y-97227280D01*
X95126597Y-97168243D01*
X95164259Y-97105455D01*
X95202859Y-97040235D01*
X95241591Y-96973904D01*
X95279649Y-96907781D01*
X95316228Y-96843186D01*
X95336073Y-96807617D01*
X95367565Y-96751798D01*
X95401387Y-96693521D01*
X95435568Y-96636069D01*
X95468136Y-96582725D01*
X95497119Y-96536771D01*
X95515547Y-96508794D01*
X95543117Y-96466696D01*
X95575136Y-96415549D01*
X95609082Y-96359521D01*
X95642435Y-96302778D01*
X95672675Y-96249488D01*
X95675701Y-96244021D01*
X95712827Y-96178430D01*
X95749336Y-96117808D01*
X95787853Y-96058080D01*
X95831005Y-95995172D01*
X95880312Y-95926521D01*
X95985900Y-95778995D01*
X96085677Y-95633240D01*
X96181963Y-95485662D01*
X96277078Y-95332665D01*
X96373341Y-95170656D01*
X96418072Y-95093117D01*
X96444914Y-95046994D01*
X96469339Y-95007181D01*
X96493550Y-94970558D01*
X96519748Y-94934007D01*
X96550134Y-94894407D01*
X96586911Y-94848639D01*
X96613136Y-94816706D01*
X96649330Y-94772801D01*
X96685332Y-94729009D01*
X96719101Y-94687819D01*
X96748594Y-94651725D01*
X96771771Y-94623219D01*
X96781418Y-94611264D01*
X96804636Y-94582663D01*
X96834033Y-94546898D01*
X96866115Y-94508199D01*
X96897392Y-94470790D01*
X96902563Y-94464643D01*
X96928029Y-94433808D01*
X96949637Y-94406509D01*
X96965700Y-94384970D01*
X96974530Y-94371414D01*
X96975706Y-94368330D01*
X96973712Y-94357112D01*
X96968584Y-94336724D01*
X96961596Y-94311558D01*
X96954025Y-94286004D01*
X96947147Y-94264453D01*
X96942237Y-94251298D01*
X96941147Y-94249407D01*
X96934624Y-94252432D01*
X96920607Y-94263533D01*
X96903223Y-94279289D01*
X96885982Y-94294825D01*
X96877912Y-94299973D01*
X96879476Y-94294444D01*
X96879888Y-94293764D01*
X96890333Y-94275603D01*
X96903182Y-94251751D01*
X96908251Y-94241948D01*
X96918446Y-94222785D01*
X96924699Y-94215344D01*
X96929622Y-94217920D01*
X96933910Y-94225208D01*
X96937931Y-94231321D01*
X96943009Y-94233415D01*
X96951065Y-94230291D01*
X96964018Y-94220748D01*
X96983790Y-94203585D01*
X97012300Y-94177601D01*
X97017094Y-94173195D01*
X97101648Y-94096106D01*
X97176976Y-94028874D01*
X97244189Y-93970571D01*
X97304401Y-93920269D01*
X97358725Y-93877039D01*
X97408273Y-93839954D01*
X97454158Y-93808085D01*
X97457558Y-93805829D01*
X97518376Y-93768171D01*
X97570417Y-93741364D01*
X97613424Y-93725501D01*
X97647137Y-93720672D01*
X97671297Y-93726970D01*
X97674206Y-93728975D01*
X97682181Y-93735961D01*
X97680696Y-93739372D01*
X97667588Y-93740539D01*
X97655124Y-93740703D01*
X97621819Y-93745643D01*
X97588773Y-93761450D01*
X97587302Y-93762376D01*
X97561136Y-93780864D01*
X97527246Y-93807597D01*
X97488386Y-93840168D01*
X97447310Y-93876170D01*
X97406770Y-93913196D01*
X97369521Y-93948839D01*
X97341764Y-93977027D01*
X97318713Y-94001599D01*
X97289511Y-94033102D01*
X97255692Y-94069847D01*
X97218788Y-94110146D01*
X97180334Y-94152309D01*
X97141860Y-94194648D01*
X97104901Y-94235474D01*
X97070990Y-94273098D01*
X97041658Y-94305832D01*
X97018439Y-94331986D01*
X97002866Y-94349872D01*
X96997758Y-94356024D01*
X96981292Y-94376957D01*
X97001498Y-94467964D01*
X97018096Y-94547010D01*
X97031002Y-94619352D01*
X97040704Y-94689214D01*
X97047691Y-94760818D01*
X97052451Y-94838389D01*
X97055472Y-94926149D01*
X97055727Y-94936961D01*
X97056663Y-95058410D01*
X97053408Y-95169275D01*
X97045573Y-95273417D01*
X97032772Y-95374700D01*
X97014618Y-95476988D01*
X96990969Y-95583127D01*
X96939257Y-95765228D01*
X96873882Y-95941930D01*
X96795370Y-96112514D01*
X96704249Y-96276262D01*
X96601043Y-96432457D01*
X96486280Y-96580380D01*
X96360485Y-96719315D01*
X96224184Y-96848544D01*
X96077904Y-96967348D01*
X95922170Y-97075010D01*
X95876743Y-97103181D01*
X95721707Y-97189247D01*
X95559529Y-97264535D01*
X95392694Y-97328107D01*
X95223687Y-97379028D01*
X95054992Y-97416361D01*
X95037088Y-97419508D01*
X94997817Y-97427502D01*
X94972478Y-97435746D01*
X94960256Y-97444291D01*
X94953479Y-97453955D01*
X94939518Y-97474084D01*
X94919650Y-97502829D01*
X94895153Y-97538341D01*
X94867302Y-97578771D01*
X94845328Y-97610706D01*
X94763344Y-97727097D01*
X94686221Y-97830614D01*
X94613117Y-97922191D01*
X94543191Y-98002763D01*
X94475601Y-98073267D01*
X94409507Y-98134637D01*
X94344067Y-98187809D01*
X94294680Y-98223025D01*
X94251153Y-98249601D01*
X94201045Y-98275941D01*
X94149108Y-98299844D01*
X94100095Y-98319110D01*
X94061795Y-98330818D01*
X94000530Y-98341696D01*
X93934236Y-98346533D01*
X93869425Y-98345106D01*
X93821674Y-98339053D01*
X93733144Y-98314685D01*
X93648297Y-98275865D01*
X93567247Y-98222648D01*
X93539191Y-98200120D01*
X93517535Y-98183256D01*
X93499907Y-98174502D01*
X93479866Y-98171309D01*
X93465621Y-98171000D01*
X93365507Y-98165132D01*
X93263922Y-98148187D01*
X93239763Y-98141630D01*
X93791859Y-98141630D01*
X93802201Y-98148117D01*
X93811911Y-98151150D01*
X93826081Y-98152780D01*
X93850589Y-98153579D01*
X93880850Y-98153428D01*
X93890353Y-98153180D01*
X93933931Y-98150033D01*
X93969890Y-98142795D01*
X94000759Y-98131998D01*
X94051257Y-98108941D01*
X94096449Y-98082537D01*
X94140364Y-98050018D01*
X94187032Y-98008617D01*
X94203576Y-97992677D01*
X94227991Y-97968355D01*
X94246139Y-97949429D01*
X94256673Y-97937375D01*
X94258251Y-97933670D01*
X94256411Y-97934637D01*
X94179196Y-97982594D01*
X94112478Y-98020837D01*
X94055688Y-98049692D01*
X94052970Y-98050954D01*
X94012879Y-98068138D01*
X93966963Y-98085698D01*
X93919376Y-98102239D01*
X93874271Y-98116362D01*
X93835801Y-98126673D01*
X93815554Y-98130793D01*
X93796337Y-98135702D01*
X93791859Y-98141630D01*
X93239763Y-98141630D01*
X93164309Y-98121152D01*
X93070110Y-98085012D01*
X92984766Y-98040755D01*
X92962524Y-98026780D01*
X92936799Y-98011812D01*
X92911513Y-98000178D01*
X92896764Y-97995522D01*
X92877312Y-97989744D01*
X92849973Y-97979305D01*
X92820183Y-97966306D01*
X92815838Y-97964265D01*
X92756076Y-97927747D01*
X92755980Y-97927656D01*
X93483486Y-97927656D01*
X93485964Y-97933579D01*
X93492947Y-97941587D01*
X93494595Y-97943342D01*
X93503941Y-97952558D01*
X93513229Y-97958256D01*
X93525348Y-97960522D01*
X93543187Y-97959445D01*
X93569635Y-97955111D01*
X93607581Y-97947608D01*
X93611251Y-97946863D01*
X93641779Y-97940056D01*
X93676754Y-97931299D01*
X93713472Y-97921392D01*
X93749228Y-97911135D01*
X93781318Y-97901328D01*
X93807040Y-97892770D01*
X93823688Y-97886260D01*
X93828560Y-97882600D01*
X93828555Y-97882594D01*
X93820474Y-97882563D01*
X93801269Y-97884831D01*
X93774501Y-97888946D01*
X93763099Y-97890897D01*
X93730508Y-97895856D01*
X93688493Y-97901143D01*
X93642539Y-97906119D01*
X93599258Y-97910051D01*
X93553245Y-97913806D01*
X93520392Y-97916894D01*
X93498969Y-97919864D01*
X93487244Y-97923268D01*
X93483486Y-97927656D01*
X92755980Y-97927656D01*
X92704258Y-97879122D01*
X92660884Y-97819235D01*
X92626454Y-97748936D01*
X92601468Y-97669069D01*
X92586426Y-97580484D01*
X92585818Y-97574584D01*
X92580561Y-97542459D01*
X92571330Y-97504367D01*
X92560029Y-97468073D01*
X92558927Y-97465029D01*
X92529685Y-97375027D01*
X92525923Y-97360441D01*
X92671501Y-97360441D01*
X92674759Y-97413876D01*
X92678061Y-97446415D01*
X92684785Y-97473094D01*
X92697081Y-97501007D01*
X92706446Y-97518464D01*
X92770015Y-97621287D01*
X92839035Y-97710608D01*
X92913979Y-97787014D01*
X92945323Y-97813769D01*
X92990147Y-97850081D01*
X93038706Y-97845450D01*
X93064000Y-97842655D01*
X93082662Y-97839874D01*
X93090377Y-97837822D01*
X93091978Y-97835810D01*
X93090552Y-97833158D01*
X93083751Y-97828202D01*
X93069227Y-97819278D01*
X93044630Y-97804725D01*
X93038706Y-97801234D01*
X92957057Y-97746218D01*
X92883743Y-97681886D01*
X92817570Y-97606907D01*
X92757345Y-97519950D01*
X92708634Y-97433079D01*
X92671501Y-97360441D01*
X92525923Y-97360441D01*
X92503110Y-97271998D01*
X92479559Y-97157678D01*
X92459393Y-97033800D01*
X92443657Y-96908470D01*
X92440224Y-96869355D01*
X92437344Y-96821763D01*
X92435033Y-96767962D01*
X92433306Y-96710217D01*
X92432178Y-96650795D01*
X92431667Y-96591962D01*
X92431787Y-96535985D01*
X92432555Y-96485130D01*
X92433987Y-96441663D01*
X92436098Y-96407852D01*
X92438905Y-96385962D01*
X92439969Y-96381794D01*
X92444086Y-96370493D01*
X92446374Y-96369920D01*
X92447475Y-96381586D01*
X92447929Y-96400470D01*
X92450355Y-96459824D01*
X92455582Y-96530308D01*
X92463170Y-96608466D01*
X92472677Y-96690846D01*
X92483660Y-96773991D01*
X92495678Y-96854446D01*
X92508289Y-96928758D01*
X92521052Y-96993471D01*
X92527232Y-97020647D01*
X92538646Y-97066145D01*
X92550744Y-97111018D01*
X92562835Y-97153045D01*
X92574228Y-97190006D01*
X92584231Y-97219679D01*
X92592154Y-97239844D01*
X92597306Y-97248279D01*
X92598066Y-97248304D01*
X92604928Y-97236211D01*
X92608358Y-97212455D01*
X92608362Y-97179914D01*
X92604944Y-97141465D01*
X92598111Y-97099985D01*
X92597779Y-97098363D01*
X92586958Y-97042683D01*
X92578164Y-96989389D01*
X92571191Y-96935946D01*
X92565829Y-96879816D01*
X92561872Y-96818464D01*
X92559110Y-96749352D01*
X92557337Y-96669946D01*
X92556468Y-96594706D01*
X92555304Y-96449217D01*
X92598306Y-96449217D01*
X92599024Y-96478245D01*
X92600506Y-96514390D01*
X92602622Y-96555056D01*
X92605243Y-96597652D01*
X92608239Y-96639583D01*
X92611479Y-96678256D01*
X92613536Y-96699294D01*
X92617686Y-96734359D01*
X92623200Y-96774568D01*
X92629588Y-96816987D01*
X92636358Y-96858684D01*
X92643021Y-96896724D01*
X92649086Y-96928175D01*
X92654062Y-96950104D01*
X92656938Y-96958836D01*
X92660972Y-96955802D01*
X92668370Y-96940838D01*
X92678123Y-96916302D01*
X92689219Y-96884551D01*
X92690584Y-96880395D01*
X92707391Y-96830275D01*
X92722421Y-96788187D01*
X92735105Y-96755562D01*
X92744875Y-96733832D01*
X92751162Y-96724428D01*
X92752551Y-96724414D01*
X92752300Y-96732503D01*
X92749324Y-96752289D01*
X92744117Y-96780881D01*
X92737171Y-96815386D01*
X92736471Y-96818714D01*
X92726933Y-96865814D01*
X92716773Y-96919110D01*
X92707471Y-96970716D01*
X92702685Y-96998997D01*
X92688142Y-97088142D01*
X92710843Y-97153321D01*
X92729838Y-97203302D01*
X92753328Y-97258110D01*
X92779332Y-97313628D01*
X92805874Y-97365741D01*
X92830975Y-97410331D01*
X92844987Y-97432455D01*
X92880612Y-97479636D01*
X92923843Y-97528240D01*
X92970152Y-97573564D01*
X93015008Y-97610904D01*
X93021222Y-97615448D01*
X93043833Y-97630316D01*
X93071676Y-97646697D01*
X93101769Y-97663082D01*
X93131127Y-97677962D01*
X93156768Y-97689830D01*
X93175708Y-97697175D01*
X93184963Y-97698490D01*
X93185145Y-97698344D01*
X93183770Y-97690578D01*
X93177310Y-97672846D01*
X93167080Y-97648685D01*
X93164807Y-97643635D01*
X93142751Y-97592878D01*
X93117940Y-97532121D01*
X93091998Y-97465652D01*
X93066549Y-97397755D01*
X93043218Y-97332716D01*
X93023629Y-97274822D01*
X93016429Y-97252117D01*
X93003979Y-97210503D01*
X92990547Y-97163470D01*
X92976736Y-97113366D01*
X92963151Y-97062540D01*
X92950398Y-97013339D01*
X92939079Y-96968112D01*
X92929800Y-96929207D01*
X92923165Y-96898972D01*
X92919779Y-96879754D01*
X92919471Y-96875496D01*
X92922195Y-96878358D01*
X92929793Y-96893628D01*
X92941623Y-96919828D01*
X92957042Y-96955481D01*
X92975409Y-96999108D01*
X92996081Y-97049232D01*
X93011729Y-97087764D01*
X93044536Y-97168392D01*
X93073381Y-97237615D01*
X93099481Y-97298043D01*
X93124057Y-97352286D01*
X93148326Y-97402955D01*
X93173506Y-97452658D01*
X93200816Y-97504005D01*
X93231475Y-97559607D01*
X93234787Y-97565530D01*
X93264584Y-97618359D01*
X93288351Y-97659408D01*
X93307076Y-97690091D01*
X93321747Y-97711817D01*
X93333351Y-97725998D01*
X93342878Y-97734046D01*
X93351314Y-97737372D01*
X93355295Y-97737706D01*
X93368835Y-97733726D01*
X93391145Y-97722986D01*
X93418747Y-97707281D01*
X93439494Y-97694205D01*
X93469946Y-97673253D01*
X93507660Y-97645865D01*
X93548421Y-97615176D01*
X93588018Y-97584321D01*
X93599062Y-97575483D01*
X93606223Y-97569617D01*
X94039764Y-97569617D01*
X94043500Y-97573353D01*
X94047235Y-97569617D01*
X94043500Y-97565882D01*
X94039764Y-97569617D01*
X93606223Y-97569617D01*
X93613933Y-97563301D01*
X94054706Y-97563301D01*
X94060416Y-97561886D01*
X94077486Y-97550941D01*
X94105822Y-97530531D01*
X94145332Y-97500722D01*
X94165368Y-97485312D01*
X94190527Y-97465328D01*
X94210100Y-97448723D01*
X94221791Y-97437517D01*
X94223975Y-97433838D01*
X94217395Y-97437003D01*
X94201749Y-97447562D01*
X94179613Y-97463543D01*
X94153565Y-97482975D01*
X94126180Y-97503888D01*
X94100037Y-97524311D01*
X94077711Y-97542273D01*
X94061779Y-97555803D01*
X94054818Y-97562931D01*
X94054706Y-97563301D01*
X93613933Y-97563301D01*
X93631217Y-97549144D01*
X93666520Y-97519515D01*
X93703263Y-97488111D01*
X93739733Y-97456447D01*
X93774220Y-97426038D01*
X93805014Y-97398399D01*
X93830404Y-97375044D01*
X93848680Y-97357488D01*
X93858131Y-97347246D01*
X93858985Y-97345309D01*
X93851512Y-97342035D01*
X93832784Y-97334716D01*
X93805585Y-97324420D01*
X93772700Y-97312214D01*
X93771020Y-97311596D01*
X93597021Y-97239993D01*
X93429056Y-97155587D01*
X93268133Y-97059125D01*
X93115261Y-96951353D01*
X92971450Y-96833017D01*
X92837707Y-96704861D01*
X92715042Y-96567631D01*
X92646830Y-96480779D01*
X92627966Y-96456021D01*
X92612407Y-96436547D01*
X92602276Y-96424962D01*
X92599684Y-96422882D01*
X92598483Y-96429898D01*
X92598306Y-96449217D01*
X92555304Y-96449217D01*
X92554525Y-96351911D01*
X92504575Y-96269735D01*
X92413403Y-96105482D01*
X92335562Y-95934618D01*
X92271024Y-95757060D01*
X92219761Y-95572726D01*
X92181745Y-95381533D01*
X92163722Y-95250000D01*
X92160239Y-95208396D01*
X92157657Y-95155292D01*
X92155974Y-95094102D01*
X92155192Y-95028240D01*
X92155311Y-94961120D01*
X92156330Y-94896155D01*
X92158249Y-94836761D01*
X92161068Y-94786350D01*
X92163722Y-94756941D01*
X92193037Y-94560749D01*
X92235795Y-94371073D01*
X92292010Y-94187878D01*
X92361696Y-94011130D01*
X92444867Y-93840796D01*
X92541537Y-93676841D01*
X92651720Y-93519232D01*
X92694305Y-93464529D01*
X92732338Y-93419220D01*
X92778665Y-93367540D01*
X92830145Y-93312736D01*
X92883636Y-93258050D01*
X92935998Y-93206729D01*
X92984087Y-93162017D01*
X93005088Y-93143548D01*
X93155337Y-93024282D01*
X93313313Y-92917691D01*
X93478451Y-92824020D01*
X93650183Y-92743518D01*
X93827942Y-92676431D01*
X94011162Y-92623007D01*
X94199277Y-92583491D01*
X94334853Y-92564089D01*
X94390448Y-92559058D01*
X94456718Y-92555343D01*
X94529783Y-92552972D01*
X94605767Y-92551976D01*
X94680791Y-92552385D01*
X94750978Y-92554228D01*
X94812449Y-92557537D01*
X94842853Y-92560166D01*
X95036319Y-92587256D01*
X95223772Y-92628005D01*
X95405370Y-92682479D01*
X95581273Y-92750743D01*
X95751640Y-92832865D01*
X95916630Y-92928909D01*
X96076403Y-93038941D01*
X96161411Y-93104879D01*
X96194020Y-93132495D01*
X96232915Y-93167493D01*
X96275829Y-93207635D01*
X96320495Y-93250686D01*
X96364646Y-93294410D01*
X96406015Y-93336569D01*
X96442335Y-93374927D01*
X96471340Y-93407249D01*
X96486382Y-93425476D01*
X96502187Y-93445165D01*
X96514341Y-93459107D01*
X96520000Y-93464147D01*
X96524132Y-93457778D01*
X96534129Y-93439608D01*
X96549176Y-93411199D01*
X96568460Y-93374113D01*
X96591164Y-93329913D01*
X96616475Y-93280162D01*
X96633766Y-93245931D01*
X96687377Y-93140600D01*
X96738936Y-93041457D01*
X96787996Y-92949277D01*
X96834112Y-92864832D01*
X96876835Y-92788896D01*
X96915719Y-92722241D01*
X96950318Y-92665640D01*
X96980185Y-92619868D01*
X97004873Y-92585696D01*
X97023935Y-92563897D01*
X97031438Y-92557734D01*
X97044410Y-92550038D01*
X97049063Y-92550092D01*
G37*
D12*
%TO.C,REF\u002A\u002A*%
X47960283Y-110998000D02*
G75*
G03*
X47960283Y-110998000I-4018283J0D01*
G01*
%TO.C,Conn3*%
X113030000Y-82296000D02*
X113030000Y-83820000D01*
X113030000Y-83820000D02*
X133350000Y-83820000D01*
X113030000Y-88900000D02*
X113030000Y-83820000D01*
X133350000Y-82296000D02*
X113030000Y-82296000D01*
X133350000Y-83820000D02*
X133350000Y-82296000D01*
X133350000Y-88900000D02*
X113030000Y-88900000D01*
X133350000Y-88900000D02*
X133350000Y-83820000D01*
D14*
%TO.C,J1*%
X59826000Y-85068000D02*
X59826000Y-101318000D01*
X38276000Y-85068000D02*
X59826000Y-85068000D01*
X38276000Y-85068000D02*
X38276000Y-101318000D01*
X38276000Y-101318000D02*
X59826000Y-101318000D01*
%TO.C,R2*%
X137262776Y-91679500D02*
X137772224Y-91679500D01*
X137262776Y-92724500D02*
X137772224Y-92724500D01*
%TD*%
M02*
