%TF.GenerationSoftware,KiCad,Pcbnew,7.0.7*%
%TF.CreationDate,2023-11-04T22:27:46-05:00*%
%TF.ProjectId,FlourometerBoard_Hardware,466c6f75-726f-46d6-9574-6572426f6172,rev?*%
%TF.SameCoordinates,Original*%
%TF.FileFunction,Soldermask,Bot*%
%TF.FilePolarity,Negative*%
%FSLAX46Y46*%
G04 Gerber Fmt 4.6, Leading zero omitted, Abs format (unit mm)*
G04 Created by KiCad (PCBNEW 7.0.7) date 2023-11-04 22:27:46*
%MOMM*%
%LPD*%
G01*
G04 APERTURE LIST*
%ADD10C,1.524000*%
%ADD11C,1.308000*%
%ADD12C,1.208000*%
%ADD13C,2.946400*%
%ADD14O,3.000000X5.100000*%
%ADD15C,1.100000*%
%ADD16C,1.400000*%
%ADD17C,4.000000*%
%ADD18C,2.000000*%
G04 APERTURE END LIST*
D10*
%TO.C,Conn2*%
X73660000Y-86360000D03*
X76200000Y-86360000D03*
X78740000Y-86360000D03*
X81280000Y-86360000D03*
X83820000Y-86360000D03*
X86360000Y-86360000D03*
X88900000Y-86360000D03*
X91440000Y-86360000D03*
X93980000Y-86360000D03*
%TD*%
%TO.C,U3*%
X107950000Y-97155000D03*
X105410000Y-97155000D03*
X102870000Y-97155000D03*
%TD*%
D11*
%TO.C,U1*%
X65278000Y-116586000D03*
X67818000Y-116586000D03*
X70358000Y-116586000D03*
X72898000Y-116586000D03*
X98298000Y-116586000D03*
X67818000Y-101346000D03*
X75438000Y-116586000D03*
X77978000Y-116586000D03*
X80518000Y-116586000D03*
X83058000Y-116586000D03*
X85598000Y-116586000D03*
X88138000Y-116586000D03*
X90678000Y-116586000D03*
X93218000Y-116586000D03*
X95758000Y-116586000D03*
X95758000Y-101346000D03*
X93218000Y-101346000D03*
X90678000Y-101346000D03*
X88138000Y-101346000D03*
X85598000Y-101346000D03*
X83058000Y-101346000D03*
X80518000Y-101346000D03*
X77978000Y-101346000D03*
X75438000Y-101346000D03*
X72898000Y-101346000D03*
X70358000Y-101346000D03*
X100838000Y-116586000D03*
X103378000Y-116586000D03*
X105918000Y-116586000D03*
X108458000Y-116586000D03*
X110998000Y-116586000D03*
X113538000Y-116586000D03*
X116078000Y-116586000D03*
X118618000Y-116586000D03*
X121158000Y-116586000D03*
X121158000Y-101346000D03*
X118618000Y-101346000D03*
X116078000Y-101346000D03*
X113538000Y-101346000D03*
X110998000Y-101346000D03*
X108458000Y-101346000D03*
X105918000Y-101346000D03*
X103378000Y-101346000D03*
X100838000Y-101346000D03*
X62738000Y-116586000D03*
X98298000Y-101346000D03*
X65278000Y-101346000D03*
D12*
X77708000Y-105796000D03*
X75708000Y-105796000D03*
X75708000Y-103796000D03*
X77708000Y-103796000D03*
X77708000Y-107796000D03*
X75708000Y-107796000D03*
D11*
X62738000Y-101346000D03*
%TD*%
D13*
%TO.C,REF\u002A\u002A*%
X139192000Y-85598000D03*
%TD*%
D14*
%TO.C,Conn1*%
X125794800Y-111633000D03*
X125794800Y-103759000D03*
%TD*%
D13*
%TO.C,REF\u002A\u002A*%
X43942000Y-110998000D03*
%TD*%
D10*
%TO.C,Conn3*%
X115570000Y-86360000D03*
X118110000Y-86360000D03*
X120650000Y-86360000D03*
X123190000Y-86360000D03*
X125730000Y-86360000D03*
X128270000Y-86360000D03*
X130810000Y-86360000D03*
%TD*%
D15*
%TO.C,J1*%
X55626000Y-88748000D03*
X58166000Y-90018000D03*
X55626000Y-91288000D03*
X58166000Y-92558000D03*
X55626000Y-93828000D03*
X58166000Y-95098000D03*
X55626000Y-96368000D03*
X58166000Y-97638000D03*
D16*
X44196000Y-86868000D03*
X45986000Y-89408000D03*
X44196000Y-96978000D03*
X45986000Y-99518000D03*
D17*
X49276000Y-87478000D03*
X49276000Y-98908000D03*
D18*
X52326000Y-85318000D03*
X52326000Y-101068000D03*
%TD*%
M02*
