%TF.GenerationSoftware,KiCad,Pcbnew,7.0.7*%
%TF.CreationDate,2023-11-04T22:27:46-05:00*%
%TF.ProjectId,FlourometerBoard_Hardware,466c6f75-726f-46d6-9574-6572426f6172,rev?*%
%TF.SameCoordinates,Original*%
%TF.FileFunction,Copper,L2,Bot*%
%TF.FilePolarity,Positive*%
%FSLAX46Y46*%
G04 Gerber Fmt 4.6, Leading zero omitted, Abs format (unit mm)*
G04 Created by KiCad (PCBNEW 7.0.7) date 2023-11-04 22:27:46*
%MOMM*%
%LPD*%
G01*
G04 APERTURE LIST*
%TA.AperFunction,ComponentPad*%
%ADD10C,1.524000*%
%TD*%
%TA.AperFunction,ComponentPad*%
%ADD11C,1.308000*%
%TD*%
%TA.AperFunction,ComponentPad*%
%ADD12C,1.208000*%
%TD*%
%TA.AperFunction,ComponentPad*%
%ADD13O,3.000000X5.100000*%
%TD*%
%TA.AperFunction,ComponentPad*%
%ADD14C,1.100000*%
%TD*%
%TA.AperFunction,ComponentPad*%
%ADD15C,1.400000*%
%TD*%
%TA.AperFunction,ComponentPad*%
%ADD16C,4.000000*%
%TD*%
%TA.AperFunction,ComponentPad*%
%ADD17C,2.000000*%
%TD*%
%TA.AperFunction,Conductor*%
%ADD18C,0.254000*%
%TD*%
%TA.AperFunction,Conductor*%
%ADD19C,0.200000*%
%TD*%
G04 APERTURE END LIST*
D10*
%TO.P,Conn2,1*%
%TO.N,+5V*%
X73660000Y-86360000D03*
%TO.P,Conn2,2*%
%TO.N,GND*%
X76200000Y-86360000D03*
%TO.P,Conn2,3*%
X78740000Y-86360000D03*
%TO.P,Conn2,4*%
%TO.N,EOS*%
X81280000Y-86360000D03*
%TO.P,Conn2,5*%
%TO.N,TRG*%
X83820000Y-86360000D03*
%TO.P,Conn2,6*%
%TO.N,START*%
X86360000Y-86360000D03*
%TO.P,Conn2,7*%
%TO.N,CLK*%
X88900000Y-86360000D03*
%TO.P,Conn2,8*%
%TO.N,VIDEO*%
X91440000Y-86360000D03*
%TO.P,Conn2,9*%
%TO.N,WHITE_LED*%
X93980000Y-86360000D03*
%TD*%
%TO.P,U3,1,Vi*%
%TO.N,+12V*%
X107950000Y-97155000D03*
%TO.P,U3,2,GND*%
%TO.N,GND*%
X105410000Y-97155000D03*
%TO.P,U3,3,Vo*%
%TO.N,+5V*%
X102870000Y-97155000D03*
%TD*%
D11*
%TO.P,U1,0,RX1*%
%TO.N,unconnected-(U1-RX1-Pad0)*%
X65278000Y-116586000D03*
%TO.P,U1,1,TX1*%
%TO.N,unconnected-(U1-TX1-Pad1)*%
X67818000Y-116586000D03*
%TO.P,U1,2,OUT2*%
%TO.N,unconnected-(U1-OUT2-Pad2)*%
X70358000Y-116586000D03*
%TO.P,U1,3,LRCLK2*%
%TO.N,unconnected-(U1-LRCLK2-Pad3)*%
X72898000Y-116586000D03*
%TO.P,U1,3.3V_1,3.3V*%
%TO.N,unconnected-(U1-3.3V-Pad3.3V_1)*%
X98298000Y-116586000D03*
%TO.P,U1,3.3V_2,3.3V*%
X67818000Y-101346000D03*
%TO.P,U1,4,BCLK2*%
%TO.N,unconnected-(U1-BCLK2-Pad4)*%
X75438000Y-116586000D03*
%TO.P,U1,5,IN2*%
%TO.N,unconnected-(U1-IN2-Pad5)*%
X77978000Y-116586000D03*
%TO.P,U1,6,OUT1D*%
%TO.N,unconnected-(U1-OUT1D-Pad6)*%
X80518000Y-116586000D03*
%TO.P,U1,7,RX2*%
%TO.N,unconnected-(U1-RX2-Pad7)*%
X83058000Y-116586000D03*
%TO.P,U1,8,TX2*%
%TO.N,unconnected-(U1-TX2-Pad8)*%
X85598000Y-116586000D03*
%TO.P,U1,9,OUT1C*%
%TO.N,unconnected-(U1-OUT1C-Pad9)*%
X88138000Y-116586000D03*
%TO.P,U1,10,CS1*%
%TO.N,unconnected-(U1-CS1-Pad10)*%
X90678000Y-116586000D03*
%TO.P,U1,11,MOSI*%
%TO.N,unconnected-(U1-MOSI-Pad11)*%
X93218000Y-116586000D03*
%TO.P,U1,12,MISO*%
%TO.N,unconnected-(U1-MISO-Pad12)*%
X95758000Y-116586000D03*
%TO.P,U1,13,SCK*%
%TO.N,WHITE_LED*%
X95758000Y-101346000D03*
%TO.P,U1,14,A0*%
%TO.N,VIDEO*%
X93218000Y-101346000D03*
%TO.P,U1,15,A1*%
%TO.N,CLK*%
X90678000Y-101346000D03*
%TO.P,U1,16,A2*%
%TO.N,START*%
X88138000Y-101346000D03*
%TO.P,U1,17,A3*%
%TO.N,TRG*%
X85598000Y-101346000D03*
%TO.P,U1,18,A4*%
%TO.N,EOS*%
X83058000Y-101346000D03*
%TO.P,U1,19,A5*%
%TO.N,unconnected-(U1-A5-Pad19)*%
X80518000Y-101346000D03*
%TO.P,U1,20,A6*%
%TO.N,unconnected-(U1-A6-Pad20)*%
X77978000Y-101346000D03*
%TO.P,U1,21,A7*%
%TO.N,unconnected-(U1-A7-Pad21)*%
X75438000Y-101346000D03*
%TO.P,U1,22,A8*%
%TO.N,unconnected-(U1-A8-Pad22)*%
X72898000Y-101346000D03*
%TO.P,U1,23,A9*%
%TO.N,unconnected-(U1-A9-Pad23)*%
X70358000Y-101346000D03*
%TO.P,U1,24,A10*%
%TO.N,unconnected-(U1-A10-Pad24)*%
X100838000Y-116586000D03*
%TO.P,U1,25,A11*%
%TO.N,unconnected-(U1-A11-Pad25)*%
X103378000Y-116586000D03*
%TO.P,U1,26,A12*%
%TO.N,unconnected-(U1-A12-Pad26)*%
X105918000Y-116586000D03*
%TO.P,U1,27,A13*%
%TO.N,unconnected-(U1-A13-Pad27)*%
X108458000Y-116586000D03*
%TO.P,U1,28,RX7*%
%TO.N,unconnected-(U1-RX7-Pad28)*%
X110998000Y-116586000D03*
%TO.P,U1,29,TX7*%
%TO.N,unconnected-(U1-TX7-Pad29)*%
X113538000Y-116586000D03*
%TO.P,U1,30,CRX3*%
%TO.N,unconnected-(U1-CRX3-Pad30)*%
X116078000Y-116586000D03*
%TO.P,U1,31,CTX3*%
%TO.N,unconnected-(U1-CTX3-Pad31)*%
X118618000Y-116586000D03*
%TO.P,U1,32,OUT1B*%
%TO.N,unconnected-(U1-OUT1B-Pad32)*%
X121158000Y-116586000D03*
%TO.P,U1,33,MCLK2*%
%TO.N,400nm LED*%
X121158000Y-101346000D03*
%TO.P,U1,34,RX8*%
%TO.N,430nm LED*%
X118618000Y-101346000D03*
%TO.P,U1,35,TX8*%
%TO.N,522nm LED*%
X116078000Y-101346000D03*
%TO.P,U1,36,CS2*%
%TO.N,530nm LED*%
X113538000Y-101346000D03*
%TO.P,U1,37,CS3*%
%TO.N,unconnected-(U1-CS3-Pad37)*%
X110998000Y-101346000D03*
%TO.P,U1,38,A14*%
%TO.N,unconnected-(U1-A14-Pad38)*%
X108458000Y-101346000D03*
%TO.P,U1,39,A15*%
%TO.N,unconnected-(U1-A15-Pad39)*%
X105918000Y-101346000D03*
%TO.P,U1,40,A16*%
%TO.N,unconnected-(U1-A16-Pad40)*%
X103378000Y-101346000D03*
%TO.P,U1,41,A17*%
%TO.N,unconnected-(U1-A17-Pad41)*%
X100838000Y-101346000D03*
%TO.P,U1,GND1,GND*%
%TO.N,GND*%
X62738000Y-116586000D03*
%TO.P,U1,GND2,GND*%
X98298000Y-101346000D03*
%TO.P,U1,GND3,GND*%
X65278000Y-101346000D03*
D12*
%TO.P,U1,GND5,GND*%
X77708000Y-105796000D03*
%TO.P,U1,LED,LED*%
%TO.N,LED*%
X75708000Y-105796000D03*
%TO.P,U1,R+,R+*%
%TO.N,R+*%
X75708000Y-103796000D03*
%TO.P,U1,R-,R-*%
%TO.N,R-*%
X77708000Y-103796000D03*
%TO.P,U1,T+,T+*%
%TO.N,T+*%
X77708000Y-107796000D03*
%TO.P,U1,T-,T-*%
%TO.N,T-*%
X75708000Y-107796000D03*
D11*
%TO.P,U1,VIN,VIN*%
%TO.N,+5V*%
X62738000Y-101346000D03*
%TD*%
D13*
%TO.P,Conn1,1,GND*%
%TO.N,GND*%
X125794800Y-111633000D03*
%TO.P,Conn1,2,V+Log*%
%TO.N,+12V*%
X125794800Y-103759000D03*
%TD*%
D10*
%TO.P,Conn3,1*%
%TO.N,530nm LED*%
X115570000Y-86360000D03*
%TO.P,Conn3,2*%
%TO.N,522nm LED*%
X118110000Y-86360000D03*
%TO.P,Conn3,3*%
%TO.N,430nm LED*%
X120650000Y-86360000D03*
%TO.P,Conn3,4*%
%TO.N,400nm LED*%
X123190000Y-86360000D03*
%TO.P,Conn3,5*%
%TO.N,+5V*%
X125730000Y-86360000D03*
%TO.P,Conn3,6*%
%TO.N,GND*%
X128270000Y-86360000D03*
%TO.P,Conn3,7*%
X130810000Y-86360000D03*
%TD*%
D14*
%TO.P,J1,1*%
%TO.N,T+*%
X55626000Y-88748000D03*
%TO.P,J1,2*%
%TO.N,Net-(C1-Pad2)*%
X58166000Y-90018000D03*
%TO.P,J1,3*%
%TO.N,T-*%
X55626000Y-91288000D03*
%TO.P,J1,4*%
%TO.N,R+*%
X58166000Y-92558000D03*
%TO.P,J1,5*%
%TO.N,Net-(C1-Pad2)*%
X55626000Y-93828000D03*
%TO.P,J1,6*%
%TO.N,R-*%
X58166000Y-95098000D03*
%TO.P,J1,7*%
%TO.N,unconnected-(J1-Pad7)*%
X55626000Y-96368000D03*
%TO.P,J1,8*%
%TO.N,GND*%
X58166000Y-97638000D03*
D15*
%TO.P,J1,9*%
X44196000Y-86868000D03*
%TO.P,J1,10*%
%TO.N,LED*%
X45986000Y-89408000D03*
%TO.P,J1,11*%
%TO.N,unconnected-(J1-Pad11)*%
X44196000Y-96978000D03*
%TO.P,J1,12*%
%TO.N,unconnected-(J1-Pad12)*%
X45986000Y-99518000D03*
D16*
%TO.P,J1,13*%
%TO.N,N/C*%
X49276000Y-87478000D03*
%TO.P,J1,14*%
X49276000Y-98908000D03*
D17*
%TO.P,J1,SH*%
%TO.N,GND*%
X52326000Y-85318000D03*
X52326000Y-101068000D03*
%TD*%
D18*
%TO.N,+5V*%
X124460000Y-85090000D02*
X114935000Y-85090000D01*
X125730000Y-86360000D02*
X124460000Y-85090000D01*
X114935000Y-85090000D02*
X102870000Y-97155000D01*
%TO.N,EOS*%
X81280000Y-86360000D02*
X81280000Y-99568000D01*
X81280000Y-99568000D02*
X83058000Y-101346000D01*
%TO.N,TRG*%
X83820000Y-99568000D02*
X85598000Y-101346000D01*
X83820000Y-86360000D02*
X83820000Y-99568000D01*
%TO.N,START*%
X86360000Y-99568000D02*
X88138000Y-101346000D01*
X86360000Y-86360000D02*
X86360000Y-99568000D01*
%TO.N,CLK*%
X88900000Y-99568000D02*
X90678000Y-101346000D01*
X88900000Y-86360000D02*
X88900000Y-99568000D01*
%TO.N,VIDEO*%
X91440000Y-99568000D02*
X93218000Y-101346000D01*
X91440000Y-86360000D02*
X91440000Y-99568000D01*
%TO.N,WHITE_LED*%
X93980000Y-99568000D02*
X95758000Y-101346000D01*
X93980000Y-86360000D02*
X93980000Y-99568000D01*
D19*
%TO.N,T+*%
X76082450Y-108700000D02*
X76536450Y-108246000D01*
X64239800Y-108246000D02*
X74879550Y-108246000D01*
X55626000Y-88748000D02*
X52353000Y-92021000D01*
X76536450Y-108246000D02*
X77258000Y-108246000D01*
X52353000Y-96359200D02*
X64239800Y-108246000D01*
X75333550Y-108700000D02*
X76082450Y-108700000D01*
X77258000Y-108246000D02*
X77708000Y-107796000D01*
X52353000Y-92021000D02*
X52353000Y-96359200D01*
X74879550Y-108246000D02*
X75333550Y-108700000D01*
%TO.N,T-*%
X52803000Y-92207397D02*
X52803000Y-96172800D01*
X72966000Y-107096000D02*
X72966000Y-107496000D01*
X73566000Y-107496000D02*
X73566000Y-107096000D01*
X55626000Y-91288000D02*
X53722397Y-91288000D01*
X71766000Y-107096000D02*
X71766000Y-107496000D01*
X52803000Y-96172800D02*
X64426200Y-107796000D01*
X74466000Y-107796000D02*
X74575933Y-107796000D01*
X53722397Y-91288000D02*
X52803000Y-92207397D01*
X71166000Y-107496000D02*
X71166000Y-107096000D01*
X74575933Y-107796000D02*
X75708000Y-107796000D01*
X64426200Y-107796000D02*
X70866000Y-107796000D01*
X72366000Y-107496000D02*
X72366000Y-107096000D01*
X74166000Y-107096000D02*
X74166000Y-107496000D01*
X71766000Y-107096000D02*
G75*
G03*
X71466000Y-106796000I-300000J0D01*
G01*
X73866000Y-106796000D02*
G75*
G03*
X73566000Y-107096000I0J-300000D01*
G01*
X72966000Y-107096000D02*
G75*
G03*
X72666000Y-106796000I-300000J0D01*
G01*
X74166000Y-107496000D02*
G75*
G03*
X74466000Y-107796000I300000J0D01*
G01*
X74166000Y-107096000D02*
G75*
G03*
X73866000Y-106796000I-300000J0D01*
G01*
X70866000Y-107796000D02*
G75*
G03*
X71166000Y-107496000I0J300000D01*
G01*
X72066000Y-107796000D02*
G75*
G03*
X72366000Y-107496000I0J300000D01*
G01*
X72666000Y-106796000D02*
G75*
G03*
X72366000Y-107096000I0J-300000D01*
G01*
X71466000Y-106796000D02*
G75*
G03*
X71166000Y-107096000I0J-300000D01*
G01*
X73266000Y-107796000D02*
G75*
G03*
X73566000Y-107496000I0J300000D01*
G01*
X72966000Y-107496000D02*
G75*
G03*
X73266000Y-107796000I300000J0D01*
G01*
X71766000Y-107496000D02*
G75*
G03*
X72066000Y-107796000I300000J0D01*
G01*
D18*
%TO.N,530nm LED*%
X115570000Y-99314000D02*
X113538000Y-101346000D01*
X115570000Y-86360000D02*
X115570000Y-99314000D01*
%TO.N,522nm LED*%
X118110000Y-99314000D02*
X116078000Y-101346000D01*
X118110000Y-86360000D02*
X118110000Y-99314000D01*
%TO.N,430nm LED*%
X120650000Y-86360000D02*
X120650000Y-99314000D01*
X120650000Y-99314000D02*
X118618000Y-101346000D01*
%TO.N,400nm LED*%
X123190000Y-99314000D02*
X121158000Y-101346000D01*
X123190000Y-86360000D02*
X123190000Y-99314000D01*
%TD*%
%TA.AperFunction,Conductor*%
%TO.N,GND*%
G36*
X138124238Y-81554185D02*
G01*
X138169993Y-81606989D01*
X138179937Y-81676147D01*
X138150912Y-81739703D01*
X138092134Y-81777477D01*
X138087797Y-81778666D01*
X138019272Y-81796114D01*
X137646549Y-81931774D01*
X137289191Y-82103869D01*
X136950753Y-82310684D01*
X136950742Y-82310692D01*
X136634575Y-82550180D01*
X136634572Y-82550182D01*
X136343813Y-82819968D01*
X136081365Y-83117359D01*
X135849839Y-83439393D01*
X135849826Y-83439413D01*
X135651516Y-83782896D01*
X135488382Y-84144437D01*
X135362059Y-84520419D01*
X135273799Y-84907111D01*
X135224478Y-85300681D01*
X135214590Y-85697173D01*
X135214590Y-85697187D01*
X135244230Y-86092711D01*
X135244231Y-86092724D01*
X135313108Y-86483339D01*
X135420530Y-86865137D01*
X135420534Y-86865151D01*
X135565435Y-87234353D01*
X135565440Y-87234365D01*
X135746386Y-87587314D01*
X135746391Y-87587323D01*
X135961586Y-87920509D01*
X136190453Y-88207500D01*
X136208895Y-88230625D01*
X136447244Y-88474991D01*
X136485833Y-88514554D01*
X136789676Y-88769508D01*
X137117394Y-88992942D01*
X137465730Y-89182636D01*
X137831223Y-89336704D01*
X137831232Y-89336706D01*
X137831238Y-89336709D01*
X138210235Y-89453614D01*
X138210248Y-89453617D01*
X138598999Y-89532205D01*
X138599014Y-89532208D01*
X138937299Y-89566058D01*
X138993680Y-89571700D01*
X138993681Y-89571700D01*
X139291103Y-89571700D01*
X139489130Y-89561816D01*
X139588145Y-89556875D01*
X139980353Y-89497759D01*
X140364726Y-89399886D01*
X140737445Y-89264228D01*
X141094803Y-89092133D01*
X141433251Y-88885312D01*
X141749424Y-88645820D01*
X142040181Y-88376037D01*
X142302631Y-88078645D01*
X142534166Y-87756600D01*
X142732485Y-87413101D01*
X142895617Y-87051563D01*
X143021941Y-86675578D01*
X143110201Y-86288885D01*
X143159521Y-85895325D01*
X143163735Y-85726338D01*
X143169409Y-85498826D01*
X143169409Y-85498810D01*
X143159201Y-85362591D01*
X143139769Y-85103280D01*
X143070893Y-84712668D01*
X143068723Y-84704957D01*
X143009536Y-84494594D01*
X142963467Y-84330854D01*
X142953303Y-84304957D01*
X142818564Y-83961646D01*
X142818559Y-83961634D01*
X142637613Y-83608685D01*
X142637609Y-83608677D01*
X142422414Y-83275491D01*
X142175114Y-82965386D01*
X142175111Y-82965383D01*
X142175104Y-82965374D01*
X141898176Y-82681455D01*
X141898173Y-82681452D01*
X141898172Y-82681451D01*
X141898167Y-82681446D01*
X141594324Y-82426492D01*
X141489841Y-82355257D01*
X141266605Y-82203057D01*
X141150493Y-82139826D01*
X140918270Y-82013364D01*
X140918262Y-82013360D01*
X140918259Y-82013359D01*
X140552777Y-81859296D01*
X140552761Y-81859290D01*
X140390338Y-81809189D01*
X140332079Y-81770618D01*
X140303921Y-81706674D01*
X140314805Y-81637657D01*
X140361274Y-81585480D01*
X140428575Y-81566709D01*
X140443998Y-81567885D01*
X140525398Y-81579240D01*
X140525427Y-81579244D01*
X140715944Y-81607505D01*
X140721029Y-81608478D01*
X140907882Y-81652425D01*
X141092252Y-81698607D01*
X141096884Y-81699962D01*
X141280058Y-81761356D01*
X141458186Y-81825092D01*
X141462264Y-81826719D01*
X141622310Y-81897386D01*
X141639723Y-81905075D01*
X141810338Y-81985770D01*
X141813995Y-81987650D01*
X141983898Y-82082285D01*
X142145610Y-82179212D01*
X142148767Y-82181237D01*
X142309528Y-82291360D01*
X142423633Y-82375986D01*
X142460960Y-82403670D01*
X142463635Y-82405770D01*
X142613760Y-82530431D01*
X142753534Y-82657114D01*
X142755738Y-82659213D01*
X142892785Y-82796260D01*
X142894884Y-82798464D01*
X143021568Y-82938239D01*
X143146228Y-83088363D01*
X143148328Y-83091038D01*
X143260635Y-83242465D01*
X143370761Y-83403231D01*
X143372791Y-83406396D01*
X143469719Y-83568111D01*
X143489582Y-83603772D01*
X143564345Y-83737998D01*
X143566228Y-83741660D01*
X143646924Y-83912276D01*
X143695912Y-84023221D01*
X143725259Y-84089686D01*
X143725260Y-84089687D01*
X143726919Y-84093844D01*
X143790642Y-84271936D01*
X143852036Y-84455115D01*
X143853392Y-84459754D01*
X143899582Y-84644151D01*
X143943517Y-84830955D01*
X143944493Y-84836054D01*
X143972755Y-85026572D01*
X143998878Y-85213840D01*
X143999398Y-85219366D01*
X144009511Y-85425213D01*
X144017434Y-85596575D01*
X144017500Y-85599439D01*
X144017500Y-114044560D01*
X144017434Y-114047424D01*
X144009511Y-114218786D01*
X143999398Y-114424632D01*
X143998878Y-114430158D01*
X143972755Y-114617427D01*
X143944493Y-114807944D01*
X143943517Y-114813043D01*
X143899582Y-114999848D01*
X143853392Y-115184244D01*
X143852036Y-115188883D01*
X143790642Y-115372063D01*
X143726919Y-115550154D01*
X143725260Y-115554311D01*
X143646924Y-115731723D01*
X143566228Y-115902338D01*
X143564345Y-115906000D01*
X143469713Y-116075900D01*
X143372791Y-116237602D01*
X143370761Y-116240766D01*
X143260635Y-116401534D01*
X143148328Y-116552960D01*
X143146228Y-116555635D01*
X143021568Y-116705760D01*
X142894884Y-116845534D01*
X142892785Y-116847738D01*
X142755738Y-116984785D01*
X142753534Y-116986884D01*
X142613760Y-117113568D01*
X142463635Y-117238228D01*
X142460960Y-117240328D01*
X142309534Y-117352635D01*
X142148766Y-117462761D01*
X142145602Y-117464791D01*
X141983900Y-117561713D01*
X141814000Y-117656345D01*
X141810338Y-117658228D01*
X141639723Y-117738924D01*
X141462311Y-117817260D01*
X141458154Y-117818919D01*
X141280063Y-117882642D01*
X141096883Y-117944036D01*
X141092244Y-117945392D01*
X140907848Y-117991582D01*
X140721043Y-118035517D01*
X140715944Y-118036493D01*
X140525427Y-118064755D01*
X140338158Y-118090878D01*
X140332632Y-118091398D01*
X140126786Y-118101511D01*
X139955424Y-118109434D01*
X139952560Y-118109500D01*
X42419440Y-118109500D01*
X42416576Y-118109434D01*
X42245213Y-118101511D01*
X42039366Y-118091398D01*
X42033840Y-118090878D01*
X41846572Y-118064755D01*
X41656054Y-118036493D01*
X41650955Y-118035517D01*
X41464151Y-117991582D01*
X41279754Y-117945392D01*
X41275115Y-117944036D01*
X41112904Y-117889669D01*
X41091936Y-117882642D01*
X40913842Y-117818918D01*
X40909697Y-117817264D01*
X40843221Y-117787912D01*
X40732276Y-117738924D01*
X40561660Y-117658228D01*
X40557998Y-117656345D01*
X40388116Y-117561722D01*
X40287676Y-117501521D01*
X40226396Y-117464791D01*
X40223231Y-117462761D01*
X40062465Y-117352635D01*
X39911038Y-117240328D01*
X39908363Y-117238228D01*
X39758239Y-117113568D01*
X39618464Y-116986884D01*
X39616260Y-116984785D01*
X39479213Y-116847738D01*
X39477114Y-116845534D01*
X39350431Y-116705760D01*
X39250985Y-116586000D01*
X64118554Y-116586000D01*
X64138295Y-116799047D01*
X64138296Y-116799050D01*
X64196846Y-117004835D01*
X64196849Y-117004841D01*
X64250989Y-117113568D01*
X64292219Y-117196370D01*
X64421159Y-117367114D01*
X64579278Y-117511258D01*
X64579283Y-117511261D01*
X64579286Y-117511263D01*
X64761186Y-117623891D01*
X64761187Y-117623891D01*
X64761190Y-117623893D01*
X64960703Y-117701185D01*
X65171020Y-117740500D01*
X65171022Y-117740500D01*
X65384978Y-117740500D01*
X65384980Y-117740500D01*
X65595297Y-117701185D01*
X65794810Y-117623893D01*
X65976722Y-117511258D01*
X66134841Y-117367114D01*
X66263781Y-117196370D01*
X66359151Y-117004840D01*
X66359151Y-117004837D01*
X66359153Y-117004835D01*
X66403850Y-116847738D01*
X66417704Y-116799048D01*
X66424529Y-116725394D01*
X66450315Y-116660457D01*
X66507116Y-116619770D01*
X66576897Y-116616250D01*
X66637503Y-116651015D01*
X66669693Y-116713028D01*
X66671471Y-116725395D01*
X66678295Y-116799047D01*
X66678296Y-116799050D01*
X66736846Y-117004835D01*
X66736849Y-117004841D01*
X66790989Y-117113568D01*
X66832219Y-117196370D01*
X66961159Y-117367114D01*
X67119278Y-117511258D01*
X67119283Y-117511261D01*
X67119286Y-117511263D01*
X67301186Y-117623891D01*
X67301187Y-117623891D01*
X67301190Y-117623893D01*
X67500703Y-117701185D01*
X67711020Y-117740500D01*
X67711022Y-117740500D01*
X67924978Y-117740500D01*
X67924980Y-117740500D01*
X68135297Y-117701185D01*
X68334810Y-117623893D01*
X68516722Y-117511258D01*
X68674841Y-117367114D01*
X68803781Y-117196370D01*
X68899151Y-117004840D01*
X68899151Y-117004837D01*
X68899153Y-117004835D01*
X68943850Y-116847738D01*
X68957704Y-116799048D01*
X68964529Y-116725394D01*
X68990315Y-116660457D01*
X69047116Y-116619770D01*
X69116897Y-116616250D01*
X69177503Y-116651015D01*
X69209693Y-116713028D01*
X69211471Y-116725395D01*
X69218295Y-116799047D01*
X69218296Y-116799050D01*
X69276846Y-117004835D01*
X69276849Y-117004841D01*
X69330989Y-117113568D01*
X69372219Y-117196370D01*
X69501159Y-117367114D01*
X69659278Y-117511258D01*
X69659283Y-117511261D01*
X69659286Y-117511263D01*
X69841186Y-117623891D01*
X69841187Y-117623891D01*
X69841190Y-117623893D01*
X70040703Y-117701185D01*
X70251020Y-117740500D01*
X70251022Y-117740500D01*
X70464978Y-117740500D01*
X70464980Y-117740500D01*
X70675297Y-117701185D01*
X70874810Y-117623893D01*
X71056722Y-117511258D01*
X71214841Y-117367114D01*
X71343781Y-117196370D01*
X71439151Y-117004840D01*
X71439151Y-117004837D01*
X71439153Y-117004835D01*
X71483850Y-116847738D01*
X71497704Y-116799048D01*
X71504529Y-116725394D01*
X71530315Y-116660457D01*
X71587116Y-116619770D01*
X71656897Y-116616250D01*
X71717503Y-116651015D01*
X71749693Y-116713028D01*
X71751471Y-116725395D01*
X71758295Y-116799047D01*
X71758296Y-116799050D01*
X71816846Y-117004835D01*
X71816849Y-117004841D01*
X71870989Y-117113568D01*
X71912219Y-117196370D01*
X72041159Y-117367114D01*
X72199278Y-117511258D01*
X72199283Y-117511261D01*
X72199286Y-117511263D01*
X72381186Y-117623891D01*
X72381187Y-117623891D01*
X72381190Y-117623893D01*
X72580703Y-117701185D01*
X72791020Y-117740500D01*
X72791022Y-117740500D01*
X73004978Y-117740500D01*
X73004980Y-117740500D01*
X73215297Y-117701185D01*
X73414810Y-117623893D01*
X73596722Y-117511258D01*
X73754841Y-117367114D01*
X73883781Y-117196370D01*
X73979151Y-117004840D01*
X73979151Y-117004837D01*
X73979153Y-117004835D01*
X74023850Y-116847738D01*
X74037704Y-116799048D01*
X74044529Y-116725394D01*
X74070315Y-116660457D01*
X74127116Y-116619770D01*
X74196897Y-116616250D01*
X74257503Y-116651015D01*
X74289693Y-116713028D01*
X74291471Y-116725395D01*
X74298295Y-116799047D01*
X74298296Y-116799050D01*
X74356846Y-117004835D01*
X74356849Y-117004841D01*
X74410989Y-117113568D01*
X74452219Y-117196370D01*
X74581159Y-117367114D01*
X74739278Y-117511258D01*
X74739283Y-117511261D01*
X74739286Y-117511263D01*
X74921186Y-117623891D01*
X74921187Y-117623891D01*
X74921190Y-117623893D01*
X75120703Y-117701185D01*
X75331020Y-117740500D01*
X75331022Y-117740500D01*
X75544978Y-117740500D01*
X75544980Y-117740500D01*
X75755297Y-117701185D01*
X75954810Y-117623893D01*
X76136722Y-117511258D01*
X76294841Y-117367114D01*
X76423781Y-117196370D01*
X76519151Y-117004840D01*
X76519151Y-117004837D01*
X76519153Y-117004835D01*
X76563850Y-116847738D01*
X76577704Y-116799048D01*
X76584529Y-116725394D01*
X76610315Y-116660457D01*
X76667116Y-116619770D01*
X76736897Y-116616250D01*
X76797503Y-116651015D01*
X76829693Y-116713028D01*
X76831471Y-116725395D01*
X76838295Y-116799047D01*
X76838296Y-116799050D01*
X76896846Y-117004835D01*
X76896849Y-117004841D01*
X76950989Y-117113568D01*
X76992219Y-117196370D01*
X77121159Y-117367114D01*
X77279278Y-117511258D01*
X77279283Y-117511261D01*
X77279286Y-117511263D01*
X77461186Y-117623891D01*
X77461187Y-117623891D01*
X77461190Y-117623893D01*
X77660703Y-117701185D01*
X77871020Y-117740500D01*
X77871022Y-117740500D01*
X78084978Y-117740500D01*
X78084980Y-117740500D01*
X78295297Y-117701185D01*
X78494810Y-117623893D01*
X78676722Y-117511258D01*
X78834841Y-117367114D01*
X78963781Y-117196370D01*
X79059151Y-117004840D01*
X79059151Y-117004837D01*
X79059153Y-117004835D01*
X79103850Y-116847738D01*
X79117704Y-116799048D01*
X79124529Y-116725394D01*
X79150315Y-116660457D01*
X79207116Y-116619770D01*
X79276897Y-116616250D01*
X79337503Y-116651015D01*
X79369693Y-116713028D01*
X79371471Y-116725395D01*
X79378295Y-116799047D01*
X79378296Y-116799050D01*
X79436846Y-117004835D01*
X79436849Y-117004841D01*
X79490989Y-117113568D01*
X79532219Y-117196370D01*
X79661159Y-117367114D01*
X79819278Y-117511258D01*
X79819283Y-117511261D01*
X79819286Y-117511263D01*
X80001186Y-117623891D01*
X80001187Y-117623891D01*
X80001190Y-117623893D01*
X80200703Y-117701185D01*
X80411020Y-117740500D01*
X80411022Y-117740500D01*
X80624978Y-117740500D01*
X80624980Y-117740500D01*
X80835297Y-117701185D01*
X81034810Y-117623893D01*
X81216722Y-117511258D01*
X81374841Y-117367114D01*
X81503781Y-117196370D01*
X81599151Y-117004840D01*
X81599151Y-117004837D01*
X81599153Y-117004835D01*
X81643850Y-116847738D01*
X81657704Y-116799048D01*
X81664529Y-116725394D01*
X81690315Y-116660457D01*
X81747116Y-116619770D01*
X81816897Y-116616250D01*
X81877503Y-116651015D01*
X81909693Y-116713028D01*
X81911471Y-116725395D01*
X81918295Y-116799047D01*
X81918296Y-116799050D01*
X81976846Y-117004835D01*
X81976849Y-117004841D01*
X82030989Y-117113568D01*
X82072219Y-117196370D01*
X82201159Y-117367114D01*
X82359278Y-117511258D01*
X82359283Y-117511261D01*
X82359286Y-117511263D01*
X82541186Y-117623891D01*
X82541187Y-117623891D01*
X82541190Y-117623893D01*
X82740703Y-117701185D01*
X82951020Y-117740500D01*
X82951022Y-117740500D01*
X83164978Y-117740500D01*
X83164980Y-117740500D01*
X83375297Y-117701185D01*
X83574810Y-117623893D01*
X83756722Y-117511258D01*
X83914841Y-117367114D01*
X84043781Y-117196370D01*
X84139151Y-117004840D01*
X84139151Y-117004837D01*
X84139153Y-117004835D01*
X84183850Y-116847738D01*
X84197704Y-116799048D01*
X84204529Y-116725394D01*
X84230315Y-116660457D01*
X84287116Y-116619770D01*
X84356897Y-116616250D01*
X84417503Y-116651015D01*
X84449693Y-116713028D01*
X84451471Y-116725395D01*
X84458295Y-116799047D01*
X84458296Y-116799050D01*
X84516846Y-117004835D01*
X84516849Y-117004841D01*
X84570989Y-117113568D01*
X84612219Y-117196370D01*
X84741159Y-117367114D01*
X84899278Y-117511258D01*
X84899283Y-117511261D01*
X84899286Y-117511263D01*
X85081186Y-117623891D01*
X85081187Y-117623891D01*
X85081190Y-117623893D01*
X85280703Y-117701185D01*
X85491020Y-117740500D01*
X85491022Y-117740500D01*
X85704978Y-117740500D01*
X85704980Y-117740500D01*
X85915297Y-117701185D01*
X86114810Y-117623893D01*
X86296722Y-117511258D01*
X86454841Y-117367114D01*
X86583781Y-117196370D01*
X86679151Y-117004840D01*
X86679151Y-117004837D01*
X86679153Y-117004835D01*
X86723850Y-116847738D01*
X86737704Y-116799048D01*
X86744529Y-116725394D01*
X86770315Y-116660457D01*
X86827116Y-116619770D01*
X86896897Y-116616250D01*
X86957503Y-116651015D01*
X86989693Y-116713028D01*
X86991471Y-116725395D01*
X86998295Y-116799047D01*
X86998296Y-116799050D01*
X87056846Y-117004835D01*
X87056849Y-117004841D01*
X87110989Y-117113568D01*
X87152219Y-117196370D01*
X87281159Y-117367114D01*
X87439278Y-117511258D01*
X87439283Y-117511261D01*
X87439286Y-117511263D01*
X87621186Y-117623891D01*
X87621187Y-117623891D01*
X87621190Y-117623893D01*
X87820703Y-117701185D01*
X88031020Y-117740500D01*
X88031022Y-117740500D01*
X88244978Y-117740500D01*
X88244980Y-117740500D01*
X88455297Y-117701185D01*
X88654810Y-117623893D01*
X88836722Y-117511258D01*
X88994841Y-117367114D01*
X89123781Y-117196370D01*
X89219151Y-117004840D01*
X89219151Y-117004837D01*
X89219153Y-117004835D01*
X89263850Y-116847738D01*
X89277704Y-116799048D01*
X89284529Y-116725394D01*
X89310315Y-116660457D01*
X89367116Y-116619770D01*
X89436897Y-116616250D01*
X89497503Y-116651015D01*
X89529693Y-116713028D01*
X89531471Y-116725395D01*
X89538295Y-116799047D01*
X89538296Y-116799050D01*
X89596846Y-117004835D01*
X89596849Y-117004841D01*
X89650989Y-117113568D01*
X89692219Y-117196370D01*
X89821159Y-117367114D01*
X89979278Y-117511258D01*
X89979283Y-117511261D01*
X89979286Y-117511263D01*
X90161186Y-117623891D01*
X90161187Y-117623891D01*
X90161190Y-117623893D01*
X90360703Y-117701185D01*
X90571020Y-117740500D01*
X90571022Y-117740500D01*
X90784978Y-117740500D01*
X90784980Y-117740500D01*
X90995297Y-117701185D01*
X91194810Y-117623893D01*
X91376722Y-117511258D01*
X91534841Y-117367114D01*
X91663781Y-117196370D01*
X91759151Y-117004840D01*
X91759151Y-117004837D01*
X91759153Y-117004835D01*
X91803850Y-116847738D01*
X91817704Y-116799048D01*
X91824529Y-116725394D01*
X91850315Y-116660457D01*
X91907116Y-116619770D01*
X91976897Y-116616250D01*
X92037503Y-116651015D01*
X92069693Y-116713028D01*
X92071471Y-116725395D01*
X92078295Y-116799047D01*
X92078296Y-116799050D01*
X92136846Y-117004835D01*
X92136849Y-117004841D01*
X92190989Y-117113568D01*
X92232219Y-117196370D01*
X92361159Y-117367114D01*
X92519278Y-117511258D01*
X92519283Y-117511261D01*
X92519286Y-117511263D01*
X92701186Y-117623891D01*
X92701187Y-117623891D01*
X92701190Y-117623893D01*
X92900703Y-117701185D01*
X93111020Y-117740500D01*
X93111022Y-117740500D01*
X93324978Y-117740500D01*
X93324980Y-117740500D01*
X93535297Y-117701185D01*
X93734810Y-117623893D01*
X93916722Y-117511258D01*
X94074841Y-117367114D01*
X94203781Y-117196370D01*
X94299151Y-117004840D01*
X94299151Y-117004837D01*
X94299153Y-117004835D01*
X94343850Y-116847738D01*
X94357704Y-116799048D01*
X94364529Y-116725394D01*
X94390315Y-116660457D01*
X94447116Y-116619770D01*
X94516897Y-116616250D01*
X94577503Y-116651015D01*
X94609693Y-116713028D01*
X94611471Y-116725395D01*
X94618295Y-116799047D01*
X94618296Y-116799050D01*
X94676846Y-117004835D01*
X94676849Y-117004841D01*
X94730989Y-117113568D01*
X94772219Y-117196370D01*
X94901159Y-117367114D01*
X95059278Y-117511258D01*
X95059283Y-117511261D01*
X95059286Y-117511263D01*
X95241186Y-117623891D01*
X95241187Y-117623891D01*
X95241190Y-117623893D01*
X95440703Y-117701185D01*
X95651020Y-117740500D01*
X95651022Y-117740500D01*
X95864978Y-117740500D01*
X95864980Y-117740500D01*
X96075297Y-117701185D01*
X96274810Y-117623893D01*
X96456722Y-117511258D01*
X96614841Y-117367114D01*
X96743781Y-117196370D01*
X96839151Y-117004840D01*
X96839151Y-117004837D01*
X96839153Y-117004835D01*
X96883850Y-116847738D01*
X96897704Y-116799048D01*
X96904529Y-116725394D01*
X96930315Y-116660457D01*
X96987116Y-116619770D01*
X97056897Y-116616250D01*
X97117503Y-116651015D01*
X97149693Y-116713028D01*
X97151471Y-116725395D01*
X97158295Y-116799047D01*
X97158296Y-116799050D01*
X97216846Y-117004835D01*
X97216849Y-117004841D01*
X97270989Y-117113568D01*
X97312219Y-117196370D01*
X97441159Y-117367114D01*
X97599278Y-117511258D01*
X97599283Y-117511261D01*
X97599286Y-117511263D01*
X97781186Y-117623891D01*
X97781187Y-117623891D01*
X97781190Y-117623893D01*
X97980703Y-117701185D01*
X98191020Y-117740500D01*
X98191022Y-117740500D01*
X98404978Y-117740500D01*
X98404980Y-117740500D01*
X98615297Y-117701185D01*
X98814810Y-117623893D01*
X98996722Y-117511258D01*
X99154841Y-117367114D01*
X99283781Y-117196370D01*
X99379151Y-117004840D01*
X99379151Y-117004837D01*
X99379153Y-117004835D01*
X99423850Y-116847738D01*
X99437704Y-116799048D01*
X99444529Y-116725394D01*
X99470315Y-116660457D01*
X99527116Y-116619770D01*
X99596897Y-116616250D01*
X99657503Y-116651015D01*
X99689693Y-116713028D01*
X99691471Y-116725395D01*
X99698295Y-116799047D01*
X99698296Y-116799050D01*
X99756846Y-117004835D01*
X99756849Y-117004841D01*
X99810989Y-117113568D01*
X99852219Y-117196370D01*
X99981159Y-117367114D01*
X100139278Y-117511258D01*
X100139283Y-117511261D01*
X100139286Y-117511263D01*
X100321186Y-117623891D01*
X100321187Y-117623891D01*
X100321190Y-117623893D01*
X100520703Y-117701185D01*
X100731020Y-117740500D01*
X100731022Y-117740500D01*
X100944978Y-117740500D01*
X100944980Y-117740500D01*
X101155297Y-117701185D01*
X101354810Y-117623893D01*
X101536722Y-117511258D01*
X101694841Y-117367114D01*
X101823781Y-117196370D01*
X101919151Y-117004840D01*
X101919151Y-117004837D01*
X101919153Y-117004835D01*
X101963850Y-116847738D01*
X101977704Y-116799048D01*
X101984529Y-116725394D01*
X102010315Y-116660457D01*
X102067116Y-116619770D01*
X102136897Y-116616250D01*
X102197503Y-116651015D01*
X102229693Y-116713028D01*
X102231471Y-116725395D01*
X102238295Y-116799047D01*
X102238296Y-116799050D01*
X102296846Y-117004835D01*
X102296849Y-117004841D01*
X102350989Y-117113568D01*
X102392219Y-117196370D01*
X102521159Y-117367114D01*
X102679278Y-117511258D01*
X102679283Y-117511261D01*
X102679286Y-117511263D01*
X102861186Y-117623891D01*
X102861187Y-117623891D01*
X102861190Y-117623893D01*
X103060703Y-117701185D01*
X103271020Y-117740500D01*
X103271022Y-117740500D01*
X103484978Y-117740500D01*
X103484980Y-117740500D01*
X103695297Y-117701185D01*
X103894810Y-117623893D01*
X104076722Y-117511258D01*
X104234841Y-117367114D01*
X104363781Y-117196370D01*
X104459151Y-117004840D01*
X104459151Y-117004837D01*
X104459153Y-117004835D01*
X104503850Y-116847738D01*
X104517704Y-116799048D01*
X104524529Y-116725394D01*
X104550315Y-116660457D01*
X104607116Y-116619770D01*
X104676897Y-116616250D01*
X104737503Y-116651015D01*
X104769693Y-116713028D01*
X104771471Y-116725395D01*
X104778295Y-116799047D01*
X104778296Y-116799050D01*
X104836846Y-117004835D01*
X104836849Y-117004841D01*
X104890989Y-117113568D01*
X104932219Y-117196370D01*
X105061159Y-117367114D01*
X105219278Y-117511258D01*
X105219283Y-117511261D01*
X105219286Y-117511263D01*
X105401186Y-117623891D01*
X105401187Y-117623891D01*
X105401190Y-117623893D01*
X105600703Y-117701185D01*
X105811020Y-117740500D01*
X105811022Y-117740500D01*
X106024978Y-117740500D01*
X106024980Y-117740500D01*
X106235297Y-117701185D01*
X106434810Y-117623893D01*
X106616722Y-117511258D01*
X106774841Y-117367114D01*
X106903781Y-117196370D01*
X106999151Y-117004840D01*
X106999151Y-117004837D01*
X106999153Y-117004835D01*
X107043850Y-116847738D01*
X107057704Y-116799048D01*
X107064529Y-116725394D01*
X107090315Y-116660457D01*
X107147116Y-116619770D01*
X107216897Y-116616250D01*
X107277503Y-116651015D01*
X107309693Y-116713028D01*
X107311471Y-116725395D01*
X107318295Y-116799047D01*
X107318296Y-116799050D01*
X107376846Y-117004835D01*
X107376849Y-117004841D01*
X107430989Y-117113568D01*
X107472219Y-117196370D01*
X107601159Y-117367114D01*
X107759278Y-117511258D01*
X107759283Y-117511261D01*
X107759286Y-117511263D01*
X107941186Y-117623891D01*
X107941187Y-117623891D01*
X107941190Y-117623893D01*
X108140703Y-117701185D01*
X108351020Y-117740500D01*
X108351022Y-117740500D01*
X108564978Y-117740500D01*
X108564980Y-117740500D01*
X108775297Y-117701185D01*
X108974810Y-117623893D01*
X109156722Y-117511258D01*
X109314841Y-117367114D01*
X109443781Y-117196370D01*
X109539151Y-117004840D01*
X109539151Y-117004837D01*
X109539153Y-117004835D01*
X109583850Y-116847738D01*
X109597704Y-116799048D01*
X109604529Y-116725394D01*
X109630315Y-116660457D01*
X109687116Y-116619770D01*
X109756897Y-116616250D01*
X109817503Y-116651015D01*
X109849693Y-116713028D01*
X109851471Y-116725395D01*
X109858295Y-116799047D01*
X109858296Y-116799050D01*
X109916846Y-117004835D01*
X109916849Y-117004841D01*
X109970989Y-117113568D01*
X110012219Y-117196370D01*
X110141159Y-117367114D01*
X110299278Y-117511258D01*
X110299283Y-117511261D01*
X110299286Y-117511263D01*
X110481186Y-117623891D01*
X110481187Y-117623891D01*
X110481190Y-117623893D01*
X110680703Y-117701185D01*
X110891020Y-117740500D01*
X110891022Y-117740500D01*
X111104978Y-117740500D01*
X111104980Y-117740500D01*
X111315297Y-117701185D01*
X111514810Y-117623893D01*
X111696722Y-117511258D01*
X111854841Y-117367114D01*
X111983781Y-117196370D01*
X112079151Y-117004840D01*
X112079151Y-117004837D01*
X112079153Y-117004835D01*
X112123850Y-116847738D01*
X112137704Y-116799048D01*
X112144529Y-116725394D01*
X112170315Y-116660457D01*
X112227116Y-116619770D01*
X112296897Y-116616250D01*
X112357503Y-116651015D01*
X112389693Y-116713028D01*
X112391471Y-116725395D01*
X112398295Y-116799047D01*
X112398296Y-116799050D01*
X112456846Y-117004835D01*
X112456849Y-117004841D01*
X112510989Y-117113568D01*
X112552219Y-117196370D01*
X112681159Y-117367114D01*
X112839278Y-117511258D01*
X112839283Y-117511261D01*
X112839286Y-117511263D01*
X113021186Y-117623891D01*
X113021187Y-117623891D01*
X113021190Y-117623893D01*
X113220703Y-117701185D01*
X113431020Y-117740500D01*
X113431022Y-117740500D01*
X113644978Y-117740500D01*
X113644980Y-117740500D01*
X113855297Y-117701185D01*
X114054810Y-117623893D01*
X114236722Y-117511258D01*
X114394841Y-117367114D01*
X114523781Y-117196370D01*
X114619151Y-117004840D01*
X114619151Y-117004837D01*
X114619153Y-117004835D01*
X114663850Y-116847738D01*
X114677704Y-116799048D01*
X114684529Y-116725394D01*
X114710315Y-116660457D01*
X114767116Y-116619770D01*
X114836897Y-116616250D01*
X114897503Y-116651015D01*
X114929693Y-116713028D01*
X114931471Y-116725395D01*
X114938295Y-116799047D01*
X114938296Y-116799050D01*
X114996846Y-117004835D01*
X114996849Y-117004841D01*
X115050989Y-117113568D01*
X115092219Y-117196370D01*
X115221159Y-117367114D01*
X115379278Y-117511258D01*
X115379283Y-117511261D01*
X115379286Y-117511263D01*
X115561186Y-117623891D01*
X115561187Y-117623891D01*
X115561190Y-117623893D01*
X115760703Y-117701185D01*
X115971020Y-117740500D01*
X115971022Y-117740500D01*
X116184978Y-117740500D01*
X116184980Y-117740500D01*
X116395297Y-117701185D01*
X116594810Y-117623893D01*
X116776722Y-117511258D01*
X116934841Y-117367114D01*
X117063781Y-117196370D01*
X117159151Y-117004840D01*
X117159151Y-117004837D01*
X117159153Y-117004835D01*
X117203850Y-116847738D01*
X117217704Y-116799048D01*
X117224529Y-116725394D01*
X117250315Y-116660457D01*
X117307116Y-116619770D01*
X117376897Y-116616250D01*
X117437503Y-116651015D01*
X117469693Y-116713028D01*
X117471471Y-116725395D01*
X117478295Y-116799047D01*
X117478296Y-116799050D01*
X117536846Y-117004835D01*
X117536849Y-117004841D01*
X117590989Y-117113568D01*
X117632219Y-117196370D01*
X117761159Y-117367114D01*
X117919278Y-117511258D01*
X117919283Y-117511261D01*
X117919286Y-117511263D01*
X118101186Y-117623891D01*
X118101187Y-117623891D01*
X118101190Y-117623893D01*
X118300703Y-117701185D01*
X118511020Y-117740500D01*
X118511022Y-117740500D01*
X118724978Y-117740500D01*
X118724980Y-117740500D01*
X118935297Y-117701185D01*
X119134810Y-117623893D01*
X119316722Y-117511258D01*
X119474841Y-117367114D01*
X119603781Y-117196370D01*
X119699151Y-117004840D01*
X119699151Y-117004837D01*
X119699153Y-117004835D01*
X119743850Y-116847738D01*
X119757704Y-116799048D01*
X119764529Y-116725394D01*
X119790315Y-116660457D01*
X119847116Y-116619770D01*
X119916897Y-116616250D01*
X119977503Y-116651015D01*
X120009693Y-116713028D01*
X120011471Y-116725395D01*
X120018295Y-116799047D01*
X120018296Y-116799050D01*
X120076846Y-117004835D01*
X120076849Y-117004841D01*
X120130989Y-117113568D01*
X120172219Y-117196370D01*
X120301159Y-117367114D01*
X120459278Y-117511258D01*
X120459283Y-117511261D01*
X120459286Y-117511263D01*
X120641186Y-117623891D01*
X120641187Y-117623891D01*
X120641190Y-117623893D01*
X120840703Y-117701185D01*
X121051020Y-117740500D01*
X121051022Y-117740500D01*
X121264978Y-117740500D01*
X121264980Y-117740500D01*
X121475297Y-117701185D01*
X121674810Y-117623893D01*
X121856722Y-117511258D01*
X122014841Y-117367114D01*
X122143781Y-117196370D01*
X122239151Y-117004840D01*
X122239151Y-117004837D01*
X122239153Y-117004835D01*
X122283850Y-116847738D01*
X122297704Y-116799048D01*
X122317446Y-116586000D01*
X122297704Y-116372952D01*
X122289200Y-116343065D01*
X122239153Y-116167164D01*
X122239150Y-116167158D01*
X122193696Y-116075873D01*
X122143781Y-115975630D01*
X122014841Y-115804886D01*
X121856722Y-115660742D01*
X121856716Y-115660738D01*
X121856713Y-115660736D01*
X121674813Y-115548108D01*
X121674807Y-115548106D01*
X121475297Y-115470815D01*
X121264980Y-115431500D01*
X121051020Y-115431500D01*
X120840703Y-115470815D01*
X120729473Y-115513906D01*
X120641192Y-115548106D01*
X120641186Y-115548108D01*
X120459286Y-115660736D01*
X120459283Y-115660738D01*
X120459279Y-115660740D01*
X120459278Y-115660742D01*
X120301159Y-115804886D01*
X120301158Y-115804887D01*
X120172219Y-115975629D01*
X120076849Y-116167158D01*
X120076846Y-116167164D01*
X120018296Y-116372949D01*
X120018295Y-116372952D01*
X120011471Y-116446604D01*
X119985685Y-116511542D01*
X119928884Y-116552229D01*
X119859103Y-116555749D01*
X119798497Y-116520984D01*
X119766307Y-116458971D01*
X119764529Y-116446604D01*
X119757704Y-116372952D01*
X119757703Y-116372949D01*
X119699153Y-116167164D01*
X119699150Y-116167158D01*
X119653696Y-116075873D01*
X119603781Y-115975630D01*
X119474841Y-115804886D01*
X119316722Y-115660742D01*
X119316716Y-115660738D01*
X119316713Y-115660736D01*
X119134813Y-115548108D01*
X119134807Y-115548106D01*
X118935297Y-115470815D01*
X118724980Y-115431500D01*
X118511020Y-115431500D01*
X118300703Y-115470815D01*
X118189473Y-115513906D01*
X118101192Y-115548106D01*
X118101186Y-115548108D01*
X117919286Y-115660736D01*
X117919283Y-115660738D01*
X117919279Y-115660740D01*
X117919278Y-115660742D01*
X117761159Y-115804886D01*
X117761158Y-115804887D01*
X117632219Y-115975629D01*
X117536849Y-116167158D01*
X117536846Y-116167164D01*
X117478296Y-116372949D01*
X117478295Y-116372952D01*
X117471471Y-116446604D01*
X117445685Y-116511542D01*
X117388884Y-116552229D01*
X117319103Y-116555749D01*
X117258497Y-116520984D01*
X117226307Y-116458971D01*
X117224529Y-116446604D01*
X117217704Y-116372952D01*
X117217703Y-116372949D01*
X117159153Y-116167164D01*
X117159150Y-116167158D01*
X117113696Y-116075873D01*
X117063781Y-115975630D01*
X116934841Y-115804886D01*
X116776722Y-115660742D01*
X116776716Y-115660738D01*
X116776713Y-115660736D01*
X116594813Y-115548108D01*
X116594807Y-115548106D01*
X116395297Y-115470815D01*
X116184980Y-115431500D01*
X115971020Y-115431500D01*
X115760703Y-115470815D01*
X115649473Y-115513906D01*
X115561192Y-115548106D01*
X115561186Y-115548108D01*
X115379286Y-115660736D01*
X115379283Y-115660738D01*
X115379279Y-115660740D01*
X115379278Y-115660742D01*
X115221159Y-115804886D01*
X115221158Y-115804887D01*
X115092219Y-115975629D01*
X114996849Y-116167158D01*
X114996846Y-116167164D01*
X114938296Y-116372949D01*
X114938295Y-116372952D01*
X114931471Y-116446604D01*
X114905685Y-116511542D01*
X114848884Y-116552229D01*
X114779103Y-116555749D01*
X114718497Y-116520984D01*
X114686307Y-116458971D01*
X114684529Y-116446604D01*
X114677704Y-116372952D01*
X114677703Y-116372949D01*
X114619153Y-116167164D01*
X114619150Y-116167158D01*
X114573696Y-116075873D01*
X114523781Y-115975630D01*
X114394841Y-115804886D01*
X114236722Y-115660742D01*
X114236716Y-115660738D01*
X114236713Y-115660736D01*
X114054813Y-115548108D01*
X114054807Y-115548106D01*
X113855297Y-115470815D01*
X113644980Y-115431500D01*
X113431020Y-115431500D01*
X113220703Y-115470815D01*
X113109473Y-115513906D01*
X113021192Y-115548106D01*
X113021186Y-115548108D01*
X112839286Y-115660736D01*
X112839283Y-115660738D01*
X112839279Y-115660740D01*
X112839278Y-115660742D01*
X112681159Y-115804886D01*
X112681158Y-115804887D01*
X112552219Y-115975629D01*
X112456849Y-116167158D01*
X112456846Y-116167164D01*
X112398296Y-116372949D01*
X112398295Y-116372952D01*
X112391471Y-116446604D01*
X112365685Y-116511542D01*
X112308884Y-116552229D01*
X112239103Y-116555749D01*
X112178497Y-116520984D01*
X112146307Y-116458971D01*
X112144529Y-116446604D01*
X112137704Y-116372952D01*
X112137703Y-116372949D01*
X112079153Y-116167164D01*
X112079150Y-116167158D01*
X112033696Y-116075873D01*
X111983781Y-115975630D01*
X111854841Y-115804886D01*
X111696722Y-115660742D01*
X111696716Y-115660738D01*
X111696713Y-115660736D01*
X111514813Y-115548108D01*
X111514807Y-115548106D01*
X111315297Y-115470815D01*
X111104980Y-115431500D01*
X110891020Y-115431500D01*
X110680703Y-115470815D01*
X110569473Y-115513906D01*
X110481192Y-115548106D01*
X110481186Y-115548108D01*
X110299286Y-115660736D01*
X110299283Y-115660738D01*
X110299279Y-115660740D01*
X110299278Y-115660742D01*
X110141159Y-115804886D01*
X110141158Y-115804887D01*
X110012219Y-115975629D01*
X109916849Y-116167158D01*
X109916846Y-116167164D01*
X109858296Y-116372949D01*
X109858295Y-116372952D01*
X109851471Y-116446604D01*
X109825685Y-116511542D01*
X109768884Y-116552229D01*
X109699103Y-116555749D01*
X109638497Y-116520984D01*
X109606307Y-116458971D01*
X109604529Y-116446604D01*
X109597704Y-116372952D01*
X109597703Y-116372949D01*
X109539153Y-116167164D01*
X109539150Y-116167158D01*
X109493696Y-116075873D01*
X109443781Y-115975630D01*
X109314841Y-115804886D01*
X109156722Y-115660742D01*
X109156716Y-115660738D01*
X109156713Y-115660736D01*
X108974813Y-115548108D01*
X108974807Y-115548106D01*
X108775297Y-115470815D01*
X108564980Y-115431500D01*
X108351020Y-115431500D01*
X108140703Y-115470815D01*
X108029473Y-115513906D01*
X107941192Y-115548106D01*
X107941186Y-115548108D01*
X107759286Y-115660736D01*
X107759283Y-115660738D01*
X107759279Y-115660740D01*
X107759278Y-115660742D01*
X107601159Y-115804886D01*
X107601158Y-115804887D01*
X107472219Y-115975629D01*
X107376849Y-116167158D01*
X107376846Y-116167164D01*
X107318296Y-116372949D01*
X107318295Y-116372952D01*
X107311471Y-116446604D01*
X107285685Y-116511542D01*
X107228884Y-116552229D01*
X107159103Y-116555749D01*
X107098497Y-116520984D01*
X107066307Y-116458971D01*
X107064529Y-116446604D01*
X107057704Y-116372952D01*
X107057703Y-116372949D01*
X106999153Y-116167164D01*
X106999150Y-116167158D01*
X106953696Y-116075873D01*
X106903781Y-115975630D01*
X106774841Y-115804886D01*
X106616722Y-115660742D01*
X106616716Y-115660738D01*
X106616713Y-115660736D01*
X106434813Y-115548108D01*
X106434807Y-115548106D01*
X106235297Y-115470815D01*
X106024980Y-115431500D01*
X105811020Y-115431500D01*
X105600703Y-115470815D01*
X105489473Y-115513906D01*
X105401192Y-115548106D01*
X105401186Y-115548108D01*
X105219286Y-115660736D01*
X105219283Y-115660738D01*
X105219279Y-115660740D01*
X105219278Y-115660742D01*
X105061159Y-115804886D01*
X105061158Y-115804887D01*
X104932219Y-115975629D01*
X104836849Y-116167158D01*
X104836846Y-116167164D01*
X104778296Y-116372949D01*
X104778295Y-116372952D01*
X104771471Y-116446604D01*
X104745685Y-116511542D01*
X104688884Y-116552229D01*
X104619103Y-116555749D01*
X104558497Y-116520984D01*
X104526307Y-116458971D01*
X104524529Y-116446604D01*
X104517704Y-116372952D01*
X104517703Y-116372949D01*
X104459153Y-116167164D01*
X104459150Y-116167158D01*
X104413696Y-116075873D01*
X104363781Y-115975630D01*
X104234841Y-115804886D01*
X104076722Y-115660742D01*
X104076716Y-115660738D01*
X104076713Y-115660736D01*
X103894813Y-115548108D01*
X103894807Y-115548106D01*
X103695297Y-115470815D01*
X103484980Y-115431500D01*
X103271020Y-115431500D01*
X103060703Y-115470815D01*
X102949473Y-115513906D01*
X102861192Y-115548106D01*
X102861186Y-115548108D01*
X102679286Y-115660736D01*
X102679283Y-115660738D01*
X102679279Y-115660740D01*
X102679278Y-115660742D01*
X102521159Y-115804886D01*
X102521158Y-115804887D01*
X102392219Y-115975629D01*
X102296849Y-116167158D01*
X102296846Y-116167164D01*
X102238296Y-116372949D01*
X102238295Y-116372952D01*
X102231471Y-116446604D01*
X102205685Y-116511542D01*
X102148884Y-116552229D01*
X102079103Y-116555749D01*
X102018497Y-116520984D01*
X101986307Y-116458971D01*
X101984529Y-116446604D01*
X101977704Y-116372952D01*
X101977703Y-116372949D01*
X101919153Y-116167164D01*
X101919150Y-116167158D01*
X101873696Y-116075873D01*
X101823781Y-115975630D01*
X101694841Y-115804886D01*
X101536722Y-115660742D01*
X101536716Y-115660738D01*
X101536713Y-115660736D01*
X101354813Y-115548108D01*
X101354807Y-115548106D01*
X101155297Y-115470815D01*
X100944980Y-115431500D01*
X100731020Y-115431500D01*
X100520703Y-115470815D01*
X100409473Y-115513906D01*
X100321192Y-115548106D01*
X100321186Y-115548108D01*
X100139286Y-115660736D01*
X100139283Y-115660738D01*
X100139279Y-115660740D01*
X100139278Y-115660742D01*
X99981159Y-115804886D01*
X99981158Y-115804887D01*
X99852219Y-115975629D01*
X99756849Y-116167158D01*
X99756846Y-116167164D01*
X99698296Y-116372949D01*
X99698295Y-116372952D01*
X99691471Y-116446604D01*
X99665685Y-116511542D01*
X99608884Y-116552229D01*
X99539103Y-116555749D01*
X99478497Y-116520984D01*
X99446307Y-116458971D01*
X99444529Y-116446604D01*
X99437704Y-116372952D01*
X99437703Y-116372949D01*
X99379153Y-116167164D01*
X99379150Y-116167158D01*
X99333696Y-116075873D01*
X99283781Y-115975630D01*
X99154841Y-115804886D01*
X98996722Y-115660742D01*
X98996716Y-115660738D01*
X98996713Y-115660736D01*
X98814813Y-115548108D01*
X98814807Y-115548106D01*
X98615297Y-115470815D01*
X98404980Y-115431500D01*
X98191020Y-115431500D01*
X97980703Y-115470815D01*
X97869473Y-115513906D01*
X97781192Y-115548106D01*
X97781186Y-115548108D01*
X97599286Y-115660736D01*
X97599283Y-115660738D01*
X97599279Y-115660740D01*
X97599278Y-115660742D01*
X97441159Y-115804886D01*
X97441158Y-115804887D01*
X97312219Y-115975629D01*
X97216849Y-116167158D01*
X97216846Y-116167164D01*
X97158296Y-116372949D01*
X97158295Y-116372952D01*
X97151471Y-116446604D01*
X97125685Y-116511542D01*
X97068884Y-116552229D01*
X96999103Y-116555749D01*
X96938497Y-116520984D01*
X96906307Y-116458971D01*
X96904529Y-116446604D01*
X96897704Y-116372952D01*
X96897703Y-116372949D01*
X96839153Y-116167164D01*
X96839150Y-116167158D01*
X96793696Y-116075873D01*
X96743781Y-115975630D01*
X96614841Y-115804886D01*
X96456722Y-115660742D01*
X96456716Y-115660738D01*
X96456713Y-115660736D01*
X96274813Y-115548108D01*
X96274807Y-115548106D01*
X96075297Y-115470815D01*
X95864980Y-115431500D01*
X95651020Y-115431500D01*
X95440703Y-115470815D01*
X95329473Y-115513906D01*
X95241192Y-115548106D01*
X95241186Y-115548108D01*
X95059286Y-115660736D01*
X95059283Y-115660738D01*
X95059279Y-115660740D01*
X95059278Y-115660742D01*
X94901159Y-115804886D01*
X94901158Y-115804887D01*
X94772219Y-115975629D01*
X94676849Y-116167158D01*
X94676846Y-116167164D01*
X94618296Y-116372949D01*
X94618295Y-116372952D01*
X94611471Y-116446604D01*
X94585685Y-116511542D01*
X94528884Y-116552229D01*
X94459103Y-116555749D01*
X94398497Y-116520984D01*
X94366307Y-116458971D01*
X94364529Y-116446604D01*
X94357704Y-116372952D01*
X94357703Y-116372949D01*
X94299153Y-116167164D01*
X94299150Y-116167158D01*
X94253696Y-116075873D01*
X94203781Y-115975630D01*
X94074841Y-115804886D01*
X93916722Y-115660742D01*
X93916716Y-115660738D01*
X93916713Y-115660736D01*
X93734813Y-115548108D01*
X93734807Y-115548106D01*
X93535297Y-115470815D01*
X93324980Y-115431500D01*
X93111020Y-115431500D01*
X92900703Y-115470815D01*
X92789473Y-115513906D01*
X92701192Y-115548106D01*
X92701186Y-115548108D01*
X92519286Y-115660736D01*
X92519283Y-115660738D01*
X92519279Y-115660740D01*
X92519278Y-115660742D01*
X92361159Y-115804886D01*
X92361158Y-115804887D01*
X92232219Y-115975629D01*
X92136849Y-116167158D01*
X92136846Y-116167164D01*
X92078296Y-116372949D01*
X92078295Y-116372952D01*
X92071471Y-116446604D01*
X92045685Y-116511542D01*
X91988884Y-116552229D01*
X91919103Y-116555749D01*
X91858497Y-116520984D01*
X91826307Y-116458971D01*
X91824529Y-116446604D01*
X91817704Y-116372952D01*
X91817703Y-116372949D01*
X91759153Y-116167164D01*
X91759150Y-116167158D01*
X91713696Y-116075873D01*
X91663781Y-115975630D01*
X91534841Y-115804886D01*
X91376722Y-115660742D01*
X91376716Y-115660738D01*
X91376713Y-115660736D01*
X91194813Y-115548108D01*
X91194807Y-115548106D01*
X90995297Y-115470815D01*
X90784980Y-115431500D01*
X90571020Y-115431500D01*
X90360703Y-115470815D01*
X90249473Y-115513906D01*
X90161192Y-115548106D01*
X90161186Y-115548108D01*
X89979286Y-115660736D01*
X89979283Y-115660738D01*
X89979279Y-115660740D01*
X89979278Y-115660742D01*
X89821159Y-115804886D01*
X89821158Y-115804887D01*
X89692219Y-115975629D01*
X89596849Y-116167158D01*
X89596846Y-116167164D01*
X89538296Y-116372949D01*
X89538295Y-116372952D01*
X89531471Y-116446604D01*
X89505685Y-116511542D01*
X89448884Y-116552229D01*
X89379103Y-116555749D01*
X89318497Y-116520984D01*
X89286307Y-116458971D01*
X89284529Y-116446604D01*
X89277704Y-116372952D01*
X89277703Y-116372949D01*
X89219153Y-116167164D01*
X89219150Y-116167158D01*
X89173696Y-116075873D01*
X89123781Y-115975630D01*
X88994841Y-115804886D01*
X88836722Y-115660742D01*
X88836716Y-115660738D01*
X88836713Y-115660736D01*
X88654813Y-115548108D01*
X88654807Y-115548106D01*
X88455297Y-115470815D01*
X88244980Y-115431500D01*
X88031020Y-115431500D01*
X87820703Y-115470815D01*
X87709473Y-115513906D01*
X87621192Y-115548106D01*
X87621186Y-115548108D01*
X87439286Y-115660736D01*
X87439283Y-115660738D01*
X87439279Y-115660740D01*
X87439278Y-115660742D01*
X87281159Y-115804886D01*
X87281158Y-115804887D01*
X87152219Y-115975629D01*
X87056849Y-116167158D01*
X87056846Y-116167164D01*
X86998296Y-116372949D01*
X86998295Y-116372952D01*
X86991471Y-116446604D01*
X86965685Y-116511542D01*
X86908884Y-116552229D01*
X86839103Y-116555749D01*
X86778497Y-116520984D01*
X86746307Y-116458971D01*
X86744529Y-116446604D01*
X86737704Y-116372952D01*
X86737703Y-116372949D01*
X86679153Y-116167164D01*
X86679150Y-116167158D01*
X86633696Y-116075873D01*
X86583781Y-115975630D01*
X86454841Y-115804886D01*
X86296722Y-115660742D01*
X86296716Y-115660738D01*
X86296713Y-115660736D01*
X86114813Y-115548108D01*
X86114807Y-115548106D01*
X85915297Y-115470815D01*
X85704980Y-115431500D01*
X85491020Y-115431500D01*
X85280703Y-115470815D01*
X85169473Y-115513906D01*
X85081192Y-115548106D01*
X85081186Y-115548108D01*
X84899286Y-115660736D01*
X84899283Y-115660738D01*
X84899279Y-115660740D01*
X84899278Y-115660742D01*
X84741159Y-115804886D01*
X84741158Y-115804887D01*
X84612219Y-115975629D01*
X84516849Y-116167158D01*
X84516846Y-116167164D01*
X84458296Y-116372949D01*
X84458295Y-116372952D01*
X84451471Y-116446604D01*
X84425685Y-116511542D01*
X84368884Y-116552229D01*
X84299103Y-116555749D01*
X84238497Y-116520984D01*
X84206307Y-116458971D01*
X84204529Y-116446604D01*
X84197704Y-116372952D01*
X84197703Y-116372949D01*
X84139153Y-116167164D01*
X84139150Y-116167158D01*
X84093696Y-116075873D01*
X84043781Y-115975630D01*
X83914841Y-115804886D01*
X83756722Y-115660742D01*
X83756716Y-115660738D01*
X83756713Y-115660736D01*
X83574813Y-115548108D01*
X83574807Y-115548106D01*
X83375297Y-115470815D01*
X83164980Y-115431500D01*
X82951020Y-115431500D01*
X82740703Y-115470815D01*
X82629473Y-115513906D01*
X82541192Y-115548106D01*
X82541186Y-115548108D01*
X82359286Y-115660736D01*
X82359283Y-115660738D01*
X82359279Y-115660740D01*
X82359278Y-115660742D01*
X82201159Y-115804886D01*
X82201158Y-115804887D01*
X82072219Y-115975629D01*
X81976849Y-116167158D01*
X81976846Y-116167164D01*
X81918296Y-116372949D01*
X81918295Y-116372952D01*
X81911471Y-116446604D01*
X81885685Y-116511542D01*
X81828884Y-116552229D01*
X81759103Y-116555749D01*
X81698497Y-116520984D01*
X81666307Y-116458971D01*
X81664529Y-116446604D01*
X81657704Y-116372952D01*
X81657703Y-116372949D01*
X81599153Y-116167164D01*
X81599150Y-116167158D01*
X81553696Y-116075873D01*
X81503781Y-115975630D01*
X81374841Y-115804886D01*
X81216722Y-115660742D01*
X81216716Y-115660738D01*
X81216713Y-115660736D01*
X81034813Y-115548108D01*
X81034807Y-115548106D01*
X80835297Y-115470815D01*
X80624980Y-115431500D01*
X80411020Y-115431500D01*
X80200703Y-115470815D01*
X80089473Y-115513906D01*
X80001192Y-115548106D01*
X80001186Y-115548108D01*
X79819286Y-115660736D01*
X79819283Y-115660738D01*
X79819279Y-115660740D01*
X79819278Y-115660742D01*
X79661159Y-115804886D01*
X79661158Y-115804887D01*
X79532219Y-115975629D01*
X79436849Y-116167158D01*
X79436846Y-116167164D01*
X79378296Y-116372949D01*
X79378295Y-116372952D01*
X79371471Y-116446604D01*
X79345685Y-116511542D01*
X79288884Y-116552229D01*
X79219103Y-116555749D01*
X79158497Y-116520984D01*
X79126307Y-116458971D01*
X79124529Y-116446604D01*
X79117704Y-116372952D01*
X79117703Y-116372949D01*
X79059153Y-116167164D01*
X79059150Y-116167158D01*
X79013696Y-116075873D01*
X78963781Y-115975630D01*
X78834841Y-115804886D01*
X78676722Y-115660742D01*
X78676716Y-115660738D01*
X78676713Y-115660736D01*
X78494813Y-115548108D01*
X78494807Y-115548106D01*
X78295297Y-115470815D01*
X78084980Y-115431500D01*
X77871020Y-115431500D01*
X77660703Y-115470815D01*
X77549473Y-115513906D01*
X77461192Y-115548106D01*
X77461186Y-115548108D01*
X77279286Y-115660736D01*
X77279283Y-115660738D01*
X77279279Y-115660740D01*
X77279278Y-115660742D01*
X77121159Y-115804886D01*
X77121158Y-115804887D01*
X76992219Y-115975629D01*
X76896849Y-116167158D01*
X76896846Y-116167164D01*
X76838296Y-116372949D01*
X76838295Y-116372952D01*
X76831471Y-116446604D01*
X76805685Y-116511542D01*
X76748884Y-116552229D01*
X76679103Y-116555749D01*
X76618497Y-116520984D01*
X76586307Y-116458971D01*
X76584529Y-116446604D01*
X76577704Y-116372952D01*
X76577703Y-116372949D01*
X76519153Y-116167164D01*
X76519150Y-116167158D01*
X76473696Y-116075873D01*
X76423781Y-115975630D01*
X76294841Y-115804886D01*
X76136722Y-115660742D01*
X76136716Y-115660738D01*
X76136713Y-115660736D01*
X75954813Y-115548108D01*
X75954807Y-115548106D01*
X75755297Y-115470815D01*
X75544980Y-115431500D01*
X75331020Y-115431500D01*
X75120703Y-115470815D01*
X75009473Y-115513906D01*
X74921192Y-115548106D01*
X74921186Y-115548108D01*
X74739286Y-115660736D01*
X74739283Y-115660738D01*
X74739279Y-115660740D01*
X74739278Y-115660742D01*
X74581159Y-115804886D01*
X74581158Y-115804887D01*
X74452219Y-115975629D01*
X74356849Y-116167158D01*
X74356846Y-116167164D01*
X74298296Y-116372949D01*
X74298295Y-116372952D01*
X74291471Y-116446604D01*
X74265685Y-116511542D01*
X74208884Y-116552229D01*
X74139103Y-116555749D01*
X74078497Y-116520984D01*
X74046307Y-116458971D01*
X74044529Y-116446604D01*
X74037704Y-116372952D01*
X74037703Y-116372949D01*
X73979153Y-116167164D01*
X73979150Y-116167158D01*
X73933696Y-116075873D01*
X73883781Y-115975630D01*
X73754841Y-115804886D01*
X73596722Y-115660742D01*
X73596716Y-115660738D01*
X73596713Y-115660736D01*
X73414813Y-115548108D01*
X73414807Y-115548106D01*
X73215297Y-115470815D01*
X73004980Y-115431500D01*
X72791020Y-115431500D01*
X72580703Y-115470815D01*
X72469473Y-115513906D01*
X72381192Y-115548106D01*
X72381186Y-115548108D01*
X72199286Y-115660736D01*
X72199283Y-115660738D01*
X72199279Y-115660740D01*
X72199278Y-115660742D01*
X72041159Y-115804886D01*
X72041158Y-115804887D01*
X71912219Y-115975629D01*
X71816849Y-116167158D01*
X71816846Y-116167164D01*
X71758296Y-116372949D01*
X71758295Y-116372952D01*
X71751471Y-116446604D01*
X71725685Y-116511542D01*
X71668884Y-116552229D01*
X71599103Y-116555749D01*
X71538497Y-116520984D01*
X71506307Y-116458971D01*
X71504529Y-116446604D01*
X71497704Y-116372952D01*
X71497703Y-116372949D01*
X71439153Y-116167164D01*
X71439150Y-116167158D01*
X71393696Y-116075873D01*
X71343781Y-115975630D01*
X71214841Y-115804886D01*
X71056722Y-115660742D01*
X71056716Y-115660738D01*
X71056713Y-115660736D01*
X70874813Y-115548108D01*
X70874807Y-115548106D01*
X70675297Y-115470815D01*
X70464980Y-115431500D01*
X70251020Y-115431500D01*
X70040703Y-115470815D01*
X69929473Y-115513906D01*
X69841192Y-115548106D01*
X69841186Y-115548108D01*
X69659286Y-115660736D01*
X69659283Y-115660738D01*
X69659279Y-115660740D01*
X69659278Y-115660742D01*
X69501159Y-115804886D01*
X69501158Y-115804887D01*
X69372219Y-115975629D01*
X69276849Y-116167158D01*
X69276846Y-116167164D01*
X69218296Y-116372949D01*
X69218295Y-116372952D01*
X69211471Y-116446604D01*
X69185685Y-116511542D01*
X69128884Y-116552229D01*
X69059103Y-116555749D01*
X68998497Y-116520984D01*
X68966307Y-116458971D01*
X68964529Y-116446604D01*
X68957704Y-116372952D01*
X68957703Y-116372949D01*
X68899153Y-116167164D01*
X68899150Y-116167158D01*
X68853696Y-116075873D01*
X68803781Y-115975630D01*
X68674841Y-115804886D01*
X68516722Y-115660742D01*
X68516716Y-115660738D01*
X68516713Y-115660736D01*
X68334813Y-115548108D01*
X68334807Y-115548106D01*
X68135297Y-115470815D01*
X67924980Y-115431500D01*
X67711020Y-115431500D01*
X67500703Y-115470815D01*
X67389473Y-115513906D01*
X67301192Y-115548106D01*
X67301186Y-115548108D01*
X67119286Y-115660736D01*
X67119283Y-115660738D01*
X67119279Y-115660740D01*
X67119278Y-115660742D01*
X66961159Y-115804886D01*
X66961158Y-115804887D01*
X66832219Y-115975629D01*
X66736849Y-116167158D01*
X66736846Y-116167164D01*
X66678296Y-116372949D01*
X66678295Y-116372952D01*
X66671471Y-116446604D01*
X66645685Y-116511542D01*
X66588884Y-116552229D01*
X66519103Y-116555749D01*
X66458497Y-116520984D01*
X66426307Y-116458971D01*
X66424529Y-116446604D01*
X66417704Y-116372952D01*
X66417703Y-116372949D01*
X66359153Y-116167164D01*
X66359150Y-116167158D01*
X66313696Y-116075873D01*
X66263781Y-115975630D01*
X66134841Y-115804886D01*
X65976722Y-115660742D01*
X65976716Y-115660738D01*
X65976713Y-115660736D01*
X65794813Y-115548108D01*
X65794807Y-115548106D01*
X65595297Y-115470815D01*
X65384980Y-115431500D01*
X65171020Y-115431500D01*
X64960703Y-115470815D01*
X64849473Y-115513906D01*
X64761192Y-115548106D01*
X64761186Y-115548108D01*
X64579286Y-115660736D01*
X64579283Y-115660738D01*
X64579279Y-115660740D01*
X64579278Y-115660742D01*
X64421159Y-115804886D01*
X64421158Y-115804887D01*
X64292219Y-115975629D01*
X64196849Y-116167158D01*
X64196846Y-116167164D01*
X64138296Y-116372949D01*
X64138295Y-116372952D01*
X64118554Y-116585999D01*
X64118554Y-116586000D01*
X39250985Y-116586000D01*
X39225770Y-116555635D01*
X39223670Y-116552960D01*
X39192952Y-116511542D01*
X39111360Y-116401528D01*
X39001237Y-116240767D01*
X38999207Y-116237602D01*
X38902285Y-116075898D01*
X38807650Y-115905995D01*
X38805770Y-115902338D01*
X38725075Y-115731723D01*
X38706427Y-115689491D01*
X38646719Y-115554264D01*
X38645092Y-115550186D01*
X38581356Y-115372058D01*
X38519962Y-115188883D01*
X38518607Y-115184252D01*
X38472417Y-114999848D01*
X38428478Y-114813029D01*
X38427505Y-114807944D01*
X38399244Y-114617427D01*
X38381766Y-114492133D01*
X38373117Y-114430136D01*
X38372601Y-114424646D01*
X38362483Y-114218679D01*
X38354566Y-114047424D01*
X38354500Y-114044561D01*
X38354500Y-111097187D01*
X39964590Y-111097187D01*
X39994230Y-111492711D01*
X39994231Y-111492724D01*
X40063108Y-111883339D01*
X40170530Y-112265137D01*
X40170534Y-112265151D01*
X40315435Y-112634353D01*
X40315440Y-112634365D01*
X40496386Y-112987314D01*
X40496391Y-112987323D01*
X40711586Y-113320509D01*
X40837691Y-113478640D01*
X40958895Y-113630625D01*
X41235823Y-113914544D01*
X41235833Y-113914554D01*
X41539676Y-114169508D01*
X41867394Y-114392942D01*
X42215730Y-114582636D01*
X42581223Y-114736704D01*
X42581232Y-114736706D01*
X42581238Y-114736709D01*
X42960235Y-114853614D01*
X42960248Y-114853617D01*
X43348999Y-114932205D01*
X43349014Y-114932208D01*
X43687299Y-114966058D01*
X43743680Y-114971700D01*
X43743681Y-114971700D01*
X44041103Y-114971700D01*
X44239130Y-114961816D01*
X44338145Y-114956875D01*
X44730353Y-114897759D01*
X45114726Y-114799886D01*
X45487445Y-114664228D01*
X45844803Y-114492133D01*
X46183251Y-114285312D01*
X46499424Y-114045820D01*
X46790181Y-113776037D01*
X47052631Y-113478645D01*
X47284166Y-113156600D01*
X47482485Y-112813101D01*
X47645617Y-112451563D01*
X47771941Y-112075578D01*
X47860201Y-111688885D01*
X47909521Y-111295325D01*
X47919409Y-110898810D01*
X47889769Y-110503280D01*
X47820893Y-110112668D01*
X47713467Y-109730854D01*
X47568559Y-109361634D01*
X47387609Y-109008677D01*
X47172414Y-108675491D01*
X46925114Y-108365386D01*
X46925111Y-108365383D01*
X46925104Y-108365374D01*
X46648176Y-108081455D01*
X46648173Y-108081452D01*
X46648172Y-108081451D01*
X46648167Y-108081446D01*
X46344324Y-107826492D01*
X46271613Y-107776918D01*
X46016605Y-107603057D01*
X45900494Y-107539826D01*
X45668270Y-107413364D01*
X45668262Y-107413360D01*
X45668259Y-107413359D01*
X45302777Y-107259296D01*
X45302761Y-107259290D01*
X44923764Y-107142385D01*
X44923751Y-107142382D01*
X44535000Y-107063794D01*
X44534979Y-107063791D01*
X44140320Y-107024300D01*
X44140319Y-107024300D01*
X43842899Y-107024300D01*
X43842897Y-107024300D01*
X43545855Y-107039124D01*
X43153647Y-107098241D01*
X42769272Y-107196114D01*
X42396549Y-107331774D01*
X42039191Y-107503869D01*
X41700753Y-107710684D01*
X41700742Y-107710692D01*
X41384575Y-107950180D01*
X41384572Y-107950182D01*
X41093813Y-108219968D01*
X40831365Y-108517359D01*
X40599839Y-108839393D01*
X40599826Y-108839413D01*
X40401516Y-109182896D01*
X40238382Y-109544437D01*
X40112059Y-109920419D01*
X40023799Y-110307111D01*
X39974478Y-110700681D01*
X39964590Y-111097173D01*
X39964590Y-111097187D01*
X38354500Y-111097187D01*
X38354500Y-99518000D01*
X44780357Y-99518000D01*
X44800884Y-99739535D01*
X44800885Y-99739537D01*
X44861769Y-99953523D01*
X44861775Y-99953538D01*
X44960938Y-100152683D01*
X44960943Y-100152691D01*
X45095020Y-100330238D01*
X45259437Y-100480123D01*
X45259439Y-100480125D01*
X45448595Y-100597245D01*
X45448596Y-100597245D01*
X45448599Y-100597247D01*
X45656060Y-100677618D01*
X45874757Y-100718500D01*
X45874759Y-100718500D01*
X46097241Y-100718500D01*
X46097243Y-100718500D01*
X46315940Y-100677618D01*
X46523401Y-100597247D01*
X46712562Y-100480124D01*
X46876981Y-100330236D01*
X46953964Y-100228293D01*
X47010071Y-100186658D01*
X47079783Y-100181966D01*
X47140965Y-100215708D01*
X47157614Y-100236578D01*
X47249055Y-100380667D01*
X47449606Y-100623090D01*
X47449608Y-100623092D01*
X47678968Y-100838476D01*
X47678978Y-100838484D01*
X47933504Y-101023408D01*
X47933509Y-101023410D01*
X47933516Y-101023416D01*
X48209234Y-101174994D01*
X48209239Y-101174996D01*
X48209241Y-101174997D01*
X48209242Y-101174998D01*
X48501771Y-101290818D01*
X48501774Y-101290819D01*
X48806523Y-101369065D01*
X48806527Y-101369066D01*
X48863395Y-101376250D01*
X49118670Y-101408499D01*
X49118679Y-101408499D01*
X49118682Y-101408500D01*
X49118684Y-101408500D01*
X49433316Y-101408500D01*
X49433318Y-101408500D01*
X49433321Y-101408499D01*
X49433329Y-101408499D01*
X49660741Y-101379770D01*
X49745473Y-101369066D01*
X50050225Y-101290819D01*
X50050228Y-101290818D01*
X50342757Y-101174998D01*
X50342758Y-101174997D01*
X50342756Y-101174997D01*
X50342766Y-101174994D01*
X50618484Y-101023416D01*
X50873030Y-100838478D01*
X51102390Y-100623094D01*
X51302947Y-100380663D01*
X51471537Y-100115007D01*
X51605503Y-99830315D01*
X51702731Y-99531079D01*
X51761688Y-99222015D01*
X51770467Y-99082476D01*
X51781444Y-98908005D01*
X51781444Y-98907994D01*
X51761689Y-98593995D01*
X51761688Y-98593988D01*
X51761688Y-98593985D01*
X51702731Y-98284921D01*
X51605503Y-97985685D01*
X51597943Y-97969620D01*
X51549695Y-97867087D01*
X51471537Y-97700993D01*
X51400112Y-97588445D01*
X51302948Y-97435338D01*
X51302945Y-97435334D01*
X51102393Y-97192909D01*
X51102391Y-97192907D01*
X50938322Y-97038835D01*
X50873030Y-96977522D01*
X50873027Y-96977520D01*
X50873021Y-96977515D01*
X50618495Y-96792591D01*
X50618488Y-96792586D01*
X50618484Y-96792584D01*
X50342766Y-96641006D01*
X50342763Y-96641004D01*
X50342758Y-96641002D01*
X50342757Y-96641001D01*
X50050228Y-96525181D01*
X50050225Y-96525180D01*
X49745476Y-96446934D01*
X49745463Y-96446932D01*
X49433329Y-96407500D01*
X49433318Y-96407500D01*
X49118682Y-96407500D01*
X49118670Y-96407500D01*
X48806536Y-96446932D01*
X48806523Y-96446934D01*
X48501774Y-96525180D01*
X48501771Y-96525181D01*
X48209242Y-96641001D01*
X48209241Y-96641002D01*
X47933516Y-96792584D01*
X47933504Y-96792591D01*
X47678978Y-96977515D01*
X47678968Y-96977523D01*
X47449608Y-97192907D01*
X47449606Y-97192909D01*
X47249054Y-97435334D01*
X47249051Y-97435338D01*
X47080464Y-97700990D01*
X47080461Y-97700996D01*
X46946499Y-97985678D01*
X46946497Y-97985683D01*
X46923245Y-98057247D01*
X46849269Y-98284921D01*
X46822386Y-98425849D01*
X46790487Y-98488012D01*
X46730045Y-98523062D01*
X46660248Y-98519870D01*
X46635305Y-98508040D01*
X46523404Y-98438754D01*
X46523398Y-98438752D01*
X46315940Y-98358382D01*
X46097243Y-98317500D01*
X45874757Y-98317500D01*
X45656060Y-98358382D01*
X45540710Y-98403069D01*
X45448601Y-98438752D01*
X45448595Y-98438754D01*
X45259439Y-98555874D01*
X45259437Y-98555876D01*
X45095020Y-98705761D01*
X44960943Y-98883308D01*
X44960938Y-98883316D01*
X44861775Y-99082461D01*
X44861769Y-99082476D01*
X44800885Y-99296462D01*
X44800884Y-99296464D01*
X44780357Y-99517999D01*
X44780357Y-99518000D01*
X38354500Y-99518000D01*
X38354500Y-96978000D01*
X42990357Y-96978000D01*
X43010884Y-97199535D01*
X43010885Y-97199537D01*
X43071769Y-97413523D01*
X43071775Y-97413538D01*
X43170938Y-97612683D01*
X43170943Y-97612691D01*
X43305020Y-97790238D01*
X43469437Y-97940123D01*
X43469439Y-97940125D01*
X43658595Y-98057245D01*
X43658596Y-98057245D01*
X43658599Y-98057247D01*
X43866060Y-98137618D01*
X44084757Y-98178500D01*
X44084759Y-98178500D01*
X44307241Y-98178500D01*
X44307243Y-98178500D01*
X44525940Y-98137618D01*
X44733401Y-98057247D01*
X44922562Y-97940124D01*
X45086981Y-97790236D01*
X45221058Y-97612689D01*
X45320229Y-97413528D01*
X45381115Y-97199536D01*
X45401643Y-96978000D01*
X45381115Y-96756464D01*
X45320229Y-96542472D01*
X45320224Y-96542461D01*
X45228970Y-96359200D01*
X51747318Y-96359200D01*
X51752500Y-96398560D01*
X51767955Y-96515960D01*
X51767956Y-96515962D01*
X51828464Y-96662041D01*
X51924718Y-96787482D01*
X51952995Y-96809180D01*
X51959085Y-96814520D01*
X57873677Y-102729112D01*
X63784469Y-108639904D01*
X63789820Y-108646005D01*
X63811518Y-108674282D01*
X63936959Y-108770536D01*
X64083038Y-108831044D01*
X64146607Y-108839413D01*
X64239799Y-108851682D01*
X64239800Y-108851682D01*
X64275129Y-108847030D01*
X64283228Y-108846500D01*
X74579453Y-108846500D01*
X74646492Y-108866185D01*
X74667134Y-108882819D01*
X74878219Y-109093904D01*
X74883570Y-109100005D01*
X74905268Y-109128282D01*
X75030709Y-109224536D01*
X75176788Y-109285044D01*
X75255168Y-109295362D01*
X75333549Y-109305682D01*
X75333550Y-109305682D01*
X75368879Y-109301030D01*
X75376978Y-109300500D01*
X76039022Y-109300500D01*
X76047120Y-109301030D01*
X76082450Y-109305682D01*
X76082451Y-109305682D01*
X76134704Y-109298802D01*
X76239212Y-109285044D01*
X76385291Y-109224536D01*
X76385291Y-109224535D01*
X76385291Y-109224534D01*
X76392755Y-109221443D01*
X76401532Y-109212072D01*
X76510732Y-109128282D01*
X76532434Y-109099998D01*
X76537768Y-109093915D01*
X76748867Y-108882816D01*
X76810189Y-108849334D01*
X76836547Y-108846500D01*
X77214572Y-108846500D01*
X77222670Y-108847030D01*
X77258000Y-108851682D01*
X77314287Y-108844271D01*
X77375265Y-108851583D01*
X77404444Y-108862888D01*
X77605653Y-108900500D01*
X77605656Y-108900500D01*
X77810344Y-108900500D01*
X77810347Y-108900500D01*
X78011556Y-108862888D01*
X78202427Y-108788944D01*
X78376462Y-108681186D01*
X78527732Y-108543285D01*
X78651088Y-108379935D01*
X78742328Y-108196701D01*
X78798345Y-107999821D01*
X78817232Y-107796000D01*
X78798345Y-107592179D01*
X78742328Y-107395299D01*
X78651088Y-107212065D01*
X78565132Y-107098241D01*
X78527730Y-107048712D01*
X78376462Y-106910814D01*
X78376460Y-106910812D01*
X78202430Y-106803057D01*
X78202424Y-106803054D01*
X78046380Y-106742603D01*
X78011556Y-106729112D01*
X77810347Y-106691500D01*
X77605653Y-106691500D01*
X77404444Y-106729112D01*
X77404441Y-106729112D01*
X77404441Y-106729113D01*
X77213575Y-106803054D01*
X77213569Y-106803057D01*
X77039539Y-106910812D01*
X77039537Y-106910814D01*
X76888269Y-107048712D01*
X76806954Y-107156392D01*
X76750845Y-107198028D01*
X76681133Y-107202719D01*
X76619951Y-107168977D01*
X76609046Y-107156392D01*
X76527730Y-107048712D01*
X76376462Y-106910814D01*
X76376460Y-106910812D01*
X76361302Y-106901427D01*
X76314666Y-106849400D01*
X76303562Y-106780418D01*
X76331515Y-106716384D01*
X76361302Y-106690573D01*
X76376460Y-106681187D01*
X76376459Y-106681187D01*
X76376462Y-106681186D01*
X76527732Y-106543285D01*
X76651088Y-106379935D01*
X76742328Y-106196701D01*
X76798345Y-105999821D01*
X76817232Y-105796000D01*
X76798345Y-105592179D01*
X76742328Y-105395299D01*
X76651088Y-105212065D01*
X76527732Y-105048715D01*
X76527730Y-105048712D01*
X76376462Y-104910814D01*
X76376460Y-104910812D01*
X76361302Y-104901427D01*
X76314666Y-104849400D01*
X76303562Y-104780418D01*
X76331515Y-104716384D01*
X76361302Y-104690573D01*
X76376460Y-104681187D01*
X76376459Y-104681187D01*
X76376462Y-104681186D01*
X76527732Y-104543285D01*
X76609045Y-104435608D01*
X76665154Y-104393971D01*
X76734866Y-104389279D01*
X76796048Y-104423022D01*
X76806954Y-104435608D01*
X76888266Y-104543283D01*
X76888268Y-104543286D01*
X77039537Y-104681185D01*
X77039539Y-104681187D01*
X77213569Y-104788942D01*
X77213575Y-104788945D01*
X77250000Y-104803056D01*
X77404444Y-104862888D01*
X77605653Y-104900500D01*
X77605656Y-104900500D01*
X77810344Y-104900500D01*
X77810347Y-104900500D01*
X77917617Y-104880448D01*
X123794300Y-104880448D01*
X123809604Y-105094433D01*
X123870428Y-105374037D01*
X123870430Y-105374043D01*
X123870431Y-105374046D01*
X123878358Y-105395299D01*
X123970435Y-105642166D01*
X124107570Y-105893309D01*
X124107575Y-105893317D01*
X124279054Y-106122387D01*
X124279070Y-106122405D01*
X124481394Y-106324729D01*
X124481412Y-106324745D01*
X124710482Y-106496224D01*
X124710490Y-106496229D01*
X124961633Y-106633364D01*
X124961632Y-106633364D01*
X124961636Y-106633365D01*
X124961639Y-106633367D01*
X125229754Y-106733369D01*
X125229760Y-106733370D01*
X125229762Y-106733371D01*
X125509366Y-106794195D01*
X125509368Y-106794195D01*
X125509372Y-106794196D01*
X125752505Y-106811585D01*
X125794799Y-106814610D01*
X125794800Y-106814610D01*
X125794801Y-106814610D01*
X125837095Y-106811585D01*
X126080228Y-106794196D01*
X126104372Y-106788944D01*
X126359837Y-106733371D01*
X126359837Y-106733370D01*
X126359846Y-106733369D01*
X126627961Y-106633367D01*
X126879115Y-106496226D01*
X127108195Y-106324739D01*
X127310539Y-106122395D01*
X127482026Y-105893315D01*
X127619167Y-105642161D01*
X127719169Y-105374046D01*
X127779996Y-105094428D01*
X127795300Y-104880448D01*
X127795300Y-102637552D01*
X127779996Y-102423572D01*
X127771364Y-102383893D01*
X127719171Y-102143962D01*
X127719170Y-102143960D01*
X127719169Y-102143954D01*
X127619167Y-101875839D01*
X127558557Y-101764841D01*
X127482029Y-101624690D01*
X127482024Y-101624682D01*
X127310545Y-101395612D01*
X127310529Y-101395594D01*
X127108205Y-101193270D01*
X127108187Y-101193254D01*
X126879117Y-101021775D01*
X126879109Y-101021770D01*
X126627966Y-100884635D01*
X126627967Y-100884635D01*
X126504210Y-100838476D01*
X126359846Y-100784631D01*
X126359843Y-100784630D01*
X126359837Y-100784628D01*
X126080233Y-100723804D01*
X125794801Y-100703390D01*
X125794799Y-100703390D01*
X125509366Y-100723804D01*
X125229762Y-100784628D01*
X124961633Y-100884635D01*
X124710490Y-101021770D01*
X124710482Y-101021775D01*
X124481412Y-101193254D01*
X124481394Y-101193270D01*
X124279070Y-101395594D01*
X124279054Y-101395612D01*
X124107575Y-101624682D01*
X124107570Y-101624690D01*
X123970435Y-101875833D01*
X123870428Y-102143962D01*
X123809604Y-102423566D01*
X123794300Y-102637552D01*
X123794300Y-104880448D01*
X77917617Y-104880448D01*
X78011556Y-104862888D01*
X78202427Y-104788944D01*
X78376462Y-104681186D01*
X78527732Y-104543285D01*
X78651088Y-104379935D01*
X78742328Y-104196701D01*
X78798345Y-103999821D01*
X78817232Y-103796000D01*
X78798345Y-103592179D01*
X78742328Y-103395299D01*
X78651088Y-103212065D01*
X78527732Y-103048715D01*
X78527730Y-103048712D01*
X78376462Y-102910814D01*
X78376460Y-102910812D01*
X78202430Y-102803057D01*
X78202424Y-102803054D01*
X78039989Y-102740127D01*
X77984587Y-102697554D01*
X77960997Y-102631787D01*
X77976708Y-102563707D01*
X78026732Y-102514928D01*
X78079347Y-102501851D01*
X78079271Y-102501029D01*
X78084666Y-102500529D01*
X78084783Y-102500500D01*
X78084978Y-102500500D01*
X78084980Y-102500500D01*
X78295297Y-102461185D01*
X78494810Y-102383893D01*
X78676722Y-102271258D01*
X78834841Y-102127114D01*
X78963781Y-101956370D01*
X79059151Y-101764840D01*
X79059151Y-101764837D01*
X79059153Y-101764835D01*
X79117703Y-101559050D01*
X79117704Y-101559047D01*
X79124529Y-101485395D01*
X79150315Y-101420457D01*
X79207116Y-101379770D01*
X79276897Y-101376250D01*
X79337503Y-101411015D01*
X79369693Y-101473028D01*
X79371471Y-101485395D01*
X79378295Y-101559047D01*
X79378296Y-101559050D01*
X79436846Y-101764835D01*
X79436849Y-101764841D01*
X79532218Y-101956369D01*
X79532219Y-101956370D01*
X79661159Y-102127114D01*
X79819278Y-102271258D01*
X79819283Y-102271261D01*
X79819286Y-102271263D01*
X80001186Y-102383891D01*
X80001187Y-102383891D01*
X80001190Y-102383893D01*
X80200703Y-102461185D01*
X80411020Y-102500500D01*
X80411022Y-102500500D01*
X80624978Y-102500500D01*
X80624980Y-102500500D01*
X80835297Y-102461185D01*
X81034810Y-102383893D01*
X81216722Y-102271258D01*
X81374841Y-102127114D01*
X81503781Y-101956370D01*
X81599151Y-101764840D01*
X81599151Y-101764837D01*
X81599153Y-101764835D01*
X81657703Y-101559050D01*
X81657704Y-101559047D01*
X81664529Y-101485395D01*
X81690315Y-101420457D01*
X81747116Y-101379770D01*
X81816897Y-101376250D01*
X81877503Y-101411015D01*
X81909693Y-101473028D01*
X81911471Y-101485395D01*
X81918295Y-101559047D01*
X81918296Y-101559050D01*
X81976846Y-101764835D01*
X81976849Y-101764841D01*
X82072218Y-101956370D01*
X82072219Y-101956370D01*
X82201159Y-102127114D01*
X82359278Y-102271258D01*
X82359283Y-102271261D01*
X82359286Y-102271263D01*
X82541186Y-102383891D01*
X82541187Y-102383891D01*
X82541190Y-102383893D01*
X82740703Y-102461185D01*
X82951020Y-102500500D01*
X82951022Y-102500500D01*
X83164978Y-102500500D01*
X83164980Y-102500500D01*
X83375297Y-102461185D01*
X83574810Y-102383893D01*
X83756722Y-102271258D01*
X83914841Y-102127114D01*
X84043781Y-101956370D01*
X84139151Y-101764840D01*
X84139151Y-101764837D01*
X84139153Y-101764835D01*
X84197703Y-101559050D01*
X84197704Y-101559047D01*
X84204529Y-101485395D01*
X84230315Y-101420457D01*
X84287116Y-101379770D01*
X84356897Y-101376250D01*
X84417503Y-101411015D01*
X84449693Y-101473028D01*
X84451471Y-101485395D01*
X84458295Y-101559047D01*
X84458296Y-101559050D01*
X84516846Y-101764835D01*
X84516849Y-101764841D01*
X84612219Y-101956370D01*
X84741159Y-102127114D01*
X84899278Y-102271258D01*
X84899283Y-102271261D01*
X84899286Y-102271263D01*
X85081186Y-102383891D01*
X85081187Y-102383891D01*
X85081190Y-102383893D01*
X85280703Y-102461185D01*
X85491020Y-102500500D01*
X85491022Y-102500500D01*
X85704978Y-102500500D01*
X85704980Y-102500500D01*
X85915297Y-102461185D01*
X86114810Y-102383893D01*
X86296722Y-102271258D01*
X86454841Y-102127114D01*
X86583781Y-101956370D01*
X86679151Y-101764840D01*
X86679151Y-101764837D01*
X86679153Y-101764835D01*
X86737703Y-101559050D01*
X86737704Y-101559047D01*
X86744529Y-101485395D01*
X86770315Y-101420457D01*
X86827116Y-101379770D01*
X86896897Y-101376250D01*
X86957503Y-101411015D01*
X86989693Y-101473028D01*
X86991471Y-101485395D01*
X86998295Y-101559047D01*
X86998296Y-101559050D01*
X87056846Y-101764835D01*
X87056849Y-101764841D01*
X87152219Y-101956369D01*
X87152219Y-101956370D01*
X87281159Y-102127114D01*
X87439278Y-102271258D01*
X87439283Y-102271261D01*
X87439286Y-102271263D01*
X87621186Y-102383891D01*
X87621187Y-102383891D01*
X87621190Y-102383893D01*
X87820703Y-102461185D01*
X88031020Y-102500500D01*
X88031022Y-102500500D01*
X88244978Y-102500500D01*
X88244980Y-102500500D01*
X88455297Y-102461185D01*
X88654810Y-102383893D01*
X88836722Y-102271258D01*
X88994841Y-102127114D01*
X89123781Y-101956370D01*
X89219151Y-101764840D01*
X89219151Y-101764837D01*
X89219153Y-101764835D01*
X89277703Y-101559050D01*
X89277704Y-101559047D01*
X89284529Y-101485395D01*
X89310315Y-101420457D01*
X89367116Y-101379770D01*
X89436897Y-101376250D01*
X89497503Y-101411015D01*
X89529693Y-101473028D01*
X89531471Y-101485395D01*
X89538295Y-101559047D01*
X89538296Y-101559050D01*
X89596846Y-101764835D01*
X89596849Y-101764841D01*
X89692219Y-101956370D01*
X89821159Y-102127114D01*
X89979278Y-102271258D01*
X89979283Y-102271261D01*
X89979286Y-102271263D01*
X90161186Y-102383891D01*
X90161187Y-102383891D01*
X90161190Y-102383893D01*
X90360703Y-102461185D01*
X90571020Y-102500500D01*
X90571022Y-102500500D01*
X90784978Y-102500500D01*
X90784980Y-102500500D01*
X90995297Y-102461185D01*
X91194810Y-102383893D01*
X91376722Y-102271258D01*
X91534841Y-102127114D01*
X91663781Y-101956370D01*
X91759151Y-101764840D01*
X91759151Y-101764837D01*
X91759153Y-101764835D01*
X91817703Y-101559050D01*
X91817704Y-101559047D01*
X91824529Y-101485395D01*
X91850315Y-101420457D01*
X91907116Y-101379770D01*
X91976897Y-101376250D01*
X92037503Y-101411015D01*
X92069693Y-101473028D01*
X92071471Y-101485395D01*
X92078295Y-101559047D01*
X92078296Y-101559050D01*
X92136846Y-101764835D01*
X92136849Y-101764841D01*
X92232219Y-101956370D01*
X92361159Y-102127114D01*
X92519278Y-102271258D01*
X92519283Y-102271261D01*
X92519286Y-102271263D01*
X92701186Y-102383891D01*
X92701187Y-102383891D01*
X92701190Y-102383893D01*
X92900703Y-102461185D01*
X93111020Y-102500500D01*
X93111022Y-102500500D01*
X93324978Y-102500500D01*
X93324980Y-102500500D01*
X93535297Y-102461185D01*
X93734810Y-102383893D01*
X93916722Y-102271258D01*
X94074841Y-102127114D01*
X94203781Y-101956370D01*
X94299151Y-101764840D01*
X94299151Y-101764837D01*
X94299153Y-101764835D01*
X94357703Y-101559050D01*
X94357704Y-101559047D01*
X94364529Y-101485395D01*
X94390315Y-101420457D01*
X94447116Y-101379770D01*
X94516897Y-101376250D01*
X94577503Y-101411015D01*
X94609693Y-101473028D01*
X94611471Y-101485395D01*
X94618295Y-101559047D01*
X94618296Y-101559050D01*
X94676846Y-101764835D01*
X94676849Y-101764841D01*
X94772219Y-101956370D01*
X94901159Y-102127114D01*
X95059278Y-102271258D01*
X95059283Y-102271261D01*
X95059286Y-102271263D01*
X95241186Y-102383891D01*
X95241187Y-102383891D01*
X95241190Y-102383893D01*
X95440703Y-102461185D01*
X95651020Y-102500500D01*
X95651022Y-102500500D01*
X95864978Y-102500500D01*
X95864980Y-102500500D01*
X96075297Y-102461185D01*
X96274810Y-102383893D01*
X96456722Y-102271258D01*
X96614841Y-102127114D01*
X96743781Y-101956370D01*
X96839151Y-101764840D01*
X96839151Y-101764837D01*
X96839153Y-101764835D01*
X96897703Y-101559050D01*
X96897704Y-101559047D01*
X96915309Y-101369067D01*
X96917446Y-101346000D01*
X99678554Y-101346000D01*
X99698295Y-101559047D01*
X99698296Y-101559050D01*
X99756846Y-101764835D01*
X99756849Y-101764841D01*
X99852219Y-101956370D01*
X99981159Y-102127114D01*
X100139278Y-102271258D01*
X100139283Y-102271261D01*
X100139286Y-102271263D01*
X100321186Y-102383891D01*
X100321187Y-102383891D01*
X100321190Y-102383893D01*
X100520703Y-102461185D01*
X100731020Y-102500500D01*
X100731022Y-102500500D01*
X100944978Y-102500500D01*
X100944980Y-102500500D01*
X101155297Y-102461185D01*
X101354810Y-102383893D01*
X101536722Y-102271258D01*
X101694841Y-102127114D01*
X101823781Y-101956370D01*
X101919151Y-101764840D01*
X101919151Y-101764837D01*
X101919153Y-101764835D01*
X101977703Y-101559050D01*
X101977704Y-101559047D01*
X101984529Y-101485395D01*
X102010315Y-101420457D01*
X102067116Y-101379770D01*
X102136897Y-101376250D01*
X102197503Y-101411015D01*
X102229693Y-101473028D01*
X102231471Y-101485395D01*
X102238295Y-101559047D01*
X102238296Y-101559050D01*
X102296846Y-101764835D01*
X102296849Y-101764841D01*
X102392219Y-101956370D01*
X102521159Y-102127114D01*
X102679278Y-102271258D01*
X102679283Y-102271261D01*
X102679286Y-102271263D01*
X102861186Y-102383891D01*
X102861187Y-102383891D01*
X102861190Y-102383893D01*
X103060703Y-102461185D01*
X103271020Y-102500500D01*
X103271022Y-102500500D01*
X103484978Y-102500500D01*
X103484980Y-102500500D01*
X103695297Y-102461185D01*
X103894810Y-102383893D01*
X104076722Y-102271258D01*
X104234841Y-102127114D01*
X104363781Y-101956370D01*
X104459151Y-101764840D01*
X104459151Y-101764837D01*
X104459153Y-101764835D01*
X104517703Y-101559050D01*
X104517704Y-101559047D01*
X104524529Y-101485395D01*
X104550315Y-101420457D01*
X104607116Y-101379770D01*
X104676897Y-101376250D01*
X104737503Y-101411015D01*
X104769693Y-101473028D01*
X104771471Y-101485395D01*
X104778295Y-101559047D01*
X104778296Y-101559050D01*
X104836846Y-101764835D01*
X104836849Y-101764841D01*
X104932219Y-101956370D01*
X105061159Y-102127114D01*
X105219278Y-102271258D01*
X105219283Y-102271261D01*
X105219286Y-102271263D01*
X105401186Y-102383891D01*
X105401187Y-102383891D01*
X105401190Y-102383893D01*
X105600703Y-102461185D01*
X105811020Y-102500500D01*
X105811022Y-102500500D01*
X106024978Y-102500500D01*
X106024980Y-102500500D01*
X106235297Y-102461185D01*
X106434810Y-102383893D01*
X106616722Y-102271258D01*
X106774841Y-102127114D01*
X106903781Y-101956370D01*
X106999151Y-101764840D01*
X106999151Y-101764837D01*
X106999153Y-101764835D01*
X107057703Y-101559050D01*
X107057704Y-101559047D01*
X107064529Y-101485395D01*
X107090315Y-101420457D01*
X107147116Y-101379770D01*
X107216897Y-101376250D01*
X107277503Y-101411015D01*
X107309693Y-101473028D01*
X107311471Y-101485395D01*
X107318295Y-101559047D01*
X107318296Y-101559050D01*
X107376846Y-101764835D01*
X107376849Y-101764841D01*
X107472219Y-101956369D01*
X107472219Y-101956370D01*
X107601159Y-102127114D01*
X107759278Y-102271258D01*
X107759283Y-102271261D01*
X107759286Y-102271263D01*
X107941186Y-102383891D01*
X107941187Y-102383891D01*
X107941190Y-102383893D01*
X108140703Y-102461185D01*
X108351020Y-102500500D01*
X108351022Y-102500500D01*
X108564978Y-102500500D01*
X108564980Y-102500500D01*
X108775297Y-102461185D01*
X108974810Y-102383893D01*
X109156722Y-102271258D01*
X109314841Y-102127114D01*
X109443781Y-101956370D01*
X109539151Y-101764840D01*
X109539151Y-101764837D01*
X109539153Y-101764835D01*
X109597703Y-101559050D01*
X109597704Y-101559047D01*
X109604529Y-101485395D01*
X109630315Y-101420457D01*
X109687116Y-101379770D01*
X109756897Y-101376250D01*
X109817503Y-101411015D01*
X109849693Y-101473028D01*
X109851471Y-101485395D01*
X109858295Y-101559047D01*
X109858296Y-101559050D01*
X109916846Y-101764835D01*
X109916849Y-101764841D01*
X110012219Y-101956370D01*
X110141159Y-102127114D01*
X110299278Y-102271258D01*
X110299283Y-102271261D01*
X110299286Y-102271263D01*
X110481186Y-102383891D01*
X110481187Y-102383891D01*
X110481190Y-102383893D01*
X110680703Y-102461185D01*
X110891020Y-102500500D01*
X110891022Y-102500500D01*
X111104978Y-102500500D01*
X111104980Y-102500500D01*
X111315297Y-102461185D01*
X111514810Y-102383893D01*
X111696722Y-102271258D01*
X111854841Y-102127114D01*
X111983781Y-101956370D01*
X112079151Y-101764840D01*
X112079151Y-101764837D01*
X112079153Y-101764835D01*
X112137703Y-101559050D01*
X112137704Y-101559047D01*
X112144529Y-101485395D01*
X112170315Y-101420457D01*
X112227116Y-101379770D01*
X112296897Y-101376250D01*
X112357503Y-101411015D01*
X112389693Y-101473028D01*
X112391471Y-101485395D01*
X112398295Y-101559047D01*
X112398296Y-101559050D01*
X112456846Y-101764835D01*
X112456849Y-101764841D01*
X112552219Y-101956370D01*
X112681159Y-102127114D01*
X112839278Y-102271258D01*
X112839283Y-102271261D01*
X112839286Y-102271263D01*
X113021186Y-102383891D01*
X113021187Y-102383891D01*
X113021190Y-102383893D01*
X113220703Y-102461185D01*
X113431020Y-102500500D01*
X113431022Y-102500500D01*
X113644978Y-102500500D01*
X113644980Y-102500500D01*
X113855297Y-102461185D01*
X114054810Y-102383893D01*
X114236722Y-102271258D01*
X114394841Y-102127114D01*
X114523781Y-101956370D01*
X114619151Y-101764840D01*
X114619151Y-101764837D01*
X114619153Y-101764835D01*
X114677703Y-101559050D01*
X114677704Y-101559047D01*
X114684529Y-101485395D01*
X114710315Y-101420457D01*
X114767116Y-101379770D01*
X114836897Y-101376250D01*
X114897503Y-101411015D01*
X114929693Y-101473028D01*
X114931471Y-101485395D01*
X114938295Y-101559047D01*
X114938296Y-101559050D01*
X114996846Y-101764835D01*
X114996849Y-101764841D01*
X115092219Y-101956370D01*
X115221159Y-102127114D01*
X115379278Y-102271258D01*
X115379283Y-102271261D01*
X115379286Y-102271263D01*
X115561186Y-102383891D01*
X115561187Y-102383891D01*
X115561190Y-102383893D01*
X115760703Y-102461185D01*
X115971020Y-102500500D01*
X115971022Y-102500500D01*
X116184978Y-102500500D01*
X116184980Y-102500500D01*
X116395297Y-102461185D01*
X116594810Y-102383893D01*
X116776722Y-102271258D01*
X116934841Y-102127114D01*
X117063781Y-101956370D01*
X117159151Y-101764840D01*
X117159151Y-101764837D01*
X117159153Y-101764835D01*
X117217703Y-101559050D01*
X117217704Y-101559047D01*
X117224529Y-101485395D01*
X117250315Y-101420457D01*
X117307116Y-101379770D01*
X117376897Y-101376250D01*
X117437503Y-101411015D01*
X117469693Y-101473028D01*
X117471471Y-101485395D01*
X117478295Y-101559047D01*
X117478296Y-101559050D01*
X117536846Y-101764835D01*
X117536849Y-101764841D01*
X117632218Y-101956370D01*
X117632219Y-101956370D01*
X117761159Y-102127114D01*
X117919278Y-102271258D01*
X117919283Y-102271261D01*
X117919286Y-102271263D01*
X118101186Y-102383891D01*
X118101187Y-102383891D01*
X118101190Y-102383893D01*
X118300703Y-102461185D01*
X118511020Y-102500500D01*
X118511022Y-102500500D01*
X118724978Y-102500500D01*
X118724980Y-102500500D01*
X118935297Y-102461185D01*
X119134810Y-102383893D01*
X119316722Y-102271258D01*
X119474841Y-102127114D01*
X119603781Y-101956370D01*
X119699151Y-101764840D01*
X119699151Y-101764837D01*
X119699153Y-101764835D01*
X119757703Y-101559050D01*
X119757704Y-101559047D01*
X119764529Y-101485395D01*
X119790315Y-101420457D01*
X119847116Y-101379770D01*
X119916897Y-101376250D01*
X119977503Y-101411015D01*
X120009693Y-101473028D01*
X120011471Y-101485395D01*
X120018295Y-101559047D01*
X120018296Y-101559050D01*
X120076846Y-101764835D01*
X120076849Y-101764841D01*
X120172219Y-101956370D01*
X120301159Y-102127114D01*
X120459278Y-102271258D01*
X120459283Y-102271261D01*
X120459286Y-102271263D01*
X120641186Y-102383891D01*
X120641187Y-102383891D01*
X120641190Y-102383893D01*
X120840703Y-102461185D01*
X121051020Y-102500500D01*
X121051022Y-102500500D01*
X121264978Y-102500500D01*
X121264980Y-102500500D01*
X121475297Y-102461185D01*
X121674810Y-102383893D01*
X121856722Y-102271258D01*
X122014841Y-102127114D01*
X122143781Y-101956370D01*
X122239151Y-101764840D01*
X122239151Y-101764837D01*
X122239153Y-101764835D01*
X122297703Y-101559050D01*
X122297704Y-101559047D01*
X122315309Y-101369067D01*
X122317446Y-101346000D01*
X122299747Y-101155001D01*
X122313162Y-101086433D01*
X122335534Y-101055883D01*
X123575043Y-99816374D01*
X123587325Y-99806537D01*
X123587144Y-99806318D01*
X123593152Y-99801346D01*
X123593162Y-99801340D01*
X123640677Y-99750741D01*
X123661623Y-99729796D01*
X123665892Y-99724290D01*
X123669676Y-99719859D01*
X123701693Y-99685767D01*
X123711389Y-99668128D01*
X123722073Y-99651861D01*
X123734408Y-99635962D01*
X123752983Y-99593034D01*
X123755534Y-99587827D01*
X123778072Y-99546834D01*
X123783078Y-99527334D01*
X123789376Y-99508936D01*
X123797374Y-99490458D01*
X123804688Y-99444276D01*
X123805870Y-99438565D01*
X123817500Y-99393272D01*
X123817500Y-99373141D01*
X123819027Y-99353741D01*
X123822175Y-99333867D01*
X123822175Y-99333864D01*
X123819737Y-99308081D01*
X123817772Y-99287300D01*
X123817500Y-99281505D01*
X123817500Y-87526398D01*
X123837185Y-87459359D01*
X123870374Y-87424825D01*
X124004620Y-87330826D01*
X124160826Y-87174620D01*
X124287534Y-86993662D01*
X124347617Y-86864811D01*
X124393790Y-86812371D01*
X124460983Y-86793219D01*
X124527865Y-86813435D01*
X124572382Y-86864811D01*
X124632464Y-86993658D01*
X124632468Y-86993666D01*
X124751727Y-87163985D01*
X124759174Y-87174620D01*
X124915380Y-87330826D01*
X124915382Y-87330827D01*
X124915384Y-87330829D01*
X125096333Y-87457531D01*
X125096335Y-87457532D01*
X125096338Y-87457534D01*
X125296550Y-87550894D01*
X125509932Y-87608070D01*
X125667123Y-87621822D01*
X125729998Y-87627323D01*
X125730000Y-87627323D01*
X125730002Y-87627323D01*
X125785016Y-87622509D01*
X125950068Y-87608070D01*
X126163450Y-87550894D01*
X126363662Y-87457534D01*
X126544620Y-87330826D01*
X126700826Y-87174620D01*
X126827534Y-86993662D01*
X126920894Y-86793450D01*
X126978070Y-86580068D01*
X126997323Y-86360000D01*
X126978070Y-86139932D01*
X126920894Y-85926550D01*
X126827534Y-85726339D01*
X126700826Y-85545380D01*
X126544620Y-85389174D01*
X126544616Y-85389171D01*
X126544615Y-85389170D01*
X126363666Y-85262468D01*
X126363662Y-85262466D01*
X126271233Y-85219366D01*
X126163450Y-85169106D01*
X126163447Y-85169105D01*
X126163445Y-85169104D01*
X125950070Y-85111930D01*
X125950062Y-85111929D01*
X125730002Y-85092677D01*
X125729998Y-85092677D01*
X125509938Y-85111929D01*
X125509933Y-85111929D01*
X125509932Y-85111930D01*
X125509929Y-85111930D01*
X125509928Y-85111931D01*
X125468205Y-85123110D01*
X125398356Y-85121445D01*
X125348434Y-85091015D01*
X124962376Y-84704957D01*
X124952531Y-84692668D01*
X124952313Y-84692849D01*
X124947340Y-84686838D01*
X124925614Y-84666436D01*
X124896741Y-84639322D01*
X124886268Y-84628849D01*
X124875797Y-84618377D01*
X124870296Y-84614111D01*
X124865848Y-84610312D01*
X124831768Y-84578308D01*
X124831763Y-84578304D01*
X124814122Y-84568606D01*
X124797857Y-84557922D01*
X124781963Y-84545593D01*
X124781962Y-84545592D01*
X124759212Y-84535747D01*
X124739054Y-84527023D01*
X124733807Y-84524453D01*
X124692837Y-84501929D01*
X124692828Y-84501926D01*
X124673334Y-84496920D01*
X124654933Y-84490620D01*
X124636459Y-84482626D01*
X124636452Y-84482624D01*
X124590287Y-84475313D01*
X124584563Y-84474128D01*
X124539279Y-84462500D01*
X124539272Y-84462500D01*
X124519142Y-84462500D01*
X124499743Y-84460973D01*
X124479868Y-84457825D01*
X124479867Y-84457825D01*
X124433321Y-84462225D01*
X124427483Y-84462500D01*
X115017967Y-84462500D01*
X115002318Y-84460772D01*
X115002292Y-84461054D01*
X114994524Y-84460319D01*
X114925141Y-84462500D01*
X114895522Y-84462500D01*
X114888618Y-84463371D01*
X114882800Y-84463829D01*
X114836060Y-84465298D01*
X114836054Y-84465299D01*
X114816719Y-84470916D01*
X114797680Y-84474859D01*
X114777715Y-84477382D01*
X114777701Y-84477385D01*
X114734235Y-84494594D01*
X114728709Y-84496486D01*
X114683807Y-84509532D01*
X114666484Y-84519777D01*
X114649015Y-84528335D01*
X114630300Y-84535745D01*
X114592475Y-84563226D01*
X114587592Y-84566433D01*
X114547347Y-84590233D01*
X114533106Y-84604474D01*
X114518320Y-84617102D01*
X114502033Y-84628936D01*
X114502032Y-84628936D01*
X114472227Y-84664963D01*
X114468295Y-84669285D01*
X103251564Y-95886015D01*
X103190241Y-95919500D01*
X103131791Y-95918109D01*
X103090073Y-95906931D01*
X103090070Y-95906930D01*
X103090068Y-95906930D01*
X102980033Y-95897303D01*
X102870002Y-95887677D01*
X102869998Y-95887677D01*
X102649937Y-95906929D01*
X102649929Y-95906930D01*
X102436554Y-95964104D01*
X102436548Y-95964107D01*
X102236340Y-96057465D01*
X102236338Y-96057466D01*
X102055377Y-96184175D01*
X101899175Y-96340377D01*
X101772466Y-96521338D01*
X101772465Y-96521340D01*
X101679107Y-96721548D01*
X101679104Y-96721554D01*
X101621930Y-96934929D01*
X101621929Y-96934937D01*
X101602677Y-97154997D01*
X101602677Y-97155002D01*
X101621929Y-97375062D01*
X101621930Y-97375070D01*
X101679104Y-97588445D01*
X101679105Y-97588447D01*
X101679106Y-97588450D01*
X101731587Y-97700996D01*
X101772466Y-97788662D01*
X101772468Y-97788666D01*
X101899170Y-97969615D01*
X101899175Y-97969621D01*
X102055378Y-98125824D01*
X102055384Y-98125829D01*
X102236333Y-98252531D01*
X102236335Y-98252532D01*
X102236338Y-98252534D01*
X102436550Y-98345894D01*
X102649932Y-98403070D01*
X102807123Y-98416822D01*
X102869998Y-98422323D01*
X102870000Y-98422323D01*
X102870002Y-98422323D01*
X102925017Y-98417509D01*
X103090068Y-98403070D01*
X103303450Y-98345894D01*
X103503662Y-98252534D01*
X103684620Y-98125826D01*
X103840826Y-97969620D01*
X103967534Y-97788662D01*
X104060894Y-97588450D01*
X104118070Y-97375068D01*
X104133427Y-97199535D01*
X104137323Y-97155002D01*
X106682677Y-97155002D01*
X106701929Y-97375062D01*
X106701930Y-97375070D01*
X106759104Y-97588445D01*
X106759105Y-97588447D01*
X106759106Y-97588450D01*
X106811587Y-97700996D01*
X106852466Y-97788662D01*
X106852468Y-97788666D01*
X106979170Y-97969615D01*
X106979175Y-97969621D01*
X107135378Y-98125824D01*
X107135384Y-98125829D01*
X107316333Y-98252531D01*
X107316335Y-98252532D01*
X107316338Y-98252534D01*
X107516550Y-98345894D01*
X107729932Y-98403070D01*
X107887123Y-98416822D01*
X107949998Y-98422323D01*
X107950000Y-98422323D01*
X107950002Y-98422323D01*
X108005017Y-98417509D01*
X108170068Y-98403070D01*
X108383450Y-98345894D01*
X108583662Y-98252534D01*
X108764620Y-98125826D01*
X108920826Y-97969620D01*
X109047534Y-97788662D01*
X109140894Y-97588450D01*
X109198070Y-97375068D01*
X109213427Y-97199535D01*
X109217323Y-97155002D01*
X109217323Y-97154997D01*
X109207160Y-97038835D01*
X109198070Y-96934932D01*
X109140894Y-96721550D01*
X109047534Y-96521339D01*
X108967824Y-96407500D01*
X108920827Y-96340381D01*
X108896217Y-96315771D01*
X108764620Y-96184174D01*
X108764616Y-96184171D01*
X108764615Y-96184170D01*
X108583666Y-96057468D01*
X108583662Y-96057466D01*
X108583662Y-96057465D01*
X108383450Y-95964106D01*
X108383447Y-95964105D01*
X108383445Y-95964104D01*
X108170070Y-95906930D01*
X108170062Y-95906929D01*
X107950002Y-95887677D01*
X107949998Y-95887677D01*
X107729937Y-95906929D01*
X107729929Y-95906930D01*
X107516554Y-95964104D01*
X107516548Y-95964107D01*
X107316340Y-96057465D01*
X107316338Y-96057466D01*
X107135377Y-96184175D01*
X106979175Y-96340377D01*
X106852466Y-96521338D01*
X106852465Y-96521340D01*
X106759107Y-96721548D01*
X106759104Y-96721554D01*
X106701930Y-96934929D01*
X106701929Y-96934937D01*
X106682677Y-97154997D01*
X106682677Y-97155002D01*
X104137323Y-97155002D01*
X104137323Y-97154997D01*
X104127160Y-97038835D01*
X104118070Y-96934932D01*
X104106889Y-96893207D01*
X104108553Y-96823357D01*
X104138982Y-96773435D01*
X114172265Y-86740152D01*
X114233586Y-86706669D01*
X114303278Y-86711653D01*
X114359211Y-86753525D01*
X114376304Y-86788701D01*
X114377252Y-86788356D01*
X114379104Y-86793443D01*
X114379106Y-86793450D01*
X114412541Y-86865151D01*
X114472466Y-86993662D01*
X114472468Y-86993666D01*
X114591727Y-87163985D01*
X114599174Y-87174620D01*
X114755380Y-87330826D01*
X114889620Y-87424822D01*
X114889622Y-87424823D01*
X114933247Y-87479400D01*
X114942499Y-87526398D01*
X114942499Y-99002718D01*
X114922814Y-99069757D01*
X114906180Y-99090399D01*
X113826083Y-100170496D01*
X113764760Y-100203981D01*
X113715618Y-100204704D01*
X113677998Y-100197672D01*
X113644980Y-100191500D01*
X113431020Y-100191500D01*
X113220703Y-100230815D01*
X113094533Y-100279693D01*
X113021192Y-100308106D01*
X113021186Y-100308108D01*
X112839286Y-100420736D01*
X112839283Y-100420738D01*
X112839279Y-100420740D01*
X112839278Y-100420742D01*
X112774140Y-100480123D01*
X112681158Y-100564887D01*
X112552219Y-100735629D01*
X112456849Y-100927158D01*
X112456846Y-100927164D01*
X112398296Y-101132949D01*
X112398295Y-101132952D01*
X112391471Y-101206604D01*
X112365685Y-101271542D01*
X112308884Y-101312229D01*
X112239103Y-101315749D01*
X112178497Y-101280984D01*
X112146307Y-101218971D01*
X112144529Y-101206604D01*
X112137704Y-101132952D01*
X112137703Y-101132949D01*
X112079153Y-100927164D01*
X112079150Y-100927158D01*
X112008179Y-100784628D01*
X111983781Y-100735630D01*
X111854841Y-100564886D01*
X111696722Y-100420742D01*
X111696716Y-100420738D01*
X111696713Y-100420736D01*
X111514813Y-100308108D01*
X111514807Y-100308106D01*
X111315297Y-100230815D01*
X111104980Y-100191500D01*
X110891020Y-100191500D01*
X110680703Y-100230815D01*
X110554533Y-100279693D01*
X110481192Y-100308106D01*
X110481186Y-100308108D01*
X110299286Y-100420736D01*
X110299283Y-100420738D01*
X110299279Y-100420740D01*
X110299278Y-100420742D01*
X110234140Y-100480123D01*
X110141158Y-100564887D01*
X110012219Y-100735629D01*
X109916849Y-100927158D01*
X109916846Y-100927164D01*
X109858296Y-101132949D01*
X109858295Y-101132952D01*
X109851471Y-101206604D01*
X109825685Y-101271542D01*
X109768884Y-101312229D01*
X109699103Y-101315749D01*
X109638497Y-101280984D01*
X109606307Y-101218971D01*
X109604529Y-101206604D01*
X109597704Y-101132952D01*
X109597703Y-101132949D01*
X109539153Y-100927164D01*
X109539150Y-100927158D01*
X109468179Y-100784628D01*
X109443781Y-100735630D01*
X109314841Y-100564886D01*
X109156722Y-100420742D01*
X109156716Y-100420738D01*
X109156713Y-100420736D01*
X108974813Y-100308108D01*
X108974807Y-100308106D01*
X108775297Y-100230815D01*
X108564980Y-100191500D01*
X108351020Y-100191500D01*
X108140703Y-100230815D01*
X108014533Y-100279693D01*
X107941192Y-100308106D01*
X107941186Y-100308108D01*
X107759286Y-100420736D01*
X107759283Y-100420738D01*
X107759279Y-100420740D01*
X107759278Y-100420742D01*
X107694140Y-100480123D01*
X107601158Y-100564887D01*
X107472219Y-100735629D01*
X107376849Y-100927158D01*
X107376846Y-100927164D01*
X107318296Y-101132949D01*
X107318295Y-101132952D01*
X107311471Y-101206604D01*
X107285685Y-101271542D01*
X107228884Y-101312229D01*
X107159103Y-101315749D01*
X107098497Y-101280984D01*
X107066307Y-101218971D01*
X107064529Y-101206604D01*
X107057704Y-101132952D01*
X107057703Y-101132949D01*
X106999153Y-100927164D01*
X106999150Y-100927158D01*
X106928179Y-100784628D01*
X106903781Y-100735630D01*
X106774841Y-100564886D01*
X106616722Y-100420742D01*
X106616716Y-100420738D01*
X106616713Y-100420736D01*
X106434813Y-100308108D01*
X106434807Y-100308106D01*
X106235297Y-100230815D01*
X106024980Y-100191500D01*
X105811020Y-100191500D01*
X105600703Y-100230815D01*
X105474533Y-100279693D01*
X105401192Y-100308106D01*
X105401186Y-100308108D01*
X105219286Y-100420736D01*
X105219283Y-100420738D01*
X105219279Y-100420740D01*
X105219278Y-100420742D01*
X105154140Y-100480123D01*
X105061158Y-100564887D01*
X104932219Y-100735629D01*
X104836849Y-100927158D01*
X104836846Y-100927164D01*
X104778296Y-101132949D01*
X104778295Y-101132952D01*
X104771471Y-101206604D01*
X104745685Y-101271542D01*
X104688884Y-101312229D01*
X104619103Y-101315749D01*
X104558497Y-101280984D01*
X104526307Y-101218971D01*
X104524529Y-101206604D01*
X104517704Y-101132952D01*
X104517703Y-101132949D01*
X104459153Y-100927164D01*
X104459150Y-100927158D01*
X104388179Y-100784628D01*
X104363781Y-100735630D01*
X104234841Y-100564886D01*
X104076722Y-100420742D01*
X104076716Y-100420738D01*
X104076713Y-100420736D01*
X103894813Y-100308108D01*
X103894807Y-100308106D01*
X103695297Y-100230815D01*
X103484980Y-100191500D01*
X103271020Y-100191500D01*
X103060703Y-100230815D01*
X102934533Y-100279693D01*
X102861192Y-100308106D01*
X102861186Y-100308108D01*
X102679286Y-100420736D01*
X102679283Y-100420738D01*
X102679279Y-100420740D01*
X102679278Y-100420742D01*
X102614140Y-100480123D01*
X102521158Y-100564887D01*
X102392219Y-100735629D01*
X102296849Y-100927158D01*
X102296846Y-100927164D01*
X102238296Y-101132949D01*
X102238295Y-101132952D01*
X102231471Y-101206604D01*
X102205685Y-101271542D01*
X102148884Y-101312229D01*
X102079103Y-101315749D01*
X102018497Y-101280984D01*
X101986307Y-101218971D01*
X101984529Y-101206604D01*
X101977704Y-101132952D01*
X101977703Y-101132949D01*
X101919153Y-100927164D01*
X101919150Y-100927158D01*
X101848179Y-100784628D01*
X101823781Y-100735630D01*
X101694841Y-100564886D01*
X101536722Y-100420742D01*
X101536716Y-100420738D01*
X101536713Y-100420736D01*
X101354813Y-100308108D01*
X101354807Y-100308106D01*
X101155297Y-100230815D01*
X100944980Y-100191500D01*
X100731020Y-100191500D01*
X100520703Y-100230815D01*
X100394533Y-100279693D01*
X100321192Y-100308106D01*
X100321186Y-100308108D01*
X100139286Y-100420736D01*
X100139283Y-100420738D01*
X100139279Y-100420740D01*
X100139278Y-100420742D01*
X100074140Y-100480123D01*
X99981158Y-100564887D01*
X99852219Y-100735629D01*
X99756849Y-100927158D01*
X99756846Y-100927164D01*
X99698296Y-101132949D01*
X99698295Y-101132952D01*
X99678554Y-101345999D01*
X99678554Y-101346000D01*
X96917446Y-101346000D01*
X96897704Y-101132952D01*
X96875775Y-101055880D01*
X96839153Y-100927164D01*
X96839150Y-100927158D01*
X96768179Y-100784628D01*
X96743781Y-100735630D01*
X96614841Y-100564886D01*
X96456722Y-100420742D01*
X96456716Y-100420738D01*
X96456713Y-100420736D01*
X96274813Y-100308108D01*
X96274807Y-100308106D01*
X96075297Y-100230815D01*
X95864980Y-100191500D01*
X95651020Y-100191500D01*
X95651018Y-100191500D01*
X95580379Y-100204704D01*
X95510864Y-100197672D01*
X95469915Y-100170496D01*
X94643819Y-99344400D01*
X94610334Y-99283077D01*
X94607500Y-99256719D01*
X94607500Y-87526398D01*
X94627185Y-87459359D01*
X94660374Y-87424825D01*
X94794620Y-87330826D01*
X94950826Y-87174620D01*
X95077534Y-86993662D01*
X95170894Y-86793450D01*
X95228070Y-86580068D01*
X95247323Y-86360000D01*
X95228070Y-86139932D01*
X95170894Y-85926550D01*
X95077534Y-85726339D01*
X94950826Y-85545380D01*
X94794620Y-85389174D01*
X94794616Y-85389171D01*
X94794615Y-85389170D01*
X94613666Y-85262468D01*
X94613662Y-85262466D01*
X94521233Y-85219366D01*
X94413450Y-85169106D01*
X94413447Y-85169105D01*
X94413445Y-85169104D01*
X94200070Y-85111930D01*
X94200062Y-85111929D01*
X93980002Y-85092677D01*
X93979998Y-85092677D01*
X93759937Y-85111929D01*
X93759929Y-85111930D01*
X93546554Y-85169104D01*
X93546548Y-85169107D01*
X93346340Y-85262465D01*
X93346338Y-85262466D01*
X93165377Y-85389175D01*
X93009175Y-85545377D01*
X92882466Y-85726338D01*
X92882465Y-85726340D01*
X92822382Y-85855189D01*
X92776209Y-85907628D01*
X92709016Y-85926780D01*
X92642135Y-85906564D01*
X92597618Y-85855189D01*
X92537534Y-85726340D01*
X92537533Y-85726338D01*
X92517121Y-85697187D01*
X92410826Y-85545380D01*
X92254620Y-85389174D01*
X92254616Y-85389171D01*
X92254615Y-85389170D01*
X92073666Y-85262468D01*
X92073662Y-85262466D01*
X91981233Y-85219366D01*
X91873450Y-85169106D01*
X91873447Y-85169105D01*
X91873445Y-85169104D01*
X91660070Y-85111930D01*
X91660062Y-85111929D01*
X91440002Y-85092677D01*
X91439998Y-85092677D01*
X91219937Y-85111929D01*
X91219929Y-85111930D01*
X91006554Y-85169104D01*
X91006548Y-85169107D01*
X90806340Y-85262465D01*
X90806338Y-85262466D01*
X90625377Y-85389175D01*
X90469175Y-85545377D01*
X90342466Y-85726338D01*
X90342465Y-85726340D01*
X90282382Y-85855189D01*
X90236209Y-85907628D01*
X90169016Y-85926780D01*
X90102135Y-85906564D01*
X90057618Y-85855189D01*
X89997534Y-85726340D01*
X89997533Y-85726338D01*
X89977121Y-85697187D01*
X89870826Y-85545380D01*
X89714620Y-85389174D01*
X89714616Y-85389171D01*
X89714615Y-85389170D01*
X89533666Y-85262468D01*
X89533662Y-85262466D01*
X89441233Y-85219366D01*
X89333450Y-85169106D01*
X89333447Y-85169105D01*
X89333445Y-85169104D01*
X89120070Y-85111930D01*
X89120062Y-85111929D01*
X88900002Y-85092677D01*
X88899998Y-85092677D01*
X88679937Y-85111929D01*
X88679929Y-85111930D01*
X88466554Y-85169104D01*
X88466548Y-85169107D01*
X88266340Y-85262465D01*
X88266338Y-85262466D01*
X88085377Y-85389175D01*
X87929175Y-85545377D01*
X87802466Y-85726338D01*
X87802465Y-85726340D01*
X87742382Y-85855189D01*
X87696209Y-85907628D01*
X87629016Y-85926780D01*
X87562135Y-85906564D01*
X87517618Y-85855189D01*
X87457534Y-85726340D01*
X87457533Y-85726338D01*
X87437121Y-85697187D01*
X87330826Y-85545380D01*
X87174620Y-85389174D01*
X87174616Y-85389171D01*
X87174615Y-85389170D01*
X86993666Y-85262468D01*
X86993662Y-85262466D01*
X86901233Y-85219366D01*
X86793450Y-85169106D01*
X86793447Y-85169105D01*
X86793445Y-85169104D01*
X86580070Y-85111930D01*
X86580062Y-85111929D01*
X86360002Y-85092677D01*
X86359998Y-85092677D01*
X86139937Y-85111929D01*
X86139929Y-85111930D01*
X85926554Y-85169104D01*
X85926548Y-85169107D01*
X85726340Y-85262465D01*
X85726338Y-85262466D01*
X85545377Y-85389175D01*
X85389175Y-85545377D01*
X85262466Y-85726338D01*
X85262465Y-85726340D01*
X85202382Y-85855189D01*
X85156209Y-85907628D01*
X85089016Y-85926780D01*
X85022135Y-85906564D01*
X84977618Y-85855189D01*
X84917534Y-85726340D01*
X84917533Y-85726338D01*
X84897121Y-85697187D01*
X84790826Y-85545380D01*
X84634620Y-85389174D01*
X84634616Y-85389171D01*
X84634615Y-85389170D01*
X84453666Y-85262468D01*
X84453662Y-85262466D01*
X84361233Y-85219366D01*
X84253450Y-85169106D01*
X84253447Y-85169105D01*
X84253445Y-85169104D01*
X84040070Y-85111930D01*
X84040062Y-85111929D01*
X83820002Y-85092677D01*
X83819998Y-85092677D01*
X83599937Y-85111929D01*
X83599929Y-85111930D01*
X83386554Y-85169104D01*
X83386548Y-85169107D01*
X83186340Y-85262465D01*
X83186338Y-85262466D01*
X83005377Y-85389175D01*
X82849175Y-85545377D01*
X82722466Y-85726338D01*
X82722465Y-85726340D01*
X82662382Y-85855189D01*
X82616209Y-85907628D01*
X82549016Y-85926780D01*
X82482135Y-85906564D01*
X82437618Y-85855189D01*
X82377534Y-85726340D01*
X82377533Y-85726338D01*
X82357121Y-85697187D01*
X82250826Y-85545380D01*
X82094620Y-85389174D01*
X82094616Y-85389171D01*
X82094615Y-85389170D01*
X81913666Y-85262468D01*
X81913662Y-85262466D01*
X81821233Y-85219366D01*
X81713450Y-85169106D01*
X81713447Y-85169105D01*
X81713445Y-85169104D01*
X81500070Y-85111930D01*
X81500062Y-85111929D01*
X81280002Y-85092677D01*
X81279998Y-85092677D01*
X81059937Y-85111929D01*
X81059929Y-85111930D01*
X80846554Y-85169104D01*
X80846548Y-85169107D01*
X80646340Y-85262465D01*
X80646338Y-85262466D01*
X80465377Y-85389175D01*
X80309175Y-85545377D01*
X80182466Y-85726338D01*
X80182465Y-85726340D01*
X80089107Y-85926548D01*
X80089104Y-85926554D01*
X80031930Y-86139929D01*
X80031929Y-86139937D01*
X80012677Y-86359997D01*
X80012677Y-86360002D01*
X80031929Y-86580062D01*
X80031930Y-86580070D01*
X80089104Y-86793445D01*
X80089105Y-86793447D01*
X80089106Y-86793450D01*
X80122541Y-86865151D01*
X80182466Y-86993662D01*
X80182468Y-86993666D01*
X80301727Y-87163985D01*
X80309174Y-87174620D01*
X80465380Y-87330826D01*
X80599624Y-87424824D01*
X80643248Y-87479399D01*
X80652500Y-87526398D01*
X80652500Y-99485032D01*
X80650772Y-99500681D01*
X80651054Y-99500708D01*
X80650319Y-99508475D01*
X80652500Y-99577859D01*
X80652500Y-99607477D01*
X80653371Y-99614380D01*
X80653829Y-99620199D01*
X80655298Y-99666942D01*
X80660916Y-99686275D01*
X80664862Y-99705329D01*
X80667383Y-99725287D01*
X80667386Y-99725299D01*
X80684595Y-99768765D01*
X80686487Y-99774293D01*
X80699530Y-99819187D01*
X80699530Y-99819188D01*
X80709777Y-99836515D01*
X80718335Y-99853985D01*
X80725745Y-99872701D01*
X80753229Y-99910529D01*
X80756437Y-99915413D01*
X80780234Y-99955652D01*
X80780240Y-99955660D01*
X80794469Y-99969888D01*
X80807109Y-99984687D01*
X80823524Y-100007281D01*
X80822067Y-100008339D01*
X80849181Y-100061926D01*
X80842012Y-100131427D01*
X80798406Y-100186019D01*
X80732208Y-100208370D01*
X80704464Y-100206358D01*
X80624980Y-100191500D01*
X80411020Y-100191500D01*
X80200703Y-100230815D01*
X80074533Y-100279693D01*
X80001192Y-100308106D01*
X80001186Y-100308108D01*
X79819286Y-100420736D01*
X79819283Y-100420738D01*
X79819279Y-100420740D01*
X79819278Y-100420742D01*
X79754140Y-100480123D01*
X79661158Y-100564887D01*
X79532219Y-100735629D01*
X79436849Y-100927158D01*
X79436846Y-100927164D01*
X79378296Y-101132949D01*
X79378295Y-101132952D01*
X79371471Y-101206604D01*
X79345685Y-101271542D01*
X79288884Y-101312229D01*
X79219103Y-101315749D01*
X79158497Y-101280984D01*
X79126307Y-101218971D01*
X79124529Y-101206604D01*
X79117704Y-101132952D01*
X79117703Y-101132949D01*
X79059153Y-100927164D01*
X79059150Y-100927158D01*
X78988179Y-100784628D01*
X78963781Y-100735630D01*
X78834841Y-100564886D01*
X78676722Y-100420742D01*
X78676716Y-100420738D01*
X78676713Y-100420736D01*
X78494813Y-100308108D01*
X78494807Y-100308106D01*
X78295297Y-100230815D01*
X78084980Y-100191500D01*
X77871020Y-100191500D01*
X77660703Y-100230815D01*
X77534533Y-100279693D01*
X77461192Y-100308106D01*
X77461186Y-100308108D01*
X77279286Y-100420736D01*
X77279283Y-100420738D01*
X77279279Y-100420740D01*
X77279278Y-100420742D01*
X77214140Y-100480123D01*
X77121158Y-100564887D01*
X76992219Y-100735629D01*
X76896849Y-100927158D01*
X76896846Y-100927164D01*
X76838296Y-101132949D01*
X76838295Y-101132952D01*
X76831471Y-101206604D01*
X76805685Y-101271542D01*
X76748884Y-101312229D01*
X76679103Y-101315749D01*
X76618497Y-101280984D01*
X76586307Y-101218971D01*
X76584529Y-101206604D01*
X76577704Y-101132952D01*
X76577703Y-101132949D01*
X76519153Y-100927164D01*
X76519150Y-100927158D01*
X76448179Y-100784628D01*
X76423781Y-100735630D01*
X76294841Y-100564886D01*
X76136722Y-100420742D01*
X76136716Y-100420738D01*
X76136713Y-100420736D01*
X75954813Y-100308108D01*
X75954807Y-100308106D01*
X75755297Y-100230815D01*
X75544980Y-100191500D01*
X75331020Y-100191500D01*
X75120703Y-100230815D01*
X74994533Y-100279693D01*
X74921192Y-100308106D01*
X74921186Y-100308108D01*
X74739286Y-100420736D01*
X74739283Y-100420738D01*
X74739279Y-100420740D01*
X74739278Y-100420742D01*
X74674140Y-100480123D01*
X74581158Y-100564887D01*
X74452219Y-100735629D01*
X74356849Y-100927158D01*
X74356846Y-100927164D01*
X74298296Y-101132949D01*
X74298295Y-101132952D01*
X74291471Y-101206604D01*
X74265685Y-101271542D01*
X74208884Y-101312229D01*
X74139103Y-101315749D01*
X74078497Y-101280984D01*
X74046307Y-101218971D01*
X74044529Y-101206604D01*
X74037704Y-101132952D01*
X74037703Y-101132949D01*
X73979153Y-100927164D01*
X73979150Y-100927158D01*
X73908179Y-100784628D01*
X73883781Y-100735630D01*
X73754841Y-100564886D01*
X73596722Y-100420742D01*
X73596716Y-100420738D01*
X73596713Y-100420736D01*
X73414813Y-100308108D01*
X73414807Y-100308106D01*
X73215297Y-100230815D01*
X73004980Y-100191500D01*
X72791020Y-100191500D01*
X72580703Y-100230815D01*
X72454533Y-100279693D01*
X72381192Y-100308106D01*
X72381186Y-100308108D01*
X72199286Y-100420736D01*
X72199283Y-100420738D01*
X72199279Y-100420740D01*
X72199278Y-100420742D01*
X72134140Y-100480123D01*
X72041158Y-100564887D01*
X71912219Y-100735629D01*
X71816849Y-100927158D01*
X71816846Y-100927164D01*
X71758296Y-101132949D01*
X71758295Y-101132952D01*
X71751471Y-101206604D01*
X71725685Y-101271542D01*
X71668884Y-101312229D01*
X71599103Y-101315749D01*
X71538497Y-101280984D01*
X71506307Y-101218971D01*
X71504529Y-101206604D01*
X71497704Y-101132952D01*
X71497703Y-101132949D01*
X71439153Y-100927164D01*
X71439150Y-100927158D01*
X71368179Y-100784628D01*
X71343781Y-100735630D01*
X71214841Y-100564886D01*
X71056722Y-100420742D01*
X71056716Y-100420738D01*
X71056713Y-100420736D01*
X70874813Y-100308108D01*
X70874807Y-100308106D01*
X70675297Y-100230815D01*
X70464980Y-100191500D01*
X70251020Y-100191500D01*
X70040703Y-100230815D01*
X69914533Y-100279693D01*
X69841192Y-100308106D01*
X69841186Y-100308108D01*
X69659286Y-100420736D01*
X69659283Y-100420738D01*
X69659279Y-100420740D01*
X69659278Y-100420742D01*
X69594140Y-100480123D01*
X69501158Y-100564887D01*
X69372219Y-100735629D01*
X69276849Y-100927158D01*
X69276846Y-100927164D01*
X69218296Y-101132949D01*
X69218295Y-101132952D01*
X69211471Y-101206604D01*
X69185685Y-101271542D01*
X69128884Y-101312229D01*
X69059103Y-101315749D01*
X68998497Y-101280984D01*
X68966307Y-101218971D01*
X68964529Y-101206604D01*
X68957704Y-101132952D01*
X68957703Y-101132949D01*
X68899153Y-100927164D01*
X68899150Y-100927158D01*
X68828179Y-100784628D01*
X68803781Y-100735630D01*
X68674841Y-100564886D01*
X68516722Y-100420742D01*
X68516716Y-100420738D01*
X68516713Y-100420736D01*
X68334813Y-100308108D01*
X68334807Y-100308106D01*
X68135297Y-100230815D01*
X67924980Y-100191500D01*
X67711020Y-100191500D01*
X67500703Y-100230815D01*
X67374533Y-100279693D01*
X67301192Y-100308106D01*
X67301186Y-100308108D01*
X67119286Y-100420736D01*
X67119283Y-100420738D01*
X67119279Y-100420740D01*
X67119278Y-100420742D01*
X67054140Y-100480123D01*
X66961158Y-100564887D01*
X66832219Y-100735629D01*
X66736849Y-100927158D01*
X66736846Y-100927164D01*
X66678296Y-101132949D01*
X66678295Y-101132952D01*
X66658554Y-101345999D01*
X66658554Y-101346000D01*
X66678295Y-101559047D01*
X66678296Y-101559050D01*
X66736846Y-101764835D01*
X66736849Y-101764841D01*
X66832218Y-101956370D01*
X66832219Y-101956370D01*
X66961159Y-102127114D01*
X67119278Y-102271258D01*
X67119283Y-102271261D01*
X67119286Y-102271263D01*
X67301186Y-102383891D01*
X67301187Y-102383891D01*
X67301190Y-102383893D01*
X67500703Y-102461185D01*
X67711020Y-102500500D01*
X67711022Y-102500500D01*
X67924978Y-102500500D01*
X67924980Y-102500500D01*
X68135297Y-102461185D01*
X68334810Y-102383893D01*
X68516722Y-102271258D01*
X68674841Y-102127114D01*
X68803781Y-101956370D01*
X68899151Y-101764840D01*
X68899151Y-101764837D01*
X68899153Y-101764835D01*
X68957703Y-101559050D01*
X68957704Y-101559047D01*
X68964529Y-101485395D01*
X68990315Y-101420457D01*
X69047116Y-101379770D01*
X69116897Y-101376250D01*
X69177503Y-101411015D01*
X69209693Y-101473028D01*
X69211471Y-101485395D01*
X69218295Y-101559047D01*
X69218296Y-101559050D01*
X69276846Y-101764835D01*
X69276849Y-101764841D01*
X69372218Y-101956369D01*
X69372219Y-101956370D01*
X69501159Y-102127114D01*
X69659278Y-102271258D01*
X69659283Y-102271261D01*
X69659286Y-102271263D01*
X69841186Y-102383891D01*
X69841187Y-102383891D01*
X69841190Y-102383893D01*
X70040703Y-102461185D01*
X70251020Y-102500500D01*
X70251022Y-102500500D01*
X70464978Y-102500500D01*
X70464980Y-102500500D01*
X70675297Y-102461185D01*
X70874810Y-102383893D01*
X71056722Y-102271258D01*
X71214841Y-102127114D01*
X71343781Y-101956370D01*
X71439151Y-101764840D01*
X71439151Y-101764837D01*
X71439153Y-101764835D01*
X71497703Y-101559050D01*
X71497704Y-101559047D01*
X71504529Y-101485395D01*
X71530315Y-101420457D01*
X71587116Y-101379770D01*
X71656897Y-101376250D01*
X71717503Y-101411015D01*
X71749693Y-101473028D01*
X71751471Y-101485395D01*
X71758295Y-101559047D01*
X71758296Y-101559050D01*
X71816846Y-101764835D01*
X71816849Y-101764841D01*
X71912218Y-101956370D01*
X71912219Y-101956370D01*
X72041159Y-102127114D01*
X72199278Y-102271258D01*
X72199283Y-102271261D01*
X72199286Y-102271263D01*
X72381186Y-102383891D01*
X72381187Y-102383891D01*
X72381190Y-102383893D01*
X72580703Y-102461185D01*
X72791020Y-102500500D01*
X72791022Y-102500500D01*
X73004978Y-102500500D01*
X73004980Y-102500500D01*
X73215297Y-102461185D01*
X73414810Y-102383893D01*
X73596722Y-102271258D01*
X73754841Y-102127114D01*
X73883781Y-101956370D01*
X73979151Y-101764840D01*
X73979151Y-101764837D01*
X73979153Y-101764835D01*
X74037703Y-101559050D01*
X74037704Y-101559047D01*
X74044529Y-101485395D01*
X74070315Y-101420457D01*
X74127116Y-101379770D01*
X74196897Y-101376250D01*
X74257503Y-101411015D01*
X74289693Y-101473028D01*
X74291471Y-101485395D01*
X74298295Y-101559047D01*
X74298296Y-101559050D01*
X74356846Y-101764835D01*
X74356849Y-101764841D01*
X74452218Y-101956369D01*
X74452219Y-101956370D01*
X74581159Y-102127114D01*
X74739278Y-102271258D01*
X74739283Y-102271261D01*
X74739286Y-102271263D01*
X74921186Y-102383891D01*
X74921187Y-102383891D01*
X74921190Y-102383893D01*
X75120703Y-102461185D01*
X75331020Y-102500500D01*
X75331022Y-102500500D01*
X75331217Y-102500500D01*
X75331307Y-102500526D01*
X75336729Y-102501029D01*
X75336630Y-102502089D01*
X75398256Y-102520185D01*
X75444011Y-102572989D01*
X75453955Y-102642147D01*
X75424930Y-102705703D01*
X75376011Y-102740127D01*
X75213575Y-102803054D01*
X75213569Y-102803057D01*
X75039539Y-102910812D01*
X75039537Y-102910814D01*
X74888269Y-103048712D01*
X74764912Y-103212064D01*
X74673673Y-103395295D01*
X74617654Y-103592183D01*
X74598768Y-103795999D01*
X74598768Y-103796000D01*
X74617654Y-103999816D01*
X74673673Y-104196704D01*
X74764912Y-104379935D01*
X74888269Y-104543287D01*
X75039537Y-104681185D01*
X75039538Y-104681186D01*
X75054699Y-104690574D01*
X75101334Y-104742603D01*
X75112437Y-104811585D01*
X75084483Y-104875619D01*
X75054699Y-104901426D01*
X75039538Y-104910813D01*
X75039537Y-104910814D01*
X74888269Y-105048712D01*
X74764912Y-105212064D01*
X74673673Y-105395295D01*
X74617654Y-105592183D01*
X74598768Y-105795999D01*
X74598768Y-105796000D01*
X74617654Y-105999816D01*
X74673673Y-106196704D01*
X74764756Y-106379622D01*
X74767964Y-106397623D01*
X74777334Y-106401702D01*
X74796771Y-106422123D01*
X74888269Y-106543287D01*
X75039537Y-106681185D01*
X75039538Y-106681186D01*
X75054699Y-106690574D01*
X75101334Y-106742603D01*
X75112437Y-106811585D01*
X75084483Y-106875619D01*
X75054699Y-106901426D01*
X75039541Y-106910811D01*
X74954470Y-106988363D01*
X74891665Y-107018979D01*
X74822278Y-107010781D01*
X74768338Y-106966371D01*
X74749316Y-106920919D01*
X74731894Y-106833334D01*
X74709976Y-106780418D01*
X74664016Y-106669459D01*
X74664009Y-106669446D01*
X74594715Y-106565741D01*
X74584490Y-106533087D01*
X74566075Y-106522575D01*
X74440038Y-106396538D01*
X74440034Y-106396535D01*
X74292553Y-106297990D01*
X74292540Y-106297983D01*
X74128667Y-106230106D01*
X74128658Y-106230103D01*
X73954694Y-106195500D01*
X73954691Y-106195500D01*
X73938914Y-106195500D01*
X73866000Y-106195500D01*
X73777309Y-106195500D01*
X73777306Y-106195500D01*
X73603341Y-106230103D01*
X73603332Y-106230106D01*
X73439459Y-106297983D01*
X73439446Y-106297990D01*
X73334891Y-106367853D01*
X73268214Y-106388731D01*
X73200834Y-106370247D01*
X73197109Y-106367853D01*
X73092553Y-106297990D01*
X73092540Y-106297983D01*
X72928667Y-106230106D01*
X72928658Y-106230103D01*
X72754694Y-106195500D01*
X72754691Y-106195500D01*
X72738914Y-106195500D01*
X72666000Y-106195500D01*
X72577309Y-106195500D01*
X72577306Y-106195500D01*
X72403341Y-106230103D01*
X72403332Y-106230106D01*
X72239459Y-106297983D01*
X72239446Y-106297990D01*
X72134891Y-106367853D01*
X72068214Y-106388731D01*
X72000834Y-106370247D01*
X71997109Y-106367853D01*
X71892553Y-106297990D01*
X71892540Y-106297983D01*
X71728667Y-106230106D01*
X71728658Y-106230103D01*
X71554694Y-106195500D01*
X71554691Y-106195500D01*
X71538914Y-106195500D01*
X71466000Y-106195500D01*
X71377309Y-106195500D01*
X71377306Y-106195500D01*
X71203341Y-106230103D01*
X71203332Y-106230106D01*
X71039459Y-106297983D01*
X71039446Y-106297990D01*
X70891965Y-106396535D01*
X70891961Y-106396538D01*
X70766538Y-106521961D01*
X70766535Y-106521965D01*
X70667990Y-106669446D01*
X70667983Y-106669459D01*
X70600106Y-106833332D01*
X70600103Y-106833341D01*
X70565500Y-107007304D01*
X70565500Y-107071500D01*
X70545815Y-107138539D01*
X70493011Y-107184294D01*
X70441500Y-107195500D01*
X64726297Y-107195500D01*
X64659258Y-107175815D01*
X64638616Y-107159181D01*
X58825435Y-101346000D01*
X61578554Y-101346000D01*
X61598295Y-101559047D01*
X61598296Y-101559050D01*
X61656846Y-101764835D01*
X61656849Y-101764841D01*
X61752218Y-101956370D01*
X61752219Y-101956370D01*
X61881159Y-102127114D01*
X62039278Y-102271258D01*
X62039283Y-102271261D01*
X62039286Y-102271263D01*
X62221186Y-102383891D01*
X62221187Y-102383891D01*
X62221190Y-102383893D01*
X62420703Y-102461185D01*
X62631020Y-102500500D01*
X62631022Y-102500500D01*
X62844978Y-102500500D01*
X62844980Y-102500500D01*
X63055297Y-102461185D01*
X63254810Y-102383893D01*
X63436722Y-102271258D01*
X63594841Y-102127114D01*
X63723781Y-101956370D01*
X63819151Y-101764840D01*
X63819151Y-101764837D01*
X63819153Y-101764835D01*
X63877703Y-101559050D01*
X63877704Y-101559047D01*
X63895309Y-101369067D01*
X63897446Y-101346000D01*
X63877704Y-101132952D01*
X63855775Y-101055880D01*
X63819153Y-100927164D01*
X63819150Y-100927158D01*
X63748179Y-100784628D01*
X63723781Y-100735630D01*
X63594841Y-100564886D01*
X63436722Y-100420742D01*
X63436716Y-100420738D01*
X63436713Y-100420736D01*
X63254813Y-100308108D01*
X63254807Y-100308106D01*
X63055297Y-100230815D01*
X62844980Y-100191500D01*
X62631020Y-100191500D01*
X62420703Y-100230815D01*
X62294533Y-100279693D01*
X62221192Y-100308106D01*
X62221186Y-100308108D01*
X62039286Y-100420736D01*
X62039283Y-100420738D01*
X62039279Y-100420740D01*
X62039278Y-100420742D01*
X61974140Y-100480123D01*
X61881158Y-100564887D01*
X61752219Y-100735629D01*
X61656849Y-100927158D01*
X61656846Y-100927164D01*
X61598296Y-101132949D01*
X61598295Y-101132952D01*
X61578554Y-101345999D01*
X61578554Y-101346000D01*
X58825435Y-101346000D01*
X54955164Y-97475729D01*
X54921679Y-97414406D01*
X54926663Y-97344714D01*
X54968535Y-97288781D01*
X55033999Y-97264364D01*
X55101296Y-97278689D01*
X55222046Y-97343232D01*
X55420066Y-97403300D01*
X55420065Y-97403300D01*
X55440348Y-97405297D01*
X55626000Y-97423583D01*
X55831934Y-97403300D01*
X56029954Y-97343232D01*
X56212450Y-97245685D01*
X56372410Y-97114410D01*
X56503685Y-96954450D01*
X56601232Y-96771954D01*
X56661300Y-96573934D01*
X56681583Y-96368000D01*
X56661300Y-96162066D01*
X56601232Y-95964046D01*
X56503685Y-95781550D01*
X56423998Y-95684450D01*
X56372410Y-95621589D01*
X56254677Y-95524969D01*
X56212450Y-95490315D01*
X56029954Y-95392768D01*
X55831934Y-95332700D01*
X55831932Y-95332699D01*
X55831934Y-95332699D01*
X55626000Y-95312417D01*
X55420067Y-95332699D01*
X55222043Y-95392769D01*
X55111898Y-95451643D01*
X55039550Y-95490315D01*
X55039548Y-95490316D01*
X55039547Y-95490317D01*
X54879589Y-95621589D01*
X54748317Y-95781547D01*
X54650769Y-95964043D01*
X54650768Y-95964045D01*
X54650768Y-95964046D01*
X54647238Y-95975682D01*
X54590699Y-96162067D01*
X54570417Y-96367999D01*
X54590699Y-96573932D01*
X54611046Y-96641006D01*
X54646069Y-96756464D01*
X54650769Y-96771956D01*
X54659068Y-96787482D01*
X54673524Y-96814528D01*
X54715309Y-96892700D01*
X54729551Y-96961103D01*
X54704551Y-97026347D01*
X54648247Y-97067718D01*
X54578513Y-97072080D01*
X54518270Y-97038835D01*
X53439819Y-95960384D01*
X53406334Y-95899061D01*
X53403500Y-95872703D01*
X53403500Y-95098000D01*
X57110417Y-95098000D01*
X57130699Y-95303932D01*
X57139426Y-95332700D01*
X57190768Y-95501954D01*
X57288315Y-95684450D01*
X57288317Y-95684452D01*
X57419589Y-95844410D01*
X57509393Y-95918109D01*
X57579550Y-95975685D01*
X57762046Y-96073232D01*
X57960066Y-96133300D01*
X57960065Y-96133300D01*
X57978529Y-96135118D01*
X58166000Y-96153583D01*
X58371934Y-96133300D01*
X58569954Y-96073232D01*
X58752450Y-95975685D01*
X58912410Y-95844410D01*
X59043685Y-95684450D01*
X59141232Y-95501954D01*
X59201300Y-95303934D01*
X59221583Y-95098000D01*
X59201300Y-94892066D01*
X59141232Y-94694046D01*
X59043685Y-94511550D01*
X58963998Y-94414450D01*
X58912410Y-94351589D01*
X58794677Y-94254969D01*
X58752450Y-94220315D01*
X58569954Y-94122768D01*
X58371934Y-94062700D01*
X58371932Y-94062699D01*
X58371934Y-94062699D01*
X58184463Y-94044235D01*
X58166000Y-94042417D01*
X58165999Y-94042417D01*
X57960067Y-94062699D01*
X57762043Y-94122769D01*
X57651898Y-94181643D01*
X57579550Y-94220315D01*
X57579548Y-94220316D01*
X57579547Y-94220317D01*
X57419589Y-94351589D01*
X57288317Y-94511547D01*
X57190769Y-94694043D01*
X57130699Y-94892067D01*
X57110417Y-95098000D01*
X53403500Y-95098000D01*
X53403500Y-93828000D01*
X54570417Y-93828000D01*
X54590699Y-94033932D01*
X54599426Y-94062700D01*
X54650768Y-94231954D01*
X54748315Y-94414450D01*
X54748317Y-94414452D01*
X54879589Y-94574410D01*
X54976209Y-94653702D01*
X55039550Y-94705685D01*
X55222046Y-94803232D01*
X55420066Y-94863300D01*
X55420065Y-94863300D01*
X55440347Y-94865297D01*
X55626000Y-94883583D01*
X55831934Y-94863300D01*
X56029954Y-94803232D01*
X56212450Y-94705685D01*
X56372410Y-94574410D01*
X56503685Y-94414450D01*
X56601232Y-94231954D01*
X56661300Y-94033934D01*
X56681583Y-93828000D01*
X56661300Y-93622066D01*
X56601232Y-93424046D01*
X56503685Y-93241550D01*
X56423998Y-93144450D01*
X56372410Y-93081589D01*
X56254677Y-92984969D01*
X56212450Y-92950315D01*
X56029954Y-92852768D01*
X55831934Y-92792700D01*
X55831932Y-92792699D01*
X55831934Y-92792699D01*
X55644463Y-92774235D01*
X55626000Y-92772417D01*
X55625999Y-92772417D01*
X55420067Y-92792699D01*
X55222043Y-92852769D01*
X55111898Y-92911643D01*
X55039550Y-92950315D01*
X55039548Y-92950316D01*
X55039547Y-92950317D01*
X54879589Y-93081589D01*
X54748317Y-93241547D01*
X54650769Y-93424043D01*
X54590699Y-93622067D01*
X54570417Y-93828000D01*
X53403500Y-93828000D01*
X53403500Y-92557999D01*
X57110417Y-92557999D01*
X57130699Y-92763932D01*
X57139426Y-92792700D01*
X57190768Y-92961954D01*
X57288315Y-93144450D01*
X57288317Y-93144452D01*
X57419589Y-93304410D01*
X57516209Y-93383702D01*
X57579550Y-93435685D01*
X57762046Y-93533232D01*
X57960066Y-93593300D01*
X57960065Y-93593300D01*
X57978529Y-93595118D01*
X58166000Y-93613583D01*
X58371934Y-93593300D01*
X58569954Y-93533232D01*
X58752450Y-93435685D01*
X58912410Y-93304410D01*
X59043685Y-93144450D01*
X59141232Y-92961954D01*
X59201300Y-92763934D01*
X59221583Y-92558000D01*
X59201300Y-92352066D01*
X59141232Y-92154046D01*
X59043685Y-91971550D01*
X58955616Y-91864237D01*
X58912410Y-91811589D01*
X58794677Y-91714969D01*
X58752450Y-91680315D01*
X58569954Y-91582768D01*
X58371934Y-91522700D01*
X58371932Y-91522699D01*
X58371934Y-91522699D01*
X58166000Y-91502417D01*
X57960067Y-91522699D01*
X57762043Y-91582769D01*
X57651898Y-91641643D01*
X57579550Y-91680315D01*
X57579548Y-91680316D01*
X57579547Y-91680317D01*
X57419589Y-91811589D01*
X57288317Y-91971547D01*
X57190769Y-92154043D01*
X57130699Y-92352067D01*
X57110417Y-92557999D01*
X53403500Y-92557999D01*
X53403500Y-92507494D01*
X53423185Y-92440455D01*
X53439819Y-92419813D01*
X53934813Y-91924819D01*
X53996136Y-91891334D01*
X54022494Y-91888500D01*
X54701197Y-91888500D01*
X54768236Y-91908185D01*
X54797050Y-91933835D01*
X54828002Y-91971550D01*
X54879590Y-92034410D01*
X55039550Y-92165685D01*
X55222046Y-92263232D01*
X55420066Y-92323300D01*
X55420065Y-92323300D01*
X55438529Y-92325118D01*
X55626000Y-92343583D01*
X55831934Y-92323300D01*
X56029954Y-92263232D01*
X56212450Y-92165685D01*
X56372410Y-92034410D01*
X56503685Y-91874450D01*
X56601232Y-91691954D01*
X56661300Y-91493934D01*
X56681583Y-91288000D01*
X56661300Y-91082066D01*
X56601232Y-90884046D01*
X56503685Y-90701550D01*
X56451702Y-90638209D01*
X56372410Y-90541589D01*
X56254677Y-90444969D01*
X56212450Y-90410315D01*
X56029954Y-90312768D01*
X55831934Y-90252700D01*
X55831932Y-90252699D01*
X55831934Y-90252699D01*
X55626000Y-90232417D01*
X55420067Y-90252699D01*
X55297494Y-90289881D01*
X55248511Y-90304740D01*
X55178645Y-90305363D01*
X55119532Y-90268115D01*
X55089941Y-90204820D01*
X55099268Y-90135576D01*
X55124836Y-90098398D01*
X55205234Y-90018000D01*
X57110417Y-90018000D01*
X57130699Y-90223932D01*
X57139426Y-90252700D01*
X57190768Y-90421954D01*
X57288315Y-90604450D01*
X57288317Y-90604452D01*
X57419589Y-90764410D01*
X57516209Y-90843702D01*
X57579550Y-90895685D01*
X57762046Y-90993232D01*
X57960066Y-91053300D01*
X57960065Y-91053300D01*
X57980347Y-91055297D01*
X58166000Y-91073583D01*
X58371934Y-91053300D01*
X58569954Y-90993232D01*
X58752450Y-90895685D01*
X58912410Y-90764410D01*
X59043685Y-90604450D01*
X59141232Y-90421954D01*
X59201300Y-90223934D01*
X59221583Y-90018000D01*
X59201300Y-89812066D01*
X59141232Y-89614046D01*
X59043685Y-89431550D01*
X58991702Y-89368209D01*
X58912410Y-89271589D01*
X58794677Y-89174969D01*
X58752450Y-89140315D01*
X58569954Y-89042768D01*
X58371934Y-88982700D01*
X58371932Y-88982699D01*
X58371934Y-88982699D01*
X58166000Y-88962417D01*
X57960067Y-88982699D01*
X57762043Y-89042769D01*
X57693191Y-89079572D01*
X57579550Y-89140315D01*
X57579548Y-89140316D01*
X57579547Y-89140317D01*
X57419589Y-89271589D01*
X57288317Y-89431547D01*
X57288315Y-89431550D01*
X57276521Y-89453615D01*
X57190769Y-89614043D01*
X57130699Y-89812067D01*
X57110417Y-90018000D01*
X55205234Y-90018000D01*
X55244735Y-89978499D01*
X55396684Y-89826549D01*
X55458005Y-89793066D01*
X55496513Y-89790829D01*
X55626000Y-89803583D01*
X55831934Y-89783300D01*
X56029954Y-89723232D01*
X56212450Y-89625685D01*
X56372410Y-89494410D01*
X56503685Y-89334450D01*
X56601232Y-89151954D01*
X56661300Y-88953934D01*
X56681583Y-88748000D01*
X56661300Y-88542066D01*
X56601232Y-88344046D01*
X56503685Y-88161550D01*
X56435643Y-88078640D01*
X56372410Y-88001589D01*
X56212452Y-87870317D01*
X56212453Y-87870317D01*
X56212450Y-87870315D01*
X56029954Y-87772768D01*
X55831934Y-87712700D01*
X55831932Y-87712699D01*
X55831934Y-87712699D01*
X55644463Y-87694235D01*
X55626000Y-87692417D01*
X55625999Y-87692417D01*
X55420067Y-87712699D01*
X55222043Y-87772769D01*
X55111898Y-87831643D01*
X55039550Y-87870315D01*
X55039548Y-87870316D01*
X55039547Y-87870317D01*
X54879589Y-88001589D01*
X54748317Y-88161547D01*
X54650769Y-88344043D01*
X54590699Y-88542067D01*
X54570417Y-88748000D01*
X54583169Y-88877482D01*
X54570150Y-88946128D01*
X54547447Y-88977316D01*
X51959096Y-91565668D01*
X51952994Y-91571019D01*
X51924720Y-91592715D01*
X51829904Y-91716282D01*
X51828464Y-91718158D01*
X51828463Y-91718160D01*
X51767956Y-91864237D01*
X51767955Y-91864239D01*
X51753828Y-91971550D01*
X51747318Y-92021000D01*
X51749083Y-92034410D01*
X51751969Y-92056326D01*
X51752500Y-92064428D01*
X51752500Y-96315771D01*
X51751969Y-96323873D01*
X51747318Y-96359199D01*
X51747318Y-96359200D01*
X45228970Y-96359200D01*
X45221061Y-96343316D01*
X45221056Y-96343308D01*
X45086979Y-96165761D01*
X44922562Y-96015876D01*
X44922560Y-96015874D01*
X44733404Y-95898754D01*
X44733398Y-95898752D01*
X44525940Y-95818382D01*
X44307243Y-95777500D01*
X44084757Y-95777500D01*
X43866060Y-95818382D01*
X43734864Y-95869207D01*
X43658601Y-95898752D01*
X43658595Y-95898754D01*
X43469439Y-96015874D01*
X43469437Y-96015876D01*
X43305020Y-96165761D01*
X43170943Y-96343308D01*
X43170938Y-96343316D01*
X43071775Y-96542461D01*
X43071769Y-96542476D01*
X43010885Y-96756462D01*
X43010884Y-96756464D01*
X42990357Y-96977999D01*
X42990357Y-96978000D01*
X38354500Y-96978000D01*
X38354500Y-89408000D01*
X44780357Y-89408000D01*
X44800884Y-89629535D01*
X44800885Y-89629537D01*
X44861769Y-89843523D01*
X44861775Y-89843538D01*
X44960938Y-90042683D01*
X44960943Y-90042691D01*
X45095020Y-90220238D01*
X45259437Y-90370123D01*
X45259439Y-90370125D01*
X45448595Y-90487245D01*
X45448596Y-90487245D01*
X45448599Y-90487247D01*
X45656060Y-90567618D01*
X45874757Y-90608500D01*
X45874759Y-90608500D01*
X46097241Y-90608500D01*
X46097243Y-90608500D01*
X46315940Y-90567618D01*
X46523401Y-90487247D01*
X46712562Y-90370124D01*
X46863619Y-90232417D01*
X46876979Y-90220238D01*
X46888623Y-90204820D01*
X47011058Y-90042689D01*
X47110229Y-89843528D01*
X47171115Y-89629536D01*
X47191643Y-89408000D01*
X47173745Y-89214853D01*
X47187160Y-89146287D01*
X47235517Y-89095855D01*
X47303463Y-89079572D01*
X47369425Y-89102609D01*
X47392759Y-89124374D01*
X47449606Y-89193090D01*
X47449608Y-89193092D01*
X47449610Y-89193094D01*
X47669821Y-89399886D01*
X47678968Y-89408476D01*
X47678978Y-89408484D01*
X47933504Y-89593408D01*
X47933509Y-89593410D01*
X47933516Y-89593416D01*
X48209234Y-89744994D01*
X48209239Y-89744996D01*
X48209241Y-89744997D01*
X48209242Y-89744998D01*
X48501771Y-89860818D01*
X48501774Y-89860819D01*
X48806523Y-89939065D01*
X48806527Y-89939066D01*
X48872010Y-89947338D01*
X49118670Y-89978499D01*
X49118679Y-89978499D01*
X49118682Y-89978500D01*
X49118684Y-89978500D01*
X49433316Y-89978500D01*
X49433318Y-89978500D01*
X49433321Y-89978499D01*
X49433329Y-89978499D01*
X49619593Y-89954968D01*
X49745473Y-89939066D01*
X50050225Y-89860819D01*
X50093872Y-89843538D01*
X50342757Y-89744998D01*
X50342758Y-89744997D01*
X50342756Y-89744997D01*
X50342766Y-89744994D01*
X50618484Y-89593416D01*
X50873030Y-89408478D01*
X51102390Y-89193094D01*
X51302947Y-88950663D01*
X51471537Y-88685007D01*
X51605503Y-88400315D01*
X51702731Y-88101079D01*
X51761688Y-87792015D01*
X51767954Y-87692417D01*
X51781444Y-87478005D01*
X51781444Y-87477994D01*
X51761689Y-87163995D01*
X51761688Y-87163988D01*
X51761688Y-87163985D01*
X51702731Y-86854921D01*
X51605503Y-86555685D01*
X51513421Y-86360002D01*
X72392677Y-86360002D01*
X72411929Y-86580062D01*
X72411930Y-86580070D01*
X72469104Y-86793445D01*
X72469105Y-86793447D01*
X72469106Y-86793450D01*
X72502541Y-86865151D01*
X72562466Y-86993662D01*
X72562468Y-86993666D01*
X72681727Y-87163985D01*
X72689174Y-87174620D01*
X72845380Y-87330826D01*
X72845382Y-87330827D01*
X72845384Y-87330829D01*
X73026333Y-87457531D01*
X73026335Y-87457532D01*
X73026338Y-87457534D01*
X73226550Y-87550894D01*
X73439932Y-87608070D01*
X73597123Y-87621822D01*
X73659998Y-87627323D01*
X73660000Y-87627323D01*
X73660002Y-87627323D01*
X73715017Y-87622509D01*
X73880068Y-87608070D01*
X74093450Y-87550894D01*
X74293662Y-87457534D01*
X74474620Y-87330826D01*
X74630826Y-87174620D01*
X74757534Y-86993662D01*
X74850894Y-86793450D01*
X74908070Y-86580068D01*
X74927323Y-86360000D01*
X74908070Y-86139932D01*
X74850894Y-85926550D01*
X74757534Y-85726339D01*
X74630826Y-85545380D01*
X74474620Y-85389174D01*
X74474616Y-85389171D01*
X74474615Y-85389170D01*
X74293666Y-85262468D01*
X74293662Y-85262466D01*
X74201233Y-85219366D01*
X74093450Y-85169106D01*
X74093447Y-85169105D01*
X74093445Y-85169104D01*
X73880070Y-85111930D01*
X73880062Y-85111929D01*
X73660002Y-85092677D01*
X73659998Y-85092677D01*
X73439937Y-85111929D01*
X73439929Y-85111930D01*
X73226554Y-85169104D01*
X73226548Y-85169107D01*
X73026340Y-85262465D01*
X73026338Y-85262466D01*
X72845377Y-85389175D01*
X72689175Y-85545377D01*
X72562466Y-85726338D01*
X72562465Y-85726340D01*
X72469107Y-85926548D01*
X72469104Y-85926554D01*
X72411930Y-86139929D01*
X72411929Y-86139937D01*
X72392677Y-86359997D01*
X72392677Y-86360002D01*
X51513421Y-86360002D01*
X51471537Y-86270993D01*
X51388367Y-86139937D01*
X51302948Y-86005338D01*
X51302945Y-86005334D01*
X51102393Y-85762909D01*
X51102391Y-85762907D01*
X50873031Y-85547523D01*
X50873021Y-85547515D01*
X50618495Y-85362591D01*
X50618488Y-85362586D01*
X50618484Y-85362584D01*
X50342766Y-85211006D01*
X50342763Y-85211004D01*
X50342758Y-85211002D01*
X50342757Y-85211001D01*
X50050228Y-85095181D01*
X50050225Y-85095180D01*
X49745476Y-85016934D01*
X49745463Y-85016932D01*
X49433329Y-84977500D01*
X49433318Y-84977500D01*
X49118682Y-84977500D01*
X49118670Y-84977500D01*
X48806536Y-85016932D01*
X48806523Y-85016934D01*
X48501774Y-85095180D01*
X48501771Y-85095181D01*
X48209242Y-85211001D01*
X48209241Y-85211002D01*
X47933516Y-85362584D01*
X47933504Y-85362591D01*
X47678978Y-85547515D01*
X47678968Y-85547523D01*
X47449608Y-85762907D01*
X47449606Y-85762909D01*
X47249054Y-86005334D01*
X47249051Y-86005338D01*
X47080464Y-86270990D01*
X47080461Y-86270996D01*
X46946499Y-86555678D01*
X46946497Y-86555683D01*
X46849270Y-86854916D01*
X46849269Y-86854920D01*
X46849269Y-86854921D01*
X46847318Y-86865151D01*
X46790311Y-87163988D01*
X46790310Y-87163995D01*
X46770556Y-87477994D01*
X46770556Y-87478005D01*
X46790310Y-87792004D01*
X46790311Y-87792011D01*
X46790312Y-87792015D01*
X46844989Y-88078645D01*
X46849270Y-88101083D01*
X46921198Y-88322454D01*
X46923193Y-88392295D01*
X46887113Y-88452128D01*
X46824412Y-88482956D01*
X46754997Y-88474991D01*
X46719730Y-88452410D01*
X46712562Y-88445876D01*
X46712560Y-88445874D01*
X46523404Y-88328754D01*
X46523398Y-88328752D01*
X46507141Y-88322454D01*
X46315940Y-88248382D01*
X46097243Y-88207500D01*
X45874757Y-88207500D01*
X45656060Y-88248382D01*
X45524864Y-88299207D01*
X45448601Y-88328752D01*
X45448595Y-88328754D01*
X45259439Y-88445874D01*
X45259437Y-88445876D01*
X45095020Y-88595761D01*
X44960943Y-88773308D01*
X44960938Y-88773316D01*
X44861775Y-88972461D01*
X44861769Y-88972476D01*
X44800885Y-89186462D01*
X44800884Y-89186464D01*
X44780357Y-89407999D01*
X44780357Y-89408000D01*
X38354500Y-89408000D01*
X38354500Y-85599437D01*
X38354566Y-85596574D01*
X38355204Y-85582758D01*
X38362494Y-85425070D01*
X38372601Y-85219349D01*
X38373117Y-85213867D01*
X38399247Y-85026550D01*
X38427505Y-84836054D01*
X38428476Y-84830978D01*
X38472433Y-84644084D01*
X38518611Y-84459733D01*
X38519957Y-84455128D01*
X38581376Y-84271881D01*
X38645107Y-84093769D01*
X38646710Y-84089755D01*
X38725078Y-83912268D01*
X38805770Y-83741660D01*
X38807637Y-83738028D01*
X38902293Y-83568087D01*
X38999230Y-83406358D01*
X39001221Y-83403254D01*
X39111373Y-83242453D01*
X39223712Y-83090983D01*
X39225748Y-83088389D01*
X39350442Y-82938226D01*
X39477140Y-82798436D01*
X39479172Y-82796302D01*
X39616302Y-82659172D01*
X39618436Y-82657140D01*
X39758226Y-82530442D01*
X39908389Y-82405748D01*
X39910983Y-82403712D01*
X40062453Y-82291373D01*
X40223254Y-82181221D01*
X40226358Y-82179230D01*
X40388087Y-82082293D01*
X40558028Y-81987637D01*
X40561650Y-81985775D01*
X40732262Y-81905081D01*
X40909755Y-81826710D01*
X40913769Y-81825107D01*
X41091881Y-81761376D01*
X41275128Y-81699957D01*
X41279733Y-81698611D01*
X41464084Y-81652433D01*
X41650979Y-81608476D01*
X41656049Y-81607505D01*
X41846467Y-81579258D01*
X42033869Y-81553117D01*
X42039349Y-81552601D01*
X42245087Y-81542494D01*
X42392152Y-81535694D01*
X42416575Y-81534566D01*
X42419438Y-81534500D01*
X138057199Y-81534500D01*
X138124238Y-81554185D01*
G37*
%TD.AperFunction*%
%TD*%
M02*
