M48
; DRILL file {KiCad 7.0.7} date 2023 November 04, Saturday 22:27:57
; FORMAT={-:-/ absolute / inch / decimal}
; #@! TF.CreationDate,2023-11-04T22:27:57-05:00
; #@! TF.GenerationSoftware,Kicad,Pcbnew,7.0.7
; #@! TF.FileFunction,Plated,1,2,PTH
FMAT,2
INCH
; #@! TA.AperFunction,Plated,PTH,ComponentDrill
T1C0.0276
; #@! TA.AperFunction,Plated,PTH,ComponentDrill
T2C0.0315
; #@! TA.AperFunction,Plated,PTH,ComponentDrill
T3C0.0350
; #@! TA.AperFunction,Plated,PTH,ComponentDrill
T4C0.0354
; #@! TA.AperFunction,Plated,PTH,ComponentDrill
T5C0.0402
; #@! TA.AperFunction,Plated,PTH,ComponentDrill
T6C0.0630
; #@! TA.AperFunction,Plated,PTH,ComponentDrill
T7C0.0787
; #@! TA.AperFunction,Plated,PTH,ComponentDrill
T8C0.1280
%
G90
G05
T1
X2.9806Y-4.0865
X2.9806Y-4.1652
X2.9806Y-4.2439
X3.0594Y-4.0865
X3.0594Y-4.1652
X3.0594Y-4.2439
T2
X2.47Y-3.99
X2.47Y-4.59
X2.57Y-3.99
X2.57Y-4.59
X2.67Y-3.99
X2.67Y-4.59
X2.77Y-3.99
X2.77Y-4.59
X2.87Y-3.99
X2.87Y-4.59
X2.97Y-3.99
X2.97Y-4.59
X3.07Y-3.99
X3.07Y-4.59
X3.17Y-3.99
X3.17Y-4.59
X3.27Y-3.99
X3.27Y-4.59
X3.37Y-3.99
X3.37Y-4.59
X3.47Y-3.99
X3.47Y-4.59
X3.57Y-3.99
X3.57Y-4.59
X3.67Y-3.99
X3.67Y-4.59
X3.77Y-3.99
X3.77Y-4.59
X3.87Y-3.99
X3.87Y-4.59
X3.97Y-3.99
X3.97Y-4.59
X4.07Y-3.99
X4.07Y-4.59
X4.17Y-3.99
X4.17Y-4.59
X4.27Y-3.99
X4.27Y-4.59
X4.37Y-3.99
X4.37Y-4.59
X4.47Y-3.99
X4.47Y-4.59
X4.57Y-3.99
X4.57Y-4.59
X4.67Y-3.99
X4.67Y-4.59
X4.77Y-3.99
X4.77Y-4.59
T3
X4.05Y-3.825
X4.15Y-3.825
X4.25Y-3.825
T4
X2.19Y-3.494
X2.19Y-3.594
X2.19Y-3.694
X2.19Y-3.794
X2.29Y-3.544
X2.29Y-3.644
X2.29Y-3.744
X2.29Y-3.844
X2.9Y-3.4
X3.0Y-3.4
X3.1Y-3.4
X3.2Y-3.4
X3.3Y-3.4
X3.4Y-3.4
X3.5Y-3.4
X3.6Y-3.4
X3.7Y-3.4
X4.55Y-3.4
X4.65Y-3.4
X4.75Y-3.4
X4.85Y-3.4
X4.95Y-3.4
X5.05Y-3.4
X5.15Y-3.4
T5
X1.74Y-3.42
X1.74Y-3.818
X1.8105Y-3.52
X1.8105Y-3.918
T6
X2.0601Y-3.359
X2.0601Y-3.9791
T8
X1.94Y-3.444
X1.94Y-3.894
T7
G00X4.9526Y-4.1263
M15
G01X4.9526Y-4.0437
M16
G05
G00X4.9526Y-4.4363
M15
G01X4.9526Y-4.3537
M16
G05
T0
M30
