M48
; DRILL file {KiCad (6.0.7)} date Sat Apr 22 03:18:25 2023
; FORMAT={-:-/ absolute / metric / decimal}
; #@! TF.CreationDate,2023-04-22T03:18:25-05:00
; #@! TF.GenerationSoftware,Kicad,Pcbnew,(6.0.7)
; #@! TF.FileFunction,Plated,1,2,PTH
FMAT,2
METRIC
; #@! TA.AperFunction,Plated,PTH,ViaDrill
T1C0.400
; #@! TA.AperFunction,Plated,PTH,ComponentDrill
T2C0.600
; #@! TA.AperFunction,Plated,PTH,ComponentDrill
T3C0.750
; #@! TA.AperFunction,Plated,PTH,ComponentDrill
T4C1.090
%
G90
G05
T1
X105.41Y-73.406
X107.188Y-62.23
X109.982Y-62.23
X112.395Y-62.22
X113.538Y-71.374
X118.618Y-71.374
T2
X95.857Y-59.69
X95.857Y-69.85
X98.397Y-59.69
X98.397Y-69.85
X100.937Y-59.69
X100.937Y-69.85
X103.477Y-59.69
X103.477Y-69.85
X106.017Y-59.69
X106.017Y-69.85
X108.557Y-59.69
X108.557Y-69.85
X111.097Y-59.69
X111.097Y-69.85
X113.637Y-59.69
X113.637Y-69.85
X116.177Y-59.69
X116.177Y-69.85
X118.717Y-59.69
X118.717Y-69.85
X121.257Y-59.69
X121.257Y-69.85
T3
X100.224Y-73.914
X100.224Y-76.454
X101.494Y-75.184
T4
X102.235Y-54.725
X104.775Y-54.725
X107.315Y-54.725
X109.855Y-54.725
X112.395Y-54.725
X114.935Y-54.725
T0
M30
