G04 #@! TF.GenerationSoftware,KiCad,Pcbnew,(6.0.7)*
G04 #@! TF.CreationDate,2023-04-22T03:18:15-05:00*
G04 #@! TF.ProjectId,CCD_Board,4343445f-426f-4617-9264-2e6b69636164,rev?*
G04 #@! TF.SameCoordinates,Original*
G04 #@! TF.FileFunction,Soldermask,Top*
G04 #@! TF.FilePolarity,Negative*
%FSLAX46Y46*%
G04 Gerber Fmt 4.6, Leading zero omitted, Abs format (unit mm)*
G04 Created by KiCad (PCBNEW (6.0.7)) date 2023-04-22 03:18:15*
%MOMM*%
%LPD*%
G01*
G04 APERTURE LIST*
G04 Aperture macros list*
%AMRoundRect*
0 Rectangle with rounded corners*
0 $1 Rounding radius*
0 $2 $3 $4 $5 $6 $7 $8 $9 X,Y pos of 4 corners*
0 Add a 4 corners polygon primitive as box body*
4,1,4,$2,$3,$4,$5,$6,$7,$8,$9,$2,$3,0*
0 Add four circle primitives for the rounded corners*
1,1,$1+$1,$2,$3*
1,1,$1+$1,$4,$5*
1,1,$1+$1,$6,$7*
1,1,$1+$1,$8,$9*
0 Add four rect primitives between the rounded corners*
20,1,$1+$1,$2,$3,$4,$5,0*
20,1,$1+$1,$4,$5,$6,$7,0*
20,1,$1+$1,$6,$7,$8,$9,0*
20,1,$1+$1,$8,$9,$2,$3,0*%
G04 Aperture macros list end*
%ADD10C,2.946400*%
%ADD11RoundRect,0.200000X-0.275000X0.200000X-0.275000X-0.200000X0.275000X-0.200000X0.275000X0.200000X0*%
%ADD12RoundRect,0.200000X0.275000X-0.200000X0.275000X0.200000X-0.275000X0.200000X-0.275000X-0.200000X0*%
%ADD13R,1.300000X1.300000*%
%ADD14C,1.300000*%
%ADD15RoundRect,0.225000X-0.250000X0.225000X-0.250000X-0.225000X0.250000X-0.225000X0.250000X0.225000X0*%
%ADD16RoundRect,0.150000X-0.150000X0.825000X-0.150000X-0.825000X0.150000X-0.825000X0.150000X0.825000X0*%
%ADD17RoundRect,0.250000X0.620000X0.620000X-0.620000X0.620000X-0.620000X-0.620000X0.620000X-0.620000X0*%
%ADD18C,1.740000*%
%ADD19C,1.200000*%
G04 APERTURE END LIST*
D10*
X89452580Y-75647420D03*
D11*
X97790000Y-53150000D03*
X97790000Y-54800000D03*
D12*
X107188000Y-76771000D03*
X107188000Y-75121000D03*
D13*
X100224000Y-73914000D03*
D14*
X101494000Y-75184000D03*
X100224000Y-76454000D03*
D10*
X89452580Y-53892580D03*
X127717420Y-53892580D03*
D15*
X110490000Y-74930000D03*
X110490000Y-76480000D03*
D16*
X120015000Y-73090000D03*
X118745000Y-73090000D03*
X117475000Y-73090000D03*
X116205000Y-73090000D03*
X114935000Y-73090000D03*
X113665000Y-73090000D03*
X112395000Y-73090000D03*
X112395000Y-78040000D03*
X113665000Y-78040000D03*
X114935000Y-78040000D03*
X116205000Y-78040000D03*
X117475000Y-78040000D03*
X118745000Y-78040000D03*
X120015000Y-78040000D03*
D11*
X97303000Y-75184000D03*
X97303000Y-76834000D03*
D10*
X127717420Y-75647420D03*
D17*
X114935000Y-54725000D03*
D18*
X112395000Y-54725000D03*
X109855000Y-54725000D03*
X107315000Y-54725000D03*
X104775000Y-54725000D03*
X102235000Y-54725000D03*
D19*
X95857000Y-59690000D03*
X98397000Y-59690000D03*
X100937000Y-59690000D03*
X103477000Y-59690000D03*
X106017000Y-59690000D03*
X108557000Y-59690000D03*
X111097000Y-59690000D03*
X113637000Y-59690000D03*
X116177000Y-59690000D03*
X118717000Y-59690000D03*
X121257000Y-59690000D03*
X121257000Y-69850000D03*
X118717000Y-69850000D03*
X116177000Y-69850000D03*
X113637000Y-69850000D03*
X111097000Y-69850000D03*
X108557000Y-69850000D03*
X106017000Y-69850000D03*
X103477000Y-69850000D03*
X100937000Y-69850000D03*
X98397000Y-69850000D03*
X95857000Y-69850000D03*
M02*
