G04 #@! TF.GenerationSoftware,KiCad,Pcbnew,(6.0.7)*
G04 #@! TF.CreationDate,2023-04-22T03:18:15-05:00*
G04 #@! TF.ProjectId,CCD_Board,4343445f-426f-4617-9264-2e6b69636164,rev?*
G04 #@! TF.SameCoordinates,Original*
G04 #@! TF.FileFunction,Copper,L1,Top*
G04 #@! TF.FilePolarity,Positive*
%FSLAX46Y46*%
G04 Gerber Fmt 4.6, Leading zero omitted, Abs format (unit mm)*
G04 Created by KiCad (PCBNEW (6.0.7)) date 2023-04-22 03:18:15*
%MOMM*%
%LPD*%
G01*
G04 APERTURE LIST*
G04 Aperture macros list*
%AMRoundRect*
0 Rectangle with rounded corners*
0 $1 Rounding radius*
0 $2 $3 $4 $5 $6 $7 $8 $9 X,Y pos of 4 corners*
0 Add a 4 corners polygon primitive as box body*
4,1,4,$2,$3,$4,$5,$6,$7,$8,$9,$2,$3,0*
0 Add four circle primitives for the rounded corners*
1,1,$1+$1,$2,$3*
1,1,$1+$1,$4,$5*
1,1,$1+$1,$6,$7*
1,1,$1+$1,$8,$9*
0 Add four rect primitives between the rounded corners*
20,1,$1+$1,$2,$3,$4,$5,0*
20,1,$1+$1,$4,$5,$6,$7,0*
20,1,$1+$1,$6,$7,$8,$9,0*
20,1,$1+$1,$8,$9,$2,$3,0*%
G04 Aperture macros list end*
G04 #@! TA.AperFunction,SMDPad,CuDef*
%ADD10RoundRect,0.200000X-0.275000X0.200000X-0.275000X-0.200000X0.275000X-0.200000X0.275000X0.200000X0*%
G04 #@! TD*
G04 #@! TA.AperFunction,SMDPad,CuDef*
%ADD11RoundRect,0.200000X0.275000X-0.200000X0.275000X0.200000X-0.275000X0.200000X-0.275000X-0.200000X0*%
G04 #@! TD*
G04 #@! TA.AperFunction,ComponentPad*
%ADD12R,1.300000X1.300000*%
G04 #@! TD*
G04 #@! TA.AperFunction,ComponentPad*
%ADD13C,1.300000*%
G04 #@! TD*
G04 #@! TA.AperFunction,SMDPad,CuDef*
%ADD14RoundRect,0.225000X-0.250000X0.225000X-0.250000X-0.225000X0.250000X-0.225000X0.250000X0.225000X0*%
G04 #@! TD*
G04 #@! TA.AperFunction,SMDPad,CuDef*
%ADD15RoundRect,0.150000X-0.150000X0.825000X-0.150000X-0.825000X0.150000X-0.825000X0.150000X0.825000X0*%
G04 #@! TD*
G04 #@! TA.AperFunction,ComponentPad*
%ADD16RoundRect,0.250000X0.620000X0.620000X-0.620000X0.620000X-0.620000X-0.620000X0.620000X-0.620000X0*%
G04 #@! TD*
G04 #@! TA.AperFunction,ComponentPad*
%ADD17C,1.740000*%
G04 #@! TD*
G04 #@! TA.AperFunction,ComponentPad*
%ADD18C,1.200000*%
G04 #@! TD*
G04 #@! TA.AperFunction,ViaPad*
%ADD19C,0.800000*%
G04 #@! TD*
G04 #@! TA.AperFunction,Conductor*
%ADD20C,0.250000*%
G04 #@! TD*
G04 APERTURE END LIST*
D10*
X97790000Y-53150000D03*
X97790000Y-54800000D03*
D11*
X107188000Y-76771000D03*
X107188000Y-75121000D03*
D12*
X100224000Y-73914000D03*
D13*
X101494000Y-75184000D03*
X100224000Y-76454000D03*
D14*
X110490000Y-74930000D03*
X110490000Y-76480000D03*
D15*
X120015000Y-73090000D03*
X118745000Y-73090000D03*
X117475000Y-73090000D03*
X116205000Y-73090000D03*
X114935000Y-73090000D03*
X113665000Y-73090000D03*
X112395000Y-73090000D03*
X112395000Y-78040000D03*
X113665000Y-78040000D03*
X114935000Y-78040000D03*
X116205000Y-78040000D03*
X117475000Y-78040000D03*
X118745000Y-78040000D03*
X120015000Y-78040000D03*
D10*
X97303000Y-75184000D03*
X97303000Y-76834000D03*
D16*
X114935000Y-54725000D03*
D17*
X112395000Y-54725000D03*
X109855000Y-54725000D03*
X107315000Y-54725000D03*
X104775000Y-54725000D03*
X102235000Y-54725000D03*
D18*
X95857000Y-59690000D03*
X98397000Y-59690000D03*
X100937000Y-59690000D03*
X103477000Y-59690000D03*
X106017000Y-59690000D03*
X108557000Y-59690000D03*
X111097000Y-59690000D03*
X113637000Y-59690000D03*
X116177000Y-59690000D03*
X118717000Y-59690000D03*
X121257000Y-59690000D03*
X121257000Y-69850000D03*
X118717000Y-69850000D03*
X116177000Y-69850000D03*
X113637000Y-69850000D03*
X111097000Y-69850000D03*
X108557000Y-69850000D03*
X106017000Y-69850000D03*
X103477000Y-69850000D03*
X100937000Y-69850000D03*
X98397000Y-69850000D03*
X95857000Y-69850000D03*
D19*
X105410000Y-73406000D03*
X112395000Y-62219852D03*
X109982000Y-62230000D03*
X107188000Y-62230000D03*
X118618000Y-71374000D03*
X113538000Y-71374000D03*
D20*
X114935000Y-54725000D02*
X113405000Y-56255000D01*
X116205000Y-78040000D02*
X116205000Y-77663249D01*
X118455000Y-76480000D02*
X117561751Y-76480000D01*
X108966000Y-75184000D02*
X108966000Y-71882000D01*
X113405000Y-56255000D02*
X113216278Y-56443722D01*
X112776000Y-56896000D02*
X113405000Y-56267000D01*
X118745000Y-77663249D02*
X117561751Y-76480000D01*
X98397000Y-56487000D02*
X98806000Y-56896000D01*
X118745000Y-78040000D02*
X118745000Y-77663249D01*
X106942000Y-68235000D02*
X106942000Y-69858000D01*
X108966000Y-71882000D02*
X106942000Y-69858000D01*
X98397000Y-59690000D02*
X106942000Y-68235000D01*
X120015000Y-78040000D02*
X118455000Y-76480000D01*
X116205000Y-77663249D02*
X115021751Y-76480000D01*
X113665000Y-77663249D02*
X112481751Y-76480000D01*
X113665000Y-78040000D02*
X113665000Y-77663249D01*
X112481751Y-76480000D02*
X110490000Y-76480000D01*
X98806000Y-56896000D02*
X112776000Y-56896000D01*
X95857000Y-59690000D02*
X98397000Y-59690000D01*
X115021751Y-76480000D02*
X112481751Y-76480000D01*
X110262000Y-76480000D02*
X108966000Y-75184000D01*
X97790000Y-55880000D02*
X98397000Y-56487000D01*
X110490000Y-76480000D02*
X110262000Y-76480000D01*
X117561751Y-76480000D02*
X115021751Y-76480000D01*
X97790000Y-54800000D02*
X97790000Y-55880000D01*
X113405000Y-56267000D02*
X113405000Y-56255000D01*
X98397000Y-56487000D02*
X98397000Y-59690000D01*
X120015000Y-73090000D02*
X120015000Y-69839852D01*
X120015000Y-69839852D02*
X112395000Y-62219852D01*
X117254120Y-69502120D02*
X117254120Y-72869120D01*
X109982000Y-62230000D02*
X117254120Y-69502120D01*
X117254120Y-72869120D02*
X117475000Y-73090000D01*
X107188000Y-62230000D02*
X107325148Y-62230000D01*
X114802000Y-69706852D02*
X114802000Y-72957000D01*
X114802000Y-72957000D02*
X114935000Y-73090000D01*
X107325148Y-62230000D02*
X114802000Y-69706852D01*
X99322000Y-73012000D02*
X99322000Y-67381500D01*
X94742000Y-55880000D02*
X97472000Y-53150000D01*
X103200000Y-53150000D02*
X104775000Y-54725000D01*
X94742000Y-62801500D02*
X94742000Y-55880000D01*
X97472000Y-53150000D02*
X97790000Y-53150000D01*
X100224000Y-73914000D02*
X99322000Y-73012000D01*
X99322000Y-67381500D02*
X94742000Y-62801500D01*
X97790000Y-53150000D02*
X103200000Y-53150000D01*
X107188000Y-76771000D02*
X105601000Y-75184000D01*
X105601000Y-75184000D02*
X101494000Y-75184000D01*
X97683000Y-76454000D02*
X97303000Y-76834000D01*
X100224000Y-76454000D02*
X97683000Y-76454000D01*
X97155000Y-71092000D02*
X97155000Y-74930000D01*
X98397000Y-69850000D02*
X97155000Y-71092000D01*
X112712000Y-70548000D02*
X113538000Y-71374000D01*
X112712000Y-68925000D02*
X112712000Y-70548000D01*
X118618000Y-71374000D02*
X118618000Y-72963000D01*
X118745000Y-72390000D02*
X118745000Y-73090000D01*
X118618000Y-72963000D02*
X118745000Y-73090000D01*
X103477000Y-59690000D02*
X112712000Y-68925000D01*
X106017000Y-59690000D02*
X115252000Y-68925000D01*
X115252000Y-68925000D02*
X115252000Y-71760249D01*
X115252000Y-71760249D02*
X116205000Y-72713249D01*
X116205000Y-72713249D02*
X116205000Y-73090000D01*
X111668000Y-71790000D02*
X112741751Y-71790000D01*
X113665000Y-72713249D02*
X113665000Y-73090000D01*
X100937000Y-59690000D02*
X110172000Y-68925000D01*
X112741751Y-71790000D02*
X113665000Y-72713249D01*
X110172000Y-70294000D02*
X111668000Y-71790000D01*
X110172000Y-68925000D02*
X110172000Y-70294000D01*
X100937000Y-59690000D02*
X100965000Y-59690000D01*
G04 #@! TA.AperFunction,Conductor*
G36*
X125608105Y-50312502D02*
G01*
X125654598Y-50366158D01*
X125664702Y-50436432D01*
X125635208Y-50501012D01*
X125605538Y-50526104D01*
X125481089Y-50601919D01*
X125165319Y-50840301D01*
X125163037Y-50842411D01*
X125163028Y-50842418D01*
X125003117Y-50990239D01*
X124874786Y-51108867D01*
X124872714Y-51111205D01*
X124872709Y-51111210D01*
X124614448Y-51402609D01*
X124614443Y-51402615D01*
X124612364Y-51404961D01*
X124380647Y-51725654D01*
X124181927Y-52067776D01*
X124180637Y-52070613D01*
X124180635Y-52070617D01*
X124019461Y-52425101D01*
X124018169Y-52427943D01*
X124017167Y-52430896D01*
X124017165Y-52430900D01*
X123983874Y-52528973D01*
X123890992Y-52802593D01*
X123801654Y-53188023D01*
X123779832Y-53357203D01*
X123753979Y-53557630D01*
X123751039Y-53580419D01*
X123739647Y-53975902D01*
X123739868Y-53979021D01*
X123739868Y-53979028D01*
X123763553Y-54313550D01*
X123767590Y-54370562D01*
X123834593Y-54760495D01*
X123835425Y-54763504D01*
X123835426Y-54763510D01*
X123887292Y-54951170D01*
X123939992Y-55141845D01*
X123941122Y-55144765D01*
X123941123Y-55144769D01*
X124081024Y-55506389D01*
X124082746Y-55510841D01*
X124084161Y-55513635D01*
X124084164Y-55513643D01*
X124249344Y-55839935D01*
X124261443Y-55863835D01*
X124263134Y-55866484D01*
X124263135Y-55866486D01*
X124402887Y-56085431D01*
X124474315Y-56197335D01*
X124719258Y-56508043D01*
X124721433Y-56510299D01*
X124721438Y-56510305D01*
X124831567Y-56624546D01*
X124993849Y-56792888D01*
X124996242Y-56794921D01*
X125292979Y-57047018D01*
X125292987Y-57047025D01*
X125295374Y-57049052D01*
X125297954Y-57050835D01*
X125618277Y-57272225D01*
X125618286Y-57272230D01*
X125620849Y-57274002D01*
X125623584Y-57275515D01*
X125623589Y-57275518D01*
X125709113Y-57322827D01*
X125967058Y-57465514D01*
X125969927Y-57466747D01*
X125969938Y-57466752D01*
X126327707Y-57620461D01*
X126330575Y-57621693D01*
X126333552Y-57622634D01*
X126333556Y-57622636D01*
X126462331Y-57663362D01*
X126707807Y-57740996D01*
X127095023Y-57822242D01*
X127098141Y-57822578D01*
X127485942Y-57864365D01*
X127485945Y-57864365D01*
X127488393Y-57864629D01*
X127490856Y-57864700D01*
X127490857Y-57864700D01*
X127494506Y-57864805D01*
X127545711Y-57866280D01*
X127816772Y-57866280D01*
X127818335Y-57866202D01*
X127818343Y-57866202D01*
X127914711Y-57861404D01*
X128112578Y-57851554D01*
X128115663Y-57851090D01*
X128115665Y-57851090D01*
X128500736Y-57793197D01*
X128503829Y-57792732D01*
X128705004Y-57741640D01*
X128884259Y-57696115D01*
X128884262Y-57696114D01*
X128887302Y-57695342D01*
X128997065Y-57655500D01*
X129256269Y-57561414D01*
X129256279Y-57561410D01*
X129259207Y-57560347D01*
X129615866Y-57389082D01*
X129953751Y-57183241D01*
X130269521Y-56944859D01*
X130271803Y-56942749D01*
X130271812Y-56942742D01*
X130480963Y-56749404D01*
X130560054Y-56676293D01*
X130590163Y-56642321D01*
X130820392Y-56382551D01*
X130820397Y-56382545D01*
X130822476Y-56380199D01*
X131054193Y-56059506D01*
X131082547Y-56010691D01*
X131134057Y-55961834D01*
X131203806Y-55948580D01*
X131269647Y-55975140D01*
X131310678Y-56033080D01*
X131317500Y-56073978D01*
X131317499Y-73470340D01*
X131297497Y-73538461D01*
X131243841Y-73584954D01*
X131173567Y-73595058D01*
X131108987Y-73565564D01*
X131085291Y-73538132D01*
X130965121Y-73349865D01*
X130960525Y-73342665D01*
X130715582Y-73031957D01*
X130713407Y-73029701D01*
X130713402Y-73029695D01*
X130525068Y-72834329D01*
X130440991Y-72747112D01*
X130302553Y-72629500D01*
X130141861Y-72492982D01*
X130141853Y-72492975D01*
X130139466Y-72490948D01*
X130000841Y-72395138D01*
X129816563Y-72267775D01*
X129816554Y-72267770D01*
X129813991Y-72265998D01*
X129811256Y-72264485D01*
X129811251Y-72264482D01*
X129594177Y-72144404D01*
X129467782Y-72074486D01*
X129464913Y-72073253D01*
X129464902Y-72073248D01*
X129107133Y-71919539D01*
X129107130Y-71919538D01*
X129104265Y-71918307D01*
X129101288Y-71917366D01*
X129101284Y-71917364D01*
X128935773Y-71865020D01*
X128727033Y-71799004D01*
X128684259Y-71790029D01*
X128403228Y-71731063D01*
X128339817Y-71717758D01*
X128321943Y-71715832D01*
X127948898Y-71675635D01*
X127948895Y-71675635D01*
X127946447Y-71675371D01*
X127943984Y-71675300D01*
X127943983Y-71675300D01*
X127940334Y-71675195D01*
X127889129Y-71673720D01*
X127618068Y-71673720D01*
X127616505Y-71673798D01*
X127616497Y-71673798D01*
X127520129Y-71678596D01*
X127322262Y-71688446D01*
X127319177Y-71688910D01*
X127319175Y-71688910D01*
X126972232Y-71741071D01*
X126931011Y-71747268D01*
X126927976Y-71748039D01*
X126927975Y-71748039D01*
X126550581Y-71843885D01*
X126550578Y-71843886D01*
X126547538Y-71844658D01*
X126544591Y-71845728D01*
X126544590Y-71845728D01*
X126178571Y-71978586D01*
X126178561Y-71978590D01*
X126175633Y-71979653D01*
X125818974Y-72150918D01*
X125481089Y-72356759D01*
X125165319Y-72595141D01*
X125163037Y-72597251D01*
X125163028Y-72597258D01*
X124991844Y-72755500D01*
X124874786Y-72863707D01*
X124872714Y-72866045D01*
X124872709Y-72866050D01*
X124614448Y-73157449D01*
X124614443Y-73157455D01*
X124612364Y-73159801D01*
X124380647Y-73480494D01*
X124181927Y-73822616D01*
X124180637Y-73825453D01*
X124180635Y-73825457D01*
X124045804Y-74122002D01*
X124018169Y-74182783D01*
X124017167Y-74185736D01*
X124017165Y-74185740D01*
X124005921Y-74218865D01*
X123890992Y-74557433D01*
X123867320Y-74659562D01*
X123804575Y-74930263D01*
X123801654Y-74942863D01*
X123784980Y-75072131D01*
X123752662Y-75322680D01*
X123751039Y-75335259D01*
X123739647Y-75730742D01*
X123739868Y-75733861D01*
X123739868Y-75733868D01*
X123758690Y-75999705D01*
X123767590Y-76125402D01*
X123834593Y-76515335D01*
X123835425Y-76518344D01*
X123835426Y-76518350D01*
X123846643Y-76558933D01*
X123939992Y-76896685D01*
X123941122Y-76899605D01*
X123941123Y-76899609D01*
X124079562Y-77257450D01*
X124082746Y-77265681D01*
X124084161Y-77268475D01*
X124084164Y-77268483D01*
X124260024Y-77615872D01*
X124261443Y-77618675D01*
X124263134Y-77621324D01*
X124263135Y-77621326D01*
X124336564Y-77736365D01*
X124474315Y-77952175D01*
X124719258Y-78262883D01*
X124721433Y-78265139D01*
X124721438Y-78265145D01*
X124771597Y-78317177D01*
X124993849Y-78547728D01*
X124996242Y-78549761D01*
X125292979Y-78801858D01*
X125292987Y-78801865D01*
X125295374Y-78803892D01*
X125534021Y-78968831D01*
X125615749Y-79025317D01*
X125660415Y-79080503D01*
X125668156Y-79151076D01*
X125636512Y-79214631D01*
X125575532Y-79250989D01*
X125544085Y-79254970D01*
X124751957Y-79254806D01*
X120905500Y-79254011D01*
X120837383Y-79233995D01*
X120790902Y-79180330D01*
X120780812Y-79110054D01*
X120784529Y-79092858D01*
X120785093Y-79090916D01*
X120820562Y-78968831D01*
X120822983Y-78938081D01*
X120823307Y-78933958D01*
X120823307Y-78933950D01*
X120823500Y-78931502D01*
X120823500Y-77148498D01*
X120822320Y-77133502D01*
X120821067Y-77117579D01*
X120821066Y-77117574D01*
X120820562Y-77111169D01*
X120774145Y-76951399D01*
X120756614Y-76921755D01*
X120693491Y-76815020D01*
X120693489Y-76815017D01*
X120689453Y-76808193D01*
X120571807Y-76690547D01*
X120564983Y-76686511D01*
X120564980Y-76686509D01*
X120435427Y-76609892D01*
X120435428Y-76609892D01*
X120428601Y-76605855D01*
X120420990Y-76603644D01*
X120420988Y-76603643D01*
X120351657Y-76583501D01*
X120268831Y-76559438D01*
X120262426Y-76558934D01*
X120262421Y-76558933D01*
X120233958Y-76556693D01*
X120233950Y-76556693D01*
X120231502Y-76556500D01*
X119798498Y-76556500D01*
X119796050Y-76556693D01*
X119796042Y-76556693D01*
X119767579Y-76558933D01*
X119767574Y-76558934D01*
X119761169Y-76559438D01*
X119678343Y-76583501D01*
X119609012Y-76603643D01*
X119609010Y-76603644D01*
X119601399Y-76605855D01*
X119594574Y-76609892D01*
X119593750Y-76610248D01*
X119523288Y-76618946D01*
X119454612Y-76583707D01*
X118958652Y-76087747D01*
X118951112Y-76079461D01*
X118947000Y-76072982D01*
X118897348Y-76026356D01*
X118894507Y-76023602D01*
X118874770Y-76003865D01*
X118871573Y-76001385D01*
X118862551Y-75993680D01*
X118850344Y-75982217D01*
X118830321Y-75963414D01*
X118823375Y-75959595D01*
X118823372Y-75959593D01*
X118812566Y-75953652D01*
X118796047Y-75942801D01*
X118795583Y-75942441D01*
X118780041Y-75930386D01*
X118772772Y-75927241D01*
X118772768Y-75927238D01*
X118739463Y-75912826D01*
X118728813Y-75907609D01*
X118690060Y-75886305D01*
X118670437Y-75881267D01*
X118651734Y-75874863D01*
X118640420Y-75869967D01*
X118640419Y-75869967D01*
X118633145Y-75866819D01*
X118625322Y-75865580D01*
X118625312Y-75865577D01*
X118589476Y-75859901D01*
X118577856Y-75857495D01*
X118542711Y-75848472D01*
X118542710Y-75848472D01*
X118535030Y-75846500D01*
X118514776Y-75846500D01*
X118495065Y-75844949D01*
X118482886Y-75843020D01*
X118475057Y-75841780D01*
X118467165Y-75842526D01*
X118431039Y-75845941D01*
X118419181Y-75846500D01*
X117621527Y-75846500D01*
X117601816Y-75844949D01*
X117589637Y-75843020D01*
X117581808Y-75841780D01*
X117573916Y-75842526D01*
X117537790Y-75845941D01*
X117525932Y-75846500D01*
X115081527Y-75846500D01*
X115061816Y-75844949D01*
X115049637Y-75843020D01*
X115041808Y-75841780D01*
X115033916Y-75842526D01*
X114997790Y-75845941D01*
X114985932Y-75846500D01*
X112541527Y-75846500D01*
X112521816Y-75844949D01*
X112509637Y-75843020D01*
X112501808Y-75841780D01*
X112493916Y-75842526D01*
X112457790Y-75845941D01*
X112445932Y-75846500D01*
X111418379Y-75846500D01*
X111350258Y-75826498D01*
X111321116Y-75800106D01*
X111318752Y-75796287D01*
X111313568Y-75791112D01*
X111309022Y-75785376D01*
X111310829Y-75783944D01*
X111282098Y-75731425D01*
X111287108Y-75660605D01*
X111310499Y-75624147D01*
X111309448Y-75623317D01*
X111322998Y-75606160D01*
X111405004Y-75473120D01*
X111411151Y-75459939D01*
X111460491Y-75311186D01*
X111463358Y-75297810D01*
X111472672Y-75206903D01*
X111472929Y-75201874D01*
X111468525Y-75186876D01*
X111467135Y-75185671D01*
X111459452Y-75184000D01*
X110362000Y-75184000D01*
X110293879Y-75163998D01*
X110247386Y-75110342D01*
X110236000Y-75058000D01*
X110236000Y-74657885D01*
X110744000Y-74657885D01*
X110748475Y-74673124D01*
X110749865Y-74674329D01*
X110757548Y-74676000D01*
X111454885Y-74676000D01*
X111470124Y-74671525D01*
X111471329Y-74670135D01*
X111473000Y-74662452D01*
X111473000Y-74659562D01*
X111472663Y-74653047D01*
X111463106Y-74560943D01*
X111460212Y-74547544D01*
X111410619Y-74398893D01*
X111404445Y-74385714D01*
X111322212Y-74252827D01*
X111313176Y-74241426D01*
X111202571Y-74131014D01*
X111191160Y-74122002D01*
X111058120Y-74039996D01*
X111044939Y-74033849D01*
X110896186Y-73984509D01*
X110882810Y-73981642D01*
X110856867Y-73978984D01*
X111587001Y-73978984D01*
X111587195Y-73983920D01*
X111589430Y-74012336D01*
X111591730Y-74024931D01*
X111634107Y-74170790D01*
X111640352Y-74185221D01*
X111716911Y-74314678D01*
X111726551Y-74327104D01*
X111832896Y-74433449D01*
X111845322Y-74443089D01*
X111974779Y-74519648D01*
X111989210Y-74525893D01*
X112123605Y-74564939D01*
X112137706Y-74564899D01*
X112141000Y-74557630D01*
X112141000Y-73362115D01*
X112136525Y-73346876D01*
X112135135Y-73345671D01*
X112127452Y-73344000D01*
X111605116Y-73344000D01*
X111589877Y-73348475D01*
X111588672Y-73349865D01*
X111587001Y-73357548D01*
X111587001Y-73978984D01*
X110856867Y-73978984D01*
X110791903Y-73972328D01*
X110785486Y-73972000D01*
X110762115Y-73972000D01*
X110746876Y-73976475D01*
X110745671Y-73977865D01*
X110744000Y-73985548D01*
X110744000Y-74657885D01*
X110236000Y-74657885D01*
X110236000Y-73990115D01*
X110231525Y-73974876D01*
X110230135Y-73973671D01*
X110222452Y-73972000D01*
X110194562Y-73972000D01*
X110188047Y-73972337D01*
X110095943Y-73981894D01*
X110082544Y-73984788D01*
X109933893Y-74034381D01*
X109920715Y-74040554D01*
X109791803Y-74120328D01*
X109723351Y-74139166D01*
X109655582Y-74118005D01*
X109610010Y-74063564D01*
X109599500Y-74013184D01*
X109599500Y-71960767D01*
X109600027Y-71949584D01*
X109601702Y-71942091D01*
X109599562Y-71874014D01*
X109599500Y-71870055D01*
X109599500Y-71842144D01*
X109598995Y-71838144D01*
X109598062Y-71826301D01*
X109596922Y-71790029D01*
X109596673Y-71782110D01*
X109591022Y-71762658D01*
X109587014Y-71743306D01*
X109585467Y-71731063D01*
X109584474Y-71723203D01*
X109570897Y-71688910D01*
X109568200Y-71682097D01*
X109564355Y-71670870D01*
X109560339Y-71657049D01*
X109552018Y-71628407D01*
X109547984Y-71621585D01*
X109547981Y-71621579D01*
X109541706Y-71610968D01*
X109533010Y-71593218D01*
X109528472Y-71581756D01*
X109528469Y-71581751D01*
X109525552Y-71574383D01*
X109499573Y-71538625D01*
X109493057Y-71528707D01*
X109474575Y-71497457D01*
X109470542Y-71490637D01*
X109456218Y-71476313D01*
X109443376Y-71461278D01*
X109431472Y-71444893D01*
X109397406Y-71416711D01*
X109388627Y-71408722D01*
X109023082Y-71043177D01*
X108989056Y-70980865D01*
X108994121Y-70910050D01*
X109036668Y-70853214D01*
X109050598Y-70844155D01*
X109187551Y-70767458D01*
X109344186Y-70637186D01*
X109399926Y-70570166D01*
X109458863Y-70530582D01*
X109529846Y-70529146D01*
X109590336Y-70566313D01*
X109607216Y-70590037D01*
X109609530Y-70594246D01*
X109612448Y-70601617D01*
X109617104Y-70608026D01*
X109617106Y-70608029D01*
X109638436Y-70637387D01*
X109644952Y-70647307D01*
X109659692Y-70672230D01*
X109667458Y-70685362D01*
X109681779Y-70699683D01*
X109694619Y-70714716D01*
X109706528Y-70731107D01*
X109712634Y-70736158D01*
X109740605Y-70759298D01*
X109749384Y-70767288D01*
X111164343Y-72182247D01*
X111171887Y-72190537D01*
X111176000Y-72197018D01*
X111181777Y-72202443D01*
X111225667Y-72243658D01*
X111228509Y-72246413D01*
X111248230Y-72266134D01*
X111251425Y-72268612D01*
X111260447Y-72276318D01*
X111292679Y-72306586D01*
X111299628Y-72310406D01*
X111310432Y-72316346D01*
X111326956Y-72327199D01*
X111342959Y-72339613D01*
X111383543Y-72357176D01*
X111394173Y-72362383D01*
X111432940Y-72383695D01*
X111440617Y-72385666D01*
X111440622Y-72385668D01*
X111452558Y-72388732D01*
X111471266Y-72395137D01*
X111489855Y-72403181D01*
X111496574Y-72404245D01*
X111555987Y-72442187D01*
X111585665Y-72506683D01*
X111587000Y-72524973D01*
X111587000Y-72817885D01*
X111591475Y-72833124D01*
X111592865Y-72834329D01*
X111600548Y-72836000D01*
X112523000Y-72836000D01*
X112591121Y-72856002D01*
X112637614Y-72909658D01*
X112649000Y-72962000D01*
X112649000Y-74551878D01*
X112652973Y-74565409D01*
X112660871Y-74566544D01*
X112800790Y-74525893D01*
X112815221Y-74519648D01*
X112944676Y-74443090D01*
X112952364Y-74437126D01*
X113018449Y-74411179D01*
X113088072Y-74425080D01*
X113104158Y-74435418D01*
X113108193Y-74439453D01*
X113251399Y-74524145D01*
X113259010Y-74526356D01*
X113259012Y-74526357D01*
X113311231Y-74541528D01*
X113411169Y-74570562D01*
X113417574Y-74571066D01*
X113417579Y-74571067D01*
X113446042Y-74573307D01*
X113446050Y-74573307D01*
X113448498Y-74573500D01*
X113881502Y-74573500D01*
X113883950Y-74573307D01*
X113883958Y-74573307D01*
X113912421Y-74571067D01*
X113912426Y-74571066D01*
X113918831Y-74570562D01*
X114018769Y-74541528D01*
X114070988Y-74526357D01*
X114070990Y-74526356D01*
X114078601Y-74524145D01*
X114221807Y-74439453D01*
X114224489Y-74436771D01*
X114288861Y-74411498D01*
X114358484Y-74425400D01*
X114374312Y-74435572D01*
X114378193Y-74439453D01*
X114521399Y-74524145D01*
X114529010Y-74526356D01*
X114529012Y-74526357D01*
X114581231Y-74541528D01*
X114681169Y-74570562D01*
X114687574Y-74571066D01*
X114687579Y-74571067D01*
X114716042Y-74573307D01*
X114716050Y-74573307D01*
X114718498Y-74573500D01*
X115151502Y-74573500D01*
X115153950Y-74573307D01*
X115153958Y-74573307D01*
X115182421Y-74571067D01*
X115182426Y-74571066D01*
X115188831Y-74570562D01*
X115288769Y-74541528D01*
X115340988Y-74526357D01*
X115340990Y-74526356D01*
X115348601Y-74524145D01*
X115491807Y-74439453D01*
X115494489Y-74436771D01*
X115558861Y-74411498D01*
X115628484Y-74425400D01*
X115644312Y-74435572D01*
X115648193Y-74439453D01*
X115791399Y-74524145D01*
X115799010Y-74526356D01*
X115799012Y-74526357D01*
X115851231Y-74541528D01*
X115951169Y-74570562D01*
X115957574Y-74571066D01*
X115957579Y-74571067D01*
X115986042Y-74573307D01*
X115986050Y-74573307D01*
X115988498Y-74573500D01*
X116421502Y-74573500D01*
X116423950Y-74573307D01*
X116423958Y-74573307D01*
X116452421Y-74571067D01*
X116452426Y-74571066D01*
X116458831Y-74570562D01*
X116558769Y-74541528D01*
X116610988Y-74526357D01*
X116610990Y-74526356D01*
X116618601Y-74524145D01*
X116761807Y-74439453D01*
X116764489Y-74436771D01*
X116828861Y-74411498D01*
X116898484Y-74425400D01*
X116914312Y-74435572D01*
X116918193Y-74439453D01*
X117061399Y-74524145D01*
X117069010Y-74526356D01*
X117069012Y-74526357D01*
X117121231Y-74541528D01*
X117221169Y-74570562D01*
X117227574Y-74571066D01*
X117227579Y-74571067D01*
X117256042Y-74573307D01*
X117256050Y-74573307D01*
X117258498Y-74573500D01*
X117691502Y-74573500D01*
X117693950Y-74573307D01*
X117693958Y-74573307D01*
X117722421Y-74571067D01*
X117722426Y-74571066D01*
X117728831Y-74570562D01*
X117828769Y-74541528D01*
X117880988Y-74526357D01*
X117880990Y-74526356D01*
X117888601Y-74524145D01*
X118031807Y-74439453D01*
X118034489Y-74436771D01*
X118098861Y-74411498D01*
X118168484Y-74425400D01*
X118184312Y-74435572D01*
X118188193Y-74439453D01*
X118331399Y-74524145D01*
X118339010Y-74526356D01*
X118339012Y-74526357D01*
X118391231Y-74541528D01*
X118491169Y-74570562D01*
X118497574Y-74571066D01*
X118497579Y-74571067D01*
X118526042Y-74573307D01*
X118526050Y-74573307D01*
X118528498Y-74573500D01*
X118961502Y-74573500D01*
X118963950Y-74573307D01*
X118963958Y-74573307D01*
X118992421Y-74571067D01*
X118992426Y-74571066D01*
X118998831Y-74570562D01*
X119098769Y-74541528D01*
X119150988Y-74526357D01*
X119150990Y-74526356D01*
X119158601Y-74524145D01*
X119301807Y-74439453D01*
X119304489Y-74436771D01*
X119368861Y-74411498D01*
X119438484Y-74425400D01*
X119454312Y-74435572D01*
X119458193Y-74439453D01*
X119601399Y-74524145D01*
X119609010Y-74526356D01*
X119609012Y-74526357D01*
X119661231Y-74541528D01*
X119761169Y-74570562D01*
X119767574Y-74571066D01*
X119767579Y-74571067D01*
X119796042Y-74573307D01*
X119796050Y-74573307D01*
X119798498Y-74573500D01*
X120231502Y-74573500D01*
X120233950Y-74573307D01*
X120233958Y-74573307D01*
X120262421Y-74571067D01*
X120262426Y-74571066D01*
X120268831Y-74570562D01*
X120368769Y-74541528D01*
X120420988Y-74526357D01*
X120420990Y-74526356D01*
X120428601Y-74524145D01*
X120488907Y-74488480D01*
X120564980Y-74443491D01*
X120564983Y-74443489D01*
X120571807Y-74439453D01*
X120689453Y-74321807D01*
X120693489Y-74314983D01*
X120693491Y-74314980D01*
X120770108Y-74185427D01*
X120774145Y-74178601D01*
X120776415Y-74170790D01*
X120818015Y-74027598D01*
X120820562Y-74018831D01*
X120821074Y-74012336D01*
X120823307Y-73983958D01*
X120823307Y-73983950D01*
X120823500Y-73981502D01*
X120823500Y-72198498D01*
X120822221Y-72182247D01*
X120821067Y-72167579D01*
X120821066Y-72167574D01*
X120820562Y-72161169D01*
X120774145Y-72001399D01*
X120725733Y-71919539D01*
X120693491Y-71865020D01*
X120693489Y-71865017D01*
X120689453Y-71858193D01*
X120683845Y-71852585D01*
X120678989Y-71846325D01*
X120680496Y-71845156D01*
X120651379Y-71791833D01*
X120648500Y-71765050D01*
X120648500Y-70986401D01*
X120668502Y-70918280D01*
X120722158Y-70871787D01*
X120792432Y-70861683D01*
X120824238Y-70870634D01*
X120907671Y-70906480D01*
X120907680Y-70906483D01*
X120912987Y-70908763D01*
X120970417Y-70921758D01*
X121106055Y-70952450D01*
X121106060Y-70952451D01*
X121111692Y-70953725D01*
X121117463Y-70953952D01*
X121117465Y-70953952D01*
X121180470Y-70956427D01*
X121315263Y-70961723D01*
X121516883Y-70932490D01*
X121522347Y-70930635D01*
X121522352Y-70930634D01*
X121704327Y-70868862D01*
X121704332Y-70868860D01*
X121709799Y-70867004D01*
X121715653Y-70863726D01*
X121799930Y-70816528D01*
X121887551Y-70767458D01*
X122044186Y-70637186D01*
X122174458Y-70480551D01*
X122274004Y-70302799D01*
X122275860Y-70297332D01*
X122275862Y-70297327D01*
X122337634Y-70115352D01*
X122337635Y-70115347D01*
X122339490Y-70109883D01*
X122368723Y-69908263D01*
X122370249Y-69850000D01*
X122358860Y-69726049D01*
X122352137Y-69652880D01*
X122352136Y-69652877D01*
X122351608Y-69647126D01*
X122296307Y-69451047D01*
X122285776Y-69429691D01*
X122208756Y-69273510D01*
X122206201Y-69268329D01*
X122192012Y-69249327D01*
X122087758Y-69109715D01*
X122087758Y-69109714D01*
X122084305Y-69105091D01*
X121934703Y-68966800D01*
X121828947Y-68900073D01*
X121767288Y-68861169D01*
X121767283Y-68861167D01*
X121762404Y-68858088D01*
X121573180Y-68782595D01*
X121397919Y-68747733D01*
X121379032Y-68743976D01*
X121379031Y-68743976D01*
X121373366Y-68742849D01*
X121367592Y-68742773D01*
X121367588Y-68742773D01*
X121264452Y-68741424D01*
X121169655Y-68740183D01*
X121163958Y-68741162D01*
X121163957Y-68741162D01*
X121005755Y-68768346D01*
X120968870Y-68774684D01*
X120777734Y-68845198D01*
X120772773Y-68848150D01*
X120772772Y-68848150D01*
X120656939Y-68917064D01*
X120602649Y-68949363D01*
X120449478Y-69083690D01*
X120445907Y-69088220D01*
X120445906Y-69088221D01*
X120407335Y-69137148D01*
X120349454Y-69178261D01*
X120278534Y-69181555D01*
X120219290Y-69148237D01*
X113342122Y-62271069D01*
X113308096Y-62208757D01*
X113305907Y-62195144D01*
X113289232Y-62036487D01*
X113289232Y-62036485D01*
X113288542Y-62029924D01*
X113229527Y-61848296D01*
X113205773Y-61807152D01*
X113137341Y-61688626D01*
X113134040Y-61682908D01*
X113121235Y-61668686D01*
X113010675Y-61545897D01*
X113010674Y-61545896D01*
X113006253Y-61540986D01*
X112871061Y-61442763D01*
X112857094Y-61432615D01*
X112857093Y-61432614D01*
X112851752Y-61428734D01*
X112845724Y-61426050D01*
X112845722Y-61426049D01*
X112683319Y-61353743D01*
X112683318Y-61353743D01*
X112677288Y-61351058D01*
X112583888Y-61331205D01*
X112496944Y-61312724D01*
X112496939Y-61312724D01*
X112490487Y-61311352D01*
X112299513Y-61311352D01*
X112293061Y-61312724D01*
X112293056Y-61312724D01*
X112206112Y-61331205D01*
X112112712Y-61351058D01*
X112106682Y-61353743D01*
X112106681Y-61353743D01*
X111944278Y-61426049D01*
X111944276Y-61426050D01*
X111938248Y-61428734D01*
X111932907Y-61432614D01*
X111932906Y-61432615D01*
X111918939Y-61442763D01*
X111783747Y-61540986D01*
X111779326Y-61545896D01*
X111779325Y-61545897D01*
X111668766Y-61668686D01*
X111655960Y-61682908D01*
X111652659Y-61688626D01*
X111584228Y-61807152D01*
X111560473Y-61848296D01*
X111501458Y-62029924D01*
X111500768Y-62036485D01*
X111500768Y-62036487D01*
X111484093Y-62195144D01*
X111481496Y-62219852D01*
X111501458Y-62409780D01*
X111543476Y-62539095D01*
X111552869Y-62568004D01*
X111554897Y-62638972D01*
X111518234Y-62699770D01*
X111454522Y-62731096D01*
X111383988Y-62723003D01*
X111343941Y-62696036D01*
X110929122Y-62281217D01*
X110895096Y-62218905D01*
X110892907Y-62205292D01*
X110891841Y-62195144D01*
X110875542Y-62040072D01*
X110816527Y-61858444D01*
X110786914Y-61807152D01*
X110724341Y-61698774D01*
X110721040Y-61693056D01*
X110593253Y-61551134D01*
X110438752Y-61438882D01*
X110432724Y-61436198D01*
X110432722Y-61436197D01*
X110270319Y-61363891D01*
X110270318Y-61363891D01*
X110264288Y-61361206D01*
X110157456Y-61338498D01*
X110083944Y-61322872D01*
X110083939Y-61322872D01*
X110077487Y-61321500D01*
X109886513Y-61321500D01*
X109880061Y-61322872D01*
X109880056Y-61322872D01*
X109806544Y-61338498D01*
X109699712Y-61361206D01*
X109693682Y-61363891D01*
X109693681Y-61363891D01*
X109531278Y-61436197D01*
X109531276Y-61436198D01*
X109525248Y-61438882D01*
X109370747Y-61551134D01*
X109242960Y-61693056D01*
X109239659Y-61698774D01*
X109205373Y-61758159D01*
X109153991Y-61807152D01*
X109084277Y-61820588D01*
X109018366Y-61794202D01*
X109007159Y-61784254D01*
X108209266Y-60986361D01*
X108175240Y-60924049D01*
X108180305Y-60853234D01*
X108222852Y-60796398D01*
X108289372Y-60771587D01*
X108326167Y-60774373D01*
X108358867Y-60781772D01*
X108406056Y-60792450D01*
X108406059Y-60792450D01*
X108411692Y-60793725D01*
X108417463Y-60793952D01*
X108417465Y-60793952D01*
X108479727Y-60796398D01*
X108615263Y-60801723D01*
X108816883Y-60772490D01*
X108822347Y-60770635D01*
X108822352Y-60770634D01*
X109004327Y-60708862D01*
X109004332Y-60708860D01*
X109009799Y-60707004D01*
X109187551Y-60607458D01*
X109344186Y-60477186D01*
X109474458Y-60320551D01*
X109574004Y-60142799D01*
X109575860Y-60137332D01*
X109575862Y-60137327D01*
X109637634Y-59955352D01*
X109637635Y-59955347D01*
X109639490Y-59949883D01*
X109668723Y-59748263D01*
X109670249Y-59690000D01*
X109667571Y-59660859D01*
X109984132Y-59660859D01*
X109997457Y-59864151D01*
X110047605Y-60061610D01*
X110132898Y-60246624D01*
X110250479Y-60412997D01*
X110396410Y-60555157D01*
X110401206Y-60558362D01*
X110401209Y-60558364D01*
X110469149Y-60603760D01*
X110565803Y-60668342D01*
X110571106Y-60670620D01*
X110571109Y-60670622D01*
X110660115Y-60708862D01*
X110752987Y-60748763D01*
X110805896Y-60760735D01*
X110946055Y-60792450D01*
X110946060Y-60792451D01*
X110951692Y-60793725D01*
X110957463Y-60793952D01*
X110957465Y-60793952D01*
X111019727Y-60796398D01*
X111155263Y-60801723D01*
X111356883Y-60772490D01*
X111362347Y-60770635D01*
X111362352Y-60770634D01*
X111544327Y-60708862D01*
X111544332Y-60708860D01*
X111549799Y-60707004D01*
X111727551Y-60607458D01*
X111884186Y-60477186D01*
X112014458Y-60320551D01*
X112114004Y-60142799D01*
X112115860Y-60137332D01*
X112115862Y-60137327D01*
X112177634Y-59955352D01*
X112177635Y-59955347D01*
X112179490Y-59949883D01*
X112208723Y-59748263D01*
X112210249Y-59690000D01*
X112207571Y-59660859D01*
X112524132Y-59660859D01*
X112537457Y-59864151D01*
X112587605Y-60061610D01*
X112672898Y-60246624D01*
X112790479Y-60412997D01*
X112936410Y-60555157D01*
X112941206Y-60558362D01*
X112941209Y-60558364D01*
X113009149Y-60603760D01*
X113105803Y-60668342D01*
X113111106Y-60670620D01*
X113111109Y-60670622D01*
X113200115Y-60708862D01*
X113292987Y-60748763D01*
X113345896Y-60760735D01*
X113486055Y-60792450D01*
X113486060Y-60792451D01*
X113491692Y-60793725D01*
X113497463Y-60793952D01*
X113497465Y-60793952D01*
X113559727Y-60796398D01*
X113695263Y-60801723D01*
X113896883Y-60772490D01*
X113902347Y-60770635D01*
X113902352Y-60770634D01*
X114084327Y-60708862D01*
X114084332Y-60708860D01*
X114089799Y-60707004D01*
X114267551Y-60607458D01*
X114424186Y-60477186D01*
X114554458Y-60320551D01*
X114654004Y-60142799D01*
X114655860Y-60137332D01*
X114655862Y-60137327D01*
X114717634Y-59955352D01*
X114717635Y-59955347D01*
X114719490Y-59949883D01*
X114748723Y-59748263D01*
X114750249Y-59690000D01*
X114747571Y-59660859D01*
X115064132Y-59660859D01*
X115077457Y-59864151D01*
X115127605Y-60061610D01*
X115212898Y-60246624D01*
X115330479Y-60412997D01*
X115476410Y-60555157D01*
X115481206Y-60558362D01*
X115481209Y-60558364D01*
X115549149Y-60603760D01*
X115645803Y-60668342D01*
X115651106Y-60670620D01*
X115651109Y-60670622D01*
X115740115Y-60708862D01*
X115832987Y-60748763D01*
X115885896Y-60760735D01*
X116026055Y-60792450D01*
X116026060Y-60792451D01*
X116031692Y-60793725D01*
X116037463Y-60793952D01*
X116037465Y-60793952D01*
X116099727Y-60796398D01*
X116235263Y-60801723D01*
X116436883Y-60772490D01*
X116442347Y-60770635D01*
X116442352Y-60770634D01*
X116624327Y-60708862D01*
X116624332Y-60708860D01*
X116629799Y-60707004D01*
X116807551Y-60607458D01*
X116964186Y-60477186D01*
X117094458Y-60320551D01*
X117194004Y-60142799D01*
X117195860Y-60137332D01*
X117195862Y-60137327D01*
X117257634Y-59955352D01*
X117257635Y-59955347D01*
X117259490Y-59949883D01*
X117288723Y-59748263D01*
X117290249Y-59690000D01*
X117287571Y-59660859D01*
X117604132Y-59660859D01*
X117617457Y-59864151D01*
X117667605Y-60061610D01*
X117752898Y-60246624D01*
X117870479Y-60412997D01*
X118016410Y-60555157D01*
X118021206Y-60558362D01*
X118021209Y-60558364D01*
X118089149Y-60603760D01*
X118185803Y-60668342D01*
X118191106Y-60670620D01*
X118191109Y-60670622D01*
X118280115Y-60708862D01*
X118372987Y-60748763D01*
X118425896Y-60760735D01*
X118566055Y-60792450D01*
X118566060Y-60792451D01*
X118571692Y-60793725D01*
X118577463Y-60793952D01*
X118577465Y-60793952D01*
X118639727Y-60796398D01*
X118775263Y-60801723D01*
X118976883Y-60772490D01*
X118982347Y-60770635D01*
X118982352Y-60770634D01*
X119164327Y-60708862D01*
X119164332Y-60708860D01*
X119169799Y-60707004D01*
X119347551Y-60607458D01*
X119504186Y-60477186D01*
X119634458Y-60320551D01*
X119734004Y-60142799D01*
X119735860Y-60137332D01*
X119735862Y-60137327D01*
X119797634Y-59955352D01*
X119797635Y-59955347D01*
X119799490Y-59949883D01*
X119828723Y-59748263D01*
X119830249Y-59690000D01*
X119827571Y-59660859D01*
X120144132Y-59660859D01*
X120157457Y-59864151D01*
X120207605Y-60061610D01*
X120292898Y-60246624D01*
X120410479Y-60412997D01*
X120556410Y-60555157D01*
X120561206Y-60558362D01*
X120561209Y-60558364D01*
X120629149Y-60603760D01*
X120725803Y-60668342D01*
X120731106Y-60670620D01*
X120731109Y-60670622D01*
X120820115Y-60708862D01*
X120912987Y-60748763D01*
X120965896Y-60760735D01*
X121106055Y-60792450D01*
X121106060Y-60792451D01*
X121111692Y-60793725D01*
X121117463Y-60793952D01*
X121117465Y-60793952D01*
X121179727Y-60796398D01*
X121315263Y-60801723D01*
X121516883Y-60772490D01*
X121522347Y-60770635D01*
X121522352Y-60770634D01*
X121704327Y-60708862D01*
X121704332Y-60708860D01*
X121709799Y-60707004D01*
X121887551Y-60607458D01*
X122044186Y-60477186D01*
X122174458Y-60320551D01*
X122274004Y-60142799D01*
X122275860Y-60137332D01*
X122275862Y-60137327D01*
X122337634Y-59955352D01*
X122337635Y-59955347D01*
X122339490Y-59949883D01*
X122368723Y-59748263D01*
X122370249Y-59690000D01*
X122351608Y-59487126D01*
X122296307Y-59291047D01*
X122285680Y-59269496D01*
X122208756Y-59113510D01*
X122206201Y-59108329D01*
X122187796Y-59083681D01*
X122087758Y-58949715D01*
X122087758Y-58949714D01*
X122084305Y-58945091D01*
X121934703Y-58806800D01*
X121851066Y-58754029D01*
X121767288Y-58701169D01*
X121767283Y-58701167D01*
X121762404Y-58698088D01*
X121573180Y-58622595D01*
X121373366Y-58582849D01*
X121367592Y-58582773D01*
X121367588Y-58582773D01*
X121264452Y-58581424D01*
X121169655Y-58580183D01*
X121163958Y-58581162D01*
X121163957Y-58581162D01*
X120974567Y-58613705D01*
X120968870Y-58614684D01*
X120777734Y-58685198D01*
X120772773Y-58688150D01*
X120772772Y-58688150D01*
X120729343Y-58713988D01*
X120602649Y-58789363D01*
X120449478Y-58923690D01*
X120445911Y-58928215D01*
X120445906Y-58928220D01*
X120384677Y-59005889D01*
X120323351Y-59083681D01*
X120228492Y-59263978D01*
X120168078Y-59458543D01*
X120144132Y-59660859D01*
X119827571Y-59660859D01*
X119811608Y-59487126D01*
X119756307Y-59291047D01*
X119745680Y-59269496D01*
X119668756Y-59113510D01*
X119666201Y-59108329D01*
X119647796Y-59083681D01*
X119547758Y-58949715D01*
X119547758Y-58949714D01*
X119544305Y-58945091D01*
X119394703Y-58806800D01*
X119311066Y-58754029D01*
X119227288Y-58701169D01*
X119227283Y-58701167D01*
X119222404Y-58698088D01*
X119033180Y-58622595D01*
X118833366Y-58582849D01*
X118827592Y-58582773D01*
X118827588Y-58582773D01*
X118724452Y-58581424D01*
X118629655Y-58580183D01*
X118623958Y-58581162D01*
X118623957Y-58581162D01*
X118434567Y-58613705D01*
X118428870Y-58614684D01*
X118237734Y-58685198D01*
X118232773Y-58688150D01*
X118232772Y-58688150D01*
X118189343Y-58713988D01*
X118062649Y-58789363D01*
X117909478Y-58923690D01*
X117905911Y-58928215D01*
X117905906Y-58928220D01*
X117844677Y-59005889D01*
X117783351Y-59083681D01*
X117688492Y-59263978D01*
X117628078Y-59458543D01*
X117604132Y-59660859D01*
X117287571Y-59660859D01*
X117271608Y-59487126D01*
X117216307Y-59291047D01*
X117205680Y-59269496D01*
X117128756Y-59113510D01*
X117126201Y-59108329D01*
X117107796Y-59083681D01*
X117007758Y-58949715D01*
X117007758Y-58949714D01*
X117004305Y-58945091D01*
X116854703Y-58806800D01*
X116771066Y-58754029D01*
X116687288Y-58701169D01*
X116687283Y-58701167D01*
X116682404Y-58698088D01*
X116493180Y-58622595D01*
X116293366Y-58582849D01*
X116287592Y-58582773D01*
X116287588Y-58582773D01*
X116184452Y-58581424D01*
X116089655Y-58580183D01*
X116083958Y-58581162D01*
X116083957Y-58581162D01*
X115894567Y-58613705D01*
X115888870Y-58614684D01*
X115697734Y-58685198D01*
X115692773Y-58688150D01*
X115692772Y-58688150D01*
X115649343Y-58713988D01*
X115522649Y-58789363D01*
X115369478Y-58923690D01*
X115365911Y-58928215D01*
X115365906Y-58928220D01*
X115304677Y-59005889D01*
X115243351Y-59083681D01*
X115148492Y-59263978D01*
X115088078Y-59458543D01*
X115064132Y-59660859D01*
X114747571Y-59660859D01*
X114731608Y-59487126D01*
X114676307Y-59291047D01*
X114665680Y-59269496D01*
X114588756Y-59113510D01*
X114586201Y-59108329D01*
X114567796Y-59083681D01*
X114467758Y-58949715D01*
X114467758Y-58949714D01*
X114464305Y-58945091D01*
X114314703Y-58806800D01*
X114231066Y-58754029D01*
X114147288Y-58701169D01*
X114147283Y-58701167D01*
X114142404Y-58698088D01*
X113953180Y-58622595D01*
X113753366Y-58582849D01*
X113747592Y-58582773D01*
X113747588Y-58582773D01*
X113644452Y-58581424D01*
X113549655Y-58580183D01*
X113543958Y-58581162D01*
X113543957Y-58581162D01*
X113354567Y-58613705D01*
X113348870Y-58614684D01*
X113157734Y-58685198D01*
X113152773Y-58688150D01*
X113152772Y-58688150D01*
X113109343Y-58713988D01*
X112982649Y-58789363D01*
X112829478Y-58923690D01*
X112825911Y-58928215D01*
X112825906Y-58928220D01*
X112764677Y-59005889D01*
X112703351Y-59083681D01*
X112608492Y-59263978D01*
X112548078Y-59458543D01*
X112524132Y-59660859D01*
X112207571Y-59660859D01*
X112191608Y-59487126D01*
X112136307Y-59291047D01*
X112125680Y-59269496D01*
X112048756Y-59113510D01*
X112046201Y-59108329D01*
X112027796Y-59083681D01*
X111927758Y-58949715D01*
X111927758Y-58949714D01*
X111924305Y-58945091D01*
X111774703Y-58806800D01*
X111691066Y-58754029D01*
X111607288Y-58701169D01*
X111607283Y-58701167D01*
X111602404Y-58698088D01*
X111413180Y-58622595D01*
X111213366Y-58582849D01*
X111207592Y-58582773D01*
X111207588Y-58582773D01*
X111104452Y-58581424D01*
X111009655Y-58580183D01*
X111003958Y-58581162D01*
X111003957Y-58581162D01*
X110814567Y-58613705D01*
X110808870Y-58614684D01*
X110617734Y-58685198D01*
X110612773Y-58688150D01*
X110612772Y-58688150D01*
X110569343Y-58713988D01*
X110442649Y-58789363D01*
X110289478Y-58923690D01*
X110285911Y-58928215D01*
X110285906Y-58928220D01*
X110224677Y-59005889D01*
X110163351Y-59083681D01*
X110068492Y-59263978D01*
X110008078Y-59458543D01*
X109984132Y-59660859D01*
X109667571Y-59660859D01*
X109651608Y-59487126D01*
X109596307Y-59291047D01*
X109585680Y-59269496D01*
X109508756Y-59113510D01*
X109506201Y-59108329D01*
X109487796Y-59083681D01*
X109387758Y-58949715D01*
X109387758Y-58949714D01*
X109384305Y-58945091D01*
X109234703Y-58806800D01*
X109151066Y-58754029D01*
X109067288Y-58701169D01*
X109067283Y-58701167D01*
X109062404Y-58698088D01*
X108873180Y-58622595D01*
X108673366Y-58582849D01*
X108667592Y-58582773D01*
X108667588Y-58582773D01*
X108564452Y-58581424D01*
X108469655Y-58580183D01*
X108463958Y-58581162D01*
X108463957Y-58581162D01*
X108274567Y-58613705D01*
X108268870Y-58614684D01*
X108077734Y-58685198D01*
X108072773Y-58688150D01*
X108072772Y-58688150D01*
X108029343Y-58713988D01*
X107902649Y-58789363D01*
X107749478Y-58923690D01*
X107745911Y-58928215D01*
X107745906Y-58928220D01*
X107684677Y-59005889D01*
X107623351Y-59083681D01*
X107528492Y-59263978D01*
X107468078Y-59458543D01*
X107444132Y-59660859D01*
X107457457Y-59864151D01*
X107458880Y-59869753D01*
X107458880Y-59869754D01*
X107470758Y-59916525D01*
X107468139Y-59987474D01*
X107427579Y-60045743D01*
X107361954Y-60072834D01*
X107292101Y-60060145D01*
X107259540Y-60036635D01*
X107153436Y-59930531D01*
X107119410Y-59868219D01*
X107117835Y-59823356D01*
X107128190Y-59751937D01*
X107128723Y-59748263D01*
X107130249Y-59690000D01*
X107111608Y-59487126D01*
X107056307Y-59291047D01*
X107045680Y-59269496D01*
X106968756Y-59113510D01*
X106966201Y-59108329D01*
X106947796Y-59083681D01*
X106847758Y-58949715D01*
X106847758Y-58949714D01*
X106844305Y-58945091D01*
X106694703Y-58806800D01*
X106611066Y-58754029D01*
X106527288Y-58701169D01*
X106527283Y-58701167D01*
X106522404Y-58698088D01*
X106333180Y-58622595D01*
X106133366Y-58582849D01*
X106127592Y-58582773D01*
X106127588Y-58582773D01*
X106024452Y-58581424D01*
X105929655Y-58580183D01*
X105923958Y-58581162D01*
X105923957Y-58581162D01*
X105734567Y-58613705D01*
X105728870Y-58614684D01*
X105537734Y-58685198D01*
X105532773Y-58688150D01*
X105532772Y-58688150D01*
X105489343Y-58713988D01*
X105362649Y-58789363D01*
X105209478Y-58923690D01*
X105205911Y-58928215D01*
X105205906Y-58928220D01*
X105144677Y-59005889D01*
X105083351Y-59083681D01*
X104988492Y-59263978D01*
X104928078Y-59458543D01*
X104904132Y-59660859D01*
X104917457Y-59864151D01*
X104918880Y-59869753D01*
X104918880Y-59869754D01*
X104930758Y-59916525D01*
X104928139Y-59987474D01*
X104887579Y-60045743D01*
X104821954Y-60072834D01*
X104752101Y-60060145D01*
X104719540Y-60036635D01*
X104613436Y-59930531D01*
X104579410Y-59868219D01*
X104577835Y-59823356D01*
X104588190Y-59751937D01*
X104588723Y-59748263D01*
X104590249Y-59690000D01*
X104571608Y-59487126D01*
X104516307Y-59291047D01*
X104505680Y-59269496D01*
X104428756Y-59113510D01*
X104426201Y-59108329D01*
X104407796Y-59083681D01*
X104307758Y-58949715D01*
X104307758Y-58949714D01*
X104304305Y-58945091D01*
X104154703Y-58806800D01*
X104071066Y-58754029D01*
X103987288Y-58701169D01*
X103987283Y-58701167D01*
X103982404Y-58698088D01*
X103793180Y-58622595D01*
X103593366Y-58582849D01*
X103587592Y-58582773D01*
X103587588Y-58582773D01*
X103484452Y-58581424D01*
X103389655Y-58580183D01*
X103383958Y-58581162D01*
X103383957Y-58581162D01*
X103194567Y-58613705D01*
X103188870Y-58614684D01*
X102997734Y-58685198D01*
X102992773Y-58688150D01*
X102992772Y-58688150D01*
X102949343Y-58713988D01*
X102822649Y-58789363D01*
X102669478Y-58923690D01*
X102665911Y-58928215D01*
X102665906Y-58928220D01*
X102604677Y-59005889D01*
X102543351Y-59083681D01*
X102448492Y-59263978D01*
X102388078Y-59458543D01*
X102364132Y-59660859D01*
X102377457Y-59864151D01*
X102378880Y-59869753D01*
X102378880Y-59869754D01*
X102390758Y-59916525D01*
X102388139Y-59987474D01*
X102347579Y-60045743D01*
X102281954Y-60072834D01*
X102212101Y-60060145D01*
X102179540Y-60036635D01*
X102073436Y-59930531D01*
X102039410Y-59868219D01*
X102037835Y-59823356D01*
X102048190Y-59751937D01*
X102048723Y-59748263D01*
X102050249Y-59690000D01*
X102031608Y-59487126D01*
X101976307Y-59291047D01*
X101965680Y-59269496D01*
X101888756Y-59113510D01*
X101886201Y-59108329D01*
X101867796Y-59083681D01*
X101767758Y-58949715D01*
X101767758Y-58949714D01*
X101764305Y-58945091D01*
X101614703Y-58806800D01*
X101531066Y-58754029D01*
X101447288Y-58701169D01*
X101447283Y-58701167D01*
X101442404Y-58698088D01*
X101253180Y-58622595D01*
X101053366Y-58582849D01*
X101047592Y-58582773D01*
X101047588Y-58582773D01*
X100944452Y-58581424D01*
X100849655Y-58580183D01*
X100843958Y-58581162D01*
X100843957Y-58581162D01*
X100654567Y-58613705D01*
X100648870Y-58614684D01*
X100457734Y-58685198D01*
X100452773Y-58688150D01*
X100452772Y-58688150D01*
X100409343Y-58713988D01*
X100282649Y-58789363D01*
X100129478Y-58923690D01*
X100125911Y-58928215D01*
X100125906Y-58928220D01*
X100064677Y-59005889D01*
X100003351Y-59083681D01*
X99908492Y-59263978D01*
X99848078Y-59458543D01*
X99824132Y-59660859D01*
X99837457Y-59864151D01*
X99838880Y-59869753D01*
X99838880Y-59869754D01*
X99850758Y-59916525D01*
X99848139Y-59987474D01*
X99807579Y-60045743D01*
X99741954Y-60072834D01*
X99672101Y-60060145D01*
X99639540Y-60036635D01*
X99533436Y-59930531D01*
X99499410Y-59868219D01*
X99497835Y-59823356D01*
X99508190Y-59751937D01*
X99508723Y-59748263D01*
X99510249Y-59690000D01*
X99491608Y-59487126D01*
X99436307Y-59291047D01*
X99425680Y-59269496D01*
X99348756Y-59113510D01*
X99346201Y-59108329D01*
X99327796Y-59083681D01*
X99227758Y-58949715D01*
X99227758Y-58949714D01*
X99224305Y-58945091D01*
X99074703Y-58806800D01*
X99075681Y-58805742D01*
X99037926Y-58754029D01*
X99030500Y-58711411D01*
X99030500Y-57655500D01*
X99050502Y-57587379D01*
X99104158Y-57540886D01*
X99156500Y-57529500D01*
X112697233Y-57529500D01*
X112708416Y-57530027D01*
X112715909Y-57531702D01*
X112723835Y-57531453D01*
X112723836Y-57531453D01*
X112783986Y-57529562D01*
X112787945Y-57529500D01*
X112815856Y-57529500D01*
X112819791Y-57529003D01*
X112819856Y-57528995D01*
X112831693Y-57528062D01*
X112863951Y-57527048D01*
X112867970Y-57526922D01*
X112875889Y-57526673D01*
X112895343Y-57521021D01*
X112914700Y-57517013D01*
X112926930Y-57515468D01*
X112926931Y-57515468D01*
X112934797Y-57514474D01*
X112942168Y-57511555D01*
X112942170Y-57511555D01*
X112975912Y-57498196D01*
X112987142Y-57494351D01*
X113021983Y-57484229D01*
X113021984Y-57484229D01*
X113029593Y-57482018D01*
X113036412Y-57477985D01*
X113036417Y-57477983D01*
X113047028Y-57471707D01*
X113064776Y-57463012D01*
X113083617Y-57455552D01*
X113119387Y-57429564D01*
X113129307Y-57423048D01*
X113160535Y-57404580D01*
X113160538Y-57404578D01*
X113167362Y-57400542D01*
X113181683Y-57386221D01*
X113196717Y-57373380D01*
X113206694Y-57366131D01*
X113213107Y-57361472D01*
X113241298Y-57327395D01*
X113249288Y-57318616D01*
X113797247Y-56770657D01*
X113805537Y-56763113D01*
X113812018Y-56759000D01*
X113858659Y-56709332D01*
X113861413Y-56706491D01*
X113881134Y-56686770D01*
X113883612Y-56683575D01*
X113891318Y-56674553D01*
X113916161Y-56648098D01*
X113921586Y-56642321D01*
X113925405Y-56635374D01*
X113930063Y-56628963D01*
X113930799Y-56629498D01*
X113944038Y-56611866D01*
X114415499Y-56140405D01*
X114477811Y-56106379D01*
X114504594Y-56103500D01*
X115605400Y-56103500D01*
X115608646Y-56103163D01*
X115608650Y-56103163D01*
X115704308Y-56093238D01*
X115704312Y-56093237D01*
X115711166Y-56092526D01*
X115717702Y-56090345D01*
X115717704Y-56090345D01*
X115871998Y-56038868D01*
X115878946Y-56036550D01*
X116029348Y-55943478D01*
X116154305Y-55818303D01*
X116176990Y-55781501D01*
X116243275Y-55673968D01*
X116243276Y-55673966D01*
X116247115Y-55667738D01*
X116302797Y-55499861D01*
X116303747Y-55490595D01*
X116308340Y-55445757D01*
X116313500Y-55395400D01*
X116313500Y-54054600D01*
X116313163Y-54051350D01*
X116303238Y-53955692D01*
X116303237Y-53955688D01*
X116302526Y-53948834D01*
X116296566Y-53930968D01*
X116248868Y-53788002D01*
X116246550Y-53781054D01*
X116153478Y-53630652D01*
X116028303Y-53505695D01*
X115941595Y-53452247D01*
X115883968Y-53416725D01*
X115883966Y-53416724D01*
X115877738Y-53412885D01*
X115717254Y-53359655D01*
X115716389Y-53359368D01*
X115716387Y-53359368D01*
X115709861Y-53357203D01*
X115703025Y-53356503D01*
X115703022Y-53356502D01*
X115659969Y-53352091D01*
X115605400Y-53346500D01*
X114264600Y-53346500D01*
X114261354Y-53346837D01*
X114261350Y-53346837D01*
X114165692Y-53356762D01*
X114165688Y-53356763D01*
X114158834Y-53357474D01*
X114152298Y-53359655D01*
X114152296Y-53359655D01*
X114068335Y-53387667D01*
X113991054Y-53413450D01*
X113840652Y-53506522D01*
X113715695Y-53631697D01*
X113622885Y-53782262D01*
X113620896Y-53781036D01*
X113581402Y-53825879D01*
X113513122Y-53845332D01*
X113445165Y-53824782D01*
X113420943Y-53804136D01*
X113341831Y-53717193D01*
X113338356Y-53713374D01*
X113334305Y-53710175D01*
X113334301Y-53710171D01*
X113164519Y-53576085D01*
X113164515Y-53576083D01*
X113160464Y-53572883D01*
X112962015Y-53463334D01*
X112957146Y-53461610D01*
X112957142Y-53461608D01*
X112753214Y-53389393D01*
X112753210Y-53389392D01*
X112748339Y-53387667D01*
X112743246Y-53386760D01*
X112743243Y-53386759D01*
X112670832Y-53373861D01*
X112525173Y-53347915D01*
X112436227Y-53346828D01*
X112303681Y-53345208D01*
X112303679Y-53345208D01*
X112298511Y-53345145D01*
X112074441Y-53379433D01*
X111858979Y-53449857D01*
X111854391Y-53452245D01*
X111854387Y-53452247D01*
X111662502Y-53552136D01*
X111657913Y-53554525D01*
X111653780Y-53557628D01*
X111653777Y-53557630D01*
X111480776Y-53687523D01*
X111476641Y-53690628D01*
X111451255Y-53717193D01*
X111332251Y-53841724D01*
X111320033Y-53854509D01*
X111317119Y-53858781D01*
X111317118Y-53858782D01*
X111228645Y-53988479D01*
X111173734Y-54033482D01*
X111103209Y-54041653D01*
X111039462Y-54010399D01*
X111018767Y-53985918D01*
X110950914Y-53881033D01*
X110798356Y-53713374D01*
X110794305Y-53710175D01*
X110794301Y-53710171D01*
X110624519Y-53576085D01*
X110624515Y-53576083D01*
X110620464Y-53572883D01*
X110422015Y-53463334D01*
X110417146Y-53461610D01*
X110417142Y-53461608D01*
X110213214Y-53389393D01*
X110213210Y-53389392D01*
X110208339Y-53387667D01*
X110203246Y-53386760D01*
X110203243Y-53386759D01*
X110130832Y-53373861D01*
X109985173Y-53347915D01*
X109896227Y-53346828D01*
X109763681Y-53345208D01*
X109763679Y-53345208D01*
X109758511Y-53345145D01*
X109534441Y-53379433D01*
X109318979Y-53449857D01*
X109314391Y-53452245D01*
X109314387Y-53452247D01*
X109122502Y-53552136D01*
X109117913Y-53554525D01*
X109113780Y-53557628D01*
X109113777Y-53557630D01*
X108940776Y-53687523D01*
X108936641Y-53690628D01*
X108911255Y-53717193D01*
X108792251Y-53841724D01*
X108780033Y-53854509D01*
X108777119Y-53858781D01*
X108777118Y-53858782D01*
X108688645Y-53988479D01*
X108633734Y-54033482D01*
X108563209Y-54041653D01*
X108499462Y-54010399D01*
X108478767Y-53985918D01*
X108410914Y-53881033D01*
X108258356Y-53713374D01*
X108254305Y-53710175D01*
X108254301Y-53710171D01*
X108084519Y-53576085D01*
X108084515Y-53576083D01*
X108080464Y-53572883D01*
X107882015Y-53463334D01*
X107877146Y-53461610D01*
X107877142Y-53461608D01*
X107673214Y-53389393D01*
X107673210Y-53389392D01*
X107668339Y-53387667D01*
X107663246Y-53386760D01*
X107663243Y-53386759D01*
X107590832Y-53373861D01*
X107445173Y-53347915D01*
X107356227Y-53346828D01*
X107223681Y-53345208D01*
X107223679Y-53345208D01*
X107218511Y-53345145D01*
X106994441Y-53379433D01*
X106778979Y-53449857D01*
X106774391Y-53452245D01*
X106774387Y-53452247D01*
X106582502Y-53552136D01*
X106577913Y-53554525D01*
X106573780Y-53557628D01*
X106573777Y-53557630D01*
X106400776Y-53687523D01*
X106396641Y-53690628D01*
X106371255Y-53717193D01*
X106252251Y-53841724D01*
X106240033Y-53854509D01*
X106237119Y-53858781D01*
X106237118Y-53858782D01*
X106148645Y-53988479D01*
X106093734Y-54033482D01*
X106023209Y-54041653D01*
X105959462Y-54010399D01*
X105938767Y-53985918D01*
X105870914Y-53881033D01*
X105718356Y-53713374D01*
X105714305Y-53710175D01*
X105714301Y-53710171D01*
X105544519Y-53576085D01*
X105544515Y-53576083D01*
X105540464Y-53572883D01*
X105342015Y-53463334D01*
X105337146Y-53461610D01*
X105337142Y-53461608D01*
X105133214Y-53389393D01*
X105133210Y-53389392D01*
X105128339Y-53387667D01*
X105123246Y-53386760D01*
X105123243Y-53386759D01*
X105050832Y-53373861D01*
X104905173Y-53347915D01*
X104816227Y-53346828D01*
X104683681Y-53345208D01*
X104683679Y-53345208D01*
X104678511Y-53345145D01*
X104527211Y-53368298D01*
X104459550Y-53378651D01*
X104459548Y-53378652D01*
X104454441Y-53379433D01*
X104430678Y-53387200D01*
X104359716Y-53389353D01*
X104302436Y-53356531D01*
X103703652Y-52757747D01*
X103696112Y-52749461D01*
X103692000Y-52742982D01*
X103642348Y-52696356D01*
X103639507Y-52693602D01*
X103619770Y-52673865D01*
X103616573Y-52671385D01*
X103607551Y-52663680D01*
X103607413Y-52663550D01*
X103575321Y-52633414D01*
X103568375Y-52629595D01*
X103568372Y-52629593D01*
X103557566Y-52623652D01*
X103541047Y-52612801D01*
X103540583Y-52612441D01*
X103525041Y-52600386D01*
X103517772Y-52597241D01*
X103517768Y-52597238D01*
X103484463Y-52582826D01*
X103473813Y-52577609D01*
X103435060Y-52556305D01*
X103415437Y-52551267D01*
X103396734Y-52544863D01*
X103385420Y-52539967D01*
X103385419Y-52539967D01*
X103378145Y-52536819D01*
X103370322Y-52535580D01*
X103370312Y-52535577D01*
X103334476Y-52529901D01*
X103322856Y-52527495D01*
X103287711Y-52518472D01*
X103287710Y-52518472D01*
X103280030Y-52516500D01*
X103259776Y-52516500D01*
X103240065Y-52514949D01*
X103227886Y-52513020D01*
X103220057Y-52511780D01*
X103212165Y-52512526D01*
X103176039Y-52515941D01*
X103164181Y-52516500D01*
X98685710Y-52516500D01*
X98617589Y-52496498D01*
X98596615Y-52479595D01*
X98505381Y-52388361D01*
X98358699Y-52299528D01*
X98351452Y-52297257D01*
X98351450Y-52297256D01*
X98269316Y-52271517D01*
X98195062Y-52248247D01*
X98121635Y-52241500D01*
X98118737Y-52241500D01*
X97789140Y-52241501D01*
X97458366Y-52241501D01*
X97455508Y-52241764D01*
X97455499Y-52241764D01*
X97419996Y-52245026D01*
X97384938Y-52248247D01*
X97378560Y-52250246D01*
X97378559Y-52250246D01*
X97228550Y-52297256D01*
X97228548Y-52297257D01*
X97221301Y-52299528D01*
X97074619Y-52388361D01*
X96953361Y-52509619D01*
X96864528Y-52656301D01*
X96862257Y-52663548D01*
X96862256Y-52663550D01*
X96852395Y-52695016D01*
X96813247Y-52819938D01*
X96812635Y-52826601D01*
X96808014Y-52876891D01*
X96781864Y-52942896D01*
X96771638Y-52954458D01*
X95559975Y-54166120D01*
X94349747Y-55376348D01*
X94341461Y-55383888D01*
X94334982Y-55388000D01*
X94329557Y-55393777D01*
X94288357Y-55437651D01*
X94285602Y-55440493D01*
X94265865Y-55460230D01*
X94263385Y-55463427D01*
X94255682Y-55472447D01*
X94225414Y-55504679D01*
X94221595Y-55511625D01*
X94221593Y-55511628D01*
X94215652Y-55522434D01*
X94204801Y-55538953D01*
X94192386Y-55554959D01*
X94189241Y-55562228D01*
X94189238Y-55562232D01*
X94174826Y-55595537D01*
X94169609Y-55606187D01*
X94148305Y-55644940D01*
X94146334Y-55652615D01*
X94146334Y-55652616D01*
X94143267Y-55664562D01*
X94136863Y-55683266D01*
X94128819Y-55701855D01*
X94127580Y-55709678D01*
X94127577Y-55709688D01*
X94121901Y-55745524D01*
X94119495Y-55757144D01*
X94108500Y-55799970D01*
X94108500Y-55820224D01*
X94106949Y-55839934D01*
X94103780Y-55859943D01*
X94104526Y-55867835D01*
X94107941Y-55903961D01*
X94108500Y-55915819D01*
X94108500Y-62722733D01*
X94107973Y-62733916D01*
X94106298Y-62741409D01*
X94106547Y-62749335D01*
X94106547Y-62749336D01*
X94108438Y-62809486D01*
X94108500Y-62813445D01*
X94108500Y-62841356D01*
X94108997Y-62845290D01*
X94108997Y-62845291D01*
X94109005Y-62845356D01*
X94109938Y-62857193D01*
X94111327Y-62901389D01*
X94116978Y-62920839D01*
X94120987Y-62940200D01*
X94123526Y-62960297D01*
X94126445Y-62967668D01*
X94126445Y-62967670D01*
X94139804Y-63001412D01*
X94143649Y-63012642D01*
X94155982Y-63055093D01*
X94160015Y-63061912D01*
X94160017Y-63061917D01*
X94166293Y-63072528D01*
X94174988Y-63090276D01*
X94182448Y-63109117D01*
X94187110Y-63115533D01*
X94187110Y-63115534D01*
X94208436Y-63144887D01*
X94214952Y-63154807D01*
X94237458Y-63192862D01*
X94251779Y-63207183D01*
X94264619Y-63222216D01*
X94276528Y-63238607D01*
X94282634Y-63243658D01*
X94310605Y-63266798D01*
X94319384Y-63274788D01*
X98651595Y-67607000D01*
X98685621Y-67669312D01*
X98688500Y-67696095D01*
X98688500Y-68624154D01*
X98668498Y-68692275D01*
X98614842Y-68738768D01*
X98537918Y-68747733D01*
X98513366Y-68742849D01*
X98507592Y-68742773D01*
X98507588Y-68742773D01*
X98404452Y-68741424D01*
X98309655Y-68740183D01*
X98303958Y-68741162D01*
X98303957Y-68741162D01*
X98145755Y-68768346D01*
X98108870Y-68774684D01*
X97917734Y-68845198D01*
X97912773Y-68848150D01*
X97912772Y-68848150D01*
X97796939Y-68917064D01*
X97742649Y-68949363D01*
X97589478Y-69083690D01*
X97585911Y-69088215D01*
X97585906Y-69088220D01*
X97514924Y-69178261D01*
X97463351Y-69243681D01*
X97460662Y-69248792D01*
X97460660Y-69248795D01*
X97445946Y-69276762D01*
X97368492Y-69423978D01*
X97308078Y-69618543D01*
X97284132Y-69820859D01*
X97284510Y-69826625D01*
X97295537Y-69994857D01*
X97280034Y-70064140D01*
X97258902Y-70092193D01*
X97155954Y-70195141D01*
X97093642Y-70229167D01*
X97022827Y-70224102D01*
X96965991Y-70181555D01*
X96941180Y-70115035D01*
X96942163Y-70087966D01*
X96967689Y-69911911D01*
X96968319Y-69904528D01*
X96969650Y-69853704D01*
X96969407Y-69846305D01*
X96951643Y-69652975D01*
X96949545Y-69641654D01*
X96897408Y-69456791D01*
X96893283Y-69446044D01*
X96809163Y-69275465D01*
X96801869Y-69269990D01*
X96789449Y-69276762D01*
X96216210Y-69850000D01*
X95857000Y-70209210D01*
X95286262Y-70779949D01*
X95280067Y-70791294D01*
X95289949Y-70803784D01*
X95321239Y-70824691D01*
X95331349Y-70830181D01*
X95507835Y-70906005D01*
X95518778Y-70909560D01*
X95706120Y-70951952D01*
X95717530Y-70953454D01*
X95909469Y-70960995D01*
X95920951Y-70960393D01*
X96111045Y-70932832D01*
X96122240Y-70930144D01*
X96304131Y-70868400D01*
X96314628Y-70863726D01*
X96343890Y-70847339D01*
X96413099Y-70831506D01*
X96479881Y-70855603D01*
X96523033Y-70911980D01*
X96527498Y-70988607D01*
X96523619Y-71003717D01*
X96521500Y-71011970D01*
X96521500Y-71032224D01*
X96519949Y-71051934D01*
X96516780Y-71071943D01*
X96517526Y-71079835D01*
X96520941Y-71115961D01*
X96521500Y-71127819D01*
X96521500Y-74436290D01*
X96501498Y-74504411D01*
X96484595Y-74525385D01*
X96466361Y-74543619D01*
X96377528Y-74690301D01*
X96375257Y-74697548D01*
X96375256Y-74697550D01*
X96365395Y-74729016D01*
X96326247Y-74853938D01*
X96319500Y-74927365D01*
X96319500Y-74930263D01*
X96319501Y-75184665D01*
X96319501Y-75440634D01*
X96319764Y-75443492D01*
X96319764Y-75443501D01*
X96323026Y-75479004D01*
X96326247Y-75514062D01*
X96328246Y-75520440D01*
X96328246Y-75520441D01*
X96371247Y-75657655D01*
X96377528Y-75677699D01*
X96466361Y-75824381D01*
X96561885Y-75919905D01*
X96595911Y-75982217D01*
X96590846Y-76053032D01*
X96561885Y-76098095D01*
X96466361Y-76193619D01*
X96377528Y-76340301D01*
X96375257Y-76347548D01*
X96375256Y-76347550D01*
X96364347Y-76382360D01*
X96326247Y-76503938D01*
X96319500Y-76577365D01*
X96319501Y-77090634D01*
X96319764Y-77093492D01*
X96319764Y-77093501D01*
X96321469Y-77112057D01*
X96326247Y-77164062D01*
X96328246Y-77170440D01*
X96328246Y-77170441D01*
X96364964Y-77287606D01*
X96377528Y-77327699D01*
X96466361Y-77474381D01*
X96587619Y-77595639D01*
X96734301Y-77684472D01*
X96741548Y-77686743D01*
X96741550Y-77686744D01*
X96807836Y-77707517D01*
X96897938Y-77735753D01*
X96971365Y-77742500D01*
X96974263Y-77742500D01*
X97303860Y-77742499D01*
X97634634Y-77742499D01*
X97637492Y-77742236D01*
X97637501Y-77742236D01*
X97673004Y-77738974D01*
X97708062Y-77735753D01*
X97714447Y-77733752D01*
X97864450Y-77686744D01*
X97864452Y-77686743D01*
X97871699Y-77684472D01*
X98018381Y-77595639D01*
X98139639Y-77474381D01*
X98228472Y-77327699D01*
X98241037Y-77287606D01*
X98276068Y-77175821D01*
X98315526Y-77116799D01*
X98380629Y-77088479D01*
X98396302Y-77087500D01*
X99187756Y-77087500D01*
X99255877Y-77107502D01*
X99290652Y-77140779D01*
X99339296Y-77209609D01*
X99491809Y-77358181D01*
X99496605Y-77361386D01*
X99496608Y-77361388D01*
X99596132Y-77427887D01*
X99668843Y-77476471D01*
X99674146Y-77478749D01*
X99674149Y-77478751D01*
X99808741Y-77536576D01*
X99864470Y-77560519D01*
X99940316Y-77577681D01*
X100066501Y-77606234D01*
X100066506Y-77606235D01*
X100072138Y-77607509D01*
X100077909Y-77607736D01*
X100077911Y-77607736D01*
X100139252Y-77610146D01*
X100284891Y-77615869D01*
X100290600Y-77615041D01*
X100290604Y-77615041D01*
X100489890Y-77586145D01*
X100489894Y-77586144D01*
X100495605Y-77585316D01*
X100697223Y-77516876D01*
X100882993Y-77412840D01*
X101046693Y-77276693D01*
X101182840Y-77112993D01*
X101286876Y-76927223D01*
X101355316Y-76725605D01*
X101360400Y-76690547D01*
X101385337Y-76518561D01*
X101385337Y-76518559D01*
X101385869Y-76514891D01*
X101387122Y-76467026D01*
X101408900Y-76399452D01*
X101463754Y-76354379D01*
X101518026Y-76344420D01*
X101554891Y-76345869D01*
X101560599Y-76345041D01*
X101560605Y-76345041D01*
X101759890Y-76316145D01*
X101759894Y-76316144D01*
X101765605Y-76315316D01*
X101967223Y-76246876D01*
X102152993Y-76142840D01*
X102316693Y-76006693D01*
X102376118Y-75935242D01*
X102436258Y-75862931D01*
X102495195Y-75823347D01*
X102533132Y-75817500D01*
X105286405Y-75817500D01*
X105354526Y-75837502D01*
X105375501Y-75854405D01*
X106167596Y-76646501D01*
X106201621Y-76708813D01*
X106204500Y-76735596D01*
X106204501Y-76893670D01*
X106204501Y-77027634D01*
X106204764Y-77030492D01*
X106204764Y-77030501D01*
X106208026Y-77066004D01*
X106211247Y-77101062D01*
X106213246Y-77107440D01*
X106213246Y-77107441D01*
X106226113Y-77148498D01*
X106262528Y-77264699D01*
X106351361Y-77411381D01*
X106472619Y-77532639D01*
X106619301Y-77621472D01*
X106626548Y-77623743D01*
X106626550Y-77623744D01*
X106692836Y-77644517D01*
X106782938Y-77672753D01*
X106856365Y-77679500D01*
X106859263Y-77679500D01*
X107188860Y-77679499D01*
X107519634Y-77679499D01*
X107522492Y-77679236D01*
X107522501Y-77679236D01*
X107558004Y-77675974D01*
X107593062Y-77672753D01*
X107599447Y-77670752D01*
X107749450Y-77623744D01*
X107749452Y-77623743D01*
X107756699Y-77621472D01*
X107903381Y-77532639D01*
X108024639Y-77411381D01*
X108113472Y-77264699D01*
X108164753Y-77101062D01*
X108171500Y-77027635D01*
X108171499Y-76514366D01*
X108169955Y-76497554D01*
X108165364Y-76447592D01*
X108164753Y-76440938D01*
X108146396Y-76382360D01*
X108115744Y-76284550D01*
X108115743Y-76284548D01*
X108113472Y-76277301D01*
X108024639Y-76130619D01*
X107928761Y-76034741D01*
X107894735Y-75972429D01*
X107899800Y-75901614D01*
X107928761Y-75856551D01*
X108018869Y-75766443D01*
X108028176Y-75754574D01*
X108109079Y-75620988D01*
X108115282Y-75607248D01*
X108157086Y-75473849D01*
X108196544Y-75414826D01*
X108261647Y-75386506D01*
X108331727Y-75397878D01*
X108385771Y-75447382D01*
X108390291Y-75455024D01*
X108398988Y-75472776D01*
X108406448Y-75491617D01*
X108411110Y-75498033D01*
X108411110Y-75498034D01*
X108432436Y-75527387D01*
X108438952Y-75537307D01*
X108452948Y-75560972D01*
X108461458Y-75575362D01*
X108475779Y-75589683D01*
X108488619Y-75604716D01*
X108500528Y-75621107D01*
X108506632Y-75626157D01*
X108506637Y-75626162D01*
X108534598Y-75649293D01*
X108543379Y-75657283D01*
X109469596Y-76583501D01*
X109503621Y-76645813D01*
X109506500Y-76672596D01*
X109506500Y-76753732D01*
X109517113Y-76856019D01*
X109519295Y-76862559D01*
X109548935Y-76951399D01*
X109571244Y-77018268D01*
X109575096Y-77024492D01*
X109575096Y-77024493D01*
X109630175Y-77113500D01*
X109661248Y-77163713D01*
X109782298Y-77284552D01*
X109788528Y-77288392D01*
X109788529Y-77288393D01*
X109906949Y-77361388D01*
X109927899Y-77374302D01*
X110090243Y-77428149D01*
X110097080Y-77428849D01*
X110097082Y-77428850D01*
X110138401Y-77433083D01*
X110191268Y-77438500D01*
X110788732Y-77438500D01*
X110791978Y-77438163D01*
X110791982Y-77438163D01*
X110826083Y-77434625D01*
X110891019Y-77427887D01*
X111044726Y-77376606D01*
X111046324Y-77376073D01*
X111046326Y-77376072D01*
X111053268Y-77373756D01*
X111073255Y-77361388D01*
X111192485Y-77287606D01*
X111198713Y-77283752D01*
X111319552Y-77162702D01*
X111321014Y-77160330D01*
X111377412Y-77120345D01*
X111418376Y-77113500D01*
X111460500Y-77113500D01*
X111528621Y-77133502D01*
X111575114Y-77187158D01*
X111586500Y-77239500D01*
X111586500Y-78931502D01*
X111586693Y-78933950D01*
X111586693Y-78933958D01*
X111587018Y-78938081D01*
X111589438Y-78968831D01*
X111591232Y-78975007D01*
X111591233Y-78975011D01*
X111624906Y-79090916D01*
X111624703Y-79161912D01*
X111586149Y-79221528D01*
X111521484Y-79250836D01*
X111503889Y-79252068D01*
X99875604Y-79249663D01*
X91629238Y-79247958D01*
X91561121Y-79227942D01*
X91514640Y-79174277D01*
X91504550Y-79104001D01*
X91534057Y-79039426D01*
X91563709Y-79014354D01*
X91688911Y-78938081D01*
X92004681Y-78699699D01*
X92006963Y-78697589D01*
X92006972Y-78697582D01*
X92292917Y-78433256D01*
X92295214Y-78431133D01*
X92444331Y-78262883D01*
X92555552Y-78137391D01*
X92555557Y-78137385D01*
X92557636Y-78135039D01*
X92789353Y-77814346D01*
X92988073Y-77472224D01*
X93003407Y-77438500D01*
X93150539Y-77114899D01*
X93150540Y-77114896D01*
X93151831Y-77112057D01*
X93155564Y-77101062D01*
X93216430Y-76921755D01*
X93279008Y-76737407D01*
X93347726Y-76440938D01*
X93367641Y-76355019D01*
X93367641Y-76355017D01*
X93368346Y-76351977D01*
X93412540Y-76009361D01*
X93418560Y-75962691D01*
X93418560Y-75962688D01*
X93418961Y-75959581D01*
X93430353Y-75564098D01*
X93427263Y-75520446D01*
X93402632Y-75172574D01*
X93402410Y-75169438D01*
X93335407Y-74779505D01*
X93314924Y-74705392D01*
X93277730Y-74570819D01*
X93230008Y-74398155D01*
X93217232Y-74365131D01*
X93088389Y-74032092D01*
X93088387Y-74032087D01*
X93087254Y-74029159D01*
X93085396Y-74025487D01*
X92909976Y-73678968D01*
X92908557Y-73676165D01*
X92800529Y-73506920D01*
X92700281Y-73349865D01*
X92695685Y-73342665D01*
X92450742Y-73031957D01*
X92448567Y-73029701D01*
X92448562Y-73029695D01*
X92260228Y-72834329D01*
X92176151Y-72747112D01*
X92037713Y-72629500D01*
X91877021Y-72492982D01*
X91877013Y-72492975D01*
X91874626Y-72490948D01*
X91736001Y-72395138D01*
X91551723Y-72267775D01*
X91551714Y-72267770D01*
X91549151Y-72265998D01*
X91546416Y-72264485D01*
X91546411Y-72264482D01*
X91329337Y-72144404D01*
X91202942Y-72074486D01*
X91200073Y-72073253D01*
X91200062Y-72073248D01*
X90842293Y-71919539D01*
X90842290Y-71919538D01*
X90839425Y-71918307D01*
X90836448Y-71917366D01*
X90836444Y-71917364D01*
X90670933Y-71865020D01*
X90462193Y-71799004D01*
X90419419Y-71790029D01*
X90138388Y-71731063D01*
X90074977Y-71717758D01*
X90057103Y-71715832D01*
X89684058Y-71675635D01*
X89684055Y-71675635D01*
X89681607Y-71675371D01*
X89679144Y-71675300D01*
X89679143Y-71675300D01*
X89675494Y-71675195D01*
X89624289Y-71673720D01*
X89353228Y-71673720D01*
X89351665Y-71673798D01*
X89351657Y-71673798D01*
X89255289Y-71678596D01*
X89057422Y-71688446D01*
X89054337Y-71688910D01*
X89054335Y-71688910D01*
X88707392Y-71741071D01*
X88666171Y-71747268D01*
X88663136Y-71748039D01*
X88663135Y-71748039D01*
X88285741Y-71843885D01*
X88285738Y-71843886D01*
X88282698Y-71844658D01*
X88279751Y-71845728D01*
X88279750Y-71845728D01*
X87913731Y-71978586D01*
X87913721Y-71978590D01*
X87910793Y-71979653D01*
X87554134Y-72150918D01*
X87216249Y-72356759D01*
X86900479Y-72595141D01*
X86898197Y-72597251D01*
X86898188Y-72597258D01*
X86727004Y-72755500D01*
X86609946Y-72863707D01*
X86607874Y-72866045D01*
X86607869Y-72866050D01*
X86349608Y-73157449D01*
X86349603Y-73157455D01*
X86347524Y-73159801D01*
X86115807Y-73480494D01*
X86114241Y-73483189D01*
X86114241Y-73483190D01*
X86087454Y-73529308D01*
X86035943Y-73578166D01*
X85966194Y-73591420D01*
X85900353Y-73564860D01*
X85859322Y-73506920D01*
X85852500Y-73466022D01*
X85852500Y-69826638D01*
X94745012Y-69826638D01*
X94757575Y-70018304D01*
X94759376Y-70029674D01*
X94806657Y-70215843D01*
X94810498Y-70226690D01*
X94890916Y-70401130D01*
X94896664Y-70411086D01*
X94902788Y-70419751D01*
X94913377Y-70428140D01*
X94926676Y-70421113D01*
X95484979Y-69862811D01*
X95492592Y-69848868D01*
X95492461Y-69847034D01*
X95488210Y-69840420D01*
X94925538Y-69277749D01*
X94913163Y-69270992D01*
X94907197Y-69275458D01*
X94831645Y-69419058D01*
X94827242Y-69429691D01*
X94770281Y-69613132D01*
X94767891Y-69624376D01*
X94745313Y-69815137D01*
X94745012Y-69826638D01*
X85852500Y-69826638D01*
X85852500Y-68908675D01*
X95279788Y-68908675D01*
X95283275Y-68917064D01*
X95844189Y-69477979D01*
X95858132Y-69485592D01*
X95859966Y-69485461D01*
X95866580Y-69481210D01*
X96427285Y-68920504D01*
X96434042Y-68908129D01*
X96428012Y-68900073D01*
X96367061Y-68861616D01*
X96356813Y-68856395D01*
X96178401Y-68785216D01*
X96167373Y-68781949D01*
X95978982Y-68744476D01*
X95967535Y-68743273D01*
X95775477Y-68740759D01*
X95763997Y-68741662D01*
X95574697Y-68774190D01*
X95563577Y-68777170D01*
X95383365Y-68843653D01*
X95372991Y-68848601D01*
X95289385Y-68898342D01*
X95279788Y-68908675D01*
X85852500Y-68908675D01*
X85852500Y-56069658D01*
X85872502Y-56001537D01*
X85926158Y-55955044D01*
X85996432Y-55944940D01*
X86061012Y-55974434D01*
X86084707Y-56001865D01*
X86209475Y-56197335D01*
X86454418Y-56508043D01*
X86456593Y-56510299D01*
X86456598Y-56510305D01*
X86566727Y-56624546D01*
X86729009Y-56792888D01*
X86731402Y-56794921D01*
X87028139Y-57047018D01*
X87028147Y-57047025D01*
X87030534Y-57049052D01*
X87033114Y-57050835D01*
X87353437Y-57272225D01*
X87353446Y-57272230D01*
X87356009Y-57274002D01*
X87358744Y-57275515D01*
X87358749Y-57275518D01*
X87444273Y-57322827D01*
X87702218Y-57465514D01*
X87705087Y-57466747D01*
X87705098Y-57466752D01*
X88062867Y-57620461D01*
X88065735Y-57621693D01*
X88068712Y-57622634D01*
X88068716Y-57622636D01*
X88197491Y-57663362D01*
X88442967Y-57740996D01*
X88830183Y-57822242D01*
X88833301Y-57822578D01*
X89221102Y-57864365D01*
X89221105Y-57864365D01*
X89223553Y-57864629D01*
X89226016Y-57864700D01*
X89226017Y-57864700D01*
X89229666Y-57864805D01*
X89280871Y-57866280D01*
X89551932Y-57866280D01*
X89553495Y-57866202D01*
X89553503Y-57866202D01*
X89649871Y-57861404D01*
X89847738Y-57851554D01*
X89850823Y-57851090D01*
X89850825Y-57851090D01*
X90235896Y-57793197D01*
X90238989Y-57792732D01*
X90440164Y-57741640D01*
X90619419Y-57696115D01*
X90619422Y-57696114D01*
X90622462Y-57695342D01*
X90732225Y-57655500D01*
X90991429Y-57561414D01*
X90991439Y-57561410D01*
X90994367Y-57560347D01*
X91351026Y-57389082D01*
X91688911Y-57183241D01*
X92004681Y-56944859D01*
X92006963Y-56942749D01*
X92006972Y-56942742D01*
X92216123Y-56749404D01*
X92295214Y-56676293D01*
X92325323Y-56642321D01*
X92555552Y-56382551D01*
X92555557Y-56382545D01*
X92557636Y-56380199D01*
X92789353Y-56059506D01*
X92988073Y-55717384D01*
X92998442Y-55694580D01*
X93150539Y-55360059D01*
X93150540Y-55360056D01*
X93151831Y-55357217D01*
X93279008Y-54982567D01*
X93368346Y-54597137D01*
X93412797Y-54252530D01*
X93418560Y-54207851D01*
X93418560Y-54207848D01*
X93418961Y-54204741D01*
X93430353Y-53809258D01*
X93429991Y-53804136D01*
X93402632Y-53417734D01*
X93402410Y-53414598D01*
X93335407Y-53024665D01*
X93312808Y-52942896D01*
X93244297Y-52695016D01*
X93230008Y-52643315D01*
X93226178Y-52633414D01*
X93088389Y-52277252D01*
X93088387Y-52277247D01*
X93087254Y-52274319D01*
X93075069Y-52250248D01*
X92909976Y-51924128D01*
X92908557Y-51921325D01*
X92695685Y-51587825D01*
X92450742Y-51277117D01*
X92448567Y-51274861D01*
X92448562Y-51274855D01*
X92286502Y-51106744D01*
X92176151Y-50992272D01*
X92074666Y-50906054D01*
X91877021Y-50738142D01*
X91877013Y-50738135D01*
X91874626Y-50736108D01*
X91565058Y-50522152D01*
X91520393Y-50466967D01*
X91512652Y-50396394D01*
X91544296Y-50332839D01*
X91605276Y-50296481D01*
X91636698Y-50292500D01*
X125539984Y-50292500D01*
X125608105Y-50312502D01*
G37*
G04 #@! TD.AperFunction*
G04 #@! TA.AperFunction,Conductor*
G36*
X97490107Y-60343502D02*
G01*
X97524882Y-60376779D01*
X97547145Y-60408280D01*
X97550479Y-60412997D01*
X97696410Y-60555157D01*
X97701206Y-60558362D01*
X97701209Y-60558364D01*
X97769149Y-60603760D01*
X97865803Y-60668342D01*
X97871106Y-60670620D01*
X97871109Y-60670622D01*
X97960115Y-60708862D01*
X98052987Y-60748763D01*
X98105896Y-60760735D01*
X98246055Y-60792450D01*
X98246060Y-60792451D01*
X98251692Y-60793725D01*
X98257463Y-60793952D01*
X98257465Y-60793952D01*
X98319727Y-60796398D01*
X98455263Y-60801723D01*
X98530358Y-60790835D01*
X98600643Y-60800855D01*
X98637532Y-60826436D01*
X106271595Y-68460500D01*
X106305621Y-68522812D01*
X106308500Y-68549595D01*
X106308500Y-68624154D01*
X106288498Y-68692275D01*
X106234842Y-68738768D01*
X106157918Y-68747733D01*
X106133366Y-68742849D01*
X106127592Y-68742773D01*
X106127588Y-68742773D01*
X106024452Y-68741424D01*
X105929655Y-68740183D01*
X105923958Y-68741162D01*
X105923957Y-68741162D01*
X105765755Y-68768346D01*
X105728870Y-68774684D01*
X105537734Y-68845198D01*
X105532773Y-68848150D01*
X105532772Y-68848150D01*
X105416939Y-68917064D01*
X105362649Y-68949363D01*
X105209478Y-69083690D01*
X105205911Y-69088215D01*
X105205906Y-69088220D01*
X105134924Y-69178261D01*
X105083351Y-69243681D01*
X105080662Y-69248792D01*
X105080660Y-69248795D01*
X105065946Y-69276762D01*
X104988492Y-69423978D01*
X104928078Y-69618543D01*
X104904132Y-69820859D01*
X104917457Y-70024151D01*
X104967605Y-70221610D01*
X105052898Y-70406624D01*
X105170479Y-70572997D01*
X105243444Y-70644077D01*
X105307726Y-70706697D01*
X105316410Y-70715157D01*
X105321206Y-70718362D01*
X105321209Y-70718364D01*
X105430357Y-70791294D01*
X105485803Y-70828342D01*
X105491106Y-70830620D01*
X105491109Y-70830622D01*
X105667673Y-70906480D01*
X105672987Y-70908763D01*
X105730417Y-70921758D01*
X105866055Y-70952450D01*
X105866060Y-70952451D01*
X105871692Y-70953725D01*
X105877463Y-70953952D01*
X105877465Y-70953952D01*
X105940470Y-70956427D01*
X106075263Y-70961723D01*
X106276883Y-70932490D01*
X106282347Y-70930635D01*
X106282352Y-70930634D01*
X106464327Y-70868862D01*
X106464332Y-70868860D01*
X106469799Y-70867004D01*
X106475653Y-70863726D01*
X106559930Y-70816528D01*
X106647551Y-70767458D01*
X106727325Y-70701111D01*
X106792487Y-70672931D01*
X106862542Y-70684454D01*
X106896987Y-70708891D01*
X108295595Y-72107499D01*
X108329621Y-72169811D01*
X108332500Y-72196594D01*
X108332500Y-74538642D01*
X108312498Y-74606763D01*
X108258842Y-74653256D01*
X108188568Y-74663360D01*
X108123988Y-74633866D01*
X108098724Y-74603914D01*
X108028176Y-74487426D01*
X108018869Y-74475557D01*
X107908443Y-74365131D01*
X107896574Y-74355824D01*
X107762988Y-74274921D01*
X107749243Y-74268715D01*
X107599356Y-74221744D01*
X107586306Y-74219131D01*
X107522479Y-74213266D01*
X107516691Y-74213000D01*
X107460115Y-74213000D01*
X107444876Y-74217475D01*
X107443671Y-74218865D01*
X107442000Y-74226548D01*
X107442000Y-75249000D01*
X107421998Y-75317121D01*
X107368342Y-75363614D01*
X107316000Y-75375000D01*
X107060000Y-75375000D01*
X106991879Y-75354998D01*
X106945386Y-75301342D01*
X106934000Y-75249000D01*
X106934000Y-74231116D01*
X106929525Y-74215877D01*
X106928135Y-74214672D01*
X106920452Y-74213001D01*
X106859295Y-74213001D01*
X106853546Y-74213264D01*
X106789685Y-74219132D01*
X106776649Y-74221743D01*
X106626757Y-74268715D01*
X106613012Y-74274921D01*
X106479426Y-74355824D01*
X106467557Y-74365131D01*
X106357131Y-74475557D01*
X106347824Y-74487426D01*
X106266921Y-74621012D01*
X106260716Y-74634755D01*
X106248234Y-74674585D01*
X106208776Y-74733607D01*
X106143672Y-74761927D01*
X106073593Y-74750553D01*
X106038905Y-74726000D01*
X106020770Y-74707865D01*
X106017573Y-74705385D01*
X106008551Y-74697680D01*
X106000693Y-74690301D01*
X105976321Y-74667414D01*
X105969375Y-74663595D01*
X105969372Y-74663593D01*
X105958566Y-74657652D01*
X105942047Y-74646801D01*
X105941583Y-74646441D01*
X105926041Y-74634386D01*
X105918772Y-74631241D01*
X105918768Y-74631238D01*
X105885463Y-74616826D01*
X105874813Y-74611609D01*
X105836060Y-74590305D01*
X105816437Y-74585267D01*
X105797734Y-74578863D01*
X105786420Y-74573967D01*
X105786419Y-74573967D01*
X105779145Y-74570819D01*
X105771322Y-74569580D01*
X105771312Y-74569577D01*
X105735476Y-74563901D01*
X105723856Y-74561495D01*
X105688711Y-74552472D01*
X105688710Y-74552472D01*
X105681030Y-74550500D01*
X105660776Y-74550500D01*
X105641065Y-74548949D01*
X105628886Y-74547020D01*
X105621057Y-74545780D01*
X105613165Y-74546526D01*
X105577039Y-74549941D01*
X105565181Y-74550500D01*
X102530070Y-74550500D01*
X102461949Y-74530498D01*
X102429112Y-74499889D01*
X102420593Y-74488480D01*
X102358622Y-74405491D01*
X102202271Y-74260963D01*
X102022201Y-74147347D01*
X101824441Y-74068449D01*
X101818781Y-74067323D01*
X101818777Y-74067322D01*
X101621282Y-74028038D01*
X101621280Y-74028038D01*
X101615615Y-74026911D01*
X101609840Y-74026835D01*
X101609836Y-74026835D01*
X101506850Y-74025487D01*
X101438997Y-74004595D01*
X101393211Y-73950335D01*
X101382500Y-73899498D01*
X101382500Y-73215866D01*
X101375745Y-73153684D01*
X101324615Y-73017295D01*
X101237261Y-72900739D01*
X101120705Y-72813385D01*
X100984316Y-72762255D01*
X100922134Y-72755500D01*
X100081500Y-72755500D01*
X100013379Y-72735498D01*
X99966886Y-72681842D01*
X99955500Y-72629500D01*
X99955500Y-70740154D01*
X99975502Y-70672033D01*
X100029158Y-70625540D01*
X100099432Y-70615436D01*
X100164012Y-70644930D01*
X100169422Y-70649900D01*
X100227726Y-70706697D01*
X100236410Y-70715157D01*
X100241206Y-70718362D01*
X100241209Y-70718364D01*
X100350357Y-70791294D01*
X100405803Y-70828342D01*
X100411106Y-70830620D01*
X100411109Y-70830622D01*
X100587673Y-70906480D01*
X100592987Y-70908763D01*
X100650417Y-70921758D01*
X100786055Y-70952450D01*
X100786060Y-70952451D01*
X100791692Y-70953725D01*
X100797463Y-70953952D01*
X100797465Y-70953952D01*
X100860470Y-70956427D01*
X100995263Y-70961723D01*
X101196883Y-70932490D01*
X101202347Y-70930635D01*
X101202352Y-70930634D01*
X101384327Y-70868862D01*
X101384332Y-70868860D01*
X101389799Y-70867004D01*
X101395653Y-70863726D01*
X101479930Y-70816528D01*
X101567551Y-70767458D01*
X101724186Y-70637186D01*
X101854458Y-70480551D01*
X101954004Y-70302799D01*
X101955860Y-70297332D01*
X101955862Y-70297327D01*
X102017634Y-70115352D01*
X102017635Y-70115347D01*
X102019490Y-70109883D01*
X102048723Y-69908263D01*
X102050249Y-69850000D01*
X102047571Y-69820859D01*
X102364132Y-69820859D01*
X102377457Y-70024151D01*
X102427605Y-70221610D01*
X102512898Y-70406624D01*
X102630479Y-70572997D01*
X102703444Y-70644077D01*
X102767726Y-70706697D01*
X102776410Y-70715157D01*
X102781206Y-70718362D01*
X102781209Y-70718364D01*
X102890357Y-70791294D01*
X102945803Y-70828342D01*
X102951106Y-70830620D01*
X102951109Y-70830622D01*
X103127673Y-70906480D01*
X103132987Y-70908763D01*
X103190417Y-70921758D01*
X103326055Y-70952450D01*
X103326060Y-70952451D01*
X103331692Y-70953725D01*
X103337463Y-70953952D01*
X103337465Y-70953952D01*
X103400470Y-70956427D01*
X103535263Y-70961723D01*
X103736883Y-70932490D01*
X103742347Y-70930635D01*
X103742352Y-70930634D01*
X103924327Y-70868862D01*
X103924332Y-70868860D01*
X103929799Y-70867004D01*
X103935653Y-70863726D01*
X104019930Y-70816528D01*
X104107551Y-70767458D01*
X104264186Y-70637186D01*
X104394458Y-70480551D01*
X104494004Y-70302799D01*
X104495860Y-70297332D01*
X104495862Y-70297327D01*
X104557634Y-70115352D01*
X104557635Y-70115347D01*
X104559490Y-70109883D01*
X104588723Y-69908263D01*
X104590249Y-69850000D01*
X104578860Y-69726049D01*
X104572137Y-69652880D01*
X104572136Y-69652877D01*
X104571608Y-69647126D01*
X104516307Y-69451047D01*
X104505776Y-69429691D01*
X104428756Y-69273510D01*
X104426201Y-69268329D01*
X104412012Y-69249327D01*
X104307758Y-69109715D01*
X104307758Y-69109714D01*
X104304305Y-69105091D01*
X104154703Y-68966800D01*
X104048947Y-68900073D01*
X103987288Y-68861169D01*
X103987283Y-68861167D01*
X103982404Y-68858088D01*
X103793180Y-68782595D01*
X103617919Y-68747733D01*
X103599032Y-68743976D01*
X103599031Y-68743976D01*
X103593366Y-68742849D01*
X103587592Y-68742773D01*
X103587588Y-68742773D01*
X103484452Y-68741424D01*
X103389655Y-68740183D01*
X103383958Y-68741162D01*
X103383957Y-68741162D01*
X103225755Y-68768346D01*
X103188870Y-68774684D01*
X102997734Y-68845198D01*
X102992773Y-68848150D01*
X102992772Y-68848150D01*
X102876939Y-68917064D01*
X102822649Y-68949363D01*
X102669478Y-69083690D01*
X102665911Y-69088215D01*
X102665906Y-69088220D01*
X102594924Y-69178261D01*
X102543351Y-69243681D01*
X102540662Y-69248792D01*
X102540660Y-69248795D01*
X102525946Y-69276762D01*
X102448492Y-69423978D01*
X102388078Y-69618543D01*
X102364132Y-69820859D01*
X102047571Y-69820859D01*
X102038860Y-69726049D01*
X102032137Y-69652880D01*
X102032136Y-69652877D01*
X102031608Y-69647126D01*
X101976307Y-69451047D01*
X101965776Y-69429691D01*
X101888756Y-69273510D01*
X101886201Y-69268329D01*
X101872012Y-69249327D01*
X101767758Y-69109715D01*
X101767758Y-69109714D01*
X101764305Y-69105091D01*
X101614703Y-68966800D01*
X101508947Y-68900073D01*
X101447288Y-68861169D01*
X101447283Y-68861167D01*
X101442404Y-68858088D01*
X101253180Y-68782595D01*
X101077919Y-68747733D01*
X101059032Y-68743976D01*
X101059031Y-68743976D01*
X101053366Y-68742849D01*
X101047592Y-68742773D01*
X101047588Y-68742773D01*
X100944452Y-68741424D01*
X100849655Y-68740183D01*
X100843958Y-68741162D01*
X100843957Y-68741162D01*
X100685755Y-68768346D01*
X100648870Y-68774684D01*
X100457734Y-68845198D01*
X100452773Y-68848150D01*
X100452772Y-68848150D01*
X100336939Y-68917064D01*
X100282649Y-68949363D01*
X100262766Y-68966800D01*
X100164577Y-69052909D01*
X100100173Y-69082786D01*
X100029840Y-69073100D01*
X99975909Y-69026927D01*
X99955500Y-68958177D01*
X99955500Y-67460267D01*
X99956027Y-67449084D01*
X99957702Y-67441591D01*
X99955562Y-67373514D01*
X99955500Y-67369555D01*
X99955500Y-67341644D01*
X99954995Y-67337644D01*
X99954062Y-67325801D01*
X99952922Y-67289529D01*
X99952673Y-67281610D01*
X99947022Y-67262158D01*
X99943014Y-67242806D01*
X99941467Y-67230563D01*
X99940474Y-67222703D01*
X99937556Y-67215332D01*
X99924200Y-67181597D01*
X99920355Y-67170370D01*
X99919721Y-67168187D01*
X99908018Y-67127907D01*
X99897707Y-67110472D01*
X99889012Y-67092724D01*
X99881552Y-67073883D01*
X99855564Y-67038113D01*
X99849048Y-67028193D01*
X99830580Y-66996965D01*
X99830578Y-66996962D01*
X99826542Y-66990138D01*
X99812221Y-66975817D01*
X99799380Y-66960783D01*
X99792131Y-66950806D01*
X99787472Y-66944393D01*
X99753395Y-66916202D01*
X99744616Y-66908212D01*
X95412405Y-62576000D01*
X95378379Y-62513688D01*
X95375500Y-62486905D01*
X95375500Y-60875349D01*
X95395502Y-60807228D01*
X95449158Y-60760735D01*
X95519432Y-60750631D01*
X95529308Y-60752456D01*
X95706055Y-60792450D01*
X95706060Y-60792451D01*
X95711692Y-60793725D01*
X95717463Y-60793952D01*
X95717465Y-60793952D01*
X95779727Y-60796398D01*
X95915263Y-60801723D01*
X96116883Y-60772490D01*
X96122347Y-60770635D01*
X96122352Y-60770634D01*
X96304327Y-60708862D01*
X96304332Y-60708860D01*
X96309799Y-60707004D01*
X96487551Y-60607458D01*
X96644186Y-60477186D01*
X96694222Y-60417024D01*
X96734221Y-60368931D01*
X96793159Y-60329347D01*
X96831095Y-60323500D01*
X97421986Y-60323500D01*
X97490107Y-60343502D01*
G37*
G04 #@! TD.AperFunction*
G04 #@! TA.AperFunction,Conductor*
G36*
X101038722Y-53803502D02*
G01*
X101085215Y-53857158D01*
X101095319Y-53927432D01*
X101074689Y-53980504D01*
X101035648Y-54037736D01*
X101030550Y-54046710D01*
X100939501Y-54242857D01*
X100935942Y-54252530D01*
X100878148Y-54460932D01*
X100876221Y-54471036D01*
X100853239Y-54686084D01*
X100852987Y-54696373D01*
X100865437Y-54912279D01*
X100866870Y-54922481D01*
X100914412Y-55133442D01*
X100917495Y-55143282D01*
X100998857Y-55343652D01*
X101003500Y-55352843D01*
X101086915Y-55488964D01*
X101097372Y-55498424D01*
X101106148Y-55494641D01*
X102145905Y-54454885D01*
X102208217Y-54420859D01*
X102279033Y-54425924D01*
X102324095Y-54454885D01*
X103359806Y-55490595D01*
X103371817Y-55497154D01*
X103383554Y-55488187D01*
X103403663Y-55460203D01*
X103459658Y-55416556D01*
X103530361Y-55410110D01*
X103593326Y-55442913D01*
X103613418Y-55467895D01*
X103656096Y-55537539D01*
X103658793Y-55541940D01*
X103679267Y-55565576D01*
X103803824Y-55709369D01*
X103803828Y-55709373D01*
X103807209Y-55713276D01*
X103811184Y-55716576D01*
X103811187Y-55716579D01*
X103815410Y-55720085D01*
X103981615Y-55858071D01*
X104004646Y-55871529D01*
X104172867Y-55969829D01*
X104172870Y-55969831D01*
X104177329Y-55972436D01*
X104296461Y-56017928D01*
X104298718Y-56018790D01*
X104355221Y-56061778D01*
X104379514Y-56128489D01*
X104363884Y-56197743D01*
X104313293Y-56247554D01*
X104253769Y-56262500D01*
X102764325Y-56262500D01*
X102696204Y-56242498D01*
X102649711Y-56188842D01*
X102639607Y-56118568D01*
X102669101Y-56053988D01*
X102728117Y-56015814D01*
X102734584Y-56013874D01*
X102744158Y-56010122D01*
X102938378Y-55914975D01*
X102947216Y-55909706D01*
X102998587Y-55873064D01*
X103006988Y-55862364D01*
X103000002Y-55849213D01*
X102247811Y-55097021D01*
X102233868Y-55089408D01*
X102232034Y-55089539D01*
X102225420Y-55093790D01*
X101467112Y-55852099D01*
X101460355Y-55864474D01*
X101465636Y-55871529D01*
X101633087Y-55969380D01*
X101642370Y-55973827D01*
X101760116Y-56018790D01*
X101816619Y-56061777D01*
X101840912Y-56128488D01*
X101825282Y-56197743D01*
X101774691Y-56247554D01*
X101715167Y-56262500D01*
X99120595Y-56262500D01*
X99052474Y-56242498D01*
X99031500Y-56225595D01*
X98887218Y-56081313D01*
X98874376Y-56066278D01*
X98871295Y-56062037D01*
X98862472Y-56049893D01*
X98828406Y-56021711D01*
X98819627Y-56013722D01*
X98525557Y-55719652D01*
X98491532Y-55657340D01*
X98496597Y-55586524D01*
X98525558Y-55541462D01*
X98626639Y-55440381D01*
X98715472Y-55293699D01*
X98766753Y-55130062D01*
X98773500Y-55056635D01*
X98773499Y-54543366D01*
X98766753Y-54469938D01*
X98752960Y-54425924D01*
X98717744Y-54313550D01*
X98717743Y-54313548D01*
X98715472Y-54306301D01*
X98626639Y-54159619D01*
X98531115Y-54064095D01*
X98497089Y-54001783D01*
X98502154Y-53930968D01*
X98531115Y-53885905D01*
X98596615Y-53820405D01*
X98658927Y-53786379D01*
X98685710Y-53783500D01*
X100970601Y-53783500D01*
X101038722Y-53803502D01*
G37*
G04 #@! TD.AperFunction*
M02*
