M48
; DRILL file {KiCad (6.0.7)} date Sat Apr 22 02:03:09 2023
; FORMAT={-:-/ absolute / metric / decimal}
; #@! TF.CreationDate,2023-04-22T02:03:09-05:00
; #@! TF.GenerationSoftware,Kicad,Pcbnew,(6.0.7)
; #@! TF.FileFunction,Plated,1,2,PTH
FMAT,2
METRIC
; #@! TA.AperFunction,Plated,PTH,ViaDrill
T1C0.400
; #@! TA.AperFunction,Plated,PTH,ComponentDrill
T2C1.090
%
G90
G05
T1
X116.637Y-121.209
X116.688Y-97.841
X119.38Y-97.028
X119.634Y-122.047
X123.444Y-103.759
X123.749Y-98.4
X124.46Y-96.901
X124.587Y-91.186
X124.968Y-121.158
X126.035Y-129.489
X126.111Y-114.427
X128.778Y-122.174
X128.778Y-128.651
X129.159Y-108.585
X130.556Y-101.854
X131.445Y-121.412
X133.858Y-112.014
X134.01Y-116.637
X134.366Y-118.999
X134.417Y-105.461
X135.636Y-92.837
X135.89Y-91.186
X137.414Y-90.043
X139.548Y-115.519
X140.97Y-101.219
X141.007Y-96.393
X141.173Y-106.883
X142.621Y-90.043
X144.018Y-97.409
X144.272Y-102.616
X144.399Y-111.506
X147.574Y-105.664
X148.285Y-129.591
X148.717Y-116.332
X149.733Y-128.651
X149.987Y-121.793
X150.063Y-98.044
X150.165Y-120.345
X155.321Y-121.793
X157.582Y-98.146
X157.582Y-120.396
T2
X130.81Y-85.141
X133.35Y-85.141
X135.89Y-85.141
X138.43Y-85.141
X140.97Y-85.141
X143.51Y-85.141
T0
M30
