G04 #@! TF.GenerationSoftware,KiCad,Pcbnew,(6.0.7)*
G04 #@! TF.CreationDate,2023-04-22T02:00:50-05:00*
G04 #@! TF.ProjectId,LED_BoardRev2,4c45445f-426f-4617-9264-526576322e6b,rev?*
G04 #@! TF.SameCoordinates,Original*
G04 #@! TF.FileFunction,Soldermask,Top*
G04 #@! TF.FilePolarity,Negative*
%FSLAX46Y46*%
G04 Gerber Fmt 4.6, Leading zero omitted, Abs format (unit mm)*
G04 Created by KiCad (PCBNEW (6.0.7)) date 2023-04-22 02:00:50*
%MOMM*%
%LPD*%
G01*
G04 APERTURE LIST*
G04 Aperture macros list*
%AMRoundRect*
0 Rectangle with rounded corners*
0 $1 Rounding radius*
0 $2 $3 $4 $5 $6 $7 $8 $9 X,Y pos of 4 corners*
0 Add a 4 corners polygon primitive as box body*
4,1,4,$2,$3,$4,$5,$6,$7,$8,$9,$2,$3,0*
0 Add four circle primitives for the rounded corners*
1,1,$1+$1,$2,$3*
1,1,$1+$1,$4,$5*
1,1,$1+$1,$6,$7*
1,1,$1+$1,$8,$9*
0 Add four rect primitives between the rounded corners*
20,1,$1+$1,$2,$3,$4,$5,0*
20,1,$1+$1,$4,$5,$6,$7,0*
20,1,$1+$1,$6,$7,$8,$9,0*
20,1,$1+$1,$8,$9,$2,$3,0*%
%AMRotRect*
0 Rectangle, with rotation*
0 The origin of the aperture is its center*
0 $1 length*
0 $2 width*
0 $3 Rotation angle, in degrees counterclockwise*
0 Add horizontal line*
21,1,$1,$2,0,0,$3*%
%AMOutline5P*
0 Free polygon, 5 corners , with rotation*
0 The origin of the aperture is its center*
0 number of corners: always 5*
0 $1 to $10 corner X, Y*
0 $11 Rotation angle, in degrees counterclockwise*
0 create outline with 5 corners*
4,1,5,$1,$2,$3,$4,$5,$6,$7,$8,$9,$10,$1,$2,$11*%
%AMOutline6P*
0 Free polygon, 6 corners , with rotation*
0 The origin of the aperture is its center*
0 number of corners: always 6*
0 $1 to $12 corner X, Y*
0 $13 Rotation angle, in degrees counterclockwise*
0 create outline with 6 corners*
4,1,6,$1,$2,$3,$4,$5,$6,$7,$8,$9,$10,$11,$12,$1,$2,$13*%
%AMOutline7P*
0 Free polygon, 7 corners , with rotation*
0 The origin of the aperture is its center*
0 number of corners: always 7*
0 $1 to $14 corner X, Y*
0 $15 Rotation angle, in degrees counterclockwise*
0 create outline with 7 corners*
4,1,7,$1,$2,$3,$4,$5,$6,$7,$8,$9,$10,$11,$12,$13,$14,$1,$2,$15*%
%AMOutline8P*
0 Free polygon, 8 corners , with rotation*
0 The origin of the aperture is its center*
0 number of corners: always 8*
0 $1 to $16 corner X, Y*
0 $17 Rotation angle, in degrees counterclockwise*
0 create outline with 8 corners*
4,1,8,$1,$2,$3,$4,$5,$6,$7,$8,$9,$10,$11,$12,$13,$14,$15,$16,$1,$2,$17*%
%AMFreePoly0*
4,1,13,0.662500,-1.575000,-0.662500,-1.575000,-0.662500,-0.255000,-1.112500,-0.255000,-1.116037,-0.253536,-1.117500,-0.250000,-1.117500,0.250000,-1.116037,0.253536,-1.112500,0.255000,-0.662500,0.255000,-0.662500,1.575000,0.662500,1.575000,0.662500,-1.575000,0.662500,-1.575000,$1*%
%AMFreePoly1*
4,1,13,0.662500,0.255000,1.112500,0.255000,1.116037,0.253536,1.117500,0.250000,1.117500,-0.250000,1.116037,-0.253536,1.112500,-0.255000,0.662500,-0.255000,0.662500,-1.575000,-0.662500,-1.575000,-0.662500,1.575000,0.662500,1.575000,0.662500,0.255000,0.662500,0.255000,$1*%
%AMFreePoly2*
4,1,29,2.703536,3.023536,2.705000,3.020000,2.705000,2.000000,2.703536,1.996464,2.700000,1.995000,0.500000,1.995000,0.500000,-1.995000,2.700000,-1.995000,2.703536,-1.996464,2.705000,-2.000000,2.705000,-3.020000,2.703536,-3.023536,2.700000,-3.025000,-2.700000,-3.025000,-2.703536,-3.023536,-2.705000,-3.020000,-2.705000,-2.000000,-2.703536,-1.996464,-2.700000,-1.995000,-0.500000,-1.995000,
-0.500000,1.995000,-2.700000,1.995000,-2.703536,1.996464,-2.705000,2.000000,-2.705000,3.020000,-2.703536,3.023536,-2.700000,3.025000,2.700000,3.025000,2.703536,3.023536,2.703536,3.023536,$1*%
G04 Aperture macros list end*
%ADD10FreePoly0,315.000000*%
%ADD11FreePoly1,315.000000*%
%ADD12R,1.550000X3.400000*%
%ADD13FreePoly2,180.000000*%
%ADD14RotRect,3.300000X0.500000X315.000000*%
%ADD15RotRect,3.300000X1.300000X315.000000*%
%ADD16RotRect,3.300000X0.500000X225.000000*%
%ADD17RotRect,3.300000X1.300000X225.000000*%
%ADD18Outline5P,-0.735000X0.735000X0.735000X0.735000X0.735000X-0.335000X0.335000X-0.735000X-0.735000X-0.735000X90.000000*%
%ADD19Outline5P,-0.735000X0.735000X0.735000X0.735000X0.735000X-0.735000X-0.335000X-0.735000X-0.735000X-0.335000X90.000000*%
%ADD20Outline5P,-0.735000X0.735000X0.335000X0.735000X0.735000X0.335000X0.735000X-0.735000X-0.735000X-0.735000X90.000000*%
%ADD21Outline5P,-0.735000X0.335000X-0.335000X0.735000X0.735000X0.735000X0.735000X-0.735000X-0.735000X-0.735000X90.000000*%
%ADD22C,3.450000*%
%ADD23RotRect,3.300000X0.500000X135.000000*%
%ADD24RotRect,3.300000X1.300000X135.000000*%
%ADD25C,2.946400*%
%ADD26FreePoly0,135.000000*%
%ADD27FreePoly1,135.000000*%
%ADD28RotRect,3.300000X0.500000X45.000000*%
%ADD29RotRect,3.300000X1.300000X45.000000*%
%ADD30RoundRect,0.250000X0.620000X0.620000X-0.620000X0.620000X-0.620000X-0.620000X0.620000X-0.620000X0*%
%ADD31C,1.740000*%
%ADD32C,3.200000*%
%ADD33FreePoly2,0.000000*%
G04 APERTURE END LIST*
D10*
X131434765Y-113654765D03*
D11*
X132725235Y-114945235D03*
D12*
X125165800Y-109220000D03*
X121315800Y-109220000D03*
D13*
X123240800Y-109220000D03*
D14*
X127989949Y-118390051D03*
X126010051Y-120369949D03*
D15*
X127000000Y-119380000D03*
D16*
X143229949Y-115289949D03*
X141250051Y-113310051D03*
D17*
X142240000Y-114300000D03*
D18*
X135191000Y-124549400D03*
D19*
X135191000Y-120611400D03*
D20*
X139129000Y-124549400D03*
D21*
X139129000Y-120611400D03*
D22*
X137160000Y-122580400D03*
D16*
X127963898Y-100049949D03*
X125984000Y-98070051D03*
D17*
X126973949Y-99060000D03*
D23*
X146330051Y-100049949D03*
X148309949Y-98070051D03*
D24*
X147320000Y-99060000D03*
D25*
X154630120Y-91749880D03*
X119689880Y-91749880D03*
X154630120Y-126690120D03*
X119689880Y-126690120D03*
D26*
X142885235Y-104785235D03*
D27*
X141594765Y-103494765D03*
D28*
X131090164Y-103150051D03*
X133070062Y-105129949D03*
D29*
X132080113Y-104140000D03*
D28*
X146330051Y-118390051D03*
X148309949Y-120369949D03*
D29*
X147320000Y-119380000D03*
D19*
X135191000Y-94551000D03*
D18*
X135191000Y-98489000D03*
D20*
X139129000Y-98489000D03*
D21*
X139129000Y-94551000D03*
D22*
X137160000Y-96520000D03*
D30*
X143510000Y-85140800D03*
D31*
X140970000Y-85140800D03*
X138430000Y-85140800D03*
X135890000Y-85140800D03*
X133350000Y-85140800D03*
X130810000Y-85140800D03*
D32*
X137160000Y-109220000D03*
D12*
X149205000Y-109220000D03*
X153055000Y-109220000D03*
D33*
X151130000Y-109220000D03*
M02*
