%TF.GenerationSoftware,KiCad,Pcbnew,(6.0.7)*%
%TF.CreationDate,2023-04-22T03:46:43-05:00*%
%TF.ProjectId,Flouro_Breakout,466c6f75-726f-45f4-9272-65616b6f7574,rev?*%
%TF.SameCoordinates,Original*%
%TF.FileFunction,Legend,Top*%
%TF.FilePolarity,Positive*%
%FSLAX46Y46*%
G04 Gerber Fmt 4.6, Leading zero omitted, Abs format (unit mm)*
G04 Created by KiCad (PCBNEW (6.0.7)) date 2023-04-22 03:46:43*
%MOMM*%
%LPD*%
G01*
G04 APERTURE LIST*
G04 Aperture macros list*
%AMRoundRect*
0 Rectangle with rounded corners*
0 $1 Rounding radius*
0 $2 $3 $4 $5 $6 $7 $8 $9 X,Y pos of 4 corners*
0 Add a 4 corners polygon primitive as box body*
4,1,4,$2,$3,$4,$5,$6,$7,$8,$9,$2,$3,0*
0 Add four circle primitives for the rounded corners*
1,1,$1+$1,$2,$3*
1,1,$1+$1,$4,$5*
1,1,$1+$1,$6,$7*
1,1,$1+$1,$8,$9*
0 Add four rect primitives between the rounded corners*
20,1,$1+$1,$2,$3,$4,$5,0*
20,1,$1+$1,$4,$5,$6,$7,0*
20,1,$1+$1,$6,$7,$8,$9,0*
20,1,$1+$1,$8,$9,$2,$3,0*%
G04 Aperture macros list end*
%ADD10C,0.150000*%
%ADD11C,0.120000*%
%ADD12C,0.127000*%
%ADD13C,0.200000*%
%ADD14RoundRect,0.250000X-0.620000X-0.620000X0.620000X-0.620000X0.620000X0.620000X-0.620000X0.620000X0*%
%ADD15C,1.740000*%
%ADD16C,2.946400*%
%ADD17RoundRect,0.237500X-0.250000X-0.237500X0.250000X-0.237500X0.250000X0.237500X-0.250000X0.237500X0*%
%ADD18RoundRect,0.237500X0.250000X0.237500X-0.250000X0.237500X-0.250000X-0.237500X0.250000X-0.237500X0*%
%ADD19RoundRect,0.237500X0.237500X-0.250000X0.237500X0.250000X-0.237500X0.250000X-0.237500X-0.250000X0*%
%ADD20RoundRect,0.150000X0.675000X0.150000X-0.675000X0.150000X-0.675000X-0.150000X0.675000X-0.150000X0*%
%ADD21RoundRect,0.150000X0.150000X-0.587500X0.150000X0.587500X-0.150000X0.587500X-0.150000X-0.587500X0*%
%ADD22RoundRect,0.237500X-0.237500X0.287500X-0.237500X-0.287500X0.237500X-0.287500X0.237500X0.287500X0*%
%ADD23C,1.524000*%
%ADD24O,5.100000X3.000000*%
%ADD25C,1.308000*%
%ADD26C,1.258000*%
%ADD27C,1.208000*%
%ADD28RoundRect,0.237500X0.237500X-0.287500X0.237500X0.287500X-0.237500X0.287500X-0.237500X-0.287500X0*%
%ADD29C,1.100000*%
%ADD30C,1.400000*%
%ADD31C,4.000000*%
%ADD32C,2.000000*%
%ADD33RoundRect,0.237500X0.300000X0.237500X-0.300000X0.237500X-0.300000X-0.237500X0.300000X-0.237500X0*%
%ADD34RoundRect,0.237500X-0.237500X0.300000X-0.237500X-0.300000X0.237500X-0.300000X0.237500X0.300000X0*%
G04 APERTURE END LIST*
D10*
X156234928Y-63274484D02*
X156234928Y-62512484D01*
X156597785Y-62766484D02*
X156597785Y-63274484D01*
X156597785Y-62839055D02*
X156634071Y-62802770D01*
X156706642Y-62766484D01*
X156815500Y-62766484D01*
X156888071Y-62802770D01*
X156924357Y-62875341D01*
X156924357Y-63274484D01*
X157250928Y-63238198D02*
X157323500Y-63274484D01*
X157468642Y-63274484D01*
X157541214Y-63238198D01*
X157577500Y-63165627D01*
X157577500Y-63129341D01*
X157541214Y-63056770D01*
X157468642Y-63020484D01*
X157359785Y-63020484D01*
X157287214Y-62984198D01*
X157250928Y-62911627D01*
X157250928Y-62875341D01*
X157287214Y-62802770D01*
X157359785Y-62766484D01*
X157468642Y-62766484D01*
X157541214Y-62802770D01*
X157795214Y-62766484D02*
X158085500Y-62766484D01*
X157904071Y-62512484D02*
X157904071Y-63165627D01*
X157940357Y-63238198D01*
X158012928Y-63274484D01*
X158085500Y-63274484D01*
X158339500Y-63274484D02*
X158339500Y-62766484D01*
X158339500Y-62911627D02*
X158375785Y-62839055D01*
X158412071Y-62802770D01*
X158484642Y-62766484D01*
X158557214Y-62766484D01*
X159137785Y-62766484D02*
X159137785Y-63274484D01*
X158811214Y-62766484D02*
X158811214Y-63165627D01*
X158847500Y-63238198D01*
X158920071Y-63274484D01*
X159028928Y-63274484D01*
X159101500Y-63238198D01*
X159137785Y-63201912D01*
X159500642Y-63274484D02*
X159500642Y-62766484D01*
X159500642Y-62839055D02*
X159536928Y-62802770D01*
X159609500Y-62766484D01*
X159718357Y-62766484D01*
X159790928Y-62802770D01*
X159827214Y-62875341D01*
X159827214Y-63274484D01*
X159827214Y-62875341D02*
X159863500Y-62802770D01*
X159936071Y-62766484D01*
X160044928Y-62766484D01*
X160117500Y-62802770D01*
X160153785Y-62875341D01*
X160153785Y-63274484D01*
X160806928Y-63238198D02*
X160734357Y-63274484D01*
X160589214Y-63274484D01*
X160516642Y-63238198D01*
X160480357Y-63165627D01*
X160480357Y-62875341D01*
X160516642Y-62802770D01*
X160589214Y-62766484D01*
X160734357Y-62766484D01*
X160806928Y-62802770D01*
X160843214Y-62875341D01*
X160843214Y-62947912D01*
X160480357Y-63020484D01*
X161169785Y-62766484D02*
X161169785Y-63274484D01*
X161169785Y-62839055D02*
X161206071Y-62802770D01*
X161278642Y-62766484D01*
X161387500Y-62766484D01*
X161460071Y-62802770D01*
X161496357Y-62875341D01*
X161496357Y-63274484D01*
X161750357Y-62766484D02*
X162040642Y-62766484D01*
X161859214Y-62512484D02*
X161859214Y-63165627D01*
X161895500Y-63238198D01*
X161968071Y-63274484D01*
X162040642Y-63274484D01*
X163129214Y-62875341D02*
X163238071Y-62911627D01*
X163274357Y-62947912D01*
X163310642Y-63020484D01*
X163310642Y-63129341D01*
X163274357Y-63201912D01*
X163238071Y-63238198D01*
X163165500Y-63274484D01*
X162875214Y-63274484D01*
X162875214Y-62512484D01*
X163129214Y-62512484D01*
X163201785Y-62548770D01*
X163238071Y-62585055D01*
X163274357Y-62657627D01*
X163274357Y-62730198D01*
X163238071Y-62802770D01*
X163201785Y-62839055D01*
X163129214Y-62875341D01*
X162875214Y-62875341D01*
X163746071Y-63274484D02*
X163673500Y-63238198D01*
X163637214Y-63201912D01*
X163600928Y-63129341D01*
X163600928Y-62911627D01*
X163637214Y-62839055D01*
X163673500Y-62802770D01*
X163746071Y-62766484D01*
X163854928Y-62766484D01*
X163927500Y-62802770D01*
X163963785Y-62839055D01*
X164000071Y-62911627D01*
X164000071Y-63129341D01*
X163963785Y-63201912D01*
X163927500Y-63238198D01*
X163854928Y-63274484D01*
X163746071Y-63274484D01*
X164653214Y-63274484D02*
X164653214Y-62875341D01*
X164616928Y-62802770D01*
X164544357Y-62766484D01*
X164399214Y-62766484D01*
X164326642Y-62802770D01*
X164653214Y-63238198D02*
X164580642Y-63274484D01*
X164399214Y-63274484D01*
X164326642Y-63238198D01*
X164290357Y-63165627D01*
X164290357Y-63093055D01*
X164326642Y-63020484D01*
X164399214Y-62984198D01*
X164580642Y-62984198D01*
X164653214Y-62947912D01*
X165016071Y-63274484D02*
X165016071Y-62766484D01*
X165016071Y-62911627D02*
X165052357Y-62839055D01*
X165088642Y-62802770D01*
X165161214Y-62766484D01*
X165233785Y-62766484D01*
X165814357Y-63274484D02*
X165814357Y-62512484D01*
X165814357Y-63238198D02*
X165741785Y-63274484D01*
X165596642Y-63274484D01*
X165524071Y-63238198D01*
X165487785Y-63201912D01*
X165451500Y-63129341D01*
X165451500Y-62911627D01*
X165487785Y-62839055D01*
X165524071Y-62802770D01*
X165596642Y-62766484D01*
X165741785Y-62766484D01*
X165814357Y-62802770D01*
X166213500Y-63238198D02*
X166213500Y-63274484D01*
X166177214Y-63347055D01*
X166140928Y-63383341D01*
X167556071Y-63274484D02*
X167302071Y-62911627D01*
X167120642Y-63274484D02*
X167120642Y-62512484D01*
X167410928Y-62512484D01*
X167483500Y-62548770D01*
X167519785Y-62585055D01*
X167556071Y-62657627D01*
X167556071Y-62766484D01*
X167519785Y-62839055D01*
X167483500Y-62875341D01*
X167410928Y-62911627D01*
X167120642Y-62911627D01*
X168172928Y-63238198D02*
X168100357Y-63274484D01*
X167955214Y-63274484D01*
X167882642Y-63238198D01*
X167846357Y-63165627D01*
X167846357Y-62875341D01*
X167882642Y-62802770D01*
X167955214Y-62766484D01*
X168100357Y-62766484D01*
X168172928Y-62802770D01*
X168209214Y-62875341D01*
X168209214Y-62947912D01*
X167846357Y-63020484D01*
X168463214Y-62766484D02*
X168644642Y-63274484D01*
X168826071Y-62766484D01*
X169515500Y-63274484D02*
X169080071Y-63274484D01*
X169297785Y-63274484D02*
X169297785Y-62512484D01*
X169225214Y-62621341D01*
X169152642Y-62693912D01*
X169080071Y-62730198D01*
X156234928Y-64501304D02*
X156234928Y-63739304D01*
X156488928Y-64283590D01*
X156742928Y-63739304D01*
X156742928Y-64501304D01*
X157432357Y-64501304D02*
X157432357Y-64102161D01*
X157396071Y-64029590D01*
X157323500Y-63993304D01*
X157178357Y-63993304D01*
X157105785Y-64029590D01*
X157432357Y-64465018D02*
X157359785Y-64501304D01*
X157178357Y-64501304D01*
X157105785Y-64465018D01*
X157069500Y-64392447D01*
X157069500Y-64319875D01*
X157105785Y-64247304D01*
X157178357Y-64211018D01*
X157359785Y-64211018D01*
X157432357Y-64174732D01*
X157795214Y-64501304D02*
X157795214Y-63993304D01*
X157795214Y-64138447D02*
X157831500Y-64065875D01*
X157867785Y-64029590D01*
X157940357Y-63993304D01*
X158012928Y-63993304D01*
X158230642Y-64465018D02*
X158303214Y-64501304D01*
X158448357Y-64501304D01*
X158520928Y-64465018D01*
X158557214Y-64392447D01*
X158557214Y-64356161D01*
X158520928Y-64283590D01*
X158448357Y-64247304D01*
X158339500Y-64247304D01*
X158266928Y-64211018D01*
X158230642Y-64138447D01*
X158230642Y-64102161D01*
X158266928Y-64029590D01*
X158339500Y-63993304D01*
X158448357Y-63993304D01*
X158520928Y-64029590D01*
X159899785Y-64501304D02*
X159645785Y-64138447D01*
X159464357Y-64501304D02*
X159464357Y-63739304D01*
X159754642Y-63739304D01*
X159827214Y-63775590D01*
X159863500Y-63811875D01*
X159899785Y-63884447D01*
X159899785Y-63993304D01*
X159863500Y-64065875D01*
X159827214Y-64102161D01*
X159754642Y-64138447D01*
X159464357Y-64138447D01*
X160335214Y-64501304D02*
X160262642Y-64465018D01*
X160226357Y-64428732D01*
X160190071Y-64356161D01*
X160190071Y-64138447D01*
X160226357Y-64065875D01*
X160262642Y-64029590D01*
X160335214Y-63993304D01*
X160444071Y-63993304D01*
X160516642Y-64029590D01*
X160552928Y-64065875D01*
X160589214Y-64138447D01*
X160589214Y-64356161D01*
X160552928Y-64428732D01*
X160516642Y-64465018D01*
X160444071Y-64501304D01*
X160335214Y-64501304D01*
X160843214Y-63993304D02*
X161024642Y-64501304D01*
X161206071Y-63993304D01*
X161786642Y-64465018D02*
X161714071Y-64501304D01*
X161568928Y-64501304D01*
X161496357Y-64465018D01*
X161460071Y-64392447D01*
X161460071Y-64102161D01*
X161496357Y-64029590D01*
X161568928Y-63993304D01*
X161714071Y-63993304D01*
X161786642Y-64029590D01*
X161822928Y-64102161D01*
X161822928Y-64174732D01*
X161460071Y-64247304D01*
X162149500Y-64501304D02*
X162149500Y-63993304D01*
X162149500Y-64138447D02*
X162185785Y-64065875D01*
X162222071Y-64029590D01*
X162294642Y-63993304D01*
X162367214Y-63993304D01*
X163201785Y-64501304D02*
X163201785Y-63739304D01*
X163383214Y-63739304D01*
X163492071Y-63775590D01*
X163564642Y-63848161D01*
X163600928Y-63920732D01*
X163637214Y-64065875D01*
X163637214Y-64174732D01*
X163600928Y-64319875D01*
X163564642Y-64392447D01*
X163492071Y-64465018D01*
X163383214Y-64501304D01*
X163201785Y-64501304D01*
X164254071Y-64465018D02*
X164181500Y-64501304D01*
X164036357Y-64501304D01*
X163963785Y-64465018D01*
X163927500Y-64392447D01*
X163927500Y-64102161D01*
X163963785Y-64029590D01*
X164036357Y-63993304D01*
X164181500Y-63993304D01*
X164254071Y-64029590D01*
X164290357Y-64102161D01*
X164290357Y-64174732D01*
X163927500Y-64247304D01*
X164580642Y-64465018D02*
X164653214Y-64501304D01*
X164798357Y-64501304D01*
X164870928Y-64465018D01*
X164907214Y-64392447D01*
X164907214Y-64356161D01*
X164870928Y-64283590D01*
X164798357Y-64247304D01*
X164689500Y-64247304D01*
X164616928Y-64211018D01*
X164580642Y-64138447D01*
X164580642Y-64102161D01*
X164616928Y-64029590D01*
X164689500Y-63993304D01*
X164798357Y-63993304D01*
X164870928Y-64029590D01*
X165233785Y-64501304D02*
X165233785Y-63993304D01*
X165233785Y-63739304D02*
X165197500Y-63775590D01*
X165233785Y-63811875D01*
X165270071Y-63775590D01*
X165233785Y-63739304D01*
X165233785Y-63811875D01*
X165923214Y-63993304D02*
X165923214Y-64610161D01*
X165886928Y-64682732D01*
X165850642Y-64719018D01*
X165778071Y-64755304D01*
X165669214Y-64755304D01*
X165596642Y-64719018D01*
X165923214Y-64465018D02*
X165850642Y-64501304D01*
X165705500Y-64501304D01*
X165632928Y-64465018D01*
X165596642Y-64428732D01*
X165560357Y-64356161D01*
X165560357Y-64138447D01*
X165596642Y-64065875D01*
X165632928Y-64029590D01*
X165705500Y-63993304D01*
X165850642Y-63993304D01*
X165923214Y-64029590D01*
X166286071Y-63993304D02*
X166286071Y-64501304D01*
X166286071Y-64065875D02*
X166322357Y-64029590D01*
X166394928Y-63993304D01*
X166503785Y-63993304D01*
X166576357Y-64029590D01*
X166612642Y-64102161D01*
X166612642Y-64501304D01*
X167447214Y-63739304D02*
X167882642Y-63739304D01*
X167664928Y-64501304D02*
X167664928Y-63739304D01*
X168426928Y-64465018D02*
X168354357Y-64501304D01*
X168209214Y-64501304D01*
X168136642Y-64465018D01*
X168100357Y-64392447D01*
X168100357Y-64102161D01*
X168136642Y-64029590D01*
X168209214Y-63993304D01*
X168354357Y-63993304D01*
X168426928Y-64029590D01*
X168463214Y-64102161D01*
X168463214Y-64174732D01*
X168100357Y-64247304D01*
X169116357Y-64501304D02*
X169116357Y-64102161D01*
X169080071Y-64029590D01*
X169007500Y-63993304D01*
X168862357Y-63993304D01*
X168789785Y-64029590D01*
X169116357Y-64465018D02*
X169043785Y-64501304D01*
X168862357Y-64501304D01*
X168789785Y-64465018D01*
X168753500Y-64392447D01*
X168753500Y-64319875D01*
X168789785Y-64247304D01*
X168862357Y-64211018D01*
X169043785Y-64211018D01*
X169116357Y-64174732D01*
X169479214Y-64501304D02*
X169479214Y-63993304D01*
X169479214Y-64065875D02*
X169515500Y-64029590D01*
X169588071Y-63993304D01*
X169696928Y-63993304D01*
X169769500Y-64029590D01*
X169805785Y-64102161D01*
X169805785Y-64501304D01*
X169805785Y-64102161D02*
X169842071Y-64029590D01*
X169914642Y-63993304D01*
X170023500Y-63993304D01*
X170096071Y-64029590D01*
X170132357Y-64102161D01*
X170132357Y-64501304D01*
X156234928Y-65728124D02*
X156234928Y-64966124D01*
X156488928Y-65510410D01*
X156742928Y-64966124D01*
X156742928Y-65728124D01*
X157105785Y-65728124D02*
X157105785Y-65220124D01*
X157105785Y-64966124D02*
X157069500Y-65002410D01*
X157105785Y-65038695D01*
X157142071Y-65002410D01*
X157105785Y-64966124D01*
X157105785Y-65038695D01*
X157432357Y-65691838D02*
X157504928Y-65728124D01*
X157650071Y-65728124D01*
X157722642Y-65691838D01*
X157758928Y-65619267D01*
X157758928Y-65582981D01*
X157722642Y-65510410D01*
X157650071Y-65474124D01*
X157541214Y-65474124D01*
X157468642Y-65437838D01*
X157432357Y-65365267D01*
X157432357Y-65328981D01*
X157468642Y-65256410D01*
X157541214Y-65220124D01*
X157650071Y-65220124D01*
X157722642Y-65256410D01*
X158049214Y-65691838D02*
X158121785Y-65728124D01*
X158266928Y-65728124D01*
X158339500Y-65691838D01*
X158375785Y-65619267D01*
X158375785Y-65582981D01*
X158339500Y-65510410D01*
X158266928Y-65474124D01*
X158158071Y-65474124D01*
X158085500Y-65437838D01*
X158049214Y-65365267D01*
X158049214Y-65328981D01*
X158085500Y-65256410D01*
X158158071Y-65220124D01*
X158266928Y-65220124D01*
X158339500Y-65256410D01*
X158811214Y-65728124D02*
X158738642Y-65691838D01*
X158702357Y-65655552D01*
X158666071Y-65582981D01*
X158666071Y-65365267D01*
X158702357Y-65292695D01*
X158738642Y-65256410D01*
X158811214Y-65220124D01*
X158920071Y-65220124D01*
X158992642Y-65256410D01*
X159028928Y-65292695D01*
X159065214Y-65365267D01*
X159065214Y-65582981D01*
X159028928Y-65655552D01*
X158992642Y-65691838D01*
X158920071Y-65728124D01*
X158811214Y-65728124D01*
X159718357Y-65220124D02*
X159718357Y-65728124D01*
X159391785Y-65220124D02*
X159391785Y-65619267D01*
X159428071Y-65691838D01*
X159500642Y-65728124D01*
X159609500Y-65728124D01*
X159682071Y-65691838D01*
X159718357Y-65655552D01*
X160081214Y-65728124D02*
X160081214Y-65220124D01*
X160081214Y-65365267D02*
X160117500Y-65292695D01*
X160153785Y-65256410D01*
X160226357Y-65220124D01*
X160298928Y-65220124D01*
X160552928Y-65728124D02*
X160552928Y-65220124D01*
X160552928Y-64966124D02*
X160516642Y-65002410D01*
X160552928Y-65038695D01*
X160589214Y-65002410D01*
X160552928Y-64966124D01*
X160552928Y-65038695D01*
X161460071Y-65691838D02*
X161568928Y-65728124D01*
X161750357Y-65728124D01*
X161822928Y-65691838D01*
X161859214Y-65655552D01*
X161895500Y-65582981D01*
X161895500Y-65510410D01*
X161859214Y-65437838D01*
X161822928Y-65401552D01*
X161750357Y-65365267D01*
X161605214Y-65328981D01*
X161532642Y-65292695D01*
X161496357Y-65256410D01*
X161460071Y-65183838D01*
X161460071Y-65111267D01*
X161496357Y-65038695D01*
X161532642Y-65002410D01*
X161605214Y-64966124D01*
X161786642Y-64966124D01*
X161895500Y-65002410D01*
X162838928Y-65728124D02*
X162802642Y-65728124D01*
X162730071Y-65691838D01*
X162621214Y-65582981D01*
X162439785Y-65365267D01*
X162367214Y-65256410D01*
X162330928Y-65147552D01*
X162330928Y-65074981D01*
X162367214Y-65002410D01*
X162439785Y-64966124D01*
X162476071Y-64966124D01*
X162548642Y-65002410D01*
X162584928Y-65074981D01*
X162584928Y-65111267D01*
X162548642Y-65183838D01*
X162512357Y-65220124D01*
X162294642Y-65365267D01*
X162258357Y-65401552D01*
X162222071Y-65474124D01*
X162222071Y-65582981D01*
X162258357Y-65655552D01*
X162294642Y-65691838D01*
X162367214Y-65728124D01*
X162476071Y-65728124D01*
X162548642Y-65691838D01*
X162584928Y-65655552D01*
X162693785Y-65510410D01*
X162730071Y-65401552D01*
X162730071Y-65328981D01*
X163056642Y-64966124D02*
X163492071Y-64966124D01*
X163274357Y-65728124D02*
X163274357Y-64966124D01*
X163782357Y-65691838D02*
X163782357Y-65728124D01*
X163746071Y-65800695D01*
X163709785Y-65836981D01*
X164653214Y-65038695D02*
X164689500Y-65002410D01*
X164762071Y-64966124D01*
X164943500Y-64966124D01*
X165016071Y-65002410D01*
X165052357Y-65038695D01*
X165088642Y-65111267D01*
X165088642Y-65183838D01*
X165052357Y-65292695D01*
X164616928Y-65728124D01*
X165088642Y-65728124D01*
X165560357Y-64966124D02*
X165632928Y-64966124D01*
X165705500Y-65002410D01*
X165741785Y-65038695D01*
X165778071Y-65111267D01*
X165814357Y-65256410D01*
X165814357Y-65437838D01*
X165778071Y-65582981D01*
X165741785Y-65655552D01*
X165705500Y-65691838D01*
X165632928Y-65728124D01*
X165560357Y-65728124D01*
X165487785Y-65691838D01*
X165451500Y-65655552D01*
X165415214Y-65582981D01*
X165378928Y-65437838D01*
X165378928Y-65256410D01*
X165415214Y-65111267D01*
X165451500Y-65038695D01*
X165487785Y-65002410D01*
X165560357Y-64966124D01*
X166104642Y-65038695D02*
X166140928Y-65002410D01*
X166213500Y-64966124D01*
X166394928Y-64966124D01*
X166467500Y-65002410D01*
X166503785Y-65038695D01*
X166540071Y-65111267D01*
X166540071Y-65183838D01*
X166503785Y-65292695D01*
X166068357Y-65728124D01*
X166540071Y-65728124D01*
X166794071Y-64966124D02*
X167265785Y-64966124D01*
X167011785Y-65256410D01*
X167120642Y-65256410D01*
X167193214Y-65292695D01*
X167229500Y-65328981D01*
X167265785Y-65401552D01*
X167265785Y-65582981D01*
X167229500Y-65655552D01*
X167193214Y-65691838D01*
X167120642Y-65728124D01*
X166902928Y-65728124D01*
X166830357Y-65691838D01*
X166794071Y-65655552D01*
X156452642Y-66192944D02*
X156452642Y-66737230D01*
X156416357Y-66846087D01*
X156343785Y-66918658D01*
X156234928Y-66954944D01*
X156162357Y-66954944D01*
X157105785Y-66918658D02*
X157033214Y-66954944D01*
X156888071Y-66954944D01*
X156815500Y-66918658D01*
X156779214Y-66846087D01*
X156779214Y-66555801D01*
X156815500Y-66483230D01*
X156888071Y-66446944D01*
X157033214Y-66446944D01*
X157105785Y-66483230D01*
X157142071Y-66555801D01*
X157142071Y-66628372D01*
X156779214Y-66700944D01*
X157432357Y-66918658D02*
X157504928Y-66954944D01*
X157650071Y-66954944D01*
X157722642Y-66918658D01*
X157758928Y-66846087D01*
X157758928Y-66809801D01*
X157722642Y-66737230D01*
X157650071Y-66700944D01*
X157541214Y-66700944D01*
X157468642Y-66664658D01*
X157432357Y-66592087D01*
X157432357Y-66555801D01*
X157468642Y-66483230D01*
X157541214Y-66446944D01*
X157650071Y-66446944D01*
X157722642Y-66483230D01*
X158049214Y-66918658D02*
X158121785Y-66954944D01*
X158266928Y-66954944D01*
X158339500Y-66918658D01*
X158375785Y-66846087D01*
X158375785Y-66809801D01*
X158339500Y-66737230D01*
X158266928Y-66700944D01*
X158158071Y-66700944D01*
X158085500Y-66664658D01*
X158049214Y-66592087D01*
X158049214Y-66555801D01*
X158085500Y-66483230D01*
X158158071Y-66446944D01*
X158266928Y-66446944D01*
X158339500Y-66483230D01*
X158992642Y-66918658D02*
X158920071Y-66954944D01*
X158774928Y-66954944D01*
X158702357Y-66918658D01*
X158666071Y-66846087D01*
X158666071Y-66555801D01*
X158702357Y-66483230D01*
X158774928Y-66446944D01*
X158920071Y-66446944D01*
X158992642Y-66483230D01*
X159028928Y-66555801D01*
X159028928Y-66628372D01*
X158666071Y-66700944D01*
X159936071Y-66954944D02*
X159936071Y-66192944D01*
X160117500Y-66192944D01*
X160226357Y-66229230D01*
X160298928Y-66301801D01*
X160335214Y-66374372D01*
X160371500Y-66519515D01*
X160371500Y-66628372D01*
X160335214Y-66773515D01*
X160298928Y-66846087D01*
X160226357Y-66918658D01*
X160117500Y-66954944D01*
X159936071Y-66954944D01*
X160988357Y-66918658D02*
X160915785Y-66954944D01*
X160770642Y-66954944D01*
X160698071Y-66918658D01*
X160661785Y-66846087D01*
X160661785Y-66555801D01*
X160698071Y-66483230D01*
X160770642Y-66446944D01*
X160915785Y-66446944D01*
X160988357Y-66483230D01*
X161024642Y-66555801D01*
X161024642Y-66628372D01*
X160661785Y-66700944D01*
X161677785Y-66446944D02*
X161677785Y-66954944D01*
X161351214Y-66446944D02*
X161351214Y-66846087D01*
X161387500Y-66918658D01*
X161460071Y-66954944D01*
X161568928Y-66954944D01*
X161641500Y-66918658D01*
X161677785Y-66882372D01*
X162330928Y-66918658D02*
X162258357Y-66954944D01*
X162113214Y-66954944D01*
X162040642Y-66918658D01*
X162004357Y-66846087D01*
X162004357Y-66555801D01*
X162040642Y-66483230D01*
X162113214Y-66446944D01*
X162258357Y-66446944D01*
X162330928Y-66483230D01*
X162367214Y-66555801D01*
X162367214Y-66628372D01*
X162004357Y-66700944D01*
X162802642Y-66954944D02*
X162730071Y-66918658D01*
X162693785Y-66846087D01*
X162693785Y-66192944D01*
X163129214Y-66918658D02*
X163129214Y-66954944D01*
X163092928Y-67027515D01*
X163056642Y-67063801D01*
X164036357Y-66954944D02*
X164036357Y-66192944D01*
X164217785Y-66192944D01*
X164326642Y-66229230D01*
X164399214Y-66301801D01*
X164435500Y-66374372D01*
X164471785Y-66519515D01*
X164471785Y-66628372D01*
X164435500Y-66773515D01*
X164399214Y-66846087D01*
X164326642Y-66918658D01*
X164217785Y-66954944D01*
X164036357Y-66954944D01*
X164798357Y-66954944D02*
X164798357Y-66446944D01*
X164798357Y-66592087D02*
X164834642Y-66519515D01*
X164870928Y-66483230D01*
X164943500Y-66446944D01*
X165016071Y-66446944D01*
X165560357Y-66918658D02*
X165487785Y-66954944D01*
X165342642Y-66954944D01*
X165270071Y-66918658D01*
X165233785Y-66846087D01*
X165233785Y-66555801D01*
X165270071Y-66483230D01*
X165342642Y-66446944D01*
X165487785Y-66446944D01*
X165560357Y-66483230D01*
X165596642Y-66555801D01*
X165596642Y-66628372D01*
X165233785Y-66700944D01*
X165850642Y-66446944D02*
X165995785Y-66954944D01*
X166140928Y-66592087D01*
X166286071Y-66954944D01*
X166431214Y-66446944D01*
X167229500Y-66192944D02*
X167410928Y-66954944D01*
X167556071Y-66410658D01*
X167701214Y-66954944D01*
X167882642Y-66192944D01*
X168463214Y-66918658D02*
X168390642Y-66954944D01*
X168245500Y-66954944D01*
X168172928Y-66918658D01*
X168136642Y-66846087D01*
X168136642Y-66555801D01*
X168172928Y-66483230D01*
X168245500Y-66446944D01*
X168390642Y-66446944D01*
X168463214Y-66483230D01*
X168499500Y-66555801D01*
X168499500Y-66628372D01*
X168136642Y-66700944D01*
X168934928Y-66954944D02*
X168862357Y-66918658D01*
X168826071Y-66846087D01*
X168826071Y-66192944D01*
X169334071Y-66954944D02*
X169261500Y-66918658D01*
X169225214Y-66846087D01*
X169225214Y-66192944D01*
X169914642Y-66918658D02*
X169842071Y-66954944D01*
X169696928Y-66954944D01*
X169624357Y-66918658D01*
X169588071Y-66846087D01*
X169588071Y-66555801D01*
X169624357Y-66483230D01*
X169696928Y-66446944D01*
X169842071Y-66446944D01*
X169914642Y-66483230D01*
X169950928Y-66555801D01*
X169950928Y-66628372D01*
X169588071Y-66700944D01*
X170277500Y-66446944D02*
X170277500Y-66954944D01*
X170277500Y-66519515D02*
X170313785Y-66483230D01*
X170386357Y-66446944D01*
X170495214Y-66446944D01*
X170567785Y-66483230D01*
X170604071Y-66555801D01*
X170604071Y-66954944D01*
X120048261Y-94258190D02*
X120048261Y-93865095D01*
X120290166Y-94076761D01*
X120290166Y-93986047D01*
X120320404Y-93925571D01*
X120350642Y-93895333D01*
X120411119Y-93865095D01*
X120562309Y-93865095D01*
X120622785Y-93895333D01*
X120653023Y-93925571D01*
X120683261Y-93986047D01*
X120683261Y-94167476D01*
X120653023Y-94227952D01*
X120622785Y-94258190D01*
X120048261Y-93683666D02*
X120683261Y-93472000D01*
X120048261Y-93260333D01*
X120048261Y-93109142D02*
X120048261Y-92716047D01*
X120290166Y-92927714D01*
X120290166Y-92837000D01*
X120320404Y-92776523D01*
X120350642Y-92746285D01*
X120411119Y-92716047D01*
X120562309Y-92716047D01*
X120622785Y-92746285D01*
X120653023Y-92776523D01*
X120683261Y-92837000D01*
X120683261Y-93018428D01*
X120653023Y-93078904D01*
X120622785Y-93109142D01*
X128557261Y-94397285D02*
X127922261Y-94397285D01*
X128496785Y-93732047D02*
X128527023Y-93762285D01*
X128557261Y-93853000D01*
X128557261Y-93913476D01*
X128527023Y-94004190D01*
X128466547Y-94064666D01*
X128406071Y-94094904D01*
X128285119Y-94125142D01*
X128194404Y-94125142D01*
X128073452Y-94094904D01*
X128012976Y-94064666D01*
X127952500Y-94004190D01*
X127922261Y-93913476D01*
X127922261Y-93853000D01*
X127952500Y-93762285D01*
X127982738Y-93732047D01*
X127952500Y-93127285D02*
X127922261Y-93187761D01*
X127922261Y-93278476D01*
X127952500Y-93369190D01*
X128012976Y-93429666D01*
X128073452Y-93459904D01*
X128194404Y-93490142D01*
X128285119Y-93490142D01*
X128406071Y-93459904D01*
X128466547Y-93429666D01*
X128527023Y-93369190D01*
X128557261Y-93278476D01*
X128557261Y-93218000D01*
X128527023Y-93127285D01*
X128496785Y-93097047D01*
X128285119Y-93097047D01*
X128285119Y-93218000D01*
X128617738Y-92976095D02*
X128617738Y-92492285D01*
X127982738Y-92371333D02*
X127952500Y-92341095D01*
X127922261Y-92280619D01*
X127922261Y-92129428D01*
X127952500Y-92068952D01*
X127982738Y-92038714D01*
X128043214Y-92008476D01*
X128103690Y-92008476D01*
X128194404Y-92038714D01*
X128557261Y-92401571D01*
X128557261Y-92008476D01*
X130208261Y-94125142D02*
X130208261Y-94004190D01*
X130238500Y-93943714D01*
X130298976Y-93883238D01*
X130419928Y-93853000D01*
X130631595Y-93853000D01*
X130752547Y-93883238D01*
X130813023Y-93943714D01*
X130843261Y-94004190D01*
X130843261Y-94125142D01*
X130813023Y-94185619D01*
X130752547Y-94246095D01*
X130631595Y-94276333D01*
X130419928Y-94276333D01*
X130298976Y-94246095D01*
X130238500Y-94185619D01*
X130208261Y-94125142D01*
X130813023Y-93611095D02*
X130843261Y-93520380D01*
X130843261Y-93369190D01*
X130813023Y-93308714D01*
X130782785Y-93278476D01*
X130722309Y-93248238D01*
X130661833Y-93248238D01*
X130601357Y-93278476D01*
X130571119Y-93308714D01*
X130540880Y-93369190D01*
X130510642Y-93490142D01*
X130480404Y-93550619D01*
X130450166Y-93580857D01*
X130389690Y-93611095D01*
X130329214Y-93611095D01*
X130268738Y-93580857D01*
X130238500Y-93550619D01*
X130208261Y-93490142D01*
X130208261Y-93338952D01*
X130238500Y-93248238D01*
X130903738Y-93127285D02*
X130903738Y-92643476D01*
X130268738Y-92522523D02*
X130238500Y-92492285D01*
X130208261Y-92431809D01*
X130208261Y-92280619D01*
X130238500Y-92220142D01*
X130268738Y-92189904D01*
X130329214Y-92159666D01*
X130389690Y-92159666D01*
X130480404Y-92189904D01*
X130843261Y-92552761D01*
X130843261Y-92159666D01*
X125733023Y-94276333D02*
X125763261Y-94185619D01*
X125763261Y-94034428D01*
X125733023Y-93973952D01*
X125702785Y-93943714D01*
X125642309Y-93913476D01*
X125581833Y-93913476D01*
X125521357Y-93943714D01*
X125491119Y-93973952D01*
X125460880Y-94034428D01*
X125430642Y-94155380D01*
X125400404Y-94215857D01*
X125370166Y-94246095D01*
X125309690Y-94276333D01*
X125249214Y-94276333D01*
X125188738Y-94246095D01*
X125158500Y-94215857D01*
X125128261Y-94155380D01*
X125128261Y-94004190D01*
X125158500Y-93913476D01*
X125763261Y-93641333D02*
X125128261Y-93641333D01*
X125430642Y-93641333D02*
X125430642Y-93278476D01*
X125763261Y-93278476D02*
X125128261Y-93278476D01*
X125823738Y-93127285D02*
X125823738Y-92643476D01*
X125188738Y-92522523D02*
X125158500Y-92492285D01*
X125128261Y-92431809D01*
X125128261Y-92280619D01*
X125158500Y-92220142D01*
X125188738Y-92189904D01*
X125249214Y-92159666D01*
X125309690Y-92159666D01*
X125400404Y-92189904D01*
X125763261Y-92552761D01*
X125763261Y-92159666D01*
X122969261Y-94291452D02*
X122334261Y-94291452D01*
X122787833Y-94079785D01*
X122334261Y-93868119D01*
X122969261Y-93868119D01*
X122908785Y-93202880D02*
X122939023Y-93233119D01*
X122969261Y-93323833D01*
X122969261Y-93384309D01*
X122939023Y-93475023D01*
X122878547Y-93535500D01*
X122818071Y-93565738D01*
X122697119Y-93595976D01*
X122606404Y-93595976D01*
X122485452Y-93565738D01*
X122424976Y-93535500D01*
X122364500Y-93475023D01*
X122334261Y-93384309D01*
X122334261Y-93323833D01*
X122364500Y-93233119D01*
X122394738Y-93202880D01*
X123029738Y-93081928D02*
X123029738Y-92598119D01*
X122394738Y-92477166D02*
X122364500Y-92446928D01*
X122334261Y-92386452D01*
X122334261Y-92235261D01*
X122364500Y-92174785D01*
X122394738Y-92144547D01*
X122455214Y-92114309D01*
X122515690Y-92114309D01*
X122606404Y-92144547D01*
X122969261Y-92507404D01*
X122969261Y-92114309D01*
X132778500Y-93955809D02*
X132748261Y-94016285D01*
X132748261Y-94107000D01*
X132778500Y-94197714D01*
X132838976Y-94258190D01*
X132899452Y-94288428D01*
X133020404Y-94318666D01*
X133111119Y-94318666D01*
X133232071Y-94288428D01*
X133292547Y-94258190D01*
X133353023Y-94197714D01*
X133383261Y-94107000D01*
X133383261Y-94046523D01*
X133353023Y-93955809D01*
X133322785Y-93925571D01*
X133111119Y-93925571D01*
X133111119Y-94046523D01*
X133383261Y-93653428D02*
X132748261Y-93653428D01*
X133383261Y-93290571D01*
X132748261Y-93290571D01*
X133383261Y-92988190D02*
X132748261Y-92988190D01*
X132748261Y-92837000D01*
X132778500Y-92746285D01*
X132838976Y-92685809D01*
X132899452Y-92655571D01*
X133020404Y-92625333D01*
X133111119Y-92625333D01*
X133232071Y-92655571D01*
X133292547Y-92685809D01*
X133353023Y-92746285D01*
X133383261Y-92837000D01*
X133383261Y-92988190D01*
X139352261Y-94258190D02*
X139352261Y-93865095D01*
X139594166Y-94076761D01*
X139594166Y-93986047D01*
X139624404Y-93925571D01*
X139654642Y-93895333D01*
X139715119Y-93865095D01*
X139866309Y-93865095D01*
X139926785Y-93895333D01*
X139957023Y-93925571D01*
X139987261Y-93986047D01*
X139987261Y-94167476D01*
X139957023Y-94227952D01*
X139926785Y-94258190D01*
X139352261Y-93683666D02*
X139987261Y-93472000D01*
X139352261Y-93260333D01*
X139352261Y-93109142D02*
X139352261Y-92716047D01*
X139594166Y-92927714D01*
X139594166Y-92837000D01*
X139624404Y-92776523D01*
X139654642Y-92746285D01*
X139715119Y-92716047D01*
X139866309Y-92716047D01*
X139926785Y-92746285D01*
X139957023Y-92776523D01*
X139987261Y-92837000D01*
X139987261Y-93018428D01*
X139957023Y-93078904D01*
X139926785Y-93109142D01*
X152336500Y-93955809D02*
X152306261Y-94016285D01*
X152306261Y-94107000D01*
X152336500Y-94197714D01*
X152396976Y-94258190D01*
X152457452Y-94288428D01*
X152578404Y-94318666D01*
X152669119Y-94318666D01*
X152790071Y-94288428D01*
X152850547Y-94258190D01*
X152911023Y-94197714D01*
X152941261Y-94107000D01*
X152941261Y-94046523D01*
X152911023Y-93955809D01*
X152880785Y-93925571D01*
X152669119Y-93925571D01*
X152669119Y-94046523D01*
X152941261Y-93653428D02*
X152306261Y-93653428D01*
X152941261Y-93290571D01*
X152306261Y-93290571D01*
X152941261Y-92988190D02*
X152306261Y-92988190D01*
X152306261Y-92837000D01*
X152336500Y-92746285D01*
X152396976Y-92685809D01*
X152457452Y-92655571D01*
X152578404Y-92625333D01*
X152669119Y-92625333D01*
X152790071Y-92655571D01*
X152850547Y-92685809D01*
X152911023Y-92746285D01*
X152941261Y-92837000D01*
X152941261Y-92988190D01*
X142273261Y-94291452D02*
X141638261Y-94291452D01*
X142091833Y-94079785D01*
X141638261Y-93868119D01*
X142273261Y-93868119D01*
X142212785Y-93202880D02*
X142243023Y-93233119D01*
X142273261Y-93323833D01*
X142273261Y-93384309D01*
X142243023Y-93475023D01*
X142182547Y-93535500D01*
X142122071Y-93565738D01*
X142001119Y-93595976D01*
X141910404Y-93595976D01*
X141789452Y-93565738D01*
X141728976Y-93535500D01*
X141668500Y-93475023D01*
X141638261Y-93384309D01*
X141638261Y-93323833D01*
X141668500Y-93233119D01*
X141698738Y-93202880D01*
X142333738Y-93081928D02*
X142333738Y-92598119D01*
X142273261Y-92114309D02*
X142273261Y-92477166D01*
X142273261Y-92295738D02*
X141638261Y-92295738D01*
X141728976Y-92356214D01*
X141789452Y-92416690D01*
X141819690Y-92477166D01*
X145037023Y-94276333D02*
X145067261Y-94185619D01*
X145067261Y-94034428D01*
X145037023Y-93973952D01*
X145006785Y-93943714D01*
X144946309Y-93913476D01*
X144885833Y-93913476D01*
X144825357Y-93943714D01*
X144795119Y-93973952D01*
X144764880Y-94034428D01*
X144734642Y-94155380D01*
X144704404Y-94215857D01*
X144674166Y-94246095D01*
X144613690Y-94276333D01*
X144553214Y-94276333D01*
X144492738Y-94246095D01*
X144462500Y-94215857D01*
X144432261Y-94155380D01*
X144432261Y-94004190D01*
X144462500Y-93913476D01*
X145067261Y-93641333D02*
X144432261Y-93641333D01*
X144734642Y-93641333D02*
X144734642Y-93278476D01*
X145067261Y-93278476D02*
X144432261Y-93278476D01*
X145127738Y-93127285D02*
X145127738Y-92643476D01*
X145067261Y-92159666D02*
X145067261Y-92522523D01*
X145067261Y-92341095D02*
X144432261Y-92341095D01*
X144522976Y-92401571D01*
X144583452Y-92462047D01*
X144613690Y-92522523D01*
X147861261Y-94397285D02*
X147226261Y-94397285D01*
X147800785Y-93732047D02*
X147831023Y-93762285D01*
X147861261Y-93853000D01*
X147861261Y-93913476D01*
X147831023Y-94004190D01*
X147770547Y-94064666D01*
X147710071Y-94094904D01*
X147589119Y-94125142D01*
X147498404Y-94125142D01*
X147377452Y-94094904D01*
X147316976Y-94064666D01*
X147256500Y-94004190D01*
X147226261Y-93913476D01*
X147226261Y-93853000D01*
X147256500Y-93762285D01*
X147286738Y-93732047D01*
X147256500Y-93127285D02*
X147226261Y-93187761D01*
X147226261Y-93278476D01*
X147256500Y-93369190D01*
X147316976Y-93429666D01*
X147377452Y-93459904D01*
X147498404Y-93490142D01*
X147589119Y-93490142D01*
X147710071Y-93459904D01*
X147770547Y-93429666D01*
X147831023Y-93369190D01*
X147861261Y-93278476D01*
X147861261Y-93218000D01*
X147831023Y-93127285D01*
X147800785Y-93097047D01*
X147589119Y-93097047D01*
X147589119Y-93218000D01*
X147921738Y-92976095D02*
X147921738Y-92492285D01*
X147861261Y-92008476D02*
X147861261Y-92371333D01*
X147861261Y-92189904D02*
X147226261Y-92189904D01*
X147316976Y-92250380D01*
X147377452Y-92310857D01*
X147407690Y-92371333D01*
X149512261Y-94125142D02*
X149512261Y-94004190D01*
X149542500Y-93943714D01*
X149602976Y-93883238D01*
X149723928Y-93853000D01*
X149935595Y-93853000D01*
X150056547Y-93883238D01*
X150117023Y-93943714D01*
X150147261Y-94004190D01*
X150147261Y-94125142D01*
X150117023Y-94185619D01*
X150056547Y-94246095D01*
X149935595Y-94276333D01*
X149723928Y-94276333D01*
X149602976Y-94246095D01*
X149542500Y-94185619D01*
X149512261Y-94125142D01*
X150117023Y-93611095D02*
X150147261Y-93520380D01*
X150147261Y-93369190D01*
X150117023Y-93308714D01*
X150086785Y-93278476D01*
X150026309Y-93248238D01*
X149965833Y-93248238D01*
X149905357Y-93278476D01*
X149875119Y-93308714D01*
X149844880Y-93369190D01*
X149814642Y-93490142D01*
X149784404Y-93550619D01*
X149754166Y-93580857D01*
X149693690Y-93611095D01*
X149633214Y-93611095D01*
X149572738Y-93580857D01*
X149542500Y-93550619D01*
X149512261Y-93490142D01*
X149512261Y-93338952D01*
X149542500Y-93248238D01*
X150207738Y-93127285D02*
X150207738Y-92643476D01*
X150147261Y-92159666D02*
X150147261Y-92522523D01*
X150147261Y-92341095D02*
X149512261Y-92341095D01*
X149602976Y-92401571D01*
X149663452Y-92462047D01*
X149693690Y-92522523D01*
X192794000Y-93217904D02*
X192746380Y-93313142D01*
X192746380Y-93456000D01*
X192794000Y-93598857D01*
X192889238Y-93694095D01*
X192984476Y-93741714D01*
X193174952Y-93789333D01*
X193317809Y-93789333D01*
X193508285Y-93741714D01*
X193603523Y-93694095D01*
X193698761Y-93598857D01*
X193746380Y-93456000D01*
X193746380Y-93360761D01*
X193698761Y-93217904D01*
X193651142Y-93170285D01*
X193317809Y-93170285D01*
X193317809Y-93360761D01*
X193746380Y-92741714D02*
X192746380Y-92741714D01*
X193746380Y-92170285D01*
X192746380Y-92170285D01*
X193746380Y-91694095D02*
X192746380Y-91694095D01*
X192746380Y-91456000D01*
X192794000Y-91313142D01*
X192889238Y-91217904D01*
X192984476Y-91170285D01*
X193174952Y-91122666D01*
X193317809Y-91122666D01*
X193508285Y-91170285D01*
X193603523Y-91217904D01*
X193698761Y-91313142D01*
X193746380Y-91456000D01*
X193746380Y-91694095D01*
X190301619Y-93797142D02*
X190254000Y-93749523D01*
X190206380Y-93654285D01*
X190206380Y-93416190D01*
X190254000Y-93320952D01*
X190301619Y-93273333D01*
X190396857Y-93225714D01*
X190492095Y-93225714D01*
X190634952Y-93273333D01*
X191206380Y-93844761D01*
X191206380Y-93225714D01*
X190206380Y-92368571D02*
X190206380Y-92559047D01*
X190254000Y-92654285D01*
X190301619Y-92701904D01*
X190444476Y-92797142D01*
X190634952Y-92844761D01*
X191015904Y-92844761D01*
X191111142Y-92797142D01*
X191158761Y-92749523D01*
X191206380Y-92654285D01*
X191206380Y-92463809D01*
X191158761Y-92368571D01*
X191111142Y-92320952D01*
X191015904Y-92273333D01*
X190777809Y-92273333D01*
X190682571Y-92320952D01*
X190634952Y-92368571D01*
X190587333Y-92463809D01*
X190587333Y-92654285D01*
X190634952Y-92749523D01*
X190682571Y-92797142D01*
X190777809Y-92844761D01*
X190206380Y-91654285D02*
X190206380Y-91559047D01*
X190254000Y-91463809D01*
X190301619Y-91416190D01*
X190396857Y-91368571D01*
X190587333Y-91320952D01*
X190825428Y-91320952D01*
X191015904Y-91368571D01*
X191111142Y-91416190D01*
X191158761Y-91463809D01*
X191206380Y-91559047D01*
X191206380Y-91654285D01*
X191158761Y-91749523D01*
X191111142Y-91797142D01*
X191015904Y-91844761D01*
X190825428Y-91892380D01*
X190587333Y-91892380D01*
X190396857Y-91844761D01*
X190301619Y-91797142D01*
X190254000Y-91749523D01*
X190206380Y-91654285D01*
X190539714Y-90892380D02*
X191206380Y-90892380D01*
X190634952Y-90892380D02*
X190587333Y-90844761D01*
X190539714Y-90749523D01*
X190539714Y-90606666D01*
X190587333Y-90511428D01*
X190682571Y-90463809D01*
X191206380Y-90463809D01*
X191206380Y-89987619D02*
X190539714Y-89987619D01*
X190634952Y-89987619D02*
X190587333Y-89940000D01*
X190539714Y-89844761D01*
X190539714Y-89701904D01*
X190587333Y-89606666D01*
X190682571Y-89559047D01*
X191206380Y-89559047D01*
X190682571Y-89559047D02*
X190587333Y-89511428D01*
X190539714Y-89416190D01*
X190539714Y-89273333D01*
X190587333Y-89178095D01*
X190682571Y-89130476D01*
X191206380Y-89130476D01*
X180046380Y-93844761D02*
X180046380Y-93225714D01*
X180427333Y-93559047D01*
X180427333Y-93416190D01*
X180474952Y-93320952D01*
X180522571Y-93273333D01*
X180617809Y-93225714D01*
X180855904Y-93225714D01*
X180951142Y-93273333D01*
X180998761Y-93320952D01*
X181046380Y-93416190D01*
X181046380Y-93701904D01*
X180998761Y-93797142D01*
X180951142Y-93844761D01*
X180046380Y-92368571D02*
X180046380Y-92559047D01*
X180094000Y-92654285D01*
X180141619Y-92701904D01*
X180284476Y-92797142D01*
X180474952Y-92844761D01*
X180855904Y-92844761D01*
X180951142Y-92797142D01*
X180998761Y-92749523D01*
X181046380Y-92654285D01*
X181046380Y-92463809D01*
X180998761Y-92368571D01*
X180951142Y-92320952D01*
X180855904Y-92273333D01*
X180617809Y-92273333D01*
X180522571Y-92320952D01*
X180474952Y-92368571D01*
X180427333Y-92463809D01*
X180427333Y-92654285D01*
X180474952Y-92749523D01*
X180522571Y-92797142D01*
X180617809Y-92844761D01*
X180046380Y-91368571D02*
X180046380Y-91844761D01*
X180522571Y-91892380D01*
X180474952Y-91844761D01*
X180427333Y-91749523D01*
X180427333Y-91511428D01*
X180474952Y-91416190D01*
X180522571Y-91368571D01*
X180617809Y-91320952D01*
X180855904Y-91320952D01*
X180951142Y-91368571D01*
X180998761Y-91416190D01*
X181046380Y-91511428D01*
X181046380Y-91749523D01*
X180998761Y-91844761D01*
X180951142Y-91892380D01*
X180379714Y-90892380D02*
X181046380Y-90892380D01*
X180474952Y-90892380D02*
X180427333Y-90844761D01*
X180379714Y-90749523D01*
X180379714Y-90606666D01*
X180427333Y-90511428D01*
X180522571Y-90463809D01*
X181046380Y-90463809D01*
X181046380Y-89987619D02*
X180379714Y-89987619D01*
X180474952Y-89987619D02*
X180427333Y-89940000D01*
X180379714Y-89844761D01*
X180379714Y-89701904D01*
X180427333Y-89606666D01*
X180522571Y-89559047D01*
X181046380Y-89559047D01*
X180522571Y-89559047D02*
X180427333Y-89511428D01*
X180379714Y-89416190D01*
X180379714Y-89273333D01*
X180427333Y-89178095D01*
X180522571Y-89130476D01*
X181046380Y-89130476D01*
X187761619Y-93797142D02*
X187714000Y-93749523D01*
X187666380Y-93654285D01*
X187666380Y-93416190D01*
X187714000Y-93320952D01*
X187761619Y-93273333D01*
X187856857Y-93225714D01*
X187952095Y-93225714D01*
X188094952Y-93273333D01*
X188666380Y-93844761D01*
X188666380Y-93225714D01*
X187666380Y-92892380D02*
X187666380Y-92225714D01*
X188666380Y-92654285D01*
X187666380Y-91368571D02*
X187666380Y-91844761D01*
X188142571Y-91892380D01*
X188094952Y-91844761D01*
X188047333Y-91749523D01*
X188047333Y-91511428D01*
X188094952Y-91416190D01*
X188142571Y-91368571D01*
X188237809Y-91320952D01*
X188475904Y-91320952D01*
X188571142Y-91368571D01*
X188618761Y-91416190D01*
X188666380Y-91511428D01*
X188666380Y-91749523D01*
X188618761Y-91844761D01*
X188571142Y-91892380D01*
X187999714Y-90892380D02*
X188666380Y-90892380D01*
X188094952Y-90892380D02*
X188047333Y-90844761D01*
X187999714Y-90749523D01*
X187999714Y-90606666D01*
X188047333Y-90511428D01*
X188142571Y-90463809D01*
X188666380Y-90463809D01*
X188666380Y-89987619D02*
X187999714Y-89987619D01*
X188094952Y-89987619D02*
X188047333Y-89940000D01*
X187999714Y-89844761D01*
X187999714Y-89701904D01*
X188047333Y-89606666D01*
X188142571Y-89559047D01*
X188666380Y-89559047D01*
X188142571Y-89559047D02*
X188047333Y-89511428D01*
X187999714Y-89416190D01*
X187999714Y-89273333D01*
X188047333Y-89178095D01*
X188142571Y-89130476D01*
X188666380Y-89130476D01*
X185272419Y-93797142D02*
X185224800Y-93749523D01*
X185177180Y-93654285D01*
X185177180Y-93416190D01*
X185224800Y-93320952D01*
X185272419Y-93273333D01*
X185367657Y-93225714D01*
X185462895Y-93225714D01*
X185605752Y-93273333D01*
X186177180Y-93844761D01*
X186177180Y-93225714D01*
X185605752Y-92654285D02*
X185558133Y-92749523D01*
X185510514Y-92797142D01*
X185415276Y-92844761D01*
X185367657Y-92844761D01*
X185272419Y-92797142D01*
X185224800Y-92749523D01*
X185177180Y-92654285D01*
X185177180Y-92463809D01*
X185224800Y-92368571D01*
X185272419Y-92320952D01*
X185367657Y-92273333D01*
X185415276Y-92273333D01*
X185510514Y-92320952D01*
X185558133Y-92368571D01*
X185605752Y-92463809D01*
X185605752Y-92654285D01*
X185653371Y-92749523D01*
X185700990Y-92797142D01*
X185796228Y-92844761D01*
X185986704Y-92844761D01*
X186081942Y-92797142D01*
X186129561Y-92749523D01*
X186177180Y-92654285D01*
X186177180Y-92463809D01*
X186129561Y-92368571D01*
X186081942Y-92320952D01*
X185986704Y-92273333D01*
X185796228Y-92273333D01*
X185700990Y-92320952D01*
X185653371Y-92368571D01*
X185605752Y-92463809D01*
X185177180Y-91654285D02*
X185177180Y-91559047D01*
X185224800Y-91463809D01*
X185272419Y-91416190D01*
X185367657Y-91368571D01*
X185558133Y-91320952D01*
X185796228Y-91320952D01*
X185986704Y-91368571D01*
X186081942Y-91416190D01*
X186129561Y-91463809D01*
X186177180Y-91559047D01*
X186177180Y-91654285D01*
X186129561Y-91749523D01*
X186081942Y-91797142D01*
X185986704Y-91844761D01*
X185796228Y-91892380D01*
X185558133Y-91892380D01*
X185367657Y-91844761D01*
X185272419Y-91797142D01*
X185224800Y-91749523D01*
X185177180Y-91654285D01*
X185510514Y-90892380D02*
X186177180Y-90892380D01*
X185605752Y-90892380D02*
X185558133Y-90844761D01*
X185510514Y-90749523D01*
X185510514Y-90606666D01*
X185558133Y-90511428D01*
X185653371Y-90463809D01*
X186177180Y-90463809D01*
X186177180Y-89987619D02*
X185510514Y-89987619D01*
X185605752Y-89987619D02*
X185558133Y-89940000D01*
X185510514Y-89844761D01*
X185510514Y-89701904D01*
X185558133Y-89606666D01*
X185653371Y-89559047D01*
X186177180Y-89559047D01*
X185653371Y-89559047D02*
X185558133Y-89511428D01*
X185510514Y-89416190D01*
X185510514Y-89273333D01*
X185558133Y-89178095D01*
X185653371Y-89130476D01*
X186177180Y-89130476D01*
X182586380Y-93844761D02*
X182586380Y-93225714D01*
X182967333Y-93559047D01*
X182967333Y-93416190D01*
X183014952Y-93320952D01*
X183062571Y-93273333D01*
X183157809Y-93225714D01*
X183395904Y-93225714D01*
X183491142Y-93273333D01*
X183538761Y-93320952D01*
X183586380Y-93416190D01*
X183586380Y-93701904D01*
X183538761Y-93797142D01*
X183491142Y-93844761D01*
X183586380Y-92273333D02*
X183586380Y-92844761D01*
X183586380Y-92559047D02*
X182586380Y-92559047D01*
X182729238Y-92654285D01*
X182824476Y-92749523D01*
X182872095Y-92844761D01*
X182586380Y-91654285D02*
X182586380Y-91559047D01*
X182634000Y-91463809D01*
X182681619Y-91416190D01*
X182776857Y-91368571D01*
X182967333Y-91320952D01*
X183205428Y-91320952D01*
X183395904Y-91368571D01*
X183491142Y-91416190D01*
X183538761Y-91463809D01*
X183586380Y-91559047D01*
X183586380Y-91654285D01*
X183538761Y-91749523D01*
X183491142Y-91797142D01*
X183395904Y-91844761D01*
X183205428Y-91892380D01*
X182967333Y-91892380D01*
X182776857Y-91844761D01*
X182681619Y-91797142D01*
X182634000Y-91749523D01*
X182586380Y-91654285D01*
X182919714Y-90892380D02*
X183586380Y-90892380D01*
X183014952Y-90892380D02*
X182967333Y-90844761D01*
X182919714Y-90749523D01*
X182919714Y-90606666D01*
X182967333Y-90511428D01*
X183062571Y-90463809D01*
X183586380Y-90463809D01*
X183586380Y-89987619D02*
X182919714Y-89987619D01*
X183014952Y-89987619D02*
X182967333Y-89940000D01*
X182919714Y-89844761D01*
X182919714Y-89701904D01*
X182967333Y-89606666D01*
X183062571Y-89559047D01*
X183586380Y-89559047D01*
X183062571Y-89559047D02*
X182967333Y-89511428D01*
X182919714Y-89416190D01*
X182919714Y-89273333D01*
X182967333Y-89178095D01*
X183062571Y-89130476D01*
X183586380Y-89130476D01*
%TO.C,Conn4*%
X144526190Y-101061142D02*
X144478571Y-101108761D01*
X144335714Y-101156380D01*
X144240476Y-101156380D01*
X144097619Y-101108761D01*
X144002380Y-101013523D01*
X143954761Y-100918285D01*
X143907142Y-100727809D01*
X143907142Y-100584952D01*
X143954761Y-100394476D01*
X144002380Y-100299238D01*
X144097619Y-100204000D01*
X144240476Y-100156380D01*
X144335714Y-100156380D01*
X144478571Y-100204000D01*
X144526190Y-100251619D01*
X145097619Y-101156380D02*
X145002380Y-101108761D01*
X144954761Y-101061142D01*
X144907142Y-100965904D01*
X144907142Y-100680190D01*
X144954761Y-100584952D01*
X145002380Y-100537333D01*
X145097619Y-100489714D01*
X145240476Y-100489714D01*
X145335714Y-100537333D01*
X145383333Y-100584952D01*
X145430952Y-100680190D01*
X145430952Y-100965904D01*
X145383333Y-101061142D01*
X145335714Y-101108761D01*
X145240476Y-101156380D01*
X145097619Y-101156380D01*
X145859523Y-100489714D02*
X145859523Y-101156380D01*
X145859523Y-100584952D02*
X145907142Y-100537333D01*
X146002380Y-100489714D01*
X146145238Y-100489714D01*
X146240476Y-100537333D01*
X146288095Y-100632571D01*
X146288095Y-101156380D01*
X146764285Y-100489714D02*
X146764285Y-101156380D01*
X146764285Y-100584952D02*
X146811904Y-100537333D01*
X146907142Y-100489714D01*
X147050000Y-100489714D01*
X147145238Y-100537333D01*
X147192857Y-100632571D01*
X147192857Y-101156380D01*
X148097619Y-100489714D02*
X148097619Y-101156380D01*
X147859523Y-100108761D02*
X147621428Y-100823047D01*
X148240476Y-100823047D01*
%TO.C,Conn2*%
X125222190Y-100941142D02*
X125174571Y-100988761D01*
X125031714Y-101036380D01*
X124936476Y-101036380D01*
X124793619Y-100988761D01*
X124698380Y-100893523D01*
X124650761Y-100798285D01*
X124603142Y-100607809D01*
X124603142Y-100464952D01*
X124650761Y-100274476D01*
X124698380Y-100179238D01*
X124793619Y-100084000D01*
X124936476Y-100036380D01*
X125031714Y-100036380D01*
X125174571Y-100084000D01*
X125222190Y-100131619D01*
X125793619Y-101036380D02*
X125698380Y-100988761D01*
X125650761Y-100941142D01*
X125603142Y-100845904D01*
X125603142Y-100560190D01*
X125650761Y-100464952D01*
X125698380Y-100417333D01*
X125793619Y-100369714D01*
X125936476Y-100369714D01*
X126031714Y-100417333D01*
X126079333Y-100464952D01*
X126126952Y-100560190D01*
X126126952Y-100845904D01*
X126079333Y-100941142D01*
X126031714Y-100988761D01*
X125936476Y-101036380D01*
X125793619Y-101036380D01*
X126555523Y-100369714D02*
X126555523Y-101036380D01*
X126555523Y-100464952D02*
X126603142Y-100417333D01*
X126698380Y-100369714D01*
X126841238Y-100369714D01*
X126936476Y-100417333D01*
X126984095Y-100512571D01*
X126984095Y-101036380D01*
X127460285Y-100369714D02*
X127460285Y-101036380D01*
X127460285Y-100464952D02*
X127507904Y-100417333D01*
X127603142Y-100369714D01*
X127746000Y-100369714D01*
X127841238Y-100417333D01*
X127888857Y-100512571D01*
X127888857Y-101036380D01*
X128317428Y-100131619D02*
X128365047Y-100084000D01*
X128460285Y-100036380D01*
X128698380Y-100036380D01*
X128793619Y-100084000D01*
X128841238Y-100131619D01*
X128888857Y-100226857D01*
X128888857Y-100322095D01*
X128841238Y-100464952D01*
X128269809Y-101036380D01*
X128888857Y-101036380D01*
%TO.C,R21*%
X196461142Y-79192380D02*
X196127809Y-78716190D01*
X195889714Y-79192380D02*
X195889714Y-78192380D01*
X196270666Y-78192380D01*
X196365904Y-78240000D01*
X196413523Y-78287619D01*
X196461142Y-78382857D01*
X196461142Y-78525714D01*
X196413523Y-78620952D01*
X196365904Y-78668571D01*
X196270666Y-78716190D01*
X195889714Y-78716190D01*
X196842095Y-78287619D02*
X196889714Y-78240000D01*
X196984952Y-78192380D01*
X197223047Y-78192380D01*
X197318285Y-78240000D01*
X197365904Y-78287619D01*
X197413523Y-78382857D01*
X197413523Y-78478095D01*
X197365904Y-78620952D01*
X196794476Y-79192380D01*
X197413523Y-79192380D01*
X198365904Y-79192380D02*
X197794476Y-79192380D01*
X198080190Y-79192380D02*
X198080190Y-78192380D01*
X197984952Y-78335238D01*
X197889714Y-78430476D01*
X197794476Y-78478095D01*
%TO.C,R20*%
X192905142Y-69794380D02*
X192571809Y-69318190D01*
X192333714Y-69794380D02*
X192333714Y-68794380D01*
X192714666Y-68794380D01*
X192809904Y-68842000D01*
X192857523Y-68889619D01*
X192905142Y-68984857D01*
X192905142Y-69127714D01*
X192857523Y-69222952D01*
X192809904Y-69270571D01*
X192714666Y-69318190D01*
X192333714Y-69318190D01*
X193286095Y-68889619D02*
X193333714Y-68842000D01*
X193428952Y-68794380D01*
X193667047Y-68794380D01*
X193762285Y-68842000D01*
X193809904Y-68889619D01*
X193857523Y-68984857D01*
X193857523Y-69080095D01*
X193809904Y-69222952D01*
X193238476Y-69794380D01*
X193857523Y-69794380D01*
X194476571Y-68794380D02*
X194571809Y-68794380D01*
X194667047Y-68842000D01*
X194714666Y-68889619D01*
X194762285Y-68984857D01*
X194809904Y-69175333D01*
X194809904Y-69413428D01*
X194762285Y-69603904D01*
X194714666Y-69699142D01*
X194667047Y-69746761D01*
X194571809Y-69794380D01*
X194476571Y-69794380D01*
X194381333Y-69746761D01*
X194333714Y-69699142D01*
X194286095Y-69603904D01*
X194238476Y-69413428D01*
X194238476Y-69175333D01*
X194286095Y-68984857D01*
X194333714Y-68889619D01*
X194381333Y-68842000D01*
X194476571Y-68794380D01*
%TO.C,R19*%
X204160380Y-76588857D02*
X203684190Y-76922190D01*
X204160380Y-77160285D02*
X203160380Y-77160285D01*
X203160380Y-76779333D01*
X203208000Y-76684095D01*
X203255619Y-76636476D01*
X203350857Y-76588857D01*
X203493714Y-76588857D01*
X203588952Y-76636476D01*
X203636571Y-76684095D01*
X203684190Y-76779333D01*
X203684190Y-77160285D01*
X204160380Y-75636476D02*
X204160380Y-76207904D01*
X204160380Y-75922190D02*
X203160380Y-75922190D01*
X203303238Y-76017428D01*
X203398476Y-76112666D01*
X203446095Y-76207904D01*
X204160380Y-75160285D02*
X204160380Y-74969809D01*
X204112761Y-74874571D01*
X204065142Y-74826952D01*
X203922285Y-74731714D01*
X203731809Y-74684095D01*
X203350857Y-74684095D01*
X203255619Y-74731714D01*
X203208000Y-74779333D01*
X203160380Y-74874571D01*
X203160380Y-75065047D01*
X203208000Y-75160285D01*
X203255619Y-75207904D01*
X203350857Y-75255523D01*
X203588952Y-75255523D01*
X203684190Y-75207904D01*
X203731809Y-75160285D01*
X203779428Y-75065047D01*
X203779428Y-74874571D01*
X203731809Y-74779333D01*
X203684190Y-74731714D01*
X203588952Y-74684095D01*
%TO.C,R18*%
X192905142Y-78430380D02*
X192571809Y-77954190D01*
X192333714Y-78430380D02*
X192333714Y-77430380D01*
X192714666Y-77430380D01*
X192809904Y-77478000D01*
X192857523Y-77525619D01*
X192905142Y-77620857D01*
X192905142Y-77763714D01*
X192857523Y-77858952D01*
X192809904Y-77906571D01*
X192714666Y-77954190D01*
X192333714Y-77954190D01*
X193857523Y-78430380D02*
X193286095Y-78430380D01*
X193571809Y-78430380D02*
X193571809Y-77430380D01*
X193476571Y-77573238D01*
X193381333Y-77668476D01*
X193286095Y-77716095D01*
X194428952Y-77858952D02*
X194333714Y-77811333D01*
X194286095Y-77763714D01*
X194238476Y-77668476D01*
X194238476Y-77620857D01*
X194286095Y-77525619D01*
X194333714Y-77478000D01*
X194428952Y-77430380D01*
X194619428Y-77430380D01*
X194714666Y-77478000D01*
X194762285Y-77525619D01*
X194809904Y-77620857D01*
X194809904Y-77668476D01*
X194762285Y-77763714D01*
X194714666Y-77811333D01*
X194619428Y-77858952D01*
X194428952Y-77858952D01*
X194333714Y-77906571D01*
X194286095Y-77954190D01*
X194238476Y-78049428D01*
X194238476Y-78239904D01*
X194286095Y-78335142D01*
X194333714Y-78382761D01*
X194428952Y-78430380D01*
X194619428Y-78430380D01*
X194714666Y-78382761D01*
X194762285Y-78335142D01*
X194809904Y-78239904D01*
X194809904Y-78049428D01*
X194762285Y-77954190D01*
X194714666Y-77906571D01*
X194619428Y-77858952D01*
%TO.C,R17*%
X181983142Y-79192380D02*
X181649809Y-78716190D01*
X181411714Y-79192380D02*
X181411714Y-78192380D01*
X181792666Y-78192380D01*
X181887904Y-78240000D01*
X181935523Y-78287619D01*
X181983142Y-78382857D01*
X181983142Y-78525714D01*
X181935523Y-78620952D01*
X181887904Y-78668571D01*
X181792666Y-78716190D01*
X181411714Y-78716190D01*
X182935523Y-79192380D02*
X182364095Y-79192380D01*
X182649809Y-79192380D02*
X182649809Y-78192380D01*
X182554571Y-78335238D01*
X182459333Y-78430476D01*
X182364095Y-78478095D01*
X183268857Y-78192380D02*
X183935523Y-78192380D01*
X183506952Y-79192380D01*
%TO.C,R16*%
X175125142Y-71318380D02*
X174791809Y-70842190D01*
X174553714Y-71318380D02*
X174553714Y-70318380D01*
X174934666Y-70318380D01*
X175029904Y-70366000D01*
X175077523Y-70413619D01*
X175125142Y-70508857D01*
X175125142Y-70651714D01*
X175077523Y-70746952D01*
X175029904Y-70794571D01*
X174934666Y-70842190D01*
X174553714Y-70842190D01*
X176077523Y-71318380D02*
X175506095Y-71318380D01*
X175791809Y-71318380D02*
X175791809Y-70318380D01*
X175696571Y-70461238D01*
X175601333Y-70556476D01*
X175506095Y-70604095D01*
X176934666Y-70318380D02*
X176744190Y-70318380D01*
X176648952Y-70366000D01*
X176601333Y-70413619D01*
X176506095Y-70556476D01*
X176458476Y-70746952D01*
X176458476Y-71127904D01*
X176506095Y-71223142D01*
X176553714Y-71270761D01*
X176648952Y-71318380D01*
X176839428Y-71318380D01*
X176934666Y-71270761D01*
X176982285Y-71223142D01*
X177029904Y-71127904D01*
X177029904Y-70889809D01*
X176982285Y-70794571D01*
X176934666Y-70746952D01*
X176839428Y-70699333D01*
X176648952Y-70699333D01*
X176553714Y-70746952D01*
X176506095Y-70794571D01*
X176458476Y-70889809D01*
%TO.C,R15*%
X189682380Y-76588857D02*
X189206190Y-76922190D01*
X189682380Y-77160285D02*
X188682380Y-77160285D01*
X188682380Y-76779333D01*
X188730000Y-76684095D01*
X188777619Y-76636476D01*
X188872857Y-76588857D01*
X189015714Y-76588857D01*
X189110952Y-76636476D01*
X189158571Y-76684095D01*
X189206190Y-76779333D01*
X189206190Y-77160285D01*
X189682380Y-75636476D02*
X189682380Y-76207904D01*
X189682380Y-75922190D02*
X188682380Y-75922190D01*
X188825238Y-76017428D01*
X188920476Y-76112666D01*
X188968095Y-76207904D01*
X188682380Y-74731714D02*
X188682380Y-75207904D01*
X189158571Y-75255523D01*
X189110952Y-75207904D01*
X189063333Y-75112666D01*
X189063333Y-74874571D01*
X189110952Y-74779333D01*
X189158571Y-74731714D01*
X189253809Y-74684095D01*
X189491904Y-74684095D01*
X189587142Y-74731714D01*
X189634761Y-74779333D01*
X189682380Y-74874571D01*
X189682380Y-75112666D01*
X189634761Y-75207904D01*
X189587142Y-75255523D01*
%TO.C,R14*%
X178427142Y-78430380D02*
X178093809Y-77954190D01*
X177855714Y-78430380D02*
X177855714Y-77430380D01*
X178236666Y-77430380D01*
X178331904Y-77478000D01*
X178379523Y-77525619D01*
X178427142Y-77620857D01*
X178427142Y-77763714D01*
X178379523Y-77858952D01*
X178331904Y-77906571D01*
X178236666Y-77954190D01*
X177855714Y-77954190D01*
X179379523Y-78430380D02*
X178808095Y-78430380D01*
X179093809Y-78430380D02*
X179093809Y-77430380D01*
X178998571Y-77573238D01*
X178903333Y-77668476D01*
X178808095Y-77716095D01*
X180236666Y-77763714D02*
X180236666Y-78430380D01*
X179998571Y-77382761D02*
X179760476Y-78097047D01*
X180379523Y-78097047D01*
%TO.C,R13*%
X196715142Y-88082380D02*
X196381809Y-87606190D01*
X196143714Y-88082380D02*
X196143714Y-87082380D01*
X196524666Y-87082380D01*
X196619904Y-87130000D01*
X196667523Y-87177619D01*
X196715142Y-87272857D01*
X196715142Y-87415714D01*
X196667523Y-87510952D01*
X196619904Y-87558571D01*
X196524666Y-87606190D01*
X196143714Y-87606190D01*
X197667523Y-88082380D02*
X197096095Y-88082380D01*
X197381809Y-88082380D02*
X197381809Y-87082380D01*
X197286571Y-87225238D01*
X197191333Y-87320476D01*
X197096095Y-87368095D01*
X198000857Y-87082380D02*
X198619904Y-87082380D01*
X198286571Y-87463333D01*
X198429428Y-87463333D01*
X198524666Y-87510952D01*
X198572285Y-87558571D01*
X198619904Y-87653809D01*
X198619904Y-87891904D01*
X198572285Y-87987142D01*
X198524666Y-88034761D01*
X198429428Y-88082380D01*
X198143714Y-88082380D01*
X198048476Y-88034761D01*
X198000857Y-87987142D01*
%TO.C,R12*%
X189857142Y-79446380D02*
X189523809Y-78970190D01*
X189285714Y-79446380D02*
X189285714Y-78446380D01*
X189666666Y-78446380D01*
X189761904Y-78494000D01*
X189809523Y-78541619D01*
X189857142Y-78636857D01*
X189857142Y-78779714D01*
X189809523Y-78874952D01*
X189761904Y-78922571D01*
X189666666Y-78970190D01*
X189285714Y-78970190D01*
X190809523Y-79446380D02*
X190238095Y-79446380D01*
X190523809Y-79446380D02*
X190523809Y-78446380D01*
X190428571Y-78589238D01*
X190333333Y-78684476D01*
X190238095Y-78732095D01*
X191190476Y-78541619D02*
X191238095Y-78494000D01*
X191333333Y-78446380D01*
X191571428Y-78446380D01*
X191666666Y-78494000D01*
X191714285Y-78541619D01*
X191761904Y-78636857D01*
X191761904Y-78732095D01*
X191714285Y-78874952D01*
X191142857Y-79446380D01*
X191761904Y-79446380D01*
%TO.C,R11*%
X204160380Y-85478857D02*
X203684190Y-85812190D01*
X204160380Y-86050285D02*
X203160380Y-86050285D01*
X203160380Y-85669333D01*
X203208000Y-85574095D01*
X203255619Y-85526476D01*
X203350857Y-85478857D01*
X203493714Y-85478857D01*
X203588952Y-85526476D01*
X203636571Y-85574095D01*
X203684190Y-85669333D01*
X203684190Y-86050285D01*
X204160380Y-84526476D02*
X204160380Y-85097904D01*
X204160380Y-84812190D02*
X203160380Y-84812190D01*
X203303238Y-84907428D01*
X203398476Y-85002666D01*
X203446095Y-85097904D01*
X204160380Y-83574095D02*
X204160380Y-84145523D01*
X204160380Y-83859809D02*
X203160380Y-83859809D01*
X203303238Y-83955047D01*
X203398476Y-84050285D01*
X203446095Y-84145523D01*
%TO.C,R10*%
X192905142Y-87320380D02*
X192571809Y-86844190D01*
X192333714Y-87320380D02*
X192333714Y-86320380D01*
X192714666Y-86320380D01*
X192809904Y-86368000D01*
X192857523Y-86415619D01*
X192905142Y-86510857D01*
X192905142Y-86653714D01*
X192857523Y-86748952D01*
X192809904Y-86796571D01*
X192714666Y-86844190D01*
X192333714Y-86844190D01*
X193857523Y-87320380D02*
X193286095Y-87320380D01*
X193571809Y-87320380D02*
X193571809Y-86320380D01*
X193476571Y-86463238D01*
X193381333Y-86558476D01*
X193286095Y-86606095D01*
X194476571Y-86320380D02*
X194571809Y-86320380D01*
X194667047Y-86368000D01*
X194714666Y-86415619D01*
X194762285Y-86510857D01*
X194809904Y-86701333D01*
X194809904Y-86939428D01*
X194762285Y-87129904D01*
X194714666Y-87225142D01*
X194667047Y-87272761D01*
X194571809Y-87320380D01*
X194476571Y-87320380D01*
X194381333Y-87272761D01*
X194333714Y-87225142D01*
X194286095Y-87129904D01*
X194238476Y-86939428D01*
X194238476Y-86701333D01*
X194286095Y-86510857D01*
X194333714Y-86415619D01*
X194381333Y-86368000D01*
X194476571Y-86320380D01*
%TO.C,R9*%
X182459333Y-70302380D02*
X182126000Y-69826190D01*
X181887904Y-70302380D02*
X181887904Y-69302380D01*
X182268857Y-69302380D01*
X182364095Y-69350000D01*
X182411714Y-69397619D01*
X182459333Y-69492857D01*
X182459333Y-69635714D01*
X182411714Y-69730952D01*
X182364095Y-69778571D01*
X182268857Y-69826190D01*
X181887904Y-69826190D01*
X182935523Y-70302380D02*
X183126000Y-70302380D01*
X183221238Y-70254761D01*
X183268857Y-70207142D01*
X183364095Y-70064285D01*
X183411714Y-69873809D01*
X183411714Y-69492857D01*
X183364095Y-69397619D01*
X183316476Y-69350000D01*
X183221238Y-69302380D01*
X183030761Y-69302380D01*
X182935523Y-69350000D01*
X182887904Y-69397619D01*
X182840285Y-69492857D01*
X182840285Y-69730952D01*
X182887904Y-69826190D01*
X182935523Y-69873809D01*
X183030761Y-69921428D01*
X183221238Y-69921428D01*
X183316476Y-69873809D01*
X183364095Y-69826190D01*
X183411714Y-69730952D01*
%TO.C,R8*%
X182459333Y-88336380D02*
X182126000Y-87860190D01*
X181887904Y-88336380D02*
X181887904Y-87336380D01*
X182268857Y-87336380D01*
X182364095Y-87384000D01*
X182411714Y-87431619D01*
X182459333Y-87526857D01*
X182459333Y-87669714D01*
X182411714Y-87764952D01*
X182364095Y-87812571D01*
X182268857Y-87860190D01*
X181887904Y-87860190D01*
X183030761Y-87764952D02*
X182935523Y-87717333D01*
X182887904Y-87669714D01*
X182840285Y-87574476D01*
X182840285Y-87526857D01*
X182887904Y-87431619D01*
X182935523Y-87384000D01*
X183030761Y-87336380D01*
X183221238Y-87336380D01*
X183316476Y-87384000D01*
X183364095Y-87431619D01*
X183411714Y-87526857D01*
X183411714Y-87574476D01*
X183364095Y-87669714D01*
X183316476Y-87717333D01*
X183221238Y-87764952D01*
X183030761Y-87764952D01*
X182935523Y-87812571D01*
X182887904Y-87860190D01*
X182840285Y-87955428D01*
X182840285Y-88145904D01*
X182887904Y-88241142D01*
X182935523Y-88288761D01*
X183030761Y-88336380D01*
X183221238Y-88336380D01*
X183316476Y-88288761D01*
X183364095Y-88241142D01*
X183411714Y-88145904D01*
X183411714Y-87955428D01*
X183364095Y-87860190D01*
X183316476Y-87812571D01*
X183221238Y-87764952D01*
%TO.C,R7*%
X176109333Y-62174380D02*
X175776000Y-61698190D01*
X175537904Y-62174380D02*
X175537904Y-61174380D01*
X175918857Y-61174380D01*
X176014095Y-61222000D01*
X176061714Y-61269619D01*
X176109333Y-61364857D01*
X176109333Y-61507714D01*
X176061714Y-61602952D01*
X176014095Y-61650571D01*
X175918857Y-61698190D01*
X175537904Y-61698190D01*
X176442666Y-61174380D02*
X177109333Y-61174380D01*
X176680761Y-62174380D01*
%TO.C,R6*%
X189682380Y-66714666D02*
X189206190Y-67048000D01*
X189682380Y-67286095D02*
X188682380Y-67286095D01*
X188682380Y-66905142D01*
X188730000Y-66809904D01*
X188777619Y-66762285D01*
X188872857Y-66714666D01*
X189015714Y-66714666D01*
X189110952Y-66762285D01*
X189158571Y-66809904D01*
X189206190Y-66905142D01*
X189206190Y-67286095D01*
X188682380Y-65857523D02*
X188682380Y-66048000D01*
X188730000Y-66143238D01*
X188777619Y-66190857D01*
X188920476Y-66286095D01*
X189110952Y-66333714D01*
X189491904Y-66333714D01*
X189587142Y-66286095D01*
X189634761Y-66238476D01*
X189682380Y-66143238D01*
X189682380Y-65952761D01*
X189634761Y-65857523D01*
X189587142Y-65809904D01*
X189491904Y-65762285D01*
X189253809Y-65762285D01*
X189158571Y-65809904D01*
X189110952Y-65857523D01*
X189063333Y-65952761D01*
X189063333Y-66143238D01*
X189110952Y-66238476D01*
X189158571Y-66286095D01*
X189253809Y-66333714D01*
%TO.C,R5*%
X176109333Y-80208380D02*
X175776000Y-79732190D01*
X175537904Y-80208380D02*
X175537904Y-79208380D01*
X175918857Y-79208380D01*
X176014095Y-79256000D01*
X176061714Y-79303619D01*
X176109333Y-79398857D01*
X176109333Y-79541714D01*
X176061714Y-79636952D01*
X176014095Y-79684571D01*
X175918857Y-79732190D01*
X175537904Y-79732190D01*
X177014095Y-79208380D02*
X176537904Y-79208380D01*
X176490285Y-79684571D01*
X176537904Y-79636952D01*
X176633142Y-79589333D01*
X176871238Y-79589333D01*
X176966476Y-79636952D01*
X177014095Y-79684571D01*
X177061714Y-79779809D01*
X177061714Y-80017904D01*
X177014095Y-80113142D01*
X176966476Y-80160761D01*
X176871238Y-80208380D01*
X176633142Y-80208380D01*
X176537904Y-80160761D01*
X176490285Y-80113142D01*
%TO.C,R4*%
X189682380Y-84240666D02*
X189206190Y-84574000D01*
X189682380Y-84812095D02*
X188682380Y-84812095D01*
X188682380Y-84431142D01*
X188730000Y-84335904D01*
X188777619Y-84288285D01*
X188872857Y-84240666D01*
X189015714Y-84240666D01*
X189110952Y-84288285D01*
X189158571Y-84335904D01*
X189206190Y-84431142D01*
X189206190Y-84812095D01*
X189015714Y-83383523D02*
X189682380Y-83383523D01*
X188634761Y-83621619D02*
X189349047Y-83859714D01*
X189349047Y-83240666D01*
%TO.C,R3*%
X178903333Y-69286380D02*
X178570000Y-68810190D01*
X178331904Y-69286380D02*
X178331904Y-68286380D01*
X178712857Y-68286380D01*
X178808095Y-68334000D01*
X178855714Y-68381619D01*
X178903333Y-68476857D01*
X178903333Y-68619714D01*
X178855714Y-68714952D01*
X178808095Y-68762571D01*
X178712857Y-68810190D01*
X178331904Y-68810190D01*
X179236666Y-68286380D02*
X179855714Y-68286380D01*
X179522380Y-68667333D01*
X179665238Y-68667333D01*
X179760476Y-68714952D01*
X179808095Y-68762571D01*
X179855714Y-68857809D01*
X179855714Y-69095904D01*
X179808095Y-69191142D01*
X179760476Y-69238761D01*
X179665238Y-69286380D01*
X179379523Y-69286380D01*
X179284285Y-69238761D01*
X179236666Y-69191142D01*
%TO.C,R2*%
X178903333Y-87320380D02*
X178570000Y-86844190D01*
X178331904Y-87320380D02*
X178331904Y-86320380D01*
X178712857Y-86320380D01*
X178808095Y-86368000D01*
X178855714Y-86415619D01*
X178903333Y-86510857D01*
X178903333Y-86653714D01*
X178855714Y-86748952D01*
X178808095Y-86796571D01*
X178712857Y-86844190D01*
X178331904Y-86844190D01*
X179284285Y-86415619D02*
X179331904Y-86368000D01*
X179427142Y-86320380D01*
X179665238Y-86320380D01*
X179760476Y-86368000D01*
X179808095Y-86415619D01*
X179855714Y-86510857D01*
X179855714Y-86606095D01*
X179808095Y-86748952D01*
X179236666Y-87320380D01*
X179855714Y-87320380D01*
%TO.C,Q10*%
X200596571Y-77607619D02*
X200501333Y-77560000D01*
X200406095Y-77464761D01*
X200263238Y-77321904D01*
X200168000Y-77274285D01*
X200072761Y-77274285D01*
X200120380Y-77512380D02*
X200025142Y-77464761D01*
X199929904Y-77369523D01*
X199882285Y-77179047D01*
X199882285Y-76845714D01*
X199929904Y-76655238D01*
X200025142Y-76560000D01*
X200120380Y-76512380D01*
X200310857Y-76512380D01*
X200406095Y-76560000D01*
X200501333Y-76655238D01*
X200548952Y-76845714D01*
X200548952Y-77179047D01*
X200501333Y-77369523D01*
X200406095Y-77464761D01*
X200310857Y-77512380D01*
X200120380Y-77512380D01*
X201501333Y-77512380D02*
X200929904Y-77512380D01*
X201215619Y-77512380D02*
X201215619Y-76512380D01*
X201120380Y-76655238D01*
X201025142Y-76750476D01*
X200929904Y-76798095D01*
X202120380Y-76512380D02*
X202215619Y-76512380D01*
X202310857Y-76560000D01*
X202358476Y-76607619D01*
X202406095Y-76702857D01*
X202453714Y-76893333D01*
X202453714Y-77131428D01*
X202406095Y-77321904D01*
X202358476Y-77417142D01*
X202310857Y-77464761D01*
X202215619Y-77512380D01*
X202120380Y-77512380D01*
X202025142Y-77464761D01*
X201977523Y-77417142D01*
X201929904Y-77321904D01*
X201882285Y-77131428D01*
X201882285Y-76893333D01*
X201929904Y-76702857D01*
X201977523Y-76607619D01*
X202025142Y-76560000D01*
X202120380Y-76512380D01*
%TO.C,Q9*%
X191695619Y-73755238D02*
X191648000Y-73850476D01*
X191552761Y-73945714D01*
X191409904Y-74088571D01*
X191362285Y-74183809D01*
X191362285Y-74279047D01*
X191600380Y-74231428D02*
X191552761Y-74326666D01*
X191457523Y-74421904D01*
X191267047Y-74469523D01*
X190933714Y-74469523D01*
X190743238Y-74421904D01*
X190648000Y-74326666D01*
X190600380Y-74231428D01*
X190600380Y-74040952D01*
X190648000Y-73945714D01*
X190743238Y-73850476D01*
X190933714Y-73802857D01*
X191267047Y-73802857D01*
X191457523Y-73850476D01*
X191552761Y-73945714D01*
X191600380Y-74040952D01*
X191600380Y-74231428D01*
X191600380Y-73326666D02*
X191600380Y-73136190D01*
X191552761Y-73040952D01*
X191505142Y-72993333D01*
X191362285Y-72898095D01*
X191171809Y-72850476D01*
X190790857Y-72850476D01*
X190695619Y-72898095D01*
X190648000Y-72945714D01*
X190600380Y-73040952D01*
X190600380Y-73231428D01*
X190648000Y-73326666D01*
X190695619Y-73374285D01*
X190790857Y-73421904D01*
X191028952Y-73421904D01*
X191124190Y-73374285D01*
X191171809Y-73326666D01*
X191219428Y-73231428D01*
X191219428Y-73040952D01*
X191171809Y-72945714D01*
X191124190Y-72898095D01*
X191028952Y-72850476D01*
%TO.C,Q8*%
X186848761Y-77763619D02*
X186753523Y-77716000D01*
X186658285Y-77620761D01*
X186515428Y-77477904D01*
X186420190Y-77430285D01*
X186324952Y-77430285D01*
X186372571Y-77668380D02*
X186277333Y-77620761D01*
X186182095Y-77525523D01*
X186134476Y-77335047D01*
X186134476Y-77001714D01*
X186182095Y-76811238D01*
X186277333Y-76716000D01*
X186372571Y-76668380D01*
X186563047Y-76668380D01*
X186658285Y-76716000D01*
X186753523Y-76811238D01*
X186801142Y-77001714D01*
X186801142Y-77335047D01*
X186753523Y-77525523D01*
X186658285Y-77620761D01*
X186563047Y-77668380D01*
X186372571Y-77668380D01*
X187372571Y-77096952D02*
X187277333Y-77049333D01*
X187229714Y-77001714D01*
X187182095Y-76906476D01*
X187182095Y-76858857D01*
X187229714Y-76763619D01*
X187277333Y-76716000D01*
X187372571Y-76668380D01*
X187563047Y-76668380D01*
X187658285Y-76716000D01*
X187705904Y-76763619D01*
X187753523Y-76858857D01*
X187753523Y-76906476D01*
X187705904Y-77001714D01*
X187658285Y-77049333D01*
X187563047Y-77096952D01*
X187372571Y-77096952D01*
X187277333Y-77144571D01*
X187229714Y-77192190D01*
X187182095Y-77287428D01*
X187182095Y-77477904D01*
X187229714Y-77573142D01*
X187277333Y-77620761D01*
X187372571Y-77668380D01*
X187563047Y-77668380D01*
X187658285Y-77620761D01*
X187705904Y-77573142D01*
X187753523Y-77477904D01*
X187753523Y-77287428D01*
X187705904Y-77192190D01*
X187658285Y-77144571D01*
X187563047Y-77096952D01*
%TO.C,Q7*%
X177217619Y-73755238D02*
X177170000Y-73850476D01*
X177074761Y-73945714D01*
X176931904Y-74088571D01*
X176884285Y-74183809D01*
X176884285Y-74279047D01*
X177122380Y-74231428D02*
X177074761Y-74326666D01*
X176979523Y-74421904D01*
X176789047Y-74469523D01*
X176455714Y-74469523D01*
X176265238Y-74421904D01*
X176170000Y-74326666D01*
X176122380Y-74231428D01*
X176122380Y-74040952D01*
X176170000Y-73945714D01*
X176265238Y-73850476D01*
X176455714Y-73802857D01*
X176789047Y-73802857D01*
X176979523Y-73850476D01*
X177074761Y-73945714D01*
X177122380Y-74040952D01*
X177122380Y-74231428D01*
X176122380Y-73469523D02*
X176122380Y-72802857D01*
X177122380Y-73231428D01*
%TO.C,Q6*%
X201072761Y-86653619D02*
X200977523Y-86606000D01*
X200882285Y-86510761D01*
X200739428Y-86367904D01*
X200644190Y-86320285D01*
X200548952Y-86320285D01*
X200596571Y-86558380D02*
X200501333Y-86510761D01*
X200406095Y-86415523D01*
X200358476Y-86225047D01*
X200358476Y-85891714D01*
X200406095Y-85701238D01*
X200501333Y-85606000D01*
X200596571Y-85558380D01*
X200787047Y-85558380D01*
X200882285Y-85606000D01*
X200977523Y-85701238D01*
X201025142Y-85891714D01*
X201025142Y-86225047D01*
X200977523Y-86415523D01*
X200882285Y-86510761D01*
X200787047Y-86558380D01*
X200596571Y-86558380D01*
X201882285Y-85558380D02*
X201691809Y-85558380D01*
X201596571Y-85606000D01*
X201548952Y-85653619D01*
X201453714Y-85796476D01*
X201406095Y-85986952D01*
X201406095Y-86367904D01*
X201453714Y-86463142D01*
X201501333Y-86510761D01*
X201596571Y-86558380D01*
X201787047Y-86558380D01*
X201882285Y-86510761D01*
X201929904Y-86463142D01*
X201977523Y-86367904D01*
X201977523Y-86129809D01*
X201929904Y-86034571D01*
X201882285Y-85986952D01*
X201787047Y-85939333D01*
X201596571Y-85939333D01*
X201501333Y-85986952D01*
X201453714Y-86034571D01*
X201406095Y-86129809D01*
%TO.C,Q5*%
X191761619Y-82645238D02*
X191714000Y-82740476D01*
X191618761Y-82835714D01*
X191475904Y-82978571D01*
X191428285Y-83073809D01*
X191428285Y-83169047D01*
X191666380Y-83121428D02*
X191618761Y-83216666D01*
X191523523Y-83311904D01*
X191333047Y-83359523D01*
X190999714Y-83359523D01*
X190809238Y-83311904D01*
X190714000Y-83216666D01*
X190666380Y-83121428D01*
X190666380Y-82930952D01*
X190714000Y-82835714D01*
X190809238Y-82740476D01*
X190999714Y-82692857D01*
X191333047Y-82692857D01*
X191523523Y-82740476D01*
X191618761Y-82835714D01*
X191666380Y-82930952D01*
X191666380Y-83121428D01*
X190666380Y-81788095D02*
X190666380Y-82264285D01*
X191142571Y-82311904D01*
X191094952Y-82264285D01*
X191047333Y-82169047D01*
X191047333Y-81930952D01*
X191094952Y-81835714D01*
X191142571Y-81788095D01*
X191237809Y-81740476D01*
X191475904Y-81740476D01*
X191571142Y-81788095D01*
X191618761Y-81835714D01*
X191666380Y-81930952D01*
X191666380Y-82169047D01*
X191618761Y-82264285D01*
X191571142Y-82311904D01*
%TO.C,Q4*%
X187356761Y-68873619D02*
X187261523Y-68826000D01*
X187166285Y-68730761D01*
X187023428Y-68587904D01*
X186928190Y-68540285D01*
X186832952Y-68540285D01*
X186880571Y-68778380D02*
X186785333Y-68730761D01*
X186690095Y-68635523D01*
X186642476Y-68445047D01*
X186642476Y-68111714D01*
X186690095Y-67921238D01*
X186785333Y-67826000D01*
X186880571Y-67778380D01*
X187071047Y-67778380D01*
X187166285Y-67826000D01*
X187261523Y-67921238D01*
X187309142Y-68111714D01*
X187309142Y-68445047D01*
X187261523Y-68635523D01*
X187166285Y-68730761D01*
X187071047Y-68778380D01*
X186880571Y-68778380D01*
X188166285Y-68111714D02*
X188166285Y-68778380D01*
X187928190Y-67730761D02*
X187690095Y-68445047D01*
X188309142Y-68445047D01*
%TO.C,Q3*%
X187102761Y-86497619D02*
X187007523Y-86450000D01*
X186912285Y-86354761D01*
X186769428Y-86211904D01*
X186674190Y-86164285D01*
X186578952Y-86164285D01*
X186626571Y-86402380D02*
X186531333Y-86354761D01*
X186436095Y-86259523D01*
X186388476Y-86069047D01*
X186388476Y-85735714D01*
X186436095Y-85545238D01*
X186531333Y-85450000D01*
X186626571Y-85402380D01*
X186817047Y-85402380D01*
X186912285Y-85450000D01*
X187007523Y-85545238D01*
X187055142Y-85735714D01*
X187055142Y-86069047D01*
X187007523Y-86259523D01*
X186912285Y-86354761D01*
X186817047Y-86402380D01*
X186626571Y-86402380D01*
X187388476Y-85402380D02*
X188007523Y-85402380D01*
X187674190Y-85783333D01*
X187817047Y-85783333D01*
X187912285Y-85830952D01*
X187959904Y-85878571D01*
X188007523Y-85973809D01*
X188007523Y-86211904D01*
X187959904Y-86307142D01*
X187912285Y-86354761D01*
X187817047Y-86402380D01*
X187531333Y-86402380D01*
X187436095Y-86354761D01*
X187388476Y-86307142D01*
%TO.C,Q2*%
X177217619Y-64611238D02*
X177170000Y-64706476D01*
X177074761Y-64801714D01*
X176931904Y-64944571D01*
X176884285Y-65039809D01*
X176884285Y-65135047D01*
X177122380Y-65087428D02*
X177074761Y-65182666D01*
X176979523Y-65277904D01*
X176789047Y-65325523D01*
X176455714Y-65325523D01*
X176265238Y-65277904D01*
X176170000Y-65182666D01*
X176122380Y-65087428D01*
X176122380Y-64896952D01*
X176170000Y-64801714D01*
X176265238Y-64706476D01*
X176455714Y-64658857D01*
X176789047Y-64658857D01*
X176979523Y-64706476D01*
X177074761Y-64801714D01*
X177122380Y-64896952D01*
X177122380Y-65087428D01*
X176217619Y-64277904D02*
X176170000Y-64230285D01*
X176122380Y-64135047D01*
X176122380Y-63896952D01*
X176170000Y-63801714D01*
X176217619Y-63754095D01*
X176312857Y-63706476D01*
X176408095Y-63706476D01*
X176550952Y-63754095D01*
X177122380Y-64325523D01*
X177122380Y-63706476D01*
%TO.C,Q1*%
X177217619Y-82645238D02*
X177170000Y-82740476D01*
X177074761Y-82835714D01*
X176931904Y-82978571D01*
X176884285Y-83073809D01*
X176884285Y-83169047D01*
X177122380Y-83121428D02*
X177074761Y-83216666D01*
X176979523Y-83311904D01*
X176789047Y-83359523D01*
X176455714Y-83359523D01*
X176265238Y-83311904D01*
X176170000Y-83216666D01*
X176122380Y-83121428D01*
X176122380Y-82930952D01*
X176170000Y-82835714D01*
X176265238Y-82740476D01*
X176455714Y-82692857D01*
X176789047Y-82692857D01*
X176979523Y-82740476D01*
X177074761Y-82835714D01*
X177122380Y-82930952D01*
X177122380Y-83121428D01*
X177122380Y-81740476D02*
X177122380Y-82311904D01*
X177122380Y-82026190D02*
X176122380Y-82026190D01*
X176265238Y-82121428D01*
X176360476Y-82216666D01*
X176408095Y-82311904D01*
%TO.C,J2*%
X176196666Y-96353380D02*
X176196666Y-97067666D01*
X176149047Y-97210523D01*
X176053809Y-97305761D01*
X175910952Y-97353380D01*
X175815714Y-97353380D01*
X176625238Y-96448619D02*
X176672857Y-96401000D01*
X176768095Y-96353380D01*
X177006190Y-96353380D01*
X177101428Y-96401000D01*
X177149047Y-96448619D01*
X177196666Y-96543857D01*
X177196666Y-96639095D01*
X177149047Y-96781952D01*
X176577619Y-97353380D01*
X177196666Y-97353380D01*
%TO.C,D6*%
X193398380Y-52046095D02*
X192398380Y-52046095D01*
X192398380Y-51808000D01*
X192446000Y-51665142D01*
X192541238Y-51569904D01*
X192636476Y-51522285D01*
X192826952Y-51474666D01*
X192969809Y-51474666D01*
X193160285Y-51522285D01*
X193255523Y-51569904D01*
X193350761Y-51665142D01*
X193398380Y-51808000D01*
X193398380Y-52046095D01*
X192398380Y-50617523D02*
X192398380Y-50808000D01*
X192446000Y-50903238D01*
X192493619Y-50950857D01*
X192636476Y-51046095D01*
X192826952Y-51093714D01*
X193207904Y-51093714D01*
X193303142Y-51046095D01*
X193350761Y-50998476D01*
X193398380Y-50903238D01*
X193398380Y-50712761D01*
X193350761Y-50617523D01*
X193303142Y-50569904D01*
X193207904Y-50522285D01*
X192969809Y-50522285D01*
X192874571Y-50569904D01*
X192826952Y-50617523D01*
X192779333Y-50712761D01*
X192779333Y-50903238D01*
X192826952Y-50998476D01*
X192874571Y-51046095D01*
X192969809Y-51093714D01*
X191968380Y-53776857D02*
X192016000Y-53824476D01*
X192063619Y-53919714D01*
X192063619Y-54157809D01*
X192016000Y-54253047D01*
X191968380Y-54300666D01*
X191873142Y-54348285D01*
X191777904Y-54348285D01*
X191635047Y-54300666D01*
X191063619Y-53729238D01*
X191063619Y-54348285D01*
X192063619Y-54681619D02*
X192063619Y-55348285D01*
X191063619Y-54919714D01*
X192063619Y-56205428D02*
X192063619Y-55729238D01*
X191587428Y-55681619D01*
X191635047Y-55729238D01*
X191682666Y-55824476D01*
X191682666Y-56062571D01*
X191635047Y-56157809D01*
X191587428Y-56205428D01*
X191492190Y-56253047D01*
X191254095Y-56253047D01*
X191158857Y-56205428D01*
X191111238Y-56157809D01*
X191063619Y-56062571D01*
X191063619Y-55824476D01*
X191111238Y-55729238D01*
X191158857Y-55681619D01*
X191730285Y-56681619D02*
X191063619Y-56681619D01*
X191635047Y-56681619D02*
X191682666Y-56729238D01*
X191730285Y-56824476D01*
X191730285Y-56967333D01*
X191682666Y-57062571D01*
X191587428Y-57110190D01*
X191063619Y-57110190D01*
X191063619Y-57586380D02*
X191730285Y-57586380D01*
X191635047Y-57586380D02*
X191682666Y-57634000D01*
X191730285Y-57729238D01*
X191730285Y-57872095D01*
X191682666Y-57967333D01*
X191587428Y-58014952D01*
X191063619Y-58014952D01*
X191587428Y-58014952D02*
X191682666Y-58062571D01*
X191730285Y-58157809D01*
X191730285Y-58300666D01*
X191682666Y-58395904D01*
X191587428Y-58443523D01*
X191063619Y-58443523D01*
%TO.C,D5*%
X190350380Y-52046095D02*
X189350380Y-52046095D01*
X189350380Y-51808000D01*
X189398000Y-51665142D01*
X189493238Y-51569904D01*
X189588476Y-51522285D01*
X189778952Y-51474666D01*
X189921809Y-51474666D01*
X190112285Y-51522285D01*
X190207523Y-51569904D01*
X190302761Y-51665142D01*
X190350380Y-51808000D01*
X190350380Y-52046095D01*
X189350380Y-50569904D02*
X189350380Y-51046095D01*
X189826571Y-51093714D01*
X189778952Y-51046095D01*
X189731333Y-50950857D01*
X189731333Y-50712761D01*
X189778952Y-50617523D01*
X189826571Y-50569904D01*
X189921809Y-50522285D01*
X190159904Y-50522285D01*
X190255142Y-50569904D01*
X190302761Y-50617523D01*
X190350380Y-50712761D01*
X190350380Y-50950857D01*
X190302761Y-51046095D01*
X190255142Y-51093714D01*
X188920380Y-53776857D02*
X188968000Y-53824476D01*
X189015619Y-53919714D01*
X189015619Y-54157809D01*
X188968000Y-54253047D01*
X188920380Y-54300666D01*
X188825142Y-54348285D01*
X188729904Y-54348285D01*
X188587047Y-54300666D01*
X188015619Y-53729238D01*
X188015619Y-54348285D01*
X188587047Y-54919714D02*
X188634666Y-54824476D01*
X188682285Y-54776857D01*
X188777523Y-54729238D01*
X188825142Y-54729238D01*
X188920380Y-54776857D01*
X188968000Y-54824476D01*
X189015619Y-54919714D01*
X189015619Y-55110190D01*
X188968000Y-55205428D01*
X188920380Y-55253047D01*
X188825142Y-55300666D01*
X188777523Y-55300666D01*
X188682285Y-55253047D01*
X188634666Y-55205428D01*
X188587047Y-55110190D01*
X188587047Y-54919714D01*
X188539428Y-54824476D01*
X188491809Y-54776857D01*
X188396571Y-54729238D01*
X188206095Y-54729238D01*
X188110857Y-54776857D01*
X188063238Y-54824476D01*
X188015619Y-54919714D01*
X188015619Y-55110190D01*
X188063238Y-55205428D01*
X188110857Y-55253047D01*
X188206095Y-55300666D01*
X188396571Y-55300666D01*
X188491809Y-55253047D01*
X188539428Y-55205428D01*
X188587047Y-55110190D01*
X189015619Y-55919714D02*
X189015619Y-56014952D01*
X188968000Y-56110190D01*
X188920380Y-56157809D01*
X188825142Y-56205428D01*
X188634666Y-56253047D01*
X188396571Y-56253047D01*
X188206095Y-56205428D01*
X188110857Y-56157809D01*
X188063238Y-56110190D01*
X188015619Y-56014952D01*
X188015619Y-55919714D01*
X188063238Y-55824476D01*
X188110857Y-55776857D01*
X188206095Y-55729238D01*
X188396571Y-55681619D01*
X188634666Y-55681619D01*
X188825142Y-55729238D01*
X188920380Y-55776857D01*
X188968000Y-55824476D01*
X189015619Y-55919714D01*
X188682285Y-56681619D02*
X188015619Y-56681619D01*
X188587047Y-56681619D02*
X188634666Y-56729238D01*
X188682285Y-56824476D01*
X188682285Y-56967333D01*
X188634666Y-57062571D01*
X188539428Y-57110190D01*
X188015619Y-57110190D01*
X188015619Y-57586380D02*
X188682285Y-57586380D01*
X188587047Y-57586380D02*
X188634666Y-57634000D01*
X188682285Y-57729238D01*
X188682285Y-57872095D01*
X188634666Y-57967333D01*
X188539428Y-58014952D01*
X188015619Y-58014952D01*
X188539428Y-58014952D02*
X188634666Y-58062571D01*
X188682285Y-58157809D01*
X188682285Y-58300666D01*
X188634666Y-58395904D01*
X188539428Y-58443523D01*
X188015619Y-58443523D01*
%TO.C,D4*%
X187302380Y-52046095D02*
X186302380Y-52046095D01*
X186302380Y-51808000D01*
X186350000Y-51665142D01*
X186445238Y-51569904D01*
X186540476Y-51522285D01*
X186730952Y-51474666D01*
X186873809Y-51474666D01*
X187064285Y-51522285D01*
X187159523Y-51569904D01*
X187254761Y-51665142D01*
X187302380Y-51808000D01*
X187302380Y-52046095D01*
X186635714Y-50617523D02*
X187302380Y-50617523D01*
X186254761Y-50855619D02*
X186969047Y-51093714D01*
X186969047Y-50474666D01*
X185967619Y-53729238D02*
X185967619Y-54348285D01*
X185586666Y-54014952D01*
X185586666Y-54157809D01*
X185539047Y-54253047D01*
X185491428Y-54300666D01*
X185396190Y-54348285D01*
X185158095Y-54348285D01*
X185062857Y-54300666D01*
X185015238Y-54253047D01*
X184967619Y-54157809D01*
X184967619Y-53872095D01*
X185015238Y-53776857D01*
X185062857Y-53729238D01*
X184967619Y-55300666D02*
X184967619Y-54729238D01*
X184967619Y-55014952D02*
X185967619Y-55014952D01*
X185824761Y-54919714D01*
X185729523Y-54824476D01*
X185681904Y-54729238D01*
X185967619Y-55919714D02*
X185967619Y-56014952D01*
X185920000Y-56110190D01*
X185872380Y-56157809D01*
X185777142Y-56205428D01*
X185586666Y-56253047D01*
X185348571Y-56253047D01*
X185158095Y-56205428D01*
X185062857Y-56157809D01*
X185015238Y-56110190D01*
X184967619Y-56014952D01*
X184967619Y-55919714D01*
X185015238Y-55824476D01*
X185062857Y-55776857D01*
X185158095Y-55729238D01*
X185348571Y-55681619D01*
X185586666Y-55681619D01*
X185777142Y-55729238D01*
X185872380Y-55776857D01*
X185920000Y-55824476D01*
X185967619Y-55919714D01*
X185634285Y-56681619D02*
X184967619Y-56681619D01*
X185539047Y-56681619D02*
X185586666Y-56729238D01*
X185634285Y-56824476D01*
X185634285Y-56967333D01*
X185586666Y-57062571D01*
X185491428Y-57110190D01*
X184967619Y-57110190D01*
X184967619Y-57586380D02*
X185634285Y-57586380D01*
X185539047Y-57586380D02*
X185586666Y-57634000D01*
X185634285Y-57729238D01*
X185634285Y-57872095D01*
X185586666Y-57967333D01*
X185491428Y-58014952D01*
X184967619Y-58014952D01*
X185491428Y-58014952D02*
X185586666Y-58062571D01*
X185634285Y-58157809D01*
X185634285Y-58300666D01*
X185586666Y-58395904D01*
X185491428Y-58443523D01*
X184967619Y-58443523D01*
%TO.C,D3*%
X196446380Y-52046095D02*
X195446380Y-52046095D01*
X195446380Y-51808000D01*
X195494000Y-51665142D01*
X195589238Y-51569904D01*
X195684476Y-51522285D01*
X195874952Y-51474666D01*
X196017809Y-51474666D01*
X196208285Y-51522285D01*
X196303523Y-51569904D01*
X196398761Y-51665142D01*
X196446380Y-51808000D01*
X196446380Y-52046095D01*
X195446380Y-51141333D02*
X195446380Y-50522285D01*
X195827333Y-50855619D01*
X195827333Y-50712761D01*
X195874952Y-50617523D01*
X195922571Y-50569904D01*
X196017809Y-50522285D01*
X196255904Y-50522285D01*
X196351142Y-50569904D01*
X196398761Y-50617523D01*
X196446380Y-50712761D01*
X196446380Y-50998476D01*
X196398761Y-51093714D01*
X196351142Y-51141333D01*
X194762380Y-53776857D02*
X194810000Y-53824476D01*
X194857619Y-53919714D01*
X194857619Y-54157809D01*
X194810000Y-54253047D01*
X194762380Y-54300666D01*
X194667142Y-54348285D01*
X194571904Y-54348285D01*
X194429047Y-54300666D01*
X193857619Y-53729238D01*
X193857619Y-54348285D01*
X194857619Y-55205428D02*
X194857619Y-55014952D01*
X194810000Y-54919714D01*
X194762380Y-54872095D01*
X194619523Y-54776857D01*
X194429047Y-54729238D01*
X194048095Y-54729238D01*
X193952857Y-54776857D01*
X193905238Y-54824476D01*
X193857619Y-54919714D01*
X193857619Y-55110190D01*
X193905238Y-55205428D01*
X193952857Y-55253047D01*
X194048095Y-55300666D01*
X194286190Y-55300666D01*
X194381428Y-55253047D01*
X194429047Y-55205428D01*
X194476666Y-55110190D01*
X194476666Y-54919714D01*
X194429047Y-54824476D01*
X194381428Y-54776857D01*
X194286190Y-54729238D01*
X194857619Y-55919714D02*
X194857619Y-56014952D01*
X194810000Y-56110190D01*
X194762380Y-56157809D01*
X194667142Y-56205428D01*
X194476666Y-56253047D01*
X194238571Y-56253047D01*
X194048095Y-56205428D01*
X193952857Y-56157809D01*
X193905238Y-56110190D01*
X193857619Y-56014952D01*
X193857619Y-55919714D01*
X193905238Y-55824476D01*
X193952857Y-55776857D01*
X194048095Y-55729238D01*
X194238571Y-55681619D01*
X194476666Y-55681619D01*
X194667142Y-55729238D01*
X194762380Y-55776857D01*
X194810000Y-55824476D01*
X194857619Y-55919714D01*
X194524285Y-56681619D02*
X193857619Y-56681619D01*
X194429047Y-56681619D02*
X194476666Y-56729238D01*
X194524285Y-56824476D01*
X194524285Y-56967333D01*
X194476666Y-57062571D01*
X194381428Y-57110190D01*
X193857619Y-57110190D01*
X193857619Y-57586380D02*
X194524285Y-57586380D01*
X194429047Y-57586380D02*
X194476666Y-57634000D01*
X194524285Y-57729238D01*
X194524285Y-57872095D01*
X194476666Y-57967333D01*
X194381428Y-58014952D01*
X193857619Y-58014952D01*
X194381428Y-58014952D02*
X194476666Y-58062571D01*
X194524285Y-58157809D01*
X194524285Y-58300666D01*
X194476666Y-58395904D01*
X194381428Y-58443523D01*
X193857619Y-58443523D01*
%TO.C,D2*%
X184000380Y-52046095D02*
X183000380Y-52046095D01*
X183000380Y-51808000D01*
X183048000Y-51665142D01*
X183143238Y-51569904D01*
X183238476Y-51522285D01*
X183428952Y-51474666D01*
X183571809Y-51474666D01*
X183762285Y-51522285D01*
X183857523Y-51569904D01*
X183952761Y-51665142D01*
X184000380Y-51808000D01*
X184000380Y-52046095D01*
X183095619Y-51093714D02*
X183048000Y-51046095D01*
X183000380Y-50950857D01*
X183000380Y-50712761D01*
X183048000Y-50617523D01*
X183095619Y-50569904D01*
X183190857Y-50522285D01*
X183286095Y-50522285D01*
X183428952Y-50569904D01*
X184000380Y-51141333D01*
X184000380Y-50522285D01*
X182665619Y-53729238D02*
X182665619Y-54348285D01*
X182284666Y-54014952D01*
X182284666Y-54157809D01*
X182237047Y-54253047D01*
X182189428Y-54300666D01*
X182094190Y-54348285D01*
X181856095Y-54348285D01*
X181760857Y-54300666D01*
X181713238Y-54253047D01*
X181665619Y-54157809D01*
X181665619Y-53872095D01*
X181713238Y-53776857D01*
X181760857Y-53729238D01*
X182665619Y-55205428D02*
X182665619Y-55014952D01*
X182618000Y-54919714D01*
X182570380Y-54872095D01*
X182427523Y-54776857D01*
X182237047Y-54729238D01*
X181856095Y-54729238D01*
X181760857Y-54776857D01*
X181713238Y-54824476D01*
X181665619Y-54919714D01*
X181665619Y-55110190D01*
X181713238Y-55205428D01*
X181760857Y-55253047D01*
X181856095Y-55300666D01*
X182094190Y-55300666D01*
X182189428Y-55253047D01*
X182237047Y-55205428D01*
X182284666Y-55110190D01*
X182284666Y-54919714D01*
X182237047Y-54824476D01*
X182189428Y-54776857D01*
X182094190Y-54729238D01*
X182665619Y-56205428D02*
X182665619Y-55729238D01*
X182189428Y-55681619D01*
X182237047Y-55729238D01*
X182284666Y-55824476D01*
X182284666Y-56062571D01*
X182237047Y-56157809D01*
X182189428Y-56205428D01*
X182094190Y-56253047D01*
X181856095Y-56253047D01*
X181760857Y-56205428D01*
X181713238Y-56157809D01*
X181665619Y-56062571D01*
X181665619Y-55824476D01*
X181713238Y-55729238D01*
X181760857Y-55681619D01*
X182332285Y-56681619D02*
X181665619Y-56681619D01*
X182237047Y-56681619D02*
X182284666Y-56729238D01*
X182332285Y-56824476D01*
X182332285Y-56967333D01*
X182284666Y-57062571D01*
X182189428Y-57110190D01*
X181665619Y-57110190D01*
X181665619Y-57586380D02*
X182332285Y-57586380D01*
X182237047Y-57586380D02*
X182284666Y-57634000D01*
X182332285Y-57729238D01*
X182332285Y-57872095D01*
X182284666Y-57967333D01*
X182189428Y-58014952D01*
X181665619Y-58014952D01*
X182189428Y-58014952D02*
X182284666Y-58062571D01*
X182332285Y-58157809D01*
X182332285Y-58300666D01*
X182284666Y-58395904D01*
X182189428Y-58443523D01*
X181665619Y-58443523D01*
%TO.C,U2*%
X150582380Y-55458952D02*
X150582380Y-54839904D01*
X150963333Y-55173238D01*
X150963333Y-55030380D01*
X151010952Y-54935142D01*
X151058571Y-54887523D01*
X151153809Y-54839904D01*
X151391904Y-54839904D01*
X151487142Y-54887523D01*
X151534761Y-54935142D01*
X151582380Y-55030380D01*
X151582380Y-55316095D01*
X151534761Y-55411333D01*
X151487142Y-55458952D01*
X150582380Y-54554190D02*
X151582380Y-54220857D01*
X150582380Y-53887523D01*
X150582380Y-53649428D02*
X150582380Y-53030380D01*
X150963333Y-53363714D01*
X150963333Y-53220857D01*
X151010952Y-53125619D01*
X151058571Y-53078000D01*
X151153809Y-53030380D01*
X151391904Y-53030380D01*
X151487142Y-53078000D01*
X151534761Y-53125619D01*
X151582380Y-53220857D01*
X151582380Y-53506571D01*
X151534761Y-53601809D01*
X151487142Y-53649428D01*
X150582380Y-51649428D02*
X150582380Y-51458952D01*
X150630000Y-51363714D01*
X150725238Y-51268476D01*
X150915714Y-51220857D01*
X151249047Y-51220857D01*
X151439523Y-51268476D01*
X151534761Y-51363714D01*
X151582380Y-51458952D01*
X151582380Y-51649428D01*
X151534761Y-51744666D01*
X151439523Y-51839904D01*
X151249047Y-51887523D01*
X150915714Y-51887523D01*
X150725238Y-51839904D01*
X150630000Y-51744666D01*
X150582380Y-51649428D01*
X151582380Y-50792285D02*
X150582380Y-50792285D01*
X151582380Y-50220857D02*
X151010952Y-50649428D01*
X150582380Y-50220857D02*
X151153809Y-50792285D01*
X151582380Y-49792285D02*
X150582380Y-49792285D01*
%TO.C,Conn1*%
X133646142Y-62735609D02*
X133693761Y-62783228D01*
X133741380Y-62926085D01*
X133741380Y-63021323D01*
X133693761Y-63164180D01*
X133598523Y-63259419D01*
X133503285Y-63307038D01*
X133312809Y-63354657D01*
X133169952Y-63354657D01*
X132979476Y-63307038D01*
X132884238Y-63259419D01*
X132789000Y-63164180D01*
X132741380Y-63021323D01*
X132741380Y-62926085D01*
X132789000Y-62783228D01*
X132836619Y-62735609D01*
X133741380Y-62164180D02*
X133693761Y-62259419D01*
X133646142Y-62307038D01*
X133550904Y-62354657D01*
X133265190Y-62354657D01*
X133169952Y-62307038D01*
X133122333Y-62259419D01*
X133074714Y-62164180D01*
X133074714Y-62021323D01*
X133122333Y-61926085D01*
X133169952Y-61878466D01*
X133265190Y-61830847D01*
X133550904Y-61830847D01*
X133646142Y-61878466D01*
X133693761Y-61926085D01*
X133741380Y-62021323D01*
X133741380Y-62164180D01*
X133074714Y-61402276D02*
X133741380Y-61402276D01*
X133169952Y-61402276D02*
X133122333Y-61354657D01*
X133074714Y-61259419D01*
X133074714Y-61116561D01*
X133122333Y-61021323D01*
X133217571Y-60973704D01*
X133741380Y-60973704D01*
X133074714Y-60497514D02*
X133741380Y-60497514D01*
X133169952Y-60497514D02*
X133122333Y-60449895D01*
X133074714Y-60354657D01*
X133074714Y-60211800D01*
X133122333Y-60116561D01*
X133217571Y-60068942D01*
X133741380Y-60068942D01*
X133741380Y-59068942D02*
X133741380Y-59640371D01*
X133741380Y-59354657D02*
X132741380Y-59354657D01*
X132884238Y-59449895D01*
X132979476Y-59545133D01*
X133027095Y-59640371D01*
%TO.C,U1*%
X115405095Y-72008380D02*
X115405095Y-72817904D01*
X115452714Y-72913142D01*
X115500333Y-72960761D01*
X115595571Y-73008380D01*
X115786047Y-73008380D01*
X115881285Y-72960761D01*
X115928904Y-72913142D01*
X115976523Y-72817904D01*
X115976523Y-72008380D01*
X116976523Y-73008380D02*
X116405095Y-73008380D01*
X116690809Y-73008380D02*
X116690809Y-72008380D01*
X116595571Y-72151238D01*
X116500333Y-72246476D01*
X116405095Y-72294095D01*
%TO.C,D1*%
X178092380Y-52046095D02*
X177092380Y-52046095D01*
X177092380Y-51808000D01*
X177140000Y-51665142D01*
X177235238Y-51569904D01*
X177330476Y-51522285D01*
X177520952Y-51474666D01*
X177663809Y-51474666D01*
X177854285Y-51522285D01*
X177949523Y-51569904D01*
X178044761Y-51665142D01*
X178092380Y-51808000D01*
X178092380Y-52046095D01*
X178092380Y-50522285D02*
X178092380Y-51093714D01*
X178092380Y-50808000D02*
X177092380Y-50808000D01*
X177235238Y-50903238D01*
X177330476Y-50998476D01*
X177378095Y-51093714D01*
X178522380Y-56610095D02*
X178522380Y-55991047D01*
X178903333Y-56324380D01*
X178903333Y-56181523D01*
X178950952Y-56086285D01*
X178998571Y-56038666D01*
X179093809Y-55991047D01*
X179331904Y-55991047D01*
X179427142Y-56038666D01*
X179474761Y-56086285D01*
X179522380Y-56181523D01*
X179522380Y-56467238D01*
X179474761Y-56562476D01*
X179427142Y-56610095D01*
X178522380Y-55705333D02*
X179522380Y-55372000D01*
X178522380Y-55038666D01*
X178522380Y-54800571D02*
X178522380Y-54181523D01*
X178903333Y-54514857D01*
X178903333Y-54372000D01*
X178950952Y-54276761D01*
X178998571Y-54229142D01*
X179093809Y-54181523D01*
X179331904Y-54181523D01*
X179427142Y-54229142D01*
X179474761Y-54276761D01*
X179522380Y-54372000D01*
X179522380Y-54657714D01*
X179474761Y-54752952D01*
X179427142Y-54800571D01*
%TO.C,J1*%
X122731666Y-45844880D02*
X122731666Y-46559166D01*
X122684047Y-46702023D01*
X122588809Y-46797261D01*
X122445952Y-46844880D01*
X122350714Y-46844880D01*
X123731666Y-46844880D02*
X123160238Y-46844880D01*
X123445952Y-46844880D02*
X123445952Y-45844880D01*
X123350714Y-45987738D01*
X123255476Y-46082976D01*
X123160238Y-46130595D01*
%TO.C,C2*%
X152741333Y-62239142D02*
X152693714Y-62286761D01*
X152550857Y-62334380D01*
X152455619Y-62334380D01*
X152312761Y-62286761D01*
X152217523Y-62191523D01*
X152169904Y-62096285D01*
X152122285Y-61905809D01*
X152122285Y-61762952D01*
X152169904Y-61572476D01*
X152217523Y-61477238D01*
X152312761Y-61382000D01*
X152455619Y-61334380D01*
X152550857Y-61334380D01*
X152693714Y-61382000D01*
X152741333Y-61429619D01*
X153122285Y-61429619D02*
X153169904Y-61382000D01*
X153265142Y-61334380D01*
X153503238Y-61334380D01*
X153598476Y-61382000D01*
X153646095Y-61429619D01*
X153693714Y-61524857D01*
X153693714Y-61620095D01*
X153646095Y-61762952D01*
X153074666Y-62334380D01*
X153693714Y-62334380D01*
%TO.C,C1*%
X114055142Y-68238666D02*
X114102761Y-68286285D01*
X114150380Y-68429142D01*
X114150380Y-68524380D01*
X114102761Y-68667238D01*
X114007523Y-68762476D01*
X113912285Y-68810095D01*
X113721809Y-68857714D01*
X113578952Y-68857714D01*
X113388476Y-68810095D01*
X113293238Y-68762476D01*
X113198000Y-68667238D01*
X113150380Y-68524380D01*
X113150380Y-68429142D01*
X113198000Y-68286285D01*
X113245619Y-68238666D01*
X114150380Y-67286285D02*
X114150380Y-67857714D01*
X114150380Y-67572000D02*
X113150380Y-67572000D01*
X113293238Y-67667238D01*
X113388476Y-67762476D01*
X113436095Y-67857714D01*
%TO.C,C3*%
X173999142Y-53506666D02*
X174046761Y-53554285D01*
X174094380Y-53697142D01*
X174094380Y-53792380D01*
X174046761Y-53935238D01*
X173951523Y-54030476D01*
X173856285Y-54078095D01*
X173665809Y-54125714D01*
X173522952Y-54125714D01*
X173332476Y-54078095D01*
X173237238Y-54030476D01*
X173142000Y-53935238D01*
X173094380Y-53792380D01*
X173094380Y-53697142D01*
X173142000Y-53554285D01*
X173189619Y-53506666D01*
X173094380Y-53173333D02*
X173094380Y-52554285D01*
X173475333Y-52887619D01*
X173475333Y-52744761D01*
X173522952Y-52649523D01*
X173570571Y-52601904D01*
X173665809Y-52554285D01*
X173903904Y-52554285D01*
X173999142Y-52601904D01*
X174046761Y-52649523D01*
X174094380Y-52744761D01*
X174094380Y-53030476D01*
X174046761Y-53125714D01*
X173999142Y-53173333D01*
%TO.C,R1*%
X170267333Y-51252380D02*
X169934000Y-50776190D01*
X169695904Y-51252380D02*
X169695904Y-50252380D01*
X170076857Y-50252380D01*
X170172095Y-50300000D01*
X170219714Y-50347619D01*
X170267333Y-50442857D01*
X170267333Y-50585714D01*
X170219714Y-50680952D01*
X170172095Y-50728571D01*
X170076857Y-50776190D01*
X169695904Y-50776190D01*
X171219714Y-51252380D02*
X170648285Y-51252380D01*
X170934000Y-51252380D02*
X170934000Y-50252380D01*
X170838761Y-50395238D01*
X170743523Y-50490476D01*
X170648285Y-50538095D01*
D11*
%TO.C,Conn4*%
X155010000Y-97164000D02*
X155010000Y-94634000D01*
X137090000Y-97164000D02*
X137220000Y-97164000D01*
X137090000Y-98974000D02*
X137090000Y-99954000D01*
X137220000Y-97164000D02*
X137220000Y-98974000D01*
X149970000Y-99954000D02*
X155010000Y-99954000D01*
X149970000Y-101454000D02*
X149970000Y-99954000D01*
X136790000Y-96744000D02*
X136790000Y-94334000D01*
X154880000Y-98974000D02*
X154880000Y-97164000D01*
X155010000Y-99954000D02*
X155010000Y-98974000D01*
X136790000Y-94334000D02*
X139200000Y-94334000D01*
X142130000Y-99954000D02*
X142130000Y-101454000D01*
X155010000Y-94634000D02*
X137090000Y-94634000D01*
X154880000Y-97164000D02*
X155010000Y-97164000D01*
X155010000Y-98974000D02*
X154880000Y-98974000D01*
X137090000Y-94634000D02*
X137090000Y-97164000D01*
X142130000Y-101454000D02*
X149970000Y-101454000D01*
X137090000Y-99954000D02*
X142130000Y-99954000D01*
X137220000Y-98974000D02*
X137090000Y-98974000D01*
%TO.C,Conn2*%
X122826000Y-99954000D02*
X122826000Y-101454000D01*
X135576000Y-97164000D02*
X135706000Y-97164000D01*
X117786000Y-94634000D02*
X117786000Y-97164000D01*
X117916000Y-98974000D02*
X117786000Y-98974000D01*
X135706000Y-97164000D02*
X135706000Y-94634000D01*
X135706000Y-99954000D02*
X135706000Y-98974000D01*
X135706000Y-94634000D02*
X117786000Y-94634000D01*
X117786000Y-99954000D02*
X122826000Y-99954000D01*
X122826000Y-101454000D02*
X130666000Y-101454000D01*
X117486000Y-94334000D02*
X119896000Y-94334000D01*
X135706000Y-98974000D02*
X135576000Y-98974000D01*
X117916000Y-97164000D02*
X117916000Y-98974000D01*
X117786000Y-97164000D02*
X117916000Y-97164000D01*
X130666000Y-101454000D02*
X130666000Y-99954000D01*
X130666000Y-99954000D02*
X135706000Y-99954000D01*
X117786000Y-98974000D02*
X117786000Y-99954000D01*
X135576000Y-98974000D02*
X135576000Y-97164000D01*
X117486000Y-96744000D02*
X117486000Y-94334000D01*
D10*
%TO.C,H3*%
X116071780Y-98507420D02*
G75*
G03*
X116071780Y-98507420I-4013200J0D01*
G01*
%TO.C,H2*%
X205689200Y-98552000D02*
G75*
G03*
X205689200Y-98552000I-4013200J0D01*
G01*
%TO.C,H1*%
X205644620Y-51860580D02*
G75*
G03*
X205644620Y-51860580I-4013200J0D01*
G01*
D11*
%TO.C,R21*%
X196849276Y-76693500D02*
X197358724Y-76693500D01*
X196849276Y-77738500D02*
X197358724Y-77738500D01*
%TO.C,R20*%
X193802724Y-71388500D02*
X193293276Y-71388500D01*
X193802724Y-70343500D02*
X193293276Y-70343500D01*
%TO.C,R19*%
X203185500Y-72898724D02*
X203185500Y-72389276D01*
X204230500Y-72898724D02*
X204230500Y-72389276D01*
%TO.C,R18*%
X193293276Y-75931500D02*
X193802724Y-75931500D01*
X193293276Y-76976500D02*
X193802724Y-76976500D01*
%TO.C,R17*%
X182371276Y-76693500D02*
X182880724Y-76693500D01*
X182371276Y-77738500D02*
X182880724Y-77738500D01*
%TO.C,R16*%
X179324724Y-71388500D02*
X178815276Y-71388500D01*
X179324724Y-70343500D02*
X178815276Y-70343500D01*
%TO.C,R15*%
X188707500Y-72898724D02*
X188707500Y-72389276D01*
X189752500Y-72898724D02*
X189752500Y-72389276D01*
%TO.C,R14*%
X178815276Y-75931500D02*
X179324724Y-75931500D01*
X178815276Y-76976500D02*
X179324724Y-76976500D01*
%TO.C,R13*%
X197103276Y-85583500D02*
X197612724Y-85583500D01*
X197103276Y-86628500D02*
X197612724Y-86628500D01*
%TO.C,R12*%
X193802724Y-80278500D02*
X193293276Y-80278500D01*
X193802724Y-79233500D02*
X193293276Y-79233500D01*
%TO.C,R11*%
X203185500Y-81788724D02*
X203185500Y-81279276D01*
X204230500Y-81788724D02*
X204230500Y-81279276D01*
%TO.C,R10*%
X193293276Y-84821500D02*
X193802724Y-84821500D01*
X193293276Y-85866500D02*
X193802724Y-85866500D01*
%TO.C,R9*%
X182371276Y-67803500D02*
X182880724Y-67803500D01*
X182371276Y-68848500D02*
X182880724Y-68848500D01*
%TO.C,R8*%
X182371276Y-85837500D02*
X182880724Y-85837500D01*
X182371276Y-86882500D02*
X182880724Y-86882500D01*
%TO.C,R7*%
X179324724Y-62244500D02*
X178815276Y-62244500D01*
X179324724Y-61199500D02*
X178815276Y-61199500D01*
%TO.C,R6*%
X188707500Y-64008724D02*
X188707500Y-63499276D01*
X189752500Y-64008724D02*
X189752500Y-63499276D01*
%TO.C,R5*%
X179324724Y-80278500D02*
X178815276Y-80278500D01*
X179324724Y-79233500D02*
X178815276Y-79233500D01*
%TO.C,R4*%
X188707500Y-81534724D02*
X188707500Y-81025276D01*
X189752500Y-81534724D02*
X189752500Y-81025276D01*
%TO.C,R3*%
X178815276Y-66787500D02*
X179324724Y-66787500D01*
X178815276Y-67832500D02*
X179324724Y-67832500D01*
%TO.C,R2*%
X178815276Y-84821500D02*
X179324724Y-84821500D01*
X178815276Y-85866500D02*
X179324724Y-85866500D01*
%TO.C,Q10*%
X199136000Y-71100000D02*
X201086000Y-71100000D01*
X199136000Y-76220000D02*
X197186000Y-76220000D01*
X199136000Y-71100000D02*
X197186000Y-71100000D01*
X199136000Y-76220000D02*
X202586000Y-76220000D01*
%TO.C,Q9*%
X191988000Y-73660000D02*
X191988000Y-73010000D01*
X195108000Y-73660000D02*
X195108000Y-73010000D01*
X191988000Y-73660000D02*
X191988000Y-75335000D01*
X195108000Y-73660000D02*
X195108000Y-74310000D01*
%TO.C,Q8*%
X184658000Y-71100000D02*
X186608000Y-71100000D01*
X184658000Y-76220000D02*
X182708000Y-76220000D01*
X184658000Y-71100000D02*
X182708000Y-71100000D01*
X184658000Y-76220000D02*
X188108000Y-76220000D01*
%TO.C,Q7*%
X177510000Y-73660000D02*
X177510000Y-73010000D01*
X180630000Y-73660000D02*
X180630000Y-73010000D01*
X177510000Y-73660000D02*
X177510000Y-75335000D01*
X180630000Y-73660000D02*
X180630000Y-74310000D01*
%TO.C,Q6*%
X199136000Y-79990000D02*
X201086000Y-79990000D01*
X199136000Y-85110000D02*
X197186000Y-85110000D01*
X199136000Y-79990000D02*
X197186000Y-79990000D01*
X199136000Y-85110000D02*
X202586000Y-85110000D01*
%TO.C,Q5*%
X195174000Y-82550000D02*
X195174000Y-83200000D01*
X192054000Y-82550000D02*
X192054000Y-84225000D01*
X195174000Y-82550000D02*
X195174000Y-81900000D01*
X192054000Y-82550000D02*
X192054000Y-81900000D01*
%TO.C,Q4*%
X184658000Y-62210000D02*
X186608000Y-62210000D01*
X184658000Y-67330000D02*
X182708000Y-67330000D01*
X184658000Y-62210000D02*
X182708000Y-62210000D01*
X184658000Y-67330000D02*
X188108000Y-67330000D01*
%TO.C,Q3*%
X184658000Y-79990000D02*
X186608000Y-79990000D01*
X184658000Y-85110000D02*
X182708000Y-85110000D01*
X184658000Y-79990000D02*
X182708000Y-79990000D01*
X184658000Y-85110000D02*
X188108000Y-85110000D01*
%TO.C,Q2*%
X177510000Y-64516000D02*
X177510000Y-63866000D01*
X180630000Y-64516000D02*
X180630000Y-63866000D01*
X177510000Y-64516000D02*
X177510000Y-66191000D01*
X180630000Y-64516000D02*
X180630000Y-65166000D01*
%TO.C,Q1*%
X177510000Y-82550000D02*
X177510000Y-81900000D01*
X180630000Y-82550000D02*
X180630000Y-81900000D01*
X177510000Y-82550000D02*
X177510000Y-84225000D01*
X180630000Y-82550000D02*
X180630000Y-83200000D01*
%TO.C,J2*%
X177684000Y-94334000D02*
X180094000Y-94334000D01*
X195774000Y-98974000D02*
X195774000Y-97164000D01*
X195904000Y-97164000D02*
X195904000Y-94634000D01*
X190864000Y-101454000D02*
X190864000Y-99954000D01*
X177984000Y-94634000D02*
X177984000Y-97164000D01*
X195904000Y-98974000D02*
X195774000Y-98974000D01*
X177984000Y-99954000D02*
X183024000Y-99954000D01*
X177984000Y-97164000D02*
X178114000Y-97164000D01*
X177684000Y-96744000D02*
X177684000Y-94334000D01*
X178114000Y-98974000D02*
X177984000Y-98974000D01*
X190864000Y-99954000D02*
X195904000Y-99954000D01*
X183024000Y-99954000D02*
X183024000Y-101454000D01*
X195904000Y-94634000D02*
X177984000Y-94634000D01*
X177984000Y-98974000D02*
X177984000Y-99954000D01*
X183024000Y-101454000D02*
X190864000Y-101454000D01*
X178114000Y-97164000D02*
X178114000Y-98974000D01*
X195774000Y-97164000D02*
X195904000Y-97164000D01*
X195904000Y-99954000D02*
X195904000Y-98974000D01*
%TO.C,D6*%
X192251000Y-52108000D02*
X192251000Y-49648000D01*
X190781000Y-49648000D02*
X190781000Y-52108000D01*
X192251000Y-49648000D02*
X190781000Y-49648000D01*
%TO.C,D5*%
X189203000Y-52108000D02*
X189203000Y-49648000D01*
X187733000Y-49648000D02*
X187733000Y-52108000D01*
X189203000Y-49648000D02*
X187733000Y-49648000D01*
%TO.C,D4*%
X186155000Y-49648000D02*
X184685000Y-49648000D01*
X184685000Y-49648000D02*
X184685000Y-52108000D01*
X186155000Y-52108000D02*
X186155000Y-49648000D01*
%TO.C,D3*%
X195299000Y-52108000D02*
X195299000Y-49648000D01*
X193829000Y-49648000D02*
X193829000Y-52108000D01*
X195299000Y-49648000D02*
X193829000Y-49648000D01*
%TO.C,D2*%
X182853000Y-52108000D02*
X182853000Y-49648000D01*
X181383000Y-49648000D02*
X181383000Y-52108000D01*
X182853000Y-49648000D02*
X181383000Y-49648000D01*
D10*
%TO.C,U2*%
X163830000Y-48768000D02*
X166370000Y-51308000D01*
X166370000Y-56388000D02*
X163830000Y-58928000D01*
X168910000Y-58928000D02*
X168910000Y-48768000D01*
X166370000Y-51308000D02*
X166370000Y-56388000D01*
X168910000Y-58928000D02*
X152400000Y-58928000D01*
X158750000Y-58928000D02*
X156210000Y-56388000D01*
X152400000Y-48768000D02*
X168910000Y-48768000D01*
X158750000Y-48768000D02*
X163830000Y-48768000D01*
X163830000Y-58928000D02*
X158750000Y-58928000D01*
X152400000Y-58928000D02*
X152400000Y-48768000D01*
X156210000Y-51308000D02*
X158750000Y-48768000D01*
X156210000Y-56388000D02*
X156210000Y-51308000D01*
%TO.C,Conn1*%
X142227400Y-38543200D02*
X142227400Y-47433200D01*
X134328000Y-50887600D02*
X134328000Y-49693800D01*
X139916000Y-48576200D02*
X141059000Y-48576200D01*
X134328000Y-50862200D02*
X134328000Y-63155800D01*
X150076000Y-50862200D02*
X150076000Y-63155800D01*
X144488000Y-48576200D02*
X147764600Y-48576200D01*
X150076000Y-63155800D02*
X134328000Y-63155800D01*
X134328000Y-46290200D02*
X134328000Y-38543200D01*
X144488000Y-48576200D02*
X143345000Y-48576200D01*
X139916000Y-48576200D02*
X136614000Y-48576200D01*
X150076000Y-38517800D02*
X134328000Y-38517800D01*
X150076000Y-47433200D02*
X150076000Y-46214000D01*
X142202000Y-50862200D02*
X142202000Y-49719200D01*
X148933000Y-48576200D02*
X147764600Y-48576200D01*
X136639400Y-48576200D02*
X135471000Y-48576200D01*
X150076000Y-38543200D02*
X150076000Y-46290200D01*
X142202000Y-50862200D02*
X142202000Y-63155800D01*
X150076000Y-50836800D02*
X150076000Y-49744600D01*
X134328000Y-46264800D02*
X134328000Y-47433200D01*
X134328000Y-49693800D02*
G75*
G03*
X135445600Y-48576200I2J1117598D01*
G01*
X150076000Y-47433200D02*
G75*
G03*
X148933000Y-48576200I0J-1143000D01*
G01*
X135445600Y-48576200D02*
G75*
G03*
X134328000Y-47458600I-1117598J2D01*
G01*
X148933000Y-48576200D02*
G75*
G03*
X150076000Y-49719200I1143000J0D01*
G01*
X143345000Y-48576200D02*
G75*
G03*
X143345000Y-48576200I-1143000J0D01*
G01*
D12*
%TO.C,U1*%
X173952000Y-91741000D02*
X112992000Y-91741000D01*
X112292000Y-86881000D02*
X112292000Y-78821000D01*
X173952000Y-73961000D02*
X173952000Y-91741000D01*
X112992000Y-73961000D02*
X173952000Y-73961000D01*
X112992000Y-78821000D02*
X112292000Y-78821000D01*
X112992000Y-91741000D02*
X112992000Y-86881000D01*
X112992000Y-86881000D02*
X112292000Y-86881000D01*
X112992000Y-73961000D02*
X112992000Y-78821000D01*
D13*
X119442000Y-92351000D02*
G75*
G03*
X119442000Y-92351000I-100000J0D01*
G01*
D11*
%TO.C,D1*%
X179805000Y-52968000D02*
X179805000Y-50508000D01*
X178335000Y-50508000D02*
X178335000Y-52968000D01*
X178335000Y-52968000D02*
X179805000Y-52968000D01*
%TO.C,J1*%
X131315000Y-48892500D02*
X131315000Y-70442500D01*
X131315000Y-70442500D02*
X115065000Y-70442500D01*
X115065000Y-48892500D02*
X115065000Y-70442500D01*
X131315000Y-48892500D02*
X115065000Y-48892500D01*
%TO.C,C2*%
X153054267Y-59942000D02*
X152761733Y-59942000D01*
X153054267Y-60962000D02*
X152761733Y-60962000D01*
%TO.C,C1*%
X111758000Y-67925733D02*
X111758000Y-68218267D01*
X112778000Y-67925733D02*
X112778000Y-68218267D01*
%TO.C,C3*%
X171702000Y-53193733D02*
X171702000Y-53486267D01*
X172722000Y-53193733D02*
X172722000Y-53486267D01*
%TO.C,R1*%
X173482724Y-50277500D02*
X172973276Y-50277500D01*
X173482724Y-51322500D02*
X172973276Y-51322500D01*
%TD*%
%LPC*%
D14*
%TO.C,Conn4*%
X139700000Y-97294000D03*
D15*
X142240000Y-97294000D03*
X144780000Y-97294000D03*
X147320000Y-97294000D03*
X149860000Y-97294000D03*
X152400000Y-97294000D03*
%TD*%
D14*
%TO.C,Conn2*%
X120396000Y-97294000D03*
D15*
X122936000Y-97294000D03*
X125476000Y-97294000D03*
X128016000Y-97294000D03*
X130556000Y-97294000D03*
X133096000Y-97294000D03*
%TD*%
D16*
%TO.C,H3*%
X112058580Y-98507420D03*
%TD*%
%TO.C,H2*%
X201676000Y-98552000D03*
%TD*%
%TO.C,H1*%
X201631420Y-51860580D03*
%TD*%
D17*
%TO.C,R21*%
X196191500Y-77216000D03*
X198016500Y-77216000D03*
%TD*%
D18*
%TO.C,R20*%
X194460500Y-70866000D03*
X192635500Y-70866000D03*
%TD*%
D19*
%TO.C,R19*%
X203708000Y-73556500D03*
X203708000Y-71731500D03*
%TD*%
D17*
%TO.C,R18*%
X192635500Y-76454000D03*
X194460500Y-76454000D03*
%TD*%
%TO.C,R17*%
X181713500Y-77216000D03*
X183538500Y-77216000D03*
%TD*%
D18*
%TO.C,R16*%
X179982500Y-70866000D03*
X178157500Y-70866000D03*
%TD*%
D19*
%TO.C,R15*%
X189230000Y-73556500D03*
X189230000Y-71731500D03*
%TD*%
D17*
%TO.C,R14*%
X178157500Y-76454000D03*
X179982500Y-76454000D03*
%TD*%
%TO.C,R13*%
X196445500Y-86106000D03*
X198270500Y-86106000D03*
%TD*%
D18*
%TO.C,R12*%
X194460500Y-79756000D03*
X192635500Y-79756000D03*
%TD*%
D19*
%TO.C,R11*%
X203708000Y-82446500D03*
X203708000Y-80621500D03*
%TD*%
D17*
%TO.C,R10*%
X192635500Y-85344000D03*
X194460500Y-85344000D03*
%TD*%
%TO.C,R9*%
X181713500Y-68326000D03*
X183538500Y-68326000D03*
%TD*%
%TO.C,R8*%
X181713500Y-86360000D03*
X183538500Y-86360000D03*
%TD*%
D18*
%TO.C,R7*%
X179982500Y-61722000D03*
X178157500Y-61722000D03*
%TD*%
D19*
%TO.C,R6*%
X189230000Y-64666500D03*
X189230000Y-62841500D03*
%TD*%
D18*
%TO.C,R5*%
X179982500Y-79756000D03*
X178157500Y-79756000D03*
%TD*%
D19*
%TO.C,R4*%
X189230000Y-82192500D03*
X189230000Y-80367500D03*
%TD*%
D17*
%TO.C,R3*%
X178157500Y-67310000D03*
X179982500Y-67310000D03*
%TD*%
%TO.C,R2*%
X178157500Y-85344000D03*
X179982500Y-85344000D03*
%TD*%
D20*
%TO.C,Q10*%
X201761000Y-75565000D03*
X201761000Y-74295000D03*
X201761000Y-73025000D03*
X201761000Y-71755000D03*
X196511000Y-71755000D03*
X196511000Y-73025000D03*
X196511000Y-74295000D03*
X196511000Y-75565000D03*
%TD*%
D21*
%TO.C,Q9*%
X192598000Y-74597500D03*
X194498000Y-74597500D03*
X193548000Y-72722500D03*
%TD*%
D20*
%TO.C,Q8*%
X187283000Y-75565000D03*
X187283000Y-74295000D03*
X187283000Y-73025000D03*
X187283000Y-71755000D03*
X182033000Y-71755000D03*
X182033000Y-73025000D03*
X182033000Y-74295000D03*
X182033000Y-75565000D03*
%TD*%
D21*
%TO.C,Q7*%
X178120000Y-74597500D03*
X180020000Y-74597500D03*
X179070000Y-72722500D03*
%TD*%
D20*
%TO.C,Q6*%
X201761000Y-84455000D03*
X201761000Y-83185000D03*
X201761000Y-81915000D03*
X201761000Y-80645000D03*
X196511000Y-80645000D03*
X196511000Y-81915000D03*
X196511000Y-83185000D03*
X196511000Y-84455000D03*
%TD*%
D21*
%TO.C,Q5*%
X193614000Y-81612500D03*
X194564000Y-83487500D03*
X192664000Y-83487500D03*
%TD*%
D20*
%TO.C,Q4*%
X187283000Y-66675000D03*
X187283000Y-65405000D03*
X187283000Y-64135000D03*
X187283000Y-62865000D03*
X182033000Y-62865000D03*
X182033000Y-64135000D03*
X182033000Y-65405000D03*
X182033000Y-66675000D03*
%TD*%
%TO.C,Q3*%
X187283000Y-84455000D03*
X187283000Y-83185000D03*
X187283000Y-81915000D03*
X187283000Y-80645000D03*
X182033000Y-80645000D03*
X182033000Y-81915000D03*
X182033000Y-83185000D03*
X182033000Y-84455000D03*
%TD*%
D21*
%TO.C,Q2*%
X178120000Y-65453500D03*
X180020000Y-65453500D03*
X179070000Y-63578500D03*
%TD*%
%TO.C,Q1*%
X178120000Y-83487500D03*
X180020000Y-83487500D03*
X179070000Y-81612500D03*
%TD*%
D14*
%TO.C,J2*%
X180594000Y-97294000D03*
D15*
X183134000Y-97294000D03*
X185674000Y-97294000D03*
X188214000Y-97294000D03*
X190754000Y-97294000D03*
X193294000Y-97294000D03*
%TD*%
D22*
%TO.C,D6*%
X191516000Y-50433000D03*
X191516000Y-52183000D03*
%TD*%
%TO.C,D5*%
X188468000Y-50433000D03*
X188468000Y-52183000D03*
%TD*%
%TO.C,D4*%
X185420000Y-52183000D03*
X185420000Y-50433000D03*
%TD*%
%TO.C,D3*%
X194564000Y-50433000D03*
X194564000Y-52183000D03*
%TD*%
%TO.C,D2*%
X182118000Y-50433000D03*
X182118000Y-52183000D03*
%TD*%
D23*
%TO.C,U2*%
X153670000Y-56388000D03*
X153670000Y-53848000D03*
X153670000Y-51308000D03*
%TD*%
D24*
%TO.C,Conn1*%
X146139000Y-66737200D03*
X138265000Y-66737200D03*
%TD*%
D25*
%TO.C,U1*%
X116802000Y-90471000D03*
X119342000Y-90471000D03*
X121882000Y-90471000D03*
X124422000Y-90471000D03*
X149822000Y-90471000D03*
X119342000Y-75231000D03*
X159982000Y-85391000D03*
X126962000Y-90471000D03*
X129502000Y-90471000D03*
D26*
X120612000Y-87421000D03*
D25*
X132042000Y-90471000D03*
X134582000Y-90471000D03*
X137122000Y-90471000D03*
X139662000Y-90471000D03*
X142202000Y-90471000D03*
X144742000Y-90471000D03*
X147282000Y-90471000D03*
X147282000Y-75231000D03*
X144742000Y-75231000D03*
X142202000Y-75231000D03*
X139662000Y-75231000D03*
X137122000Y-75231000D03*
X134582000Y-75231000D03*
X132042000Y-75231000D03*
X129502000Y-75231000D03*
X126962000Y-75231000D03*
X124422000Y-75231000D03*
X121882000Y-75231000D03*
X152362000Y-90471000D03*
X154902000Y-90471000D03*
X157442000Y-90471000D03*
X159982000Y-90471000D03*
X162522000Y-90471000D03*
X165062000Y-90471000D03*
X167602000Y-90471000D03*
X170142000Y-90471000D03*
X172682000Y-90471000D03*
X172682000Y-75231000D03*
X170142000Y-75231000D03*
X167602000Y-75231000D03*
X165062000Y-75231000D03*
X162522000Y-75231000D03*
X159982000Y-75231000D03*
X157442000Y-75231000D03*
X154902000Y-75231000D03*
X152362000Y-75231000D03*
D26*
X125692000Y-87421000D03*
X123152000Y-87421000D03*
D25*
X114262000Y-90471000D03*
X149822000Y-75231000D03*
X116802000Y-75231000D03*
X159982000Y-82851000D03*
D27*
X129232000Y-79681000D03*
X127232000Y-79681000D03*
D25*
X159982000Y-77771000D03*
X159982000Y-80311000D03*
D27*
X127232000Y-77681000D03*
X129232000Y-77681000D03*
X129232000Y-81681000D03*
X127232000Y-81681000D03*
D26*
X128232000Y-87421000D03*
X130772000Y-87421000D03*
D25*
X159982000Y-87931000D03*
X114262000Y-75231000D03*
X116802000Y-77771000D03*
%TD*%
D28*
%TO.C,D1*%
X179070000Y-52183000D03*
X179070000Y-50433000D03*
%TD*%
D29*
%TO.C,J1*%
X127635000Y-66242500D03*
X126365000Y-68782500D03*
X125095000Y-66242500D03*
X123825000Y-68782500D03*
X122555000Y-66242500D03*
X121285000Y-68782500D03*
X120015000Y-66242500D03*
X118745000Y-68782500D03*
D30*
X129515000Y-54812500D03*
X126975000Y-56602500D03*
X119405000Y-54812500D03*
X116865000Y-56602500D03*
D31*
X128905000Y-59892500D03*
X117475000Y-59892500D03*
D32*
X131065000Y-62942500D03*
X115315000Y-62942500D03*
%TD*%
D33*
%TO.C,C2*%
X153770500Y-60452000D03*
X152045500Y-60452000D03*
%TD*%
D34*
%TO.C,C1*%
X112268000Y-67209500D03*
X112268000Y-68934500D03*
%TD*%
%TO.C,C3*%
X172212000Y-52477500D03*
X172212000Y-54202500D03*
%TD*%
D18*
%TO.C,R1*%
X174140500Y-50800000D03*
X172315500Y-50800000D03*
%TD*%
M02*
