%TF.GenerationSoftware,KiCad,Pcbnew,(6.0.7)*%
%TF.CreationDate,2023-04-22T03:47:46-05:00*%
%TF.ProjectId,Flouro_Breakout,466c6f75-726f-45f4-9272-65616b6f7574,rev?*%
%TF.SameCoordinates,Original*%
%TF.FileFunction,Drillmap*%
%TF.FilePolarity,Positive*%
%FSLAX45Y45*%
G04 Gerber Fmt 4.5, Leading zero omitted, Abs format (unit mm)*
G04 Created by KiCad (PCBNEW (6.0.7)) date 2023-04-22 03:47:46*
%MOMM*%
%LPD*%
G01*
G04 APERTURE LIST*
%ADD10C,0.100000*%
%ADD11C,0.200000*%
%ADD12C,0.040000*%
%ADD13C,0.070000*%
%ADD14C,0.075000*%
%ADD15C,0.080000*%
%ADD16C,0.088900*%
%ADD17C,0.090000*%
%ADD18C,0.102000*%
%ADD19C,0.109000*%
%ADD20C,0.160000*%
%ADD21C,0.325000*%
G04 APERTURE END LIST*
D10*
X20574000Y-5181600D02*
G75*
G03*
X20167600Y-4775200I-406400J0D01*
G01*
X11201400Y-4775200D02*
G75*
G03*
X10795000Y-5181600I0J-406400D01*
G01*
X20167600Y-10261600D02*
G75*
G03*
X20574000Y-9855200I0J406400D01*
G01*
X10795000Y-9855200D02*
G75*
G03*
X11201400Y-10261600I406400J0D01*
G01*
X20167600Y-4775200D02*
X11201400Y-4775200D01*
X11201400Y-10261600D02*
X20167600Y-10261600D01*
X20574000Y-9855200D02*
X20574000Y-5181600D01*
X10795000Y-5181600D02*
X10795000Y-9855200D01*
D11*
D12*
X15042200Y-7219000D02*
X15082200Y-7259000D01*
X15082200Y-7219000D02*
X15042200Y-7259000D01*
X16744000Y-8844600D02*
X16784000Y-8884600D01*
X16784000Y-8844600D02*
X16744000Y-8884600D01*
X17252000Y-8768400D02*
X17292000Y-8808400D01*
X17292000Y-8768400D02*
X17252000Y-8808400D01*
X17535150Y-8761436D02*
X17575150Y-8801436D01*
X17575150Y-8761436D02*
X17535150Y-8801436D01*
X17556800Y-6711000D02*
X17596800Y-6751000D01*
X17596800Y-6711000D02*
X17556800Y-6751000D01*
X17607600Y-8844600D02*
X17647600Y-8884600D01*
X17647600Y-8844600D02*
X17607600Y-8884600D01*
X17633000Y-7625400D02*
X17673000Y-7665400D01*
X17673000Y-7625400D02*
X17633000Y-7665400D01*
X17683800Y-8514400D02*
X17723800Y-8554400D01*
X17723800Y-8514400D02*
X17683800Y-8554400D01*
X17683800Y-8920800D02*
X17723800Y-8960800D01*
X17723800Y-8920800D02*
X17683800Y-8960800D01*
X18166400Y-7803200D02*
X18206400Y-7843200D01*
X18206400Y-7803200D02*
X18166400Y-7843200D01*
X18166400Y-8717600D02*
X18206400Y-8757600D01*
X18206400Y-8717600D02*
X18166400Y-8757600D01*
X18191800Y-5314000D02*
X18231800Y-5354000D01*
X18231800Y-5314000D02*
X18191800Y-5354000D01*
X18191800Y-5720400D02*
X18231800Y-5760400D01*
X18231800Y-5720400D02*
X18191800Y-5760400D01*
X18242600Y-9247450D02*
X18282600Y-9287450D01*
X18282600Y-9247450D02*
X18242600Y-9287450D01*
X18293400Y-6939600D02*
X18333400Y-6979600D01*
X18333400Y-6939600D02*
X18293400Y-6979600D01*
X18311350Y-9022400D02*
X18351350Y-9062400D01*
X18351350Y-9022400D02*
X18311350Y-9062400D01*
X18445800Y-5568000D02*
X18485800Y-5608000D01*
X18485800Y-5568000D02*
X18445800Y-5608000D01*
X18445800Y-6812600D02*
X18485800Y-6852600D01*
X18485800Y-6812600D02*
X18445800Y-6852600D01*
X18496600Y-8692200D02*
X18536600Y-8732200D01*
X18536600Y-8692200D02*
X18496600Y-8732200D01*
X18500350Y-7701600D02*
X18540350Y-7741600D01*
X18540350Y-7701600D02*
X18500350Y-7741600D01*
X18522000Y-5644200D02*
X18562000Y-5684200D01*
X18562000Y-5644200D02*
X18522000Y-5684200D01*
X18572800Y-9247450D02*
X18612800Y-9287450D01*
X18612800Y-9247450D02*
X18572800Y-9287450D01*
X18598200Y-5720400D02*
X18638200Y-5760400D01*
X18638200Y-5720400D02*
X18598200Y-5760400D01*
X18598200Y-8616000D02*
X18638200Y-8656000D01*
X18638200Y-8616000D02*
X18598200Y-8656000D01*
X18725200Y-5314000D02*
X18765200Y-5354000D01*
X18765200Y-5314000D02*
X18725200Y-5354000D01*
X18725200Y-5720400D02*
X18765200Y-5760400D01*
X18765200Y-5720400D02*
X18725200Y-5760400D01*
X18826800Y-5314000D02*
X18866800Y-5354000D01*
X18866800Y-5314000D02*
X18826800Y-5354000D01*
X18826800Y-5644200D02*
X18866800Y-5684200D01*
X18866800Y-5644200D02*
X18826800Y-5684200D01*
X18826800Y-8717600D02*
X18866800Y-8757600D01*
X18866800Y-8717600D02*
X18826800Y-8757600D01*
X18979200Y-9022400D02*
X19019200Y-9062400D01*
X19019200Y-9022400D02*
X18979200Y-9062400D01*
X19055400Y-9098600D02*
X19095400Y-9138600D01*
X19095400Y-9098600D02*
X19055400Y-9138600D01*
X19131600Y-5314000D02*
X19171600Y-5354000D01*
X19171600Y-5314000D02*
X19131600Y-5354000D01*
X19131600Y-5644200D02*
X19171600Y-5684200D01*
X19171600Y-5644200D02*
X19131600Y-5684200D01*
X19131600Y-8514400D02*
X19171600Y-8554400D01*
X19171600Y-8514400D02*
X19131600Y-8554400D01*
X19131600Y-9174800D02*
X19171600Y-9214800D01*
X19171600Y-9174800D02*
X19131600Y-9214800D01*
X19207800Y-7219000D02*
X19247800Y-7259000D01*
X19247800Y-7219000D02*
X19207800Y-7259000D01*
X19207800Y-8714050D02*
X19247800Y-8754050D01*
X19247800Y-8714050D02*
X19207800Y-8754050D01*
X19233200Y-7752400D02*
X19273200Y-7792400D01*
X19273200Y-7752400D02*
X19233200Y-7792400D01*
X19334800Y-7752400D02*
X19374800Y-7792400D01*
X19374800Y-7752400D02*
X19334800Y-7792400D01*
X19436400Y-5314000D02*
X19476400Y-5354000D01*
X19476400Y-5314000D02*
X19436400Y-5354000D01*
X19436400Y-5568000D02*
X19476400Y-5608000D01*
X19476400Y-5568000D02*
X19436400Y-5608000D01*
X19436400Y-7625400D02*
X19476400Y-7665400D01*
X19476400Y-7625400D02*
X19436400Y-7665400D01*
X19512600Y-6787200D02*
X19552600Y-6827200D01*
X19552600Y-6787200D02*
X19512600Y-6827200D01*
X19893600Y-5644200D02*
X19933600Y-5684200D01*
X19933600Y-5644200D02*
X19893600Y-5684200D01*
X19893600Y-7701600D02*
X19933600Y-7741600D01*
X19933600Y-7701600D02*
X19893600Y-7741600D01*
X19944400Y-8590600D02*
X19984400Y-8630600D01*
X19984400Y-8590600D02*
X19944400Y-8630600D01*
X19969800Y-5720400D02*
X20009800Y-5760400D01*
X20009800Y-5720400D02*
X19969800Y-5760400D01*
X20173000Y-7777800D02*
X20213000Y-7817800D01*
X20213000Y-7777800D02*
X20173000Y-7817800D01*
D13*
X12758200Y-7768100D02*
G75*
G03*
X12758200Y-7768100I-35000J0D01*
G01*
X12758200Y-7968100D02*
G75*
G03*
X12758200Y-7968100I-35000J0D01*
G01*
X12758200Y-8168100D02*
G75*
G03*
X12758200Y-8168100I-35000J0D01*
G01*
X12958200Y-7768100D02*
G75*
G03*
X12958200Y-7768100I-35000J0D01*
G01*
X12958200Y-7968100D02*
G75*
G03*
X12958200Y-7968100I-35000J0D01*
G01*
X12958200Y-8168100D02*
G75*
G03*
X12958200Y-8168100I-35000J0D01*
G01*
D14*
X12061200Y-8704600D02*
X12061200Y-8779600D01*
X12023700Y-8742100D02*
X12098700Y-8742100D01*
X12315200Y-8704600D02*
X12315200Y-8779600D01*
X12277700Y-8742100D02*
X12352700Y-8742100D01*
X12569200Y-8704600D02*
X12569200Y-8779600D01*
X12531700Y-8742100D02*
X12606700Y-8742100D01*
X12823200Y-8704600D02*
X12823200Y-8779600D01*
X12785700Y-8742100D02*
X12860700Y-8742100D01*
X13077200Y-8704600D02*
X13077200Y-8779600D01*
X13039700Y-8742100D02*
X13114700Y-8742100D01*
D15*
X11454484Y-7551384D02*
X11454484Y-7494815D01*
X11397915Y-7494815D01*
X11397915Y-7551384D01*
X11454484Y-7551384D01*
X11454484Y-9075385D02*
X11454484Y-9018816D01*
X11397915Y-9018816D01*
X11397915Y-9075385D01*
X11454484Y-9075385D01*
X11708484Y-7551384D02*
X11708484Y-7494815D01*
X11651915Y-7494815D01*
X11651915Y-7551384D01*
X11708484Y-7551384D01*
X11708484Y-7805384D02*
X11708484Y-7748815D01*
X11651915Y-7748815D01*
X11651915Y-7805384D01*
X11708484Y-7805384D01*
X11708484Y-9075385D02*
X11708484Y-9018816D01*
X11651915Y-9018816D01*
X11651915Y-9075385D01*
X11708484Y-9075385D01*
X11962484Y-7551384D02*
X11962484Y-7494815D01*
X11905915Y-7494815D01*
X11905915Y-7551384D01*
X11962484Y-7551384D01*
X11962484Y-9075385D02*
X11962484Y-9018816D01*
X11905915Y-9018816D01*
X11905915Y-9075385D01*
X11962484Y-9075385D01*
X12216484Y-7551384D02*
X12216484Y-7494815D01*
X12159915Y-7494815D01*
X12159915Y-7551384D01*
X12216484Y-7551384D01*
X12216484Y-9075385D02*
X12216484Y-9018816D01*
X12159915Y-9018816D01*
X12159915Y-9075385D01*
X12216484Y-9075385D01*
X12470484Y-7551384D02*
X12470484Y-7494815D01*
X12413915Y-7494815D01*
X12413915Y-7551384D01*
X12470484Y-7551384D01*
X12470484Y-9075385D02*
X12470484Y-9018816D01*
X12413915Y-9018816D01*
X12413915Y-9075385D01*
X12470484Y-9075385D01*
X12724484Y-7551384D02*
X12724484Y-7494815D01*
X12667915Y-7494815D01*
X12667915Y-7551384D01*
X12724484Y-7551384D01*
X12724484Y-9075385D02*
X12724484Y-9018816D01*
X12667915Y-9018816D01*
X12667915Y-9075385D01*
X12724484Y-9075385D01*
X12978484Y-7551384D02*
X12978484Y-7494815D01*
X12921915Y-7494815D01*
X12921915Y-7551384D01*
X12978484Y-7551384D01*
X12978484Y-9075385D02*
X12978484Y-9018816D01*
X12921915Y-9018816D01*
X12921915Y-9075385D01*
X12978484Y-9075385D01*
X13232484Y-7551384D02*
X13232484Y-7494815D01*
X13175915Y-7494815D01*
X13175915Y-7551384D01*
X13232484Y-7551384D01*
X13232484Y-9075385D02*
X13232484Y-9018816D01*
X13175915Y-9018816D01*
X13175915Y-9075385D01*
X13232484Y-9075385D01*
X13486484Y-7551384D02*
X13486484Y-7494815D01*
X13429915Y-7494815D01*
X13429915Y-7551384D01*
X13486484Y-7551384D01*
X13486484Y-9075385D02*
X13486484Y-9018816D01*
X13429915Y-9018816D01*
X13429915Y-9075385D01*
X13486484Y-9075385D01*
X13740484Y-7551384D02*
X13740484Y-7494815D01*
X13683915Y-7494815D01*
X13683915Y-7551384D01*
X13740484Y-7551384D01*
X13740484Y-9075385D02*
X13740484Y-9018816D01*
X13683915Y-9018816D01*
X13683915Y-9075385D01*
X13740484Y-9075385D01*
X13994484Y-7551384D02*
X13994484Y-7494815D01*
X13937915Y-7494815D01*
X13937915Y-7551384D01*
X13994484Y-7551384D01*
X13994484Y-9075385D02*
X13994484Y-9018816D01*
X13937915Y-9018816D01*
X13937915Y-9075385D01*
X13994484Y-9075385D01*
X14248484Y-7551384D02*
X14248484Y-7494815D01*
X14191915Y-7494815D01*
X14191915Y-7551384D01*
X14248484Y-7551384D01*
X14248484Y-9075385D02*
X14248484Y-9018816D01*
X14191915Y-9018816D01*
X14191915Y-9075385D01*
X14248484Y-9075385D01*
X14502484Y-7551384D02*
X14502484Y-7494815D01*
X14445915Y-7494815D01*
X14445915Y-7551384D01*
X14502484Y-7551384D01*
X14502484Y-9075385D02*
X14502484Y-9018816D01*
X14445915Y-9018816D01*
X14445915Y-9075385D01*
X14502484Y-9075385D01*
X14756484Y-7551384D02*
X14756484Y-7494815D01*
X14699915Y-7494815D01*
X14699915Y-7551384D01*
X14756484Y-7551384D01*
X14756484Y-9075385D02*
X14756484Y-9018816D01*
X14699915Y-9018816D01*
X14699915Y-9075385D01*
X14756484Y-9075385D01*
X15010484Y-7551384D02*
X15010484Y-7494815D01*
X14953915Y-7494815D01*
X14953915Y-7551384D01*
X15010484Y-7551384D01*
X15010484Y-9075385D02*
X15010484Y-9018816D01*
X14953915Y-9018816D01*
X14953915Y-9075385D01*
X15010484Y-9075385D01*
X15264484Y-7551384D02*
X15264484Y-7494815D01*
X15207915Y-7494815D01*
X15207915Y-7551384D01*
X15264484Y-7551384D01*
X15264484Y-9075385D02*
X15264484Y-9018816D01*
X15207915Y-9018816D01*
X15207915Y-9075385D01*
X15264484Y-9075385D01*
X15518484Y-7551384D02*
X15518484Y-7494815D01*
X15461915Y-7494815D01*
X15461915Y-7551384D01*
X15518484Y-7551384D01*
X15518484Y-9075385D02*
X15518484Y-9018816D01*
X15461915Y-9018816D01*
X15461915Y-9075385D01*
X15518484Y-9075385D01*
X15772484Y-7551384D02*
X15772484Y-7494815D01*
X15715915Y-7494815D01*
X15715915Y-7551384D01*
X15772484Y-7551384D01*
X15772484Y-9075385D02*
X15772484Y-9018816D01*
X15715915Y-9018816D01*
X15715915Y-9075385D01*
X15772484Y-9075385D01*
X16026484Y-7551384D02*
X16026484Y-7494815D01*
X15969915Y-7494815D01*
X15969915Y-7551384D01*
X16026484Y-7551384D01*
X16026484Y-7805384D02*
X16026484Y-7748815D01*
X15969915Y-7748815D01*
X15969915Y-7805384D01*
X16026484Y-7805384D01*
X16026484Y-8059384D02*
X16026484Y-8002815D01*
X15969915Y-8002815D01*
X15969915Y-8059384D01*
X16026484Y-8059384D01*
X16026484Y-8313384D02*
X16026484Y-8256815D01*
X15969915Y-8256815D01*
X15969915Y-8313384D01*
X16026484Y-8313384D01*
X16026484Y-8567385D02*
X16026484Y-8510816D01*
X15969915Y-8510816D01*
X15969915Y-8567385D01*
X16026484Y-8567385D01*
X16026484Y-8821385D02*
X16026484Y-8764816D01*
X15969915Y-8764816D01*
X15969915Y-8821385D01*
X16026484Y-8821385D01*
X16026484Y-9075385D02*
X16026484Y-9018816D01*
X15969915Y-9018816D01*
X15969915Y-9075385D01*
X16026484Y-9075385D01*
X16280484Y-7551384D02*
X16280484Y-7494815D01*
X16223915Y-7494815D01*
X16223915Y-7551384D01*
X16280484Y-7551384D01*
X16280484Y-9075385D02*
X16280484Y-9018816D01*
X16223915Y-9018816D01*
X16223915Y-9075385D01*
X16280484Y-9075385D01*
X16534484Y-7551384D02*
X16534484Y-7494815D01*
X16477915Y-7494815D01*
X16477915Y-7551384D01*
X16534484Y-7551384D01*
X16534484Y-9075385D02*
X16534484Y-9018816D01*
X16477915Y-9018816D01*
X16477915Y-9075385D01*
X16534484Y-9075385D01*
X16788485Y-7551384D02*
X16788485Y-7494815D01*
X16731915Y-7494815D01*
X16731915Y-7551384D01*
X16788485Y-7551384D01*
X16788485Y-9075385D02*
X16788485Y-9018816D01*
X16731915Y-9018816D01*
X16731915Y-9075385D01*
X16788485Y-9075385D01*
X17042485Y-7551384D02*
X17042485Y-7494815D01*
X16985916Y-7494815D01*
X16985916Y-7551384D01*
X17042485Y-7551384D01*
X17042485Y-9075385D02*
X17042485Y-9018816D01*
X16985916Y-9018816D01*
X16985916Y-9075385D01*
X17042485Y-9075385D01*
X17296485Y-7551384D02*
X17296485Y-7494815D01*
X17239916Y-7494815D01*
X17239916Y-7551384D01*
X17296485Y-7551384D01*
X17296485Y-9075385D02*
X17296485Y-9018816D01*
X17239916Y-9018816D01*
X17239916Y-9075385D01*
X17296485Y-9075385D01*
D16*
X15367000Y-5175250D02*
X15411450Y-5130800D01*
X15367000Y-5086350D01*
X15322550Y-5130800D01*
X15367000Y-5175250D01*
X15367000Y-5429250D02*
X15411450Y-5384800D01*
X15367000Y-5340350D01*
X15322550Y-5384800D01*
X15367000Y-5429250D01*
X15367000Y-5683250D02*
X15411450Y-5638800D01*
X15367000Y-5594350D01*
X15322550Y-5638800D01*
X15367000Y-5683250D01*
D17*
X11829500Y-6833250D02*
X11919500Y-6923250D01*
X11919500Y-6833250D02*
X11829500Y-6923250D01*
X11919500Y-6878250D02*
G75*
G03*
X11919500Y-6878250I-45000J0D01*
G01*
X11956500Y-6579250D02*
X12046500Y-6669250D01*
X12046500Y-6579250D02*
X11956500Y-6669250D01*
X12046500Y-6624250D02*
G75*
G03*
X12046500Y-6624250I-45000J0D01*
G01*
X12083500Y-6833250D02*
X12173500Y-6923250D01*
X12173500Y-6833250D02*
X12083500Y-6923250D01*
X12173500Y-6878250D02*
G75*
G03*
X12173500Y-6878250I-45000J0D01*
G01*
X12210500Y-6579250D02*
X12300500Y-6669250D01*
X12300500Y-6579250D02*
X12210500Y-6669250D01*
X12300500Y-6624250D02*
G75*
G03*
X12300500Y-6624250I-45000J0D01*
G01*
X12337500Y-6833250D02*
X12427500Y-6923250D01*
X12427500Y-6833250D02*
X12337500Y-6923250D01*
X12427500Y-6878250D02*
G75*
G03*
X12427500Y-6878250I-45000J0D01*
G01*
X12464500Y-6579250D02*
X12554500Y-6669250D01*
X12554500Y-6579250D02*
X12464500Y-6669250D01*
X12554500Y-6624250D02*
G75*
G03*
X12554500Y-6624250I-45000J0D01*
G01*
X12591500Y-6833250D02*
X12681500Y-6923250D01*
X12681500Y-6833250D02*
X12591500Y-6923250D01*
X12681500Y-6878250D02*
G75*
G03*
X12681500Y-6878250I-45000J0D01*
G01*
X12718500Y-6579250D02*
X12808500Y-6669250D01*
X12808500Y-6579250D02*
X12718500Y-6669250D01*
X12808500Y-6624250D02*
G75*
G03*
X12808500Y-6624250I-45000J0D01*
G01*
D18*
X11635500Y-5609250D02*
X11737500Y-5711250D01*
X11737500Y-5609250D02*
X11635500Y-5711250D01*
X11686500Y-5609250D02*
X11686500Y-5711250D01*
X11635500Y-5660250D02*
X11737500Y-5660250D01*
X11889500Y-5430250D02*
X11991500Y-5532250D01*
X11991500Y-5430250D02*
X11889500Y-5532250D01*
X11940500Y-5430250D02*
X11940500Y-5532250D01*
X11889500Y-5481250D02*
X11991500Y-5481250D01*
X12646500Y-5609250D02*
X12748500Y-5711250D01*
X12748500Y-5609250D02*
X12646500Y-5711250D01*
X12697500Y-5609250D02*
X12697500Y-5711250D01*
X12646500Y-5660250D02*
X12748500Y-5660250D01*
X12900500Y-5430250D02*
X13002500Y-5532250D01*
X13002500Y-5430250D02*
X12900500Y-5532250D01*
X12951500Y-5430250D02*
X12951500Y-5532250D01*
X12900500Y-5481250D02*
X13002500Y-5481250D01*
D19*
X11985100Y-9674900D02*
X12094100Y-9783900D01*
X12094100Y-9674900D02*
X11985100Y-9783900D01*
X12078138Y-9767938D02*
X12078138Y-9690862D01*
X12001062Y-9690862D01*
X12001062Y-9767938D01*
X12078138Y-9767938D01*
X12239100Y-9674900D02*
X12348100Y-9783900D01*
X12348100Y-9674900D02*
X12239100Y-9783900D01*
X12332138Y-9767938D02*
X12332138Y-9690862D01*
X12255062Y-9690862D01*
X12255062Y-9767938D01*
X12332138Y-9767938D01*
X12493100Y-9674900D02*
X12602100Y-9783900D01*
X12602100Y-9674900D02*
X12493100Y-9783900D01*
X12586138Y-9767938D02*
X12586138Y-9690862D01*
X12509062Y-9690862D01*
X12509062Y-9767938D01*
X12586138Y-9767938D01*
X12747100Y-9674900D02*
X12856100Y-9783900D01*
X12856100Y-9674900D02*
X12747100Y-9783900D01*
X12840138Y-9767938D02*
X12840138Y-9690862D01*
X12763062Y-9690862D01*
X12763062Y-9767938D01*
X12840138Y-9767938D01*
X13001100Y-9674900D02*
X13110100Y-9783900D01*
X13110100Y-9674900D02*
X13001100Y-9783900D01*
X13094138Y-9767938D02*
X13094138Y-9690862D01*
X13017062Y-9690862D01*
X13017062Y-9767938D01*
X13094138Y-9767938D01*
X13255100Y-9674900D02*
X13364100Y-9783900D01*
X13364100Y-9674900D02*
X13255100Y-9783900D01*
X13348138Y-9767938D02*
X13348138Y-9690862D01*
X13271062Y-9690862D01*
X13271062Y-9767938D01*
X13348138Y-9767938D01*
X13915500Y-9674900D02*
X14024500Y-9783900D01*
X14024500Y-9674900D02*
X13915500Y-9783900D01*
X14008538Y-9767938D02*
X14008538Y-9690862D01*
X13931462Y-9690862D01*
X13931462Y-9767938D01*
X14008538Y-9767938D01*
X14169500Y-9674900D02*
X14278500Y-9783900D01*
X14278500Y-9674900D02*
X14169500Y-9783900D01*
X14262538Y-9767938D02*
X14262538Y-9690862D01*
X14185462Y-9690862D01*
X14185462Y-9767938D01*
X14262538Y-9767938D01*
X14423500Y-9674900D02*
X14532500Y-9783900D01*
X14532500Y-9674900D02*
X14423500Y-9783900D01*
X14516538Y-9767938D02*
X14516538Y-9690862D01*
X14439462Y-9690862D01*
X14439462Y-9767938D01*
X14516538Y-9767938D01*
X14677500Y-9674900D02*
X14786500Y-9783900D01*
X14786500Y-9674900D02*
X14677500Y-9783900D01*
X14770538Y-9767938D02*
X14770538Y-9690862D01*
X14693462Y-9690862D01*
X14693462Y-9767938D01*
X14770538Y-9767938D01*
X14931500Y-9674900D02*
X15040500Y-9783900D01*
X15040500Y-9674900D02*
X14931500Y-9783900D01*
X15024538Y-9767938D02*
X15024538Y-9690862D01*
X14947462Y-9690862D01*
X14947462Y-9767938D01*
X15024538Y-9767938D01*
X15185500Y-9674900D02*
X15294500Y-9783900D01*
X15294500Y-9674900D02*
X15185500Y-9783900D01*
X15278538Y-9767938D02*
X15278538Y-9690862D01*
X15201462Y-9690862D01*
X15201462Y-9767938D01*
X15278538Y-9767938D01*
X18004900Y-9674900D02*
X18113900Y-9783900D01*
X18113900Y-9674900D02*
X18004900Y-9783900D01*
X18097938Y-9767938D02*
X18097938Y-9690862D01*
X18020862Y-9690862D01*
X18020862Y-9767938D01*
X18097938Y-9767938D01*
X18258900Y-9674900D02*
X18367900Y-9783900D01*
X18367900Y-9674900D02*
X18258900Y-9783900D01*
X18351938Y-9767938D02*
X18351938Y-9690862D01*
X18274862Y-9690862D01*
X18274862Y-9767938D01*
X18351938Y-9767938D01*
X18512900Y-9674900D02*
X18621900Y-9783900D01*
X18621900Y-9674900D02*
X18512900Y-9783900D01*
X18605938Y-9767938D02*
X18605938Y-9690862D01*
X18528862Y-9690862D01*
X18528862Y-9767938D01*
X18605938Y-9767938D01*
X18766900Y-9674900D02*
X18875900Y-9783900D01*
X18875900Y-9674900D02*
X18766900Y-9783900D01*
X18859938Y-9767938D02*
X18859938Y-9690862D01*
X18782862Y-9690862D01*
X18782862Y-9767938D01*
X18859938Y-9767938D01*
X19020900Y-9674900D02*
X19129900Y-9783900D01*
X19129900Y-9674900D02*
X19020900Y-9783900D01*
X19113938Y-9767938D02*
X19113938Y-9690862D01*
X19036862Y-9690862D01*
X19036862Y-9767938D01*
X19113938Y-9767938D01*
X19274900Y-9674900D02*
X19383900Y-9783900D01*
X19383900Y-9674900D02*
X19274900Y-9783900D01*
X19367938Y-9767938D02*
X19367938Y-9690862D01*
X19290862Y-9690862D01*
X19290862Y-9767938D01*
X19367938Y-9767938D01*
D20*
X11451500Y-6214250D02*
X11611500Y-6374250D01*
X11611500Y-6214250D02*
X11451500Y-6374250D01*
X11531500Y-6374250D02*
X11611500Y-6294250D01*
X11531500Y-6214250D01*
X11451500Y-6294250D01*
X11531500Y-6374250D01*
X13026500Y-6214250D02*
X13186500Y-6374250D01*
X13186500Y-6214250D02*
X13026500Y-6374250D01*
X13106500Y-6374250D02*
X13186500Y-6294250D01*
X13106500Y-6214250D01*
X13026500Y-6294250D01*
X13106500Y-6374250D01*
D11*
X13826500Y-6573720D02*
X13826500Y-6773720D01*
X13726500Y-6673720D02*
X13926500Y-6673720D01*
X13926500Y-6673720D02*
G75*
G03*
X13926500Y-6673720I-100000J0D01*
G01*
X13931500Y-6573720D02*
X13721500Y-6573720D01*
X13931500Y-6773720D02*
X13721500Y-6773720D01*
X13721500Y-6573720D02*
G75*
G03*
X13721500Y-6773720I0J-100000D01*
G01*
X13931500Y-6773720D02*
G75*
G03*
X13931500Y-6573720I0J100000D01*
G01*
X14613900Y-6573720D02*
X14613900Y-6773720D01*
X14513900Y-6673720D02*
X14713900Y-6673720D01*
X14713900Y-6673720D02*
G75*
G03*
X14713900Y-6673720I-100000J0D01*
G01*
X14718900Y-6573720D02*
X14508900Y-6573720D01*
X14718900Y-6773720D02*
X14508900Y-6773720D01*
X14508900Y-6573720D02*
G75*
G03*
X14508900Y-6773720I0J-100000D01*
G01*
X14718900Y-6773720D02*
G75*
G03*
X14718900Y-6573720I0J100000D01*
G01*
D21*
X11862406Y-6104156D02*
X11862406Y-5874344D01*
X11632594Y-5874344D01*
X11632594Y-6104156D01*
X11862406Y-6104156D01*
X11910000Y-5989250D02*
G75*
G03*
X11910000Y-5989250I-162500J0D01*
G01*
X13005406Y-6104156D02*
X13005406Y-5874344D01*
X12775594Y-5874344D01*
X12775594Y-6104156D01*
X13005406Y-6104156D01*
X13053000Y-5989250D02*
G75*
G03*
X13053000Y-5989250I-162500J0D01*
G01*
D11*
X11047619Y-10577076D02*
X11047619Y-10377076D01*
X11095238Y-10377076D01*
X11123810Y-10386600D01*
X11142857Y-10405648D01*
X11152381Y-10424695D01*
X11161905Y-10462790D01*
X11161905Y-10491362D01*
X11152381Y-10529457D01*
X11142857Y-10548505D01*
X11123810Y-10567552D01*
X11095238Y-10577076D01*
X11047619Y-10577076D01*
X11247619Y-10577076D02*
X11247619Y-10443743D01*
X11247619Y-10481838D02*
X11257143Y-10462790D01*
X11266667Y-10453267D01*
X11285714Y-10443743D01*
X11304762Y-10443743D01*
X11371428Y-10577076D02*
X11371428Y-10443743D01*
X11371428Y-10377076D02*
X11361905Y-10386600D01*
X11371428Y-10396124D01*
X11380952Y-10386600D01*
X11371428Y-10377076D01*
X11371428Y-10396124D01*
X11495238Y-10577076D02*
X11476190Y-10567552D01*
X11466667Y-10548505D01*
X11466667Y-10377076D01*
X11600000Y-10577076D02*
X11580952Y-10567552D01*
X11571428Y-10548505D01*
X11571428Y-10377076D01*
X11828571Y-10577076D02*
X11828571Y-10377076D01*
X11895238Y-10519933D01*
X11961905Y-10377076D01*
X11961905Y-10577076D01*
X12142857Y-10577076D02*
X12142857Y-10472314D01*
X12133333Y-10453267D01*
X12114286Y-10443743D01*
X12076190Y-10443743D01*
X12057143Y-10453267D01*
X12142857Y-10567552D02*
X12123809Y-10577076D01*
X12076190Y-10577076D01*
X12057143Y-10567552D01*
X12047619Y-10548505D01*
X12047619Y-10529457D01*
X12057143Y-10510410D01*
X12076190Y-10500886D01*
X12123809Y-10500886D01*
X12142857Y-10491362D01*
X12238095Y-10443743D02*
X12238095Y-10643743D01*
X12238095Y-10453267D02*
X12257143Y-10443743D01*
X12295238Y-10443743D01*
X12314286Y-10453267D01*
X12323809Y-10462790D01*
X12333333Y-10481838D01*
X12333333Y-10538981D01*
X12323809Y-10558029D01*
X12314286Y-10567552D01*
X12295238Y-10577076D01*
X12257143Y-10577076D01*
X12238095Y-10567552D01*
X12419048Y-10558029D02*
X12428571Y-10567552D01*
X12419048Y-10577076D01*
X12409524Y-10567552D01*
X12419048Y-10558029D01*
X12419048Y-10577076D01*
X12419048Y-10453267D02*
X12428571Y-10462790D01*
X12419048Y-10472314D01*
X12409524Y-10462790D01*
X12419048Y-10453267D01*
X12419048Y-10472314D01*
D12*
X10750000Y-10886600D02*
X10790000Y-10926600D01*
X10790000Y-10886600D02*
X10750000Y-10926600D01*
D11*
X11085714Y-10797076D02*
X11104762Y-10797076D01*
X11123810Y-10806600D01*
X11133333Y-10816124D01*
X11142857Y-10835171D01*
X11152381Y-10873267D01*
X11152381Y-10920886D01*
X11142857Y-10958981D01*
X11133333Y-10978029D01*
X11123810Y-10987552D01*
X11104762Y-10997076D01*
X11085714Y-10997076D01*
X11066667Y-10987552D01*
X11057143Y-10978029D01*
X11047619Y-10958981D01*
X11038095Y-10920886D01*
X11038095Y-10873267D01*
X11047619Y-10835171D01*
X11057143Y-10816124D01*
X11066667Y-10806600D01*
X11085714Y-10797076D01*
X11238095Y-10978029D02*
X11247619Y-10987552D01*
X11238095Y-10997076D01*
X11228571Y-10987552D01*
X11238095Y-10978029D01*
X11238095Y-10997076D01*
X11419048Y-10863743D02*
X11419048Y-10997076D01*
X11371428Y-10787552D02*
X11323809Y-10930410D01*
X11447619Y-10930410D01*
X11561905Y-10797076D02*
X11580952Y-10797076D01*
X11600000Y-10806600D01*
X11609524Y-10816124D01*
X11619048Y-10835171D01*
X11628571Y-10873267D01*
X11628571Y-10920886D01*
X11619048Y-10958981D01*
X11609524Y-10978029D01*
X11600000Y-10987552D01*
X11580952Y-10997076D01*
X11561905Y-10997076D01*
X11542857Y-10987552D01*
X11533333Y-10978029D01*
X11523809Y-10958981D01*
X11514286Y-10920886D01*
X11514286Y-10873267D01*
X11523809Y-10835171D01*
X11533333Y-10816124D01*
X11542857Y-10806600D01*
X11561905Y-10797076D01*
X11752381Y-10797076D02*
X11771428Y-10797076D01*
X11790476Y-10806600D01*
X11800000Y-10816124D01*
X11809524Y-10835171D01*
X11819048Y-10873267D01*
X11819048Y-10920886D01*
X11809524Y-10958981D01*
X11800000Y-10978029D01*
X11790476Y-10987552D01*
X11771428Y-10997076D01*
X11752381Y-10997076D01*
X11733333Y-10987552D01*
X11723809Y-10978029D01*
X11714286Y-10958981D01*
X11704762Y-10920886D01*
X11704762Y-10873267D01*
X11714286Y-10835171D01*
X11723809Y-10816124D01*
X11733333Y-10806600D01*
X11752381Y-10797076D01*
X11904762Y-10997076D02*
X11904762Y-10863743D01*
X11904762Y-10882790D02*
X11914286Y-10873267D01*
X11933333Y-10863743D01*
X11961905Y-10863743D01*
X11980952Y-10873267D01*
X11990476Y-10892314D01*
X11990476Y-10997076D01*
X11990476Y-10892314D02*
X12000000Y-10873267D01*
X12019048Y-10863743D01*
X12047619Y-10863743D01*
X12066667Y-10873267D01*
X12076190Y-10892314D01*
X12076190Y-10997076D01*
X12171428Y-10997076D02*
X12171428Y-10863743D01*
X12171428Y-10882790D02*
X12180952Y-10873267D01*
X12200000Y-10863743D01*
X12228571Y-10863743D01*
X12247619Y-10873267D01*
X12257143Y-10892314D01*
X12257143Y-10997076D01*
X12257143Y-10892314D02*
X12266667Y-10873267D01*
X12285714Y-10863743D01*
X12314286Y-10863743D01*
X12333333Y-10873267D01*
X12342857Y-10892314D01*
X12342857Y-10997076D01*
X12733333Y-10787552D02*
X12561905Y-11044695D01*
X12990476Y-10797076D02*
X13009524Y-10797076D01*
X13028571Y-10806600D01*
X13038095Y-10816124D01*
X13047619Y-10835171D01*
X13057143Y-10873267D01*
X13057143Y-10920886D01*
X13047619Y-10958981D01*
X13038095Y-10978029D01*
X13028571Y-10987552D01*
X13009524Y-10997076D01*
X12990476Y-10997076D01*
X12971428Y-10987552D01*
X12961905Y-10978029D01*
X12952381Y-10958981D01*
X12942857Y-10920886D01*
X12942857Y-10873267D01*
X12952381Y-10835171D01*
X12961905Y-10816124D01*
X12971428Y-10806600D01*
X12990476Y-10797076D01*
X13142857Y-10978029D02*
X13152381Y-10987552D01*
X13142857Y-10997076D01*
X13133333Y-10987552D01*
X13142857Y-10978029D01*
X13142857Y-10997076D01*
X13276190Y-10797076D02*
X13295238Y-10797076D01*
X13314286Y-10806600D01*
X13323809Y-10816124D01*
X13333333Y-10835171D01*
X13342857Y-10873267D01*
X13342857Y-10920886D01*
X13333333Y-10958981D01*
X13323809Y-10978029D01*
X13314286Y-10987552D01*
X13295238Y-10997076D01*
X13276190Y-10997076D01*
X13257143Y-10987552D01*
X13247619Y-10978029D01*
X13238095Y-10958981D01*
X13228571Y-10920886D01*
X13228571Y-10873267D01*
X13238095Y-10835171D01*
X13247619Y-10816124D01*
X13257143Y-10806600D01*
X13276190Y-10797076D01*
X13533333Y-10997076D02*
X13419048Y-10997076D01*
X13476190Y-10997076D02*
X13476190Y-10797076D01*
X13457143Y-10825648D01*
X13438095Y-10844695D01*
X13419048Y-10854219D01*
X13714286Y-10797076D02*
X13619048Y-10797076D01*
X13609524Y-10892314D01*
X13619048Y-10882790D01*
X13638095Y-10873267D01*
X13685714Y-10873267D01*
X13704762Y-10882790D01*
X13714286Y-10892314D01*
X13723809Y-10911362D01*
X13723809Y-10958981D01*
X13714286Y-10978029D01*
X13704762Y-10987552D01*
X13685714Y-10997076D01*
X13638095Y-10997076D01*
X13619048Y-10987552D01*
X13609524Y-10978029D01*
X13790476Y-10797076D02*
X13923809Y-10797076D01*
X13838095Y-10997076D01*
X13990476Y-10797076D02*
X13990476Y-10835171D01*
X14066667Y-10797076D02*
X14066667Y-10835171D01*
X14361905Y-11073267D02*
X14352381Y-11063743D01*
X14333333Y-11035171D01*
X14323809Y-11016124D01*
X14314286Y-10987552D01*
X14304762Y-10939933D01*
X14304762Y-10901838D01*
X14314286Y-10854219D01*
X14323809Y-10825648D01*
X14333333Y-10806600D01*
X14352381Y-10778029D01*
X14361905Y-10768505D01*
X14523809Y-10863743D02*
X14523809Y-10997076D01*
X14476190Y-10787552D02*
X14428571Y-10930410D01*
X14552381Y-10930410D01*
X14657143Y-10882790D02*
X14638095Y-10873267D01*
X14628571Y-10863743D01*
X14619048Y-10844695D01*
X14619048Y-10835171D01*
X14628571Y-10816124D01*
X14638095Y-10806600D01*
X14657143Y-10797076D01*
X14695238Y-10797076D01*
X14714286Y-10806600D01*
X14723809Y-10816124D01*
X14733333Y-10835171D01*
X14733333Y-10844695D01*
X14723809Y-10863743D01*
X14714286Y-10873267D01*
X14695238Y-10882790D01*
X14657143Y-10882790D01*
X14638095Y-10892314D01*
X14628571Y-10901838D01*
X14619048Y-10920886D01*
X14619048Y-10958981D01*
X14628571Y-10978029D01*
X14638095Y-10987552D01*
X14657143Y-10997076D01*
X14695238Y-10997076D01*
X14714286Y-10987552D01*
X14723809Y-10978029D01*
X14733333Y-10958981D01*
X14733333Y-10920886D01*
X14723809Y-10901838D01*
X14714286Y-10892314D01*
X14695238Y-10882790D01*
X14971428Y-10997076D02*
X14971428Y-10797076D01*
X15057143Y-10997076D02*
X15057143Y-10892314D01*
X15047619Y-10873267D01*
X15028571Y-10863743D01*
X15000000Y-10863743D01*
X14980952Y-10873267D01*
X14971428Y-10882790D01*
X15180952Y-10997076D02*
X15161905Y-10987552D01*
X15152381Y-10978029D01*
X15142857Y-10958981D01*
X15142857Y-10901838D01*
X15152381Y-10882790D01*
X15161905Y-10873267D01*
X15180952Y-10863743D01*
X15209524Y-10863743D01*
X15228571Y-10873267D01*
X15238095Y-10882790D01*
X15247619Y-10901838D01*
X15247619Y-10958981D01*
X15238095Y-10978029D01*
X15228571Y-10987552D01*
X15209524Y-10997076D01*
X15180952Y-10997076D01*
X15361905Y-10997076D02*
X15342857Y-10987552D01*
X15333333Y-10968505D01*
X15333333Y-10797076D01*
X15514286Y-10987552D02*
X15495238Y-10997076D01*
X15457143Y-10997076D01*
X15438095Y-10987552D01*
X15428571Y-10968505D01*
X15428571Y-10892314D01*
X15438095Y-10873267D01*
X15457143Y-10863743D01*
X15495238Y-10863743D01*
X15514286Y-10873267D01*
X15523809Y-10892314D01*
X15523809Y-10911362D01*
X15428571Y-10930410D01*
X15600000Y-10987552D02*
X15619048Y-10997076D01*
X15657143Y-10997076D01*
X15676190Y-10987552D01*
X15685714Y-10968505D01*
X15685714Y-10958981D01*
X15676190Y-10939933D01*
X15657143Y-10930410D01*
X15628571Y-10930410D01*
X15609524Y-10920886D01*
X15600000Y-10901838D01*
X15600000Y-10892314D01*
X15609524Y-10873267D01*
X15628571Y-10863743D01*
X15657143Y-10863743D01*
X15676190Y-10873267D01*
X15752381Y-11073267D02*
X15761905Y-11063743D01*
X15780952Y-11035171D01*
X15790476Y-11016124D01*
X15800000Y-10987552D01*
X15809524Y-10939933D01*
X15809524Y-10901838D01*
X15800000Y-10854219D01*
X15790476Y-10825648D01*
X15780952Y-10806600D01*
X15761905Y-10778029D01*
X15752381Y-10768505D01*
D13*
X10790000Y-11170600D02*
G75*
G03*
X10790000Y-11170600I-35000J0D01*
G01*
D11*
X11085714Y-11061076D02*
X11104762Y-11061076D01*
X11123810Y-11070600D01*
X11133333Y-11080124D01*
X11142857Y-11099171D01*
X11152381Y-11137267D01*
X11152381Y-11184886D01*
X11142857Y-11222981D01*
X11133333Y-11242028D01*
X11123810Y-11251552D01*
X11104762Y-11261076D01*
X11085714Y-11261076D01*
X11066667Y-11251552D01*
X11057143Y-11242028D01*
X11047619Y-11222981D01*
X11038095Y-11184886D01*
X11038095Y-11137267D01*
X11047619Y-11099171D01*
X11057143Y-11080124D01*
X11066667Y-11070600D01*
X11085714Y-11061076D01*
X11238095Y-11242028D02*
X11247619Y-11251552D01*
X11238095Y-11261076D01*
X11228571Y-11251552D01*
X11238095Y-11242028D01*
X11238095Y-11261076D01*
X11314286Y-11061076D02*
X11447619Y-11061076D01*
X11361905Y-11261076D01*
X11561905Y-11061076D02*
X11580952Y-11061076D01*
X11600000Y-11070600D01*
X11609524Y-11080124D01*
X11619048Y-11099171D01*
X11628571Y-11137267D01*
X11628571Y-11184886D01*
X11619048Y-11222981D01*
X11609524Y-11242028D01*
X11600000Y-11251552D01*
X11580952Y-11261076D01*
X11561905Y-11261076D01*
X11542857Y-11251552D01*
X11533333Y-11242028D01*
X11523809Y-11222981D01*
X11514286Y-11184886D01*
X11514286Y-11137267D01*
X11523809Y-11099171D01*
X11533333Y-11080124D01*
X11542857Y-11070600D01*
X11561905Y-11061076D01*
X11752381Y-11061076D02*
X11771428Y-11061076D01*
X11790476Y-11070600D01*
X11800000Y-11080124D01*
X11809524Y-11099171D01*
X11819048Y-11137267D01*
X11819048Y-11184886D01*
X11809524Y-11222981D01*
X11800000Y-11242028D01*
X11790476Y-11251552D01*
X11771428Y-11261076D01*
X11752381Y-11261076D01*
X11733333Y-11251552D01*
X11723809Y-11242028D01*
X11714286Y-11222981D01*
X11704762Y-11184886D01*
X11704762Y-11137267D01*
X11714286Y-11099171D01*
X11723809Y-11080124D01*
X11733333Y-11070600D01*
X11752381Y-11061076D01*
X11904762Y-11261076D02*
X11904762Y-11127743D01*
X11904762Y-11146790D02*
X11914286Y-11137267D01*
X11933333Y-11127743D01*
X11961905Y-11127743D01*
X11980952Y-11137267D01*
X11990476Y-11156314D01*
X11990476Y-11261076D01*
X11990476Y-11156314D02*
X12000000Y-11137267D01*
X12019048Y-11127743D01*
X12047619Y-11127743D01*
X12066667Y-11137267D01*
X12076190Y-11156314D01*
X12076190Y-11261076D01*
X12171428Y-11261076D02*
X12171428Y-11127743D01*
X12171428Y-11146790D02*
X12180952Y-11137267D01*
X12200000Y-11127743D01*
X12228571Y-11127743D01*
X12247619Y-11137267D01*
X12257143Y-11156314D01*
X12257143Y-11261076D01*
X12257143Y-11156314D02*
X12266667Y-11137267D01*
X12285714Y-11127743D01*
X12314286Y-11127743D01*
X12333333Y-11137267D01*
X12342857Y-11156314D01*
X12342857Y-11261076D01*
X12733333Y-11051552D02*
X12561905Y-11308695D01*
X12990476Y-11061076D02*
X13009524Y-11061076D01*
X13028571Y-11070600D01*
X13038095Y-11080124D01*
X13047619Y-11099171D01*
X13057143Y-11137267D01*
X13057143Y-11184886D01*
X13047619Y-11222981D01*
X13038095Y-11242028D01*
X13028571Y-11251552D01*
X13009524Y-11261076D01*
X12990476Y-11261076D01*
X12971428Y-11251552D01*
X12961905Y-11242028D01*
X12952381Y-11222981D01*
X12942857Y-11184886D01*
X12942857Y-11137267D01*
X12952381Y-11099171D01*
X12961905Y-11080124D01*
X12971428Y-11070600D01*
X12990476Y-11061076D01*
X13142857Y-11242028D02*
X13152381Y-11251552D01*
X13142857Y-11261076D01*
X13133333Y-11251552D01*
X13142857Y-11242028D01*
X13142857Y-11261076D01*
X13276190Y-11061076D02*
X13295238Y-11061076D01*
X13314286Y-11070600D01*
X13323809Y-11080124D01*
X13333333Y-11099171D01*
X13342857Y-11137267D01*
X13342857Y-11184886D01*
X13333333Y-11222981D01*
X13323809Y-11242028D01*
X13314286Y-11251552D01*
X13295238Y-11261076D01*
X13276190Y-11261076D01*
X13257143Y-11251552D01*
X13247619Y-11242028D01*
X13238095Y-11222981D01*
X13228571Y-11184886D01*
X13228571Y-11137267D01*
X13238095Y-11099171D01*
X13247619Y-11080124D01*
X13257143Y-11070600D01*
X13276190Y-11061076D01*
X13419048Y-11080124D02*
X13428571Y-11070600D01*
X13447619Y-11061076D01*
X13495238Y-11061076D01*
X13514286Y-11070600D01*
X13523809Y-11080124D01*
X13533333Y-11099171D01*
X13533333Y-11118219D01*
X13523809Y-11146790D01*
X13409524Y-11261076D01*
X13533333Y-11261076D01*
X13600000Y-11061076D02*
X13733333Y-11061076D01*
X13647619Y-11261076D01*
X13895238Y-11061076D02*
X13857143Y-11061076D01*
X13838095Y-11070600D01*
X13828571Y-11080124D01*
X13809524Y-11108695D01*
X13800000Y-11146790D01*
X13800000Y-11222981D01*
X13809524Y-11242028D01*
X13819048Y-11251552D01*
X13838095Y-11261076D01*
X13876190Y-11261076D01*
X13895238Y-11251552D01*
X13904762Y-11242028D01*
X13914286Y-11222981D01*
X13914286Y-11175362D01*
X13904762Y-11156314D01*
X13895238Y-11146790D01*
X13876190Y-11137267D01*
X13838095Y-11137267D01*
X13819048Y-11146790D01*
X13809524Y-11156314D01*
X13800000Y-11175362D01*
X13990476Y-11061076D02*
X13990476Y-11099171D01*
X14066667Y-11061076D02*
X14066667Y-11099171D01*
X14361905Y-11337267D02*
X14352381Y-11327743D01*
X14333333Y-11299171D01*
X14323809Y-11280124D01*
X14314286Y-11251552D01*
X14304762Y-11203933D01*
X14304762Y-11165838D01*
X14314286Y-11118219D01*
X14323809Y-11089648D01*
X14333333Y-11070600D01*
X14352381Y-11042029D01*
X14361905Y-11032505D01*
X14523809Y-11061076D02*
X14485714Y-11061076D01*
X14466667Y-11070600D01*
X14457143Y-11080124D01*
X14438095Y-11108695D01*
X14428571Y-11146790D01*
X14428571Y-11222981D01*
X14438095Y-11242028D01*
X14447619Y-11251552D01*
X14466667Y-11261076D01*
X14504762Y-11261076D01*
X14523809Y-11251552D01*
X14533333Y-11242028D01*
X14542857Y-11222981D01*
X14542857Y-11175362D01*
X14533333Y-11156314D01*
X14523809Y-11146790D01*
X14504762Y-11137267D01*
X14466667Y-11137267D01*
X14447619Y-11146790D01*
X14438095Y-11156314D01*
X14428571Y-11175362D01*
X14780952Y-11261076D02*
X14780952Y-11061076D01*
X14866667Y-11261076D02*
X14866667Y-11156314D01*
X14857143Y-11137267D01*
X14838095Y-11127743D01*
X14809524Y-11127743D01*
X14790476Y-11137267D01*
X14780952Y-11146790D01*
X14990476Y-11261076D02*
X14971428Y-11251552D01*
X14961905Y-11242028D01*
X14952381Y-11222981D01*
X14952381Y-11165838D01*
X14961905Y-11146790D01*
X14971428Y-11137267D01*
X14990476Y-11127743D01*
X15019048Y-11127743D01*
X15038095Y-11137267D01*
X15047619Y-11146790D01*
X15057143Y-11165838D01*
X15057143Y-11222981D01*
X15047619Y-11242028D01*
X15038095Y-11251552D01*
X15019048Y-11261076D01*
X14990476Y-11261076D01*
X15171428Y-11261076D02*
X15152381Y-11251552D01*
X15142857Y-11232505D01*
X15142857Y-11061076D01*
X15323809Y-11251552D02*
X15304762Y-11261076D01*
X15266667Y-11261076D01*
X15247619Y-11251552D01*
X15238095Y-11232505D01*
X15238095Y-11156314D01*
X15247619Y-11137267D01*
X15266667Y-11127743D01*
X15304762Y-11127743D01*
X15323809Y-11137267D01*
X15333333Y-11156314D01*
X15333333Y-11175362D01*
X15238095Y-11194409D01*
X15409524Y-11251552D02*
X15428571Y-11261076D01*
X15466667Y-11261076D01*
X15485714Y-11251552D01*
X15495238Y-11232505D01*
X15495238Y-11222981D01*
X15485714Y-11203933D01*
X15466667Y-11194409D01*
X15438095Y-11194409D01*
X15419048Y-11184886D01*
X15409524Y-11165838D01*
X15409524Y-11156314D01*
X15419048Y-11137267D01*
X15438095Y-11127743D01*
X15466667Y-11127743D01*
X15485714Y-11137267D01*
X15561905Y-11337267D02*
X15571428Y-11327743D01*
X15590476Y-11299171D01*
X15600000Y-11280124D01*
X15609524Y-11251552D01*
X15619048Y-11203933D01*
X15619048Y-11165838D01*
X15609524Y-11118219D01*
X15600000Y-11089648D01*
X15590476Y-11070600D01*
X15571428Y-11042029D01*
X15561905Y-11032505D01*
D14*
X10752500Y-11397100D02*
X10752500Y-11472100D01*
X10715000Y-11434600D02*
X10790000Y-11434600D01*
D11*
X11085714Y-11325076D02*
X11104762Y-11325076D01*
X11123810Y-11334600D01*
X11133333Y-11344124D01*
X11142857Y-11363171D01*
X11152381Y-11401267D01*
X11152381Y-11448886D01*
X11142857Y-11486981D01*
X11133333Y-11506028D01*
X11123810Y-11515552D01*
X11104762Y-11525076D01*
X11085714Y-11525076D01*
X11066667Y-11515552D01*
X11057143Y-11506028D01*
X11047619Y-11486981D01*
X11038095Y-11448886D01*
X11038095Y-11401267D01*
X11047619Y-11363171D01*
X11057143Y-11344124D01*
X11066667Y-11334600D01*
X11085714Y-11325076D01*
X11238095Y-11506028D02*
X11247619Y-11515552D01*
X11238095Y-11525076D01*
X11228571Y-11515552D01*
X11238095Y-11506028D01*
X11238095Y-11525076D01*
X11314286Y-11325076D02*
X11447619Y-11325076D01*
X11361905Y-11525076D01*
X11619048Y-11325076D02*
X11523809Y-11325076D01*
X11514286Y-11420314D01*
X11523809Y-11410790D01*
X11542857Y-11401267D01*
X11590476Y-11401267D01*
X11609524Y-11410790D01*
X11619048Y-11420314D01*
X11628571Y-11439362D01*
X11628571Y-11486981D01*
X11619048Y-11506028D01*
X11609524Y-11515552D01*
X11590476Y-11525076D01*
X11542857Y-11525076D01*
X11523809Y-11515552D01*
X11514286Y-11506028D01*
X11752381Y-11325076D02*
X11771428Y-11325076D01*
X11790476Y-11334600D01*
X11800000Y-11344124D01*
X11809524Y-11363171D01*
X11819048Y-11401267D01*
X11819048Y-11448886D01*
X11809524Y-11486981D01*
X11800000Y-11506028D01*
X11790476Y-11515552D01*
X11771428Y-11525076D01*
X11752381Y-11525076D01*
X11733333Y-11515552D01*
X11723809Y-11506028D01*
X11714286Y-11486981D01*
X11704762Y-11448886D01*
X11704762Y-11401267D01*
X11714286Y-11363171D01*
X11723809Y-11344124D01*
X11733333Y-11334600D01*
X11752381Y-11325076D01*
X11904762Y-11525076D02*
X11904762Y-11391743D01*
X11904762Y-11410790D02*
X11914286Y-11401267D01*
X11933333Y-11391743D01*
X11961905Y-11391743D01*
X11980952Y-11401267D01*
X11990476Y-11420314D01*
X11990476Y-11525076D01*
X11990476Y-11420314D02*
X12000000Y-11401267D01*
X12019048Y-11391743D01*
X12047619Y-11391743D01*
X12066667Y-11401267D01*
X12076190Y-11420314D01*
X12076190Y-11525076D01*
X12171428Y-11525076D02*
X12171428Y-11391743D01*
X12171428Y-11410790D02*
X12180952Y-11401267D01*
X12200000Y-11391743D01*
X12228571Y-11391743D01*
X12247619Y-11401267D01*
X12257143Y-11420314D01*
X12257143Y-11525076D01*
X12257143Y-11420314D02*
X12266667Y-11401267D01*
X12285714Y-11391743D01*
X12314286Y-11391743D01*
X12333333Y-11401267D01*
X12342857Y-11420314D01*
X12342857Y-11525076D01*
X12733333Y-11315552D02*
X12561905Y-11572695D01*
X12990476Y-11325076D02*
X13009524Y-11325076D01*
X13028571Y-11334600D01*
X13038095Y-11344124D01*
X13047619Y-11363171D01*
X13057143Y-11401267D01*
X13057143Y-11448886D01*
X13047619Y-11486981D01*
X13038095Y-11506028D01*
X13028571Y-11515552D01*
X13009524Y-11525076D01*
X12990476Y-11525076D01*
X12971428Y-11515552D01*
X12961905Y-11506028D01*
X12952381Y-11486981D01*
X12942857Y-11448886D01*
X12942857Y-11401267D01*
X12952381Y-11363171D01*
X12961905Y-11344124D01*
X12971428Y-11334600D01*
X12990476Y-11325076D01*
X13142857Y-11506028D02*
X13152381Y-11515552D01*
X13142857Y-11525076D01*
X13133333Y-11515552D01*
X13142857Y-11506028D01*
X13142857Y-11525076D01*
X13276190Y-11325076D02*
X13295238Y-11325076D01*
X13314286Y-11334600D01*
X13323809Y-11344124D01*
X13333333Y-11363171D01*
X13342857Y-11401267D01*
X13342857Y-11448886D01*
X13333333Y-11486981D01*
X13323809Y-11506028D01*
X13314286Y-11515552D01*
X13295238Y-11525076D01*
X13276190Y-11525076D01*
X13257143Y-11515552D01*
X13247619Y-11506028D01*
X13238095Y-11486981D01*
X13228571Y-11448886D01*
X13228571Y-11401267D01*
X13238095Y-11363171D01*
X13247619Y-11344124D01*
X13257143Y-11334600D01*
X13276190Y-11325076D01*
X13419048Y-11344124D02*
X13428571Y-11334600D01*
X13447619Y-11325076D01*
X13495238Y-11325076D01*
X13514286Y-11334600D01*
X13523809Y-11344124D01*
X13533333Y-11363171D01*
X13533333Y-11382219D01*
X13523809Y-11410790D01*
X13409524Y-11525076D01*
X13533333Y-11525076D01*
X13628571Y-11525076D02*
X13666667Y-11525076D01*
X13685714Y-11515552D01*
X13695238Y-11506028D01*
X13714286Y-11477457D01*
X13723809Y-11439362D01*
X13723809Y-11363171D01*
X13714286Y-11344124D01*
X13704762Y-11334600D01*
X13685714Y-11325076D01*
X13647619Y-11325076D01*
X13628571Y-11334600D01*
X13619048Y-11344124D01*
X13609524Y-11363171D01*
X13609524Y-11410790D01*
X13619048Y-11429838D01*
X13628571Y-11439362D01*
X13647619Y-11448886D01*
X13685714Y-11448886D01*
X13704762Y-11439362D01*
X13714286Y-11429838D01*
X13723809Y-11410790D01*
X13904762Y-11325076D02*
X13809524Y-11325076D01*
X13800000Y-11420314D01*
X13809524Y-11410790D01*
X13828571Y-11401267D01*
X13876190Y-11401267D01*
X13895238Y-11410790D01*
X13904762Y-11420314D01*
X13914286Y-11439362D01*
X13914286Y-11486981D01*
X13904762Y-11506028D01*
X13895238Y-11515552D01*
X13876190Y-11525076D01*
X13828571Y-11525076D01*
X13809524Y-11515552D01*
X13800000Y-11506028D01*
X13990476Y-11325076D02*
X13990476Y-11363171D01*
X14066667Y-11325076D02*
X14066667Y-11363171D01*
X14361905Y-11601267D02*
X14352381Y-11591743D01*
X14333333Y-11563171D01*
X14323809Y-11544124D01*
X14314286Y-11515552D01*
X14304762Y-11467933D01*
X14304762Y-11429838D01*
X14314286Y-11382219D01*
X14323809Y-11353648D01*
X14333333Y-11334600D01*
X14352381Y-11306028D01*
X14361905Y-11296505D01*
X14533333Y-11325076D02*
X14438095Y-11325076D01*
X14428571Y-11420314D01*
X14438095Y-11410790D01*
X14457143Y-11401267D01*
X14504762Y-11401267D01*
X14523809Y-11410790D01*
X14533333Y-11420314D01*
X14542857Y-11439362D01*
X14542857Y-11486981D01*
X14533333Y-11506028D01*
X14523809Y-11515552D01*
X14504762Y-11525076D01*
X14457143Y-11525076D01*
X14438095Y-11515552D01*
X14428571Y-11506028D01*
X14780952Y-11525076D02*
X14780952Y-11325076D01*
X14866667Y-11525076D02*
X14866667Y-11420314D01*
X14857143Y-11401267D01*
X14838095Y-11391743D01*
X14809524Y-11391743D01*
X14790476Y-11401267D01*
X14780952Y-11410790D01*
X14990476Y-11525076D02*
X14971428Y-11515552D01*
X14961905Y-11506028D01*
X14952381Y-11486981D01*
X14952381Y-11429838D01*
X14961905Y-11410790D01*
X14971428Y-11401267D01*
X14990476Y-11391743D01*
X15019048Y-11391743D01*
X15038095Y-11401267D01*
X15047619Y-11410790D01*
X15057143Y-11429838D01*
X15057143Y-11486981D01*
X15047619Y-11506028D01*
X15038095Y-11515552D01*
X15019048Y-11525076D01*
X14990476Y-11525076D01*
X15171428Y-11525076D02*
X15152381Y-11515552D01*
X15142857Y-11496505D01*
X15142857Y-11325076D01*
X15323809Y-11515552D02*
X15304762Y-11525076D01*
X15266667Y-11525076D01*
X15247619Y-11515552D01*
X15238095Y-11496505D01*
X15238095Y-11420314D01*
X15247619Y-11401267D01*
X15266667Y-11391743D01*
X15304762Y-11391743D01*
X15323809Y-11401267D01*
X15333333Y-11420314D01*
X15333333Y-11439362D01*
X15238095Y-11458409D01*
X15409524Y-11515552D02*
X15428571Y-11525076D01*
X15466667Y-11525076D01*
X15485714Y-11515552D01*
X15495238Y-11496505D01*
X15495238Y-11486981D01*
X15485714Y-11467933D01*
X15466667Y-11458409D01*
X15438095Y-11458409D01*
X15419048Y-11448886D01*
X15409524Y-11429838D01*
X15409524Y-11420314D01*
X15419048Y-11401267D01*
X15438095Y-11391743D01*
X15466667Y-11391743D01*
X15485714Y-11401267D01*
X15561905Y-11601267D02*
X15571428Y-11591743D01*
X15590476Y-11563171D01*
X15600000Y-11544124D01*
X15609524Y-11515552D01*
X15619048Y-11467933D01*
X15619048Y-11429838D01*
X15609524Y-11382219D01*
X15600000Y-11353648D01*
X15590476Y-11334600D01*
X15571428Y-11306028D01*
X15561905Y-11296505D01*
D15*
X10778285Y-11726884D02*
X10778285Y-11670315D01*
X10721716Y-11670315D01*
X10721716Y-11726884D01*
X10778285Y-11726884D01*
D11*
X11085714Y-11589076D02*
X11104762Y-11589076D01*
X11123810Y-11598600D01*
X11133333Y-11608124D01*
X11142857Y-11627171D01*
X11152381Y-11665267D01*
X11152381Y-11712886D01*
X11142857Y-11750981D01*
X11133333Y-11770028D01*
X11123810Y-11779552D01*
X11104762Y-11789076D01*
X11085714Y-11789076D01*
X11066667Y-11779552D01*
X11057143Y-11770028D01*
X11047619Y-11750981D01*
X11038095Y-11712886D01*
X11038095Y-11665267D01*
X11047619Y-11627171D01*
X11057143Y-11608124D01*
X11066667Y-11598600D01*
X11085714Y-11589076D01*
X11238095Y-11770028D02*
X11247619Y-11779552D01*
X11238095Y-11789076D01*
X11228571Y-11779552D01*
X11238095Y-11770028D01*
X11238095Y-11789076D01*
X11361905Y-11674790D02*
X11342857Y-11665267D01*
X11333333Y-11655743D01*
X11323809Y-11636695D01*
X11323809Y-11627171D01*
X11333333Y-11608124D01*
X11342857Y-11598600D01*
X11361905Y-11589076D01*
X11400000Y-11589076D01*
X11419048Y-11598600D01*
X11428571Y-11608124D01*
X11438095Y-11627171D01*
X11438095Y-11636695D01*
X11428571Y-11655743D01*
X11419048Y-11665267D01*
X11400000Y-11674790D01*
X11361905Y-11674790D01*
X11342857Y-11684314D01*
X11333333Y-11693838D01*
X11323809Y-11712886D01*
X11323809Y-11750981D01*
X11333333Y-11770028D01*
X11342857Y-11779552D01*
X11361905Y-11789076D01*
X11400000Y-11789076D01*
X11419048Y-11779552D01*
X11428571Y-11770028D01*
X11438095Y-11750981D01*
X11438095Y-11712886D01*
X11428571Y-11693838D01*
X11419048Y-11684314D01*
X11400000Y-11674790D01*
X11561905Y-11589076D02*
X11580952Y-11589076D01*
X11600000Y-11598600D01*
X11609524Y-11608124D01*
X11619048Y-11627171D01*
X11628571Y-11665267D01*
X11628571Y-11712886D01*
X11619048Y-11750981D01*
X11609524Y-11770028D01*
X11600000Y-11779552D01*
X11580952Y-11789076D01*
X11561905Y-11789076D01*
X11542857Y-11779552D01*
X11533333Y-11770028D01*
X11523809Y-11750981D01*
X11514286Y-11712886D01*
X11514286Y-11665267D01*
X11523809Y-11627171D01*
X11533333Y-11608124D01*
X11542857Y-11598600D01*
X11561905Y-11589076D01*
X11752381Y-11589076D02*
X11771428Y-11589076D01*
X11790476Y-11598600D01*
X11800000Y-11608124D01*
X11809524Y-11627171D01*
X11819048Y-11665267D01*
X11819048Y-11712886D01*
X11809524Y-11750981D01*
X11800000Y-11770028D01*
X11790476Y-11779552D01*
X11771428Y-11789076D01*
X11752381Y-11789076D01*
X11733333Y-11779552D01*
X11723809Y-11770028D01*
X11714286Y-11750981D01*
X11704762Y-11712886D01*
X11704762Y-11665267D01*
X11714286Y-11627171D01*
X11723809Y-11608124D01*
X11733333Y-11598600D01*
X11752381Y-11589076D01*
X11904762Y-11789076D02*
X11904762Y-11655743D01*
X11904762Y-11674790D02*
X11914286Y-11665267D01*
X11933333Y-11655743D01*
X11961905Y-11655743D01*
X11980952Y-11665267D01*
X11990476Y-11684314D01*
X11990476Y-11789076D01*
X11990476Y-11684314D02*
X12000000Y-11665267D01*
X12019048Y-11655743D01*
X12047619Y-11655743D01*
X12066667Y-11665267D01*
X12076190Y-11684314D01*
X12076190Y-11789076D01*
X12171428Y-11789076D02*
X12171428Y-11655743D01*
X12171428Y-11674790D02*
X12180952Y-11665267D01*
X12200000Y-11655743D01*
X12228571Y-11655743D01*
X12247619Y-11665267D01*
X12257143Y-11684314D01*
X12257143Y-11789076D01*
X12257143Y-11684314D02*
X12266667Y-11665267D01*
X12285714Y-11655743D01*
X12314286Y-11655743D01*
X12333333Y-11665267D01*
X12342857Y-11684314D01*
X12342857Y-11789076D01*
X12733333Y-11579552D02*
X12561905Y-11836695D01*
X12990476Y-11589076D02*
X13009524Y-11589076D01*
X13028571Y-11598600D01*
X13038095Y-11608124D01*
X13047619Y-11627171D01*
X13057143Y-11665267D01*
X13057143Y-11712886D01*
X13047619Y-11750981D01*
X13038095Y-11770028D01*
X13028571Y-11779552D01*
X13009524Y-11789076D01*
X12990476Y-11789076D01*
X12971428Y-11779552D01*
X12961905Y-11770028D01*
X12952381Y-11750981D01*
X12942857Y-11712886D01*
X12942857Y-11665267D01*
X12952381Y-11627171D01*
X12961905Y-11608124D01*
X12971428Y-11598600D01*
X12990476Y-11589076D01*
X13142857Y-11770028D02*
X13152381Y-11779552D01*
X13142857Y-11789076D01*
X13133333Y-11779552D01*
X13142857Y-11770028D01*
X13142857Y-11789076D01*
X13276190Y-11589076D02*
X13295238Y-11589076D01*
X13314286Y-11598600D01*
X13323809Y-11608124D01*
X13333333Y-11627171D01*
X13342857Y-11665267D01*
X13342857Y-11712886D01*
X13333333Y-11750981D01*
X13323809Y-11770028D01*
X13314286Y-11779552D01*
X13295238Y-11789076D01*
X13276190Y-11789076D01*
X13257143Y-11779552D01*
X13247619Y-11770028D01*
X13238095Y-11750981D01*
X13228571Y-11712886D01*
X13228571Y-11665267D01*
X13238095Y-11627171D01*
X13247619Y-11608124D01*
X13257143Y-11598600D01*
X13276190Y-11589076D01*
X13409524Y-11589076D02*
X13533333Y-11589076D01*
X13466667Y-11665267D01*
X13495238Y-11665267D01*
X13514286Y-11674790D01*
X13523809Y-11684314D01*
X13533333Y-11703362D01*
X13533333Y-11750981D01*
X13523809Y-11770028D01*
X13514286Y-11779552D01*
X13495238Y-11789076D01*
X13438095Y-11789076D01*
X13419048Y-11779552D01*
X13409524Y-11770028D01*
X13723809Y-11789076D02*
X13609524Y-11789076D01*
X13666667Y-11789076D02*
X13666667Y-11589076D01*
X13647619Y-11617648D01*
X13628571Y-11636695D01*
X13609524Y-11646219D01*
X13904762Y-11589076D02*
X13809524Y-11589076D01*
X13800000Y-11684314D01*
X13809524Y-11674790D01*
X13828571Y-11665267D01*
X13876190Y-11665267D01*
X13895238Y-11674790D01*
X13904762Y-11684314D01*
X13914286Y-11703362D01*
X13914286Y-11750981D01*
X13904762Y-11770028D01*
X13895238Y-11779552D01*
X13876190Y-11789076D01*
X13828571Y-11789076D01*
X13809524Y-11779552D01*
X13800000Y-11770028D01*
X13990476Y-11589076D02*
X13990476Y-11627171D01*
X14066667Y-11589076D02*
X14066667Y-11627171D01*
X14361905Y-11865267D02*
X14352381Y-11855743D01*
X14333333Y-11827171D01*
X14323809Y-11808124D01*
X14314286Y-11779552D01*
X14304762Y-11731933D01*
X14304762Y-11693838D01*
X14314286Y-11646219D01*
X14323809Y-11617648D01*
X14333333Y-11598600D01*
X14352381Y-11570028D01*
X14361905Y-11560505D01*
X14533333Y-11589076D02*
X14438095Y-11589076D01*
X14428571Y-11684314D01*
X14438095Y-11674790D01*
X14457143Y-11665267D01*
X14504762Y-11665267D01*
X14523809Y-11674790D01*
X14533333Y-11684314D01*
X14542857Y-11703362D01*
X14542857Y-11750981D01*
X14533333Y-11770028D01*
X14523809Y-11779552D01*
X14504762Y-11789076D01*
X14457143Y-11789076D01*
X14438095Y-11779552D01*
X14428571Y-11770028D01*
X14714286Y-11655743D02*
X14714286Y-11789076D01*
X14666667Y-11579552D02*
X14619048Y-11722409D01*
X14742857Y-11722409D01*
X14971428Y-11789076D02*
X14971428Y-11589076D01*
X15057143Y-11789076D02*
X15057143Y-11684314D01*
X15047619Y-11665267D01*
X15028571Y-11655743D01*
X15000000Y-11655743D01*
X14980952Y-11665267D01*
X14971428Y-11674790D01*
X15180952Y-11789076D02*
X15161905Y-11779552D01*
X15152381Y-11770028D01*
X15142857Y-11750981D01*
X15142857Y-11693838D01*
X15152381Y-11674790D01*
X15161905Y-11665267D01*
X15180952Y-11655743D01*
X15209524Y-11655743D01*
X15228571Y-11665267D01*
X15238095Y-11674790D01*
X15247619Y-11693838D01*
X15247619Y-11750981D01*
X15238095Y-11770028D01*
X15228571Y-11779552D01*
X15209524Y-11789076D01*
X15180952Y-11789076D01*
X15361905Y-11789076D02*
X15342857Y-11779552D01*
X15333333Y-11760505D01*
X15333333Y-11589076D01*
X15514286Y-11779552D02*
X15495238Y-11789076D01*
X15457143Y-11789076D01*
X15438095Y-11779552D01*
X15428571Y-11760505D01*
X15428571Y-11684314D01*
X15438095Y-11665267D01*
X15457143Y-11655743D01*
X15495238Y-11655743D01*
X15514286Y-11665267D01*
X15523809Y-11684314D01*
X15523809Y-11703362D01*
X15428571Y-11722409D01*
X15600000Y-11779552D02*
X15619048Y-11789076D01*
X15657143Y-11789076D01*
X15676190Y-11779552D01*
X15685714Y-11760505D01*
X15685714Y-11750981D01*
X15676190Y-11731933D01*
X15657143Y-11722409D01*
X15628571Y-11722409D01*
X15609524Y-11712886D01*
X15600000Y-11693838D01*
X15600000Y-11684314D01*
X15609524Y-11665267D01*
X15628571Y-11655743D01*
X15657143Y-11655743D01*
X15676190Y-11665267D01*
X15752381Y-11865267D02*
X15761905Y-11855743D01*
X15780952Y-11827171D01*
X15790476Y-11808124D01*
X15800000Y-11779552D01*
X15809524Y-11731933D01*
X15809524Y-11693838D01*
X15800000Y-11646219D01*
X15790476Y-11617648D01*
X15780952Y-11598600D01*
X15761905Y-11570028D01*
X15752381Y-11560505D01*
D16*
X10745550Y-12007050D02*
X10790000Y-11962600D01*
X10745550Y-11918150D01*
X10701100Y-11962600D01*
X10745550Y-12007050D01*
D11*
X11085714Y-11853076D02*
X11104762Y-11853076D01*
X11123810Y-11862600D01*
X11133333Y-11872124D01*
X11142857Y-11891171D01*
X11152381Y-11929267D01*
X11152381Y-11976886D01*
X11142857Y-12014981D01*
X11133333Y-12034028D01*
X11123810Y-12043552D01*
X11104762Y-12053076D01*
X11085714Y-12053076D01*
X11066667Y-12043552D01*
X11057143Y-12034028D01*
X11047619Y-12014981D01*
X11038095Y-11976886D01*
X11038095Y-11929267D01*
X11047619Y-11891171D01*
X11057143Y-11872124D01*
X11066667Y-11862600D01*
X11085714Y-11853076D01*
X11238095Y-12034028D02*
X11247619Y-12043552D01*
X11238095Y-12053076D01*
X11228571Y-12043552D01*
X11238095Y-12034028D01*
X11238095Y-12053076D01*
X11361905Y-11938790D02*
X11342857Y-11929267D01*
X11333333Y-11919743D01*
X11323809Y-11900695D01*
X11323809Y-11891171D01*
X11333333Y-11872124D01*
X11342857Y-11862600D01*
X11361905Y-11853076D01*
X11400000Y-11853076D01*
X11419048Y-11862600D01*
X11428571Y-11872124D01*
X11438095Y-11891171D01*
X11438095Y-11900695D01*
X11428571Y-11919743D01*
X11419048Y-11929267D01*
X11400000Y-11938790D01*
X11361905Y-11938790D01*
X11342857Y-11948314D01*
X11333333Y-11957838D01*
X11323809Y-11976886D01*
X11323809Y-12014981D01*
X11333333Y-12034028D01*
X11342857Y-12043552D01*
X11361905Y-12053076D01*
X11400000Y-12053076D01*
X11419048Y-12043552D01*
X11428571Y-12034028D01*
X11438095Y-12014981D01*
X11438095Y-11976886D01*
X11428571Y-11957838D01*
X11419048Y-11948314D01*
X11400000Y-11938790D01*
X11552381Y-11938790D02*
X11533333Y-11929267D01*
X11523809Y-11919743D01*
X11514286Y-11900695D01*
X11514286Y-11891171D01*
X11523809Y-11872124D01*
X11533333Y-11862600D01*
X11552381Y-11853076D01*
X11590476Y-11853076D01*
X11609524Y-11862600D01*
X11619048Y-11872124D01*
X11628571Y-11891171D01*
X11628571Y-11900695D01*
X11619048Y-11919743D01*
X11609524Y-11929267D01*
X11590476Y-11938790D01*
X11552381Y-11938790D01*
X11533333Y-11948314D01*
X11523809Y-11957838D01*
X11514286Y-11976886D01*
X11514286Y-12014981D01*
X11523809Y-12034028D01*
X11533333Y-12043552D01*
X11552381Y-12053076D01*
X11590476Y-12053076D01*
X11609524Y-12043552D01*
X11619048Y-12034028D01*
X11628571Y-12014981D01*
X11628571Y-11976886D01*
X11619048Y-11957838D01*
X11609524Y-11948314D01*
X11590476Y-11938790D01*
X11723809Y-12053076D02*
X11761905Y-12053076D01*
X11780952Y-12043552D01*
X11790476Y-12034028D01*
X11809524Y-12005457D01*
X11819048Y-11967362D01*
X11819048Y-11891171D01*
X11809524Y-11872124D01*
X11800000Y-11862600D01*
X11780952Y-11853076D01*
X11742857Y-11853076D01*
X11723809Y-11862600D01*
X11714286Y-11872124D01*
X11704762Y-11891171D01*
X11704762Y-11938790D01*
X11714286Y-11957838D01*
X11723809Y-11967362D01*
X11742857Y-11976886D01*
X11780952Y-11976886D01*
X11800000Y-11967362D01*
X11809524Y-11957838D01*
X11819048Y-11938790D01*
X11904762Y-12053076D02*
X11904762Y-11919743D01*
X11904762Y-11938790D02*
X11914286Y-11929267D01*
X11933333Y-11919743D01*
X11961905Y-11919743D01*
X11980952Y-11929267D01*
X11990476Y-11948314D01*
X11990476Y-12053076D01*
X11990476Y-11948314D02*
X12000000Y-11929267D01*
X12019048Y-11919743D01*
X12047619Y-11919743D01*
X12066667Y-11929267D01*
X12076190Y-11948314D01*
X12076190Y-12053076D01*
X12171428Y-12053076D02*
X12171428Y-11919743D01*
X12171428Y-11938790D02*
X12180952Y-11929267D01*
X12200000Y-11919743D01*
X12228571Y-11919743D01*
X12247619Y-11929267D01*
X12257143Y-11948314D01*
X12257143Y-12053076D01*
X12257143Y-11948314D02*
X12266667Y-11929267D01*
X12285714Y-11919743D01*
X12314286Y-11919743D01*
X12333333Y-11929267D01*
X12342857Y-11948314D01*
X12342857Y-12053076D01*
X12733333Y-11843552D02*
X12561905Y-12100695D01*
X12990476Y-11853076D02*
X13009524Y-11853076D01*
X13028571Y-11862600D01*
X13038095Y-11872124D01*
X13047619Y-11891171D01*
X13057143Y-11929267D01*
X13057143Y-11976886D01*
X13047619Y-12014981D01*
X13038095Y-12034028D01*
X13028571Y-12043552D01*
X13009524Y-12053076D01*
X12990476Y-12053076D01*
X12971428Y-12043552D01*
X12961905Y-12034028D01*
X12952381Y-12014981D01*
X12942857Y-11976886D01*
X12942857Y-11929267D01*
X12952381Y-11891171D01*
X12961905Y-11872124D01*
X12971428Y-11862600D01*
X12990476Y-11853076D01*
X13142857Y-12034028D02*
X13152381Y-12043552D01*
X13142857Y-12053076D01*
X13133333Y-12043552D01*
X13142857Y-12034028D01*
X13142857Y-12053076D01*
X13276190Y-11853076D02*
X13295238Y-11853076D01*
X13314286Y-11862600D01*
X13323809Y-11872124D01*
X13333333Y-11891171D01*
X13342857Y-11929267D01*
X13342857Y-11976886D01*
X13333333Y-12014981D01*
X13323809Y-12034028D01*
X13314286Y-12043552D01*
X13295238Y-12053076D01*
X13276190Y-12053076D01*
X13257143Y-12043552D01*
X13247619Y-12034028D01*
X13238095Y-12014981D01*
X13228571Y-11976886D01*
X13228571Y-11929267D01*
X13238095Y-11891171D01*
X13247619Y-11872124D01*
X13257143Y-11862600D01*
X13276190Y-11853076D01*
X13409524Y-11853076D02*
X13533333Y-11853076D01*
X13466667Y-11929267D01*
X13495238Y-11929267D01*
X13514286Y-11938790D01*
X13523809Y-11948314D01*
X13533333Y-11967362D01*
X13533333Y-12014981D01*
X13523809Y-12034028D01*
X13514286Y-12043552D01*
X13495238Y-12053076D01*
X13438095Y-12053076D01*
X13419048Y-12043552D01*
X13409524Y-12034028D01*
X13714286Y-11853076D02*
X13619048Y-11853076D01*
X13609524Y-11948314D01*
X13619048Y-11938790D01*
X13638095Y-11929267D01*
X13685714Y-11929267D01*
X13704762Y-11938790D01*
X13714286Y-11948314D01*
X13723809Y-11967362D01*
X13723809Y-12014981D01*
X13714286Y-12034028D01*
X13704762Y-12043552D01*
X13685714Y-12053076D01*
X13638095Y-12053076D01*
X13619048Y-12043552D01*
X13609524Y-12034028D01*
X13847619Y-11853076D02*
X13866667Y-11853076D01*
X13885714Y-11862600D01*
X13895238Y-11872124D01*
X13904762Y-11891171D01*
X13914286Y-11929267D01*
X13914286Y-11976886D01*
X13904762Y-12014981D01*
X13895238Y-12034028D01*
X13885714Y-12043552D01*
X13866667Y-12053076D01*
X13847619Y-12053076D01*
X13828571Y-12043552D01*
X13819048Y-12034028D01*
X13809524Y-12014981D01*
X13800000Y-11976886D01*
X13800000Y-11929267D01*
X13809524Y-11891171D01*
X13819048Y-11872124D01*
X13828571Y-11862600D01*
X13847619Y-11853076D01*
X13990476Y-11853076D02*
X13990476Y-11891171D01*
X14066667Y-11853076D02*
X14066667Y-11891171D01*
X14361905Y-12129267D02*
X14352381Y-12119743D01*
X14333333Y-12091171D01*
X14323809Y-12072124D01*
X14314286Y-12043552D01*
X14304762Y-11995933D01*
X14304762Y-11957838D01*
X14314286Y-11910219D01*
X14323809Y-11881648D01*
X14333333Y-11862600D01*
X14352381Y-11834028D01*
X14361905Y-11824505D01*
X14419048Y-11853076D02*
X14542857Y-11853076D01*
X14476190Y-11929267D01*
X14504762Y-11929267D01*
X14523809Y-11938790D01*
X14533333Y-11948314D01*
X14542857Y-11967362D01*
X14542857Y-12014981D01*
X14533333Y-12034028D01*
X14523809Y-12043552D01*
X14504762Y-12053076D01*
X14447619Y-12053076D01*
X14428571Y-12043552D01*
X14419048Y-12034028D01*
X14780952Y-12053076D02*
X14780952Y-11853076D01*
X14866667Y-12053076D02*
X14866667Y-11948314D01*
X14857143Y-11929267D01*
X14838095Y-11919743D01*
X14809524Y-11919743D01*
X14790476Y-11929267D01*
X14780952Y-11938790D01*
X14990476Y-12053076D02*
X14971428Y-12043552D01*
X14961905Y-12034028D01*
X14952381Y-12014981D01*
X14952381Y-11957838D01*
X14961905Y-11938790D01*
X14971428Y-11929267D01*
X14990476Y-11919743D01*
X15019048Y-11919743D01*
X15038095Y-11929267D01*
X15047619Y-11938790D01*
X15057143Y-11957838D01*
X15057143Y-12014981D01*
X15047619Y-12034028D01*
X15038095Y-12043552D01*
X15019048Y-12053076D01*
X14990476Y-12053076D01*
X15171428Y-12053076D02*
X15152381Y-12043552D01*
X15142857Y-12024505D01*
X15142857Y-11853076D01*
X15323809Y-12043552D02*
X15304762Y-12053076D01*
X15266667Y-12053076D01*
X15247619Y-12043552D01*
X15238095Y-12024505D01*
X15238095Y-11948314D01*
X15247619Y-11929267D01*
X15266667Y-11919743D01*
X15304762Y-11919743D01*
X15323809Y-11929267D01*
X15333333Y-11948314D01*
X15333333Y-11967362D01*
X15238095Y-11986409D01*
X15409524Y-12043552D02*
X15428571Y-12053076D01*
X15466667Y-12053076D01*
X15485714Y-12043552D01*
X15495238Y-12024505D01*
X15495238Y-12014981D01*
X15485714Y-11995933D01*
X15466667Y-11986409D01*
X15438095Y-11986409D01*
X15419048Y-11976886D01*
X15409524Y-11957838D01*
X15409524Y-11948314D01*
X15419048Y-11929267D01*
X15438095Y-11919743D01*
X15466667Y-11919743D01*
X15485714Y-11929267D01*
X15561905Y-12129267D02*
X15571428Y-12119743D01*
X15590476Y-12091171D01*
X15600000Y-12072124D01*
X15609524Y-12043552D01*
X15619048Y-11995933D01*
X15619048Y-11957838D01*
X15609524Y-11910219D01*
X15600000Y-11881648D01*
X15590476Y-11862600D01*
X15571428Y-11834028D01*
X15561905Y-11824505D01*
D17*
X10700000Y-12181600D02*
X10790000Y-12271600D01*
X10790000Y-12181600D02*
X10700000Y-12271600D01*
X10790000Y-12226600D02*
G75*
G03*
X10790000Y-12226600I-45000J0D01*
G01*
D11*
X11085714Y-12117076D02*
X11104762Y-12117076D01*
X11123810Y-12126600D01*
X11133333Y-12136124D01*
X11142857Y-12155171D01*
X11152381Y-12193267D01*
X11152381Y-12240886D01*
X11142857Y-12278981D01*
X11133333Y-12298028D01*
X11123810Y-12307552D01*
X11104762Y-12317076D01*
X11085714Y-12317076D01*
X11066667Y-12307552D01*
X11057143Y-12298028D01*
X11047619Y-12278981D01*
X11038095Y-12240886D01*
X11038095Y-12193267D01*
X11047619Y-12155171D01*
X11057143Y-12136124D01*
X11066667Y-12126600D01*
X11085714Y-12117076D01*
X11238095Y-12298028D02*
X11247619Y-12307552D01*
X11238095Y-12317076D01*
X11228571Y-12307552D01*
X11238095Y-12298028D01*
X11238095Y-12317076D01*
X11342857Y-12317076D02*
X11380952Y-12317076D01*
X11400000Y-12307552D01*
X11409524Y-12298028D01*
X11428571Y-12269457D01*
X11438095Y-12231362D01*
X11438095Y-12155171D01*
X11428571Y-12136124D01*
X11419048Y-12126600D01*
X11400000Y-12117076D01*
X11361905Y-12117076D01*
X11342857Y-12126600D01*
X11333333Y-12136124D01*
X11323809Y-12155171D01*
X11323809Y-12202790D01*
X11333333Y-12221838D01*
X11342857Y-12231362D01*
X11361905Y-12240886D01*
X11400000Y-12240886D01*
X11419048Y-12231362D01*
X11428571Y-12221838D01*
X11438095Y-12202790D01*
X11561905Y-12117076D02*
X11580952Y-12117076D01*
X11600000Y-12126600D01*
X11609524Y-12136124D01*
X11619048Y-12155171D01*
X11628571Y-12193267D01*
X11628571Y-12240886D01*
X11619048Y-12278981D01*
X11609524Y-12298028D01*
X11600000Y-12307552D01*
X11580952Y-12317076D01*
X11561905Y-12317076D01*
X11542857Y-12307552D01*
X11533333Y-12298028D01*
X11523809Y-12278981D01*
X11514286Y-12240886D01*
X11514286Y-12193267D01*
X11523809Y-12155171D01*
X11533333Y-12136124D01*
X11542857Y-12126600D01*
X11561905Y-12117076D01*
X11752381Y-12117076D02*
X11771428Y-12117076D01*
X11790476Y-12126600D01*
X11800000Y-12136124D01*
X11809524Y-12155171D01*
X11819048Y-12193267D01*
X11819048Y-12240886D01*
X11809524Y-12278981D01*
X11800000Y-12298028D01*
X11790476Y-12307552D01*
X11771428Y-12317076D01*
X11752381Y-12317076D01*
X11733333Y-12307552D01*
X11723809Y-12298028D01*
X11714286Y-12278981D01*
X11704762Y-12240886D01*
X11704762Y-12193267D01*
X11714286Y-12155171D01*
X11723809Y-12136124D01*
X11733333Y-12126600D01*
X11752381Y-12117076D01*
X11904762Y-12317076D02*
X11904762Y-12183743D01*
X11904762Y-12202790D02*
X11914286Y-12193267D01*
X11933333Y-12183743D01*
X11961905Y-12183743D01*
X11980952Y-12193267D01*
X11990476Y-12212314D01*
X11990476Y-12317076D01*
X11990476Y-12212314D02*
X12000000Y-12193267D01*
X12019048Y-12183743D01*
X12047619Y-12183743D01*
X12066667Y-12193267D01*
X12076190Y-12212314D01*
X12076190Y-12317076D01*
X12171428Y-12317076D02*
X12171428Y-12183743D01*
X12171428Y-12202790D02*
X12180952Y-12193267D01*
X12200000Y-12183743D01*
X12228571Y-12183743D01*
X12247619Y-12193267D01*
X12257143Y-12212314D01*
X12257143Y-12317076D01*
X12257143Y-12212314D02*
X12266667Y-12193267D01*
X12285714Y-12183743D01*
X12314286Y-12183743D01*
X12333333Y-12193267D01*
X12342857Y-12212314D01*
X12342857Y-12317076D01*
X12733333Y-12107552D02*
X12561905Y-12364695D01*
X12990476Y-12117076D02*
X13009524Y-12117076D01*
X13028571Y-12126600D01*
X13038095Y-12136124D01*
X13047619Y-12155171D01*
X13057143Y-12193267D01*
X13057143Y-12240886D01*
X13047619Y-12278981D01*
X13038095Y-12298028D01*
X13028571Y-12307552D01*
X13009524Y-12317076D01*
X12990476Y-12317076D01*
X12971428Y-12307552D01*
X12961905Y-12298028D01*
X12952381Y-12278981D01*
X12942857Y-12240886D01*
X12942857Y-12193267D01*
X12952381Y-12155171D01*
X12961905Y-12136124D01*
X12971428Y-12126600D01*
X12990476Y-12117076D01*
X13142857Y-12298028D02*
X13152381Y-12307552D01*
X13142857Y-12317076D01*
X13133333Y-12307552D01*
X13142857Y-12298028D01*
X13142857Y-12317076D01*
X13276190Y-12117076D02*
X13295238Y-12117076D01*
X13314286Y-12126600D01*
X13323809Y-12136124D01*
X13333333Y-12155171D01*
X13342857Y-12193267D01*
X13342857Y-12240886D01*
X13333333Y-12278981D01*
X13323809Y-12298028D01*
X13314286Y-12307552D01*
X13295238Y-12317076D01*
X13276190Y-12317076D01*
X13257143Y-12307552D01*
X13247619Y-12298028D01*
X13238095Y-12278981D01*
X13228571Y-12240886D01*
X13228571Y-12193267D01*
X13238095Y-12155171D01*
X13247619Y-12136124D01*
X13257143Y-12126600D01*
X13276190Y-12117076D01*
X13409524Y-12117076D02*
X13533333Y-12117076D01*
X13466667Y-12193267D01*
X13495238Y-12193267D01*
X13514286Y-12202790D01*
X13523809Y-12212314D01*
X13533333Y-12231362D01*
X13533333Y-12278981D01*
X13523809Y-12298028D01*
X13514286Y-12307552D01*
X13495238Y-12317076D01*
X13438095Y-12317076D01*
X13419048Y-12307552D01*
X13409524Y-12298028D01*
X13714286Y-12117076D02*
X13619048Y-12117076D01*
X13609524Y-12212314D01*
X13619048Y-12202790D01*
X13638095Y-12193267D01*
X13685714Y-12193267D01*
X13704762Y-12202790D01*
X13714286Y-12212314D01*
X13723809Y-12231362D01*
X13723809Y-12278981D01*
X13714286Y-12298028D01*
X13704762Y-12307552D01*
X13685714Y-12317076D01*
X13638095Y-12317076D01*
X13619048Y-12307552D01*
X13609524Y-12298028D01*
X13895238Y-12183743D02*
X13895238Y-12317076D01*
X13847619Y-12107552D02*
X13800000Y-12250409D01*
X13923809Y-12250409D01*
X13990476Y-12117076D02*
X13990476Y-12155171D01*
X14066667Y-12117076D02*
X14066667Y-12155171D01*
X14361905Y-12393267D02*
X14352381Y-12383743D01*
X14333333Y-12355171D01*
X14323809Y-12336124D01*
X14314286Y-12307552D01*
X14304762Y-12259933D01*
X14304762Y-12221838D01*
X14314286Y-12174219D01*
X14323809Y-12145648D01*
X14333333Y-12126600D01*
X14352381Y-12098028D01*
X14361905Y-12088505D01*
X14466667Y-12202790D02*
X14447619Y-12193267D01*
X14438095Y-12183743D01*
X14428571Y-12164695D01*
X14428571Y-12155171D01*
X14438095Y-12136124D01*
X14447619Y-12126600D01*
X14466667Y-12117076D01*
X14504762Y-12117076D01*
X14523809Y-12126600D01*
X14533333Y-12136124D01*
X14542857Y-12155171D01*
X14542857Y-12164695D01*
X14533333Y-12183743D01*
X14523809Y-12193267D01*
X14504762Y-12202790D01*
X14466667Y-12202790D01*
X14447619Y-12212314D01*
X14438095Y-12221838D01*
X14428571Y-12240886D01*
X14428571Y-12278981D01*
X14438095Y-12298028D01*
X14447619Y-12307552D01*
X14466667Y-12317076D01*
X14504762Y-12317076D01*
X14523809Y-12307552D01*
X14533333Y-12298028D01*
X14542857Y-12278981D01*
X14542857Y-12240886D01*
X14533333Y-12221838D01*
X14523809Y-12212314D01*
X14504762Y-12202790D01*
X14780952Y-12317076D02*
X14780952Y-12117076D01*
X14866667Y-12317076D02*
X14866667Y-12212314D01*
X14857143Y-12193267D01*
X14838095Y-12183743D01*
X14809524Y-12183743D01*
X14790476Y-12193267D01*
X14780952Y-12202790D01*
X14990476Y-12317076D02*
X14971428Y-12307552D01*
X14961905Y-12298028D01*
X14952381Y-12278981D01*
X14952381Y-12221838D01*
X14961905Y-12202790D01*
X14971428Y-12193267D01*
X14990476Y-12183743D01*
X15019048Y-12183743D01*
X15038095Y-12193267D01*
X15047619Y-12202790D01*
X15057143Y-12221838D01*
X15057143Y-12278981D01*
X15047619Y-12298028D01*
X15038095Y-12307552D01*
X15019048Y-12317076D01*
X14990476Y-12317076D01*
X15171428Y-12317076D02*
X15152381Y-12307552D01*
X15142857Y-12288505D01*
X15142857Y-12117076D01*
X15323809Y-12307552D02*
X15304762Y-12317076D01*
X15266667Y-12317076D01*
X15247619Y-12307552D01*
X15238095Y-12288505D01*
X15238095Y-12212314D01*
X15247619Y-12193267D01*
X15266667Y-12183743D01*
X15304762Y-12183743D01*
X15323809Y-12193267D01*
X15333333Y-12212314D01*
X15333333Y-12231362D01*
X15238095Y-12250409D01*
X15409524Y-12307552D02*
X15428571Y-12317076D01*
X15466667Y-12317076D01*
X15485714Y-12307552D01*
X15495238Y-12288505D01*
X15495238Y-12278981D01*
X15485714Y-12259933D01*
X15466667Y-12250409D01*
X15438095Y-12250409D01*
X15419048Y-12240886D01*
X15409524Y-12221838D01*
X15409524Y-12212314D01*
X15419048Y-12193267D01*
X15438095Y-12183743D01*
X15466667Y-12183743D01*
X15485714Y-12193267D01*
X15561905Y-12393267D02*
X15571428Y-12383743D01*
X15590476Y-12355171D01*
X15600000Y-12336124D01*
X15609524Y-12307552D01*
X15619048Y-12259933D01*
X15619048Y-12221838D01*
X15609524Y-12174219D01*
X15600000Y-12145648D01*
X15590476Y-12126600D01*
X15571428Y-12098028D01*
X15561905Y-12088505D01*
D18*
X10688000Y-12439600D02*
X10790000Y-12541600D01*
X10790000Y-12439600D02*
X10688000Y-12541600D01*
X10739000Y-12439600D02*
X10739000Y-12541600D01*
X10688000Y-12490600D02*
X10790000Y-12490600D01*
D11*
X11152381Y-12581076D02*
X11038095Y-12581076D01*
X11095238Y-12581076D02*
X11095238Y-12381076D01*
X11076190Y-12409648D01*
X11057143Y-12428695D01*
X11038095Y-12438219D01*
X11238095Y-12562028D02*
X11247619Y-12571552D01*
X11238095Y-12581076D01*
X11228571Y-12571552D01*
X11238095Y-12562028D01*
X11238095Y-12581076D01*
X11371428Y-12381076D02*
X11390476Y-12381076D01*
X11409524Y-12390600D01*
X11419048Y-12400124D01*
X11428571Y-12419171D01*
X11438095Y-12457267D01*
X11438095Y-12504886D01*
X11428571Y-12542981D01*
X11419048Y-12562028D01*
X11409524Y-12571552D01*
X11390476Y-12581076D01*
X11371428Y-12581076D01*
X11352381Y-12571552D01*
X11342857Y-12562028D01*
X11333333Y-12542981D01*
X11323809Y-12504886D01*
X11323809Y-12457267D01*
X11333333Y-12419171D01*
X11342857Y-12400124D01*
X11352381Y-12390600D01*
X11371428Y-12381076D01*
X11514286Y-12400124D02*
X11523809Y-12390600D01*
X11542857Y-12381076D01*
X11590476Y-12381076D01*
X11609524Y-12390600D01*
X11619048Y-12400124D01*
X11628571Y-12419171D01*
X11628571Y-12438219D01*
X11619048Y-12466790D01*
X11504762Y-12581076D01*
X11628571Y-12581076D01*
X11752381Y-12381076D02*
X11771428Y-12381076D01*
X11790476Y-12390600D01*
X11800000Y-12400124D01*
X11809524Y-12419171D01*
X11819048Y-12457267D01*
X11819048Y-12504886D01*
X11809524Y-12542981D01*
X11800000Y-12562028D01*
X11790476Y-12571552D01*
X11771428Y-12581076D01*
X11752381Y-12581076D01*
X11733333Y-12571552D01*
X11723809Y-12562028D01*
X11714286Y-12542981D01*
X11704762Y-12504886D01*
X11704762Y-12457267D01*
X11714286Y-12419171D01*
X11723809Y-12400124D01*
X11733333Y-12390600D01*
X11752381Y-12381076D01*
X11904762Y-12581076D02*
X11904762Y-12447743D01*
X11904762Y-12466790D02*
X11914286Y-12457267D01*
X11933333Y-12447743D01*
X11961905Y-12447743D01*
X11980952Y-12457267D01*
X11990476Y-12476314D01*
X11990476Y-12581076D01*
X11990476Y-12476314D02*
X12000000Y-12457267D01*
X12019048Y-12447743D01*
X12047619Y-12447743D01*
X12066667Y-12457267D01*
X12076190Y-12476314D01*
X12076190Y-12581076D01*
X12171428Y-12581076D02*
X12171428Y-12447743D01*
X12171428Y-12466790D02*
X12180952Y-12457267D01*
X12200000Y-12447743D01*
X12228571Y-12447743D01*
X12247619Y-12457267D01*
X12257143Y-12476314D01*
X12257143Y-12581076D01*
X12257143Y-12476314D02*
X12266667Y-12457267D01*
X12285714Y-12447743D01*
X12314286Y-12447743D01*
X12333333Y-12457267D01*
X12342857Y-12476314D01*
X12342857Y-12581076D01*
X12733333Y-12371552D02*
X12561905Y-12628695D01*
X12990476Y-12381076D02*
X13009524Y-12381076D01*
X13028571Y-12390600D01*
X13038095Y-12400124D01*
X13047619Y-12419171D01*
X13057143Y-12457267D01*
X13057143Y-12504886D01*
X13047619Y-12542981D01*
X13038095Y-12562028D01*
X13028571Y-12571552D01*
X13009524Y-12581076D01*
X12990476Y-12581076D01*
X12971428Y-12571552D01*
X12961905Y-12562028D01*
X12952381Y-12542981D01*
X12942857Y-12504886D01*
X12942857Y-12457267D01*
X12952381Y-12419171D01*
X12961905Y-12400124D01*
X12971428Y-12390600D01*
X12990476Y-12381076D01*
X13142857Y-12562028D02*
X13152381Y-12571552D01*
X13142857Y-12581076D01*
X13133333Y-12571552D01*
X13142857Y-12562028D01*
X13142857Y-12581076D01*
X13276190Y-12381076D02*
X13295238Y-12381076D01*
X13314286Y-12390600D01*
X13323809Y-12400124D01*
X13333333Y-12419171D01*
X13342857Y-12457267D01*
X13342857Y-12504886D01*
X13333333Y-12542981D01*
X13323809Y-12562028D01*
X13314286Y-12571552D01*
X13295238Y-12581076D01*
X13276190Y-12581076D01*
X13257143Y-12571552D01*
X13247619Y-12562028D01*
X13238095Y-12542981D01*
X13228571Y-12504886D01*
X13228571Y-12457267D01*
X13238095Y-12419171D01*
X13247619Y-12400124D01*
X13257143Y-12390600D01*
X13276190Y-12381076D01*
X13514286Y-12447743D02*
X13514286Y-12581076D01*
X13466667Y-12371552D02*
X13419048Y-12514409D01*
X13542857Y-12514409D01*
X13657143Y-12381076D02*
X13676190Y-12381076D01*
X13695238Y-12390600D01*
X13704762Y-12400124D01*
X13714286Y-12419171D01*
X13723809Y-12457267D01*
X13723809Y-12504886D01*
X13714286Y-12542981D01*
X13704762Y-12562028D01*
X13695238Y-12571552D01*
X13676190Y-12581076D01*
X13657143Y-12581076D01*
X13638095Y-12571552D01*
X13628571Y-12562028D01*
X13619048Y-12542981D01*
X13609524Y-12504886D01*
X13609524Y-12457267D01*
X13619048Y-12419171D01*
X13628571Y-12400124D01*
X13638095Y-12390600D01*
X13657143Y-12381076D01*
X13800000Y-12400124D02*
X13809524Y-12390600D01*
X13828571Y-12381076D01*
X13876190Y-12381076D01*
X13895238Y-12390600D01*
X13904762Y-12400124D01*
X13914286Y-12419171D01*
X13914286Y-12438219D01*
X13904762Y-12466790D01*
X13790476Y-12581076D01*
X13914286Y-12581076D01*
X13990476Y-12381076D02*
X13990476Y-12419171D01*
X14066667Y-12381076D02*
X14066667Y-12419171D01*
X14361905Y-12657267D02*
X14352381Y-12647743D01*
X14333333Y-12619171D01*
X14323809Y-12600124D01*
X14314286Y-12571552D01*
X14304762Y-12523933D01*
X14304762Y-12485838D01*
X14314286Y-12438219D01*
X14323809Y-12409648D01*
X14333333Y-12390600D01*
X14352381Y-12362028D01*
X14361905Y-12352505D01*
X14523809Y-12447743D02*
X14523809Y-12581076D01*
X14476190Y-12371552D02*
X14428571Y-12514409D01*
X14552381Y-12514409D01*
X14780952Y-12581076D02*
X14780952Y-12381076D01*
X14866667Y-12581076D02*
X14866667Y-12476314D01*
X14857143Y-12457267D01*
X14838095Y-12447743D01*
X14809524Y-12447743D01*
X14790476Y-12457267D01*
X14780952Y-12466790D01*
X14990476Y-12581076D02*
X14971428Y-12571552D01*
X14961905Y-12562028D01*
X14952381Y-12542981D01*
X14952381Y-12485838D01*
X14961905Y-12466790D01*
X14971428Y-12457267D01*
X14990476Y-12447743D01*
X15019048Y-12447743D01*
X15038095Y-12457267D01*
X15047619Y-12466790D01*
X15057143Y-12485838D01*
X15057143Y-12542981D01*
X15047619Y-12562028D01*
X15038095Y-12571552D01*
X15019048Y-12581076D01*
X14990476Y-12581076D01*
X15171428Y-12581076D02*
X15152381Y-12571552D01*
X15142857Y-12552505D01*
X15142857Y-12381076D01*
X15323809Y-12571552D02*
X15304762Y-12581076D01*
X15266667Y-12581076D01*
X15247619Y-12571552D01*
X15238095Y-12552505D01*
X15238095Y-12476314D01*
X15247619Y-12457267D01*
X15266667Y-12447743D01*
X15304762Y-12447743D01*
X15323809Y-12457267D01*
X15333333Y-12476314D01*
X15333333Y-12495362D01*
X15238095Y-12514409D01*
X15409524Y-12571552D02*
X15428571Y-12581076D01*
X15466667Y-12581076D01*
X15485714Y-12571552D01*
X15495238Y-12552505D01*
X15495238Y-12542981D01*
X15485714Y-12523933D01*
X15466667Y-12514409D01*
X15438095Y-12514409D01*
X15419048Y-12504886D01*
X15409524Y-12485838D01*
X15409524Y-12476314D01*
X15419048Y-12457267D01*
X15438095Y-12447743D01*
X15466667Y-12447743D01*
X15485714Y-12457267D01*
X15561905Y-12657267D02*
X15571428Y-12647743D01*
X15590476Y-12619171D01*
X15600000Y-12600124D01*
X15609524Y-12571552D01*
X15619048Y-12523933D01*
X15619048Y-12485838D01*
X15609524Y-12438219D01*
X15600000Y-12409648D01*
X15590476Y-12390600D01*
X15571428Y-12362028D01*
X15561905Y-12352505D01*
D19*
X10681000Y-12700100D02*
X10790000Y-12809100D01*
X10790000Y-12700100D02*
X10681000Y-12809100D01*
X10774038Y-12793138D02*
X10774038Y-12716062D01*
X10696962Y-12716062D01*
X10696962Y-12793138D01*
X10774038Y-12793138D01*
D11*
X11152381Y-12845076D02*
X11038095Y-12845076D01*
X11095238Y-12845076D02*
X11095238Y-12645076D01*
X11076190Y-12673648D01*
X11057143Y-12692695D01*
X11038095Y-12702219D01*
X11238095Y-12826028D02*
X11247619Y-12835552D01*
X11238095Y-12845076D01*
X11228571Y-12835552D01*
X11238095Y-12826028D01*
X11238095Y-12845076D01*
X11371428Y-12645076D02*
X11390476Y-12645076D01*
X11409524Y-12654600D01*
X11419048Y-12664124D01*
X11428571Y-12683171D01*
X11438095Y-12721267D01*
X11438095Y-12768886D01*
X11428571Y-12806981D01*
X11419048Y-12826028D01*
X11409524Y-12835552D01*
X11390476Y-12845076D01*
X11371428Y-12845076D01*
X11352381Y-12835552D01*
X11342857Y-12826028D01*
X11333333Y-12806981D01*
X11323809Y-12768886D01*
X11323809Y-12721267D01*
X11333333Y-12683171D01*
X11342857Y-12664124D01*
X11352381Y-12654600D01*
X11371428Y-12645076D01*
X11533333Y-12845076D02*
X11571428Y-12845076D01*
X11590476Y-12835552D01*
X11600000Y-12826028D01*
X11619048Y-12797457D01*
X11628571Y-12759362D01*
X11628571Y-12683171D01*
X11619048Y-12664124D01*
X11609524Y-12654600D01*
X11590476Y-12645076D01*
X11552381Y-12645076D01*
X11533333Y-12654600D01*
X11523809Y-12664124D01*
X11514286Y-12683171D01*
X11514286Y-12730790D01*
X11523809Y-12749838D01*
X11533333Y-12759362D01*
X11552381Y-12768886D01*
X11590476Y-12768886D01*
X11609524Y-12759362D01*
X11619048Y-12749838D01*
X11628571Y-12730790D01*
X11752381Y-12645076D02*
X11771428Y-12645076D01*
X11790476Y-12654600D01*
X11800000Y-12664124D01*
X11809524Y-12683171D01*
X11819048Y-12721267D01*
X11819048Y-12768886D01*
X11809524Y-12806981D01*
X11800000Y-12826028D01*
X11790476Y-12835552D01*
X11771428Y-12845076D01*
X11752381Y-12845076D01*
X11733333Y-12835552D01*
X11723809Y-12826028D01*
X11714286Y-12806981D01*
X11704762Y-12768886D01*
X11704762Y-12721267D01*
X11714286Y-12683171D01*
X11723809Y-12664124D01*
X11733333Y-12654600D01*
X11752381Y-12645076D01*
X11904762Y-12845076D02*
X11904762Y-12711743D01*
X11904762Y-12730790D02*
X11914286Y-12721267D01*
X11933333Y-12711743D01*
X11961905Y-12711743D01*
X11980952Y-12721267D01*
X11990476Y-12740314D01*
X11990476Y-12845076D01*
X11990476Y-12740314D02*
X12000000Y-12721267D01*
X12019048Y-12711743D01*
X12047619Y-12711743D01*
X12066667Y-12721267D01*
X12076190Y-12740314D01*
X12076190Y-12845076D01*
X12171428Y-12845076D02*
X12171428Y-12711743D01*
X12171428Y-12730790D02*
X12180952Y-12721267D01*
X12200000Y-12711743D01*
X12228571Y-12711743D01*
X12247619Y-12721267D01*
X12257143Y-12740314D01*
X12257143Y-12845076D01*
X12257143Y-12740314D02*
X12266667Y-12721267D01*
X12285714Y-12711743D01*
X12314286Y-12711743D01*
X12333333Y-12721267D01*
X12342857Y-12740314D01*
X12342857Y-12845076D01*
X12733333Y-12635552D02*
X12561905Y-12892695D01*
X12990476Y-12645076D02*
X13009524Y-12645076D01*
X13028571Y-12654600D01*
X13038095Y-12664124D01*
X13047619Y-12683171D01*
X13057143Y-12721267D01*
X13057143Y-12768886D01*
X13047619Y-12806981D01*
X13038095Y-12826028D01*
X13028571Y-12835552D01*
X13009524Y-12845076D01*
X12990476Y-12845076D01*
X12971428Y-12835552D01*
X12961905Y-12826028D01*
X12952381Y-12806981D01*
X12942857Y-12768886D01*
X12942857Y-12721267D01*
X12952381Y-12683171D01*
X12961905Y-12664124D01*
X12971428Y-12654600D01*
X12990476Y-12645076D01*
X13142857Y-12826028D02*
X13152381Y-12835552D01*
X13142857Y-12845076D01*
X13133333Y-12835552D01*
X13142857Y-12826028D01*
X13142857Y-12845076D01*
X13276190Y-12645076D02*
X13295238Y-12645076D01*
X13314286Y-12654600D01*
X13323809Y-12664124D01*
X13333333Y-12683171D01*
X13342857Y-12721267D01*
X13342857Y-12768886D01*
X13333333Y-12806981D01*
X13323809Y-12826028D01*
X13314286Y-12835552D01*
X13295238Y-12845076D01*
X13276190Y-12845076D01*
X13257143Y-12835552D01*
X13247619Y-12826028D01*
X13238095Y-12806981D01*
X13228571Y-12768886D01*
X13228571Y-12721267D01*
X13238095Y-12683171D01*
X13247619Y-12664124D01*
X13257143Y-12654600D01*
X13276190Y-12645076D01*
X13514286Y-12711743D02*
X13514286Y-12845076D01*
X13466667Y-12635552D02*
X13419048Y-12778409D01*
X13542857Y-12778409D01*
X13609524Y-12664124D02*
X13619048Y-12654600D01*
X13638095Y-12645076D01*
X13685714Y-12645076D01*
X13704762Y-12654600D01*
X13714286Y-12664124D01*
X13723809Y-12683171D01*
X13723809Y-12702219D01*
X13714286Y-12730790D01*
X13600000Y-12845076D01*
X13723809Y-12845076D01*
X13819048Y-12845076D02*
X13857143Y-12845076D01*
X13876190Y-12835552D01*
X13885714Y-12826028D01*
X13904762Y-12797457D01*
X13914286Y-12759362D01*
X13914286Y-12683171D01*
X13904762Y-12664124D01*
X13895238Y-12654600D01*
X13876190Y-12645076D01*
X13838095Y-12645076D01*
X13819048Y-12654600D01*
X13809524Y-12664124D01*
X13800000Y-12683171D01*
X13800000Y-12730790D01*
X13809524Y-12749838D01*
X13819048Y-12759362D01*
X13838095Y-12768886D01*
X13876190Y-12768886D01*
X13895238Y-12759362D01*
X13904762Y-12749838D01*
X13914286Y-12730790D01*
X13990476Y-12645076D02*
X13990476Y-12683171D01*
X14066667Y-12645076D02*
X14066667Y-12683171D01*
X14361905Y-12921267D02*
X14352381Y-12911743D01*
X14333333Y-12883171D01*
X14323809Y-12864124D01*
X14314286Y-12835552D01*
X14304762Y-12787933D01*
X14304762Y-12749838D01*
X14314286Y-12702219D01*
X14323809Y-12673648D01*
X14333333Y-12654600D01*
X14352381Y-12626028D01*
X14361905Y-12616505D01*
X14542857Y-12845076D02*
X14428571Y-12845076D01*
X14485714Y-12845076D02*
X14485714Y-12645076D01*
X14466667Y-12673648D01*
X14447619Y-12692695D01*
X14428571Y-12702219D01*
X14657143Y-12730790D02*
X14638095Y-12721267D01*
X14628571Y-12711743D01*
X14619048Y-12692695D01*
X14619048Y-12683171D01*
X14628571Y-12664124D01*
X14638095Y-12654600D01*
X14657143Y-12645076D01*
X14695238Y-12645076D01*
X14714286Y-12654600D01*
X14723809Y-12664124D01*
X14733333Y-12683171D01*
X14733333Y-12692695D01*
X14723809Y-12711743D01*
X14714286Y-12721267D01*
X14695238Y-12730790D01*
X14657143Y-12730790D01*
X14638095Y-12740314D01*
X14628571Y-12749838D01*
X14619048Y-12768886D01*
X14619048Y-12806981D01*
X14628571Y-12826028D01*
X14638095Y-12835552D01*
X14657143Y-12845076D01*
X14695238Y-12845076D01*
X14714286Y-12835552D01*
X14723809Y-12826028D01*
X14733333Y-12806981D01*
X14733333Y-12768886D01*
X14723809Y-12749838D01*
X14714286Y-12740314D01*
X14695238Y-12730790D01*
X14971428Y-12845076D02*
X14971428Y-12645076D01*
X15057143Y-12845076D02*
X15057143Y-12740314D01*
X15047619Y-12721267D01*
X15028571Y-12711743D01*
X15000000Y-12711743D01*
X14980952Y-12721267D01*
X14971428Y-12730790D01*
X15180952Y-12845076D02*
X15161905Y-12835552D01*
X15152381Y-12826028D01*
X15142857Y-12806981D01*
X15142857Y-12749838D01*
X15152381Y-12730790D01*
X15161905Y-12721267D01*
X15180952Y-12711743D01*
X15209524Y-12711743D01*
X15228571Y-12721267D01*
X15238095Y-12730790D01*
X15247619Y-12749838D01*
X15247619Y-12806981D01*
X15238095Y-12826028D01*
X15228571Y-12835552D01*
X15209524Y-12845076D01*
X15180952Y-12845076D01*
X15361905Y-12845076D02*
X15342857Y-12835552D01*
X15333333Y-12816505D01*
X15333333Y-12645076D01*
X15514286Y-12835552D02*
X15495238Y-12845076D01*
X15457143Y-12845076D01*
X15438095Y-12835552D01*
X15428571Y-12816505D01*
X15428571Y-12740314D01*
X15438095Y-12721267D01*
X15457143Y-12711743D01*
X15495238Y-12711743D01*
X15514286Y-12721267D01*
X15523809Y-12740314D01*
X15523809Y-12759362D01*
X15428571Y-12778409D01*
X15600000Y-12835552D02*
X15619048Y-12845076D01*
X15657143Y-12845076D01*
X15676190Y-12835552D01*
X15685714Y-12816505D01*
X15685714Y-12806981D01*
X15676190Y-12787933D01*
X15657143Y-12778409D01*
X15628571Y-12778409D01*
X15609524Y-12768886D01*
X15600000Y-12749838D01*
X15600000Y-12740314D01*
X15609524Y-12721267D01*
X15628571Y-12711743D01*
X15657143Y-12711743D01*
X15676190Y-12721267D01*
X15752381Y-12921267D02*
X15761905Y-12911743D01*
X15780952Y-12883171D01*
X15790476Y-12864124D01*
X15800000Y-12835552D01*
X15809524Y-12787933D01*
X15809524Y-12749838D01*
X15800000Y-12702219D01*
X15790476Y-12673648D01*
X15780952Y-12654600D01*
X15761905Y-12626028D01*
X15752381Y-12616505D01*
D20*
X10630000Y-12938600D02*
X10790000Y-13098600D01*
X10790000Y-12938600D02*
X10630000Y-13098600D01*
X10710000Y-13098600D02*
X10790000Y-13018600D01*
X10710000Y-12938600D01*
X10630000Y-13018600D01*
X10710000Y-13098600D01*
D11*
X11152381Y-13109076D02*
X11038095Y-13109076D01*
X11095238Y-13109076D02*
X11095238Y-12909076D01*
X11076190Y-12937648D01*
X11057143Y-12956695D01*
X11038095Y-12966219D01*
X11238095Y-13090028D02*
X11247619Y-13099552D01*
X11238095Y-13109076D01*
X11228571Y-13099552D01*
X11238095Y-13090028D01*
X11238095Y-13109076D01*
X11419048Y-12909076D02*
X11380952Y-12909076D01*
X11361905Y-12918600D01*
X11352381Y-12928124D01*
X11333333Y-12956695D01*
X11323809Y-12994790D01*
X11323809Y-13070981D01*
X11333333Y-13090028D01*
X11342857Y-13099552D01*
X11361905Y-13109076D01*
X11400000Y-13109076D01*
X11419048Y-13099552D01*
X11428571Y-13090028D01*
X11438095Y-13070981D01*
X11438095Y-13023362D01*
X11428571Y-13004314D01*
X11419048Y-12994790D01*
X11400000Y-12985267D01*
X11361905Y-12985267D01*
X11342857Y-12994790D01*
X11333333Y-13004314D01*
X11323809Y-13023362D01*
X11561905Y-12909076D02*
X11580952Y-12909076D01*
X11600000Y-12918600D01*
X11609524Y-12928124D01*
X11619048Y-12947171D01*
X11628571Y-12985267D01*
X11628571Y-13032886D01*
X11619048Y-13070981D01*
X11609524Y-13090028D01*
X11600000Y-13099552D01*
X11580952Y-13109076D01*
X11561905Y-13109076D01*
X11542857Y-13099552D01*
X11533333Y-13090028D01*
X11523809Y-13070981D01*
X11514286Y-13032886D01*
X11514286Y-12985267D01*
X11523809Y-12947171D01*
X11533333Y-12928124D01*
X11542857Y-12918600D01*
X11561905Y-12909076D01*
X11752381Y-12909076D02*
X11771428Y-12909076D01*
X11790476Y-12918600D01*
X11800000Y-12928124D01*
X11809524Y-12947171D01*
X11819048Y-12985267D01*
X11819048Y-13032886D01*
X11809524Y-13070981D01*
X11800000Y-13090028D01*
X11790476Y-13099552D01*
X11771428Y-13109076D01*
X11752381Y-13109076D01*
X11733333Y-13099552D01*
X11723809Y-13090028D01*
X11714286Y-13070981D01*
X11704762Y-13032886D01*
X11704762Y-12985267D01*
X11714286Y-12947171D01*
X11723809Y-12928124D01*
X11733333Y-12918600D01*
X11752381Y-12909076D01*
X11904762Y-13109076D02*
X11904762Y-12975743D01*
X11904762Y-12994790D02*
X11914286Y-12985267D01*
X11933333Y-12975743D01*
X11961905Y-12975743D01*
X11980952Y-12985267D01*
X11990476Y-13004314D01*
X11990476Y-13109076D01*
X11990476Y-13004314D02*
X12000000Y-12985267D01*
X12019048Y-12975743D01*
X12047619Y-12975743D01*
X12066667Y-12985267D01*
X12076190Y-13004314D01*
X12076190Y-13109076D01*
X12171428Y-13109076D02*
X12171428Y-12975743D01*
X12171428Y-12994790D02*
X12180952Y-12985267D01*
X12200000Y-12975743D01*
X12228571Y-12975743D01*
X12247619Y-12985267D01*
X12257143Y-13004314D01*
X12257143Y-13109076D01*
X12257143Y-13004314D02*
X12266667Y-12985267D01*
X12285714Y-12975743D01*
X12314286Y-12975743D01*
X12333333Y-12985267D01*
X12342857Y-13004314D01*
X12342857Y-13109076D01*
X12733333Y-12899552D02*
X12561905Y-13156695D01*
X12990476Y-12909076D02*
X13009524Y-12909076D01*
X13028571Y-12918600D01*
X13038095Y-12928124D01*
X13047619Y-12947171D01*
X13057143Y-12985267D01*
X13057143Y-13032886D01*
X13047619Y-13070981D01*
X13038095Y-13090028D01*
X13028571Y-13099552D01*
X13009524Y-13109076D01*
X12990476Y-13109076D01*
X12971428Y-13099552D01*
X12961905Y-13090028D01*
X12952381Y-13070981D01*
X12942857Y-13032886D01*
X12942857Y-12985267D01*
X12952381Y-12947171D01*
X12961905Y-12928124D01*
X12971428Y-12918600D01*
X12990476Y-12909076D01*
X13142857Y-13090028D02*
X13152381Y-13099552D01*
X13142857Y-13109076D01*
X13133333Y-13099552D01*
X13142857Y-13090028D01*
X13142857Y-13109076D01*
X13276190Y-12909076D02*
X13295238Y-12909076D01*
X13314286Y-12918600D01*
X13323809Y-12928124D01*
X13333333Y-12947171D01*
X13342857Y-12985267D01*
X13342857Y-13032886D01*
X13333333Y-13070981D01*
X13323809Y-13090028D01*
X13314286Y-13099552D01*
X13295238Y-13109076D01*
X13276190Y-13109076D01*
X13257143Y-13099552D01*
X13247619Y-13090028D01*
X13238095Y-13070981D01*
X13228571Y-13032886D01*
X13228571Y-12985267D01*
X13238095Y-12947171D01*
X13247619Y-12928124D01*
X13257143Y-12918600D01*
X13276190Y-12909076D01*
X13514286Y-12909076D02*
X13476190Y-12909076D01*
X13457143Y-12918600D01*
X13447619Y-12928124D01*
X13428571Y-12956695D01*
X13419048Y-12994790D01*
X13419048Y-13070981D01*
X13428571Y-13090028D01*
X13438095Y-13099552D01*
X13457143Y-13109076D01*
X13495238Y-13109076D01*
X13514286Y-13099552D01*
X13523809Y-13090028D01*
X13533333Y-13070981D01*
X13533333Y-13023362D01*
X13523809Y-13004314D01*
X13514286Y-12994790D01*
X13495238Y-12985267D01*
X13457143Y-12985267D01*
X13438095Y-12994790D01*
X13428571Y-13004314D01*
X13419048Y-13023362D01*
X13600000Y-12909076D02*
X13723809Y-12909076D01*
X13657143Y-12985267D01*
X13685714Y-12985267D01*
X13704762Y-12994790D01*
X13714286Y-13004314D01*
X13723809Y-13023362D01*
X13723809Y-13070981D01*
X13714286Y-13090028D01*
X13704762Y-13099552D01*
X13685714Y-13109076D01*
X13628571Y-13109076D01*
X13609524Y-13099552D01*
X13600000Y-13090028D01*
X13847619Y-12909076D02*
X13866667Y-12909076D01*
X13885714Y-12918600D01*
X13895238Y-12928124D01*
X13904762Y-12947171D01*
X13914286Y-12985267D01*
X13914286Y-13032886D01*
X13904762Y-13070981D01*
X13895238Y-13090028D01*
X13885714Y-13099552D01*
X13866667Y-13109076D01*
X13847619Y-13109076D01*
X13828571Y-13099552D01*
X13819048Y-13090028D01*
X13809524Y-13070981D01*
X13800000Y-13032886D01*
X13800000Y-12985267D01*
X13809524Y-12947171D01*
X13819048Y-12928124D01*
X13828571Y-12918600D01*
X13847619Y-12909076D01*
X13990476Y-12909076D02*
X13990476Y-12947171D01*
X14066667Y-12909076D02*
X14066667Y-12947171D01*
X14361905Y-13185267D02*
X14352381Y-13175743D01*
X14333333Y-13147171D01*
X14323809Y-13128124D01*
X14314286Y-13099552D01*
X14304762Y-13051933D01*
X14304762Y-13013838D01*
X14314286Y-12966219D01*
X14323809Y-12937648D01*
X14333333Y-12918600D01*
X14352381Y-12890028D01*
X14361905Y-12880505D01*
X14428571Y-12928124D02*
X14438095Y-12918600D01*
X14457143Y-12909076D01*
X14504762Y-12909076D01*
X14523809Y-12918600D01*
X14533333Y-12928124D01*
X14542857Y-12947171D01*
X14542857Y-12966219D01*
X14533333Y-12994790D01*
X14419048Y-13109076D01*
X14542857Y-13109076D01*
X14780952Y-13109076D02*
X14780952Y-12909076D01*
X14866667Y-13109076D02*
X14866667Y-13004314D01*
X14857143Y-12985267D01*
X14838095Y-12975743D01*
X14809524Y-12975743D01*
X14790476Y-12985267D01*
X14780952Y-12994790D01*
X14990476Y-13109076D02*
X14971428Y-13099552D01*
X14961905Y-13090028D01*
X14952381Y-13070981D01*
X14952381Y-13013838D01*
X14961905Y-12994790D01*
X14971428Y-12985267D01*
X14990476Y-12975743D01*
X15019048Y-12975743D01*
X15038095Y-12985267D01*
X15047619Y-12994790D01*
X15057143Y-13013838D01*
X15057143Y-13070981D01*
X15047619Y-13090028D01*
X15038095Y-13099552D01*
X15019048Y-13109076D01*
X14990476Y-13109076D01*
X15171428Y-13109076D02*
X15152381Y-13099552D01*
X15142857Y-13080505D01*
X15142857Y-12909076D01*
X15323809Y-13099552D02*
X15304762Y-13109076D01*
X15266667Y-13109076D01*
X15247619Y-13099552D01*
X15238095Y-13080505D01*
X15238095Y-13004314D01*
X15247619Y-12985267D01*
X15266667Y-12975743D01*
X15304762Y-12975743D01*
X15323809Y-12985267D01*
X15333333Y-13004314D01*
X15333333Y-13023362D01*
X15238095Y-13042409D01*
X15409524Y-13099552D02*
X15428571Y-13109076D01*
X15466667Y-13109076D01*
X15485714Y-13099552D01*
X15495238Y-13080505D01*
X15495238Y-13070981D01*
X15485714Y-13051933D01*
X15466667Y-13042409D01*
X15438095Y-13042409D01*
X15419048Y-13032886D01*
X15409524Y-13013838D01*
X15409524Y-13004314D01*
X15419048Y-12985267D01*
X15438095Y-12975743D01*
X15466667Y-12975743D01*
X15485714Y-12985267D01*
X15561905Y-13185267D02*
X15571428Y-13175743D01*
X15590476Y-13147171D01*
X15600000Y-13128124D01*
X15609524Y-13099552D01*
X15619048Y-13051933D01*
X15619048Y-13013838D01*
X15609524Y-12966219D01*
X15600000Y-12937648D01*
X15590476Y-12918600D01*
X15571428Y-12890028D01*
X15561905Y-12880505D01*
X10690000Y-13198600D02*
X10690000Y-13398600D01*
X10590000Y-13298600D02*
X10790000Y-13298600D01*
X10790000Y-13298600D02*
G75*
G03*
X10790000Y-13298600I-100000J0D01*
G01*
X11038095Y-13208124D02*
X11047619Y-13198600D01*
X11066667Y-13189076D01*
X11114286Y-13189076D01*
X11133333Y-13198600D01*
X11142857Y-13208124D01*
X11152381Y-13227171D01*
X11152381Y-13246219D01*
X11142857Y-13274790D01*
X11028571Y-13389076D01*
X11152381Y-13389076D01*
X11238095Y-13370028D02*
X11247619Y-13379552D01*
X11238095Y-13389076D01*
X11228571Y-13379552D01*
X11238095Y-13370028D01*
X11238095Y-13389076D01*
X11371428Y-13189076D02*
X11390476Y-13189076D01*
X11409524Y-13198600D01*
X11419048Y-13208124D01*
X11428571Y-13227171D01*
X11438095Y-13265267D01*
X11438095Y-13312886D01*
X11428571Y-13350981D01*
X11419048Y-13370028D01*
X11409524Y-13379552D01*
X11390476Y-13389076D01*
X11371428Y-13389076D01*
X11352381Y-13379552D01*
X11342857Y-13370028D01*
X11333333Y-13350981D01*
X11323809Y-13312886D01*
X11323809Y-13265267D01*
X11333333Y-13227171D01*
X11342857Y-13208124D01*
X11352381Y-13198600D01*
X11371428Y-13189076D01*
X11561905Y-13189076D02*
X11580952Y-13189076D01*
X11600000Y-13198600D01*
X11609524Y-13208124D01*
X11619048Y-13227171D01*
X11628571Y-13265267D01*
X11628571Y-13312886D01*
X11619048Y-13350981D01*
X11609524Y-13370028D01*
X11600000Y-13379552D01*
X11580952Y-13389076D01*
X11561905Y-13389076D01*
X11542857Y-13379552D01*
X11533333Y-13370028D01*
X11523809Y-13350981D01*
X11514286Y-13312886D01*
X11514286Y-13265267D01*
X11523809Y-13227171D01*
X11533333Y-13208124D01*
X11542857Y-13198600D01*
X11561905Y-13189076D01*
X11752381Y-13189076D02*
X11771428Y-13189076D01*
X11790476Y-13198600D01*
X11800000Y-13208124D01*
X11809524Y-13227171D01*
X11819048Y-13265267D01*
X11819048Y-13312886D01*
X11809524Y-13350981D01*
X11800000Y-13370028D01*
X11790476Y-13379552D01*
X11771428Y-13389076D01*
X11752381Y-13389076D01*
X11733333Y-13379552D01*
X11723809Y-13370028D01*
X11714286Y-13350981D01*
X11704762Y-13312886D01*
X11704762Y-13265267D01*
X11714286Y-13227171D01*
X11723809Y-13208124D01*
X11733333Y-13198600D01*
X11752381Y-13189076D01*
X11904762Y-13389076D02*
X11904762Y-13255743D01*
X11904762Y-13274790D02*
X11914286Y-13265267D01*
X11933333Y-13255743D01*
X11961905Y-13255743D01*
X11980952Y-13265267D01*
X11990476Y-13284314D01*
X11990476Y-13389076D01*
X11990476Y-13284314D02*
X12000000Y-13265267D01*
X12019048Y-13255743D01*
X12047619Y-13255743D01*
X12066667Y-13265267D01*
X12076190Y-13284314D01*
X12076190Y-13389076D01*
X12171428Y-13389076D02*
X12171428Y-13255743D01*
X12171428Y-13274790D02*
X12180952Y-13265267D01*
X12200000Y-13255743D01*
X12228571Y-13255743D01*
X12247619Y-13265267D01*
X12257143Y-13284314D01*
X12257143Y-13389076D01*
X12257143Y-13284314D02*
X12266667Y-13265267D01*
X12285714Y-13255743D01*
X12314286Y-13255743D01*
X12333333Y-13265267D01*
X12342857Y-13284314D01*
X12342857Y-13389076D01*
X12733333Y-13179552D02*
X12561905Y-13436695D01*
X12990476Y-13189076D02*
X13009524Y-13189076D01*
X13028571Y-13198600D01*
X13038095Y-13208124D01*
X13047619Y-13227171D01*
X13057143Y-13265267D01*
X13057143Y-13312886D01*
X13047619Y-13350981D01*
X13038095Y-13370028D01*
X13028571Y-13379552D01*
X13009524Y-13389076D01*
X12990476Y-13389076D01*
X12971428Y-13379552D01*
X12961905Y-13370028D01*
X12952381Y-13350981D01*
X12942857Y-13312886D01*
X12942857Y-13265267D01*
X12952381Y-13227171D01*
X12961905Y-13208124D01*
X12971428Y-13198600D01*
X12990476Y-13189076D01*
X13142857Y-13370028D02*
X13152381Y-13379552D01*
X13142857Y-13389076D01*
X13133333Y-13379552D01*
X13142857Y-13370028D01*
X13142857Y-13389076D01*
X13276190Y-13189076D02*
X13295238Y-13189076D01*
X13314286Y-13198600D01*
X13323809Y-13208124D01*
X13333333Y-13227171D01*
X13342857Y-13265267D01*
X13342857Y-13312886D01*
X13333333Y-13350981D01*
X13323809Y-13370028D01*
X13314286Y-13379552D01*
X13295238Y-13389076D01*
X13276190Y-13389076D01*
X13257143Y-13379552D01*
X13247619Y-13370028D01*
X13238095Y-13350981D01*
X13228571Y-13312886D01*
X13228571Y-13265267D01*
X13238095Y-13227171D01*
X13247619Y-13208124D01*
X13257143Y-13198600D01*
X13276190Y-13189076D01*
X13409524Y-13189076D02*
X13542857Y-13189076D01*
X13457143Y-13389076D01*
X13647619Y-13274790D02*
X13628571Y-13265267D01*
X13619048Y-13255743D01*
X13609524Y-13236695D01*
X13609524Y-13227171D01*
X13619048Y-13208124D01*
X13628571Y-13198600D01*
X13647619Y-13189076D01*
X13685714Y-13189076D01*
X13704762Y-13198600D01*
X13714286Y-13208124D01*
X13723809Y-13227171D01*
X13723809Y-13236695D01*
X13714286Y-13255743D01*
X13704762Y-13265267D01*
X13685714Y-13274790D01*
X13647619Y-13274790D01*
X13628571Y-13284314D01*
X13619048Y-13293838D01*
X13609524Y-13312886D01*
X13609524Y-13350981D01*
X13619048Y-13370028D01*
X13628571Y-13379552D01*
X13647619Y-13389076D01*
X13685714Y-13389076D01*
X13704762Y-13379552D01*
X13714286Y-13370028D01*
X13723809Y-13350981D01*
X13723809Y-13312886D01*
X13714286Y-13293838D01*
X13704762Y-13284314D01*
X13685714Y-13274790D01*
X13790476Y-13189076D02*
X13923809Y-13189076D01*
X13838095Y-13389076D01*
X13990476Y-13189076D02*
X13990476Y-13227171D01*
X14066667Y-13189076D02*
X14066667Y-13227171D01*
X14361905Y-13465267D02*
X14352381Y-13455743D01*
X14333333Y-13427171D01*
X14323809Y-13408124D01*
X14314286Y-13379552D01*
X14304762Y-13331933D01*
X14304762Y-13293838D01*
X14314286Y-13246219D01*
X14323809Y-13217648D01*
X14333333Y-13198600D01*
X14352381Y-13170028D01*
X14361905Y-13160505D01*
X14476190Y-13189076D02*
X14495238Y-13189076D01*
X14514286Y-13198600D01*
X14523809Y-13208124D01*
X14533333Y-13227171D01*
X14542857Y-13265267D01*
X14542857Y-13312886D01*
X14533333Y-13350981D01*
X14523809Y-13370028D01*
X14514286Y-13379552D01*
X14495238Y-13389076D01*
X14476190Y-13389076D01*
X14457143Y-13379552D01*
X14447619Y-13370028D01*
X14438095Y-13350981D01*
X14428571Y-13312886D01*
X14428571Y-13265267D01*
X14438095Y-13227171D01*
X14447619Y-13208124D01*
X14457143Y-13198600D01*
X14476190Y-13189076D01*
X14780952Y-13389076D02*
X14780952Y-13189076D01*
X14866667Y-13389076D02*
X14866667Y-13284314D01*
X14857143Y-13265267D01*
X14838095Y-13255743D01*
X14809524Y-13255743D01*
X14790476Y-13265267D01*
X14780952Y-13274790D01*
X14990476Y-13389076D02*
X14971428Y-13379552D01*
X14961905Y-13370028D01*
X14952381Y-13350981D01*
X14952381Y-13293838D01*
X14961905Y-13274790D01*
X14971428Y-13265267D01*
X14990476Y-13255743D01*
X15019048Y-13255743D01*
X15038095Y-13265267D01*
X15047619Y-13274790D01*
X15057143Y-13293838D01*
X15057143Y-13350981D01*
X15047619Y-13370028D01*
X15038095Y-13379552D01*
X15019048Y-13389076D01*
X14990476Y-13389076D01*
X15171428Y-13389076D02*
X15152381Y-13379552D01*
X15142857Y-13360505D01*
X15142857Y-13189076D01*
X15323809Y-13379552D02*
X15304762Y-13389076D01*
X15266667Y-13389076D01*
X15247619Y-13379552D01*
X15238095Y-13360505D01*
X15238095Y-13284314D01*
X15247619Y-13265267D01*
X15266667Y-13255743D01*
X15304762Y-13255743D01*
X15323809Y-13265267D01*
X15333333Y-13284314D01*
X15333333Y-13303362D01*
X15238095Y-13322409D01*
X15409524Y-13379552D02*
X15428571Y-13389076D01*
X15466667Y-13389076D01*
X15485714Y-13379552D01*
X15495238Y-13360505D01*
X15495238Y-13350981D01*
X15485714Y-13331933D01*
X15466667Y-13322409D01*
X15438095Y-13322409D01*
X15419048Y-13312886D01*
X15409524Y-13293838D01*
X15409524Y-13284314D01*
X15419048Y-13265267D01*
X15438095Y-13255743D01*
X15466667Y-13255743D01*
X15485714Y-13265267D01*
X15733333Y-13312886D02*
X15885714Y-13312886D01*
X15809524Y-13389076D02*
X15809524Y-13236695D01*
X16123809Y-13208124D02*
X16133333Y-13198600D01*
X16152381Y-13189076D01*
X16200000Y-13189076D01*
X16219048Y-13198600D01*
X16228571Y-13208124D01*
X16238095Y-13227171D01*
X16238095Y-13246219D01*
X16228571Y-13274790D01*
X16114286Y-13389076D01*
X16238095Y-13389076D01*
X16466667Y-13379552D02*
X16485714Y-13389076D01*
X16523809Y-13389076D01*
X16542857Y-13379552D01*
X16552381Y-13360505D01*
X16552381Y-13350981D01*
X16542857Y-13331933D01*
X16523809Y-13322409D01*
X16495238Y-13322409D01*
X16476190Y-13312886D01*
X16466667Y-13293838D01*
X16466667Y-13284314D01*
X16476190Y-13265267D01*
X16495238Y-13255743D01*
X16523809Y-13255743D01*
X16542857Y-13265267D01*
X16666667Y-13389076D02*
X16647619Y-13379552D01*
X16638095Y-13360505D01*
X16638095Y-13189076D01*
X16771428Y-13389076D02*
X16752381Y-13379552D01*
X16742857Y-13370028D01*
X16733333Y-13350981D01*
X16733333Y-13293838D01*
X16742857Y-13274790D01*
X16752381Y-13265267D01*
X16771428Y-13255743D01*
X16800000Y-13255743D01*
X16819048Y-13265267D01*
X16828571Y-13274790D01*
X16838095Y-13293838D01*
X16838095Y-13350981D01*
X16828571Y-13370028D01*
X16819048Y-13379552D01*
X16800000Y-13389076D01*
X16771428Y-13389076D01*
X16895238Y-13255743D02*
X16971429Y-13255743D01*
X16923810Y-13189076D02*
X16923810Y-13360505D01*
X16933333Y-13379552D01*
X16952381Y-13389076D01*
X16971429Y-13389076D01*
X17028571Y-13379552D02*
X17047619Y-13389076D01*
X17085714Y-13389076D01*
X17104762Y-13379552D01*
X17114286Y-13360505D01*
X17114286Y-13350981D01*
X17104762Y-13331933D01*
X17085714Y-13322409D01*
X17057143Y-13322409D01*
X17038095Y-13312886D01*
X17028571Y-13293838D01*
X17028571Y-13284314D01*
X17038095Y-13265267D01*
X17057143Y-13255743D01*
X17085714Y-13255743D01*
X17104762Y-13265267D01*
X17180952Y-13465267D02*
X17190476Y-13455743D01*
X17209524Y-13427171D01*
X17219048Y-13408124D01*
X17228571Y-13379552D01*
X17238095Y-13331933D01*
X17238095Y-13293838D01*
X17228571Y-13246219D01*
X17219048Y-13217648D01*
X17209524Y-13198600D01*
X17190476Y-13170028D01*
X17180952Y-13160505D01*
X10760711Y-13689311D02*
X10760711Y-13547889D01*
X10619289Y-13547889D01*
X10619289Y-13689311D01*
X10760711Y-13689311D01*
X10790000Y-13618600D02*
G75*
G03*
X10790000Y-13618600I-100000J0D01*
G01*
X11028571Y-13509076D02*
X11152381Y-13509076D01*
X11085714Y-13585267D01*
X11114286Y-13585267D01*
X11133333Y-13594790D01*
X11142857Y-13604314D01*
X11152381Y-13623362D01*
X11152381Y-13670981D01*
X11142857Y-13690028D01*
X11133333Y-13699552D01*
X11114286Y-13709076D01*
X11057143Y-13709076D01*
X11038095Y-13699552D01*
X11028571Y-13690028D01*
X11238095Y-13690028D02*
X11247619Y-13699552D01*
X11238095Y-13709076D01*
X11228571Y-13699552D01*
X11238095Y-13690028D01*
X11238095Y-13709076D01*
X11323809Y-13528124D02*
X11333333Y-13518600D01*
X11352381Y-13509076D01*
X11400000Y-13509076D01*
X11419048Y-13518600D01*
X11428571Y-13528124D01*
X11438095Y-13547171D01*
X11438095Y-13566219D01*
X11428571Y-13594790D01*
X11314286Y-13709076D01*
X11438095Y-13709076D01*
X11619048Y-13509076D02*
X11523809Y-13509076D01*
X11514286Y-13604314D01*
X11523809Y-13594790D01*
X11542857Y-13585267D01*
X11590476Y-13585267D01*
X11609524Y-13594790D01*
X11619048Y-13604314D01*
X11628571Y-13623362D01*
X11628571Y-13670981D01*
X11619048Y-13690028D01*
X11609524Y-13699552D01*
X11590476Y-13709076D01*
X11542857Y-13709076D01*
X11523809Y-13699552D01*
X11514286Y-13690028D01*
X11752381Y-13509076D02*
X11771428Y-13509076D01*
X11790476Y-13518600D01*
X11800000Y-13528124D01*
X11809524Y-13547171D01*
X11819048Y-13585267D01*
X11819048Y-13632886D01*
X11809524Y-13670981D01*
X11800000Y-13690028D01*
X11790476Y-13699552D01*
X11771428Y-13709076D01*
X11752381Y-13709076D01*
X11733333Y-13699552D01*
X11723809Y-13690028D01*
X11714286Y-13670981D01*
X11704762Y-13632886D01*
X11704762Y-13585267D01*
X11714286Y-13547171D01*
X11723809Y-13528124D01*
X11733333Y-13518600D01*
X11752381Y-13509076D01*
X11904762Y-13709076D02*
X11904762Y-13575743D01*
X11904762Y-13594790D02*
X11914286Y-13585267D01*
X11933333Y-13575743D01*
X11961905Y-13575743D01*
X11980952Y-13585267D01*
X11990476Y-13604314D01*
X11990476Y-13709076D01*
X11990476Y-13604314D02*
X12000000Y-13585267D01*
X12019048Y-13575743D01*
X12047619Y-13575743D01*
X12066667Y-13585267D01*
X12076190Y-13604314D01*
X12076190Y-13709076D01*
X12171428Y-13709076D02*
X12171428Y-13575743D01*
X12171428Y-13594790D02*
X12180952Y-13585267D01*
X12200000Y-13575743D01*
X12228571Y-13575743D01*
X12247619Y-13585267D01*
X12257143Y-13604314D01*
X12257143Y-13709076D01*
X12257143Y-13604314D02*
X12266667Y-13585267D01*
X12285714Y-13575743D01*
X12314286Y-13575743D01*
X12333333Y-13585267D01*
X12342857Y-13604314D01*
X12342857Y-13709076D01*
X12733333Y-13499552D02*
X12561905Y-13756695D01*
X12990476Y-13509076D02*
X13009524Y-13509076D01*
X13028571Y-13518600D01*
X13038095Y-13528124D01*
X13047619Y-13547171D01*
X13057143Y-13585267D01*
X13057143Y-13632886D01*
X13047619Y-13670981D01*
X13038095Y-13690028D01*
X13028571Y-13699552D01*
X13009524Y-13709076D01*
X12990476Y-13709076D01*
X12971428Y-13699552D01*
X12961905Y-13690028D01*
X12952381Y-13670981D01*
X12942857Y-13632886D01*
X12942857Y-13585267D01*
X12952381Y-13547171D01*
X12961905Y-13528124D01*
X12971428Y-13518600D01*
X12990476Y-13509076D01*
X13142857Y-13690028D02*
X13152381Y-13699552D01*
X13142857Y-13709076D01*
X13133333Y-13699552D01*
X13142857Y-13690028D01*
X13142857Y-13709076D01*
X13342857Y-13709076D02*
X13228571Y-13709076D01*
X13285714Y-13709076D02*
X13285714Y-13509076D01*
X13266667Y-13537648D01*
X13247619Y-13556695D01*
X13228571Y-13566219D01*
X13419048Y-13528124D02*
X13428571Y-13518600D01*
X13447619Y-13509076D01*
X13495238Y-13509076D01*
X13514286Y-13518600D01*
X13523809Y-13528124D01*
X13533333Y-13547171D01*
X13533333Y-13566219D01*
X13523809Y-13594790D01*
X13409524Y-13709076D01*
X13533333Y-13709076D01*
X13647619Y-13594790D02*
X13628571Y-13585267D01*
X13619048Y-13575743D01*
X13609524Y-13556695D01*
X13609524Y-13547171D01*
X13619048Y-13528124D01*
X13628571Y-13518600D01*
X13647619Y-13509076D01*
X13685714Y-13509076D01*
X13704762Y-13518600D01*
X13714286Y-13528124D01*
X13723809Y-13547171D01*
X13723809Y-13556695D01*
X13714286Y-13575743D01*
X13704762Y-13585267D01*
X13685714Y-13594790D01*
X13647619Y-13594790D01*
X13628571Y-13604314D01*
X13619048Y-13613838D01*
X13609524Y-13632886D01*
X13609524Y-13670981D01*
X13619048Y-13690028D01*
X13628571Y-13699552D01*
X13647619Y-13709076D01*
X13685714Y-13709076D01*
X13704762Y-13699552D01*
X13714286Y-13690028D01*
X13723809Y-13670981D01*
X13723809Y-13632886D01*
X13714286Y-13613838D01*
X13704762Y-13604314D01*
X13685714Y-13594790D01*
X13847619Y-13509076D02*
X13866667Y-13509076D01*
X13885714Y-13518600D01*
X13895238Y-13528124D01*
X13904762Y-13547171D01*
X13914286Y-13585267D01*
X13914286Y-13632886D01*
X13904762Y-13670981D01*
X13895238Y-13690028D01*
X13885714Y-13699552D01*
X13866667Y-13709076D01*
X13847619Y-13709076D01*
X13828571Y-13699552D01*
X13819048Y-13690028D01*
X13809524Y-13670981D01*
X13800000Y-13632886D01*
X13800000Y-13585267D01*
X13809524Y-13547171D01*
X13819048Y-13528124D01*
X13828571Y-13518600D01*
X13847619Y-13509076D01*
X13990476Y-13509076D02*
X13990476Y-13547171D01*
X14066667Y-13509076D02*
X14066667Y-13547171D01*
X14361905Y-13785267D02*
X14352381Y-13775743D01*
X14333333Y-13747171D01*
X14323809Y-13728124D01*
X14314286Y-13699552D01*
X14304762Y-13651933D01*
X14304762Y-13613838D01*
X14314286Y-13566219D01*
X14323809Y-13537648D01*
X14333333Y-13518600D01*
X14352381Y-13490028D01*
X14361905Y-13480505D01*
X14428571Y-13528124D02*
X14438095Y-13518600D01*
X14457143Y-13509076D01*
X14504762Y-13509076D01*
X14523809Y-13518600D01*
X14533333Y-13528124D01*
X14542857Y-13547171D01*
X14542857Y-13566219D01*
X14533333Y-13594790D01*
X14419048Y-13709076D01*
X14542857Y-13709076D01*
X14780952Y-13709076D02*
X14780952Y-13509076D01*
X14866667Y-13709076D02*
X14866667Y-13604314D01*
X14857143Y-13585267D01*
X14838095Y-13575743D01*
X14809524Y-13575743D01*
X14790476Y-13585267D01*
X14780952Y-13594790D01*
X14990476Y-13709076D02*
X14971428Y-13699552D01*
X14961905Y-13690028D01*
X14952381Y-13670981D01*
X14952381Y-13613838D01*
X14961905Y-13594790D01*
X14971428Y-13585267D01*
X14990476Y-13575743D01*
X15019048Y-13575743D01*
X15038095Y-13585267D01*
X15047619Y-13594790D01*
X15057143Y-13613838D01*
X15057143Y-13670981D01*
X15047619Y-13690028D01*
X15038095Y-13699552D01*
X15019048Y-13709076D01*
X14990476Y-13709076D01*
X15171428Y-13709076D02*
X15152381Y-13699552D01*
X15142857Y-13680505D01*
X15142857Y-13509076D01*
X15323809Y-13699552D02*
X15304762Y-13709076D01*
X15266667Y-13709076D01*
X15247619Y-13699552D01*
X15238095Y-13680505D01*
X15238095Y-13604314D01*
X15247619Y-13585267D01*
X15266667Y-13575743D01*
X15304762Y-13575743D01*
X15323809Y-13585267D01*
X15333333Y-13604314D01*
X15333333Y-13623362D01*
X15238095Y-13642409D01*
X15409524Y-13699552D02*
X15428571Y-13709076D01*
X15466667Y-13709076D01*
X15485714Y-13699552D01*
X15495238Y-13680505D01*
X15495238Y-13670981D01*
X15485714Y-13651933D01*
X15466667Y-13642409D01*
X15438095Y-13642409D01*
X15419048Y-13632886D01*
X15409524Y-13613838D01*
X15409524Y-13604314D01*
X15419048Y-13585267D01*
X15438095Y-13575743D01*
X15466667Y-13575743D01*
X15485714Y-13585267D01*
X15561905Y-13785267D02*
X15571428Y-13775743D01*
X15590476Y-13747171D01*
X15600000Y-13728124D01*
X15609524Y-13699552D01*
X15619048Y-13651933D01*
X15619048Y-13613838D01*
X15609524Y-13566219D01*
X15600000Y-13537648D01*
X15590476Y-13518600D01*
X15571428Y-13490028D01*
X15561905Y-13480505D01*
M02*
