%TF.GenerationSoftware,KiCad,Pcbnew,(6.0.7)*%
%TF.CreationDate,2023-04-22T03:46:43-05:00*%
%TF.ProjectId,Flouro_Breakout,466c6f75-726f-45f4-9272-65616b6f7574,rev?*%
%TF.SameCoordinates,Original*%
%TF.FileFunction,Legend,Bot*%
%TF.FilePolarity,Positive*%
%FSLAX46Y46*%
G04 Gerber Fmt 4.6, Leading zero omitted, Abs format (unit mm)*
G04 Created by KiCad (PCBNEW (6.0.7)) date 2023-04-22 03:46:43*
%MOMM*%
%LPD*%
G01*
G04 APERTURE LIST*
G04 Aperture macros list*
%AMRoundRect*
0 Rectangle with rounded corners*
0 $1 Rounding radius*
0 $2 $3 $4 $5 $6 $7 $8 $9 X,Y pos of 4 corners*
0 Add a 4 corners polygon primitive as box body*
4,1,4,$2,$3,$4,$5,$6,$7,$8,$9,$2,$3,0*
0 Add four circle primitives for the rounded corners*
1,1,$1+$1,$2,$3*
1,1,$1+$1,$4,$5*
1,1,$1+$1,$6,$7*
1,1,$1+$1,$8,$9*
0 Add four rect primitives between the rounded corners*
20,1,$1+$1,$2,$3,$4,$5,0*
20,1,$1+$1,$4,$5,$6,$7,0*
20,1,$1+$1,$6,$7,$8,$9,0*
20,1,$1+$1,$8,$9,$2,$3,0*%
G04 Aperture macros list end*
%ADD10RoundRect,0.250000X-0.620000X-0.620000X0.620000X-0.620000X0.620000X0.620000X-0.620000X0.620000X0*%
%ADD11C,1.740000*%
%ADD12C,2.946400*%
%ADD13C,1.524000*%
%ADD14O,5.100000X3.000000*%
%ADD15C,1.308000*%
%ADD16C,1.258000*%
%ADD17C,1.208000*%
%ADD18C,1.100000*%
%ADD19C,1.400000*%
%ADD20C,4.000000*%
%ADD21C,2.000000*%
G04 APERTURE END LIST*
%TO.C,G\u002A\u002A\u002A*%
G36*
X188852898Y-67535808D02*
G01*
X188657121Y-67624158D01*
X188525527Y-67591755D01*
X188227788Y-67365253D01*
X187909080Y-66969756D01*
X187762154Y-66719159D01*
X188125523Y-66719159D01*
X188223554Y-66922316D01*
X188331866Y-67102413D01*
X188460032Y-67219457D01*
X188508105Y-67105790D01*
X188465622Y-67001992D01*
X188285692Y-66805001D01*
X188176356Y-66718865D01*
X188125523Y-66719159D01*
X187762154Y-66719159D01*
X187610955Y-66461273D01*
X187541987Y-66296020D01*
X187872461Y-66296020D01*
X187906526Y-66421000D01*
X187933992Y-66460573D01*
X188055990Y-66554684D01*
X188074276Y-66545980D01*
X188040211Y-66421000D01*
X188012745Y-66381427D01*
X187890747Y-66287316D01*
X187872461Y-66296020D01*
X187541987Y-66296020D01*
X187374961Y-65895813D01*
X187301466Y-65703747D01*
X187068295Y-65260236D01*
X186814930Y-64936254D01*
X186467328Y-64616263D01*
X186560806Y-65151000D01*
X186628348Y-65402978D01*
X186799923Y-65878314D01*
X187040383Y-66459260D01*
X187320414Y-67071694D01*
X187561587Y-67588682D01*
X187764798Y-68057043D01*
X187890204Y-68386582D01*
X187917182Y-68527011D01*
X187842310Y-68494386D01*
X187615374Y-68306036D01*
X187279221Y-67987265D01*
X186874543Y-67575221D01*
X186562583Y-67257327D01*
X186179214Y-66894076D01*
X185883526Y-66646076D01*
X185721869Y-66554377D01*
X185632044Y-66601445D01*
X185588989Y-66780450D01*
X185579509Y-66819862D01*
X185588185Y-67256527D01*
X185597238Y-67411121D01*
X185597185Y-67751799D01*
X185541439Y-67903096D01*
X185415041Y-67922553D01*
X185261575Y-67958171D01*
X185118057Y-68198031D01*
X185071223Y-68328163D01*
X184887265Y-68681099D01*
X184634231Y-69069373D01*
X184357780Y-69389819D01*
X183988222Y-69616380D01*
X183647444Y-69584072D01*
X183346236Y-69291039D01*
X183229887Y-69069066D01*
X183213757Y-68879486D01*
X183335090Y-68871198D01*
X183553827Y-69084128D01*
X183639632Y-69186705D01*
X183860257Y-69324229D01*
X184085338Y-69249270D01*
X184338404Y-68947114D01*
X184642982Y-68403049D01*
X185065780Y-67565490D01*
X184322998Y-66892982D01*
X183823097Y-66402038D01*
X183374328Y-65851213D01*
X183115655Y-65380673D01*
X183056937Y-65050737D01*
X183294921Y-65050737D01*
X183294948Y-65052917D01*
X183387750Y-65301170D01*
X183629062Y-65669959D01*
X183973363Y-66097313D01*
X184375132Y-66521263D01*
X184653233Y-66779371D01*
X184921622Y-67003269D01*
X185064362Y-67089421D01*
X185119442Y-67030583D01*
X185159634Y-66780450D01*
X185155869Y-66411479D01*
X185110445Y-66008732D01*
X185025662Y-65657270D01*
X184835724Y-65336821D01*
X184551477Y-65102585D01*
X184408235Y-65050353D01*
X184057910Y-64978827D01*
X183694634Y-64952534D01*
X183409829Y-64975246D01*
X183294921Y-65050737D01*
X183056937Y-65050737D01*
X183049559Y-65009277D01*
X183178522Y-64755884D01*
X183505028Y-64639351D01*
X184031556Y-64678538D01*
X184119016Y-64696399D01*
X184518572Y-64792715D01*
X184803313Y-64883084D01*
X184907954Y-64948993D01*
X185152117Y-65230770D01*
X185351122Y-65600199D01*
X185433369Y-65937458D01*
X185490950Y-66075345D01*
X185715515Y-66225164D01*
X185840490Y-66282575D01*
X186162467Y-66494585D01*
X186517153Y-66784043D01*
X187036644Y-67253372D01*
X186702836Y-66524239D01*
X186663106Y-66436197D01*
X186397836Y-65754995D01*
X186247209Y-65181856D01*
X186210288Y-64743907D01*
X186286136Y-64468281D01*
X186473813Y-64382107D01*
X186772383Y-64512515D01*
X186829895Y-64548000D01*
X187207500Y-64684985D01*
X187646626Y-64745816D01*
X187763271Y-64751756D01*
X188307326Y-64890452D01*
X188828372Y-65224009D01*
X189343332Y-65769613D01*
X189869125Y-66544452D01*
X190422670Y-67565713D01*
X190509845Y-67737182D01*
X190781702Y-68203560D01*
X190999774Y-68436500D01*
X191186165Y-68452511D01*
X191362978Y-68268104D01*
X191372291Y-68253154D01*
X191518786Y-67893551D01*
X191601402Y-67469993D01*
X191608040Y-67336404D01*
X191567164Y-67045884D01*
X191409306Y-66759215D01*
X191092245Y-66386560D01*
X190859208Y-66121505D01*
X190539737Y-65663248D01*
X190407226Y-65266392D01*
X190412886Y-65191807D01*
X190698257Y-65191807D01*
X190825205Y-65573408D01*
X190827596Y-65577980D01*
X191072265Y-65942565D01*
X191381433Y-66287316D01*
X191740164Y-66621527D01*
X191643636Y-66086790D01*
X191573815Y-65772244D01*
X191399201Y-65277520D01*
X191189623Y-64940993D01*
X190973635Y-64816790D01*
X190964714Y-64816886D01*
X190748133Y-64922439D01*
X190698257Y-65191807D01*
X190412886Y-65191807D01*
X190437003Y-64873984D01*
X190445774Y-64841276D01*
X190591614Y-64612120D01*
X190896249Y-64549421D01*
X191196409Y-64607519D01*
X191482094Y-64783369D01*
X191585884Y-64934652D01*
X191773441Y-65369486D01*
X191927233Y-65920040D01*
X192016392Y-66487842D01*
X192017654Y-66501782D01*
X192050063Y-66621527D01*
X192090191Y-66769789D01*
X192289181Y-66985934D01*
X192677675Y-67220027D01*
X193103594Y-67421220D01*
X193340594Y-67461783D01*
X193405801Y-67332052D01*
X193321739Y-67025214D01*
X193149459Y-66394210D01*
X193037523Y-65592885D01*
X193005103Y-64762869D01*
X193062432Y-64022657D01*
X193074392Y-63952068D01*
X193286464Y-63147053D01*
X193616999Y-62359122D01*
X194030180Y-61650557D01*
X194490194Y-61083643D01*
X194961223Y-60720662D01*
X195231269Y-60607818D01*
X195669587Y-60579651D01*
X196004751Y-60794774D01*
X196234770Y-61250152D01*
X196357652Y-61942750D01*
X196371405Y-62869533D01*
X196359055Y-63139314D01*
X196311023Y-63699143D01*
X196217950Y-64168269D01*
X196053461Y-64655856D01*
X195791180Y-65271067D01*
X195452332Y-65968249D01*
X195147704Y-66454462D01*
X194899044Y-66681673D01*
X194707171Y-66648838D01*
X194692227Y-66558653D01*
X194826795Y-66386198D01*
X194884956Y-66324044D01*
X195067520Y-66039922D01*
X195298554Y-65604698D01*
X195541925Y-65084158D01*
X195713328Y-64677915D01*
X195921667Y-64079652D01*
X196040148Y-63519704D01*
X196099404Y-62876778D01*
X196107292Y-62405021D01*
X196058114Y-61780269D01*
X195947987Y-61272356D01*
X195789077Y-60931087D01*
X195593551Y-60806263D01*
X195483244Y-60815410D01*
X195043403Y-61008270D01*
X194583670Y-61432839D01*
X194126665Y-62064434D01*
X193695002Y-62878369D01*
X193634134Y-63016269D01*
X193509327Y-63371494D01*
X193434376Y-63760447D01*
X193397763Y-64260862D01*
X193387968Y-64950474D01*
X193389088Y-65179450D01*
X193418692Y-65939838D01*
X193493913Y-66513122D01*
X193621974Y-66961378D01*
X193707998Y-67177508D01*
X193835726Y-67411951D01*
X194015260Y-67560020D01*
X194316195Y-67670446D01*
X194808125Y-67791962D01*
X195296366Y-67919504D01*
X196290185Y-68290001D01*
X197035068Y-68753174D01*
X197533048Y-69311013D01*
X197786161Y-69965512D01*
X197791449Y-70353035D01*
X197796439Y-70718662D01*
X197767742Y-70887447D01*
X197647405Y-71278870D01*
X197493842Y-71487487D01*
X197386152Y-71533473D01*
X197031183Y-71512104D01*
X196608484Y-71246733D01*
X196425115Y-71067299D01*
X196122045Y-70739793D01*
X195740522Y-70311008D01*
X195317183Y-69823914D01*
X194888662Y-69321481D01*
X194491595Y-68846677D01*
X194162618Y-68442473D01*
X193938366Y-68151838D01*
X193914088Y-68112563D01*
X194420843Y-68112563D01*
X194534240Y-68340529D01*
X194779203Y-68701633D01*
X195127037Y-69158619D01*
X195549046Y-69674232D01*
X196016536Y-70211216D01*
X196500812Y-70732316D01*
X196646173Y-70877106D01*
X197009754Y-71161990D01*
X197259336Y-71213169D01*
X197402301Y-71033105D01*
X197432739Y-70935944D01*
X197533087Y-70617737D01*
X197564376Y-70353035D01*
X197457793Y-69872386D01*
X197197198Y-69385066D01*
X196821624Y-68980878D01*
X196650225Y-68860932D01*
X196211368Y-68619314D01*
X195692267Y-68387114D01*
X195171203Y-68194816D01*
X194726454Y-68072909D01*
X194436298Y-68051878D01*
X194420843Y-68112563D01*
X193914088Y-68112563D01*
X193855474Y-68017741D01*
X193853947Y-68008605D01*
X193715481Y-67910515D01*
X193421000Y-67818992D01*
X193363642Y-67805509D01*
X192929195Y-67664188D01*
X192488073Y-67472903D01*
X191989620Y-67220592D01*
X191909049Y-67589480D01*
X191744924Y-68180369D01*
X191526499Y-68596134D01*
X191252976Y-68782368D01*
X190907818Y-68758378D01*
X190857629Y-68728909D01*
X190659589Y-68507975D01*
X190404473Y-68128911D01*
X190134738Y-67652452D01*
X189769844Y-66984599D01*
X189286541Y-66208659D01*
X188849958Y-65638483D01*
X188477338Y-65298558D01*
X188463787Y-65289898D01*
X188141094Y-65126597D01*
X187806799Y-65015707D01*
X187545030Y-64978499D01*
X187439917Y-65036245D01*
X187447050Y-65062131D01*
X187563862Y-65266907D01*
X187794127Y-65607874D01*
X188099140Y-66026870D01*
X188251836Y-66234175D01*
X188457087Y-66545980D01*
X188649224Y-66837864D01*
X188772878Y-67105790D01*
X188849922Y-67272725D01*
X188852898Y-67535808D01*
G37*
G36*
X176517359Y-70149303D02*
G01*
X176386957Y-70210965D01*
X175903359Y-70258872D01*
X175356710Y-70086595D01*
X174779591Y-69713615D01*
X174204586Y-69159414D01*
X173664279Y-68443473D01*
X173458874Y-68126473D01*
X172765229Y-68489170D01*
X172209685Y-68746908D01*
X171474432Y-68952162D01*
X170863618Y-68929829D01*
X170365737Y-68678707D01*
X169969284Y-68197598D01*
X169709749Y-67582967D01*
X169548621Y-66713268D01*
X169541764Y-66225561D01*
X169814581Y-66225561D01*
X169897190Y-67109762D01*
X170119604Y-67852936D01*
X170469629Y-68405011D01*
X170702284Y-68580003D01*
X171167787Y-68693526D01*
X171250181Y-68689020D01*
X171617850Y-68610552D01*
X172057586Y-68458030D01*
X172503949Y-68262259D01*
X172891501Y-68054044D01*
X173082623Y-67916234D01*
X173673312Y-67916234D01*
X174058939Y-68472038D01*
X174496944Y-69036401D01*
X175054191Y-69574737D01*
X175582861Y-69888285D01*
X175650131Y-69913538D01*
X175949584Y-70007719D01*
X176149460Y-69998684D01*
X176376263Y-69886082D01*
X176478142Y-69794532D01*
X176596174Y-69467841D01*
X176574990Y-69030777D01*
X176412355Y-68565113D01*
X176020519Y-68043555D01*
X175479623Y-67718642D01*
X174828296Y-67624588D01*
X174328284Y-67723501D01*
X174092237Y-67770196D01*
X173673312Y-67916234D01*
X173082623Y-67916234D01*
X173154802Y-67864189D01*
X173228414Y-67723501D01*
X173154358Y-67541002D01*
X172820016Y-66700477D01*
X172571180Y-66035838D01*
X172388329Y-65489524D01*
X172251941Y-65003977D01*
X172142495Y-64521636D01*
X172124100Y-64430904D01*
X172026261Y-63910787D01*
X171957336Y-63481123D01*
X171931263Y-63227318D01*
X171834904Y-62995046D01*
X171579391Y-62722766D01*
X171257604Y-62501668D01*
X170962874Y-62410474D01*
X170846395Y-62461104D01*
X170642226Y-62726112D01*
X170428996Y-63173249D01*
X170223826Y-63751835D01*
X170043840Y-64411193D01*
X169906162Y-65100643D01*
X169827915Y-65769508D01*
X169814581Y-66225561D01*
X169541764Y-66225561D01*
X169534796Y-65729937D01*
X169664511Y-64689250D01*
X169934003Y-63647482D01*
X170339509Y-62660909D01*
X170473699Y-62422612D01*
X170746036Y-62139868D01*
X171064986Y-62099619D01*
X171478441Y-62286105D01*
X171696748Y-62412019D01*
X171880338Y-62469042D01*
X171931263Y-62375254D01*
X172010145Y-62169888D01*
X172196379Y-61949215D01*
X172406025Y-61795050D01*
X172555123Y-61786614D01*
X172558041Y-61903642D01*
X172420619Y-62119391D01*
X172412608Y-62128301D01*
X172266017Y-62338968D01*
X172222166Y-62569914D01*
X172292496Y-62871652D01*
X172488444Y-63294699D01*
X172821449Y-63889570D01*
X172911593Y-64046590D01*
X173194316Y-64583882D01*
X173323220Y-64929587D01*
X173305075Y-65100662D01*
X173204710Y-65111420D01*
X173028022Y-64917035D01*
X172782521Y-64480787D01*
X172584846Y-64127375D01*
X172431864Y-63925165D01*
X172358553Y-63921447D01*
X172350142Y-64051128D01*
X172401252Y-64434900D01*
X172525509Y-64942516D01*
X172702840Y-65519322D01*
X172913174Y-66110660D01*
X173136440Y-66661876D01*
X173352565Y-67118314D01*
X173541477Y-67425317D01*
X173683106Y-67528232D01*
X173747388Y-67517218D01*
X174053118Y-67458332D01*
X174453474Y-67376218D01*
X175177615Y-67328007D01*
X175793892Y-67519477D01*
X176324552Y-67957962D01*
X176590886Y-68315271D01*
X176845714Y-68868071D01*
X176921476Y-69392946D01*
X176903295Y-69467841D01*
X176813561Y-69837491D01*
X176517359Y-70149303D01*
G37*
G36*
X168125740Y-68074485D02*
G01*
X168196865Y-68064591D01*
X168488645Y-68023288D01*
X168889947Y-67966031D01*
X168931990Y-67960195D01*
X169343004Y-67932252D01*
X169516624Y-67976522D01*
X169463823Y-68070154D01*
X169195571Y-68190292D01*
X168722842Y-68314085D01*
X168473108Y-68368714D01*
X168127968Y-68472783D01*
X167962978Y-68591793D01*
X167920737Y-68757475D01*
X167872837Y-69002616D01*
X167712630Y-69332307D01*
X167594575Y-69467123D01*
X167249825Y-69620708D01*
X166851033Y-69535214D01*
X166437004Y-69214231D01*
X166346395Y-69113163D01*
X166132057Y-68832227D01*
X166043806Y-68646073D01*
X166041912Y-68631242D01*
X165972128Y-68657328D01*
X165834725Y-68868914D01*
X165812439Y-68908577D01*
X165569521Y-69173743D01*
X165293964Y-69183248D01*
X164979583Y-68934840D01*
X164620195Y-68426263D01*
X164178685Y-67691000D01*
X164178132Y-68367291D01*
X164168360Y-68595319D01*
X164101843Y-69016905D01*
X163993260Y-69295654D01*
X163868539Y-69442673D01*
X163721345Y-69468058D01*
X163473645Y-69328032D01*
X163264112Y-69161864D01*
X163002722Y-68852680D01*
X162735584Y-68403759D01*
X162440186Y-67775970D01*
X162094014Y-66930182D01*
X161927566Y-66522978D01*
X161725988Y-66079486D01*
X161568131Y-65789421D01*
X161478401Y-65701493D01*
X161444455Y-65752942D01*
X161386979Y-66010999D01*
X161359452Y-66395469D01*
X161320135Y-66946622D01*
X161190889Y-67589160D01*
X160991235Y-68091567D01*
X160740614Y-68391158D01*
X160725739Y-68400888D01*
X160518051Y-68502124D01*
X160345190Y-68450652D01*
X160105614Y-68218934D01*
X159766000Y-67852485D01*
X159766000Y-68258248D01*
X159702655Y-68605640D01*
X159515896Y-68972877D01*
X159512953Y-68976511D01*
X159326234Y-69177453D01*
X159165583Y-69196045D01*
X158908064Y-69047351D01*
X158776590Y-68938288D01*
X158499488Y-68633064D01*
X158194709Y-68236814D01*
X157913528Y-67822301D01*
X157707217Y-67462285D01*
X157627053Y-67229527D01*
X157649607Y-67111831D01*
X157769006Y-67133111D01*
X157993242Y-67393595D01*
X158324738Y-67895599D01*
X158484296Y-68143124D01*
X158839897Y-68601101D01*
X159122234Y-68813805D01*
X159326306Y-68776834D01*
X159363457Y-68687460D01*
X159421949Y-68388767D01*
X159469656Y-67971754D01*
X159483117Y-67712852D01*
X159462421Y-67363776D01*
X159380394Y-66976973D01*
X159221053Y-66483680D01*
X158968417Y-65815134D01*
X158867732Y-65552637D01*
X158511817Y-64518571D01*
X158260839Y-63598644D01*
X158118242Y-62817594D01*
X158097953Y-62410479D01*
X158426705Y-62410479D01*
X158452563Y-62825091D01*
X158508805Y-63295300D01*
X158592047Y-63768337D01*
X158698903Y-64191434D01*
X158845094Y-64640398D01*
X159024945Y-65143553D01*
X159173310Y-65508936D01*
X159224681Y-65619701D01*
X159310128Y-65781216D01*
X159345862Y-65764356D01*
X159340761Y-65539789D01*
X159303707Y-65078183D01*
X159267278Y-64763331D01*
X159163783Y-64155768D01*
X159022173Y-63498952D01*
X158861528Y-62871350D01*
X158700930Y-62351432D01*
X158559463Y-62017669D01*
X158479684Y-61959122D01*
X158434617Y-62104233D01*
X158426705Y-62410479D01*
X158097953Y-62410479D01*
X158087472Y-62200159D01*
X158171973Y-61771076D01*
X158375191Y-61555084D01*
X158525711Y-61563077D01*
X158747450Y-61786493D01*
X158970362Y-62239077D01*
X159186195Y-62898641D01*
X159386693Y-63742994D01*
X159563604Y-64749948D01*
X159614101Y-65099960D01*
X159691560Y-65700806D01*
X159698336Y-65764356D01*
X159745055Y-66202528D01*
X159765212Y-66522720D01*
X159765371Y-66537865D01*
X159823299Y-66912492D01*
X159961344Y-67340263D01*
X160144179Y-67742823D01*
X160336476Y-68041818D01*
X160502908Y-68158895D01*
X160646939Y-68074196D01*
X160810145Y-67749479D01*
X160948172Y-67207266D01*
X161052047Y-66475069D01*
X161111356Y-66058572D01*
X161208774Y-65637879D01*
X161313623Y-65385301D01*
X161367223Y-65316207D01*
X161510931Y-65224128D01*
X161683717Y-65351527D01*
X161782538Y-65502699D01*
X161964454Y-65866191D01*
X162188277Y-66370597D01*
X162426156Y-66955737D01*
X162772618Y-67785528D01*
X163096482Y-68432180D01*
X163377240Y-68850599D01*
X163607843Y-69030349D01*
X163781240Y-68961000D01*
X163800611Y-68925938D01*
X163857697Y-68631535D01*
X163871009Y-68167629D01*
X163845706Y-67610267D01*
X163786948Y-67035499D01*
X163699894Y-66519370D01*
X163589704Y-66137930D01*
X163469609Y-65804411D01*
X163368055Y-65356144D01*
X163361944Y-65017861D01*
X163458158Y-64856594D01*
X163561500Y-64941693D01*
X163694749Y-65242878D01*
X163833289Y-65713877D01*
X163929603Y-66053623D01*
X164133564Y-66638797D01*
X164382706Y-67253051D01*
X164650733Y-67839957D01*
X164911350Y-68343087D01*
X165138261Y-68706014D01*
X165305168Y-68872311D01*
X165422167Y-68873433D01*
X165548262Y-68683607D01*
X165597738Y-68283358D01*
X165568292Y-67701477D01*
X165457620Y-66966750D01*
X165389145Y-66604606D01*
X165302664Y-66123502D01*
X165264620Y-65831722D01*
X165274120Y-65681922D01*
X165330270Y-65626761D01*
X165432176Y-65618895D01*
X165502884Y-65648364D01*
X165620004Y-65890775D01*
X165706919Y-66387579D01*
X165847022Y-67218573D01*
X166151473Y-68144077D01*
X166594678Y-68864973D01*
X166820164Y-69114073D01*
X167121569Y-69325750D01*
X167350448Y-69293209D01*
X167522993Y-69019139D01*
X167561374Y-68915471D01*
X167639918Y-68600910D01*
X167566976Y-68421010D01*
X167319219Y-68292602D01*
X167116705Y-68189832D01*
X166748214Y-67790921D01*
X166525628Y-67172021D01*
X166450710Y-66337106D01*
X166454289Y-66255937D01*
X166718080Y-66255937D01*
X166756637Y-66714235D01*
X166835667Y-67150320D01*
X166951734Y-67490081D01*
X166993302Y-67567039D01*
X167218303Y-67861593D01*
X167439665Y-68005098D01*
X167534632Y-68016163D01*
X167630346Y-67964037D01*
X167650975Y-67769057D01*
X167613084Y-67370623D01*
X167609326Y-67340260D01*
X167513817Y-66853853D01*
X167363791Y-66357116D01*
X167186466Y-65918077D01*
X167009056Y-65604766D01*
X166858780Y-65485211D01*
X166776133Y-65569146D01*
X166723434Y-65849537D01*
X166718080Y-66255937D01*
X166454289Y-66255937D01*
X166475448Y-65776060D01*
X166572888Y-65342193D01*
X166750782Y-65140255D01*
X167016050Y-65155784D01*
X167112123Y-65211905D01*
X167359905Y-65518993D01*
X167590067Y-66015910D01*
X167780086Y-66647046D01*
X167907441Y-67356790D01*
X167956222Y-67660755D01*
X167986377Y-67769057D01*
X168040681Y-67964093D01*
X168125740Y-68074485D01*
G37*
G36*
X199532930Y-85565038D02*
G01*
X199466571Y-85798727D01*
X199344846Y-86003483D01*
X199168130Y-86178560D01*
X198936797Y-86323211D01*
X198720711Y-86425998D01*
X198416573Y-86556593D01*
X198102988Y-86677406D01*
X197795696Y-86782783D01*
X197510439Y-86867066D01*
X197262957Y-86924602D01*
X197233587Y-86929939D01*
X197005202Y-86956565D01*
X196792277Y-86956370D01*
X196608860Y-86930167D01*
X196469006Y-86878767D01*
X196429179Y-86854105D01*
X196291023Y-86724169D01*
X196179206Y-86539579D01*
X196093488Y-86299701D01*
X196033625Y-86003903D01*
X195999376Y-85651551D01*
X195983360Y-85368165D01*
X196059847Y-85368165D01*
X196061310Y-85484949D01*
X196070046Y-85631089D01*
X196084830Y-85793928D01*
X196104434Y-85960807D01*
X196127635Y-86119071D01*
X196153205Y-86256061D01*
X196179920Y-86359121D01*
X196203146Y-86423260D01*
X196290356Y-86596939D01*
X196397499Y-86735926D01*
X196514592Y-86826287D01*
X196635464Y-86868031D01*
X196820607Y-86889529D01*
X197044529Y-86881873D01*
X197298494Y-86845440D01*
X197573764Y-86780606D01*
X197657360Y-86755422D01*
X197824220Y-86699069D01*
X198020860Y-86627502D01*
X198232430Y-86546569D01*
X198444079Y-86462119D01*
X198640958Y-86379998D01*
X198808215Y-86306056D01*
X198931002Y-86246139D01*
X199018766Y-86194545D01*
X199192662Y-86058440D01*
X199326904Y-85903183D01*
X199410132Y-85740758D01*
X199436069Y-85633327D01*
X199455169Y-85461847D01*
X199457643Y-85277118D01*
X199443419Y-85103640D01*
X199412423Y-84965912D01*
X199351323Y-84830092D01*
X199232130Y-84670392D01*
X199082148Y-84559756D01*
X199016699Y-84531667D01*
X198844732Y-84486043D01*
X198638242Y-84458893D01*
X198414782Y-84452040D01*
X198191900Y-84467306D01*
X198177340Y-84469128D01*
X198077711Y-84482866D01*
X197988764Y-84499076D01*
X197900863Y-84521160D01*
X197804371Y-84552522D01*
X197689653Y-84596562D01*
X197547072Y-84656684D01*
X197366993Y-84736288D01*
X197139779Y-84838779D01*
X197043033Y-84882044D01*
X196852141Y-84964632D01*
X196666141Y-85041915D01*
X196502280Y-85106798D01*
X196377805Y-85152188D01*
X196318796Y-85172500D01*
X196203412Y-85215234D01*
X196117008Y-85251359D01*
X196074899Y-85274681D01*
X196066883Y-85293393D01*
X196059847Y-85368165D01*
X195983360Y-85368165D01*
X195978147Y-85275915D01*
X195818745Y-85301648D01*
X195764974Y-85307684D01*
X195644799Y-85315055D01*
X195486375Y-85320559D01*
X195303989Y-85323739D01*
X195111929Y-85324143D01*
X195062026Y-85323815D01*
X194865364Y-85321278D01*
X194713168Y-85315943D01*
X194590572Y-85306288D01*
X194482708Y-85290794D01*
X194374709Y-85267941D01*
X194251707Y-85236210D01*
X194181363Y-85216182D01*
X194017305Y-85163452D01*
X193862176Y-85106500D01*
X193741966Y-85054585D01*
X193725717Y-85046391D01*
X193551295Y-84934035D01*
X193394493Y-84791330D01*
X193269683Y-84633393D01*
X193191237Y-84475340D01*
X193157700Y-84359422D01*
X193104161Y-84049155D01*
X193089074Y-83701461D01*
X193112528Y-83324831D01*
X193174616Y-82927759D01*
X193281662Y-82519091D01*
X193439132Y-82101445D01*
X193637937Y-81698010D01*
X193870596Y-81323927D01*
X194129630Y-80994342D01*
X194302986Y-80800058D01*
X194265933Y-80776318D01*
X194455032Y-80776318D01*
X194478581Y-80798190D01*
X194552207Y-80835914D01*
X194665621Y-80884221D01*
X194808294Y-80939217D01*
X194969697Y-80997012D01*
X195139303Y-81053711D01*
X195306583Y-81105422D01*
X195461009Y-81148254D01*
X195568369Y-81174368D01*
X195757933Y-81215362D01*
X195943613Y-81250243D01*
X196097274Y-81273473D01*
X196303056Y-81293856D01*
X196585133Y-81304545D01*
X196828876Y-81292254D01*
X197031376Y-81258500D01*
X197189723Y-81204797D01*
X197301007Y-81132662D01*
X197362317Y-81043609D01*
X197370744Y-80939155D01*
X197323379Y-80820816D01*
X197217310Y-80690106D01*
X197026431Y-80537657D01*
X196785945Y-80410296D01*
X196509663Y-80314599D01*
X196208644Y-80254382D01*
X195893948Y-80233461D01*
X195743271Y-80236845D01*
X195470090Y-80266145D01*
X195216980Y-80329837D01*
X194959510Y-80433144D01*
X194883476Y-80471038D01*
X194762891Y-80539054D01*
X194647134Y-80612176D01*
X194548825Y-80681818D01*
X194480584Y-80739393D01*
X194455032Y-80776318D01*
X194265933Y-80776318D01*
X194073473Y-80653010D01*
X194042607Y-80632957D01*
X193715059Y-80381785D01*
X193431626Y-80090386D01*
X193196816Y-79764067D01*
X193015142Y-79408134D01*
X192964175Y-79274172D01*
X192904936Y-79092447D01*
X192848014Y-78893227D01*
X192795844Y-78687509D01*
X192750862Y-78486293D01*
X192715502Y-78300575D01*
X192692200Y-78141353D01*
X192683390Y-78019626D01*
X192691507Y-77946390D01*
X192709622Y-77911838D01*
X192740633Y-77905006D01*
X192775329Y-77958203D01*
X192814811Y-78072557D01*
X192822634Y-78100632D01*
X192843257Y-78198926D01*
X192845007Y-78260394D01*
X192828786Y-78277168D01*
X192795493Y-78241376D01*
X192780643Y-78227444D01*
X192775710Y-78255841D01*
X192784745Y-78328064D01*
X192805532Y-78435031D01*
X192835859Y-78567663D01*
X192873511Y-78716879D01*
X192916274Y-78873598D01*
X192961936Y-79028742D01*
X193008281Y-79173229D01*
X193053097Y-79297979D01*
X193159230Y-79542270D01*
X193352065Y-79876078D01*
X193586742Y-80167713D01*
X193868716Y-80423587D01*
X194203439Y-80650109D01*
X194369801Y-80748199D01*
X194451518Y-80672875D01*
X194459427Y-80665635D01*
X194712301Y-80476201D01*
X195003910Y-80328085D01*
X195324200Y-80223789D01*
X195663123Y-80165812D01*
X196010626Y-80156657D01*
X196356659Y-80198823D01*
X196432103Y-80215788D01*
X196671343Y-80291275D01*
X196902581Y-80394073D01*
X197107631Y-80515264D01*
X197268307Y-80645927D01*
X197321651Y-80702707D01*
X197417828Y-80840325D01*
X197445661Y-80939155D01*
X197452972Y-80965116D01*
X197426909Y-81078479D01*
X197339468Y-81181813D01*
X197190475Y-81276518D01*
X197152023Y-81295426D01*
X197094821Y-81319244D01*
X197034072Y-81335586D01*
X196957974Y-81345800D01*
X196854724Y-81351234D01*
X196712522Y-81353236D01*
X196519564Y-81353155D01*
X196342289Y-81351477D01*
X196150001Y-81345188D01*
X195990990Y-81332988D01*
X195848623Y-81313490D01*
X195706264Y-81285306D01*
X195602173Y-81260980D01*
X195329485Y-81188381D01*
X195055232Y-81104197D01*
X194800588Y-81015184D01*
X194586726Y-80928099D01*
X194376830Y-80833663D01*
X194207093Y-81015551D01*
X194036718Y-81216754D01*
X193813196Y-81541819D01*
X193613126Y-81905180D01*
X193442908Y-82293414D01*
X193308943Y-82693097D01*
X193217631Y-83090804D01*
X193201145Y-83205530D01*
X193183028Y-83420776D01*
X193176154Y-83652968D01*
X193180110Y-83886341D01*
X193194484Y-84105127D01*
X193218863Y-84293562D01*
X193252834Y-84435878D01*
X193259295Y-84454208D01*
X193364572Y-84651108D01*
X193526670Y-84822895D01*
X193745009Y-84969248D01*
X194019009Y-85089846D01*
X194348090Y-85184371D01*
X194731674Y-85252500D01*
X194837238Y-85263193D01*
X195015443Y-85271874D01*
X195212903Y-85273463D01*
X195413289Y-85268446D01*
X195600272Y-85257310D01*
X195757525Y-85240542D01*
X195868718Y-85218628D01*
X195874436Y-85216978D01*
X195914473Y-85206170D01*
X195944201Y-85194058D01*
X195966217Y-85171961D01*
X195983123Y-85131200D01*
X195997516Y-85063095D01*
X196011996Y-84958967D01*
X196029164Y-84810136D01*
X196051618Y-84607922D01*
X196076360Y-84420113D01*
X196148311Y-84023859D01*
X196246553Y-83608218D01*
X196365480Y-83193648D01*
X196499487Y-82800605D01*
X196642970Y-82449548D01*
X196673834Y-82385204D01*
X196758595Y-82226685D01*
X196864624Y-82044208D01*
X196981226Y-81855344D01*
X197097707Y-81677664D01*
X197203375Y-81528739D01*
X197275627Y-81434804D01*
X197395415Y-81285839D01*
X197524937Y-81131023D01*
X197656094Y-80979503D01*
X197780786Y-80840426D01*
X197890917Y-80722938D01*
X197978387Y-80636187D01*
X198035097Y-80589321D01*
X198050240Y-80580273D01*
X198171532Y-80532435D01*
X198273031Y-80537489D01*
X198347717Y-80595301D01*
X198363558Y-80620734D01*
X198391371Y-80693604D01*
X198392541Y-80752070D01*
X198365131Y-80776026D01*
X198352411Y-80772369D01*
X198333850Y-80733953D01*
X198330668Y-80713044D01*
X198289403Y-80651432D01*
X198221133Y-80608019D01*
X198152313Y-80602030D01*
X198104532Y-80627831D01*
X198013608Y-80702537D01*
X197898499Y-80816034D01*
X197765445Y-80960794D01*
X197620686Y-81129294D01*
X197470461Y-81314007D01*
X197321012Y-81507408D01*
X197178577Y-81701970D01*
X197049396Y-81890168D01*
X196939711Y-82064477D01*
X196783917Y-82348073D01*
X196561646Y-82844940D01*
X196377372Y-83384640D01*
X196232881Y-83961644D01*
X196129962Y-84570423D01*
X196105697Y-84764540D01*
X196089227Y-84924314D01*
X196083257Y-85036123D01*
X196087766Y-85107124D01*
X196102732Y-85144476D01*
X196128131Y-85155336D01*
X196141059Y-85154048D01*
X196215580Y-85134406D01*
X196333704Y-85094189D01*
X196485290Y-85037388D01*
X196660193Y-84967997D01*
X196848272Y-84890009D01*
X197039383Y-84807416D01*
X197223382Y-84724210D01*
X197255109Y-84709518D01*
X197486507Y-84605277D01*
X197676734Y-84526526D01*
X197838066Y-84469322D01*
X197982776Y-84429722D01*
X198123138Y-84403785D01*
X198271428Y-84387567D01*
X198387265Y-84381691D01*
X198593176Y-84385921D01*
X198792000Y-84406372D01*
X198965494Y-84440840D01*
X199095412Y-84487120D01*
X199246019Y-84584686D01*
X199375462Y-84728251D01*
X199467304Y-84914193D01*
X199525761Y-85148996D01*
X199540543Y-85277118D01*
X199543548Y-85303163D01*
X199532930Y-85565038D01*
G37*
G36*
X175471235Y-84632286D02*
G01*
X175487406Y-84710150D01*
X175520974Y-84803119D01*
X175576724Y-84924127D01*
X175659443Y-85086106D01*
X175828682Y-85401692D01*
X176006201Y-85712357D01*
X176167580Y-85970084D01*
X176315179Y-86178166D01*
X176451354Y-86339896D01*
X176578463Y-86458565D01*
X176698864Y-86537466D01*
X176837889Y-86588506D01*
X177028357Y-86602665D01*
X177223809Y-86559138D01*
X177418044Y-86459513D01*
X177604861Y-86305379D01*
X177620774Y-86289181D01*
X177719184Y-86172499D01*
X177804813Y-86037192D01*
X177879056Y-85877771D01*
X177943309Y-85688745D01*
X177998967Y-85464627D01*
X178047425Y-85199925D01*
X178090079Y-84889152D01*
X178128324Y-84526816D01*
X178163555Y-84107430D01*
X178168866Y-84025573D01*
X178176900Y-83849475D01*
X178183911Y-83629515D01*
X178189898Y-83372343D01*
X178194858Y-83084610D01*
X178198790Y-82772968D01*
X178201691Y-82444067D01*
X178203560Y-82104559D01*
X178204393Y-81761094D01*
X178204190Y-81420323D01*
X178202947Y-81088897D01*
X178200664Y-80773467D01*
X178197337Y-80480684D01*
X178192965Y-80217199D01*
X178187546Y-79989663D01*
X178181077Y-79804727D01*
X178173556Y-79669042D01*
X178164982Y-79589258D01*
X178158793Y-79556879D01*
X178123711Y-79422070D01*
X178081150Y-79343174D01*
X178026605Y-79314633D01*
X177955572Y-79330891D01*
X177901776Y-79369210D01*
X177876214Y-79445922D01*
X177868375Y-79498004D01*
X177844934Y-79524794D01*
X177829010Y-79519757D01*
X177811359Y-79477905D01*
X177816882Y-79411501D01*
X177842011Y-79342276D01*
X177883175Y-79291962D01*
X177917418Y-79270540D01*
X178017701Y-79242008D01*
X178102893Y-79273159D01*
X178171116Y-79362780D01*
X178220491Y-79509659D01*
X178227732Y-79551181D01*
X178240579Y-79673095D01*
X178252365Y-79846354D01*
X178262957Y-80063650D01*
X178272215Y-80317673D01*
X178280004Y-80601113D01*
X178286187Y-80906661D01*
X178290628Y-81227008D01*
X178293190Y-81554844D01*
X178293735Y-81882860D01*
X178292129Y-82203746D01*
X178288233Y-82510194D01*
X178281911Y-82794893D01*
X178273846Y-83065958D01*
X178255425Y-83572736D01*
X178233721Y-84023130D01*
X178208037Y-84421252D01*
X178177676Y-84771218D01*
X178141942Y-85077141D01*
X178100136Y-85343135D01*
X178051563Y-85573315D01*
X177995525Y-85771793D01*
X177931324Y-85942685D01*
X177858264Y-86090104D01*
X177775649Y-86218165D01*
X177682780Y-86330981D01*
X177594585Y-86419256D01*
X177413088Y-86554355D01*
X177209177Y-86644826D01*
X177192261Y-86649996D01*
X177021542Y-86674118D01*
X176838539Y-86659821D01*
X176674888Y-86609212D01*
X176598590Y-86566896D01*
X176479757Y-86475820D01*
X176356326Y-86349321D01*
X176224766Y-86182791D01*
X176081544Y-85971620D01*
X175923129Y-85711199D01*
X175745989Y-85396918D01*
X175682561Y-85281485D01*
X175602604Y-85138558D01*
X175545201Y-85041397D01*
X175506180Y-84984167D01*
X175481368Y-84961035D01*
X175466595Y-84966164D01*
X175457688Y-84993721D01*
X175449406Y-85025106D01*
X175385124Y-85144581D01*
X175283629Y-85247847D01*
X175164302Y-85313761D01*
X175136862Y-85321586D01*
X174988773Y-85338365D01*
X174808125Y-85328406D01*
X174613470Y-85293653D01*
X174423358Y-85236053D01*
X174296626Y-85182652D01*
X174005165Y-85018664D01*
X173712152Y-84799073D01*
X173421776Y-84528392D01*
X173138225Y-84211134D01*
X172865690Y-83851808D01*
X172608359Y-83454928D01*
X172370422Y-83025006D01*
X172141099Y-82531729D01*
X171951546Y-82014744D01*
X171818341Y-81502924D01*
X171739715Y-80989381D01*
X171713899Y-80467221D01*
X171713899Y-80069101D01*
X171676002Y-80042741D01*
X171801225Y-80042741D01*
X172234594Y-80250572D01*
X172310388Y-80286429D01*
X172746872Y-80471903D01*
X173156923Y-80608158D01*
X173547647Y-80697616D01*
X173561958Y-80700056D01*
X173727977Y-80722646D01*
X173904712Y-80738610D01*
X174056236Y-80744628D01*
X174118321Y-80743397D01*
X174299715Y-80719791D01*
X174431818Y-80663592D01*
X174516823Y-80571430D01*
X174556924Y-80439932D01*
X174554315Y-80265727D01*
X174511191Y-80045443D01*
X174509622Y-80039398D01*
X174454412Y-79870032D01*
X174372476Y-79670123D01*
X174273031Y-79459261D01*
X174165289Y-79257033D01*
X174058467Y-79083028D01*
X173917899Y-78893182D01*
X173725985Y-78683730D01*
X173525028Y-78513114D01*
X173320950Y-78384308D01*
X173119674Y-78300286D01*
X172927122Y-78264021D01*
X172749214Y-78278485D01*
X172591874Y-78346654D01*
X172466558Y-78449796D01*
X172318052Y-78621900D01*
X172178023Y-78835144D01*
X172052399Y-79077838D01*
X171947109Y-79338297D01*
X171868083Y-79604833D01*
X171821248Y-79865757D01*
X171801225Y-80042741D01*
X171676002Y-80042741D01*
X171440192Y-79878718D01*
X171213197Y-79712433D01*
X170782956Y-79343558D01*
X170396057Y-78933565D01*
X170051076Y-78480474D01*
X169746585Y-77982307D01*
X169481160Y-77437084D01*
X169253375Y-76842825D01*
X169250685Y-76834897D01*
X169206701Y-76711733D01*
X169164101Y-76602501D01*
X169131758Y-76530017D01*
X169098641Y-76454468D01*
X169089050Y-76388982D01*
X169116790Y-76365435D01*
X169134387Y-76371849D01*
X169170104Y-76416139D01*
X169213852Y-76506676D01*
X169267830Y-76648321D01*
X169334239Y-76845932D01*
X169503099Y-77309852D01*
X169757669Y-77856086D01*
X170060082Y-78362547D01*
X170410961Y-78830258D01*
X170810934Y-79260242D01*
X170896926Y-79341161D01*
X171034604Y-79463552D01*
X171180495Y-79586554D01*
X171325488Y-79703080D01*
X171460472Y-79806046D01*
X171576335Y-79888366D01*
X171663966Y-79942955D01*
X171714253Y-79962725D01*
X171734073Y-79945375D01*
X171745180Y-79888534D01*
X171747610Y-79860382D01*
X171762649Y-79772502D01*
X171788381Y-79651371D01*
X171821263Y-79514417D01*
X171835217Y-79461834D01*
X171925983Y-79191746D01*
X172042471Y-78935286D01*
X172178422Y-78702191D01*
X172327574Y-78502198D01*
X172483666Y-78345043D01*
X172640438Y-78240464D01*
X172728600Y-78207459D01*
X172910307Y-78187425D01*
X173107572Y-78219250D01*
X173313992Y-78299457D01*
X173523160Y-78424568D01*
X173728674Y-78591106D01*
X173924128Y-78795596D01*
X174103119Y-79034559D01*
X174233335Y-79242027D01*
X174400765Y-79552766D01*
X174522878Y-79843247D01*
X174597640Y-80108348D01*
X174623013Y-80342943D01*
X174617489Y-80439932D01*
X174615917Y-80467540D01*
X174579036Y-80606792D01*
X174505715Y-80706908D01*
X174390429Y-80772159D01*
X174227650Y-80806814D01*
X174011853Y-80815144D01*
X173726418Y-80794973D01*
X173371596Y-80734490D01*
X173000011Y-80638381D01*
X172626405Y-80511141D01*
X172265521Y-80357263D01*
X171932101Y-80181241D01*
X171767588Y-80084240D01*
X171785758Y-80594357D01*
X171796665Y-80817995D01*
X171826443Y-81146777D01*
X171870462Y-81416433D01*
X171902556Y-81558330D01*
X172028487Y-82009042D01*
X172186765Y-82449540D01*
X172373826Y-82875100D01*
X172586105Y-83280996D01*
X172820040Y-83662506D01*
X173072067Y-84014902D01*
X173338622Y-84333462D01*
X173616140Y-84613460D01*
X173901059Y-84850172D01*
X174189815Y-85038874D01*
X174478843Y-85174839D01*
X174764581Y-85253344D01*
X174963514Y-85270289D01*
X175136125Y-85244492D01*
X175266380Y-85173816D01*
X175353355Y-85058776D01*
X175396126Y-84899891D01*
X175399308Y-84853214D01*
X175394748Y-84792324D01*
X175377022Y-84720329D01*
X175342454Y-84626002D01*
X175287369Y-84498115D01*
X175208093Y-84325443D01*
X175047577Y-83971225D01*
X174897954Y-83617632D01*
X174777624Y-83304803D01*
X174687207Y-83034801D01*
X174627323Y-82809689D01*
X174598591Y-82631530D01*
X174600220Y-82562369D01*
X174666727Y-82562369D01*
X174677819Y-82672606D01*
X174710441Y-82825445D01*
X174762035Y-83012506D01*
X174830043Y-83225410D01*
X174911909Y-83455778D01*
X175005076Y-83695229D01*
X175106985Y-83935385D01*
X175140014Y-84008985D01*
X175208133Y-84156437D01*
X175272318Y-84290423D01*
X175322137Y-84388957D01*
X175405492Y-84545361D01*
X175386431Y-84388957D01*
X175362678Y-84225183D01*
X175320747Y-83996995D01*
X175267984Y-83751826D01*
X175207767Y-83502813D01*
X175143477Y-83263094D01*
X175078494Y-83045806D01*
X175016195Y-82864087D01*
X174959962Y-82731075D01*
X174910842Y-82642073D01*
X174836608Y-82539892D01*
X174768190Y-82481472D01*
X174711726Y-82471452D01*
X174673356Y-82514472D01*
X174666727Y-82562369D01*
X174600220Y-82562369D01*
X174601632Y-82502387D01*
X174637064Y-82424325D01*
X174678173Y-82391792D01*
X174730464Y-82371346D01*
X174741393Y-82372429D01*
X174808586Y-82410429D01*
X174887704Y-82495578D01*
X174970868Y-82618097D01*
X175050198Y-82768206D01*
X175076165Y-82827870D01*
X175141323Y-83006136D01*
X175208355Y-83223669D01*
X175274004Y-83466435D01*
X175335016Y-83720402D01*
X175388136Y-83971537D01*
X175430109Y-84205807D01*
X175457680Y-84409181D01*
X175466201Y-84545361D01*
X175467594Y-84567624D01*
X175471235Y-84632286D01*
G37*
G36*
X156859595Y-82236047D02*
G01*
X156876354Y-82274939D01*
X156897296Y-82348979D01*
X156925362Y-82466850D01*
X156963493Y-82637233D01*
X157037097Y-82962942D01*
X157121081Y-83313281D01*
X157199353Y-83612542D01*
X157273808Y-83866694D01*
X157346342Y-84081709D01*
X157418850Y-84263555D01*
X157493229Y-84418202D01*
X157571373Y-84551622D01*
X157708993Y-84734779D01*
X157875096Y-84884824D01*
X158065865Y-84986133D01*
X158290468Y-85043443D01*
X158558077Y-85061494D01*
X158678032Y-85058892D01*
X158834427Y-85046515D01*
X158994691Y-85022095D01*
X159164475Y-84983600D01*
X159349427Y-84928998D01*
X159555198Y-84856256D01*
X159787437Y-84763343D01*
X160051795Y-84648226D01*
X160353920Y-84508874D01*
X160699462Y-84343253D01*
X161094072Y-84149333D01*
X161216921Y-84088539D01*
X161518661Y-83940726D01*
X161774255Y-83818705D01*
X161990480Y-83720064D01*
X162174113Y-83642395D01*
X162331929Y-83583287D01*
X162470704Y-83540330D01*
X162597214Y-83511114D01*
X162718236Y-83493230D01*
X162840546Y-83484266D01*
X162970919Y-83481814D01*
X163121706Y-83483161D01*
X163238518Y-83489376D01*
X163327701Y-83503363D01*
X163407256Y-83528021D01*
X163495186Y-83566249D01*
X163609879Y-83624131D01*
X163761289Y-83716541D01*
X163906499Y-83827398D01*
X164051395Y-83962857D01*
X164201861Y-84129073D01*
X164363783Y-84332201D01*
X164543047Y-84578395D01*
X164745537Y-84873809D01*
X164855092Y-85035874D01*
X164996756Y-85239844D01*
X165114680Y-85400817D01*
X165214034Y-85525140D01*
X165299990Y-85619161D01*
X165377716Y-85689228D01*
X165452384Y-85741691D01*
X165504461Y-85770133D01*
X165604337Y-85803213D01*
X165712037Y-85806895D01*
X165835533Y-85778960D01*
X165982799Y-85717186D01*
X166161805Y-85619354D01*
X166380525Y-85483245D01*
X166437044Y-85446909D01*
X166634502Y-85325119D01*
X166798743Y-85235431D01*
X166942724Y-85172866D01*
X167079402Y-85132445D01*
X167221735Y-85109188D01*
X167382681Y-85098115D01*
X167501729Y-85094598D01*
X167626213Y-85096738D01*
X167732380Y-85110077D01*
X167845525Y-85138218D01*
X167990942Y-85184765D01*
X168096204Y-85222668D01*
X168383712Y-85349170D01*
X168705457Y-85521230D01*
X169064157Y-85740257D01*
X169064568Y-85740521D01*
X169273758Y-85865404D01*
X169475215Y-85967880D01*
X169655698Y-86041831D01*
X169801964Y-86081139D01*
X169812051Y-86082698D01*
X169956380Y-86090055D01*
X170083661Y-86062477D01*
X170200516Y-85994858D01*
X170313567Y-85882093D01*
X170429437Y-85719076D01*
X170554746Y-85500700D01*
X170636641Y-85353739D01*
X170758326Y-85161665D01*
X170868649Y-85020994D01*
X170965293Y-84934534D01*
X171045946Y-84905090D01*
X171084669Y-84915685D01*
X171145407Y-84954539D01*
X171230626Y-85026452D01*
X171345862Y-85136130D01*
X171496650Y-85288280D01*
X171593091Y-85388706D01*
X171703421Y-85507558D01*
X171791167Y-85606718D01*
X171849126Y-85677990D01*
X171870095Y-85713177D01*
X171870098Y-85714501D01*
X171867456Y-85735679D01*
X171855783Y-85741090D01*
X171829413Y-85725791D01*
X171782681Y-85684840D01*
X171709921Y-85613296D01*
X171605468Y-85506217D01*
X171463656Y-85358661D01*
X171376489Y-85268495D01*
X171263080Y-85153724D01*
X171168725Y-85061212D01*
X171101379Y-84998714D01*
X171068997Y-84973981D01*
X171041594Y-84974592D01*
X170971844Y-85016921D01*
X170885807Y-85109773D01*
X170787870Y-85248010D01*
X170682425Y-85426496D01*
X170565461Y-85633317D01*
X170454464Y-85811106D01*
X170357344Y-85943033D01*
X170269309Y-86035545D01*
X170185567Y-86095090D01*
X170109258Y-86128340D01*
X170006780Y-86147411D01*
X169868333Y-86147972D01*
X169808974Y-86143550D01*
X169674508Y-86119273D01*
X169530322Y-86071743D01*
X169366795Y-85996800D01*
X169174309Y-85890286D01*
X168943245Y-85748044D01*
X168869775Y-85701987D01*
X168616960Y-85553573D01*
X168365292Y-85419972D01*
X168130654Y-85309299D01*
X167928924Y-85229670D01*
X167798306Y-85195709D01*
X167642770Y-85177224D01*
X167444072Y-85172080D01*
X167284977Y-85176791D01*
X167132730Y-85194776D01*
X166991853Y-85231207D01*
X166847320Y-85291282D01*
X166684108Y-85380198D01*
X166487194Y-85503155D01*
X166472148Y-85512883D01*
X166237417Y-85658579D01*
X166041951Y-85765362D01*
X165878170Y-85835168D01*
X165738488Y-85869927D01*
X165615324Y-85871574D01*
X165501094Y-85842040D01*
X165388214Y-85783258D01*
X165328077Y-85741179D01*
X165236308Y-85660663D01*
X165137795Y-85553197D01*
X165026778Y-85411764D01*
X164897495Y-85229347D01*
X164744187Y-84998932D01*
X164630093Y-84826439D01*
X164415355Y-84519331D01*
X164217491Y-84263202D01*
X164031863Y-84053456D01*
X163853833Y-83885497D01*
X163678764Y-83754729D01*
X163502018Y-83656554D01*
X163318958Y-83586377D01*
X163303909Y-83581834D01*
X163165809Y-83548613D01*
X163025427Y-83532357D01*
X162877023Y-83534702D01*
X162714854Y-83557281D01*
X162533180Y-83601730D01*
X162326261Y-83669682D01*
X162088356Y-83762772D01*
X161813723Y-83882635D01*
X161496622Y-84030905D01*
X161131312Y-84209216D01*
X161052998Y-84248009D01*
X160778780Y-84383653D01*
X160551700Y-84495467D01*
X160364704Y-84586707D01*
X160210741Y-84660628D01*
X160082757Y-84720488D01*
X159973701Y-84769543D01*
X159876521Y-84811047D01*
X159784163Y-84848258D01*
X159689576Y-84884432D01*
X159585707Y-84922824D01*
X159276600Y-85025117D01*
X158926752Y-85108844D01*
X158612996Y-85144286D01*
X158333115Y-85131301D01*
X158084892Y-85069747D01*
X157866111Y-84959482D01*
X157674557Y-84800365D01*
X157623305Y-84744045D01*
X157505858Y-84583243D01*
X157396321Y-84384019D01*
X157292770Y-84141551D01*
X157193280Y-83851015D01*
X157095928Y-83507587D01*
X156998788Y-83106445D01*
X156977302Y-83011660D01*
X156935499Y-82828063D01*
X156896749Y-82658860D01*
X156864617Y-82519596D01*
X156842669Y-82425817D01*
X156826363Y-82344390D01*
X156818452Y-82266195D01*
X156825507Y-82229802D01*
X156826867Y-82228976D01*
X156844080Y-82223620D01*
X156859595Y-82236047D01*
G37*
G36*
X181513280Y-82227891D02*
G01*
X181652319Y-82244027D01*
X181879100Y-82290596D01*
X182120186Y-82359793D01*
X182363836Y-82451793D01*
X182614977Y-82569544D01*
X182878534Y-82715996D01*
X183159432Y-82894097D01*
X183462598Y-83106798D01*
X183792956Y-83357046D01*
X184155432Y-83647792D01*
X184554951Y-83981984D01*
X184662474Y-84072501D01*
X184812129Y-84195680D01*
X184949897Y-84306049D01*
X185063992Y-84394206D01*
X185142630Y-84450751D01*
X185188968Y-84479587D01*
X185367489Y-84562713D01*
X185544547Y-84605706D01*
X185702075Y-84603629D01*
X185732044Y-84597038D01*
X185871265Y-84549598D01*
X186035893Y-84473680D01*
X186207824Y-84378279D01*
X186368948Y-84272388D01*
X186428090Y-84229980D01*
X186624815Y-84095736D01*
X186802130Y-83990260D01*
X186965950Y-83914828D01*
X187122190Y-83870713D01*
X187276762Y-83859189D01*
X187435581Y-83881531D01*
X187604560Y-83939012D01*
X187789614Y-84032908D01*
X187996656Y-84164493D01*
X188231600Y-84335040D01*
X188500360Y-84545825D01*
X188808850Y-84798121D01*
X188892868Y-84867139D01*
X189160391Y-85077857D01*
X189391745Y-85243570D01*
X189590853Y-85365881D01*
X189761635Y-85446389D01*
X189908016Y-85486698D01*
X190033915Y-85488407D01*
X190143256Y-85453119D01*
X190239961Y-85382435D01*
X190265107Y-85354352D01*
X190327264Y-85254700D01*
X190373000Y-85140565D01*
X190398494Y-85034556D01*
X190430858Y-84851425D01*
X190457551Y-84645907D01*
X190475685Y-84441240D01*
X190482372Y-84260664D01*
X190483247Y-84210423D01*
X190496717Y-84092459D01*
X190525979Y-84031978D01*
X190534971Y-84025219D01*
X190568256Y-84015622D01*
X190605956Y-84035407D01*
X190654105Y-84091146D01*
X190718737Y-84189411D01*
X190805887Y-84336771D01*
X190808823Y-84341846D01*
X190884653Y-84466803D01*
X190983911Y-84622239D01*
X191094054Y-84788849D01*
X191202542Y-84947328D01*
X191242906Y-85005490D01*
X191340321Y-85152118D01*
X191401251Y-85257118D01*
X191427951Y-85325684D01*
X191422672Y-85363013D01*
X191387669Y-85374302D01*
X191375980Y-85370880D01*
X191358234Y-85332936D01*
X191358230Y-85332661D01*
X191340399Y-85291633D01*
X191292854Y-85211744D01*
X191222760Y-85104405D01*
X191137279Y-84981027D01*
X191067019Y-84880110D01*
X190953692Y-84710426D01*
X190845385Y-84541154D01*
X190758259Y-84397187D01*
X190710344Y-84316758D01*
X190648307Y-84220445D01*
X190601482Y-84157246D01*
X190577410Y-84137972D01*
X190567942Y-84166387D01*
X190556075Y-84245932D01*
X190544409Y-84363212D01*
X190534480Y-84505110D01*
X190525939Y-84630831D01*
X190493607Y-84912028D01*
X190445306Y-85137137D01*
X190379860Y-85309619D01*
X190296093Y-85432934D01*
X190192830Y-85510540D01*
X190155431Y-85527260D01*
X190038194Y-85557896D01*
X189910325Y-85557361D01*
X189767329Y-85523496D01*
X189604710Y-85454145D01*
X189417971Y-85347149D01*
X189202618Y-85200351D01*
X188954155Y-85011593D01*
X188668086Y-84778717D01*
X188612604Y-84732537D01*
X188349853Y-84517983D01*
X188125184Y-84343040D01*
X187932945Y-84204324D01*
X187767487Y-84098451D01*
X187623159Y-84022038D01*
X187494311Y-83971701D01*
X187375291Y-83944054D01*
X187260451Y-83935716D01*
X187209768Y-83937369D01*
X187093216Y-83954825D01*
X186969776Y-83995006D01*
X186829339Y-84062462D01*
X186661800Y-84161743D01*
X186457049Y-84297399D01*
X186305320Y-84399151D01*
X186128421Y-84508618D01*
X185980530Y-84585676D01*
X185850813Y-84635042D01*
X185728437Y-84661436D01*
X185602569Y-84669576D01*
X185483645Y-84665034D01*
X185357893Y-84639896D01*
X185227200Y-84585396D01*
X185148295Y-84538245D01*
X185031452Y-84456978D01*
X184890049Y-84351450D01*
X184735365Y-84230487D01*
X184578680Y-84102916D01*
X184431271Y-83977562D01*
X184304416Y-83863252D01*
X184298953Y-83858246D01*
X184243795Y-83810915D01*
X184153085Y-83735647D01*
X184038100Y-83641732D01*
X183910118Y-83538458D01*
X183830829Y-83475206D01*
X183494062Y-83215776D01*
X183188779Y-82997637D01*
X182907119Y-82815955D01*
X182641223Y-82665901D01*
X182383229Y-82542641D01*
X182125278Y-82441346D01*
X181998453Y-82397897D01*
X181870898Y-82360497D01*
X181758256Y-82338901D01*
X181636449Y-82328792D01*
X181481399Y-82325849D01*
X181385168Y-82324605D01*
X181257262Y-82318202D01*
X181184098Y-82305944D01*
X181160771Y-82287241D01*
X181160791Y-82286298D01*
X181190878Y-82255670D01*
X181268817Y-82234920D01*
X181380865Y-82225258D01*
X181513280Y-82227891D01*
G37*
%TD*%
%LPC*%
D10*
%TO.C,Conn4*%
X139700000Y-97294000D03*
D11*
X142240000Y-97294000D03*
X144780000Y-97294000D03*
X147320000Y-97294000D03*
X149860000Y-97294000D03*
X152400000Y-97294000D03*
%TD*%
D10*
%TO.C,Conn2*%
X120396000Y-97294000D03*
D11*
X122936000Y-97294000D03*
X125476000Y-97294000D03*
X128016000Y-97294000D03*
X130556000Y-97294000D03*
X133096000Y-97294000D03*
%TD*%
D12*
%TO.C,H3*%
X112058580Y-98507420D03*
%TD*%
%TO.C,H2*%
X201676000Y-98552000D03*
%TD*%
%TO.C,H1*%
X201631420Y-51860580D03*
%TD*%
D10*
%TO.C,J2*%
X180594000Y-97294000D03*
D11*
X183134000Y-97294000D03*
X185674000Y-97294000D03*
X188214000Y-97294000D03*
X190754000Y-97294000D03*
X193294000Y-97294000D03*
%TD*%
D13*
%TO.C,U2*%
X153670000Y-56388000D03*
X153670000Y-53848000D03*
X153670000Y-51308000D03*
%TD*%
D14*
%TO.C,Conn1*%
X146139000Y-66737200D03*
X138265000Y-66737200D03*
%TD*%
D15*
%TO.C,U1*%
X116802000Y-90471000D03*
X119342000Y-90471000D03*
X121882000Y-90471000D03*
X124422000Y-90471000D03*
X149822000Y-90471000D03*
X119342000Y-75231000D03*
X159982000Y-85391000D03*
X126962000Y-90471000D03*
X129502000Y-90471000D03*
D16*
X120612000Y-87421000D03*
D15*
X132042000Y-90471000D03*
X134582000Y-90471000D03*
X137122000Y-90471000D03*
X139662000Y-90471000D03*
X142202000Y-90471000D03*
X144742000Y-90471000D03*
X147282000Y-90471000D03*
X147282000Y-75231000D03*
X144742000Y-75231000D03*
X142202000Y-75231000D03*
X139662000Y-75231000D03*
X137122000Y-75231000D03*
X134582000Y-75231000D03*
X132042000Y-75231000D03*
X129502000Y-75231000D03*
X126962000Y-75231000D03*
X124422000Y-75231000D03*
X121882000Y-75231000D03*
X152362000Y-90471000D03*
X154902000Y-90471000D03*
X157442000Y-90471000D03*
X159982000Y-90471000D03*
X162522000Y-90471000D03*
X165062000Y-90471000D03*
X167602000Y-90471000D03*
X170142000Y-90471000D03*
X172682000Y-90471000D03*
X172682000Y-75231000D03*
X170142000Y-75231000D03*
X167602000Y-75231000D03*
X165062000Y-75231000D03*
X162522000Y-75231000D03*
X159982000Y-75231000D03*
X157442000Y-75231000D03*
X154902000Y-75231000D03*
X152362000Y-75231000D03*
D16*
X125692000Y-87421000D03*
X123152000Y-87421000D03*
D15*
X114262000Y-90471000D03*
X149822000Y-75231000D03*
X116802000Y-75231000D03*
X159982000Y-82851000D03*
D17*
X129232000Y-79681000D03*
X127232000Y-79681000D03*
D15*
X159982000Y-77771000D03*
X159982000Y-80311000D03*
D17*
X127232000Y-77681000D03*
X129232000Y-77681000D03*
X129232000Y-81681000D03*
X127232000Y-81681000D03*
D16*
X128232000Y-87421000D03*
X130772000Y-87421000D03*
D15*
X159982000Y-87931000D03*
X114262000Y-75231000D03*
X116802000Y-77771000D03*
%TD*%
D18*
%TO.C,J1*%
X127635000Y-66242500D03*
X126365000Y-68782500D03*
X125095000Y-66242500D03*
X123825000Y-68782500D03*
X122555000Y-66242500D03*
X121285000Y-68782500D03*
X120015000Y-66242500D03*
X118745000Y-68782500D03*
D19*
X129515000Y-54812500D03*
X126975000Y-56602500D03*
X119405000Y-54812500D03*
X116865000Y-56602500D03*
D20*
X128905000Y-59892500D03*
X117475000Y-59892500D03*
D21*
X131065000Y-62942500D03*
X115315000Y-62942500D03*
%TD*%
M02*
