M48
; DRILL file {KiCad (6.0.7)} date Sat Apr 22 03:47:36 2023
; FORMAT={-:-/ absolute / metric / decimal}
; #@! TF.CreationDate,2023-04-22T03:47:36-05:00
; #@! TF.GenerationSoftware,Kicad,Pcbnew,(6.0.7)
; #@! TF.FileFunction,Plated,1,2,PTH
FMAT,2
METRIC
; #@! TA.AperFunction,Plated,PTH,ViaDrill
T1C0.400
; #@! TA.AperFunction,Plated,PTH,ComponentDrill
T2C0.700
; #@! TA.AperFunction,Plated,PTH,ComponentDrill
T3C0.750
; #@! TA.AperFunction,Plated,PTH,ComponentDrill
T4C0.800
; #@! TA.AperFunction,Plated,PTH,ComponentDrill
T5C0.889
; #@! TA.AperFunction,Plated,PTH,ComponentDrill
T6C0.900
; #@! TA.AperFunction,Plated,PTH,ComponentDrill
T7C1.020
; #@! TA.AperFunction,Plated,PTH,ComponentDrill
T8C1.090
; #@! TA.AperFunction,Plated,PTH,ComponentDrill
T9C1.600
; #@! TA.AperFunction,Plated,PTH,ComponentDrill
T10C2.000
; #@! TA.AperFunction,Plated,PTH,ComponentDrill
T11C3.250
%
G90
G05
T1
X150.622Y-72.39
X167.64Y-88.646
X172.72Y-87.884
X175.552Y-87.814
X175.768Y-67.31
X176.276Y-88.646
X176.53Y-76.454
X177.038Y-85.344
X177.038Y-89.408
X181.864Y-78.232
X181.864Y-87.376
X182.118Y-53.34
X182.118Y-57.404
X182.626Y-92.674
X183.134Y-69.596
X183.314Y-90.424
X184.658Y-55.88
X184.658Y-68.326
X185.166Y-87.122
X185.203Y-77.216
X185.42Y-56.642
X185.928Y-92.674
X186.182Y-57.404
X186.182Y-86.36
X187.452Y-53.34
X187.452Y-57.404
X188.468Y-53.34
X188.468Y-56.642
X188.468Y-87.376
X189.992Y-90.424
X190.754Y-91.186
X191.516Y-53.34
X191.516Y-56.642
X191.516Y-85.344
X191.516Y-91.948
X192.278Y-72.39
X192.278Y-87.34
X192.532Y-77.724
X193.548Y-77.724
X194.564Y-53.34
X194.564Y-55.88
X194.564Y-76.454
X195.326Y-68.072
X199.136Y-56.642
X199.136Y-77.216
X199.644Y-86.106
X199.898Y-57.404
X201.93Y-77.978
T2
X127.232Y-77.681
X127.232Y-79.681
X127.232Y-81.681
X129.232Y-77.681
X129.232Y-79.681
X129.232Y-81.681
T3
X120.612Y-87.421
X123.152Y-87.421
X125.692Y-87.421
X128.232Y-87.421
X130.772Y-87.421
T4
X114.262Y-75.231
X114.262Y-90.471
X116.802Y-75.231
X116.802Y-77.771
X116.802Y-90.471
X119.342Y-75.231
X119.342Y-90.471
X121.882Y-75.231
X121.882Y-90.471
X124.422Y-75.231
X124.422Y-90.471
X126.962Y-75.231
X126.962Y-90.471
X129.502Y-75.231
X129.502Y-90.471
X132.042Y-75.231
X132.042Y-90.471
X134.582Y-75.231
X134.582Y-90.471
X137.122Y-75.231
X137.122Y-90.471
X139.662Y-75.231
X139.662Y-90.471
X142.202Y-75.231
X142.202Y-90.471
X144.742Y-75.231
X144.742Y-90.471
X147.282Y-75.231
X147.282Y-90.471
X149.822Y-75.231
X149.822Y-90.471
X152.362Y-75.231
X152.362Y-90.471
X154.902Y-75.231
X154.902Y-90.471
X157.442Y-75.231
X157.442Y-90.471
X159.982Y-75.231
X159.982Y-77.771
X159.982Y-80.311
X159.982Y-82.851
X159.982Y-85.391
X159.982Y-87.931
X159.982Y-90.471
X162.522Y-75.231
X162.522Y-90.471
X165.062Y-75.231
X165.062Y-90.471
X167.602Y-75.231
X167.602Y-90.471
X170.142Y-75.231
X170.142Y-90.471
X172.682Y-75.231
X172.682Y-90.471
T5
X153.67Y-51.308
X153.67Y-53.848
X153.67Y-56.388
T6
X118.745Y-68.782
X120.015Y-66.242
X121.285Y-68.782
X122.555Y-66.242
X123.825Y-68.782
X125.095Y-66.242
X126.365Y-68.782
X127.635Y-66.242
T7
X116.865Y-56.602
X119.405Y-54.812
X126.975Y-56.602
X129.515Y-54.812
T8
X120.396Y-97.294
X122.936Y-97.294
X125.476Y-97.294
X128.016Y-97.294
X130.556Y-97.294
X133.096Y-97.294
X139.7Y-97.294
X142.24Y-97.294
X144.78Y-97.294
X147.32Y-97.294
X149.86Y-97.294
X152.4Y-97.294
X180.594Y-97.294
X183.134Y-97.294
X185.674Y-97.294
X188.214Y-97.294
X190.754Y-97.294
X193.294Y-97.294
T9
X115.315Y-62.942
X131.065Y-62.942
T11
X117.475Y-59.892
X128.905Y-59.892
T10
X139.315Y-66.737G85X137.215Y-66.737
G05
X147.189Y-66.737G85X145.089Y-66.737
G05
T0
M30
