%TF.GenerationSoftware,KiCad,Pcbnew,(6.0.7)*%
%TF.CreationDate,2023-04-22T03:46:43-05:00*%
%TF.ProjectId,Flouro_Breakout,466c6f75-726f-45f4-9272-65616b6f7574,rev?*%
%TF.SameCoordinates,Original*%
%TF.FileFunction,Soldermask,Bot*%
%TF.FilePolarity,Negative*%
%FSLAX46Y46*%
G04 Gerber Fmt 4.6, Leading zero omitted, Abs format (unit mm)*
G04 Created by KiCad (PCBNEW (6.0.7)) date 2023-04-22 03:46:43*
%MOMM*%
%LPD*%
G01*
G04 APERTURE LIST*
G04 Aperture macros list*
%AMRoundRect*
0 Rectangle with rounded corners*
0 $1 Rounding radius*
0 $2 $3 $4 $5 $6 $7 $8 $9 X,Y pos of 4 corners*
0 Add a 4 corners polygon primitive as box body*
4,1,4,$2,$3,$4,$5,$6,$7,$8,$9,$2,$3,0*
0 Add four circle primitives for the rounded corners*
1,1,$1+$1,$2,$3*
1,1,$1+$1,$4,$5*
1,1,$1+$1,$6,$7*
1,1,$1+$1,$8,$9*
0 Add four rect primitives between the rounded corners*
20,1,$1+$1,$2,$3,$4,$5,0*
20,1,$1+$1,$4,$5,$6,$7,0*
20,1,$1+$1,$6,$7,$8,$9,0*
20,1,$1+$1,$8,$9,$2,$3,0*%
G04 Aperture macros list end*
%ADD10RoundRect,0.250000X-0.620000X-0.620000X0.620000X-0.620000X0.620000X0.620000X-0.620000X0.620000X0*%
%ADD11C,1.740000*%
%ADD12C,2.946400*%
%ADD13C,1.524000*%
%ADD14O,5.100000X3.000000*%
%ADD15C,1.308000*%
%ADD16C,1.258000*%
%ADD17C,1.208000*%
%ADD18C,1.100000*%
%ADD19C,1.400000*%
%ADD20C,4.000000*%
%ADD21C,2.000000*%
G04 APERTURE END LIST*
D10*
%TO.C,Conn4*%
X139700000Y-97294000D03*
D11*
X142240000Y-97294000D03*
X144780000Y-97294000D03*
X147320000Y-97294000D03*
X149860000Y-97294000D03*
X152400000Y-97294000D03*
%TD*%
D10*
%TO.C,Conn2*%
X120396000Y-97294000D03*
D11*
X122936000Y-97294000D03*
X125476000Y-97294000D03*
X128016000Y-97294000D03*
X130556000Y-97294000D03*
X133096000Y-97294000D03*
%TD*%
D12*
%TO.C,H3*%
X112058580Y-98507420D03*
%TD*%
%TO.C,H2*%
X201676000Y-98552000D03*
%TD*%
%TO.C,H1*%
X201631420Y-51860580D03*
%TD*%
D10*
%TO.C,J2*%
X180594000Y-97294000D03*
D11*
X183134000Y-97294000D03*
X185674000Y-97294000D03*
X188214000Y-97294000D03*
X190754000Y-97294000D03*
X193294000Y-97294000D03*
%TD*%
D13*
%TO.C,U2*%
X153670000Y-56388000D03*
X153670000Y-53848000D03*
X153670000Y-51308000D03*
%TD*%
D14*
%TO.C,Conn1*%
X146139000Y-66737200D03*
X138265000Y-66737200D03*
%TD*%
D15*
%TO.C,U1*%
X116802000Y-90471000D03*
X119342000Y-90471000D03*
X121882000Y-90471000D03*
X124422000Y-90471000D03*
X149822000Y-90471000D03*
X119342000Y-75231000D03*
X159982000Y-85391000D03*
X126962000Y-90471000D03*
X129502000Y-90471000D03*
D16*
X120612000Y-87421000D03*
D15*
X132042000Y-90471000D03*
X134582000Y-90471000D03*
X137122000Y-90471000D03*
X139662000Y-90471000D03*
X142202000Y-90471000D03*
X144742000Y-90471000D03*
X147282000Y-90471000D03*
X147282000Y-75231000D03*
X144742000Y-75231000D03*
X142202000Y-75231000D03*
X139662000Y-75231000D03*
X137122000Y-75231000D03*
X134582000Y-75231000D03*
X132042000Y-75231000D03*
X129502000Y-75231000D03*
X126962000Y-75231000D03*
X124422000Y-75231000D03*
X121882000Y-75231000D03*
X152362000Y-90471000D03*
X154902000Y-90471000D03*
X157442000Y-90471000D03*
X159982000Y-90471000D03*
X162522000Y-90471000D03*
X165062000Y-90471000D03*
X167602000Y-90471000D03*
X170142000Y-90471000D03*
X172682000Y-90471000D03*
X172682000Y-75231000D03*
X170142000Y-75231000D03*
X167602000Y-75231000D03*
X165062000Y-75231000D03*
X162522000Y-75231000D03*
X159982000Y-75231000D03*
X157442000Y-75231000D03*
X154902000Y-75231000D03*
X152362000Y-75231000D03*
D16*
X125692000Y-87421000D03*
X123152000Y-87421000D03*
D15*
X114262000Y-90471000D03*
X149822000Y-75231000D03*
X116802000Y-75231000D03*
X159982000Y-82851000D03*
D17*
X129232000Y-79681000D03*
X127232000Y-79681000D03*
D15*
X159982000Y-77771000D03*
X159982000Y-80311000D03*
D17*
X127232000Y-77681000D03*
X129232000Y-77681000D03*
X129232000Y-81681000D03*
X127232000Y-81681000D03*
D16*
X128232000Y-87421000D03*
X130772000Y-87421000D03*
D15*
X159982000Y-87931000D03*
X114262000Y-75231000D03*
X116802000Y-77771000D03*
%TD*%
D18*
%TO.C,J1*%
X127635000Y-66242500D03*
X126365000Y-68782500D03*
X125095000Y-66242500D03*
X123825000Y-68782500D03*
X122555000Y-66242500D03*
X121285000Y-68782500D03*
X120015000Y-66242500D03*
X118745000Y-68782500D03*
D19*
X129515000Y-54812500D03*
X126975000Y-56602500D03*
X119405000Y-54812500D03*
X116865000Y-56602500D03*
D20*
X128905000Y-59892500D03*
X117475000Y-59892500D03*
D21*
X131065000Y-62942500D03*
X115315000Y-62942500D03*
%TD*%
M02*
